<?xml version="1.0" standalone="no"?><!DOCTYPE svg PUBLIC "-//W3C//DTD SVG 1.1//EN" "http://www.w3.org/Graphics/SVG/1.1/DTD/svg11.dtd"><svg class="icon" width="200px" height="200.00px" viewBox="0 0 1024 1024" version="1.1" xmlns="http://www.w3.org/2000/svg"><path fill="#2c2c2c" d="M870.4 921.6H153.6a51.2 51.2 0 0 1-51.2-51.2V204.8a51.2 51.2 0 0 1 51.2-51.2h716.8a51.2 51.2 0 0 1 51.2 51.2v665.6a51.2 51.2 0 0 1-51.2 51.2zM204.8 819.2h614.4V256H204.8z"  /><path fill="#2c2c2c" d="M716.8 665.6l-51.2 102.4H358.4l-51.2-102.4H153.6v153.6h665.6v-153.6h-102.4zM307.2 563.2h409.6v51.2H307.2z"  /><path fill="#2c2c2c" d="M307.2 460.8h409.6v51.2H307.2zM307.2 358.4h409.6v51.2H307.2z"  /></svg>