<?xml version="1.0" standalone="no"?><!DOCTYPE svg PUBLIC "-//W3C//DTD SVG 1.1//EN" "http://www.w3.org/Graphics/SVG/1.1/DTD/svg11.dtd"><svg class="icon" width="200px" height="200.00px" viewBox="0 0 1024 1024" version="1.1" xmlns="http://www.w3.org/2000/svg"><path fill="#2c2c2c" d="M933.327908 852.565513l-62.697971 0L870.629937 487.905232c0-26.019607-21.189601-47.210231-47.177486-47.210231L211.316823 440.695001c-25.985838 0-47.176462 21.190625-47.176462 47.210231l0 364.66028-74.839499 0c-14.104229 0-25.601074 11.464099-25.601074 25.63382 0 14.105253 11.496845 25.634844 25.601074 25.634844l844.026022 0c14.169721 0 25.601074-11.529591 25.601074-25.634844C958.928982 864.029612 947.496605 852.565513 933.327908 852.565513L933.327908 852.565513zM817.656445 852.565513 217.11283 852.565513 217.11283 612.141768c2.931772 5.409197 5.92699 11.464099 9.114588 18.032702 14.908548 30.722722 33.425274 69.042469 75.095325 69.042469 41.733497 0 60.2185-38.319747 75.096349-68.975954 12.108782-25.055652 21.574365-42.701544 33.008788-42.701544 11.399631 0 20.86726 17.645892 32.975019 42.635029 14.812357 30.722722 33.360805 69.042469 75.03188 69.042469 41.701774 0 60.249199-38.319747 75.159794-69.042469 12.076036-24.989137 21.543665-42.635029 33.008788-42.635029 11.464099 0 20.931728 17.645892 33.039487 42.701544 14.910595 30.720675 33.425274 68.975954 75.191516 68.975954 41.701774 0 60.249199-38.319747 75.16184-69.042469 2.993171-6.247284 5.861498-12.042267 8.66024-17.195637L817.656445 852.565513 817.656445 852.565513zM817.656445 546.128285c-25.343201 11.398608-39.157835 39.86494-50.814316 63.824631-12.108782 25.054629-21.542642 42.700521-33.008788 42.700521-11.496845 0-20.964474-17.645892-33.07121-42.700521-14.876826-30.720675-33.426297-68.975954-75.160817-68.975954-41.733497 0-60.282968 38.255279-75.096349 68.975954-12.108782 25.054629-21.51092 42.700521-33.070186 42.700521-11.432377 0-20.835538-17.645892-32.94432-42.700521-14.876826-30.720675-33.359782-68.975954-75.06258-68.975954-41.670052 0-60.219523 38.255279-75.095325 68.975954-12.108782 25.054629-21.60711 42.700521-33.007765 42.700521-11.464099 0-20.86726-17.645892-32.975019-42.700521-11.656481-24.087605-25.63382-52.813856-51.233871-64.083527L217.115899 498.854609l600.542592 0 0 47.273676L817.656445 546.128285 817.656445 546.128285zM344.216669 187.198519c12.493545 0 22.671349-10.112312 22.671349-22.670326l0-22.026666c0-12.493545-10.17678-22.671349-22.671349-22.671349-12.527314 0-22.734794 10.177803-22.734794 22.671349l0 22.026666C321.481875 177.086208 331.689355 187.198519 344.216669 187.198519L344.216669 187.198519zM344.216669 224.295416c-11.012821 0-19.934005 8.952906-19.934005 19.901259l0 167.839613c0 11.012821 8.92016 19.901259 19.934005 19.901259 10.948353 0 19.86749-8.888438 19.86749-19.901259L364.084159 244.196675C364.084159 233.248322 355.165022 224.295416 344.216669 224.295416L344.216669 224.295416zM512.410346 187.198519c12.495592 0 22.671349-10.112312 22.671349-22.670326l0-22.026666c0-12.493545-10.175757-22.671349-22.671349-22.671349-12.528338 0-22.704095 10.177803-22.704095 22.671349l0 22.026666C489.707274 177.086208 499.883031 187.198519 512.410346 187.198519L512.410346 187.198519zM512.410346 224.295416c-11.014868 0-19.932981 8.952906-19.932981 19.901259l0 167.839613c0 11.012821 8.919137 19.901259 19.932981 19.901259 10.981099 0 19.868513-8.888438 19.868513-19.901259L532.278859 244.196675C532.278859 233.248322 523.392468 224.295416 512.410346 224.295416L512.410346 224.295416zM680.602999 187.198519c12.495592 0 22.671349-10.112312 22.671349-22.670326l0-22.026666c0-12.493545-10.175757-22.671349-22.671349-22.671349-12.526291 0-22.732747 10.177803-22.732747 22.671349l0 22.026666C657.869229 177.086208 668.077731 187.198519 680.602999 187.198519L680.602999 187.198519zM680.602999 224.295416c-11.013845 0-19.930935 8.952906-19.930935 19.901259l0 167.839613c0 11.012821 8.919137 19.901259 19.930935 19.901259 10.949376 0 19.871583-8.888438 19.871583-19.901259L700.474582 244.196675C700.472536 233.248322 691.552375 224.295416 680.602999 224.295416L680.602999 224.295416z" /></svg>