<?xml version="1.0" standalone="no"?><!DOCTYPE svg PUBLIC "-//W3C//DTD SVG 1.1//EN" "http://www.w3.org/Graphics/SVG/1.1/DTD/svg11.dtd"><svg class="icon" width="200px" height="200.00px" viewBox="0 0 1024 1024" version="1.1" xmlns="http://www.w3.org/2000/svg"><path fill="#2c2c2c" d="M984.529455 748.792242L528.787394 975.90303a14.677333 14.677333 0 0 1-13.048242 0.046546L70.593939 758.721939A15.36 15.36 0 0 1 62.060606 744.882424V253.284848c0-6.035394 3.459879-11.481212 8.843636-13.963636L487.951515 51.712c12.939636-8.890182 27.787636-4.561455 37.85697 0l458.146909 199.214545a15.313455 15.313455 0 0 1 9.014303 14.041213v470.031515a15.36 15.36 0 0 1-8.440242 13.792969z m-15.903031-22.031515V298.97697l-46.793697 19.378424-373.263515 170.620121v445.346909L968.610909 726.776242zM90.965333 735.418182l423.067152 205.094788V495.662545l-318.526061-150.807272-104.541091-48.562425V735.418182zM507.919515 78.196364L95.138909 263.431758l248.645818 117.744484 179.68097 84.557576 241.757091-107.659636 193.101576-84.324849L507.919515 78.196364zM219.306667 453.756121l5.895757 2.591031c1.210182 0.186182 2.420364 0.248242 3.584 0.744727l165.888 70.593939a14.320485 14.320485 0 0 1 7.602424 18.928485 14.196364 14.196364 0 0 1-7.400727 7.292121 14.832485 14.832485 0 0 1-10.364121 4.406303 14.491152 14.491152 0 0 1-5.895758-1.241212L207.437576 481.900606a15.453091 15.453091 0 0 1-7.866182-20.138667 14.87903 14.87903 0 0 1 19.719758-8.021333z"  /></svg>