<?xml version="1.0" standalone="no"?><!DOCTYPE svg PUBLIC "-//W3C//DTD SVG 1.1//EN" "http://www.w3.org/Graphics/SVG/1.1/DTD/svg11.dtd"><svg class="icon" width="200px" height="200.00px" viewBox="0 0 1024 1024" version="1.1" xmlns="http://www.w3.org/2000/svg"><path fill="#2c2c2c" d="M959.438 508.64c0 208.679-200.733 378.367-448.405 378.367-68.597 0-132.862-13-191.35-36.102l-169.687 108.31 26.717-197.85C106.67 694.218 63.347 605.4 63.347 508.64c0-208.678 200.737-378.365 448.407-378.365 246.951 0 447.684 169.687 447.684 378.365zM213.035 862.583l108.427-70.736 16.631-1.562c52.82 19.974 109.813 41.835 169.584 41.835 216.152 0 391.992-151.047 391.992-322.185S723.83 188.938 507.68 188.938c-216.152 0-384.864 149.193-384.864 320.997 0 75.248 27.62 148.494 90.173 205.1l18.276 30.834-18.23 116.714z m49.605-371.272c0 29.113 23.599 52.71 52.712 52.71 29.111 0 52.711-23.597 52.711-52.71 0-29.111-23.6-52.713-52.711-52.713-29.113 0-52.712 23.602-52.712 52.713z m208.68 0c0 29.113 23.6 52.71 52.71 52.71 29.115 0 52.713-23.597 52.713-52.71 0-29.111-23.598-52.713-52.713-52.713-29.111 0-52.71 23.602-52.71 52.713z m208.68 0c0 29.113 23.599 52.71 52.707 52.71 29.114 0 52.716-23.597 52.716-52.71 0-29.111-23.602-52.713-52.716-52.713-29.108 0-52.707 23.602-52.707 52.713z"  /></svg>