<?xml version="1.0" standalone="no"?><!DOCTYPE svg PUBLIC "-//W3C//DTD SVG 1.1//EN" "http://www.w3.org/Graphics/SVG/1.1/DTD/svg11.dtd"><svg class="icon" width="200px" height="200.00px" viewBox="0 0 1024 1024" version="1.1" xmlns="http://www.w3.org/2000/svg"><path fill="#2c2c2c" d="M873.173 320H704v-85.333a192 192 0 1 0-384 0V320H150.827l-44.16 576A85.333 85.333 0 0 0 192 981.333h640a85.333 85.333 0 0 0 85.333-87.04z m-510.506-85.333a149.333 149.333 0 1 1 298.666 0V320H362.667z m469.333 704H192a42.667 42.667 0 0 1-42.667-40.96l41.174-535.04H320v110.506a64 64 0 1 0 42.667 0V362.667h298.666v110.506a64 64 0 1 0 42.667 0V362.667h129.493L874.667 896A42.667 42.667 0 0 1 832 938.667zM362.667 533.333A21.333 21.333 0 1 1 341.333 512a21.333 21.333 0 0 1 21.334 21.333z m341.333 0A21.333 21.333 0 1 1 682.667 512 21.333 21.333 0 0 1 704 533.333z" /></svg>