<?xml version="1.0" standalone="no"?><!DOCTYPE svg PUBLIC "-//W3C//DTD SVG 1.1//EN" "http://www.w3.org/Graphics/SVG/1.1/DTD/svg11.dtd"><svg class="icon" width="200px" height="200.00px" viewBox="0 0 1024 1024" version="1.1" xmlns="http://www.w3.org/2000/svg"><path fill="#2c2c2c" d="M219.52 661.12a64 64 0 0 0 64-67.84 131.84 131.84 0 0 0 0-16.64l147.2-152.96a71.68 71.68 0 0 0 17.28 0h16.64L547.2 512a92.8 92.8 0 0 0 0 17.92 64 64 0 1 0 131.2 0 92.8 92.8 0 0 0 0-17.92l115.84-119.68a64 64 0 0 0 16.64 0 67.84 67.84 0 0 0 0-135.68 64 64 0 0 0-64 67.84 69.76 69.76 0 0 0 0 16.64L627.2 460.16h-16.64a69.76 69.76 0 0 0-16.64 0L512 375.04a92.8 92.8 0 0 0 0-17.92 67.2 67.2 0 0 0-64-67.84 64 64 0 0 0-64 67.84 92.8 92.8 0 0 0 0 17.92L234.88 529.28a69.76 69.76 0 0 0-16.64 0 64 64 0 0 0-64 67.84 68.48 68.48 0 0 0 64 64zM154.24 768h714.88v-59.52H154.24z m0 0"  /></svg>