<?xml version="1.0" standalone="no"?><!DOCTYPE svg PUBLIC "-//W3C//DTD SVG 1.1//EN" "http://www.w3.org/Graphics/SVG/1.1/DTD/svg11.dtd"><svg class="icon" width="200px" height="191.04px" viewBox="0 0 1072 1024" version="1.1" xmlns="http://www.w3.org/2000/svg"><path fill="#2c2c2c" d="M265.45981 763.806476c0-15.993905 12.921905-28.964571 28.964571-28.964571h472.161524a28.964571 28.964571 0 0 1 0 57.929143H294.424381a28.964571 28.964571 0 0 1-28.964571-28.964572zM530.529524 198.217143a28.769524 28.769524 0 0 1 28.720762 28.720762v428.422095h-57.539048V226.937905a28.769524 28.769524 0 0 1 28.769524-28.769524z"  /><path fill="#2c2c2c" d="M681.20381 523.117714a28.769524 28.769524 0 0 1 0 40.667429l-151.454477 151.405714-149.894095-149.942857a28.964571 28.964571 0 1 1 40.96-40.96l109.275429 109.275429 110.445714-110.445715a28.769524 28.769524 0 0 1 40.667429 0z"  /></svg>