<?xml version="1.0" standalone="no"?><!DOCTYPE svg PUBLIC "-//W3C//DTD SVG 1.1//EN" "http://www.w3.org/Graphics/SVG/1.1/DTD/svg11.dtd"><svg class="icon" width="200px" height="200.00px" viewBox="0 0 1024 1024" version="1.1" xmlns="http://www.w3.org/2000/svg"><path fill="#2c2c2c" d="M874.667 64c0-36.267-27.734-64-64-64H213.333c-36.266 0-64 27.733-64 64v896c0 36.267 27.734 64 64 64h597.334c36.266 0 64-27.733 64-64V64zM571.733 917.333h-128c-12.8 0-21.333-8.533-21.333-21.333s8.533-21.333 21.333-21.333h128c12.8 0 21.334 8.533 21.334 21.333s-8.534 21.333-21.334 21.333zM832 768H192V59.733c0-12.8 6.4-17.066 17.067-17.066H806.4c12.8 0 25.6 4.266 25.6 17.066V768z"  /></svg>