<?xml version="1.0" standalone="no"?><!DOCTYPE svg PUBLIC "-//W3C//DTD SVG 1.1//EN" "http://www.w3.org/Graphics/SVG/1.1/DTD/svg11.dtd"><svg class="icon" width="200px" height="200.00px" viewBox="0 0 1024 1024" version="1.1" xmlns="http://www.w3.org/2000/svg"><path fill="#2c2c2c" d="M148.724 719.238L51.2 875.276c-4.876 9.753 0 21.943 12.19 21.943l131.658 7.314c4.876 0 7.314 2.438 9.752 4.877l80.457 107.276c7.314 7.314 19.505 7.314 24.381 0l92.648-153.6c4.876-7.315 2.438-14.629-4.876-19.505l-229.181-129.22c-7.315-2.437-14.629 0-19.505 4.877z m726.552-2.438L972.8 872.838c4.876 9.752 0 21.943-12.19 21.943l-131.658 7.314c-4.876 0-7.314 2.438-9.752 4.876l-80.457 107.277c-7.314 7.314-19.505 7.314-24.381 0l-92.648-153.6c-4.876-7.315-2.438-14.629 4.876-19.505l229.181-129.22c7.315-4.875 14.629-2.437 19.505 4.877z m-19.505-531.505L546.133 9.752c-21.943-12.19-51.2-12.19-73.143 0l-307.2 173.105c-21.942 12.19-36.571 36.572-36.571 60.953v348.647c0 24.381 14.629 48.762 36.571 60.953L475.43 828.952c21.942 12.19 51.2 12.19 73.142 0l307.2-170.666c21.943-12.19 36.572-36.572 36.572-60.953V248.686c0-26.82-14.629-51.2-36.572-63.39zM709.486 334.02l-180.42 260.876c-4.876 7.315-14.628 12.19-24.38 12.19s-19.505-4.875-24.381-12.19L307.2 334.02c-9.752-12.19-4.876-31.695 7.314-39.01 12.19-7.314 31.696-4.876 39.01 7.315l148.724 224.305 156.038-226.743c9.752-12.19 26.819-17.067 39.01-7.315 19.504 12.19 21.942 29.258 12.19 41.448z" /></svg>