<?xml version="1.0" standalone="no"?><!DOCTYPE svg PUBLIC "-//W3C//DTD SVG 1.1//EN" "http://www.w3.org/Graphics/SVG/1.1/DTD/svg11.dtd"><svg class="icon" width="200px" height="200.00px" viewBox="0 0 1024 1024" version="1.1" xmlns="http://www.w3.org/2000/svg"><path fill="#2c2c2c" d="M77.925 333.207h868.323c13.072 0 13.072-10.1 13.072-10.1v-92.62c0-24.924-20.394-45.319-45.318-45.319H109.427c-24.924 0-45.32 20.395-45.32 45.318v86.373c0 16.348 13.818 16.348 13.818 16.348z m862.521 96.43H78.375c-14.267 0-14.267 11.33-14.267 11.33v350.288c0 24.926 20.394 45.318 45.319 45.318h804.581c24.924 0 45.32-20.392 45.32-45.318V448.11s0-18.473-18.882-18.473z m-738.853 141.69c0 8.838-7.23 16.076-16.07 16.076H127.08c-8.84 0-16.074-7.24-16.074-16.076v-55.974c0-8.838 7.233-16.07 16.074-16.07h58.445c8.838 0 16.069 7.232 16.069 16.07v55.974z m123.966 0c0 8.838-7.231 16.076-16.07 16.076h-58.443c-8.84 0-16.073-7.24-16.073-16.076v-55.974c0-8.838 7.235-16.07 16.073-16.07h58.442c8.84 0 16.071 7.232 16.071 16.07v55.974z m236.57 209.035h-43.14l-61.412-179.148h41.174l38.743 126.642c1.926 6.246 3.123 12.143 3.585 17.694h0.695c0.616-5.705 1.925-11.756 3.932-18.157l38.744-126.18h39.901l-62.223 179.15z m161.314-149.425h-15.381v119.702h15.381v29.723h-68.698V750.64h15.15V630.937h-15.15v-29.723h68.698v29.723z m158.02 71.07c-13.455 11.064-30.286 16.364-50.484 15.902h-19.661v62.453H773.15V601.214h61.644c44.564 0 66.849 18.891 66.849 56.67 0 18.35-6.728 33.06-20.18 44.123zM828.202 630.82h-16.884v57.828h16.538c22.437 0 33.656-9.754 33.656-29.261 0-19.042-11.103-28.567-33.31-28.567z" /></svg>