<?xml version="1.0" standalone="no"?><!DOCTYPE svg PUBLIC "-//W3C//DTD SVG 1.1//EN" "http://www.w3.org/Graphics/SVG/1.1/DTD/svg11.dtd"><svg class="icon" width="200px" height="200.00px" viewBox="0 0 1024 1024" version="1.1" xmlns="http://www.w3.org/2000/svg"><path fill="#2c2c2c" d="M663.342 731.06H546.263a26.097 26.097 0 1 1 0-52.194h117.08a26.102 26.102 0 1 1 0 52.193z m-367.365 0h-117.08a26.097 26.097 0 1 1 0-52.194h117.08a26.102 26.102 0 1 1 0 52.193zM878.792 45.588H117.816c-47.227 0-70.164 22.928-70.164 70.16v697.984c0 47.247 22.932 70.154 70.164 70.154h760.97c47.233 0 70.155-22.927 70.155-70.154V115.748c0.015-47.232-22.922-70.16-70.15-70.16z m10.47 751.202c0 25.4-5.227 30.628-30.618 30.628H137.98c-25.395 0-30.628-5.228-30.628-30.628V132.685c0-25.4 5.233-30.628 30.628-30.628h720.64c25.4 0 30.628 5.227 30.628 30.628V796.79h0.015zM446.321 601.108H182.159c-16.225 0-29.358-11.688-29.358-26.101 0-14.403 13.118-26.097 29.358-26.097h264.162c16.215 0 29.358 11.689 29.358 26.097-0.005 14.402-13.138 26.101-29.358 26.101zM391.24 469.873H225.725c-37.16 0-52.04-14.88-52.04-52.035V252.324c0-37.156 14.88-52.035 52.04-52.035H391.24c37.156 0 52.034 14.879 52.034 52.04v165.514c0 37.15-14.878 52.03-52.034 52.03z m-165.515-224.65c-12.38 0-7.106-5.274-7.106 7.106v165.514c0 12.375-5.274 7.107 7.106 7.107H391.24c12.375 0 7.106 5.268 7.106-7.107V252.33c0-12.38 5.269-7.107-7.106-7.107H225.725zM813.67 601.108H549.51c-16.226 0-29.354-11.688-29.354-26.101 0-14.403 13.118-26.097 29.353-26.097H813.67c16.22 0 29.358 11.689 29.358 26.097 0 14.402-13.137 26.101-29.358 26.101zM758.6 469.873H593.085c-37.16 0-52.04-14.88-52.04-52.035V252.324c0-37.156 14.88-52.035 52.04-52.035H758.6c37.156 0 52.034 14.879 52.034 52.04v165.514c0 37.15-14.878 52.03-52.034 52.03z m-165.515-224.65c-12.38 0-7.106-5.274-7.106 7.106v165.514c0 12.375-5.274 7.107 7.106 7.107H758.6c12.375 0 7.111 5.268 7.111-7.107V252.33c0-12.38 5.264-7.107-7.111-7.107H593.085zM356.21 661.114l26.875 30.853 70.686-63.698s10.762-6.272 18.683 2.499c8.52 9.44-0.758 21.391-0.758 21.391l-89.6 81.618-44.8-51.758s-8.284-12.61 1.004-20.905c9.129-8.151 17.91 0 17.91 0z m367.36 0l26.87 30.853 70.691-63.698s10.762-6.272 18.678 2.499c8.52 9.44-0.758 21.391-0.758 21.391l-89.6 81.618-44.8-51.758s-8.279-12.61 1.009-20.905c9.129-8.151 17.91 0 17.91 0z" /></svg>