<?xml version="1.0" standalone="no"?><!DOCTYPE svg PUBLIC "-//W3C//DTD SVG 1.1//EN" "http://www.w3.org/Graphics/SVG/1.1/DTD/svg11.dtd"><svg class="icon" width="200px" height="181.88px" viewBox="0 0 1126 1024" version="1.1" xmlns="http://www.w3.org/2000/svg"><path fill="#2c2c2c" d="M963.498 52.764H155.706c-37.283 0-62.138 24.854-62.138 62.138v807.792c0 37.283 24.854 62.138 62.138 62.138h807.792c37.283 0 62.138-24.854 62.138-62.138V114.902c0-37.283-31.069-62.138-62.138-62.138zM292.409 413.163L460.181 195.68c18.641-24.854 55.924-24.854 74.565 0l93.206 111.849 18.641-24.854c18.641-24.854 55.924-31.069 74.565 0l105.635 124.276c24.854 24.854 12.428 49.711-24.854 49.711H311.05c-31.069 6.213-43.497-18.641-18.641-43.497z m671.089 509.529H155.706V574.72h807.792v347.972zM870.292 736.278H248.914c-18.641 0-31.069-12.428-31.069-31.069s12.428-31.069 31.069-31.069h621.378c18.641 0 31.069 12.428 31.069 31.069s-12.428 31.069-31.069 31.069zM683.878 860.555H248.914c-18.641 0-31.069-12.428-31.069-31.069s12.428-31.069 31.069-31.069h434.964c18.641 0 31.069 12.428 31.069 31.069s-12.428 31.069-31.069 31.069z" /></svg>