<?xml version="1.0" standalone="no"?><!DOCTYPE svg PUBLIC "-//W3C//DTD SVG 1.1//EN" "http://www.w3.org/Graphics/SVG/1.1/DTD/svg11.dtd"><svg class="icon" width="200px" height="200.00px" viewBox="0 0 1024 1024" version="1.1" xmlns="http://www.w3.org/2000/svg"><path fill="#2c2c2c" d="M984.615 630.154H39.385a39.385 39.385 0 0 0 0 78.77h945.23a39.385 39.385 0 0 0 0-78.77z m0 157.538H39.385a39.385 39.385 0 0 0 0 78.77h945.23a39.385 39.385 0 0 0 0-78.77z m0 157.539H39.385a39.385 39.385 0 0 0 0 78.769h945.23a39.385 39.385 0 0 0 0-78.77z m0-472.616H590.77a39.385 39.385 0 0 0 0 78.77h393.846a39.385 39.385 0 0 0 0-78.77z m0-157.538H590.77a39.385 39.385 0 0 0 0 78.77h393.846a39.385 39.385 0 0 0 0-78.77z m0-157.539H590.77a39.385 39.385 0 0 0 0 78.77h393.846a39.385 39.385 0 0 0 0-78.77zM327.916 315.077H106.811a39.385 39.385 0 0 0 0 78.77h221.105a39.385 39.385 0 0 0 0-78.77zM214.489 0a39.385 39.385 0 0 0-36.943 52.854L352.65 533.977a39.385 39.385 0 0 0 74.043-26.94L251.51 25.916A39.385 39.385 0 0 0 214.49 0zM214.489 0a39.385 39.385 0 0 0-37.022 25.915L2.363 507.038a39.463 39.463 0 0 0 37.022 52.854 39.385 39.385 0 0 0 37.021-25.915L251.51 52.854A39.385 39.385 0 0 0 214.49 0z" /></svg>