<?xml version="1.0" standalone="no"?><!DOCTYPE svg PUBLIC "-//W3C//DTD SVG 1.1//EN" "http://www.w3.org/Graphics/SVG/1.1/DTD/svg11.dtd"><svg class="icon" width="200px" height="200.00px" viewBox="0 0 1024 1024" version="1.1" xmlns="http://www.w3.org/2000/svg"><path fill="#2c2c2c" d="M659.692308 977.132308a62.227692 62.227692 0 0 1-46.473846-20.086154 185.107692 185.107692 0 0 0-103.975385-60.258462 182.744615 182.744615 0 0 0-102.793846 59.47077 62.621538 62.621538 0 0 1-46.08 19.298461 60.652308 60.652308 0 0 1-24.024616-4.726154l-122.092307-68.135384a58.289231 58.289231 0 0 1-19.298462-70.104616 149.267692 149.267692 0 0 0 11.027692-49.230769A128.393846 128.393846 0 0 0 78.769231 654.572308h-7.089231c-20.086154 0-36.627692-17.723077-41.747692-45.686154A630.153846 630.153846 0 0 1 19.692308 512a630.153846 630.153846 0 0 1 10.24-96.492308c5.12-28.356923 22.055385-46.473846 42.535384-45.686154H78.769231a128.393846 128.393846 0 0 0 126.030769-127.606153 149.267692 149.267692 0 0 0-11.027692-49.23077 57.895385 57.895385 0 0 1 19.692307-70.104615l128.787693-70.892308a57.107692 57.107692 0 0 1 23.236923-4.726154 64.196923 64.196923 0 0 1 46.473846 19.298462 182.350769 182.350769 0 0 0 101.612308 56.713846 179.2 179.2 0 0 0 101.612307-56.32 65.772308 65.772308 0 0 1 46.08-18.510769 57.501538 57.501538 0 0 1 23.63077 4.726154l124.455384 68.923077a57.895385 57.895385 0 0 1 19.692308 70.104615 149.267692 149.267692 0 0 0-11.027692 49.230769 128.393846 128.393846 0 0 0 129.181538 128.787693h4.332308c20.48 0 37.415385 17.329231 42.535384 45.686153A630.153846 630.153846 0 0 1 1004.307692 512a630.153846 630.153846 0 0 1-10.24 96.492308c-5.12 28.356923-22.055385 46.08-42.535384 45.686154h-4.332308a128.393846 128.393846 0 0 0-128 128 149.267692 149.267692 0 0 0 11.027692 49.230769 57.895385 57.895385 0 0 1-19.692307 70.104615l-125.243077 69.316923a57.107692 57.107692 0 0 1-23.236923 4.726154z m-3.938462-59.076923a9.452308 9.452308 0 0 0 3.938462 0l118.153846-64.59077a196.923077 196.923077 0 0 1-15.753846-71.68 186.289231 186.289231 0 0 1 176.443077-185.501538A542.72 542.72 0 0 0 945.230769 512a542.72 542.72 0 0 0-9.058461-84.676923 186.289231 186.289231 0 0 1-176.443077-185.501539 196.923077 196.923077 0 0 1 15.753846-71.68L661.661538 106.338462a8.270769 8.270769 0 0 0-4.332307 0 325.710769 325.710769 0 0 1-42.535385 35.84 178.806154 178.806154 0 0 1-99.643077 37.415384 176.836923 176.836923 0 0 1-100.824615-39.384615 302.08 302.08 0 0 1-42.535385-36.627693 11.815385 11.815385 0 0 0-4.726154 0l-118.153846 65.378462a200.073846 200.073846 0 0 1 15.753846 71.68 186.289231 186.289231 0 0 1-178.018461 187.076923A542.72 542.72 0 0 0 78.769231 512a542.72 542.72 0 0 0 9.058461 84.676923 186.289231 186.289231 0 0 1 176.443077 185.501539 202.830769 202.830769 0 0 1-15.753846 72.073846l112.64 63.015384a6.301538 6.301538 0 0 0 3.544615 0 367.458462 367.458462 0 0 1 43.323077-39.384615 177.624615 177.624615 0 0 1 102.006154-39.384615 174.867692 174.867692 0 0 1 103.187693 39.384615 310.744615 310.744615 0 0 1 43.323076 39.384615z m0 0"  /><path fill="#2c2c2c" d="M512 682.141538A170.535385 170.535385 0 1 1 680.566154 512 170.929231 170.929231 0 0 1 512 682.141538z m0-282.781538A112.64 112.64 0 1 0 622.276923 512a112.64 112.64 0 0 0-110.276923-112.64z m0 0"  /></svg>