<?xml version="1.0" standalone="no"?><!DOCTYPE svg PUBLIC "-//W3C//DTD SVG 1.1//EN" "http://www.w3.org/Graphics/SVG/1.1/DTD/svg11.dtd"><svg class="icon" width="200px" height="191.58px" viewBox="0 0 1069 1024" version="1.1" xmlns="http://www.w3.org/2000/svg"><path fill="#2c2c2c" d="M1069.553766 707.043527c0 4.568978-0.519997 5.767972-5.896971 6.00797-2.999985 0.006-4.01298-0.047-6.01997-0.046999H0.159019C0.158019 477.483655 0.180019 241.961811 0.00002 6.434968-0.00598 0.859996 1.299014 0 6.586988 0 360.878247 0.151999 715.168507 0.139999 1069.459767 0.139999c0 90.415556 0.094 686.428628 0.093999 706.903528zM1069.465767 889.886629H13.630953c-2.229989 0-4.487978-0.192999-6.698967 0.03-5.392974 0.549997-6.884966-1.98999-6.849966-7.066966 0.174999-24.785878 0.174999-49.577756 0-74.363634-0.035-5.083975 1.456993-7.621963 6.849966-7.072966 2.210989 0.222999 4.463978 0.036 6.697967 0.036h1055.829814l0.006 88.437566zM0.08102 1023.884971c0-25.002877-0.046-50.010754 0.018-75.012632 0.041-14.905927-1.637992-13.413934 13.086935-13.413934 352.068271-0.018 704.136541-0.012 1056.197812-0.012 0 27.909863-0.104999 55.830726 0.116999 83.740589 0.035 4.00698-0.812996 4.808976-4.802976 4.802976-83.746589-0.145999-167.499177-0.110999-251.245766-0.110999l-813.370004 0.006z" /></svg>