<?xml version="1.0" standalone="no"?><!DOCTYPE svg PUBLIC "-//W3C//DTD SVG 1.1//EN" "http://www.w3.org/Graphics/SVG/1.1/DTD/svg11.dtd"><svg class="icon" width="200px" height="139.60px" viewBox="0 0 1467 1024" version="1.1" xmlns="http://www.w3.org/2000/svg"><path fill="#2c2c2c" d="M0.178 0.14303h672.09698c0 220.999994 0.005 441.997987-0.018 662.996981 0 10.47 1.377 9.083-8.749999 9.082999-218.189994 0.034-436.372987 0.034-654.561981 0-10.126 0-8.744 1.388-8.75-9.082999C0.172 442.141017 0.178 221.142024 0.178 0.14303z m795.299977 0c221.979993 0 443.964987 0.023 665.94398-0.143 5.258-0.006 6.313 1.044 6.308 6.308-0.167 221.978993-0.144 443.957987-0.144 665.93798-221.159994 0-442.329987 0.006-663.489981-0.017-9.834-0.006-8.59 1.238-8.589999-8.595999-0.04-221.159994-0.028-442.323987-0.028-663.489981zM0.178 717.660009h661.006981c11.09 0 11.095 0 11.094999 11.354v99.251997c0 11.353 0 11.353-11.094999 11.352999H0.178V717.660009zM0.166 901.903004h658.799981c1.944 0 3.91 0.19 5.831-0.034 5.51-0.625 8.005 1.365 7.557999 7.235999-0.407 5.379-0.086 10.803-0.086 16.205v98.557997c-222.122993 0-444.245987-0.023-666.36298 0.132-5.092 0.006-5.877-1.388-5.854-6.072 0.206-38.670999 0.114-77.347998 0.114-116.024996z m795.369977 121.964996c0-37.844999 0.125-75.672998-0.127-113.512997-0.04-6.359 1.531-8.595 8.285999-8.589999 218.595994 0.161 437.192987 0.161 655.782981 0 6.76-0.005 8.332 2.231 8.286 8.589999-0.258 37.839999-0.126 75.667998-0.126 113.512997H795.534977z m336.03599-306.207991h326.29999c9.823 0 9.829 0.012 9.835 10.023 0 34.381999 0.005 68.763998-0.006 103.145997 0 8.75-0.029 8.784-8.47 8.789999-213.853994 0.006-427.713987-0.006-641.572981 0.052-4.92 0-9.743-0.94-14.772-0.488-4.38 0.39-7.38-2.03-7.349999-7.585999 0.183-35.229999 0.234-70.459998-0.081-105.696997-0.057-6.652 2.041-8.378 8.514999-8.372 109.199997 0.184 218.401994 0.132 327.601991 0.132z" /></svg>