<?xml version="1.0" standalone="no"?><!DOCTYPE svg PUBLIC "-//W3C//DTD SVG 1.1//EN" "http://www.w3.org/Graphics/SVG/1.1/DTD/svg11.dtd"><svg class="icon" width="200px" height="199.80px" viewBox="0 0 1025 1024" version="1.1" xmlns="http://www.w3.org/2000/svg"><path fill="#2c2c2c" d="M342.272 938.65h117.504c15.667 0 28.416-13.62 28.416-30.31v-270.9l-79.36-46.49-94.976 60.007v257.382c0 16.691 12.8 30.31 28.416 30.31zM0 641.69l384.051-242.74 22.323-14.182 22.733 13.363 115.2 67.584 308.173-281.6-43.776-53.555 107.674-22.58L1024 85.35 988.518 196.3l-35.532 110.9-40.807-49.92-332.697 304.18-23.91 21.81-27.495-16.076-120.064-70.503-361.626 228.71L0 641.69z m97.229 296.96h117.504c15.616 0 28.416-13.62 28.416-30.31V695.705L68.864 805.888v102.451c0 16.691 12.8 30.31 28.365 30.31z m490.035 0h117.504c15.616 0 28.416-13.62 28.416-30.31V527.666c0-1.536-0.102-3.174-0.358-4.608L560.998 680.141l-2.099-1.229v229.376c-0.051 16.742 12.749 30.362 28.365 30.362z m245.043 0H949.76c15.667 0 28.467-13.62 28.467-30.31V449.074l-70.451-86.016-103.885 95.027V908.34c0 16.691 12.8 30.31 28.416 30.31z m0 0"  /></svg>