<?xml version="1.0" standalone="no"?><!DOCTYPE svg PUBLIC "-//W3C//DTD SVG 1.1//EN" "http://www.w3.org/Graphics/SVG/1.1/DTD/svg11.dtd"><svg class="icon" width="200px" height="155.50px" viewBox="0 0 1317 1024" version="1.1" xmlns="http://www.w3.org/2000/svg"><path fill="#2c2c2c" d="M325.065 353.023c62.086 0 112.423-50.705 112.423-113.277S387.21 126.469 325.065 126.469 212.64 177.174 212.64 239.73s50.338 113.292 112.424 113.292zM663.6 496.13l-86.394-93.122-224.316 264.834-91.974-84.686-133.741 172.198h932.6V583.155L840.54 264.981 663.601 496.129zM65.428 754.749V139.086c0-40.355 27.856-73.172 62.1-73.172h937.416c34.245 0 62.1 32.832 62.1 73.172V754.75c0 40.356-27.855 73.173-62.1 73.173H127.53c-34.245 0-62.1-32.89-62.1-73.173z m1127.045 0V139.086C1192.458 62.396 1135.26 0 1064.944 0H127.53C57.213 0 0 62.395 0 139.086V754.75c0 76.692 57.213 139.087 127.529 139.087h937.415c70.316 0 127.514-62.395 127.514-139.087z m48.232-613.116l0.147 85.304c8.834 12.647 11.425 24.676 11.425 42.314v615.663c0 40.355-27.856 73.172-62.1 73.172h-937.43c-20.362 0-29.74-2.945-42.83-20.288-17.505 0.427-57.227 0-75.086 0 16.195 58.582 61.836 86.187 117.871 86.187h937.46c70.316 0 127.528-62.395 127.528-139.086V269.251c0-58.214-30.343-106.932-76.985-127.618z" /></svg>