<?xml version="1.0" standalone="no"?><!DOCTYPE svg PUBLIC "-//W3C//DTD SVG 1.1//EN" "http://www.w3.org/Graphics/SVG/1.1/DTD/svg11.dtd"><svg class="icon" width="200px" height="200.00px" viewBox="0 0 1024 1024" version="1.1" xmlns="http://www.w3.org/2000/svg"><path fill="#2c2c2c" d="M855.936 433.4976c-9.9584 9.9584-26.2528 9.9584-36.1984 0L537.6 151.36 537.6 934.4c0 14.08-11.52 25.6-25.6 25.6-14.08 0-25.6-11.52-25.6-25.6L486.4 151.36 204.2624 433.4976c-9.9584 9.9584-26.2528 9.9584-36.1984 0-9.9584-9.9584-9.9584-26.2528 0-36.1984L493.9008 71.4496c2.3936-2.3936 5.1712-4.1856 8.1152-5.4272 0.0128-0.0128 0.0256-0.0128 0.0512-0.0256 1.2544-0.5248 2.5472-0.8832 3.8528-1.2032 0.3456-0.0896 0.6656-0.2304 1.024-0.3072 3.3408-0.6656 6.784-0.6656 10.112 0 0.3584 0.0768 0.6784 0.2176 1.024 0.3072 1.3056 0.32 2.5984 0.6784 3.8528 1.2032 0.0128 0 0.0128 0.0128 0.0256 0.0128 2.9568 1.2416 5.7344 3.0336 8.1408 5.4272L855.936 397.2864C865.8944 407.2448 865.8944 423.5392 855.936 433.4976z" /></svg>