<?xml version="1.0" standalone="no"?><!DOCTYPE svg PUBLIC "-//W3C//DTD SVG 1.1//EN" "http://www.w3.org/Graphics/SVG/1.1/DTD/svg11.dtd"><svg class="icon" width="200px" height="200.00px" viewBox="0 0 1024 1024" version="1.1" xmlns="http://www.w3.org/2000/svg"><path fill="#2c2c2c" d="M930.91 93.09H93.09C41.89 93.09 0 134.983 0 186.183v651.636c0 51.2 41.89 93.091 93.09 93.091h837.82c51.2 0 93.09-41.89 93.09-93.09V186.181c0-51.2-41.89-93.091-93.09-93.091zM93.09 139.637h837.82c25.6 0 46.545 20.946 46.545 46.546V528.29L728.436 288.58c-9.309-9.308-23.272-9.308-32.581 0L388.655 588.8l-95.419-93.09c-9.309-9.31-23.272-9.31-32.581 0L46.545 714.472V186.182c0-25.6 20.946-46.546 46.546-46.546z m837.82 744.728H93.09c-25.6 0-46.545-20.946-46.545-46.546v-55.854l230.4-237.382 95.419 93.09c9.309 9.31 23.272 9.31 32.581 0l304.873-300.217 265.31 256v244.363c2.327 25.6-18.619 46.546-44.219 46.546zM162.909 325.818a69.818 69.818 0 1 0 139.636 0 69.818 69.818 0 1 0-139.636 0z" /></svg>