<?xml version="1.0" standalone="no"?><!DOCTYPE svg PUBLIC "-//W3C//DTD SVG 1.1//EN" "http://www.w3.org/Graphics/SVG/1.1/DTD/svg11.dtd"><svg class="icon" width="200px" height="200.00px" viewBox="0 0 1024 1024" version="1.1" xmlns="http://www.w3.org/2000/svg"><path fill="#2c2c2c" d="M812.032 727.04H211.968v-80.896L349.184 512l67.584 66.56L634.88 364.544l178.176 174.08-1.024 188.416zM293.888 458.752c-45.056 0-81.92-35.84-81.92-79.872s35.84-80.896 81.92-80.896c45.056 0 81.92 35.84 81.92 79.872s-36.864 80.896-81.92 80.896z m-123.904-215.04c-4.096 0-7.168 1.024-9.216 4.096-2.048 2.048-4.096 6.144-4.096 9.216v508.928c0 7.168 6.144 13.312 13.312 13.312h681.984c7.168 0 13.312-6.144 13.312-13.312V258.048c0-7.168-6.144-13.312-13.312-13.312l-681.984-1.024zM921.6 766.976c0 36.864-30.72 66.56-67.584 66.56H169.984c-37.888 0-67.584-30.72-67.584-66.56V258.048c0-36.864 30.72-66.56 67.584-66.56h681.984c37.888 0 67.584 30.72 67.584 66.56l2.048 508.928z" /></svg>