<?xml version="1.0" standalone="no"?><!DOCTYPE svg PUBLIC "-//W3C//DTD SVG 1.1//EN" "http://www.w3.org/Graphics/SVG/1.1/DTD/svg11.dtd"><svg class="icon" width="200px" height="200.00px" viewBox="0 0 1024 1024" version="1.1" xmlns="http://www.w3.org/2000/svg"><path fill="#2c2c2c" d="M528.012 956.8c0 22.4-19.214 41.6-41.63 41.6s-38.428-19.2-38.428-41.6c0-22.4 19.214-41.6 41.631-41.6s38.427 19.2 38.427 41.6z m-144.106 0c0 35.2-28.821 67.2-67.249 67.2s-67.249-28.8-67.249-67.2c0-38.4 28.821-67.2 67.249-67.2s67.249 32 67.249 67.2z m-25.619 0c0-22.4-19.214-41.6-41.631-41.6s-41.631 19.2-41.631 41.6c0 22.4 19.214 41.6 41.631 41.6s41.631-16 41.631-41.6z m294.617-41.6c-22.417 0-41.63 19.2-41.63 41.6 0 22.4 19.214 41.6 41.63 41.6s41.631-19.2 41.631-41.6c-0.001-22.4-19.215-41.6-41.631-41.6zM995.556 80v620.8c0 22.4-6.405 41.6-22.416 57.6-16.012 16-35.226 22.4-57.642 22.4H108.503c-22.417 0-41.631-6.4-57.642-22.4s-22.416-35.2-22.416-57.6V80c0-22.4 6.405-41.6 22.416-57.6S86.087 0 108.503 0h810.196c22.417 0 41.631 6.4 57.642 22.4 9.607 16 19.215 35.2 19.215 57.6z m-64.048 0c0-3.2-3.202-9.6-6.405-12.8-3.202-3.2-6.405-6.4-12.809-6.4H102.099c-3.202 0-9.607 0-12.809 6.4 0 3.2-6.405 6.4-6.405 12.8v620.8c0 3.2 3.202 9.6 6.405 12.8 3.202 3.2 6.405 6.4 12.809 6.4h810.196c3.202 0 9.607-3.2 12.809-6.4s6.405-6.4 6.405-12.8V80zM396.715 473.6l-80.059-80-163.32 163.2V656h714.125V428.8L656.106 217.6l-259.391 256zM249.407 326.4c25.619 0 51.238-9.6 70.452-28.8 19.214-19.2 28.821-41.6 28.821-70.4 0-28.8-9.607-51.2-28.821-70.4-19.214-19.2-38.428-28.8-70.452-28.8-25.619 0-51.238 9.6-70.452 28.8-19.214 19.2-28.821 41.6-28.821 70.4 0 25.6 9.607 51.2 28.821 70.4 19.214 19.2 44.833 28.8 70.452 28.8z" /></svg>