<?xml version="1.0" standalone="no"?><!DOCTYPE svg PUBLIC "-//W3C//DTD SVG 1.1//EN" "http://www.w3.org/Graphics/SVG/1.1/DTD/svg11.dtd"><svg class="icon" width="200px" height="200.00px" viewBox="0 0 1024 1024" version="1.1" xmlns="http://www.w3.org/2000/svg"><path fill="#2c2c2c" d="M512 350.64208c-24.684292 0-44.790047 20.47545-44.790047 45.728504 0 25.139302 20.105754 45.586314 44.790047 45.586314s44.790047-20.47545 44.790047-45.586314c0-25.253055-20.105754-45.700067-44.790047-45.700066z m0 73.370362a27.44279 27.44279 0 0 1-27.158409-27.641858c0-15.299711 12.114641-27.641857 27.158409-27.641857 14.930016 0 27.158409 12.342146 27.158409 27.641857s-12.228394 27.641857-27.158409 27.641858z"  /><path fill="#2c2c2c" d="M662.636747 167.159298C640.170629 127.857809 563.10331 0 511.431238 0 459.901355 0 383.004666 127.971562 360.709176 167.159298 322.971784 233.306376 258.047545 366.311486 240.671851 521.270829a399.640969 399.640969 0 0 0-69.474339 224.888691c0 68.877138 18.285714 137.441457 53.093979 198.014664 6.256387 11.090869 17.944457 17.802266 30.542546 17.802266 12.569651 0 24.229282-6.82515 30.514108-17.916019a217.63697 217.63697 0 0 1 64.440791-71.322817c30.087536 26.874028 64.099533 45.842257 100.358142 55.880915v59.065986c0 19.906687 15.840036 36.002666 35.34859 36.002666h53.008664c19.508554 0 35.348589-16.124417 35.34859-36.002666v-59.065986c36.258609-10.152411 70.270607-29.12064 100.358142-55.880915a218.063541 218.063541 0 0 1 64.554544 71.322817c6.256387 11.090869 17.944457 17.916019 30.514108 17.916019 12.569651 0 24.257721-6.82515 30.542546-17.802266a399.697845 399.697845 0 0 0 52.980226-198.014664c0-80.110198-24.030216-157.689402-69.588091-224.888691-17.404132-155.044657-82.754943-287.936014-120.57765-354.054655z m-124.132415 538.049322h-53.008664a8.901133 8.901133 0 0 0-8.844257 9.043324v174.695401c-111.363697-22.067985-196.336814-145.233504-196.336814-289.642302 0-152.087092 53.975561-293.197067 110.112419-395.005554h242.577205c56.478116 101.808487 110.681182 242.80471 110.681182 395.005554 0 144.408798-84.973117 267.602755-196.336814 289.642302v-174.695401a8.901133 8.901133 0 0 0-8.844257-9.043324z m-8.872695 17.944457v255.601866h-35.377027v-255.601866h35.377027z m-266.266163-154.134637c-0.45501 10.067096-0.796267 20.105754-0.796267 30.286603 0 88.072873 30.315041 168.751833 78.802044 225.997779-35.149522 21.357032-64.213286 48.913575-86.338147 82.95401a353.713397 353.713397 0 0 1-39.614308-162.12575c0-62.279493 16.607865-122.852699 47.946678-177.112642z m247.980449-524.114641c12.228394 1.82004 61.483226 55.539658 111.47745 141.337481H400.522551c49.852033-85.68407 98.680293-139.517441 110.794934-141.337481z m249.971118 554.401244c0-10.180849-0.227505-20.361697-0.796268-30.286603a352.206176 352.206176 0 0 1 48.060431 177.112642c0 55.96623-13.707176 111.761831-39.72806 162.097312-22.124861-34.011997-51.302377-61.682293-86.4519-83.039325 48.487003-57.132193 78.915796-137.811153 78.915797-225.884026z"  /></svg>