<?xml version="1.0" standalone="no"?><!DOCTYPE svg PUBLIC "-//W3C//DTD SVG 1.1//EN" "http://www.w3.org/Graphics/SVG/1.1/DTD/svg11.dtd"><svg class="icon" width="200px" height="200.00px" viewBox="0 0 1024 1024" version="1.1" xmlns="http://www.w3.org/2000/svg"><path fill="#2c2c2c" d="M512.542 715.377c120.34 0 218.246-97.906 218.246-218.246V222.393c0-120.333-97.906-218.239-218.246-218.239s-218.253 97.9-218.253 218.239V497.13c0 120.34 97.913 218.246 218.253 218.246zM380.989 222.393c0-72.532 59.014-131.539 131.553-131.539s131.546 59.007 131.546 131.539V497.13c0 72.539-59.007 131.546-131.546 131.546S380.989 569.67 380.989 497.13V222.393zM843.071 934.526H555.885v-64.881c185.805-21.567 330.53-179.794 330.53-371.286a43.35 43.35 0 0 0-86.7 0c0 158.35-128.83 287.18-287.188 287.18-158.35 0-287.172-128.83-287.172-287.18a43.35 43.35 0 0 0-86.7 0c0 191.492 144.731 349.727 330.53 371.286v64.88H182.012a43.35 43.35 0 0 0 0 86.7h661.06a43.35 43.35 0 0 0 0-86.7z" /></svg>