<?xml version="1.0" standalone="no"?><!DOCTYPE svg PUBLIC "-//W3C//DTD SVG 1.1//EN" "http://www.w3.org/Graphics/SVG/1.1/DTD/svg11.dtd"><svg class="icon" width="200px" height="200.00px" viewBox="0 0 1024 1024" version="1.1" xmlns="http://www.w3.org/2000/svg"><path fill="#2c2c2c" d="M294.773933 1013.644944H119.428315a11.505618 11.505618 0 1 1 0-23.931686h175.230561a11.505618 11.505618 0 0 1 0 23.931686z m418.574382 0H370.826067a11.505618 11.505618 0 0 1 0-23.931686H713.348315a12.311011 12.311011 0 0 1 11.505618 11.505618 12.426067 12.426067 0 0 1-11.505618 11.505618z m199.047191 0h-103.550562a11.505618 11.505618 0 0 1 0-23.931686h103.550562a11.505618 11.505618 0 0 1 0 23.931686z m0 0M256.115056 805.393258h-80.539326A42.800899 42.800899 0 0 1 132.314607 762.59236V171.548764a42.800899 42.800899 0 0 1 43.031011-42.915955h454.356854a11.505618 11.505618 0 0 1 0 23.931685H175.000449A19.444494 19.444494 0 0 0 155.325843 171.66382v591.043596A19.444494 19.444494 0 0 0 175.000449 782.382022h81.114607m462.065618 23.011236"  /><path fill="#2c2c2c" d="M835.192809 930.689438H301.677303a60.059326 60.059326 0 0 1-59.714157-59.714157v-425.707865l-74.09618-48.323596 73.290787-48.553708v-56.60764a60.059326 60.059326 0 0 1 59.714157-59.714157H834.157303a60.059326 60.059326 0 0 1 59.714158 59.714157v578.272359a59.02382 59.02382 0 0 1-58.908764 60.634607zM211.588315 396.94382l54.19146 34.516854v438.594157a35.667416 35.667416 0 0 0 35.897528 35.897529h533.515506a35.667416 35.667416 0 0 0 35.897528-35.897529V291.897528a35.667416 35.667416 0 0 0-35.897528-35.897528H301.677303a35.667416 35.667416 0 0 0-35.897528 35.897528v69.033708z m0 0"  /><path fill="#2c2c2c" d="M645.695281 403.386966H374.853034a15.992809 15.992809 0 0 1 0-31.870562h270.842247a15.992809 15.992809 0 0 1 0 31.870562z m0-15.992809z m0 95.611686H374.853034a15.992809 15.992809 0 0 1 0-31.870562h270.842247a15.992809 15.992809 0 0 1 0 31.870562z m0-15.877753z m-46.022472 382.216629H373.242247a15.992809 15.992809 0 0 1 0-31.755506h225.28a15.187416 15.187416 0 0 1 14.382023 15.877753 14.382022 14.382022 0 0 1-13.461573 15.877753z m-224.819775-15.877753zM685.504719 1.150562a12.195955 12.195955 0 0 0-11.505618 11.505618v80.079101a11.505618 11.505618 0 1 0 23.931686 0V13.116404a12.311011 12.311011 0 0 0-11.505618-11.505617zM790.666067 34.516854a12.311011 12.311011 0 0 0-16.683146 2.301124l-47.057977 64.661573a12.426067 12.426067 0 0 0 2.301123 16.683146 13.001348 13.001348 0 0 0 7.24854 2.416179 11.505618 11.505618 0 0 0 9.434606-4.832359l47.057978-64.546517a10.815281 10.815281 0 0 0-2.301124-16.683146z m105.966742 69.033708a11.505618 11.505618 0 0 0-15.877753-5.522697l-72.485393 33.481348a11.505618 11.505618 0 0 0-5.637753 15.877753 13.231461 13.231461 0 0 0 15.992809 6.443146L891.685393 120.578876A14.612135 14.612135 0 0 0 896.632809 103.550562z m-258.876405 707.595505v38.198652h38.198652L788.134831 737.049888l-38.198651-38.198652z m179.947866-103.550561a10.124944 10.124944 0 0 0 0-14.382023l-23.931686-23.931685a9.894831 9.894831 0 0 0-14.266966 0l-18.293933 18.293932L799.640449 725.889438z m0 0"  /></svg>