<?xml version="1.0" standalone="no"?>
<!DOCTYPE svg PUBLIC "-//W3C//DTD SVG 1.1//EN" "http://www.w3.org/Graphics/SVG/1.1/DTD/svg11.dtd" >
<svg xmlns="http://www.w3.org/2000/svg">
  <metadata>Created by iconfont</metadata>
  <defs>
  <font id="iconfont" horiz-adv-x="1024">
    <font-face
      font-family="iconfont"
      font-weight="400"
      font-stretch="normal"
      units-per-em="1024"
      ascent="896"
      descent="-128"
    />
      <missing-glyph />
      
      <glyph glyph-name="lujing" unicode="&#59283;" d="M806.20131128 779.5078125H624.4372212a96.6169087 96.6169087 0 0 1-56.50111595-18.2498606l-9.43568705-6.83663526a40.11579274 40.11579274 0 0 1-16.66782858-32.54464232v-319.79631739c0-22.37444164-14.40778493-40.51130055-32.2056365-40.51129979-17.74135034 0-32.20563649 18.13685814-32.20563648 40.56780101V728.65680837a40.11579274 40.11579274 0 0 1-16.61132813 32.5446423 96.50390625 96.50390625 0 0 1-56.50111596 18.2498606H213.1090962A96.6169087 96.6169087 0 0 1 116.4921875 682.8909037999999v-548.34333103c0-53.33705347 43.27985524-96.6169087 96.6169087-96.61690871h191.19977636c6.78013403 0 13.33426317-2.14704275 18.81487207-6.10212086l34.74818629-25.02999387a96.44740502 96.44740502 0 0 1 113.00223191 0l34.74818629 25.02999386a32.14913526 32.14913526 0 0 0 18.81487208 6.10212087h181.76409007a96.6169087 96.6169087 0 0 1 96.6169087 96.61690871V682.8909037999999A96.6169087 96.6169087 0 0 1 806.20131128 779.5078125z"  horiz-adv-x="1024" />
      
      <glyph glyph-name="liebiandashi" unicode="&#59282;" d="M768 240.64c-40.96 0-81.92-15.36-107.52-46.08l-245.76 153.6c-5.12 10.24-5.12 20.48-5.12 35.84v30.72l250.88 153.6c25.6-25.6 66.56-40.96 102.4-40.96 87.04 0 153.6 66.56 153.6 153.6s-66.56 153.6-153.6 153.6-153.6-66.56-153.6-153.6c5.12-20.48 5.12-40.96 15.36-56.32L378.88 476.16C353.28 512 307.2 537.6 256 537.6c-87.04 0-153.6-66.56-153.6-153.6s66.56-153.6 153.6-153.6c51.2 0 97.28 25.6 122.88 61.44l240.64-148.48c-5.12-20.48-5.12-35.84-5.12-56.32 0-87.04 66.56-153.6 153.6-153.6s153.6 66.56 153.6 153.6c0 81.92-66.56 153.6-153.6 153.6z m0 527.36c46.08 0 87.04-40.96 87.04-87.04 0-46.08-40.96-87.04-87.04-87.04-46.08 0-87.04 40.96-87.04 87.04-5.12 51.2 35.84 87.04 87.04 87.04zM256 291.84c-46.08 0-87.04 40.96-87.04 87.04 0 46.08 40.96 87.04 87.04 87.04 51.2 5.12 92.16-30.72 92.16-81.92S307.2 291.84 256 291.84z m512-291.84c-46.08 0-92.16 40.96-92.16 87.04 0 46.08 40.96 87.04 87.04 87.04 46.08 0 92.16-40.96 92.16-87.04 5.12-51.2-35.84-87.04-87.04-87.04z"  horiz-adv-x="1024" />
      
      <glyph glyph-name="shipin-" unicode="&#59287;" d="M391.1 223.8c-9 0-18 2.3-26 6.9-16 9.3-26 26.5-26 45V492.2c0 18.5 10 35.8 26 45 16 9.3 36 9.3 52 0L604.4 429c16-9.3 26-26.5 26-45s-10-35.8-26-45L417.1 230.8c-8.1-4.7-17.1-7-26-7z m20 233.7v-147.1L538.4 384l-127.3 73.5zM926.2 609.9l-86.7-37.2V661c0 17.7-14.3 32-32 32H85.2c-17.7 0-32-14.3-32-32v-554c0-17.7 14.3-32 32-32h722.4c17.7 0 32 14.3 32 32v89.1l86.5-37.6c21.1-9.2 44.8 6.3 44.8 29.3V580.4c-0.1 23-23.6 38.5-44.7 29.5z m-27.4-361.1l-59.3 26v0.1l-72 32.1v-160H125.2V621h642.4v-151l72 27.1v0.2l59.3 22.4v-270.9z"  horiz-adv-x="1024" />
      
      <glyph glyph-name="erweimahaibao" unicode="&#59286;" d="M903.3 783H120.7c-17.7 0-32-14.3-32-32v-734c0-17.7 14.3-32 32-32h782.6c17.7 0 32 14.3 32 32V751c0 17.7-14.3 32-32 32z m-40-72v-406L735.7 405.9 451.4 180.5 345 270 160.7 130.8V711h702.6zM182.4 57l160.1 121L450 87.5l285.7 226.6 127.5-100.8V57H182.4zM460.8 582v-160h-160V582h160m40 64h-240c-13.3 0-24-10.7-24-24v-240c0-13.3 10.7-24 24-24h240c13.3 0 24 10.7 24 24V622c0 13.3-10.8 24-24 24zM414.8 536h-68v-68h68v68z"  horiz-adv-x="1024" />
      
      <glyph glyph-name="lianjie1" unicode="&#59284;" d="M814 420v-72H210v72zM442.5 208H136.2V560H443v72H93.9c-16.4 0-29.7-10.9-29.7-24.3v-447.4c0-13.4 13.3-24.3 29.7-24.3h348.6v72zM930.1 632H582v-72h305.8v-352H581.5v-72h348.6c16.4 0 29.7 10.9 29.7 24.3V607.7c0 13.4-13.3 24.3-29.7 24.3z"  horiz-adv-x="1024" />
      
      <glyph glyph-name="xiaochengx" unicode="&#59285;" d="M512 760c50.8 0 100-9.9 146.3-29.5 44.8-18.9 85-46.1 119.5-80.6s61.7-74.8 80.6-119.5C878.1 484 888 434.8 888 384s-9.9-100-29.5-146.3c-18.9-44.8-46.1-85-80.6-119.5-34.6-34.6-74.8-61.7-119.5-80.6C612 17.9 562.8 8 512 8s-100 9.9-146.3 29.5c-44.8 18.9-85 46.1-119.5 80.6-34.6 34.6-61.7 74.8-80.6 119.5C145.9 284 136 333.2 136 384s9.9 100 29.5 146.3c18.9 44.8 46.1 85 80.6 119.5s74.8 61.7 119.5 80.6C412 750.1 461.2 760 512 760m0 72C264.6 832 64 631.4 64 384s200.6-448 448-448 448 200.6 448 448S759.4 832 512 832zM393 135.6c-85.4 0-154.9 69.5-154.9 154.9S307.6 445.4 393 445.4h34.7v-72H393c-45.7 0-82.9-37.2-82.9-82.9s37.2-82.9 82.9-82.9 82.9 37.2 82.9 82.9c0 1.1 0 2.2 0.1 3.3V477.5c0 85.4 69.5 154.9 154.9 154.9s154.9-69.5 154.9-154.9S716.4 322.6 631 322.6h-35.2v72H631c45.7 0 82.9 37.2 82.9 82.9s-37.2 82.9-82.9 82.9-82.9-37.2-82.9-82.9v-187.2c0-1.3-0.1-2.5-0.2-3.8-2.2-83.6-70.8-150.9-154.9-150.9z"  horiz-adv-x="1024" />
      
      <glyph glyph-name="a-tuodongbeifen18" unicode="&#59281;" d="M341.333333 810.666667h101.973334v-101.973334H341.333333V810.666667z m231.765334 0h101.973333v-101.973334h-101.973333V810.666667zM341.333333 569.6h101.973334v-101.973333H341.333333V569.6z m231.765334 0h101.973333v-101.973333h-101.973333V569.6zM341.333333 328.618667h101.973334v-101.973334H341.333333v101.973334z m231.765334 0h101.973333v-101.973334h-101.973333v101.973334zM341.333333 87.509333h101.973334v-101.973333H341.333333v101.973333z m231.765334 0h101.973333v-101.973333h-101.973333v101.973333z"  horiz-adv-x="1024" />
      
      <glyph glyph-name="ns-deal1" unicode="&#59280;" d="M512 832C264.6 832 64 631.4 64 384s200.6-448 448-448 448 200.6 448 448S759.4 832 512 832z m277.2-725.2c-36-36-77.9-64.3-124.6-84C616.3 2.4 564.9-8 512-8s-104.3 10.4-152.6 30.8c-46.7 19.7-88.6 48-124.6 84s-64.3 77.9-84 124.6C130.4 279.7 120 331.1 120 384s10.4 104.3 30.8 152.6c19.7 46.7 48 88.6 84 124.6s77.9 64.3 124.6 84C407.7 765.6 459.1 776 512 776s104.3-10.4 152.6-30.8c46.7-19.7 88.6-48 124.6-84s64.3-77.9 84-124.6C893.6 488.3 904 436.9 904 384s-10.4-104.3-30.8-152.6c-19.7-46.6-48-88.6-84-124.6zM280.5 280.6l373.3-0.6-59.8-60.1 44.7-44.8 104.6 105.1 0.1 35.1 0.1 27.7-462.9 0.7-0.1-63.1zM430 548.1l-44.7 44.8-104.7-105.2-0.1-35.1-0.1-27.7 462.9-0.7 0.1 63.3-373.2 0.5 59.8 60.1z"  horiz-adv-x="1024" />
      
      <glyph glyph-name="xiaochengxu2" unicode="&#59279;" d="M572.352 513.792A106.112 106.112 0 1 0 678.4 407.68a42.048 42.048 0 0 1 0-84.032A190.144 190.144 0 1 1 488.32 513.92a42.048 42.048 0 0 1 84.032 0zM488.32 222.144A106.112 106.112 0 1 0 382.08 328.32a42.048 42.048 0 0 1 0 84.032 190.208 190.208 0 1 1 190.208-190.208 42.048 42.048 0 1 1-84.032 0zM488.32 518.08v-297.856h84.032V518.08z"  horiz-adv-x="1024" />
      
      <glyph glyph-name="xia" unicode="&#59263;" d="M786.61425807 766.1264645900001c13.38134791 0 24.52148438-9.68994141 26.76269505-22.41210912l0.46142553-4.87792994v-736.56738231L529.60009766 204.04394531000003a27.22412135 27.22412135 0 0 1-27.42187526 2.50488307l-4.21874974-2.50488307L213.72119166 2.3349609399999736V738.83642553c0 13.38134791 9.68994141 24.52148438 22.41210912 26.82861353L241.01123072 766.1264645900001h545.60302735z m-23.59863332-50.75683543H264.47802709V100.55273463000003l203.95019582 144.8876948c24.85107447 17.73193385 57.54638672 19.18212891 83.58398387 4.48242213l6.92138672-4.41650365L763.01562475 100.55273463000003V715.3696291599999z m-76.20117163-328.27148438v-50.42724609h-346.06933593v50.49316381h346.06933594z m0 159.52148387v-50.42724609h-346.06933593v50.49316457h346.06933594z"  horiz-adv-x="1024" />
      
      <glyph glyph-name="fumatupian-copy" unicode="&#59499;" d="M879.48186393 400.95033461V712.41273696c2.11879165 23.30671028-16.95033461 42.37583726-40.2570456 42.37583726H203.58726304C180.28055277 754.78857422 161.21142578 735.71944723 161.21142578 712.41273696v-593.26171875c0-23.30671028 19.06912698-42.37583726 42.37583726-42.37583654h396.21407614c14.83154297 0 25.42550193 12.71275132 25.42550265 25.42550192s-12.71275132 25.42550193-25.42550264 25.42550192H214.181222V576.8100585899999l256.37381448-175.85972398c8.47516731-6.35637565 21.18791862-6.35637565 29.66308594 1e-8l120.77113539 88.98925781 211.87918558-125.00871941c4.23758401-8.47516731 12.71275132-12.71275132 21.18791791-12.7127506 12.71275132 0 25.42550193 12.71275132 25.42550264 25.42550192m-275.44294074 165.2657643l-118.65234375-86.87046544L214.181222 640.37381449V699.69998636h614.44963737v-269.08656581l-194.92885024 114.41476045c-10.59395896 4.23758401-21.18791862 4.23758401-29.66308593-2.11879236zM796.84898179 352.21812242c-93.22684183 0-169.50334831-76.27650649-169.50334832-169.50334832s76.27650649-169.50334831 169.50334831-169.50334832 169.50334831 76.27650649 169.50334833 169.50334832-76.27650649 169.50334831-169.50334832 169.50334831z m0-296.63085939c-69.92013083 0-127.12751107 57.20738023-127.12751107 127.12751106s57.20738023 127.12751107 127.12751107 127.12751107 127.12751107-57.20738023 127.12751106-127.12751106-57.20738023-127.12751107-127.12751107-127.12751107zM834.98723503 271.70403191h-8.4751673c-10.59395896 0-21.18791862-6.35637565-29.66308594-12.71275132-8.47516731-8.47516731-14.83154297-19.06912698-16.95033534-33.90066924V142.45772848000001c-2.11879165-10.59395896-10.59395896-19.06912698-21.18791791-19.06912626s-21.18791862 8.47516731-21.18791862 21.18791864c0 6.35637565 2.11879165 10.59395896 6.35637566 14.83154296 4.23758401 4.23758401 8.47516731 6.35637565 14.83154297 6.35637566h2.11879164c6.35637565 0 12.71275132 6.35637565 12.71275133 14.83154298 0 10.59395896-6.35637565 16.95033461-14.83154297 16.9503346-29.66308594 0-52.96979621-23.30671028-52.96979694-52.9697962s23.30671028-52.96979621 52.96979694-52.96979622h8.4751673c10.59395896 0 21.18791862 6.35637565 29.66308594 12.7127506 8.47516731 8.47516731 14.83154297 19.06912698 16.95033461 33.90066995V220.85302734000004c2.11879165 10.59395896 10.59395896 19.06912698 21.18791862 19.06912698s21.18791862-8.47516731 21.18791865-21.18791862c0-6.35637565-2.11879165-10.59395896-6.35637568-14.83154298-4.23758401-4.23758401-8.47516731-6.35637565-14.83154297-6.35637565h-2.11879164c-6.35637565 0-12.71275132-6.35637565-12.71275132-14.83154297 0-10.59395896 6.35637565-16.95033461 14.83154296-16.95033461 29.66308594 0 52.96979621 23.30671028 52.96979623 52.96979621s-23.30671028 52.96979621-52.96979623 52.9697962z"  horiz-adv-x="1111" />
      
      <glyph glyph-name="julihuodongjieshuhuanyou" unicode="&#59278;" d="M940.032 33.792l13.312 97.28H657.408l13.312 94.208h280.576l46.08 327.68H716.8l12.288 83.968h300.032l13.312 97.28H590.848l-98.304-700.416h447.488z m-836.608-15.36l362.496 44.032 13.312 95.232-80.896-10.24 16.384 115.712h69.632l12.288 89.088h-68.608l12.288 93.184h63.488l39.936 288.768H222.208L182.272 445.44H296.96l-44.032-316.416-32.768-4.096 40.96 288.768h-86.016l-43.008-300.032-15.36-2.048-13.312-93.184z m282.624 500.736h-65.536l19.456 138.24h65.536l-19.456-138.24z m437.248-199.68H684.032l19.456 139.264h139.264l-19.456-139.264z m1146.88 297.984l12.288 87.04h-311.296l7.168 49.152h-252.928l32.768-38.912-2.048-10.24H1126.4l-12.288-87.04h856.064zM1223.68 16.384l34.816 240.64h63.488l-53.248-67.584h-1.024l-12.288-88.064 297.984 15.36 2.048-24.576h126.976l-9.216 145.408h-125.952l2.048-33.792-77.824-4.096 45.056 57.344h208.896l-20.48-145.408-92.16-95.232h183.296c19.814 0 37.222 6.298 52.224 18.944 15.002 12.646 24.218 28.826 27.648 48.64l36.864 261.12h-327.68l22.528 28.672h309.248l29.696 214.016H1771.52l-19.456-136.192H1285.12l19.456 136.192h-175.104l-29.696-214.016h314.368l-22.528-28.672H1095.68l-47.104-328.704h175.104z m278.528 454.656l20.48 9.216 18.432-9.216h194.56l5.12 38.912h-77.824l-36.864 19.456 43.008 20.48h77.824l5.12 37.888h-194.56L1536 577.536l-17.408 10.24h-194.56l-5.12-37.888h77.824l36.864-20.48-43.008-19.456h-77.824l-5.12-38.912h194.56z m1324.032-435.2l45.056 318.464h-194.56l12.288 86.016h214.016l13.312 97.28h-214.016l13.312 96.256 192.512 5.12 13.312 97.28-561.152-14.336-14.336-97.28 181.248 4.096-12.288-91.136h-199.68l-13.312-97.28h199.68l-12.288-86.016h-186.368L2257.92 35.84h568.32z m-532.48 523.264l-13.312 175.104h-168.96l13.312-175.104h168.96z m-29.696-214.016l-13.312 175.104h-168.96l13.312-175.104h168.96z m-102.4-328.704l96.256 289.792h-168.96l-96.256-289.792h168.96z m504.832 113.664h-218.112l18.432 126.976h218.112l-18.432-126.976z m854.016-113.664l129.024 523.264h41.984l-60.416-429.056-90.112-94.208h162.816c19.814 0 37.222 6.298 52.224 18.944 15.002 12.646 24.218 28.826 27.648 48.64l77.824 552.96h-187.392l28.672 116.736h-194.56l30.72-34.816-20.48-81.92h-65.536l-14.336-97.28h55.296l-129.024-523.264h155.648z m-129.024 601.088l13.312 97.28h-350.208l-13.312-97.28h350.208z m-55.296-601.088l6.144 250.88h-155.648l-3.072-128-71.68-8.192 93.184 291.84h178.176l14.336 97.28h-389.12l-14.336-97.28h55.296l-98.304-311.296-14.336-95.232 243.712 27.648v-27.648h155.648zM4746.24 396.288l14.336 97.28h-150.528l12.288 82.944h167.936l13.312 97.28h-167.936l11.264 79.872h-210.944l33.792-38.912-6.144-40.96h-164.864l-13.312-97.28h164.864l-12.288-82.944H4295.68l-14.336-97.28h464.896z m-532.48-207.872l13.312 97.28h-124.928l156.672 233.472h-123.904l156.672 233.472h-227.328l24.576-25.6-140.288-207.872-13.312-97.28h72.704l-92.16-136.192-13.312-97.28h311.296z m481.28-151.552l43.008 309.248h-464.896l-43.008-309.248h464.896z m-141.312 96.256H4398.08l16.384 117.76h155.648l-16.384-117.76z m-673.792-98.304l314.368 20.48 14.336 97.28-315.392-20.48-13.312-97.28z m1458.176-17.408L5376 288.768h287.744l37.888 270.336h-286.72l6.144 40.96h307.2l13.312 95.232h-307.2l8.192 57.344h-225.28l25.6-38.912-3.072-18.432h-310.272l-13.312-95.232h310.272l-6.144-40.96h-292.864L4889.6 288.768h292.864l-37.888-271.36h193.536z m182.272 367.616h-130.048l12.288 84.992h130.048l-12.288-84.992z m-323.584 0h-130.048l12.288 84.992h129.024l-11.264-84.992z m472.064-348.16l-81.92 205.824h-186.368l74.752-205.824h193.536z m-654.336 0l132.096 205.824h-182.272l-139.264-205.824h189.44z m1403.904 135.168l40.96 289.792 32.768-191.488h145.408L6584.32 563.2h-227.328l38.912 72.704h273.408l13.312 98.304h-556.032l-13.312-98.304h129.024l-210.944-384h162.816L6272 401.408l-31.744-229.376h178.176z m-350.208 438.272l-35.84 123.904h-160.768l35.84-123.904h160.768zM5944.32 33.792l16.384 29.696 100.352-29.696h544.768l14.336 101.376H6144l-133.12 41.984 54.272 391.168h-221.184l-13.312-97.28h38.912l-48.128-339.968-52.224-97.28h175.104z m1062.912-17.408l20.48 143.36h272.384l-8.192-60.416-79.872-82.944h192.512c19.814 0 37.222 6.298 52.224 18.944 15.002 12.646 24.218 28.826 27.648 48.64L7552 569.344h-466.944l30.72 38.912h481.28l13.312 97.28h-419.84l37.888 48.128h-233.472l19.456-23.552-19.456-24.576h-201.728l-13.312-97.28h140.288l-195.584-252.928h135.168l-47.104-338.944h194.56z m328.704 396.288h-272.384l8.192 59.392h272.384l-8.192-59.392z m-22.528-155.648h-272.384l8.192 59.392H7321.6l-8.192-59.392z"  horiz-adv-x="7731" />
      
      <glyph glyph-name="ren" unicode="&#59275;" d="M339.968 16.384L604.16 428.032l202.752-411.648h194.56L712.704 595.968 814.08 753.664H580.608l21.504-25.6-456.704-711.68z"  horiz-adv-x="1126" />
      
      <glyph glyph-name="tian" unicode="&#59277;" d="M351.243-33.73L629.533 391.4h56.842L846.243-33.73h247.5L933.875 391.4h184.737l16.579 112.5H702.954l118.421 180h260.526l15.395 112.5h-765l-15.395-112.5h256.974l-118.421-180H213.875l-16.579-112.5h184.737L103.743-33.73z"  horiz-adv-x="1275" />
      
      <glyph glyph-name="a-" unicode="&#59259;" d="M737.28 595.627L773.689 855.04H427.804l-36.408-259.413H737.28zM657.636-102.97l36.408 259.413H348.16l-36.409-259.413h345.885z"  horiz-adv-x="1024" />
      
      <glyph glyph-name="a-3" unicode="&#59260;" d="M834.56 39.68c23.872 0 45.44 8.32 64.64 24.96 19.2 16.64 30.528 37.312 33.92 62.08L1024 768H294.4l-16.64-120.32h486.4l-24.32-170.24H302.08l-16.64-121.6H723.2l-28.16-194.56H209.92L192 39.68h642.56z"  horiz-adv-x="1152" />
      
      <glyph glyph-name="a-2" unicode="&#59261;" d="M845.76 38.4l24.32 170.24L815.04 160H352.96L376 330.24h510.72L948.16 768H219.84l-30.72-218.88h243.2l11.52 97.28h244.48l-28.16-194.56H175.04l-46.08-326.4c-3.392-24.768 2.176-45.44 16.64-62.08 14.528-16.64 34.176-24.96 58.88-24.96h641.28z"  horiz-adv-x="1152" />
      
      <glyph glyph-name="a-0" unicode="&#59262;" d="M997.12 741.12l-89.6-641.28-2.304-10.368a103.872 103.872 0 0 0-32.256-51.712c-18.752-16.64-40.512-24.96-65.28-24.96H166.4L256 654.08l1.92 10.368a97.28 97.28 0 0 0 32 51.712c19.2 16.64 41.152 24.96 65.92 24.96h641.28zM737.28 620.8H495.36l-69.12-486.4h241.92l69.12 486.4z"  horiz-adv-x="1152" />
      
      <glyph glyph-name="a-1" unicode="&#59264;" d="M646.4 26.88L750.08 768 403.2 719.36 384 586.24l99.84 14.08-80.64-573.44z"  horiz-adv-x="1152" />
      
      <glyph glyph-name="a-4" unicode="&#59265;" d="M851.2 39.68l20.48 145.92h97.28l16.64 121.6h-97.28L953.6 768H661.76L704 720.64 645.12 307.2H455.68L588.8 768H309.76l28.16-30.72L208.64 307.2 192 185.6h436.48L608 39.68z"  horiz-adv-x="1152" />
      
      <glyph glyph-name="a-9" unicode="&#59266;" d="M1024 768l-90.88-641.28-1.92-10.368a97.28 97.28 0 0 0-32-51.712c-19.2-16.64-40.768-24.96-64.64-24.96H192l19.2 121.6h483.84l20.48 145.92H230.4l64 460.8H1024zM764.16 647.68h-243.2l-32-218.88h244.48l30.72 218.88z"  horiz-adv-x="1152" />
      
      <glyph glyph-name="a-6" unicode="&#59267;" d="M1012.16 768l-16.64-120.32H510.4l-19.2-134.4h485.12l-65.28-473.6H268.48l-9.024 0.384A71.872 71.872 0 0 0 209.6 64.64c-14.464 16.64-20.032 37.312-16.64 62.08L283.84 768h728.32zM716.48 391.68H474.56l-33.28-230.4h243.2l32 230.4z"  horiz-adv-x="1152" />
      
      <glyph glyph-name="a-5" unicode="&#59268;" d="M833.28 42.24c24.768 0 46.528 8.32 65.28 24.96a104.32 104.32 0 0 1 34.56 62.08l5.12 34.56 47.36 340.48H499.2l21.76 145.92h485.12L1022.72 768H245.76L288 724.48l-48.64-341.76h486.4l-32-218.88H257.28l-42.24 48.64L192 42.24h641.28z"  horiz-adv-x="1152" />
      
      <glyph glyph-name="huodongguize" unicode="&#59270;" d="M942.08 35.84l45.056 318.464h-194.56l12.288 86.016h214.016l13.312 97.28H818.176l13.312 96.256 192.512 5.12 13.312 97.28L476.16 721.92l-14.336-97.28 181.248 4.096-12.288-91.136h-199.68l-13.312-97.28h199.68l-12.288-86.016H418.816L373.76 35.84h568.32zM409.6 559.104l-13.312 175.104h-168.96l13.312-175.104H409.6z m-29.696-214.016l-13.312 175.104h-168.96l13.312-175.104h168.96z m-102.4-328.704l96.256 289.792H204.8l-96.256-289.792h168.96z m504.832 113.664H564.224l18.432 126.976h218.112l-18.432-126.976z m854.016-113.664l129.024 523.264h41.984l-60.416-429.056-90.112-94.208h162.816c19.814 0 37.222 6.298 52.224 18.944 15.002 12.646 24.218 28.826 27.648 48.64l77.824 552.96h-187.392l28.672 116.736h-194.56l30.72-34.816-20.48-81.92h-65.536l-14.336-97.28h55.296l-129.024-523.264h155.648z m-129.024 601.088l13.312 97.28h-350.208l-13.312-97.28h350.208z m-55.296-601.088l6.144 250.88h-155.648l-3.072-128-71.68-8.192 93.184 291.84h178.176l14.336 97.28h-389.12l-14.336-97.28h55.296l-98.304-311.296-14.336-95.232 243.712 27.648v-27.648h155.648z m681.984 0l71.68 235.52 7.168-235.52h154.624l-9.216 338.944h49.152l12.288 87.04h-126.976l38.912 126.976h106.496l12.288 87.04h-92.16l24.576 77.824h-204.8l29.696-33.792-14.336-44.032h-103.424l-12.288-87.04h89.088l-38.912-126.976h-68.608l-12.288-87.04h33.792l-102.4-338.944h155.648z m340.992 270.336l118.784 292.864 9.216 67.584h185.344l-50.176-360.448h136.192l62.464 447.488h-456.704l-62.464-447.488h57.344z m50.176-270.336l237.568 581.632H2626.56l-237.568-581.632h136.192z m350.208 0l19.456 153.6-41.984-44.032h-83.968l31.744 133.12h-136.192l-61.44-242.688h272.384z m802.816 2.048c19.098 0 36.506 6.502 52.224 19.456 15.718 12.954 24.934 29.03 27.648 48.128l93.184 665.6h-178.176l24.576-30.72-83.968-601.088-90.112-101.376h154.624zM3039.232 189.44l55.296 69.632 53.248 376.832h201.728l-53.248-376.832 33.792-69.632h83.968l76.8 543.744h-457.728l-76.8-543.744h82.944z m546.816 1.024l69.632 495.616h-134.144l-69.632-495.616h134.144z m-495.616-173.056l99.328 120.832 59.392-120.832h150.528l-142.336 242.688 48.128 338.944h-123.904l-48.128-339.968-186.368-241.664h143.36z"  horiz-adv-x="3993" />
      
      <glyph glyph-name="chenggongyaoqinghaoyou" unicode="&#59271;" d="M284.672 16.384L358.4 384h75.776l-37.888-272.384-45.056-38.912H476.16c19.814 0 37.222 6.656 52.224 19.968a83.456 83.456 0 0 1 27.648 49.664l47.104 338.944h-225.28l16.384 77.824h224.256l82.944-295.936-97.28-54.272-19.456-136.192 147.456 82.944 38.912-139.264h194.56l22.528 153.6-45.056-38.912h-29.696l-30.72 108.544 82.944 47.104 18.432 136.192-132.096-74.752L793.6 559.104h229.376l13.312 97.28H765.952l-26.624 97.28h-194.56l28.672-33.792 17.408-63.488H199.68l31.744-36.864-121.856-603.136h175.104z m715.776 659.456l-10.24 67.584h-194.56l10.24-67.584h194.56z m545.792-658.432L1705.984 537.6h83.968l-60.416-427.008-90.112-93.184h176.128c19.814 0 37.222 6.144 52.224 18.432 15.002 12.288 24.218 28.314 27.648 48.128l77.824 552.96h-236.544l35.84 116.736h-208.896l30.72-34.816-25.6-81.92h-57.344l-14.336-99.328h40.96l-161.792-520.192h169.984z m-489.472 44.032L1408 159.744l17.408 119.808L1340.416 256l49.152 348.16h82.944l14.336 101.376h-338.944l-14.336-101.376h81.92l-56.32-399.36-86.016-23.552-16.384-119.808z m1792-27.648l13.312 97.28h-531.456l-70.656 17.408h79.872l45.056 119.808h66.56l-12.288-84.992-46.08-36.864h102.4c19.814 0 36.198 5.632 49.152 16.896 12.954 11.264 20.48 24.73 22.528 40.448l19.456 136.192H2411.52l9.216 22.528h167.936l10.24 77.824h-103.424l5.12 33.792h93.184l32.768 233.472h-107.52l26.624 45.056H2391.04l19.456-21.504-13.312-23.552h-77.824l-32.768-233.472h92.16l-5.12-33.792h-103.424l-10.24-77.824h51.2l-79.872-206.848-24.576 6.144 58.368 416.768h-184.32l-13.312-97.28h32.768l-48.128-346.112-67.584-100.352h152.576l18.432 28.672 103.424-29.696h589.824z m-172.032 116.736l52.224 91.136 35.84-91.136h100.352l-69.632 169.984 72.704 121.856 19.456 139.264h29.696l13.312 95.232h-129.024l30.72 75.776h-124.928l-92.16-238.592h120.832l26.624 67.584h18.432l-13.312-99.328-22.528-37.888-17.408 44.032h-114.688l63.488-162.816-102.4-175.104h102.4z m-402.432 466.944l-15.36 116.736h-153.6l15.36-116.736h153.6z m234.496 4.096h-98.304l4.096 24.576h98.304l-4.096-24.576z m-12.288-89.088h-98.304l3.072 22.528h98.304l-3.072-22.528z m1316.864-109.568l11.264 77.824h-200.704l4.096 25.6h152.576l11.264 77.824h-153.6l4.096 25.6h185.344l10.24 76.8h-185.344l7.168 45.056h-220.16l36.864-37.888-1.024-7.168h-184.32l-10.24-76.8h183.296l-3.072-25.6h-161.792l-11.264-77.824h161.792l-4.096-25.6h-205.824l-11.264-77.824h584.704z m-600.064 184.32l-25.6 126.976h-160.768l25.6-126.976h160.768z m-251.904-587.776l229.376 61.44 15.36 105.472-50.176-14.336 53.248 381.952h-228.352l-14.336-100.352h55.296l-60.416-434.176z m404.48 0l15.36 111.616h203.776l-7.168-55.296-46.08-56.32H3686.4c18.432 0 32.41 6.298 41.984 18.944 9.574 12.646 15.718 28.826 18.432 48.64l45.056 316.416h-539.648l-54.272-384h167.936z m242.688 278.528H3404.8l4.096 27.648h203.776l-4.096-27.648z m-13.312-98.304h-203.776l4.096 29.696h203.776l-4.096-29.696z m442.368-183.296l50.176 47.104 37.888-47.104h164.864L4184.064 153.6l100.352 94.208 41.984 301.056h39.936l13.312 97.28h-38.912l15.36 106.496h-155.648l-15.36-106.496h-28.672l15.36 107.52h-155.648l-15.36-107.52h-38.912l-13.312-97.28h37.888l-41.984-301.056 73.728-95.232-145.408-136.192h164.864z m514.048 0c19.814 0 37.376 6.298 52.736 18.944 15.36 12.646 24.73 28.826 28.16 48.64l33.792 241.664h125.952l13.312 97.28H4679.68l6.144 44.032 105.472 131.072 19.456 136.192h-389.12l-13.312-97.28h210.944L4493.312 481.28l-8.192-58.368h-126.976l-13.312-97.28h126.976l-29.696-214.016-92.16-95.232h201.728z m-437.248 226.304l-12.288 15.36 40.96 290.816h28.672l-40.96-290.816-16.384-15.36z m1571.84-225.28L5478.4 210.944 5676.032 384l16.384 118.784h-466.944l29.696 73.728h470.016l13.312 91.136h-445.44l33.792 82.944h-230.4l17.408-28.672-22.528-54.272h-152.576l-13.312-91.136h129.024l-226.304-558.08h199.68l122.88 301.056 131.072-115.712-230.4-185.344h206.848L5376 121.856l119.808-104.448h190.464zM5391.36 291.84l-82.944 77.824H5171.2l14.336 35.84h321.536L5504 382.976l-112.64-91.136z"  horiz-adv-x="5888" />
      
      <glyph glyph-name="a-7" unicode="&#59273;" d="M568.32 38.4l353.28 608L938.24 768H209.92L192 646.4h482.56l-348.16-608z"  horiz-adv-x="1152" />
      
      <glyph glyph-name="a-8" unicode="&#59274;" d="M1024 768l-90.88-642.56-1.92-10.368a97.28 97.28 0 0 0-32-51.712c-19.2-16.64-41.152-24.96-65.92-24.96H192l89.6 641.28 2.304 10.368c5.44 20.288 16.448 37.76 32.896 52.352 19.2 17.088 40.768 25.6 64.64 25.6H1024zM723.2 354.56H480L451.84 160h243.2l28.16 194.56z m40.96 291.84h-243.2l-24.32-170.24h243.2l24.32 170.24z"  horiz-adv-x="1152" />
      
      <glyph glyph-name="a-000" unicode="&#59258;" d="M972.8 588.8H51.2v-51.2h921.6z m0-204.8H409.6v-51.2h563.2z m0-204.8H51.2V128h921.6z"  horiz-adv-x="1024" />
      
      <glyph glyph-name="a-000-copy" unicode="&#59498;" d="M51.2 179.20000000000005L972.8 179.20000000000005l0 51.2-921.6 0z m0 204.8L614.4 384l0 51.2-563.2 0z m0 204.8L972.8 588.8 972.8 639.99999999l-921.6 0z"  horiz-adv-x="1024" />
      
      <glyph glyph-name="biaoqian" unicode="&#59257;" d="M475.69777777-68.72888890000002c-17.06666667 0-33.17333333 6.61333333-45.22666667 18.77333334l-353.06666666 352.96c-12.05333333 12.05333333-18.77333333 28.16-18.77333334 45.22666666s6.61333333 33.17333333 18.77333334 45.22666667l423.14666666 423.14666667c14.08 14.08 33.49333333 20.69333333 53.22666667 18.24l340.37333333-42.77333334c6.93333333-0.85333333 13.65333333-4.16 18.66666667-9.17333333l7.68-7.68 42.02666667-349.01333333c2.34666667-19.62666667-4.26666667-38.93333333-18.24-52.90666667L520.92444444-50.062222229999975c-12.05333333-12.05333333-28.16-18.66666667-45.22666667-18.66666667zM545.77777777 772.44444444c-0.32 0-0.53333333-0.10666667-0.74666667-0.32L121.88444444 348.97777777c-0.10666667-0.10666667-0.32-0.32-0.32-0.74666667 0-0.42666667 0.21333333-0.64 0.32-0.74666666l352.96-352.96c0.10666667-0.10666667 0.32-0.32 0.74666666-0.32s0.64 0.21333333 0.74666667 0.32L899.69777777 417.77777777c0.21333333 0.21333333 0.32 0.53333333 0.32 0.85333333l-37.76 314.02666667-316.26666667 39.78666667h-0.21333333z m340.48-42.88h0.10666667-0.10666667zM664.17777777 429.5111111c-58.77333333 0-106.66666667 47.89333333-106.66666667 106.66666667s47.89333333 106.66666667 106.66666667 106.66666667 106.66666667-47.89333333 106.66666667-106.66666667-47.89333333-106.66666667-106.66666667-106.66666667z m0 150.4c-24.10666667 0-43.73333333-19.62666667-43.73333333-43.73333333s19.62666667-43.73333333 43.73333333-43.73333333 43.73333333 19.62666667 43.73333333 43.73333333-19.62666667 43.73333333-43.73333333 43.73333333z"  horiz-adv-x="1024" />
      
      <glyph glyph-name="zidingyibeifen" unicode="&#59256;" d="M739.5328 702.0032l90.4704-90.4704-512-512H227.5328v90.4704l512 512m0 67.1232a31.8976 31.8976 0 0 1-22.7328-9.1136l-537.0368-537.6a31.8976 31.8976 0 0 1-9.1136-22.7328v-125.7472c0-17.5616 14.2848-31.8464 31.8976-31.8464H328.192a31.8976 31.8976 0 0 1 22.784 9.1136L887.4496 588.8a31.8464 31.8464 0 0 1 0 44.9536L762.368 759.4496a31.8464 31.8464 0 0 1-22.784 9.1136v0.5632z m142.2336-783.36H85.3504a28.4672 28.4672 0 0 1 0-56.832h796.416a28.4672 28.4672 0 1 1 0 56.832z"  horiz-adv-x="1024" />
      
      <glyph glyph-name="ns-info-cricle" unicode="&#59255;" d="M512 832C264.6 832 64 631.4 64 384s200.6-448 448-448 448 200.6 448 448S759.4 832 512 832z m-28-222h56v-56h-56v56z m112-424H428v56h60V460h-56v56h112v-274h52v-56z"  horiz-adv-x="1024" />
      
      <glyph glyph-name="ns-file-excelnumber" unicode="&#59254;" d="M320 447.8H159c-17.7 0-32-14.3-32-32v-384c0-17.7 14.3-32 32-32h161c17.7 0 32 14.3 32 32v384c0 17.6-14.3 32-32 32z m-24-392H183v336h113v-336z m569 712.4H704c-17.7 0-32-14.3-32-32v-704c0-17.7 14.3-32 32-32h161c17.7 0 32 14.3 32 32v704c0 17.7-14.3 32-32 32z m-24-712H728v656h113v-656zM592.5 607.8h-161c-17.7 0-32-14.3-32-32v-544c0-17.7 14.3-32 32-32h161c17.7 0 32 14.3 32 32v544c0 17.6-14.3 32-32 32z m-24-552h-113v496h113v-496z"  horiz-adv-x="1024" />
      
      <glyph glyph-name="smilebeifen3" unicode="&#59187;" d="M512 777.846154c217.481846 0 393.846154-176.364308 393.846154-393.846154s-176.364308-393.846154-393.846154-393.846154S118.153846 166.518154 118.153846 384 294.518154 777.846154 512 777.846154z m-91.372308-412.317539H378.407385a7.010462 7.010462 0 0 1-7.010462-7.364923A140.996923 140.996923 0 0 1 512 224.886154a140.996923 140.996923 0 0 1 140.642462 133.277538 7.010462 7.010462 0 0 1-7.010462 7.364923h-42.299077a7.089231 7.089231 0 0 1-7.089231-6.498461 84.48 84.48 0 0 0-168.448 0 7.089231 7.089231 0 0 1-7.128615 6.498461zM357.297231 506.210462a42.180923 42.180923 0 1 1 0-84.401231 42.180923 42.180923 0 0 1 0 84.401231z m309.484307 0a42.180923 42.180923 0 1 1 0-84.401231 42.180923 42.180923 0 0 1 0 84.401231z"  horiz-adv-x="1024" />
      
      <glyph glyph-name="smilebeifen2" unicode="&#59253;" d="M315.076923 463.990154a42.180923 42.180923 0 1 1 84.401231 0 42.180923 42.180923 0 0 1-84.401231 0z m309.444923 0a42.180923 42.180923 0 1 1 84.401231 0 42.180923 42.180923 0 0 1-84.401231 0zM512 777.846154C294.518154 777.846154 118.153846 601.481846 118.153846 384s176.364308-393.846154 393.846154-393.846154 393.846154 176.364308 393.846154 393.846154S729.481846 777.846154 512 777.846154z m231.187692-625.033846a327.089231 327.089231 0 0 0-103.975384-70.183385 323.741538 323.741538 0 0 0-127.212308-25.678769 325.632 325.632 0 0 0-231.305846 95.822769A325.238154 325.238154 0 0 0 184.989538 384 325.632 325.632 0 0 0 280.812308 615.305846 325.238154 325.238154 0 0 0 512 711.010462a325.632 325.632 0 0 0 231.305846-95.82277 325.238154 325.238154 0 0 0 95.704616-231.187692c0-44.189538-8.585846-87.000615-25.639385-127.251692a324.292923 324.292923 0 0 0-70.144-103.936z m-97.555692 212.716307h-42.299077a7.089231 7.089231 0 0 1-7.089231-6.498461 84.48 84.48 0 0 0-168.448 0 7.089231 7.089231 0 0 1-7.128615 6.498461H378.368a7.010462 7.010462 0 0 1-7.010462-7.364923A140.996923 140.996923 0 0 1 512 224.886154a140.996923 140.996923 0 0 1 140.642462 133.277538 7.010462 7.010462 0 0 1-7.010462 7.364923z"  horiz-adv-x="1024" />
      
      <glyph glyph-name="cate" unicode="&#59252;" d="M144.2721875 699.4096875h839.630625V805.875H144.2721875v-106.4653125z m0-52.68L90.125 378.92437500000005v-90h948.2925v88.9003125l-54.51375 268.905H144.27125z m0-680.4853125h87.80625V288.9234375h-87.80625v-322.678125z m751.824375 0h87.8053125V288.9234375h-87.8053125v-322.678125z m-322.678125 87.800625h89.998125V288.9234375h-89.998125v-234.8784375z m-341.3390625-87.800625h664.02v87.7996875H232.0784375v-87.7996875z"  horiz-adv-x="1152" />
      
      <glyph glyph-name="ecrp-icon-weikuozhan_arrow-circle-down" unicode="&#59245;" d="M480.7 239.9c-7.5 0-15.1 2.9-20.9 8.6L333.3 375.1c-11.5 11.5-11.5 30.2 0 41.7 11.5 11.5 30.2 11.5 41.7 0l105.7-105.7L689 519.4c11.5 11.5 30.2 11.5 41.7 0 11.5-11.5 11.5-30.2 0-41.7L501.6 248.6c-5.8-5.8-13.3-8.7-20.9-8.7zM512-37.1l-7.5 2c-74.4 19.6-139.1 50.4-192.3 91.5-43 33.2-78.7 73.2-105.9 118.7-46.6 78-52.4 145.7-52.7 148.5l-0.1 1.2V636.5L507.7 807.3l362.8-170.6v-312l-0.1-1.2c-0.2-2.8-6-70.5-52.7-148.5-27.2-45.5-62.9-85.5-105.9-118.7-53.3-41.1-118-71.9-192.3-91.5l-7.5-1.9zM212.5 327.3c0.9-7.8 8.2-62.7 45.9-124.5 23.5-38.7 54.3-72.7 91.4-101 44.9-34.3 99.5-60.5 162.3-77.9 62.8 17.4 117.4 43.6 162.3 77.9 37.1 28.3 67.8 62.3 91.4 101 37.6 61.8 45 116.6 45.9 124.5V599.2L508 741.9 212.5 599.4v-272.1z"  horiz-adv-x="1024" />
      
      <glyph glyph-name="lianjie" unicode="&#59188;" d="M924.858182 633.483636l-162.909091 162.909091c-20.48 20.48-53.527273 20.48-73.541818 0L454.749091 562.734545c-20.48-20.48-20.48-53.527273 0-74.007272l19.083636-33.512728 62.836364 62.836364c-10.24 10.24-10.24 21.410909 0 31.650909l188.974545 188.974546 141.963637-141.963637-188.974546-188.974545c-10.24-10.24-21.410909-10.24-31.650909 0l-62.836363-63.301818 33.512727-18.618182c20.48-20.48 53.527273-20.014545 74.007273 0l233.658181 233.658182c20.014545 20.48 20.014545 53.527273-0.465454 74.007272z m-372.363637-320.232727l-47.476363-47.476364-15.825455-15.825454c10.705455-10.705455 10.705455-20.945455 0-31.650909l-188.974545-188.974546L158.254545 171.287273 347.694545 360.727273c10.705455 10.705455 20.945455 10.705455 31.65091 0L442.181818 423.563636l-34.443636 18.618182c-20.48 20.48-53.527273 20.014545-73.541818 0l-233.658182-233.658182c-20.48-20.48-20.48-53.527273 0-73.541818l162.909091-162.909091c20.48-20.48 53.527273-20.014545 73.541818 0l233.658182 233.658182c20.48 20.48 20.48 53.527273 0 73.541818l-18.152728 33.978182z m-188.974545-126.138182L726.109091 549.701818l-47.476364 47.476364-362.589091-362.589091 47.476364-47.476364z"  horiz-adv-x="1024" />
      
      <glyph glyph-name="shipinbeifen4" unicode="&#59190;" d="M836 722.72727305H188c-29.86363652 0-53.59090869-24.13636348-54-54v-526.5c0-29.86363652 24.13636348-54 54-54h647.59090869c29.86363652 0 54 24.13636348 54 54V668.72727305c0 29.86363652-24.13636348 54-53.59090869 54z m0-580.5H188V668.72727305h647.59090869l0.40909131-526.5zM651.90909131 440.45454521L462.90909131 549.68181826c-12.68181826 7.36363653-27.81818174 7.36363653-40.5 0-12.68181826-7.36363653-20.04545479-20.45454521-20.04545478-34.77272695v-218.4545461c0-22.5 18-40.5 40.5-40.5 6.95454521 0 13.90909131 2.04545479 20.04545478 5.31818174l189 109.22727305c12.27272695 7.36363653 20.04545479 20.45454521 20.0454539 34.77272695 0 14.72727305-7.36363653 28.22727305-20.0454539 35.18181826z m-195.9545461-120.68181826v171.81818174l148.5-85.90909043-148.5-85.90909131z"  horiz-adv-x="1024" />
      
      <glyph glyph-name="wenbenbeifen4" unicode="&#59197;" d="M856.29090875 10.90909124999996H167.70909125c-15.70909125 0-28.8 12.65454563-28.8 28.8V728.29090875c0 15.70909125 12.65454563 28.8 28.8 28.8H856.72727281c15.70909125 0 28.8-12.65454563 28.8-28.8V39.272727189999955c-0.43636406-15.70909125-13.09090875-28.36363594-29.23636406-28.36363594zM196.07272719 68.07272719000002h631.41818156V699.92727281H196.07272719v-631.85454562zM684.36363594 527.56363594h-344.72727188c-15.70909125 0-28.8 12.65454563-28.8 28.8s12.65454563 28.8 28.8 28.8h344.29090875c15.70909125 0 28.8-12.65454563 28.8-28.8 0-16.14545437-12.65454563-28.8-28.36363687-28.8zM512 182.83636406000005c-15.70909125 0-28.8 12.65454563-28.8 28.8v344.72727188c0 15.70909125 12.65454563 28.8 28.8 28.8 15.70909125 0 28.8-12.65454563 28.8-28.8v-344.29090875c0-16.14545437-13.09090875-29.23636406-28.8-29.23636313z"  horiz-adv-x="1024" />
      
      <glyph glyph-name="tupianbeifen5" unicode="&#59198;" d="M834.77272695 706.77272695c29.86363652 0 54-24.13636348 54-54v-538.36363564c0-29.86363652-24.13636348-54-54-54H189.22727305c-29.86363652 0-54 24.13636348-54 54V653.18181826c0 29.86363652 24.13636348 54 54 54h645.5454539v-0.40909131z m-511.36363564-236.45454521L188.81818174 335.72727305v-220.90909131h645.95454521v69.95454521l-172.22727216 172.22727305-112.90909132-112.90909131-226.22727216 226.22727305z m511.36363564 182.86363652H189.22727305v-242.18181826L323.81818174 545.59090869l226.22727305-226.22727217 112.90909042 112.90909043 172.22727305-172.22727216V653.18181826h-0.40909131z m-102.27272695-138.68181826c20.86363652 0 37.63636347 16.77272695 37.63636347 37.63636347s-16.77272695 37.63636347-37.63636347 37.63636348-37.63636347-16.77272695-37.63636347-37.63636348 16.77272695-37.63636347 37.63636347-37.63636347z"  horiz-adv-x="1024" />
      
      <glyph glyph-name="poster1" unicode="&#59199;" d="M773.38181844 721.3090912499999H250.18181844c-44.50909125 0-80.29090875-35.78181844-80.29090969-80.29090969v-514.03636312c0-44.50909125 35.78181844-80.29090875 80.29090969-80.29090969h523.63636312c44.50909125 0 80.29090875 35.78181844 80.29090969 80.29090969V641.01818156c-0.43636406 44.50909125-36.21818156 80.29090875-80.72727281 80.29090969z m27.49090875-594.32727281c0-15.27272719-12.21818156-27.49090875-27.49090875-27.49090969H250.18181844c-15.27272719 0-27.49090875 12.21818156-27.49090969 27.49090969v130.03636312c5.67272719-3.49090875 11.34545437-6.98181844 17.89090969-10.47272718 35.34545438-18.76363594 75.05454563-28.8 115.2-28.8 18.32727281 0 37.52727281 2.18181844 58.47272719 6.54545437 85.52727281 19.63636406 124.8 74.61818156 159.70909031 123.05454563 21.81818156 30.54545437 42.76363594 59.34545437 73.30909125 79.41818156 49.30909125 32.29090875 120.87272719 17.89090875 154.03636406 8.72727281l-0.43636406-308.50909031z m0 360.43636312c-44.50909125 10.90909125-121.74545437 20.50909125-181.52727282-18.76363593-38.4-25.30909125-62.83636406-59.34545437-86.4-92.07272719-34.03636406-47.12727281-63.27272719-88.14545437-130.03636312-103.4181825-48.43636406-10.90909125-94.69090875-5.67272719-137.0181825 16.58181844-15.70909125 8.29090875-30.54545437 18.32727281-43.2 30.54545437V641.01818156c0 15.27272719 12.21818156 27.49090875 27.49090969 27.49090969h523.63636312c15.27272719 0 27.49090875-12.21818156 27.49090969-27.49090969l-0.43636406-153.6zM352.72727281 606.54545438c-52.8 0-95.12727281-42.76363594-95.56363687-95.56363594 0-52.8 42.76363594-95.12727281 95.56363687-95.56363688 52.8 0 95.12727281 42.76363594 95.56363594 95.56363688 0 52.8-42.76363594 95.56363594-95.56363594 95.56363594z m0-144c-27.05454562 0-48.87272719 21.81818156-48.87272718 48.87272718 0 27.05454562 21.81818156 48.87272719 48.87272718 48.87272719 27.05454562 0 48.87272719-21.81818156 48.87272719-48.87272719 0-27.05454562-21.81818156-48.87272719-48.87272719-48.87272718z m260.50909125-143.56363594c-22.69090875 0-41.45454563-18.32727281-41.45454562-41.45454563v-101.23636406c0-22.69090875 18.32727281-41.45454563 41.45454562-41.45454469h103.41818157c22.69090875 0 41.45454563 18.32727281 41.45454562 41.45454469v101.23636406c0 22.69090875-18.32727281 41.45454563-41.45454562 41.45454563h-103.41818157z m98.1818175-137.0181825h-92.50909031v90.32727281h92.50909031v-90.32727281z"  horiz-adv-x="1024" />
      
      <glyph glyph-name="xiaochengxushezhibeifen4" unicode="&#59241;" d="M512 24.81818174c198.40909131 0 359.18181826 160.77272695 359.18181826 359.18181826S710.40909131 743.18181826 512 743.18181826 152.81818174 582.40909131 152.81818174 384s160.77272695-359.18181826 359.18181826-359.18181826z m0 56.45454521c-167.31818174 0-302.72727305 135.40909131-302.72727305 302.72727305s135.40909131 302.72727305 302.72727305 302.72727305 302.72727305-135.40909131 302.72727305-302.72727305-135.40909131-302.72727305-302.72727305-302.72727305z m25.36363652 387c0 33.95454521 27.40909131 61.36363652 61.36363653 61.36363653s61.36363652-27.40909131 61.36363564-61.36363653-27.40909131-61.36363652-61.36363564-61.36363564c-13.5 0-24.13636348-11.04545479-24.13636436-24.13636436s11.04545479-24.13636348 24.13636436-24.13636347c60.54545479 0 109.63636347 49.09090869 109.63636347 109.63636347s-49.09090869 109.63636347-109.63636347 109.63636436-109.63636347-49.09090869-109.63636436-109.63636436c0-13.5 11.04545479-24.13636348 24.13636436-24.13636347s24.13636348 10.63636347 24.13636347 24.13636347z m-48.27272783-168.13636347c0-33.95454521-27.40909131-60.95454521-61.36363564-60.95454522s-60.95454521 27.40909131-60.9545461 61.36363653 27.40909131 60.95454521 60.9545461 60.95454521c13.5 0 24.13636348 11.04545479 24.13636348 24.13636348 0 13.5-11.04545479 24.13636348-24.13636348 24.13636347-60.54545479 0-109.63636347-49.09090869-109.63636436-109.63636347s49.09090869-109.63636347 109.63636436-109.63636348 109.63636347 49.09090869 109.63636348 109.63636348c0 13.5-11.04545479 24.13636348-24.13636348 24.13636347s-24.13636348-11.04545479-24.13636436-24.13636347z m0 170.59090957v-171.81818174h48.27272783v171.81818174h-48.27272783z"  horiz-adv-x="1024" />
      
      <glyph glyph-name="ns-people" unicode="&#59240;" d="M512 404c109.9 0 199.1 89.1 199.1 199.1s-89.2 199-199.1 199S312.9 713 312.9 603 402.1 404 512 404zM410.8 704.2c27 27 63 41.9 101.2 41.9s74.1-14.9 101.2-41.9 41.9-62.9 41.9-101.2-14.9-74.1-41.9-101.2c-27-27-63-41.9-101.2-41.9s-74.1 14.9-101.2 41.9c-27 27-41.9 63-41.9 101.2s14.9 74.2 41.9 101.2z m478.9-697.4l-48.1 314.8c-2.2 18.3-17.8 32.1-36.2 32.1H218.6c-18.5 0-34-13.8-36.2-32.1l-48.1-314.8c-2.6-21.8 14.3-40.9 36.2-40.9h683c21.9 0 38.9 19.2 36.2 40.9z m-696.5 15.1l42.2 275.9h553.2l42.2-275.9H193.2z"  horiz-adv-x="1024" />
      
      <glyph glyph-name="ns-thick-copy" unicode="&#59231;" d="M848 798H301c-44.2 0-80-35.8-80-80v-40h-45c-44.2 0-80-35.8-80-80v-548c0-44.2 35.8-80 80-80h547c44.2 0 80 35.8 80 80v23h93.6c17.3 0 31.4 14.1 31.4 31.4V718c0 44-36 80-80 80zM709 41H191c-13.3 0-24 10.7-24 24V583c0 13.3 10.7 24 24 24h518c13.3 0 24-10.7 24-24v-518c0-13.3-10.7-24-24-24z m124 103h-30V598c0 44-36 80-80 80H291v25c0 13.3 10.7 24 24 24h518c13.3 0 24-10.7 24-24v-535c0-13.3-10.7-24-24-24z"  horiz-adv-x="1024" />
      
      <glyph glyph-name="zichuang" unicode="&#59230;" d="M55.351351 840.648649l1107.027027-912.799135V464.619243L706.421622 840.648649zM485.846486 564.583784l13.256649 15.775135 133.811892-112.307892-13.228973-15.775135 18.542703-15.581406 170.150054 202.779676-97.418379 81.753946a154.43027 154.43027 0 0 1 35.867676 18.459676l-16.439351 18.127567c-11.513081-8.551784-24.38227-15.110919-38.524541-20.590702l-54.438054 45.69254-170.150054-202.752 18.570378-15.581405z m257.439136 35.00973l-133.811892 112.280216 31.799351 37.915675 133.811892-112.280216-31.827027-37.915675z m-46.771892-55.711136l-133.811892 112.280217 32.657297 38.912 133.839568-112.280217-32.657298-38.912z m-48.875244-58.257297l-133.811891 112.280216 34.788324 41.458162 133.811892-112.280216-34.788325-41.458162z m245.704649-259.514811c14.252973-11.955892 28.229189-10.24 41.070703 5.009298l173.747892 207.097081-18.321298 15.36-169.928648-202.502919c-6.365405-7.638486-12.896865-8.662486-19.26227-3.321081a835.251892 835.251892 0 0 0-36.061406 32.408216l-10.682811-20.950487 39.437838-33.100108z m-79.346162 295.520865c44.557838 2.490811 87.731892 10.018595 130.075676 22.195892 1.743568-30.941405 1.383784-70.102486-1.051676-117.483243l22.638703 2.712216a1382.4 1382.4 0 0 1-1.743568 127.584865l-13.478054 11.347027a556.004324 556.004324 0 0 0-134.78054-22.638703l-1.660541-23.718054z m96.726486-224.698811l133.009298 158.498595-17.823135 14.944865-132.981622-158.498595 17.795459-14.944865z m-109.291243 9.769514c11.955892-10.018595 21.808432-14.834162 29.308541-14.169946 8.856216 1.245405 23.247568 11.706811 43.174054 31.827027l-12.620108 20.120216c-12.730811-13.145946-22.417297-21.033514-28.782703-23.967135-5.452108-2.352432-12.952216 0.027676-21.587027 7.306378l-48.626162 40.766271c-6.614486 5.535135-7.084973 11.153297-2.186379 17.02054l88.174703 105.056865 54.188973-45.471135-38.441513-45.775568c-5.756541-6.863568-12.315676-7.472432-18.930163-1.909621a327.043459 327.043459 0 0 0-24.631351 23.302919l-9.963243-21.144217c8.468757-7.970595 17.684757-16.134919 27.343567-24.243891 14.419027-11.236324 27.509622-10.073946 39.29946 3.459459l56.790486 67.667027-90.582486 75.997405-107.160216-127.723243c-10.876541-12.979892-9.548108-25.350919 4.704865-37.306811l60.526702-50.81254z"  horiz-adv-x="1217" />
      
      <glyph glyph-name="tupianshanchu" unicode="&#59221;" d="M509.76206154 795.70559189a399.58223676 399.58223676 0 1 1 0.0888154-799.16447351A399.58223676 399.58223676 0 0 1 509.80646964 795.6611846z m158.98026324-523.16940729l-35.3486846-35.30427649-123.58717054 123.58717053-123.63157946-123.58717053-35.30427649 35.30427649 123.63157947 123.63157864-123.63157947 123.58717136 35.30427649 35.34868378 123.63157946-123.63157865 123.58717054 123.63157865 35.3486846-35.34868378-123.63157947-123.58717136 123.63157947-123.63157864zM349.67160127 519.04440811l37.52467053 36.76973676 122.56578974-123.80921027 124.07565811 123.80921027 34.94901242-36.76973676-123.32072351-122.87664487 123.32072351-124.47532864-34.94901242-34.54934271-124.03125001 122.61019784-124.78618459-122.61019784-35.34868378 36.41447351L473.65844316 396.43421026z"  horiz-adv-x="1024" />
      
      <glyph glyph-name="ns-delete1" unicode="&#59228;" d="M592.989091 710.842182H431.010909v-45.800727h161.978182v45.800727zM184.785455 614.306909v-43.333818H269.032727l28.718546-489.192727c0.837818-13.824 12.288-24.669091 26.065454-24.669091h376.087273a26.112 26.112 0 0 1 26.065455 24.669091l28.718545 489.192727h84.526545v43.333818H184.785455z m496.779636-511.348364H342.481455L315.112727 568.506182h393.681455l-27.322182-465.547637z m-84.433455 367.336728h-45.800727v-271.592728h45.800727V470.295273z m-120.273454 0H431.010909v-271.592728h45.800727V470.295273z"  horiz-adv-x="1024" />
      
      <glyph glyph-name="ns-cloud-uploading1" unicode="&#59229;" d="M532.107636 397.312a26.205091 26.205091 0 0 1-37.050181 0l-13.917091-13.917091-126.138182-126.138182 32.395636-32.395636 104.168727 104.261818 0.791273 0.791273v-244.736h44.218182V328.145455l0.791273-0.837819 102.4-102.4 32.442182 32.395637-126.277819 126.231272-13.824 13.824z m342.760728 111.522909a270.289455 270.289455 0 0 1-57.995637 86.109091 270.289455 270.289455 0 0 1-191.488 79.266909A270.056727 270.056727 0 0 1 433.943273 594.850909a269.498182 269.498182 0 0 1-52.503273-73.960727 186.274909 186.274909 0 0 1-65.210182 11.729454 184.506182 184.506182 0 0 1-131.351273-54.458181A183.668364 183.668364 0 0 1 130.327273 347.042909c0-49.570909 19.316364-96.209455 54.411636-131.304727 18.897455-18.897455 41.146182-33.233455 65.442909-42.496v50.362182a139.962182 139.962182 0 0 0-74.007273 123.345454A140.055273 140.055273 0 0 0 364.823273 478.021818c15.173818-5.632 28.997818-13.824 41.099636-24.017454a223.278545 223.278545 0 0 0 60.229818 108.450909 223.185455 223.185455 0 0 0 159.045818 65.861818c60.043636 0 116.596364-23.365818 159.045819-65.861818a223.650909 223.650909 0 0 0 65.954909-159.138909 223.464727 223.464727 0 0 0-76.520728-169.006546v-57.530182a270.289455 270.289455 0 0 1 122.321455 226.490182c0 36.491636-7.121455 72.238545-21.178182 105.611637z"  horiz-adv-x="1024" />
      
      <glyph glyph-name="bianzu48" unicode="&#59226;" d="M160 864h704c70.4 0 128-57.6 128-128v-704c0-70.4-57.6-128-128-128h-704c-70.4 0-128 57.6-128 128v704c0 70.4 57.6 128 128 128zM864-128h-704C70.4-128 0-57.6 0 32v704C0 825.6 70.4 896 160 896h704C953.6 896 1024 825.6 1024 736v-704c0-89.6-70.4-160-160-160zM160 832C108.8 832 64 787.2 64 736v-704c0-51.2 44.8-96 96-96h704c51.2 0 96 44.8 96 96v704c0 51.2-44.8 96-96 96h-704zM256 640h512v-512H256z"  horiz-adv-x="1024" />
      
      <glyph glyph-name="bianzu42" unicode="&#59227;" d="M0 896m128 0l768 0q128 0 128-128l0-768q0-128-128-128l-768 0q-128 0-128 128l0 768q0 128 128 128ZM753.28 559.744l-269.568-373.76a40.704 40.704 0 0 0-66.176 0L257.92 407.168a10.24 10.24 0 0 0 8.32 16.256h60.032c13.056 0 25.472-6.272 33.152-17.024L450.56 279.936l201.216 279.04A40.96 40.96 0 0 0 684.928 576h60.032a10.24 10.24 0 0 0 8.32-16.256z"  horiz-adv-x="1024" />
      
      <glyph glyph-name="xin" unicode="&#59225;" d="M802.909091 407.272727v-46.545454H535.272727v-267.636364h-46.545454V360.727273H221.090909v46.545454h267.636364V674.909091h46.545454v-267.636364z"  horiz-adv-x="1024" />
      
      <glyph glyph-name="chenggongbeifen9" unicode="&#59217;" d="M900.142545 719.453091a41.890909 41.890909 0 0 1-47.848727 13.917091L104.913455 450.653091a42.123636 42.123636 0 0 1 20.154181-64.418909l184.226909-63.720727 64.279273-272.896 159.837091 121.250909 168.727273-156.672a41.890909 41.890909 0 0 1 57.250909 29.463272L900.189091 719.453091z"  horiz-adv-x="1024" />
      
      <glyph glyph-name="fenxiangbeifen2" unicode="&#59222;" d="M763.624727 285.184v-144.802909c-0.046545-0.093091-0.465455-0.651636-1.396363-0.651636H261.771636c-0.930909 0-1.396364 0.465455-1.396363 0.558545v144.896H219.694545v-144.896c0-22.760727 18.897455-41.285818 42.077091-41.285818h500.549819a41.797818 41.797818 0 0 1 42.07709 41.285818v144.896h-40.727272z m-235.101091-86.295273l168.773819 168.913455-28.765091 28.765091-132.002909-132.049455V670.487273h-48.174546v-406.807273l-132.887273 132.840727-28.765091-28.811636 168.86691-168.820364a23.272727 23.272727 0 0 1 32.954181 0z"  horiz-adv-x="1024" />
      
      <glyph glyph-name="chenggongbeifen2" unicode="&#59223;" d="M881.757091 693.76a24.110545 24.110545 0 0 0 0.884364-13.777455l-143.825455-622.08a24.110545 24.110545 0 0 0-40.029091-12.055272l-163.84 155.368727-143.36-108.730182a12.055273 12.055273 0 0 0-19.083636 7.447273l-43.473455 240.407273-181.853091 62.882909a24.110545 24.110545 0 0 0-0.465454 45.381818L850.850909 708.002909a24.110545 24.110545 0 0 0 30.906182-14.242909z m-81.268364-74.845091L280.389818 427.287273l106.961455-36.957091 34.536727-191.581091 117.806545 89.320727 151.133091-143.36 109.661091 474.298182z"  horiz-adv-x="1024" />
      
      <glyph glyph-name="zhinan" unicode="&#59224;" d="M512 787.968c-222.208 0-403.968-181.76-403.968-403.968s181.76-403.968 403.968-403.968 403.968 181.76 403.968 403.968S734.208 787.968 512 787.968z m0-757.4016c-194.4064 0-353.4336 159.0272-353.4336 353.4336 0 194.4064 159.0272 353.4336 353.4336 353.4336 194.4064 0 353.4336-159.0272 353.4336-353.4336 0-194.4064-159.0272-353.4336-353.4336-353.4336zM307.2 179.2l305.9712 101.1712 101.2224 306.0224-306.0224-101.2224L307.2 179.2z m332.4928 332.4928l-55.3984-166.2464-110.848 110.848 166.2464 55.3984z m-89.1392-199.9872l-166.2464-55.3984 55.3984 166.2464 110.848-110.848z"  horiz-adv-x="1024" />
      
      <glyph glyph-name="pengyouquan1" unicode="&#59215;" d="M512-71.111111c-250.936889 0-455.111111 204.174222-455.111111 455.111111s204.174222 455.111111 455.111111 455.111111 455.111111-204.174222 455.111111-455.111111-204.174222-455.111111-455.111111-455.111111zM512 780.970667c-221.184 0-401.123556-178.062222-401.123556-396.970667S290.816-12.970667 512-12.970667c221.184 0 401.123556 178.062222 401.123556 396.970667S733.184 780.970667 512 780.970667zM512 212.878222c-93.582222 0-169.642667 76.743111-169.642667 171.121778 0 94.321778 76.060444 171.008 169.642667 171.008 93.582222 0 169.642667-76.686222 169.642667-171.008 0-94.321778-76.060444-171.121778-169.642667-171.121778z m0 284.103111c-63.829333 0-115.768889-50.744889-115.768889-112.981333 0-62.236444 51.882667-112.981333 115.768889-112.981333 63.829333 0 115.768889 50.744889 115.768889 112.981333 0 62.236444-51.939556 112.981333-115.768889 112.981333zM911.587556 496.981333H512c-14.904889 0-26.965333 12.970667-26.965333 29.013334 0 16.042667 12.117333 29.013333 26.965333 29.013333h399.587556c14.904889 0 26.965333-12.970667 26.965333-29.013333 0-16.042667-12.060444-29.013333-26.965333-29.013334z m-256.853334-539.704889c-14.961778 0-26.965333 13.027556-26.965333 29.013334V384c0 16.042667 12.117333 29.013333 26.965333 29.013333 14.904889 0 26.908444-12.970667 26.908445-29.013333v-397.653333c0-16.042667-11.946667-29.013333-26.908445-29.013334zM512 212.878222H126.691556c-14.904889 0-26.908444 13.027556-26.908445 29.013334 0 16.042667 12.060444 29.013333 26.908445 29.013333H512c14.904889 0 26.965333-12.970667 26.965333-29.013333 0-15.985778-12.060444-29.013333-26.965333-29.013334zM369.265778 354.986667c-14.904889 0-26.908444 12.970667-26.908445 29.013333V767.431111c0 16.042667 12.060444 29.070222 26.908445 29.070222 14.961778 0 26.965333-13.027556 26.965333-29.013333V384c0-16.042667-12.003556-29.013333-26.965333-29.013333zM399.132444 443.448889a26.168889 26.168889 0 0 0-19.854222 9.386667 30.549333 30.549333 0 0 0 1.536 41.016888l282.567111 281.201778a25.713778 25.713778 0 0 0 38.115556-1.706666 30.549333 30.549333 0 0 0-1.536-40.96L417.450667 451.128889a25.770667 25.770667 0 0 0-18.318223-7.736889z m498.176-267.434667a25.770667 25.770667 0 0 0-18.318222 7.736889l-282.510222 281.144889a30.72 30.72 0 0 0-1.536 41.073778 25.6 25.6 0 0 0 38.115556 1.649778l282.510222-281.201778a30.72 30.72 0 0 0 1.592889-41.016889 26.055111 26.055111 0 0 0-19.911111-9.386667z m-568.832-204.515555a25.884444 25.884444 0 0 0-19.797333 9.386666 30.549333 30.549333 0 0 0 1.536 41.016889l272.440889 271.189334a25.656889 25.656889 0 0 0 38.115556-1.706667 30.549333 30.549333 0 0 0-1.536-40.96l-272.440889-271.189333a25.770667 25.770667 0 0 0-18.318223-7.736889z m70.656 271.132444a25.770667 25.770667 0 0 0-18.318222 7.736889L108.430222 521.443556a30.72 30.72 0 0 0-1.592889 41.073777 25.6 25.6 0 0 0 38.115556 1.592889l272.497778-271.132444a30.72 30.72 0 0 0 1.536-41.073778 26.168889 26.168889 0 0 0-19.854223-9.272889z"  horiz-adv-x="1024" />
      
      <glyph glyph-name="hongbaoxianxing" unicode="&#59214;" d="M789-64.5H235c-49.4 0-89.5 40.1-89.5 89.5V495c0 16.3 13.2 29.5 29.5 29.5s29.5-13.2 29.5-29.5v-470c0-16.8 13.7-30.5 30.5-30.5h554c16.8 0 30.5 13.7 30.5 30.5V495c0 16.3 13.2 29.5 29.5 29.5s29.5-13.2 29.5-29.5v-470c0-49.4-40.1-89.5-89.5-89.5zM511.5 64c-16.3 0-29.5 13.2-29.5 29.5V142h-65.5c-16.3 0-29.5 13.2-29.5 29.5s13.2 29.5 29.5 29.5H482v52h-65.5c-16.3 0-29.5 13.2-29.5 29.5s13.2 29.5 29.5 29.5h43.3l-66.4 66.4c-11.5 11.5-11.5 30.2 0 41.7 11.5 11.5 30.2 11.5 41.7 0l76.9-76.9 76.9 76.9c11.5 11.5 30.2 11.5 41.7 0 11.5-11.5 11.5-30.2 0-41.7L564.2 312h42.3c16.3 0 29.5-13.2 29.5-29.5S622.8 253 606.5 253H541v-52h65.5c16.3 0 29.5-13.2 29.5-29.5S622.8 142 606.5 142H541v-48.5c0-16.3-13.2-29.5-29.5-29.5zM516.9 525c-3.6 0-7.2 0.3-10.8 1l-312.9 57c-13.8 2.5-26.3 9.8-35.3 20.6-9 10.8-13.9 24.4-13.9 38.5V744c0 16 6.2 31.1 17.6 42.4C172.9 797.8 188 804 204 804h616c16 0 31.1-6.2 42.4-17.6C873.8 775.1 880 760 880 744v-102.2c0-14-4.9-27.6-13.8-38.3-8.9-10.7-21.4-18.1-35.1-20.7L527.9 526c-3.7-0.6-7.4-1-11-1zM204 745c-0.1 0-0.4 0-0.7-0.3-0.3-0.3-0.3-0.6-0.3-0.7v-101.9c0-0.1 0-0.4 0.2-0.6 0.2-0.3 0.5-0.3 0.6-0.3l312.9-57h0.4L820.3 641c0.1 0 0.4 0.1 0.6 0.3 0.2 0.3 0.2 0.5 0.2 0.6V744c0 0.1 0 0.4-0.3 0.7s-0.7 0.3-0.8 0.3H204z"  horiz-adv-x="1024" />
      
      <glyph glyph-name="shenheshibai" unicode="&#59204;" d="M17.066667 861.866667l972.8-802.133334V531.438933L589.175467 861.866667zM368.64 820.8384l15.1552 18.039467 108.885333-91.357867-14.4896-17.2544 10.973867-9.216 23.04 27.460267-59.460267 49.885866c2.645333 6.331733 4.9152 11.912533 6.656 17.152l-13.653333 7.970134a167.714133 167.714133 0 0 0-4.608-15.377067L381.371733 858.282667l-23.7056-28.245334 10.990934-9.216zM342.135467 665.6l26.7264 31.8464 35.293866-29.610667-7.3728-8.789333 10.973867-9.216 63.453867 75.6224-46.267734 38.843733 13.141334 15.684267-11.281067 9.472-13.1584-15.701333L367.786667 812.202667l-63.829334-76.0832 10.973867-9.216 7.765333 9.250133 34.816-29.218133-26.709333-31.8464 11.298133-9.489067z m94.276266 40.669867L401.066667 735.880533l15.138133 18.039467 35.310933-29.627733-15.138133-18.039467z m-46.592 39.099733l-34.833066 29.218133 15.138133 18.056534 34.816-29.2352-15.121067-18.039467z m-23.569066-28.074667l-34.816 29.218134 15.121066 18.039466 34.816-29.218133-15.121066-18.039467z m46.592-39.099733l-35.293867 29.610667 15.138133 18.039466 35.293867-29.610666-15.138133-18.039467z m94.72-90.709333c39.918933-14.250667 80.725333-12.117333 122.4704 5.768533l-5.0176 12.4928c-8.3968-3.6352-16.878933-6.417067-25.7024-8.635733-10.376533 7.3728-20.7872 15.035733-31.351467 22.8352 11.9808 0.904533 28.603733 5.410133 50.005333 13.397333l42.973867-36.078933 8.567467 10.205866-34.833067 29.218134c3.328 8.430933 5.853867 16.213333 7.714133 23.210666l-13.192533 7.850667a133.085867 133.085867 0 0 0-5.512533-21.845333l-39.2192 32.904533-8.5504-10.1888 30.429866-25.5488c-24.388267-8.669867-41.216-12.458667-50.909866-11.281067a19.968 19.968 0 0 0-2.986667 0.904534l-5.410133-11.229867c12.8-9.9328 25.088-19.182933 36.590933-27.767467-24.968533-3.6352-49.646933-0.853333-74.2912 8.328534l-1.774933-14.5408z m-51.7632-16.452267l67.003733 79.854933c-0.955733-10.7008-2.9696-24.234667-5.751467-40.618666l14.301867 4.3008c1.365333 17.5616 2.013867 33.621333 1.706667 48.554666l8.567466 10.1888 18.517334-15.530666 9.079466 10.820266-18.517333 15.530667 25.668267 30.600533-10.820267 9.079467-25.668267-30.583467-21.6576 18.158934-9.079466-10.820267 21.179733-17.7664c-22.084267-16.759467-45.6192-28.5696-70.4512-35.5328l-4.898133-15.394133a246.016 246.016 0 0 1 55.944533 26.845866l-65.9456-78.609066 10.820267-9.079467z m101.0688-83.456l15.0016 1.297067c0.443733 16.469333-0.989867 34.5088-3.857067 54.033066a205.943467 205.943467 0 0 1 57.480533 14.336l-5.358933 13.038934c-47.189333-18.944-94.293333-18.9952-141.294933-0.136534l-2.048-14.865066c25.890133-9.949867 51.985067-14.199467 78.370133-13.346134 2.389333-20.736 2.952533-38.843733 1.706667-54.3744z m28.3136-24.576c31.505067-12.8 58.5728-16.5376 81.373866-11.332267 11.810133 2.901333 23.552 8.311467 35.2256 16.162134-12.8512-32.529067-8.2432-70.365867 13.585067-113.800534l14.574933 4.608c-22.254933 40.072533-27.7504 74.632533-16.4864 103.662934l58.368-48.981334 9.079467 10.837334-64.802133 54.3744c6.638933 5.666133 13.192533 12.202667 19.8144 19.456l8.567466 10.205866 52.548267-44.100266 9.216 10.973866-52.565333 44.100267 23.04 27.477333-11.605334 9.728-23.04-27.460266-31.6928 26.589866c8.260267 3.7888 16.725333 8.157867 25.309867 13.2608l-7.099733 12.9024c-24.695467-15.086933-49.288533-23.057067-73.949867-23.7568l2.594133-16.349866c12.014933 0.6144 24.712533 3.328 38.126934 7.850666l37.495466-31.470933-8.5504-10.205867c-6.638933-7.2704-13.192533-13.789867-19.968-19.336533l-60.7232 50.944-9.079466-10.820267 58.368-48.981333a106.530133 106.530133 0 0 0-27.767467-13.312c-20.650667-4.864-46.728533-0.904533-78.045867 11.485867l-1.911466-14.711467zM873.130667 220.552533l15.069866 5.5296a152.7808 152.7808 0 0 0-6.280533 53.384534c26.7264 10.1888 51.8656 28.672 75.810133 55.637333l10.052267-8.430933 9.079467 10.820266-45.960534 38.570667c7.765333 5.768533 15.9232 12.288 24.285867 19.712l-9.949867 10.752c-26.3168-24.968533-51.712-40.277333-75.946666-45.8752l-0.512-13.994667a98.696533 98.696533 0 0 1 22.971733 6.656c-11.946667-21.265067-19.5584-42.427733-22.9376-63.658666a126.600533 126.600533 0 0 0-52.992-3.908267l-2.184533-15.018667a142.08 142.08 0 0 1 53.4528 3.805867 155.921067 155.921067 0 0 1 6.0416-53.981867z m-88.2688 141.431467l73.591466 87.7056 37.188267-31.214933-73.591467-87.688534 10.359467-8.704 82.397867 98.218667-57.890134 48.5888-82.397866-98.218667 10.3424-8.704z m-42.666667-30.7712c16.349867-4.096 31.402667-3.362133 45.294933 2.3552 14.267733 6.485333 29.047467 18.688 44.629334 36.625067l40.157866 47.837866-9.898666 8.2944-40.1408-47.837866c-12.680533-14.506667-25.019733-24.7296-36.864-30.549334-11.776-5.12-25.668267-5.751467-41.130667-1.877333l-2.048-14.848z m141.6704-35.720533c4.113067 22.749867 13.738667 45.687467 29.013333 68.676266 1.962667 1.041067 3.874133 2.389333 5.956267 3.584L947.2 343.893333c-19.968-22.528-41.233067-38.638933-63.351467-48.418133z m-87.739733-8.994134l15.1552 1.194667c1.1264 13.755733 0.836267 28.706133-0.733867 44.987733l-13.431467-1.024c1.2288-17.339733 0.938667-32.341333-0.989866-45.1584z"  horiz-adv-x="1024" />
      
      <glyph glyph-name="shenhechenggong" unicode="&#59207;" d="M17.066667 861.866667l972.8-802.133334V531.438933L589.175467 861.866667zM367.854933 818.449067l15.138134 18.039466 108.885333-91.357866-14.4896-17.2544 10.990933-9.216 23.04 27.4432-59.460266 49.902933c2.645333 6.331733 4.9152 11.912533 6.638933 17.152l-13.653333 7.970133a167.714133 167.714133 0 0 0-4.608-15.377066L380.586667 855.893333l-23.688534-28.228266 10.973867-9.216zM341.333333 663.1936l26.7264 31.8464 35.293867-29.610667-7.3728-8.789333 10.990933-9.216 63.453867 75.605333-46.2848 38.843734 13.1584 15.701333-11.298133 9.472-13.1584-15.701333-45.806934 38.4512-63.8464-76.0832 10.973867-9.216 7.765333 9.250133 34.833067-29.218133-26.7264-31.8464 11.298133-9.489067z m94.276267 40.669867l-35.293867 29.610666 15.138134 18.056534 35.293866-29.627734-15.138133-18.039466z m-46.592 39.082666l-34.816 29.2352 15.121067 18.039467 34.816-29.218133-15.121067-18.039467z m-23.552-28.074666L330.581333 744.106667l15.138134 18.039466L380.586667 732.910933l-15.138134-18.039466z m46.592-39.082667l-35.310933 29.610667 15.138133 18.039466 35.293867-29.610666-15.138134-18.056534z m94.72-90.7264c39.901867-14.2336 80.725333-12.117333 122.4704 5.7856l-5.0176 12.4928c-8.413867-3.6352-16.896-6.417067-25.7024-8.635733-10.3936 7.3728-20.804267 15.035733-31.368533 22.8352 11.9808 0.904533 28.603733 5.410133 50.005333 13.380266l42.990933-36.061866 8.533334 10.1888-34.816 29.2352c3.328 8.430933 5.853867 16.213333 7.714133 23.210666l-13.192533 7.850667a133.085867 133.085867 0 0 0-5.495467-21.845333l-39.2192 32.904533-8.567467-10.205867 30.446934-25.531733c-24.405333-8.669867-41.216-12.458667-50.909867-11.281067a19.968 19.968 0 0 0-2.986667 0.904534l-5.4272-11.229867c12.8-9.9328 25.088-19.182933 36.590934-27.767467-24.968533-3.6352-49.629867-0.853333-74.274134 8.328534l-1.792-14.557867z m-51.780267-16.4352l67.003734 79.854933c-0.955733-10.7008-2.952533-24.251733-5.7344-40.618666l14.301866 4.283733c1.365333 17.578667 1.9968 33.621333 1.706667 48.571733l8.5504 10.1888 18.517333-15.530666 9.079467 10.820266-18.500267 15.530667 25.668267 30.600533-10.837333 9.079467-25.668267-30.583467-21.640533 18.158934-9.079467-10.820267 21.162667-17.7664c-22.0672-16.759467-45.602133-28.5696-70.434134-35.5328l-4.9152-15.4112a246.016 246.016 0 0 1 55.944534 26.845867l-65.9456-78.592 10.820266-9.079467z m101.0688-83.473067l15.018667 1.314134c0.426667 16.469333-1.006933 34.5088-3.874133 54.033066a205.943467 205.943467 0 0 1 57.480533 14.336l-5.358933 13.038934c-47.189333-18.944-94.276267-18.9952-141.277867-0.1536l-2.048-14.848c25.873067-9.949867 51.968-14.216533 78.353067-13.3632 2.389333-20.718933 2.9696-38.843733 1.706666-54.357334z m30.549334-26.9824c25.838933 7.202133 51.080533 24.5248 75.264 52.087467l3.9424 4.7104 27.136-22.784c-14.779733-16.9984-24.746667-27.886933-30.1568-32.426667-4.608-3.618133-8.789333-4.130133-12.373334-1.3824a406.101333 406.101333 0 0 0-15.138133 13.499734l-5.12-13.090134c4.778667-4.522667 9.045333-8.6528 12.817067-11.810133 8.123733-6.280533 15.872-6.912 23.569066-1.877333 8.4992 5.973333 24.098133 22.016 46.660267 48.2816l-38.434133 32.256 21.845333 26.043733 53.8112-45.1584c-15.189333-20.650667-26.811733-38.980267-34.423467-55.057067-3.925333-8.192-7.168-16.1792-9.8304-23.825066a137.693867 137.693867 0 0 0-65.928533 2.372266l-1.621333-14.677333a141.175467 141.175467 0 0 1 62.958933-3.362133c-1.7408-6.826667-2.747733-13.482667-3.089067-19.6096-0.375467-15.7184 2.730667-26.350933 9.335467-31.880534 7.048533-5.922133 21.213867 0.1024 42.496 17.8176l-5.461333 14.199467c-15.9232-14.1824-25.429333-20.104533-28.381867-17.885867-3.140267 2.628267-4.215467 9.949867-3.072 21.828267 0.512 5.700267 1.8432 12.0832 3.857067 18.944 21.896533 5.6832 44.8 16.418133 68.437333 31.863467l-6.5024 12.936533c-18.944-12.6976-37.597867-22.186667-55.978667-28.16 1.792 4.386133 3.7376 8.9088 6.075734 13.6192 6.656 13.6704 17.527467 30.754133 32.750933 51.131733l48.298667-40.5504 9.096533 10.837334-19.131733 16.042666 13.2608 1.1776a184.4736 184.4736 0 0 1-4.8128 33.450667l-13.0048-0.853333c2.8672-12.834133 4.266667-23.893333 4.232533-33.501867l-29.3376 24.6272c6.007467 7.7824 12.561067 15.9232 19.933867 24.712533l-11.605334 9.728c-7.099733-8.465067-13.653333-16.605867-19.933866-24.712533l-64.785067 54.3744-43.861333-52.241067c-21.9136-25.173333-43.810133-40.7552-65.962667-46.762666l2.184533-14.933334z m208.452266-175.9744c42.205867 1.211733 83.063467 24.405333 122.538667 69.888l28.7232-24.098133c-35.464533-41.6256-57.173333-66.2016-64.955733-73.557333-9.0624-7.6288-18.8416-7.168-29.047467 1.365333a371.848533 371.848533 0 0 0-14.813867 13.243733l-6.144-12.7488c6.485333-5.973333 10.922667-10.24 13.738667-12.5952 15.837867-13.312 30.3104-14.216533 43.008-2.935466 11.298133 10.2912 37.495467 39.918933 78.557867 88.866133l-39.850667 33.450667 26.589867 31.675733-11.605334 9.745067-26.589866-31.6928-24.951467 20.9408-9.216-10.990934 24.951467-20.923733c-36.437333-42.154667-74.24-63.624533-113.476267-63.863467l2.56-15.7696z m-37.8368 73.728a554.376533 554.376533 0 0 1 71.099734-31.863466l9.489066 11.298133a343.586133 343.586133 0 0 0-31.3344 12.373333l60.416 72.021334 22.613334-18.961067 9.079466 10.820267-56.644266 47.530666-9.079467-10.820266 22.596267-18.961067-63.061334-75.144533a544.6656 544.6656 0 0 0-28.535466 15.377066l-6.656-13.653333z"  horiz-adv-x="1024" />
      
      <glyph glyph-name="daitijiao" unicode="&#59212;" d="M17.066667 861.866667l972.8-802.133334V531.438933L589.175467 861.866667zM457.762133 754.397867c29.3888-1.928533 55.313067 2.5088 77.960534 12.936533l-6.075734 12.834133c-19.4048-9.1136-41.301333-13.2096-66.0992-12.1856l-5.7856-13.585066z m134.536534-125.44l8.704 10.3424-41.745067 35.0208 16.452267 19.6096 35.310933-29.627734 8.5504 10.205867-35.293867 29.610667 14.336 17.1008-10.820266 9.079466-14.336-17.1008-34.986667 29.354667-8.567467-10.1888 34.986667-29.354667-16.452267-19.626666-40.96 34.372266-8.669866-10.359466 93.4912-78.455467z m-182.101334 6.007466l66.628267 79.377067a161.211733 161.211733 0 0 1 34.2528 12.168533l-5.905067 12.6976c-22.5792-10.990933-48.128-16.264533-76.544-15.701333l-5.7856-13.585067c11.093333-0.494933 21.981867-0.273067 32.631467 0.955734l-56.081067-66.833067 10.820267-9.079467z m74.717867-61.354666c10.052267-8.430933 19.575467-7.594667 28.125867 2.6112l33.826133 40.311466 18.363733-15.394133 8.823467 10.513067-18.363733 15.394133 9.728 11.605333-11.264 9.489067-9.762134-11.605333-60.859733 51.063466-8.823467-10.513066 60.859734-51.063467-31.453867-37.495467c-4.471467-5.341867-9.506133-5.922133-14.677333-1.5872-6.6048 5.5296-13.397333 11.776-20.224 18.295467l-6.570667-12.936533 22.272-18.688z m-10.257067 42.564266l14.045867-1.092266c0.8192 10.5472 0.6656 24.046933-0.6144 40.362666l-13.397333 1.877334c1.092267-15.889067 1.006933-29.713067-0.034134-41.130667z m78.677334-100.2496c8.96-7.509333 17.322667-6.775467 24.695466 2.013867l38.826667 46.2848c6.4-1.621333 12.8-3.242667 19.165867-4.573867l9.608533 11.434667c-6.5024 1.194667-12.9024 2.816-19.285333 4.437333l25.668266 30.583467 15.837867-13.294933 9.096533 10.837333-15.854933 13.294933 24.8832 29.6448-11.605333 9.728-24.8832-29.6448-18.978134 15.940267-9.096533-10.837333 18.9952-15.9232-29.764267-35.447467a220.7232 220.7232 0 0 0-26.385066 10.922667l-6.826667-13.550934c7.714133-3.242667 15.6672-6.178133 23.6032-8.823466l-32.119467-38.280534c-3.293867-3.925333-7.031467-4.266667-10.8032-1.092266-4.078933 3.413333-7.901867 7.168-12.014933 11.1616l-6.877867-12.970667 14.1312-11.844267z m179.234133-9.762133l45.687467 54.442667-68.4032 57.3952-45.687467-54.442667 68.4032-57.3952z m15.479467 40.7552l-46.4384 38.9632 11.451733 13.653333 46.4384-38.9632-11.451733-13.653333z m-18.688-22.272l-46.4384 38.9632 11.3152 13.482667 46.4384-38.9632-11.3152-13.482667z m-146.961067-34.952533a125.713067 125.713067 0 0 1 38.1952 13.653333c-2.6624-12.731733-2.184533-23.296 1.143467-31.4368 4.369067-10.0864 16.776533-23.978667 37.376-41.506133 5.000533-4.215467 10.683733-9.250133 16.9472-14.506667l12.356266 8.3456a342.818133 342.818133 0 0 0-21.674666 16.861867 198.314667 198.314667 0 0 0-21.0944 20.104533l16.981333 20.224 32.785067-27.511467 8.567466 10.205867-32.802133 27.511467 14.882133 17.732266 39.2192-32.9216 8.430934 10.052267-89.736534 75.298133-8.430933-10.052266 39.697067-33.297067-38.4512-45.806933a63.709867 63.709867 0 0 0-2.56 4.573866c-4.096 8.4992-4.2496 20.1216-0.443734 34.850134a121.344 121.344 0 0 1 16.042667 14.336l-9.1136 9.5232c-16.264533-16.827733-36.5568-27.613867-60.586667-32.0512l2.269867-14.1824z m344.6784-94.8736l9.079467 10.837333-61.815467 51.8656c3.242667 9.5744 5.632 18.807467 7.492267 27.392l-14.3872 8.3456c-1.024-8.2432-2.7648-16.674133-5.341867-25.480533l-64.785067 54.3744-9.096533-10.820267 138.8544-116.514133zM872.277333 348.330667l15.291734 1.3312c-0.187733 23.688533-3.328 49.578667-9.147734 77.994666l-13.8752-0.9216c5.717333-30.464 8.430933-56.541867 7.7312-78.404266z m-120.8832 103.8336c27.306667-3.140267 53.521067-1.877333 78.472534 3.652266l-2.0992 14.062934c-24.149333-4.864-49.237333-5.461333-75.554134-2.0992l-0.8192-15.616z m-53.418666-60.501334c30.6176-14.472533 60.637867-22.016 90.0608-22.647466 5.888-27.392 18.6368-55.210667 38.007466-83.746134l15.872 4.573867c-19.2 26.811733-32.119467 53.162667-38.792533 79.616a188.928 188.928 0 0 1 58.7776 14.301867l-6.536533 13.243733a164.898133 164.898133 0 0 0-55.296-12.6976 152.4736 152.4736 0 0 0 1.024 56.354133l-14.336 2.6624a181.8112 181.8112 0 0 1-1.501867-59.153066c-26.999467 1.28-55.466667 9.1136-85.504 23.637333l-1.792-16.145067z"  horiz-adv-x="1024" />
      
      <glyph glyph-name="daishenhe" unicode="&#59213;" d="M17.066667 861.866667l972.8-802.133334V531.438933L589.175467 861.866667zM440.610133 754.346667c29.3888-1.928533 55.296 2.525867 77.943467 12.936533l-6.058667 12.8512c-19.4048-9.1136-41.301333-13.2096-66.0992-12.1856l-5.7856-13.585067z m134.536534-125.44l8.704 10.3424-41.745067 35.0208 16.452267 19.626666 35.293866-29.627733 8.567467 10.1888-35.293867 29.627733 14.336 17.1008-10.820266 9.079467-14.336-17.1008-34.986667 29.354667-8.567467-10.1888 34.986667-29.354667-16.452267-19.626667-40.96 34.372267-8.686933-10.359467 93.525333-78.455466z m-182.101334 6.007466l66.628267 79.394134a161.211733 161.211733 0 0 1 34.2528 12.151466l-5.905067 12.714667c-22.596267-10.990933-48.145067-16.2816-76.544-15.701333l-5.802666-13.602134c11.093333-0.477867 21.981867-0.256 32.631466 0.9728l-56.081066-66.833066 10.837333-9.096534z m74.717867-61.3376c10.0352-8.430933 19.5584-7.594667 28.125867 2.594134l33.826133 40.328533 18.363733-15.4112 8.8064 10.513067-18.346666 15.4112 9.728 11.605333-11.281067 9.472-9.745067-11.605333-60.8768 51.080533-8.823466-10.513067 60.8768-51.080533-31.453867-37.495467c-4.488533-5.3248-9.5232-5.922133-14.6944-1.570133-6.587733 5.5296-13.380267 11.776-20.206933 18.295467l-6.570667-12.936534 22.272-18.688z m-10.257067 42.564267l14.045867-1.092267c0.8192 10.530133 0.6656 24.029867-0.631467 40.3456l-13.380266 1.877334c1.092267-15.872 0.989867-29.696-0.034134-41.130667z m162.321067 3.874133l15.138133 18.039467 108.885334-91.357867-14.4896-17.2544 10.990933-9.216 23.04 27.460267-59.460267 49.885867c2.628267 6.331733 4.9152 11.912533 6.638934 17.152l-13.653334 7.970133a167.714133 167.714133 0 0 0-4.608-15.377067l-59.767466 50.158934-23.688534-28.245334 10.973867-9.216z m-26.538667-155.2384l26.7264 31.8464 35.293867-29.627733-7.3728-8.789333 10.990933-9.216 63.453867 75.6224-46.2848 38.843733 13.1584 15.684267-11.298133 9.472-13.1584-15.684267-45.806934 38.434133-63.8464-76.0832 10.973867-9.216 7.765333 9.250134 34.816-29.218134-26.709333-31.8464 11.298133-9.472z m94.276267 40.6528l-35.293867 29.627734 15.138134 18.039466 35.293866-29.627733-15.138133-18.039467z m-46.592 39.099734l-34.833067 29.2352 15.138134 18.039466 34.816-29.2352-15.121067-18.039466z m-23.569067-28.074667l-34.816 29.218133 15.121067 18.039467 34.833067-29.218133-15.138134-18.039467z m46.592-39.099733l-35.293866 29.610666 15.138133 18.039467 35.293867-29.610667-15.138134-18.039466z m94.72-90.709334c39.918933-14.250667 80.725333-12.117333 122.487467 5.768534l-5.0176 12.4928c-8.413867-3.6352-16.896-6.417067-25.7024-8.635734-10.3936 7.3728-20.804267 15.035733-31.368533 22.8352 11.9808 0.904533 28.603733 5.410133 50.005333 13.397334l42.973867-36.078934 8.567466 10.205867-34.833066 29.218133c3.328 8.430933 5.853867 16.213333 7.714133 23.210667l-13.192533 7.850667a133.085867 133.085867 0 0 0-5.495467-21.845334l-39.236267 32.904534-8.5504-10.1888 30.429867-25.5488c-24.388267-8.669867-41.198933-12.458667-50.909867-11.264-0.887467 0.2048-1.774933 0.4096-2.986666 0.887466l-5.410134-11.229866c12.8-9.9328 25.088-19.182933 36.590934-27.767467-24.968533-3.6352-49.629867-0.853333-74.274134 8.328533l-1.792-14.5408z m-51.7632-16.452266l67.003734 79.854933c-0.955733-10.7008-2.9696-24.234667-5.751467-40.618667l14.318933 4.3008c1.365333 17.5616 1.9968 33.621333 1.706667 48.554667l8.5504 10.205867 18.517333-15.530667 9.079467 10.820267-18.500267 15.530666 25.668267 30.583467-10.837333 9.096533-25.668267-30.600533-21.640533 18.158933-9.096534-10.820266 21.179734-17.7664c-22.084267-16.759467-45.6192-28.552533-70.434134-35.5328l-4.9152-15.394134a246.016 246.016 0 0 1 55.944534 26.845867l-65.9456-78.609067 10.820266-9.079466z m101.0688-83.456l15.0016 1.297066c0.443733 16.469333-0.989867 34.5088-3.857066 54.033067a205.943467 205.943467 0 0 1 57.480533 14.336l-5.358933 13.056c-47.189333-18.961067-94.276267-19.012267-141.294934-0.170667l-2.048-14.848c25.890133-9.949867 51.985067-14.199467 78.370134-13.346133 2.389333-20.736 2.9696-38.843733 1.706666-54.3744z"  horiz-adv-x="1024" />
      
      <glyph glyph-name="cebianlanhongbao" unicode="&#59201;" d="M512-14.222222A398.222222 398.222222 0 1 0 512 782.222222a398.222222 398.222222 0 0 0 0-796.444444z m144.668444 159.288889c32.199111 0 58.311111 24.746667 58.311112 55.182222V505.059556c-45.511111-40.049778-113.493333-65.479111-189.553778-65.479112-81.692444 0-154.112 29.297778-199.281778 74.524445v-313.742222c0-30.492444 26.168889-55.239111 58.311111-55.239111h272.213333zM327.338667 561.152c27.761778-49.322667 105.813333-84.821333 198.087111-84.821333 84.081778 0 156.444444 29.582222 189.553778 72.135111v1.479111c0 30.492444-26.168889 55.182222-58.311112 55.182222H384.455111c-28.16 0-51.598222-18.887111-57.116444-43.975111z m193.251555-176.867556c-42.951111 0-77.767111-32.938667-77.767111-73.614222 0-40.618667 34.816-73.614222 77.767111-73.614222s77.767111 32.995556 77.767111 73.614222c0 40.675556-34.816 73.671111-77.767111 73.671111z"  horiz-adv-x="1024" />
      
      <glyph glyph-name="lianjiebeifen4" unicode="&#59202;" d="M966.332632 658.512842l-179.065264 179.092211a57.263158 57.263158 0 0 1-81.111579-0.215579l-256.943157-256.862316a57.397895 57.397895 0 0 1-0.215579-81.192421l20.830315-37.106526 69.335579 69.308631c-11.048421 11.102316-11.129263 23.578947 0 34.681263l208.033685 207.97979 155.944421-155.944421-207.97979-207.97979c-11.102316-11.129263-23.578947-11.129263-34.681263 0L591.225263 340.884211l36.837053-20.614737a57.451789 57.451789 0 0 1 81.192421 0.188631l256.862316 256.889263c22.447158 22.366316 22.554947 58.691368 0.215579 81.165474zM556.544 306.283789l-52.008421-52.008421-17.327158-17.381052c11.668211-11.641263 11.722105-22.905263 0-34.627369l-207.952842-208.033684-156.106105 156.025263 208.033684 207.97979c11.722105 11.695158 22.986105 11.641263 34.627368 0l69.335579 69.308631-37.672421 20.345264a57.344 57.344 0 0 1-81.111579-0.215579L59.418947 190.787368a57.397895 57.397895 0 0 1-0.215579-81.111579l179.065264-179.065263a57.344 57.344 0 0 1 81.111579 0.215579l256.943157 256.862316a57.397895 57.397895 0 0 1 0.215579 81.111579l-19.994947 37.456842z m-208.033684-138.64421l398.659368 398.632421-52.008421 52.008421L296.474947 219.621053l52.008421-52.008421z"  horiz-adv-x="1024" />
      
      <glyph glyph-name="shouqizuijia" unicode="&#59192;" d="M113.777778 533.162667l2.56 7.168a49.777778 49.777778 0 0 0 44.487111 34.133333 49.948444 49.948444 0 0 0 46.933333-27.192889 49.038222 49.038222 0 0 0-6.656-54.499555l-4.835555-5.461334c36.864-22.584889 73.500444-44.828444 109.966222-67.299555 13.824-8.533333 27.648-17.066667 41.528889-25.372445 7.964444-4.664889 14.051556-3.299556 18.318222 4.437334 42.097778 76.686222 84.195556 153.372444 126.179556 230.115555-18.261333 9.272889-30.151111 23.495111-31.175112 44.487111a47.672889 47.672889 0 0 0 14.904889 37.660445 49.720889 49.720889 0 0 0 72.931556-4.096c20.935111-25.6 13.368889-55.637333-19.797333-78.222223 10.808889-19.854222 21.731556-39.765333 32.711111-59.562666l91.249777-166.286222c6.997333-12.856889 11.434667-13.994667 24.007112-6.542223 47.104 28.728889 94.151111 57.628444 141.255111 86.471111l6.826666 4.266667c-9.728 9.784889-15.928889 20.764444-16.668444 34.304a49.379556 49.379556 0 0 0 40.561778 51.768889 49.493333 49.493333 0 0 0 56.718222-34.702222c0.512-1.934222 1.308444-3.982222 2.048-5.859556v-17.066666c-7.964444-25.713778-24.462222-40.618667-52.736-40.789334-1.024-2.901333-2.104889-5.802667-2.901333-8.704l-82.716445-283.704889c-3.527111-12.401778-7.907556-15.587556-20.366222-15.587555H273.123556c-13.368889 0-17.464889 3.128889-21.048889 15.587555-22.528 76.686222-44.714667 153.6-67.128889 230.286223-6.030222 20.764444-12.231111 41.528889-18.318222 62.293333-21.105778 0-36.977778 8.362667-46.933334 26.567111-2.389333 4.437333-3.925333 9.443556-5.802666 14.222222C113.777778 521.898667 113.777778 527.530667 113.777778 533.162667z m396.856889-415.573334h222.435555c19.797333 0 35.612444-14.051556 37.774222-32.881777a37.148444 37.148444 0 0 0-37.831111-41.358223H288.028444a37.091556 37.091556 0 0 0-36.067555 25.372445c-5.12 15.246222-0.398222 32.540444 13.141333 41.301333a48.355556 48.355556 0 0 0 24.462222 7.509333c73.784889 0.398222 147.456 0 221.070223 0z"  horiz-adv-x="1024" />
      
      <glyph glyph-name="xianxingcaiwuguanli" unicode="&#59194;" d="M853.333333 570.581333H170.666667a85.333333 85.333333 0 0 1-85.333334-85.333333V42.666667a85.333333 85.333333 0 0 1 85.333334-85.333334h682.666666a85.333333 85.333333 0 0 1 85.333334 85.333334V485.248a85.333333 85.333333 0 0 1-85.333334 85.333333zM881.792 42.666667a28.458667 28.458667 0 0 0-28.458667-28.458667H170.666667A28.458667 28.458667 0 0 0 142.208 42.666667V485.248c0 15.744 12.757333 28.458667 28.458667 28.458667h682.666666a28.458667 28.458667 0 0 0 28.458667-28.458667V42.666667z m-256 223.018666h-85.333333V298.666667h66.56a28.458667 28.458667 0 0 1 0 56.874666h-27.904l40.96 42.112a28.586667 28.586667 0 1 1-40.96 39.808L512 368.64l-67.712 69.418667a28.586667 28.586667 0 1 1-40.96-39.850667l41.557333-42.666667h-27.904a28.458667 28.458667 0 1 1 0-56.874666h66.56v-33.578667h-85.333333a28.458667 28.458667 0 1 1 0-56.874667h85.333333v-99.541333a28.458667 28.458667 0 1 1 56.917334 0v100.096h85.333333a28.458667 28.458667 0 0 1 0 56.917333zM172.373333 630.314667h682.666667a28.458667 28.458667 0 0 1 0 56.917333h-682.666667a28.458667 28.458667 0 1 1 0-56.917333z m55.168 123.477333h568.917334a28.458667 28.458667 0 0 1 0 56.874667H227.541333a28.458667 28.458667 0 0 1 0-56.874667z"  horiz-adv-x="1024" />
      
      <glyph glyph-name="wenben2x" unicode="&#59182;" d="M592 187.968h-320v-55.936h320v55.936z m160 224h-480v-56h480v56.064z m0 224h-480v-56h480v56zM856 832H168a32 32 0 0 1-32-32v-832a32 32 0 0 1 32-32h688a32 32 0 0 1 32 32v832a32 32 0 0 1-32 32zM832-8H192V776h640v-784z"  horiz-adv-x="1024" />
      
      <glyph glyph-name="shuaxin2" unicode="&#59186;" d="M858.624 565.76c17.344-32.832 29.952-68.16 37.504-105.152a389.888 389.888 0 0 0-57.216-294.528 388.032 388.032 0 0 0-159.168-137.984 392.832 392.832 0 0 0-258.432-27.072 390.208 390.208 0 0 0-140.288 64.768l113.28 113.216-39.616 39.616-153.472-153.408 39.68-39.488a448.128 448.128 0 0 1 644.608 109.44 448.192 448.192 0 0 1 14.208 471.808l-41.088-41.152z m-189.12-19.648l153.408 153.408-39.68 39.488a448.128 448.128 0 0 1-644.8-109.44 447.808 447.808 0 0 1-14.208-471.552l41.152 41.216a393.856 393.856 0 0 0-38.784 255.296c9.6 51.456 29.312 100.096 58.496 144.192A388.608 388.608 0 0 0 344.32 736.832a392.704 392.704 0 0 0 258.496 27.072 390.208 390.208 0 0 0 140.416-64.896l-113.28-113.28 39.552-39.68z"  horiz-adv-x="1024" />
      
      <glyph glyph-name="xingming2x" unicode="&#59185;" d="M512 384m-512 0a512 512 0 1 1 1024 0 512 512 0 1 1-1024 0ZM529.088 238.65599999999995c0 23.744 4.864 46.336 13.632 66.88a48.576 48.576 0 0 0-8.704 24.768 69.76 69.76 0 0 0 1.28 18.176c1.536 9.92 4.672 17.024 9.472 21.12 4.736 4.224 10.88 9.216 18.432 15.232a39.424 39.424 0 0 1 8.64 11.648c2.56 4.928 4.864 10.048 6.848 15.168 1.92 5.952 3.968 12.352 5.888 19.072a30.656 30.656 0 0 1 11.328 6.528 39.424 39.424 0 0 1 8.64 11.648 54.784 54.784 0 0 1 5.056 19.904 47.168 47.168 0 0 1-0.32 16.128 36.992 36.992 0 0 1-3.904 10.752 20.48 20.48 0 0 1-6.528 7.68c0 16.32-0.96 32.448-3.008 48.32a272.64 272.64 0 0 1-10.112 43.84 124.8 124.8 0 0 1-22.592 41.984 90.88 90.88 0 0 1-18.112 16.704 150.528 150.528 0 0 1-26.496 14.912 175.552 175.552 0 0 1-31.808 10.432 155.328 155.328 0 0 1-34.176 3.904c-9.152 0-18.56-0.64-28.288-2.112a124.544 124.544 0 0 1-57.728-24.448c-9.344-6.976-17.792-16-25.28-27.136-8.32-11.52-14.592-24.64-18.752-39.36a281.344 281.344 0 0 1-11.072-86.464 37.888 37.888 0 0 1-7.68-12.544 55.232 55.232 0 0 1-3.328-14.336 41.792 41.792 0 0 1 2.688-18.432 46.976 46.976 0 0 1 14.848-23.872c2.816-1.92 5.568-3.328 8.32-4.16 1.92-6.784 4.032-13.12 5.952-19.072 1.92-5.12 4.224-10.24 6.528-15.232a36.48 36.48 0 0 1 8.32-11.584c6.784-5.568 12.928-11.072 18.432-16.448a33.28 33.28 0 0 0 9.6-21.76c0.32-6.4 0.576-12.16 0.576-17.28 0-5.248-1.024-10.176-3.008-14.976a49.6 49.6 0 0 0-9.6-14.336 89.984 89.984 0 0 0-19.008-14.912c-10.688-6.72-23.04-11.904-36.864-15.488-13.888-3.648-27.264-7.68-40.128-12.224a116.928 116.928 0 0 1-33.92-18.496c-9.728-7.68-15.616-18.944-17.536-33.664-3.968-25.792-4.864-46.848-2.688-63.232 2.176-16.256 5.248-25.984 9.216-29.248 2.368-1.984 8.064-3.968 17.28-5.888 9.088-1.92 20.224-4.032 33.28-5.952 12.992-1.92 27.648-3.84 43.712-5.76 16-1.728 32.256-3.328 48.448-4.736 16.256-1.408 32-2.496 47.232-3.328 15.36-0.832 28.672-1.152 40.128-1.152 11.52 0 25.024 0.32 40.704 1.152a1585.152 1585.152 0 0 1 111.36 9.856 171.648 171.648 0 0 0-75.2 141.824z m170.24 139.136a139.136 139.136 0 1 1 0-278.272 139.136 139.136 0 0 1 0 278.272z m76.672-160.32h-54.72v-55.488h-42.048v55.488h-55.488v42.048h55.488V314.24h42.048v-54.72h54.72v-42.048z"  horiz-adv-x="1024" />
      
      <glyph glyph-name="nicheng2x" unicode="&#59184;" d="M512 384m-512 0a512 512 0 1 1 1024 0 512 512 0 1 1-1024 0ZM765.44 235.968c-40.896 18.304-101.504 65.28-191.168 81.408 22.912 24.704 40.32 63.36 58.112 109.12 10.368 26.496 8.64 49.088 8.64 81.28 0 23.808 4.48 62.016-1.408 82.944-19.776 70.848-69.824 90.368-128.384 90.368-58.624 0-108.736-19.584-128.448-90.624-5.76-20.864-1.344-58.944-1.344-82.624 0-32.256-1.728-55.04 8.576-81.472 17.984-46.016 35.2-84.544 58.048-109.184-89.088-16.512-149.248-63.168-189.76-81.344-83.968-37.696-84.416-78.912-84.416-78.912v-70.016l676.224 0.064v69.952s-0.384 41.408-84.672 79.04z"  horiz-adv-x="1024" />
      
      <glyph glyph-name="mendian2x" unicode="&#59183;" d="M512 384m-512 0a512 512 0 1 1 1024 0 512 512 0 1 1-1024 0ZM356.352 329.088c9.088-0.128 19.2-0.128 30.336-0.128l1.92-1.6a84.288 84.288 0 0 1 108.224 1.408h31.04a84.352 84.352 0 0 1 109.44-0.192c10.304 0 20.864 0 31.616-0.128a84.032 84.032 0 0 1 76.672-17.088l-0.128-176.896a24.96 24.96 0 0 0-25.088-24.96l-417.472 0.128a25.088 25.088 0 0 0-25.152 25.024l0.128 177.088a84.288 84.288 0 0 1 78.464 17.344z m347.072-107.904H527.36v-32.96h176v32.96z m26.88 440a12.48 12.48 0 0 0 11.392-7.68l70.848-174.72 1.536-3.84a96.64 96.64 0 0 0-160.96-99.776l-0.32 0.32-4.224-4.224a96.704 96.704 0 0 0-60.416-25.984l-5.76-0.128a96.64 96.64 0 0 0-70.08 30.08L512 375.424l-4.224-4.224a96.704 96.704 0 0 0-60.416-25.984l-5.76-0.128a96.64 96.64 0 0 0-70.144 30.08L371.2 375.424l-4.224-4.224a96.704 96.704 0 0 0-60.416-25.984l-5.76-0.128a96.64 96.64 0 0 0-90.88 129.856L281.6 653.44c1.92 4.672 6.4 7.744 11.328 7.744h437.376z"  horiz-adv-x="1024" />
      
      <glyph glyph-name="xuanzeyuangong2x" unicode="&#59181;" d="M512 405.504a214.308571 214.308571 0 1 1 0 428.617143 214.308571 214.308571 0 0 1 0-428.617143zM409.161143 722.651429A144.603429 144.603429 0 0 0 512 765.293714c38.838857 0 75.410286-15.140571 102.838857-42.642285 27.428571-27.428571 42.642286-64 42.642286-102.912 0-38.765714-15.067429-75.337143-42.642286-102.838858A144.603429 144.603429 0 0 0 512 474.258286a144.164571 144.164571 0 0 0-102.838857 42.642285 144.603429 144.603429 0 0 0-42.642286 102.838858c0 38.912 15.067429 75.337143 42.642286 102.912z m452.242286-439.588572a211.382857 211.382857 0 0 1-149.942858 62.098286H312.539429a211.968 211.968 0 1 1 0-424.009143h398.921142a211.968 211.968 0 0 1 149.942858 361.910857z m-45.348572-254.537143c-27.940571-28.086857-65.097143-43.373714-104.594286-43.373714H312.539429c-39.497143 0-76.653714 15.36-104.594286 43.300571a146.944 146.944 0 0 0-43.373714 104.667429c0 39.497143 15.36 76.726857 43.300571 104.740571 28.013714 27.940571 65.097143 43.300571 104.667429 43.300572h398.921142c39.497143 0 76.653714-15.433143 104.594286-43.300572 28.086857-28.013714 43.373714-65.170286 43.373714-104.740571 0-39.497143-15.36-76.653714-43.300571-104.594286z"  horiz-adv-x="1024" />
      
      <glyph glyph-name="tiaohuanshunxu2x" unicode="&#59180;" d="M1011.876976 382.255462l-173.726876-165.367633a9.013445 9.013445 0 0 0-15.264705 6.542016v129.386544H548.556846v-289.011741h129.386544c7.85042 0 11.921007-9.449579 6.542016-15.192015L518.972395-125.114244a9.013445 9.013445 0 0 0-13.084033 0l-165.222255 173.654187a9.013445 9.013445 0 0 0 6.542016 15.192016h129.386544V352.671011h-276.218465v-129.386544c0-7.77773-9.449579-11.848318-15.192015-6.469327L11.602688 382.255462a9.013445 9.013445 0 0 0 0 13.084033l173.726877 165.294944a9.013445 9.013445 0 0 0 15.264704-6.542016v-129.386544h276.073087V704.122663h-129.386544a9.013445 9.013445 0 0 0-6.469327 15.192015l165.367633 173.726877a9.013445 9.013445 0 0 0 13.084033 0l165.294944-173.726877a9.013445 9.013445 0 0 0-6.542016-15.264704h-129.386544v-279.198717h274.473927v129.386544c0 7.85042 9.449579 11.848318 15.264705 6.469327l173.726876-165.367633c3.634453-3.634453 3.634453-9.449579-0.145378-13.084033z"  horiz-adv-x="1024" />
      
      <glyph glyph-name="haoyou" unicode="&#59177;" d="M825.984 145.6c-2.56 19.584-10.368 34.496-23.296 44.8a155.328 155.328 0 0 1-45.056 24.448 640.384 640.384 0 0 1-53.312 16.256 172.8 172.8 0 0 0-48.96 20.608 119.488 119.488 0 0 0-25.344 19.84c-5.76 6.4-10.048 12.608-12.608 19.008a50.368 50.368 0 0 0-4.032 19.84c0 6.848 0.32 14.528 0.832 23.04a44.16 44.16 0 0 0 12.672 28.8c7.36 7.232 15.488 14.464 24.448 21.888a48.512 48.512 0 0 1 11.072 15.36c3.072 6.72 6.08 13.44 8.704 20.288 2.56 7.872 5.248 16.32 7.872 25.28a38.528 38.528 0 0 1 11.008 5.568c3.2 2.56 6.592 6.272 10.24 11.072a62.336 62.336 0 0 1 9.472 20.608 55.552 55.552 0 0 1 3.648 24.512 73.408 73.408 0 0 1-4.416 19.008 50.304 50.304 0 0 1-10.24 16.64 373.632 373.632 0 0 1-14.656 114.88 167.04 167.04 0 0 1-24.96 52.288 146.56 146.56 0 0 1-33.536 36.032 165.44 165.44 0 0 1-76.672 32.448 249.472 249.472 0 0 1-73.728 0 165.44 165.44 0 0 1-76.672-32.448 146.56 146.56 0 0 1-33.6-36.032 167.04 167.04 0 0 1-24.896-52.288 373.632 373.632 0 0 1-14.656-114.88 50.304 50.304 0 0 1-10.24-16.64 73.408 73.408 0 0 1-4.416-19.008 55.552 55.552 0 0 1 3.648-24.512c2.56-8.96 5.76-15.808 9.408-20.608 3.712-4.8 7.04-8.448 10.24-11.072 3.712-2.56 7.424-4.48 11.072-5.568 2.56-8.96 5.312-17.408 7.872-25.28 2.56-6.912 5.632-13.568 8.704-20.224 3.2-6.592 6.848-11.776 11.072-15.424 8.96-7.424 17.088-14.72 24.448-21.824a44.16 44.16 0 0 0 12.672-28.928c0.512-8.448 0.832-16.128 0.832-23.04 0-6.848-1.28-13.44-4.032-19.776-2.56-6.4-6.848-12.672-12.608-19.008-5.76-6.4-14.272-12.992-25.344-19.84a172.8 172.8 0 0 0-48.96-20.608c-18.432-4.8-36.16-10.176-53.312-16.256a155.328 155.328 0 0 1-45.056-24.512c-12.928-10.24-20.672-25.152-23.296-44.736-5.248-34.24-6.464-62.208-3.584-83.968 2.88-21.568 7.04-34.56 12.288-38.848 3.2-2.688 10.752-5.248 22.912-7.872 12.16-2.56 26.88-5.248 44.16-7.808 17.344-2.624 36.8-5.184 58.112-7.616 21.312-2.368 42.88-4.48 64.32-6.4 21.632-1.856 42.56-3.2 62.784-4.352 20.224-1.088 37.824-1.6 52.992-1.6s32.768 0.512 52.992 1.6c20.224 1.088 41.152 2.496 62.72 4.416 21.568 1.92 43.072 3.968 64.384 6.4 21.312 2.368 40.768 4.928 58.048 7.552 17.344 2.56 32.128 5.248 44.224 7.808 12.16 2.56 19.776 5.184 22.912 7.872 5.312 4.288 9.408 17.28 12.288 38.848 2.88 21.76 1.664 49.728-3.584 83.968z"  horiz-adv-x="1024" />
      
      <glyph glyph-name="icon-fanhuishangyiji2" unicode="&#59179;" d="M925.742545 849.454545C954.321455 849.454545 977.454545 826.321455 977.454545 797.742545V-29.789091c0-28.578909-23.133091-51.712-51.712-51.712H98.210909A51.712 51.712 0 0 0 46.545455-29.742545V797.789091C46.545455 826.321455 69.678545 849.454545 98.257455 849.454545H925.789091zM930.909091 802.909091H93.090909v-837.818182h837.818182V802.909091zM469.131636 599.970909l28.718546-28.765091L333.870545 407.272727h428.590546v-46.452363H333.870545l163.979637-163.979637-28.718546-28.765091-187.252363 187.205819-14.382546 14.382545a20.386909 20.386909 0 0 0 0 28.858182l14.429091 14.336 187.205818 187.159273z"  horiz-adv-x="1024" />
      
      <glyph glyph-name="ns-arrow-right" unicode="&#59178;" d="M351.8 3l-45.2 45.2 339.6 339.1-339.1 338.5 45.2 45.2L714 409.8c12.5-12.5 12.5-32.7 0-45.2L351.8 3z"  horiz-adv-x="1024" />
      
      <glyph glyph-name="mendianyunyingfenxi" unicode="&#59166;" d="M927.9 463.5l-0.7 1.6c-0.7 3.5-2 6.8-3.9 9.8L807.8 764.6c-4.9 12.2-16.6 20.1-29.7 20.1H245.5c-13.1 0-24.9-8-29.7-20.1L100.2 474.9c-1.9-3-3.2-6.3-3.9-9.8l-0.7-1.6 0.4-0.1c-0.4-3.1-0.3-6.4 0.4-9.7 7.8-35.5 27.3-66.6 54.3-89.1v-319.8c0-33.1 27.4-60 61-60h600.1c33.7 0 61 26.9 61 60V364.5c27 22.5 46.5 53.6 54.3 89.1 0.7 3.3 0.8 6.5 0.4 9.7l0.4 0.2z m-666 265.3h499.9l107.9-270.2c-12.8-42.8-52.5-74.2-99.4-74.2-48.1 0-88.6 32.8-100.3 77.3-1 14.4-13.1 26.5-28.4 26.5h-0.4c-15.4 0-27.5-12-28.4-26.5-11.7-44.4-52.3-77.3-100.3-77.3-49.5 0-91 34.9-101.3 81.3-2.9 13.1-14.4 22.4-27.8 22.4h-0.6c-13.4 0-24.9-9.3-27.8-22.4-10.3-46.5-51.8-81.3-101.3-81.3-46.9 0-86.7 31.3-99.4 74.2l107.6 270.2z m554.9-684c0-2.2-2.3-4-5-4h-600c-2.7 0-5 1.8-5 4V334.3c14.8-4.5 30.4-6.9 46.6-6.9 53 0 100.2 25.8 129.4 65.6 29.3-39.7 76.4-65.6 129.4-65.6 52.7 0 99.6 25.5 128.9 64.9 29.3-39.4 76.2-64.9 128.9-64.9 16.2 0 31.9 2.4 46.6 6.9v-289.6h0.2zM682.7 289.3l-107-109-106 102c-12 11.5-30.5 11-42-0.5l-129-129c-11.5-11.5-11.5-30.5 0-42.5 6-6 13.5-9 21-9s15.5 3 21 9l108 108 106-102c12-11.5 30.5-11 42 0.5l128 130c11.5 12 11.5 31-0.5 42.5-11 12-30 11.5-41.5 0z"  horiz-adv-x="1024" />
      
      <glyph glyph-name="huiyuanguanli1" unicode="&#59167;" d="M525.9 390.6c-110.2 0-199.9 89.7-199.9 199.9s89.7 199.9 199.9 199.9 199.9-89.7 199.9-199.9-89.6-199.9-199.9-199.9z m0 340.8c-77.7 0-140.9-63.2-140.9-140.9s63.2-140.9 140.9-140.9 140.9 63.2 140.9 140.9-63.2 140.9-140.9 140.9zM136.7-17.2c-16.3 0-29.5 13.2-29.5 29.5C107.2 120 150 229.2 224.6 312c37.4 41.5 80.5 74.2 128.2 97.4 50.7 24.6 104.1 37.1 158.8 37.1 71.7 0 142.2-19 203.8-55 14.1-8.2 18.8-26.3 10.6-40.4-8.2-14.1-26.3-18.8-40.4-10.6-52.6 30.7-112.7 47-174 47-45.7 0-90.4-10.5-133.1-31.1-40.8-19.8-77.9-48-110.1-83.8-65-72.1-102.2-166.9-102.2-260.2 0-16.4-13.3-29.6-29.5-29.6zM694.6-17c-14.5 0-28.5 6.1-38.4 16.8-4.2 4.6-6.9 10.5-7.6 16.7l-24.3 214.9h-17.5c-16.3 0-29.5 13.2-29.5 29.5s13.2 29.5 29.5 29.5h43.9c15 0 27.6-11.3 29.3-26.2L703.1 60 867 300.2c9.2 13.5 27.5 16.9 41 7.7s16.9-27.5 7.7-41l-180-263.8c-0.8-1.2-1.7-2.3-2.7-3.4-9.8-10.6-23.8-16.7-38.4-16.7z"  horiz-adv-x="1024" />
      
      <glyph glyph-name="haoyouguanli" unicode="&#59171;" d="M543.2 388.6c-110.2 0-199.9 89.7-199.9 199.9S433 788.4 543.2 788.4s199.9-89.7 199.9-199.9-89.7-199.9-199.9-199.9z m0 340.8c-77.7 0-140.9-63.2-140.9-140.9s63.2-140.9 140.9-140.9 140.9 63.2 140.9 140.9-63.2 140.9-140.9 140.9zM153.9-19.3c-16.3 0-29.5 13.2-29.5 29.5 0 107.7 42.8 216.9 117.4 299.7 37.4 41.5 80.5 74.2 128.2 97.4 50.7 24.6 104.1 37.1 158.8 37.1 71.7 0 142.2-19 203.8-55 14.1-8.2 18.8-26.3 10.6-40.4-8.2-14.1-26.3-18.8-40.4-10.6-52.6 30.7-112.7 47-174 47-45.7 0-90.4-10.5-133.1-31.1-40.8-19.8-77.9-48-110.1-83.8-65-72.1-102.2-166.9-102.2-260.2 0-16.4-13.2-29.6-29.5-29.6zM780.9-15.1H653.7c-17.5 0-33.8 9.4-42.6 24.6l-63.6 110.1c-8.8 15.2-8.8 34 0 49.2l63.6 110.1c8.8 15.2 25.1 24.6 42.6 24.6h127.1c17.5 0 33.8-9.4 42.6-24.6L887 168.8c8.8-15.2 8.8-34 0-49.2l-63.6-110.1c-8.7-15.1-25-24.6-42.5-24.6zM653.7 255.5c-0.4 0-0.8-0.2-1-0.6l-63.6-110.1c-0.2-0.4-0.2-0.8 0-1.2l63.6-110.1c0.2-0.4 0.6-0.6 1-0.6h127.1c0.4 0 0.8 0.2 1 0.6l63.6 110.1c0.2 0.4 0.2 0.8 0 1.2l-63.6 110.1c-0.2 0.4-0.6 0.6-1 0.6H653.7z"  horiz-adv-x="1024" />
      
      <glyph glyph-name="xitongrizhi1" unicode="&#59173;" d="M757-26.6H629.9c-17.5 0-33.8 9.4-42.6 24.6l-63.6 110.1c-8.8 15.2-8.8 34 0 49.2l63.6 110.1c8.8 15.2 25.1 24.6 42.6 24.6H757c17.5 0 33.8-9.4 42.6-24.6l63.6-110.1c8.8-15.2 8.8-34 0-49.2L799.6-2c-8.8-15.2-25.1-24.6-42.6-24.6zM629.9 243.9c-0.4 0-0.8-0.2-1-0.6l-63.6-110.1c-0.2-0.4-0.2-0.8 0-1.2l63.5-110c0.2-0.4 0.6-0.6 1-0.6H757c0.4 0 0.8 0.2 1 0.6l63.6 110.1c0.2 0.4 0.2 0.8 0 1.2L758 243.4c-0.2 0.4-0.6 0.6-1 0.6H629.9zM480-32.1H249c-55.3 0-100.2 43.7-100.2 97.4V703.4c0 53.7 45 97.4 100.2 97.4h451.3c55.3 0 100.2-43.7 100.2-97.4v-345.1h-59V703.4c0 21.2-18.5 38.4-41.2 38.4H249c-22.7 0-41.2-17.2-41.2-38.4v-638.1c0-21.2 18.5-38.4 41.2-38.4h231v-59zM349.3 534.5c-16.2 0-29.4 13.1-29.5 29.3-0.1 16.3 13 29.6 29.3 29.7l251.4 1.7h0.2c16.2 0 29.4-13.1 29.5-29.3 0.1-16.3-13-29.6-29.3-29.7l-251.4-1.7h-0.2zM349.3 368c-16.2 0-29.4 13.1-29.5 29.3-0.1 16.3 13 29.6 29.3 29.7l251.4 1.7h0.2c16.2 0 29.4-13.1 29.5-29.3 0.1-16.3-13-29.6-29.3-29.7L349.5 368h-0.2zM349.3 202.7c-16.3 0-29.5 13.2-29.5 29.4 0 16.3 13.1 29.5 29.4 29.6l106.1 0.3h0.1c16.3 0 29.5-13.2 29.5-29.4 0-16.3-13.1-29.5-29.4-29.6l-106.2-0.3z"  horiz-adv-x="1024" />
      
      <glyph glyph-name="weixinyunyingfenxi" unicode="&#59174;" d="M196.7 150.4c-6.9 0-13.5 2.5-18.7 6.9-9.2 7.9-12.7 20.5-8.9 32.1l22.3 66.7-0.4 0.3c-29.6 22.8-54.2 50.7-73.3 83-22.8 38.9-34.9 83.3-35.1 128.4 0 38.7 8.8 76.2 26.1 111.5 17.1 34.5 40.6 64.7 69.9 89.6 60.6 52.2 140.8 81 225.7 81 154.5 0 287.4-96.5 316-229.4l0.9-4.4-56.8-12.7-1 4.4c-10.9 50.1-42.1 96.1-88 129.4-47.6 34.5-108.4 53.5-171 53.5-145.3 0-263.5-100.1-263.5-223.2 0-34.7 9.1-67.8 27.1-98.4 18.3-30.9 43.9-57.6 73.9-77.2 11.1-7.4 15.9-21.5 11.7-34.1l-5.3-15.8 31.2 17.5c4.3 2.4 9.2 3.7 14.1 3.7 3.3 0 6.5-0.5 9.6-1.6a301 301 0 0 1 100.4-17.2c7.1 0 14.3 0.3 21.4 0.8l4.5 0.3 3.8-58.9-4.5-0.4c-8.3-0.6-16.8-0.9-25.1-0.9-36.3 0-72.2 5.5-106.8 16.2l-0.3 0.1-85.7-47.6c-2.8-1.6-5.8-2.7-9-3.3l-0.6-0.1v-0.3l-4.6 0.1zM826.9 18.6l-0.5 0.1c-3.2 0.6-6.2 1.6-8.9 3.2l-74.1 41.3-0.3-0.1c-25.3-6.5-51.4-9.7-77.5-9.7h-0.3c-72.8 0-141.5 24.6-193.5 69.3-25.2 21.4-45.5 47.3-60.1 76.9-14.7 29.6-22.5 62.8-22.5 95.9 0 33.1 7.8 66.3 22.5 95.9 14.7 29.6 35 55.5 60.1 76.9 51.9 44.7 120.6 69.3 193.5 69.3 72.8 0 141.5-24.6 193.5-69.4 25.2-21.5 45.5-47.3 60.1-76.9 14.9-30.3 22.5-62.6 22.5-95.9 0-36-9.4-72.2-27.1-104.6-17-31.2-42-59.3-72.3-81.4l-0.4-0.3 17.4-52c3.9-11.5 0.4-24.1-8.8-32-5.3-4.4-11.9-6.9-18.7-6.9h-4.6v0.4zM747 124.3c5 0 9.8-1.3 14-3.7l18.8-10.5-0.6 1.7c-4.4 13.2 0.8 27.5 12.7 34.7 27 16 50.1 38.5 66.9 64.9 16.2 26.2 24.4 54.5 24.4 84.1 0 101-97.7 183.1-217.8 183.1-120.1 0-217.8-82.2-217.8-183.2 0-101 97.7-183.1 217.7-183.1 25 0 49.7 3.6 73.5 10.7 1.1 0.3 2.1 0.6 3.2 0.8l0.5 0.1v0.3l4.5 0.1zM492.9 509.2c-23 0-41.7 19-41.7 42.3v5.2h0.3c2.4 20.7 20 36.8 41.3 37 23.2-0.2 41.8-19.2 41.7-42.2 0-23.3-18.6-42.3-41.6-42.3zM300.6 509.2c-23 0-41.7 19-41.7 42.3-0.1 23.1 18.6 42.1 41.7 42.2 23.2-0.2 41.8-19.2 41.7-42.2 0.1-23.1-18.6-42.1-41.7-42.3zM749 320.8c-10.6 0.1-20.9 4.4-28.3 11.9-7.5 7.6-11.6 17.7-11.5 28.5v5.1h0.3c1.1 8.7 5 16.8 11.2 23.2 7.5 7.6 17.5 11.9 28.2 11.9 22.1-0.2 40-18.3 39.8-40.3 0.1-10.6-4-20.7-11.5-28.4-7.4-7.6-17.5-11.8-28.2-11.9z m-160.9 0c-10.7 0.1-20.7 4.3-28.3 12-7.5 7.6-11.6 17.7-11.5 28.5-0.1 10.6 4 20.7 11.5 28.3 7.5 7.6 17.5 11.9 28.3 11.9 22.1-0.2 40-18.3 39.8-40.3 0.1-10.6-4-20.7-11.5-28.4-7.5-7.7-17.5-11.9-28.3-12z"  horiz-adv-x="1024" />
      
      <glyph glyph-name="qiweiyunyingfenxi" unicode="&#59176;" d="M613.9 533.9l-107-109-106 102c-12 11.5-30.5 11-42-0.5l-129-129c-11.5-11.5-11.5-30.5 0-42.5 6-6 13.5-9 21-9s15.5 3 21 9l108 108 106-102c12-11.5 30.5-11 42 0.5l128 130c11.5 12 11.5 31-0.5 42.5-11 12-30 11.5-41.5 0zM662.3 147.9l-0.4 0.5c-3.4 4.2-2.9 10.3 1 13.9l0.1 0.1 0.1 0.1c1.8 2 4.1 3.1 6.7 3.1 2.6 0 5.2-1.1 7.3-3.2l5.1-5.1c22.4-23.2 51-38.6 82.7-44.7h0.4c0.3 0 0.5-0.1 0.9-0.2 0.5-0.2 1.2-0.4 2.2-0.4 0.3 0 0.5-0.1 0.9-0.2 0.5-0.2 1.1-0.4 2-0.4 8.8-2.4 16.9-7.1 23.4-13.5 19.3-19.1 19.3-50.5 0-70.2-9.1-9.5-21.2-14.8-34.1-14.8-13 0-25.3 5.2-34.6 14.8-6 6.1-9.9 12.9-12.7 22.2-0.6 1.8-1.1 3.5-1.1 5.2v0.3l-0.1 0.3c-0.6 1.6-0.6 2.6-0.6 4.5v0.4c-6 31.2-21 59.7-43.2 82.4l-0.2 0.2M820 109.6l-0.7-0.6c-2-1.5-4.3-2.3-6.6-2.3-1.9 0-4.7 0.6-7 3.3l-0.1 0.1-0.1 0.1c-1.9 1.7-3 4.1-3.1 6.6-0.1 2.8 1 5.6 3.2 7.8l5 5.1c22.9 23.1 38 52.3 43.9 84.3v0.4c0 0.3 0.1 0.5 0.2 0.9 0.2 0.5 0.4 1.3 0.4 2.3 0 0.3 0.1 0.6 0.2 1 0.2 0.5 0.3 1.1 0.4 1.9 2.4 8.9 7 17.2 13.3 23.9 9 9.5 21.1 14.7 34.1 14.7s25.3-5.2 34.6-14.8c19.3-19.1 19.3-50.6 0-70.2-6-6.1-12.7-10.1-21.8-13-1.7-0.6-3.5-1.2-5-1.2h-0.3l-0.3-0.1c-1.6-0.5-2.5-0.5-4.4-0.5h-0.4c-30.9-6.3-58.8-21.6-80.8-44.1l-0.2-0.2M850 252.2c-2.6 0-5.2 1.1-7.3 3.2l-5 5.1c-22.9 23.3-51.5 38.8-82.7 44.7h-0.4c-0.3 0-0.5 0.1-0.9 0.2-0.5 0.2-1.3 0.4-2.2 0.4-0.3 0-0.5 0.1-0.9 0.2-0.5 0.2-1.1 0.4-1.9 0.4-9.4 2.8-17.4 7.5-23.4 13.5-19.3 19.4-19.3 50.9 0 70.2 9.1 9.5 21.2 14.8 34.2 14.8 13 0 25.3-5.2 34.6-14.7 6-6.2 10.4-13.9 12.7-22.2v-0.2c0.6-1.7 1-3.4 1.1-5.2v-0.3l0.1-0.2c0.5-1.6 0.5-2.6 0.5-4.5v-0.4c6.1-31.2 21-59.6 43.3-82.3l0.2-0.2 3.4-2.8s-1.1 1.1 0 0l0.8-0.8 1.7-1.8c2.9-3.9 3.5-10-1-14l-0.1-0.1-0.1-0.1c-1.8-1.7-4.2-2.9-6.7-2.9zM616.6 158.8c-13 0-25.3 5.2-34.6 14.8-19.3 19.1-19.3 50.6 0 70.2 6 6.1 13.5 10.5 21.7 12.9l0.2 0.1c1.7 0.6 3.4 1.1 4.9 1.1h0.3l0.3 0.1c1.6 0.5 2.6 0.5 4.4 0.5h0.4c30.9 6.3 58.8 21.6 80.8 44.1l0.2 0.2 0.3 0.3c0.7 0.8 1.2 1.7 2.3 3l0.9 0.9c0.1 0.1 0.6 0.6 0.6 0.7 0.4 0.4 0.4 0.5 0.6 0.7l0.6 0.5 0.7 0.5c1.6 1.1 3.5 1.7 5.5 1.7 2.8 0 5.5-1.2 7.3-3.3l0.1-0.1 0.1-0.1c1.9-1.7 3-4 3.1-6.5 0.1-2.8-1-5.6-3.2-7.8l-5-5.1c-22.9-23.1-38-52.3-43.9-84.3v-0.4c0-0.3-0.1-0.5-0.2-1-0.2-0.5-0.4-1.3-0.4-2.3 0-0.3-0.1-0.5-0.2-0.9-0.2-0.5-0.4-1.1-0.4-2-2.4-8.9-7-17.2-13.3-23.9-9-9.4-21.1-14.6-34.1-14.6zM204.2 75.6c-4.6 0-9.2 1.2-13.1 3.6-8 4.9-13 13.7-13 23.1v2.6c0 0.1 0.1 0.3 0.2 0.5 0.2 0.6 0.4 1.4 0.5 2.3 0.3 0.8 0.5 1.5 0.8 2.2 0.3 0.8 0.6 1.7 1 2.7v0.1L185 130l14.7 62.7-0.9 0.8c-24.5 20.7-55.1 55.6-74.4 84.8-31.4 49.3-48 104.5-48 159.6 0.1 42.7 10 85.6 28.7 124 14.3 29.9 33.2 57 56.2 80.8 58.7 61.7 141 101.3 231.8 111.5 14.4 1.7 28.8 2.6 45.6 2.6 17 0 33-0.9 47.5-2.6 90-10.2 171.9-49.8 230.6-111.5 23-23.8 41.9-51 56.2-80.8 18.6-39.3 28.1-81 28.1-124 0-5.4 0-11.5-0.3-17.2-9.7 9.7-23 15.2-36.7 15.2-8.3 0-16.5-2-23.9-5.8 0.2 2.4 0.2 4.7 0.2 7.2 0 34.5-7.7 68-22.8 99.5-11.6 24.3-27 46.4-45.6 65.9-48.6 50.9-117.1 83.8-192.8 92.8-12.7 1.8-25.6 2.6-40.5 2.6-12 0-25.3-0.7-38.5-1.9-76.6-8.4-145.5-41.4-194.1-92.8-18.6-19.4-33.9-41.6-45.6-65.8-15.1-31.5-22.8-65.2-22.8-100.1 0.2-45.6 13.5-89.8 38.6-127.9 11-16.5 23.8-31.9 38-45.8 2-1.8 3.8-3.5 5.6-5.2 3.6-3.4 7.1-6.6 10.9-9.7 3.3-2.9 7-5.7 10.7-8.3 6.2-5.2 9.8-12.8 9.9-20.9 0-2.9-0.5-5.3-1.2-7.8-1.5-5.5-3.2-12-4.8-18.4-1.8-6.9-3.6-14.1-5.2-20.1-0.5-1.8-1-3.6-1.5-5.2-0.7-2.3-1.3-4.2-1.6-5.8l-2.6-10.4v-0.2c0-1.7 0.6-3.4 1.8-4.6 1.2-1.2 2.8-1.9 4.5-1.9h0.1c1.4 0 2.4 0.5 3.2 1 0.2 0.1 0.5 0.3 0.8 0.4h0.1l65.9 39.7c0.4 0.2 0.7 0.3 1 0.4 0.6 0.2 1.2 0.5 1.8 1 4.8 2.7 10.1 4.1 15.6 4.1h0.5c3.3 0 6.5-0.6 9.6-1.8h0.2c16.9-4.9 34.2-8.6 51.7-10.9l1.5-0.3c2.5-0.5 4.7-1 6.9-1 12.6-1.3 25.8-1.9 38.4-1.9 13.4 0 27.1 1.3 40.4 2.6 21.3 2.3 42.5 6.7 62.9 13.3-1-22 11.3-42.2 31.1-51.5-28.7-9.8-57.7-16.5-86.3-19.9-14.7-1.7-29.8-2.5-47.5-2.5h-2.8c-14.2 0-28.7 0.9-42.9 2.5-22.3 2.5-44.4 6.9-67.5 13.4l-0.8 0.2-105.3-53.6-0.2-0.3c-0.1-0.1-0.2-0.1-0.4-0.3-0.2-0.1-0.5-0.2-0.7-0.4h-0.5l-0.5-0.3c-3.9-2.4-8.4-3.6-12.9-3.6z"  horiz-adv-x="1024" />
      
      <glyph glyph-name="quanping" unicode="&#59165;" d="M893.504 320v-254.4H640L640.128 0H960V320h-66.496zM64 768v-320h66.496V702.4H384L383.872 768H64z"  horiz-adv-x="1024" />
      
      <glyph glyph-name="bofang" unicode="&#59164;" d="M753.3 596.7c-28.4 70.2-70.2 133.1-124.2 187l-59-59c91-91 141.1-212 141.1-340.7s-50.1-249.7-141.1-340.7l59-59c54 54 95.7 116.9 124.2 187 27.5 67.7 41.4 139.3 41.4 212.7 0 73.4-14 145-41.4 212.7zM498 652.7l-59-59c56-56 86.8-130.4 86.8-209.6S495 230.4 439 174.4l59-59c71.8 71.8 111.3 167.2 111.3 268.7 0 101.4-39.5 196.8-111.3 268.6zM229.3 384l137.6-137.6c76 76 76 199.2 0 275.2L229.3 384z"  horiz-adv-x="1024" />
      
      </font>
</defs>
</svg>
