<?xml version="1.0" standalone="no"?><!DOCTYPE svg PUBLIC "-//W3C//DTD SVG 1.1//EN" "http://www.w3.org/Graphics/SVG/1.1/DTD/svg11.dtd"><svg t="1617878533277" class="icon" viewBox="0 0 1024 1024" version="1.1" xmlns="http://www.w3.org/2000/svg" p-id="27231" xmlns:xlink="http://www.w3.org/1999/xlink" width="200" height="200"><defs><style type="text/css"></style></defs><path d="M858.624 330.24c17.344 32.832 29.952 68.16 37.504 105.152a389.888 389.888 0 0 1-57.216 294.528 388.032 388.032 0 0 1-159.168 137.984 392.832 392.832 0 0 1-258.432 27.072 390.208 390.208 0 0 1-140.288-64.768l113.28-113.216-39.616-39.616-153.472 153.408 39.68 39.488a448.128 448.128 0 0 0 644.608-109.44 448.192 448.192 0 0 0 14.208-471.808l-41.088 41.152z m-189.12 19.648l153.408-153.408-39.68-39.488a448.128 448.128 0 0 0-644.8 109.44 447.808 447.808 0 0 0-14.208 471.552l41.152-41.216a393.856 393.856 0 0 1-38.784-255.296c9.6-51.456 29.312-100.096 58.496-144.192A388.608 388.608 0 0 1 344.32 159.168a392.704 392.704 0 0 1 258.496-27.072 390.208 390.208 0 0 1 140.416 64.896l-113.28 113.28 39.552 39.68z" fill="#262626" p-id="27232"></path></svg>