<?xml version="1.0" encoding="utf-8"?>
<!-- Generator: Adobe Illustrator 23.0.4, SVG Export Plug-In . SVG Version: 6.00 Build 0)  -->
<svg version="1.1" xmlns="http://www.w3.org/2000/svg" xmlns:xlink="http://www.w3.org/1999/xlink" x="0px" y="0px"
	 viewBox="0 0 1024 1024" style="enable-background:new 0 0 1024 1024;" xml:space="preserve">
<style type="text/css">
	.st0{fill:none;}
</style>
<g id="keyline">
</g>
<g id="图层_2">
	<path d="M861.9,146.8l-229,0v56l144.4,0L665.6,314.6c-54.9-45.3-125.2-72.5-201.9-72.5h-0.1c-175.3,0-317.5,142.1-317.5,317.4
		c-0.1,175.4,142,317.6,317.4,317.6h0.1c175.3,0,317.5-142.1,317.5-317.4c0-78.5-28.4-150.4-75.6-205.8L822,237.4l0,149.4h56l0-224
		C877.9,154,870.8,146.8,861.9,146.8z M725.1,559.7c0,35.3-6.9,69.6-20.6,101.8c-13.2,31.1-32,59.1-56.1,83.1
		c-24,24-52,42.9-83.1,56.1c-32.2,13.6-66.4,20.5-101.8,20.5h-0.1c-35.3,0-69.6-6.9-101.8-20.6c-31.1-13.2-59.1-32.1-83.1-56.1
		c-24-24-42.9-52-56-83.2c-13.6-32.2-20.5-66.5-20.5-101.8s6.9-69.6,20.5-101.8c13.2-31.1,32.1-59.1,56.1-83.1
		c24-24,52-42.9,83.1-56c32.2-13.6,66.4-20.5,101.8-20.5h0.1c35.3,0,69.6,6.9,101.8,20.6c31.1,13.2,59.1,32,83.1,56.1
		c24,24,42.9,52,56,83.2C718.2,490.1,725.1,524.4,725.1,559.7z" fill="#0475F1"/>
</g>
</svg>
