<?xml version="1.0" encoding="UTF-8"?>
<svg width="22px" height="22px" viewBox="0 0 22 22" version="1.1" xmlns="http://www.w3.org/2000/svg" xmlns:xlink="http://www.w3.org/1999/xlink">
    <title>icon-fanhuishangyiji</title>
    <g id="icon-fanhuishangyiji" stroke="none" stroke-width="1" fill="none" fill-rule="evenodd">
        <path d="M19.8888889,1 C20.5025386,1 21,1.49746139 21,2.11111111 L21,19.8888889 C21,20.5025386 20.5025386,21 19.8888889,21 L2.11111111,21 C1.49746139,21 1,20.5025386 1,19.8888889 L1,2.11111111 C1,1.49746139 1.49746139,1 2.11111111,1 L19.8888889,1 Z M20,2 L2,2 L2,20 L20,20 L20,2 Z" id="矩形" fill="#595959"></path>
        <g id="方/箭头/线-左" transform="translate(4.000000, 4.000000)" fill="#595959">
            <path d="M6.07851562,2.35976563 L6.69648437,2.97773438 L3.17324219,6.50097656 L12.38125,6.50097656 L12.38125,7.49902344 L3.17324219,7.49902344 L6.69648437,11.0222656 L6.07851562,11.6402344 L2.05625,7.61796875 L1.74726563,7.30898437 C1.57636719,7.13808594 1.57636719,6.86054687 1.74726563,6.68964844 L2.05625,6.38066406 L6.07851562,2.35976563 Z" id="路径"></path>
        </g>
    </g>
</svg>