<?xml version="1.0" standalone="no"?><!DOCTYPE svg PUBLIC "-//W3C//DTD SVG 1.1//EN" "http://www.w3.org/Graphics/SVG/1.1/DTD/svg11.dtd"><svg class="icon" width="200px" height="200.00px" viewBox="0 0 1024 1024" version="1.1" xmlns="http://www.w3.org/2000/svg"><path d="M512 512m-510.272 0a510.272 510.272 0 1 0 1020.544 0 510.272 510.272 0 1 0-1020.544 0Z" fill="#C3E9FF" /><path d="M697.152 617.984a183.36 183.36 0 0 1-181.504 175.872c-94.784 0.32-169.728-53.12-188.544-140.864v-0.064s-4.736-13.568-3.072-40.128l0.192-2.88v-0.192l0.256-3.072 0.32-3.072v-0.384l0.32-3.136v-0.256l0.448-3.264v-0.448c0.32-0.896 0.448-1.92 0.64-2.816l0.128-1.088 0.512-3.072 0.128-0.64 0.512-2.944 0.256-1.344 0.512-2.432 0.256-1.344 0.64-2.688 0.384-1.92 0.512-2.048 0.512-2.112 0.576-2.24 0.576-2.176 0.64-2.368 0.576-2.176 0.64-2.304 0.64-2.176 0.704-2.496 0.704-2.24 0.704-2.432c11.392-35.84 34.496-85.632 72-139.584 16.256-0.96 31.744 3.712 46.72 11.712-4.032 62.016-8.576 172.032 16.064 224.256 0.064 0 157.056 4.864 226.048-29.44z" fill="#006FD3" /><path d="M520.768 286.592c88.32-42.432 202.624-9.024 249.28 78.208 71.232 133.056-48.512 228.544-48.512 228.672-47.744 51.968-210.88 50.432-244.608 46.528a95.744 95.744 0 0 1-12.8-43.328c54.464-21.376 139.584-66.688 193.6-129.792-0.064-0.064-76.224-132.928-136.96-180.288z" fill="#006FD3" /><path d="M316.032 609.728c-87.424-53.44-108.608-177.472-56.64-256.384 54.016-81.984 162.688-116.736 250.752-64.896 42.88 25.152 124.608 148.48 136.256 175.424 0 0-6.016 16.128-35.328 39.168-52.608-41.792-149.376-93.952-203.84-101.76 0 0-84.288 115.136-91.2 208.448z" fill="#006FD3" /><path d="M689.408 621.504c-41.024 17.664-124.544 28.544-218.304 25.92 47.936 110.336 199.04 124.544 218.304-25.92zM316.608 602.944c1.344-25.984 20.672-101.376 90.624-201.664-120.448-12.224-204.864 115.904-90.624 201.664zM526.208 291.008c25.344 21.888 70.016 70.848 131.52 175.808 69.056-94.592 2.048-225.856-131.52-175.808z" fill="#59A3E9" /></svg>