<?xml version="1.0" standalone="no"?><!DOCTYPE svg PUBLIC "-//W3C//DTD SVG 1.1//EN" "http://www.w3.org/Graphics/SVG/1.1/DTD/svg11.dtd"><svg class="icon" width="200px" height="200.00px" viewBox="0 0 1024 1024" version="1.1" xmlns="http://www.w3.org/2000/svg"><path d="M896.777969 958.12364H667.694503l16.723893-37.741579c5.013177-11.313673 7.554046-23.339568 7.554047-35.745109 0-48.722678-39.639812-88.36556-88.366584-88.36556-48.724725 0-88.364537 39.641859-88.364537 88.36556 0 12.409634 2.540869 24.435529 7.553023 35.741016l16.73208 37.745672H297.525766c-35.381835 0-64.166415-28.783557-64.166416-64.164368V727.464283a141.937686 141.937686 0 0 1-26.137287 2.438539c-78.347392 0-142.086066-63.73765-142.086065-142.086066 0-78.345346 63.739696-142.082996 142.086065-142.082995 8.769734 0 17.529235 0.823761 26.137287 2.439561v-153.46523c0-35.382858 28.78458-64.167438 64.166416-64.167439h165.350932a142.809543 142.809543 0 0 1-1.353835-19.696597c0-78.347392 63.73765-142.087089 142.082996-142.087089 78.347392 0 142.087089 63.739696 142.087089 142.087089 0 6.638187-0.452301 13.210883-1.354857 19.696597H896.777969c35.381835 0 64.165392 28.78458 64.165391 64.167439v231.839229l-38.477336-18.454304c-11.951193-5.732561-24.788569-8.638751-38.154995-8.638751-48.726771 0-88.36863 39.640836-88.36863 88.366583 0 48.722678 39.641859 88.363514 88.36863 88.363514 13.368472 0 26.206872-2.90619 38.154995-8.636704l38.477336-18.454304v244.867963c0.001023 35.378765-28.782533 64.162322-64.165391 64.162322z m-152.449088-53.719482H896.777969c5.759167 0 10.44591-4.685719 10.445909-10.444886V728.07622a143.287427 143.287427 0 0 1-22.912849 1.825579c-78.347392 0-142.089136-63.73765-142.089135-142.082996 0-78.347392 63.74072-142.086066 142.089135-142.086066 7.752568 0 15.399735 0.610914 22.912849 1.825578v-152.851246c0-5.761214-4.686742-10.447956-10.445909-10.447957H667.751808L684.441932 246.532883c4.996804-11.293207 7.529487-23.301705 7.529487-35.688827 0-48.725748-39.639812-88.366583-88.366583-88.366584-48.724725 0-88.364537 39.640836-88.364537 88.366584 0 12.385075 2.533706 24.39255 7.53051 35.691897l16.683985 37.724183H297.525766c-5.760191 0-10.44591 4.686742-10.44591 10.447956v235.013525l-39.235606-20.367887c-12.655228-6.568602-26.322505-9.900487-40.621163-9.900487-48.724725 0-88.366583 39.640836-88.366584 88.363513 0 48.724725 39.640836 88.366583 88.366584 88.366584 14.297634 0 27.964912-3.330862 40.622186-9.901511l39.234583-20.364817v248.043283c0 5.759167 4.685719 10.444886 10.44591 10.444886H462.885907a142.976342 142.976342 0 0 1-1.363044-19.766182c0-78.346369 63.73765-142.085042 142.082996-142.085043 78.347392 0 142.087089 63.738673 142.087089 142.085043 0 6.661723-0.456395 13.258978-1.364067 19.765159z" /></svg>
