<?xml version="1.0" standalone="no"?><!DOCTYPE svg PUBLIC "-//W3C//DTD SVG 1.1//EN" "http://www.w3.org/Graphics/SVG/1.1/DTD/svg11.dtd"><svg class="icon" width="200px" height="200.00px" viewBox="0 0 1024 1024" version="1.1" xmlns="http://www.w3.org/2000/svg"><path d="M511.97497 1024a511.97497 511.97497 0 1 1 501.564812-615.16637c3.128736 15.188591 5.347294 30.661612 7.053878 46.305292 0 1.535925 0.568861 3.014964 0.739519 4.550889 1.706583 17.065832 2.616761 34.64364 2.616761 52.335219a511.97497 511.97497 0 0 1-511.97497 511.97497zM511.97497 56.936168a455.088862 455.088862 0 1 0 455.088862 455.088862 455.088862 455.088862 0 0 0-455.088862-455.088862z m79.640551 687.809929H310.655035v-64.16753h278.173067q146.254183 0 146.254183-125.149437 0-120.939865-141.589522-120.939865h-119.460827v91.017772L232.37975 402.348614l241.652186-123.158423v91.017772h110.131505q206.781002 0 206.724116 191.137322 0.341317 183.400812-199.272036 183.400812z"  /></svg>
