<?xml version="1.0" standalone="no"?><!DOCTYPE svg PUBLIC "-//W3C//DTD SVG 1.1//EN" "http://www.w3.org/Graphics/SVG/1.1/DTD/svg11.dtd"><svg class="icon" width="200px" height="200.00px" viewBox="0 0 1024 1024" version="1.1" xmlns="http://www.w3.org/2000/svg"><path d="M512 512m-510.272 0a510.272 510.272 0 1 0 1020.544 0 510.272 510.272 0 1 0-1020.544 0Z" fill="#C3E9FF" /><path d="M479.104 330.688c18.88 0 31.808 3.52 38.656 10.496s10.24 20.032 10.24 38.848v313.856c0 15.744-3.136 27.136-9.408 34.112s-17.408 10.56-33.152 10.56H324.608a130.368 130.368 0 0 1-23.424-1.792c-6.144-1.28-10.944-3.712-14.464-7.36s-5.952-8.896-7.36-15.552a136.064 136.064 0 0 1-2.112-26.24V380.032c0-9.088 0.704-16.832 2.112-23.104a31.296 31.296 0 0 1 7.68-15.232 32.64 32.64 0 0 1 14.72-8.384c6.144-1.728 13.76-2.624 22.848-2.624h58.368v-53.056c0-8.064 1.6-13.056 4.992-14.976a30.592 30.592 0 0 1 14.976-2.944c6.336 0 11.328 1.216 14.976 3.456 3.648 2.304 5.504 7.104 5.504 14.528v53.056h55.68z m267.584 276.48a170.944 170.944 0 0 1-5.312 39.424 92.992 92.992 0 0 1-13.888 30.656c-6.144 8.576-13.888 15.36-23.168 20.224a68.864 68.864 0 0 1-32.832 7.36c-8.384 0-17.856-1.28-28.352-3.712s-21.888-5.952-34.176-10.496a51.328 51.328 0 0 1-8.384-4.736v59.392c0 6.976-1.856 11.968-5.568 14.72a23.872 23.872 0 0 1-14.912 4.16c-7.04 0-12.288-1.344-15.808-3.968s-5.248-7.616-5.248-14.976V336.512c0-16.896 3.52-28.864 10.496-36.032 7.04-7.168 18.048-10.752 33.152-10.752h93.568c6.336 0 12.032 1.216 17.152 3.712a33.92 33.92 0 0 1 12.288 9.664c3.136 4.032 5.12 8.704 5.76 13.952a31.552 31.552 0 0 1-2.624 16.832l-44.096 112.512c-4.16 11.2-6.272 19.008-6.016 23.36a18.24 18.24 0 0 0 6.016 12.352c22.464 22.464 38.464 44.032 48.128 64.896 9.536 20.8 14.144 40.896 13.824 60.16z m-146.112 45.696a12.928 12.928 0 0 1 9.92-4.736 42.24 42.24 0 0 1 14.272 3.2c18.176 6.976 33.92 11.072 47.232 12.032a20.48 20.48 0 0 0 13.696-3.904 38.848 38.848 0 0 0 10.752-12.096 76.16 76.16 0 0 0 7.36-17.6c1.92-6.656 2.944-13.568 2.944-20.48 0.32-15.424-4.032-31.68-12.928-48.896s-22.144-34.688-39.616-52.544c-10.88-10.88-16.704-21.568-17.344-32.064s1.92-22.912 7.872-37.312l40.512-99.392c2.816-6.656 1.216-9.92-4.736-9.92H608.448c-5.248 0-7.872 3.84-7.872 11.584v312.128z m-283.904 34.688c0 6.976 2.304 10.56 6.848 10.56h59.392V540.352H316.672v147.2z m163.52 10.56c5.568 0 8.384-3.584 8.384-10.56v-147.2H423.424v157.76h56.768zM323.584 370.112c-4.544 0-6.848 3.136-6.848 9.408v121.92h66.304V370.112h-59.456z m99.84 0v131.392h65.152V379.584a11.008 11.008 0 0 0-2.112-6.848c-1.408-1.664-3.52-2.56-6.272-2.56h-56.768z" fill="#006FD3" /></svg>