<?xml version="1.0" standalone="no"?><!DOCTYPE svg PUBLIC "-//W3C//DTD SVG 1.1//EN" "http://www.w3.org/Graphics/SVG/1.1/DTD/svg11.dtd"><svg class="icon" width="200px" height="200.00px" viewBox="0 0 1024 1024" version="1.1" xmlns="http://www.w3.org/2000/svg"><path d="M1.728 512A510.272 510.272 0 0 0 512 1022.272 510.272 510.272 0 1 0 1.728 512z" fill="#C3E9FF" /><path d="M512.512 280.192c154.688 0 280.064 102.208 280.064 227.136 0 69.76-37.888 134.08-104.896 177.344 15.104 35.136 41.6 64.32 75.136 82.112l28.096 15.168-32.448 2.176c-6.976 0.512-14.656 0.512-21.632 0.512a378.88 378.88 0 0 1-94.656-12.416 352.896 352.896 0 0 1-94.656-40c-11.904 1.088-24.32 2.176-36.224 2.176-154.624 0-280.064-102.272-280.064-227.136 1.216-124.864 127.232-227.072 281.28-227.072z" fill="#006FD3" /><path d="M415.808 571.456l-2.944-73.408-1.024-29.248-7.68 19.904-17.536 44.096H368l-15.872-44.096-6.656-19.904-0.896 28.672-2.624 73.984h-25.344l7.808-129.664h33.6l13.952 36.8 6.656 20.672 6.656-19.52 14.656-38.016h34.304l7.872 129.664h-26.304zM552.128 571.456l-2.88-73.408-1.088-29.248-7.68 19.904-17.536 44.096H504.32l-15.872-44.096-6.656-19.904-0.832 28.672-2.688 73.984h-25.28l7.744-129.664h33.664l13.888 36.8 6.656 20.672 6.656-19.52 14.72-38.016h34.24l7.872 129.664h-26.304zM707.392 532.16c0 7.104-1.536 13.248-4.736 18.496s-7.68 9.472-13.376 12.928c-5.76 3.392-12.544 5.952-20.48 7.552a126.336 126.336 0 0 1-25.92 2.496c-8.256 0-16.32-0.384-24.064-1.216s-15.488-2.048-23.04-3.84v-24.128a217.728 217.728 0 0 0 35.904 7.04c4.032 0.32 8 0.576 11.776 0.576 5.696 0 10.432-0.384 14.464-1.216a34.688 34.688 0 0 0 9.664-3.328 12.032 12.032 0 0 0 7.104-11.264 10.688 10.688 0 0 0-3.328-8 31.36 31.36 0 0 0-8.832-5.696 83.584 83.584 0 0 0-12.352-4.48 1077.248 1077.248 0 0 1-14.208-4.224c-4.8-1.536-9.536-3.2-14.144-5.184s-8.768-4.288-12.416-7.104-6.528-6.272-8.768-10.176-3.328-8.704-3.328-14.272c0-5.056 1.152-9.856 3.392-14.464s5.888-8.576 10.688-11.968a56.32 56.32 0 0 1 18.624-8.128c7.616-2.048 16.768-3.072 27.52-3.072a176.512 176.512 0 0 1 29.632 2.56l8.576 1.536v22.336a136.064 136.064 0 0 0-37.184-5.44c-5.312 0-9.728 0.32-13.376 1.024a33.408 33.408 0 0 0-8.96 2.944 11.712 11.712 0 0 0-5.056 4.48 11.072 11.072 0 0 0-1.6 5.952c0 2.752 1.088 5.056 3.328 6.976 2.176 1.92 5.12 3.712 8.832 5.248s7.808 3.008 12.48 4.352l14.272 4.352c4.864 1.472 9.664 3.328 14.336 5.312 4.608 1.92 8.768 4.352 12.416 7.232a27.84 27.84 0 0 1 12.16 23.808z" fill="#ffffff" /></svg>