<?xml version="1.0" standalone="no"?><!DOCTYPE svg PUBLIC "-//W3C//DTD SVG 1.1//EN" "http://www.w3.org/Graphics/SVG/1.1/DTD/svg11.dtd"><svg class="icon" width="200px" height="200.00px" viewBox="0 0 1024 1024" version="1.1" xmlns="http://www.w3.org/2000/svg"><path d="M1.728 512a510.272 510.272 0 1 0 1020.608 0A510.272 510.272 0 0 0 1.728 512z" fill="#C3E9FF" /><path d="M711.168 349.824h-13.44v253.888H343.424v13.376c0 49.088 32.064 71.296 71.232 71.296h254.08l113.664 112.832v-380.16a70.4 70.4 0 0 0-71.232-71.232z" fill="#59A3E9" /><path d="M636.544 574.016c15.488 0 28.16-12.736 28.16-28.224V334.848c0-35.712-22.464-71.232-71.232-71.232H312.832c-40.256 0-71.232 35.136-71.232 71.232v352l112.896-112.832h282.048z" fill="#006FD3" /><path d="M308.288 492.352l73.92-95.04 52.8 63.488 73.92-95.104 95.04 126.656z" fill="#ffffff" /></svg>