<?xml version="1.0" standalone="no"?><!DOCTYPE svg PUBLIC "-//W3C//DTD SVG 1.1//EN" "http://www.w3.org/Graphics/SVG/1.1/DTD/svg11.dtd"><svg class="icon" width="200px" height="200.00px" viewBox="0 0 1024 1024" version="1.1" xmlns="http://www.w3.org/2000/svg"><path d="M512 512m-510.272 0a510.272 510.272 0 1 0 1020.544 0 510.272 510.272 0 1 0-1020.544 0Z" fill="#FFED9E" /><path d="M782.464 494.464l-0.128-3.136a81.664 81.664 0 0 0-81.536-77.504H506.24c-43.008 0-78.272 33.28-81.472 75.456l-0.128 2.048-0.064 2.048v196.672a89.472 89.472 0 0 0 1.024 13.056l0.32 1.792 0.256 1.344 0.576 2.688a8.32 8.32 0 0 0 0.32 1.344v0.064l0.96 3.264 0.448 1.6 0.512 1.536 0.576 1.408a5.888 5.888 0 0 0 0.576 1.472 81.728 81.728 0 0 0 76.096 52.224h194.496c39.04 0 71.744-27.52 79.808-64.192l0.256-1.344 0.768-4.096 0.192-1.92 0.512-3.968c0.128-2.048 0.192-4.096 0.192-6.272v-194.56-1.024z" fill="#F7A500" /><path d="M498.944 382.336h100.48v-48.384c0-45.056-36.544-81.6-81.664-81.6H323.2c-45.056 0-81.6 36.544-81.664 81.6v194.56c0 44.992 36.608 81.6 81.6 81.6h70.592V487.552c0-58.112 47.104-105.216 105.216-105.216z" fill="#fbc94f" /></svg>