<?xml version="1.0" standalone="no"?><!DOCTYPE svg PUBLIC "-//W3C//DTD SVG 1.1//EN" "http://www.w3.org/Graphics/SVG/1.1/DTD/svg11.dtd"><svg class="icon" width="200px" height="200.00px" viewBox="0 0 1024 1024" version="1.1" xmlns="http://www.w3.org/2000/svg"><path d="M521.55733333 1006.25066667C256.884736 1006.25066667 42.32533333 791.691264 42.32533333 527.01866667S256.884736 47.78666667 521.55733333 47.78666667s479.232 214.55940267 479.232 479.232-214.55940267 479.232-479.232 479.232z m0-884.736c-223.95835733 0-405.504 181.54564267-405.504 405.504S297.598976 932.52266667 521.55733333 932.52266667 927.06133333 750.977024 927.06133333 527.01866667 745.51569067 121.51466667 521.55733333 121.51466667z m144.883712 489.11701333v0.049152c20.92782933 0 39.436288 13.47310933 39.436288 32.800768 0 16.43861333-18.50845867 30.88384-39.436288 30.88384h-109.89841066v74.989568c0 16.416768-14.78929067 35.71165867-39.452672 35.71165867-22.17847467 0-40.67601067-19.33312-40.67601067-35.71165867V674.36544H375.48305067c-20.96605867 0-38.24571733-14.483456-38.24571734-32.833536 0-17.383424 17.27965867-30.851072 38.24571734-30.851072h100.93090133v-59.768832H375.48305067c-20.96605867 0-38.24571733-12.550144-38.24571734-32.817152 0-16.416768 17.27965867-29.933568 38.24571734-29.933568h71.319552L373.88288 359.11543467c-6.914048-15.93070933-2.048-40.337408 15.82148267-49.21207467 19.20750933-9.55733333 39.829504-0.90112 49.69813333 12.582912l78.95995733 137.66382933 81.77800534-122.34478933c9.846784-14.47253333 31.5392-34.23709867 57.50784-18.251776 27.312128 16.81544533 10.11985067 50.184192 10.11985066 50.184192l-79.14018133 118.36893867h68.90018133c20.94967467 0 39.452672 13.5168 39.452672 31.89418666 0 18.35554133-18.50299733 30.867456-39.452672 30.867456h-100.94728533v59.75790934h109.86018133z" /></svg>
