<?xml version="1.0" standalone="no"?><!DOCTYPE svg PUBLIC "-//W3C//DTD SVG 1.1//EN" "http://www.w3.org/Graphics/SVG/1.1/DTD/svg11.dtd"><svg class="icon" width="200px" height="199.80px" viewBox="0 0 1025 1024" version="1.1" xmlns="http://www.w3.org/2000/svg"><path d="M144.10075093 693.45402987h107.16021654v50.884976H144.10075093v-50.884976z"  /><path d="M920.4027712 194.47184747H242.69449173c-50.95604373 0-92.41078933 39.39376213-92.41078933 87.791344v58.47289386h-30.80541867c-50.9615104 0-92.416256 39.39376213-92.416256 87.79134294v409.56173333c0 48.3647808 41.4547456 87.75854293 92.416256 87.75854187h646.90285974c50.95604373 0 92.416256-39.39376213 92.41625706-87.75854187h61.61083734c50.95604373 0 92.41078933-39.41016213 92.41078933-87.791344V282.26319147c0-48.39758187-41.4547456-87.79134293-92.416256-87.791344z m-123.22167573 643.61731413c0 16.09972587-13.8474048 29.22004693-30.80541867 29.22004587H119.47828373c-17.00174827 0-30.80541867-13.11485333-30.80541866-29.22004587v-263.2920288h708.51369706v263.2920288z m0-321.8195904H88.6673984v-87.74214293c0-16.17079467 13.8036704-29.23644693 30.80541867-29.23644694h646.90285973c16.95801387 0 30.80541867 13.07111893 30.80541867 29.23644694v87.74214293z m154.0270944 234.03371307c0 16.15986133-13.8474048 29.23644693-30.80541867 29.23644693h-61.6108384V428.52742827c0-48.39758187-41.46021227-87.79134293-92.416256-87.79134294H211.88907307V282.26319147c0-16.165328 13.8036704-29.285648 30.80541866-29.28564907h677.71374614c16.95801387 0 30.80541867 13.12032 30.80541866 29.28564907v468.0400928h-0.00546666z m0 0"  /></svg>
