<?xml version="1.0" standalone="no"?><!DOCTYPE svg PUBLIC "-//W3C//DTD SVG 1.1//EN" "http://www.w3.org/Graphics/SVG/1.1/DTD/svg11.dtd"><svg class="icon" width="200px" height="200.00px" viewBox="0 0 1024 1024" version="1.1" xmlns="http://www.w3.org/2000/svg"><path d="M799.3 224.5c52.9 0 96 43.1 96 96v512c0 52.9-43.1 96-96 96h-448c-52.9 0-96-43.1-96-96v-512c0-52.9 43.1-96 96-96h448m0-32h-448c-70.7 0-128 57.3-128 128v512c0 70.7 57.3 128 128 128h448c70.7 0 128-57.3 128-128v-512c0-70.6-57.3-128-128-128z"  /><path d="M223.3 799.5c-52.9 0-96-43.1-96-96v-512c0-52.9 43.1-96 96-96h448c52.9 0 96 43.1 96 96v1.1h32v-1.1c0-70.7-57.3-128-128-128h-448c-70.7 0-128 57.3-128 128v512c0 70.7 57.3 128 128 128v-32z"  /><path d="M410 432.5h358v32H410z"  /><path d="M384 432.5h32v32h-32zM410 560.5h358v32H410z"  /><path d="M384 560.5h32v32h-32zM410 688.5h294v32H410z"  /><path d="M384 688.5h32v32h-32z"  /></svg>
