<?xml version="1.0" standalone="no"?><!DOCTYPE svg PUBLIC "-//W3C//DTD SVG 1.1//EN" "http://www.w3.org/Graphics/SVG/1.1/DTD/svg11.dtd"><svg class="icon" width="200px" height="198.45px" viewBox="0 0 1032 1024" version="1.1" xmlns="http://www.w3.org/2000/svg"><path d="M507.623635 1015.72325A503.723168 503.723168 0 0 1 516.376857 8.276915h8.918378a503.723168 503.723168 0 0 1-8.588067 1007.446335z" fill="#FFFFFF" /><path d="M516.376857 0.019158v16.515514h8.753223A495.465411 495.465411 0 0 1 516.376857 1007.465493h-8.753222A495.465411 495.465411 0 0 1 516.376857 16.534672V0.019158m0 0a511.980925 511.980925 0 0 0-8.753222 1023.961849H516.376857a511.980925 511.980925 0 0 0 8.753223-1023.961849z" fill="#DCDFE6" /><path d="M689.294286 449.571441a173.412894 173.412894 0 0 0-345.834857 0v13.542721a172.587118 172.587118 0 0 0 23.286874 86.871602l21.139858 29.397614L516.376857 734.959517l128.986162-155.576139 21.139858-29.397614A172.587118 172.587118 0 0 0 689.789751 462.453541v-13.542721zM516.376857 532.644475A69.365158 69.365158 0 0 1 447.0117 462.453541a72.33795 72.33795 0 0 1 1.321241-13.542721 69.365158 69.365158 0 0 1 136.087833 0 73.824346 73.824346 0 0 1 1.321241 13.542721 69.365158 69.365158 0 0 1-69.365158 70.190934z m0 0" fill="#0091FA" /></svg>