<?xml version="1.0" standalone="no"?><!DOCTYPE svg PUBLIC "-//W3C//DTD SVG 1.1//EN" "http://www.w3.org/Graphics/SVG/1.1/DTD/svg11.dtd"><svg class="icon" width="200px" height="200.00px" viewBox="0 0 1024 1024" version="1.1" xmlns="http://www.w3.org/2000/svg"><path d="M1.728 512a510.272 510.272 0 1 0 1020.544 0A510.272 510.272 0 1 0 1.728 512z" fill="#ACFFE5" /><path d="M548.288 537.792a42.88 42.88 0 0 1-5.312-17.216 61.312 61.312 0 0 1 0-23.168 169.6 169.6 0 0 0 64.576-149.632c0-46.336-26.944-127.04-107.712-127.04h-5.312A115.712 115.712 0 0 0 386.496 343.68l0.32 4.096a181.952 181.952 0 0 0 61.952 149.632 39.552 39.552 0 0 1 8.064 25.856 25.408 25.408 0 0 1-10.752 14.528c-34.496 28.48-158.272 59.776-166.4 123.776-5.376 25.856-43.008 68.928 80.768 86.72 46.976 7.36 94.592 10.88 142.144 10.752 24.192 0 40.704 0.32 60.16-0.96 42.112-2.624-40.832-45.376-52.672-73.664-13.888-33.216 127.68-99.392 101.952-113.664-25.216-14.08-50.496-22.784-63.744-32.96z" fill="#56dba6" /><path d="M783.488 535.936c41.28 140.224-38.08 173.824-133.824 173.824v41.6a8.064 8.064 0 0 1-2.304 5.568 7.552 7.552 0 0 1-10.688-0.192l-91.264-71.616-0.064-0.128a7.488 7.488 0 0 1 0.064-10.624l91.264-71.36a7.68 7.68 0 0 1 5.568-2.304 7.68 7.68 0 0 1 7.424 7.744v39.104c97.536 0 140.224-24 133.824-111.616z" fill="#00B767" /></svg>