<?xml version="1.0" standalone="no"?><!DOCTYPE svg PUBLIC "-//W3C//DTD SVG 1.1//EN" "http://www.w3.org/Graphics/SVG/1.1/DTD/svg11.dtd"><svg class="icon" width="200px" height="200.00px" viewBox="0 0 1024 1024" version="1.1" xmlns="http://www.w3.org/2000/svg"><path d="M455.68 573.046154l3.150769-512h29.538462a474.978462 474.978462 0 0 1 472.615384 474.584615v28.750769zM517.513846 118.153846l-2.363077 393.846154 387.544616-7.876923A416.295385 416.295385 0 0 0 517.513846 118.153846z"  /><path d="M472.615385 964.529231a411.175385 411.175385 0 0 1 0-822.350769h44.898461L515.150769 512l366.276923-7.483077v48.049231A411.569231 411.569231 0 0 1 472.615385 964.529231z m-14.572308-763.273846a352.098462 352.098462 0 1 0 366.276923 364.307692l-368.64 7.483077z"  /></svg>
