<?xml version="1.0" standalone="no"?><!DOCTYPE svg PUBLIC "-//W3C//DTD SVG 1.1//EN" "http://www.w3.org/Graphics/SVG/1.1/DTD/svg11.dtd"><svg class="icon" width="200px" height="200.00px" viewBox="0 0 1024 1024" version="1.1" xmlns="http://www.w3.org/2000/svg"><path d="M1.728 512a510.272 510.272 0 1 0 1020.608 0A510.272 510.272 0 0 0 1.728 512z" fill="#E4D5FF" /><path d="M684.992 535.04l-96.768 126.976L512 585.856l-193.024 192.896a45.696 45.696 0 0 1-13.44-32.384V307.904c0-33.728 31.68-66.304 66.304-66.24 70.08 0.256 280.32 0 280.32 0 43.776 0 66.24 41.024 66.24 66.24v227.456c0.064 0-18.816-17.152-33.408-0.32z" fill="#7820EA" /><path d="M579.712 777.6a4.16 4.16 0 0 0 5.824 4.288l53.184-23.232-52.672-38.656-6.336 57.6zM754.56 590.464l-41.792-30.784a11.52 11.52 0 0 0-16.128 2.432l-3.456 4.608 60.352 44.544 3.456-4.672a11.52 11.52 0 0 0-2.432-16.128zM591.168 705.152l60.352 44.416 97.28-131.84-60.352-44.544-97.28 131.968z m129.28-86.208a6.848 6.848 0 0 1 1.536 9.728l-65.408 90.752a6.976 6.976 0 1 1-11.264-8.192l65.408-90.752a6.912 6.912 0 0 1 9.728-1.536z" fill="#ae7af4" /><path d="M639.552 383.744c0 11.264-9.728 20.352-21.824 20.352H406.272c-12.032 0-21.824-9.152-21.824-20.352 0-11.328 9.792-20.416 21.824-20.416h211.52c12.032 0 21.76 9.088 21.76 20.416zM639.552 473.408c0-11.264-9.728-20.416-21.824-20.416H406.272c-12.032 0-21.824 9.216-21.824 20.416 0 11.328 9.792 20.416 21.824 20.416h211.52a21.056 21.056 0 0 0 21.76-20.416z" fill="#DEDDFF" /></svg>