<?xml version="1.0" standalone="no"?><!DOCTYPE svg PUBLIC "-//W3C//DTD SVG 1.1//EN" "http://www.w3.org/Graphics/SVG/1.1/DTD/svg11.dtd"><svg class="icon" width="200px" height="200.00px" viewBox="0 0 1024 1024" version="1.1" xmlns="http://www.w3.org/2000/svg"><path d="M1.728 512a510.272 510.272 0 1 0 1020.608 0A510.272 510.272 0 0 0 1.728 512z" fill="#C3E9FF" /><path d="M676.8 776.896H347.136a43.328 43.328 0 0 1-44.352-44.352V250.688c0-25.344 19.008-44.352 44.352-44.352h329.664c25.344 0 44.352 19.072 44.352 44.352v481.792a43.264 43.264 0 0 1-44.352 44.416z m-202.816-82.368a38.016 38.016 0 1 0 76.032 0 38.016 38.016 0 0 0-76.032 0z" fill="#006FD3" /><path d="M629.248 605.76H388.416c-19.008 0-31.744-12.672-31.744-31.68V295.104c0-19.072 12.672-31.744 31.744-31.744h247.232c19.008 0 31.68 12.672 31.68 31.744V574.08c-6.336 19.008-19.008 31.68-38.08 31.68z" fill="#59A3E9" /><path d="M423.296 462.08v36.672h73.408v55.04h30.656v-55.04h73.344V462.08H527.296v-24.512h73.344v-36.672h-54.976l54.976-54.976-24.384-30.592-67.328 67.264-61.12-67.264-24.512 30.528 55.04 54.976h-55.04v36.672h73.408v24.576H423.296z" fill="#ffffff" /></svg>