<?xml version="1.0" standalone="no"?><!DOCTYPE svg PUBLIC "-//W3C//DTD SVG 1.1//EN" "http://www.w3.org/Graphics/SVG/1.1/DTD/svg11.dtd"><svg class="icon" width="200px" height="193.57px" viewBox="0 0 1058 1024" version="1.1" xmlns="http://www.w3.org/2000/svg"><path d="M834.88256 653.78304c-1.53088-2.52416-4.56192-6.51264-55.0912-55.28576V493.47072c0.53248-5.98016 0.53248-11.49952 0.53248-16.95232 0-56.75008-18.66752-111.55456-53.52448-157.85984-30.81728-40.79104-71.7056-72.69888-120.23296-93.12768a136.51968 136.51968 0 0 0-39.90016-57.74336c-23.21408-19.36896-53.00224-30.336-83.33824-30.336-30.30528 0-59.5968 10.96704-83.3536 30.336a136.9088 136.9088 0 0 0-39.87968 57.74336c-47.9744 20.4288-89.37984 52.34176-120.20224 93.12768C205.04064 364.95872 186.368 419.75808 186.368 476.5184c0 4.46464 0 8.97024 0.47104 13.44v108.55424c-50.52928 48.768-53.57056 53.28896-55.08096 55.28064-7.56224 10.43968-9.59488 22.89152-10.07104 27.35104v107.02848c0.47616 6.46144 3.04128 18.90816 16.67072 32.39936 9.06752 8.91904 22.2208 13.91104 35.85024 13.91104 3.04128 0 5.03808 0 7.59808-0.47616h183.8336c12.11904 52.2752 60.11904 91.60192 117.67808 91.60192 57.60512 0 105.56928-39.32672 117.71904-91.61216h183.82848c2.048 0.47104 4.51072 0.47104 7.56224 0.47104 14.15168 0 26.7776-4.98176 35.8912-13.91104 13.63968-13.48096 16.13824-25.92768 16.62464-32.39424v-107.02848c-0.48128-4.992-2.47296-16.91136-10.0608-27.35104z m-350.91968 231.84896c-30.1568 0-57.0624-27.07968-69.52448-51.6352h139.04384c-12.45696 24.56576-38.68672 51.6352-69.51936 51.6352z m317.67552-94.6432H164.53632v-104.30464c9.87648-10.34752 70.94784-84.75648 70.94784-84.75648l-5.12-113.82272c0-3.83488-0.57856-8.17152-0.57856-11.89376 0-95.46752 62.67904-180.05504 160.05632-215.28064l18.14016-6.51776 3.83488-18.46272C419.584 200.74496 448.6912 176.3328 482.7648 176.3328c34.13504 0 63.29856 24.41216 70.95296 59.61728l3.88608 18.46272 18.14528 6.51776c97.32608 35.21536 160.0512 119.30112 160.0512 215.28064 0 4.85888 0 9.71776-0.57856 14.58688v136.73472s55.95648 43.69408 65.82784 54.03648v109.42464h0.5888v-0.00512zM724.48 175.17056c-16.70144-6.46144-40.48896-9.20064-47.08864 7.22944-6.55872 16.42496 1.0496 29.74208 17.71008 36.1984 0.53248 0 71.35232 25.87136 103.168 73.69216 23.75168 36.33664 25.088 74.65472 25.088 117.9648 0 17.47456 14.67904 31.90272 32.34816 31.90272 17.70496 0 22.08768-14.42816 22.08768-31.90272 0-55.28576-4.89984-96.32256-35.2512-142.58688-43.86816-64.76288-115.0208-90.98752-118.06208-92.49792z m261.888 147.9936c-10.58816-42.35264-29.77792-86.656-59.56096-129.9712-77.78304-113.55136-158.82752-126.19264-163.38944-127.67232-17.1776-4.98176-34.85184-5.77024-39.88992 11.18208-5.02784 16.91136-0.55808 29.22496 16.57856 34.2016 1.00864 0.47616 102.44608 41.12384 150.45632 115.29216 46.91968 72.18688 52.00384 154.19904 52.00384 184.06912 0 17.47456 14.67904 31.90272 32.33792 31.90272 17.71008 0 22.09792-14.42816 22.09792-31.90272-0.47104-22.90176-1.52064-51.7632-10.63424-87.10144z"  /></svg>
