<?xml version="1.0" standalone="no"?><!DOCTYPE svg PUBLIC "-//W3C//DTD SVG 1.1//EN" "http://www.w3.org/Graphics/SVG/1.1/DTD/svg11.dtd"><svg class="icon" width="200px" height="193.57px" viewBox="0 0 1058 1024" version="1.1" xmlns="http://www.w3.org/2000/svg"><path d="M872.92416 160.99328H212.25472c-40.5504 0-73.40544 32.12288-73.40544 71.69024v474.98752c0 39.61344 49.18272 81.35168 89.71776 81.35168h134.5792c3.21024 5.44256 40.32512-4.43392 44.86656 0l82.65216 106.58304c28.67712 28.00128 75.15136 28.00128 103.82336 0l103.808-101.39648c4.53632-4.4288 20.52096 0.22528 23.72096-5.19168h134.5792c40.5504 0 89.71776-50.12992 89.71776-89.71776V250.71616c0.00512-39.61344-32.84992-89.72288-73.39008-89.72288z m28.53888 538.31168c0 21.15584-23.67488 44.86144-44.86656 44.86144h-179.44064l-105.49248 96.88576a38.48704 38.48704 0 0 1-54.3232 0l-64.46592-96.88576h-224.3072c-21.22752 0-44.86144-23.7056-44.86144-44.86144V250.71616c0-21.18656 23.63392-44.85632 44.86144-44.85632h628.03456c21.19168 0 44.86656 23.66976 44.86656 44.85632v448.5888z m0 0"  /><path d="M398.464 499.18976c0 11.40224-8.18688 20.67456-18.24768 20.67456h-43.6736c-10.07616 0-18.24256-9.27744-18.24256-20.67456v-48.35328c0-11.42272 8.1664-20.69504 18.24256-20.69504h43.6736c10.06592 0 18.24768 9.27232 18.24768 20.69504v48.35328z m184.06912 0c0 11.40224-8.20736 20.67456-18.26304 20.67456h-43.65312c-10.09664 0-18.26304-9.27744-18.26304-20.67456v-48.35328c0-11.42272 8.17152-20.69504 18.26304-20.69504h43.65312c10.0608 0 18.26304 9.27232 18.26304 20.69504v48.35328z m184.3456 0c0 11.40224-8.17664 20.67456-18.25792 20.67456h-43.66336c-10.0608 0-18.24256-9.27744-18.24256-20.67456v-48.35328c0-11.42272 8.18688-20.69504 18.24256-20.69504h43.66336c10.0864 0 18.25792 9.27232 18.25792 20.69504v48.35328z m0 0"  /></svg>
