<?xml version="1.0" standalone="no"?><!DOCTYPE svg PUBLIC "-//W3C//DTD SVG 1.1//EN" "http://www.w3.org/Graphics/SVG/1.1/DTD/svg11.dtd"><svg class="icon" width="200px" height="193.03px" viewBox="0 0 1061 1024" version="1.1" xmlns="http://www.w3.org/2000/svg"><path d="M662.849071 895.245712H475.210712l63.651476 63.650204c14.499374 14.499374 14.499374 37.991692 0 52.492338-14.500646 14.494286-37.986604 14.494286-52.485978 0l-127.016755-127.018026c-23.351128-23.348584-6.81912-63.366551 26.243625-63.366551H662.700248c170.808705 0 309.282242-138.472265 309.282242-309.288602 0-90.626493-39.145384-174.872702-106.279559-233.303945-15.519507-13.488145-17.114578-36.974103-3.626433-52.35242 13.481785-15.511875 36.972831-17.113306 52.349876-3.623889 83.077253 72.359495 131.655689 176.902792 131.655689 289.280254 0.290013 211.701799-171.390003 383.530637-383.232992 383.530637zM385.601808 128.041976h187.625639l-63.650204-63.66038c-14.500646-14.499374-14.500646-37.98406 0-52.484706 14.499374-14.499374 37.98406-14.499374 52.484707 0l127.018026 127.019298c23.349856 23.348584 6.817848 63.367823-26.246169 63.367823H385.601808c-170.815065 0-309.28733 138.472265-309.287329 309.28097 0 90.625221 39.145384 174.87143 106.28083 233.312849 15.519507 13.479241 17.112034 36.971559 3.625162 52.342244-13.480513 15.519507-36.972831 17.112034-52.349876 3.626433-83.078525-72.353135-131.655689-176.896432-131.655689-289.281526-0.142462-211.696711 171.538825-383.523005 383.386902-383.523005z m0 0"  /><path d="M458.784279 628.600457c0 16.808029-10.797893 30.423373-24.121952 30.423373-13.332962 0-24.129584-13.615343-24.129583-30.423373v-245.773229c0-16.809301 10.796621-30.429733 24.129583-30.429732 13.324058 0 24.121952 13.620431 24.121952 30.429732v245.773229z m205.161244 0c0 16.808029-10.802981 30.423373-24.128312 30.423373s-24.129584-13.615343-24.129583-30.423373v-245.773229c0-16.809301 10.804253-30.429733 24.129583-30.429732s24.128312 13.620431 24.128312 30.429732v245.773229z m0 0"  /><path d="M427.630786 399.77136c-12.199622-15.859127-13.514856-35.272185-2.958641-43.410354 10.563848-8.126722 29.007652-1.87618 41.212362 13.968955l178.336322 231.698698c12.205982 15.852768 13.508496 35.270913 2.95228 43.409083-10.563848 8.121634-29.007652 1.860916-41.207274-13.968955L427.630786 399.77136z m0 0"  /></svg>
