<?xml version="1.0" standalone="no"?><!DOCTYPE svg PUBLIC "-//W3C//DTD SVG 1.1//EN" "http://www.w3.org/Graphics/SVG/1.1/DTD/svg11.dtd"><svg class="icon" width="200px" height="200.00px" viewBox="0 0 1024 1024" version="1.1" xmlns="http://www.w3.org/2000/svg"><path d="M568.637 369.406c-9.1 57.236 4.624 107.036 46.204 147.228 32.5 31.416 72.324 45.944 117.413 43.715 92.985-4.597 166.286-89.216 147.835-190.848 14.717 1.101 26.27 7.266 35.326 18.236 7.565 9.164 10.798 20.085 10.805 31.77 0.088 145.105 0.091 290.21 0.021 435.315-0.006 12.617-7.033 19.68-19.516 19.931-12.491 0.251-24.99 0.055-37.566 0.055 6.936-72.292-46.86-120.923-103.92-122.297-61.493-1.481-115.243 49.715-109.815 118.789-7.268 0-14.461 0.044-21.654-0.007-53.509-0.378-107.018-0.829-160.528-1.141-26.478-0.154-42.389-15.985-42.393-42.669-0.021-138.376-0.022-276.753 0.001-415.129 0.005-26.933 16.184-42.934 43.271-42.944 31.247-0.013 62.494-0.004 94.516-0.004zM362.334 870.128c3.358-73.043-52.578-118.395-108.614-117.642-59.225 0.796-110.497 50.513-105.839 117.13-12.445 0-24.927 0.793-37.247-0.278-8.226-0.715-12.802-8.921-12.813-19.363-0.043-43.293-0.019-86.586-0.019-129.879 0-26.619-0.297-53.245 0.235-79.853 0.115-5.754 1.891-12.37 5.138-17.03 43.118-61.873 86.678-123.438 129.994-185.174 4.841-6.899 11.03-9.875 19.293-9.858 45.633 0.092 91.266-0.048 136.899 0.099 14.458 0.047 20.689 6.654 20.691 21.121 0.016 133.389 0.017 266.778-0.002 400.167-0.002 14.643-6.034 20.518-20.878 20.558-8.731 0.021-17.462 0.002-26.838 0.002z m-25.143-242.901h-10.848c-30.713 0.002-61.426-0.092-92.139 0.055-11.558 0.055-18.692 6.895-18.954 17.441-0.262 10.555 6.867 18.074 18.195 18.123 40.657 0.177 81.316 0.169 121.974-0.001 10.532-0.044 17.265-6.323 17.338-16.922 0.291-42.119 0.215-84.241 0.038-126.361-0.032-7.533-3.536-13.544-10.95-16.474-11.501-4.546-23.182 2.178-23.908 15.051-1.019 18.078-0.636 36.238-0.727 54.363-0.089 17.798-0.019 35.596-0.019 54.725z"  /><path d="M602.396 402.249c-0.732-65.626 53.934-121.523 119.416-122.104 67.764-0.601 122.467 52.425 124.275 118.059 1.793 65.103-49.265 124.852-121.096 125.669-67.116 0.762-121.837-53.714-122.595-121.624z m146.844-31.44c0-14.039 0.112-28.079-0.031-42.117-0.144-14.146-10.167-24.982-23.476-25.702-13.522-0.731-25.673 8.767-26.058 22.847-0.824 30.083-0.874 60.217-0.091 90.301 0.384 14.735 12.331 24.233 26.328 23.488 13.335-0.71 23.144-11.437 23.295-25.823 0.15-14.33 0.032-28.662 0.033-42.994z m-0.002 105.067c0.088-14.918-10.482-25.812-25.011-25.778-14.047 0.033-24.845 10.795-25.105 25.021-0.26 14.229 11.251 26.071 25.235 25.961 13.966-0.108 24.798-11.082 24.881-25.204z m-54.721 383.349c0.082-37.186 30.203-67.301 67.544-67.529 37.947-0.232 68.903 30.703 68.498 68.454-0.403 37.601-31.07 67.847-68.565 67.623-37.56-0.225-67.561-30.701-67.477-68.548z m-371.714 0.79c-0.131 37.672-30.566 67.924-68.167 67.758-37.648-0.166-67.661-30.546-67.571-68.396 0.09-37.663 30.634-67.967 68.215-67.68 37.885 0.289 67.655 30.41 67.523 68.318z"  /></svg>
