<?xml version="1.0" standalone="no"?><!DOCTYPE svg PUBLIC "-//W3C//DTD SVG 1.1//EN" "http://www.w3.org/Graphics/SVG/1.1/DTD/svg11.dtd"><svg class="icon" width="200px" height="198.45px" viewBox="0 0 1032 1024" version="1.1" xmlns="http://www.w3.org/2000/svg"><path d="M507.623635 1015.72325A503.723168 503.723168 0 0 1 516.376857 8.276915h8.918378a503.723168 503.723168 0 0 1-8.588067 1007.446335z" fill="#FFFFFF" /><path d="M516.376857 0.019158v16.515514h8.753223A495.465411 495.465411 0 0 1 516.376857 1007.465493h-8.753222A495.465411 495.465411 0 0 1 516.376857 16.534672V0.019158m0 0a511.980925 511.980925 0 0 0-8.753222 1023.961849H516.376857a511.980925 511.980925 0 0 0 8.753223-1023.961849z" fill="#DCDFE6" /><path d="M276.901909 545.03111v99.093082a27.415753 27.415753 0 0 0 27.580908 27.250598h21.139857a67.218141 67.218141 0 0 1 0-8.257757 56.483057 56.483057 0 0 1 112.966114 0 45.252508 45.252508 0 0 1 0 8.257757h11.56086a27.415753 27.415753 0 0 0 26.424821-27.250598V464.270248a27.250598 27.250598 0 0 0-27.580907-27.085442H367.737234c-4.294034 0-10.900239 1.651551-25.268736 15.029117a354.918389 354.918389 0 0 0-28.241528 30.388545 371.929368 371.929368 0 0 0-24.938426 34.021958A55.657281 55.657281 0 0 0 276.901909 545.03111z m16.515514 0a56.317902 56.317902 0 0 1 10.735083-21.470168 355.57901 355.57901 0 0 1 23.617185-31.709786h63.254418a10.735084 10.735084 0 0 1 10.900239 10.569929v37.985681a10.735084 10.735084 0 0 1-10.900239 10.569929h-97.441531z m0 0" fill="#FFAC00" /><path d="M381.610266 623.81011a39.141767 39.141767 0 1 0 39.802388 38.976613 39.472078 39.472078 0 0 0-39.802388-38.976613z m250.375187 0a39.141767 39.141767 0 1 0 39.802388 38.976613A39.472078 39.472078 0 0 0 631.985453 623.81011z m-7.431981-301.738435a63.254417 63.254417 0 1 0 64.410504 63.254418 63.749883 63.749883 0 0 0-64.410504-63.254418z m25.599046 83.568499h-33.031027a5.45012 5.45012 0 0 1-5.450119-5.450119v-43.600956a5.45012 5.45012 0 0 1 5.450119-5.45012 5.45012 5.45012 0 0 1 5.615275 5.45012v38.150836h27.415752a5.45012 5.45012 0 0 1 5.615275 5.45012 5.615275 5.615275 0 0 1-5.615275 5.450119z m0 0" fill="#FFAC00" /><path d="M487.474709 371.122751h56.648211a71.512174 71.512174 0 0 0-1.486396 14.698807 80.265397 80.265397 0 0 0 160.365638 0 71.512174 71.512174 0 0 0-1.486396-14.698807h26.755132a27.250598 27.250598 0 0 1 27.580908 27.085442V644.124192a27.415753 27.415753 0 0 1-27.580908 27.085443h-40.463008a44.591887 44.591887 0 0 0 0-8.092602 56.483057 56.483057 0 0 0-112.966114 0 44.591887 44.591887 0 0 0 0 8.092602h-87.367067A27.250598 27.250598 0 0 1 459.893801 644.124192V398.208193a27.250598 27.250598 0 0 1 27.580908-27.085442z m0 0" fill="#FFAC00" /></svg>