<?xml version="1.0" standalone="no"?><!DOCTYPE svg PUBLIC "-//W3C//DTD SVG 1.1//EN" "http://www.w3.org/Graphics/SVG/1.1/DTD/svg11.dtd"><svg class="icon" width="200px" height="200.00px" viewBox="0 0 1024 1024" version="1.1" xmlns="http://www.w3.org/2000/svg"><path d="M1.728 512a510.272 510.272 0 1 0 1020.544 0A510.272 510.272 0 0 0 1.728 512z" fill="#FFC3C3" /><path d="M503.424 520.704l250.752-54.016c3.648 17.408 5.568 35.456 5.568 54.016 0 143.424-114.752 259.84-256.32 259.84S247.04 664.192 247.04 520.704c0-142.336 112.96-257.856 252.928-259.776l3.456 259.776z" fill="#DB0000" /><path d="M625.28 217.984l-63.552 251.648 250.688-54.016A258.368 258.368 0 0 0 625.28 217.984zM529.536 215.296h-3.392l3.392 259.776 63.616-251.712a250.56 250.56 0 0 0-63.616-8.064z" fill="#ed6161" /></svg>