<?xml version="1.0" standalone="no"?><!DOCTYPE svg PUBLIC "-//W3C//DTD SVG 1.1//EN" "http://www.w3.org/Graphics/SVG/1.1/DTD/svg11.dtd"><svg class="icon" width="200px" height="200.00px" viewBox="0 0 1024 1024" version="1.1" xmlns="http://www.w3.org/2000/svg"><path d="M1020.829037 541.043305l-1.292232-4.141768-120.502264-386.34415a47.998125 47.998125 0 0 0-45.817898-33.266683 48.680688 48.680688 0 0 0-20.841379 4.658661l-0.132536-0.132536c-83.995062 35.466791-196.339699 5.83161-298.33323-55.652113C425.189736 0.671762 290.592206-23.920402 191.567495 28.113462h-0.132536l-7.760017 4.267678a70.463076 70.463076 0 0 0-33.00161 59.667971c0 5.175554 0.642802 10.357734 1.676587 15.274842l3.498966 11.133073L281.778523 522.534571l2.465181 7.634108c6.984678 17.349039 24.32709 29.641808 44.519039 29.641807 7.249751 0 14.241056-1.550678 20.324485-4.526124 2.200107-1.298859 4.267678-2.465181 6.600322-3.624876 99.269903-53.584542 224.821812-34.558915 341.692574 37.792808 86.977135 53.842988 197.771094 69.634723 281.255891 35.71861 0.642802-0.132537 1.159695-0.384356 1.683214-0.642803 25.493412-10.868 43.226808-35.983683 43.226808-65.101971a74.266876 74.266876 0 0 0-2.717-18.382825z m-922.454642-469.828945C90.230021 45.064891 62.145519 30.439479 35.744231 38.457943c-26.533825 8.02509-41.417683 35.71861-33.266684 61.868078L279.843489 989.010341c8.018463 25.751859 35.334254 40.251361 61.477096 33.00161l2.451926-0.775339c25.632576-8.541983 39.873632-35.71861 31.974452-61.351186L98.381021 71.21436z"  /></svg>
