<?xml version="1.0" standalone="no"?><!DOCTYPE svg PUBLIC "-//W3C//DTD SVG 1.1//EN" "http://www.w3.org/Graphics/SVG/1.1/DTD/svg11.dtd"><svg class="icon" width="200px" height="198.45px" viewBox="0 0 1032 1024" version="1.1" xmlns="http://www.w3.org/2000/svg"><path d="M847.3616042 237.73243011a63.30612902 63.30612902 0 0 0-63.56353641-63.04872164H205.9506619a63.314173 63.314173 0 0 0-63.314173 63.04872164v70.05502893h704.7251153v-70.05502893z m-140.11005785 214.58927622a212.24847781 212.24847781 0 0 1 140.11005785 51.89172025V400.42194209H142.64453287v267.25321864a63.314173 63.314173 0 0 0 63.314173 62.79935824h299.43718586a209.16763317 209.16763317 0 0 1-10.38477922-65.38952008c0.14479166-116.93534912 95.0557213-211.61300332 211.99107042-211.46821165h0.25740738v-1.29508091z"  /><path d="M880.06038621 592.17435681a191.14107215 191.14107215 0 0 0-40.46926748-58.63257618 197.4475531 197.4475531 0 0 0-59.68633765-39.9624967 178.39940655 178.39940655 0 0 0-72.13037596-14.53547334 181.60091091 181.60091091 0 0 0-73.17609349 14.53547334 200.61688155 200.61688155 0 0 0-59.67829369 39.9624967 195.92724074 195.92724074 0 0 0-40.47731147 58.63257618 181.68135071 181.68135071 0 0 0 0 143.75398114 189.66097968 189.66097968 0 0 0 40.47731147 58.64062015 180.08864251 180.08864251 0 0 0 59.67829369 39.43963796 184.93916294 184.93916294 0 0 0 73.17609349 14.26197798 187.89130389 187.89130389 0 0 0 131.81671361-53.70965992 189.50010005 189.50010005 0 0 0 40.46926748-58.64062014 181.59286692 181.59286692 0 0 0 0-143.74593717zM620.59374101 768.61907598a77.86573429 77.86573429 0 0 0 51.89172025-73.43350085h-77.84964634a19.71579698 19.71579698 0 0 1-19.71579698-19.46643358 19.94907242 19.94907242 0 0 1 8.5587956-16.33732505l110.274933-109.76011823a20.24669971 20.24669971 0 0 1 28.55613189-2.00295122l0.77222216 0.69982633 114.68303449 114.16821973a19.72384096 19.72384096 0 0 1-14.77679275 32.69073805h-60.97337458c-0.08848381 49.72788941-40.4612235 89.9799694-90.18911292 89.8914856a90.04432124 90.04432124 0 0 1-51.74692857-16.45798475h0.51481475z"  /></svg>
