<?xml version="1.0" standalone="no"?><!DOCTYPE svg PUBLIC "-//W3C//DTD SVG 1.1//EN" "http://www.w3.org/Graphics/SVG/1.1/DTD/svg11.dtd"><svg class="icon" width="200px" height="198.45px" viewBox="0 0 1032 1024" version="1.1" xmlns="http://www.w3.org/2000/svg"><path d="M507.623635 1015.72325A503.723168 503.723168 0 0 1 516.376857 8.276915h8.918378a503.723168 503.723168 0 0 1-8.588067 1007.446335z" fill="#FFFFFF" /><path d="M516.376857 0.019158v16.515514h8.753223A495.465411 495.465411 0 0 1 516.376857 1007.465493h-8.753222A495.465411 495.465411 0 0 1 516.376857 16.534672V0.019158m0 0a511.980925 511.980925 0 0 0-8.753222 1023.961849H516.376857a511.980925 511.980925 0 0 0 8.753223-1023.961849z" fill="#DCDFE6" /><path d="M725.463261 337.431103A40.297853 40.297853 0 0 0 685.000252 297.298405H317.199762a40.297853 40.297853 0 0 0-40.297853 40.132698v44.591887h448.561352z m-89.183774 136.583298a135.096902 135.096902 0 0 1 89.183774 33.031027v-66.062054H276.901909V611.093165a40.297853 40.297853 0 0 0 40.297853 39.967543h190.589028a133.11504 133.11504 0 0 1-6.606205-41.619095 134.766592 134.766592 0 0 1 135.096902-134.601436z m0 0" fill="#F75D5A" /><path d="M746.272808 563.03302a121.719336 121.719336 0 0 0-25.764201-37.325061 125.683059 125.683059 0 0 0-37.985682-25.433891 113.461579 113.461579 0 0 0-45.913128-9.248688 115.608596 115.608596 0 0 0-46.573748 9.248688 127.664921 127.664921 0 0 0-37.985682 25.433891 124.692128 124.692128 0 0 0-25.764201 37.325061 115.608596 115.608596 0 0 0 0 91.495946 120.728405 120.728405 0 0 0 25.764201 37.325061 114.617665 114.617665 0 0 0 37.985682 25.103581 117.755613 117.755613 0 0 0 46.573748 9.083532 119.572319 119.572319 0 0 0 83.89881-34.187113 120.728405 120.728405 0 0 0 25.764201-37.325061 115.608596 115.608596 0 0 0 0-91.495946z m-165.155137 112.305493a49.546541 49.546541 0 0 0 33.031028-46.738904h-49.546542a12.55179 12.55179 0 0 1-12.55179-12.386635 12.716946 12.716946 0 0 1 5.45012-10.404774l70.190933-69.860623a12.882101 12.882101 0 0 1 18.66253-0.825775l72.998571 72.66826a12.55179 12.55179 0 0 1-9.413843 20.809547h-38.811457a57.308833 57.308833 0 0 1-90.33986 46.738904z m0 0" fill="#F75D5A" /></svg>