<?xml version="1.0" standalone="no"?><!DOCTYPE svg PUBLIC "-//W3C//DTD SVG 1.1//EN" "http://www.w3.org/Graphics/SVG/1.1/DTD/svg11.dtd"><svg class="icon" width="200px" height="200.00px" viewBox="0 0 1024 1024" version="1.1" xmlns="http://www.w3.org/2000/svg"><path d="M949.8 530.7c0-61.5-29.5-111.3-69.6-122.3C861.6 310.6 819.9 227 759 166 692.4 99.3 607 64.1 512.1 64.1c-46.8 0-91.2 7.3-131.9 21.6-42 14.8-80.1 37.2-113.3 66.6-34.2 30.3-63.2 68.1-86.3 112.4-22.6 43.3-39.7 93.4-50.8 148.8-33.4 17.2-56.6 62.6-56.6 117.2 0 69.9 38 124.6 86.6 124.6s86.6-54.7 86.6-124.6c0-63.8-31.7-115-74.3-123.4 21.8-97.4 62.6-173 121.5-225.1 29.3-25.9 62.9-45.7 100.1-58.8C430.1 110.6 470 104 512.2 104c84.1 0 159.7 31.2 218.6 90.2 54.1 54.2 91.7 128.7 109.2 216.3-36.8 14.4-63.2 62-63.2 120.1 0 63 30.9 113.6 72.5 123-20.5 61.3-53.8 109.3-101.1 146-38.5 29.9-85.1 51.8-145.4 68-6.5-25-29.2-43.4-56.2-43.4H413.5c-32 0-58 26-58 58v19c0 15.6 6.1 30.3 17.2 41.2 11 10.8 25.5 16.7 40.9 16.5h133.6c15.2 0 29.4-5.8 40.3-16.5 9.3-9.2 15.1-21 16.7-33.8 69.9-17.8 123.8-42.6 168.5-77.4 29.9-23.3 55.4-51.2 75.7-83 18.8-29.5 33.7-63.2 44.4-100.2 33.6-16.9 57-62.4 57-117.3z m-743.5 0c0 49.8-24.5 84.6-46.6 84.6-27.4 0-46.6-44.6-46.6-84.6 0-49.8 24.5-84.6 46.6-84.6 27.5 0 46.6 44.6 46.6 84.6z m358.4 370.6c0 4.8-1.9 9.4-5.3 12.7-3.3 3.3-7.8 5.1-12.4 5H413.4c-4.7 0.1-9.1-1.7-12.4-5-3.4-3.4-5.3-7.9-5.3-12.7v-19c0-9.9 8.1-18 18-18h133.1c9.9 0 18 8.1 18 18v19z m298.6-286c-27.4 0-46.6-44.6-46.6-84.6 0-49.8 24.5-84.6 46.6-84.6 27.4 0 46.6 44.6 46.6 84.6-0.1 49.9-24.6 84.6-46.6 84.6z"  /></svg>
