<?xml version="1.0" standalone="no"?><!DOCTYPE svg PUBLIC "-//W3C//DTD SVG 1.1//EN" "http://www.w3.org/Graphics/SVG/1.1/DTD/svg11.dtd"><svg class="icon" width="200px" height="200.00px" viewBox="0 0 1024 1024" version="1.1" xmlns="http://www.w3.org/2000/svg"><path d="M523.09764657 563.15518146c41.03417057 0 73.82969245-34.10787299 73.82969246-75.68554252 0-42.07477221-33.26611244-75.69217056-73.82969246-75.69217055-40.51718378 0-73.78992423 34.06147675-73.78992423 75.69217055 0 42.06814418 32.76900974 75.68554252 73.78992423 75.68554252z m0 75.69879859c-81.51821415 0-147.60636062-67.73189938-147.6063606-151.38434111s66.08814646-151.43073737 147.6063606-151.43073735c81.57123844 0 147.65275687 67.77829564 147.65275688 151.43073735s-66.08814646 151.38434111-147.65275688 151.38434111z m175.88156199-498.18306615H301.7146178c-20.56016752 0-36.91816025-16.80869917-36.91816026-37.84608528s16.36462077-37.83945725 36.91816026-37.83945724h418.70628706c13.18979154 0 25.47154215 7.0257181 31.894109 19.16827997l209.10127816 372.00514577a39.73507552 39.73507552 0 0 1 0 37.85271331l-209.10127816 371.52129914c-6.42256684 11.69185541-18.69768942 19.16827997-31.894109 19.16827998H301.7146178c-13.26932798 0-25.54445056-7.0257181-31.94050525-19.16827998L60.235384 494.0048824a39.62902695 39.62902695 0 0 1 0-37.85271332l143.0131317-254.24483103a36.6331547 36.6331547 0 0 1 50.61831056-14.00503996c17.7366242 10.27345573 23.64883228 33.62402638 13.65375406 51.85112524L134.9399772 474.83660242l188.15005652 334.17231657h375.88917484l188.20970886-334.17231657-188.20970886-334.16568852z m0 0"  /></svg>
