<?xml version="1.0" standalone="no"?><!DOCTYPE svg PUBLIC "-//W3C//DTD SVG 1.1//EN" "http://www.w3.org/Graphics/SVG/1.1/DTD/svg11.dtd"><svg class="icon" width="200px" height="193.57px" viewBox="0 0 1058 1024" version="1.1" xmlns="http://www.w3.org/2000/svg"><path d="M756.59264 925.0048H308.01408c-88.1152 0-134.5792-43.74528-134.5792-134.58432V252.1088c0-90.83392 46.464-134.58944 134.5792-134.58944h448.57856c84.84864 0 134.58944 43.7504 134.58944 134.58944v514.77504c0.00512 87.4496-46.47936 158.12096-134.58944 158.12096zM308.01408 162.38592C249.0112 162.14528 216.7808 190.3104 218.2912 252.1088v538.31168c0 60.57472 34.25792 89.71776 89.72288 89.71776h448.57856c58.74688 0 89.72288-32.52736 89.72288-89.71776V252.1088c0-60.56448-34.25792-89.71776-89.72288-89.71776H308.01408v-0.00512z m0 0"  /><path d="M440.97024 665.94816h-6.51776c-6.54848-3.36896-16.32256-6.72256-19.57888-13.47584-3.2768-6.71744-17.14176 10.10688-17.14176 3.36384V386.688h269.16864v269.14816c0 16.8192-26.92096 6.73792-46.47936 6.73792-6.528 0-13.06112-3.34848-16.32256-6.73792l-71.7824-47.09888-75.04384 50.48832c-3.27168 3.3536-9.8048 6.72256-16.30208 6.72256z m91.34592-111.03744c6.52288 0 16.31744 3.37408 22.81472 6.72256l66.89792 49.34656V431.55456H442.5984v179.42016l70.12352-49.34656c3.2768-3.34336 13.056-6.71744 19.59424-6.71744z m0 0"  /><path d="M173.43488 386.688H891.1872v44.86656H173.43488v-44.86656z m482.8672-134.5792h81.5616c13.0304 0 22.8096 10.10688 22.8096 26.9312 0 13.44512-9.7792 26.92608-26.10688 26.92608h-81.55136c-13.03552 0-26.10688-10.112-26.10688-26.92608 3.28192-16.82944 13.07136-26.9312 29.39392-26.9312z m0 0"  /></svg>
