<?xml version="1.0" standalone="no"?><!DOCTYPE svg PUBLIC "-//W3C//DTD SVG 1.1//EN" "http://www.w3.org/Graphics/SVG/1.1/DTD/svg11.dtd"><svg class="icon" width="200px" height="200.00px" viewBox="0 0 1024 1024" version="1.1" xmlns="http://www.w3.org/2000/svg"><path d="M842.7995 905.75H198.9395C150.8435 905.75 111.5 865.7 111.5 816.7265V384.308c0-48.9735 47.2905-82.6785 95.3865-82.6785h158.976c0-87.7905 71.181-158.976 158.9805-158.976 87.8085 0 158.976 71.1855 158.976 158.976h158.976c48.0735 0 95.3865 33.705 95.3865 82.6785v426.0555c0.0045 48.9645-47.313 95.3865-95.382 95.3865zM524.843 206.2475c-52.677 0-95.3865 42.7095-95.3865 95.382h190.773c0.0045-52.6725-42.723-95.382-95.3865-95.382z m349.7535 190.7685c0-24.4845-7.7625-31.7925-31.797-31.7925H206.8865c-24.048 0-31.7925 7.308-31.7925 31.7925v95.3865h699.5025V397.016z m0 158.9805H175.094v286.164h699.5025v-286.164z"  /></svg>
