<?xml version="1.0" standalone="no"?><!DOCTYPE svg PUBLIC "-//W3C//DTD SVG 1.1//EN" "http://www.w3.org/Graphics/SVG/1.1/DTD/svg11.dtd"><svg class="icon" width="200px" height="200.00px" viewBox="0 0 1024 1024" version="1.1" xmlns="http://www.w3.org/2000/svg"><path d="M511.99613762 906.94313317h16.94965571a82.49033446 82.49033446 0 0 0 56.50039832-48.02557047 65.03238942 65.03238942 0 0 0 5.64988549-32.20527343H432.89542562a78.19691562 78.19691562 0 0 0 79.100712 80.2308439zM749.29672868 460.58906031A252.66976201 252.66976201 0 0 0 568.49653595 203.51232547V178.08706866A58.5907166 58.5907166 0 0 0 511.99613762 116.50069245a61.13370593 61.13370593 0 0 0-62.1510563 61.58560373v25.42525681a245.2686753 245.2686753 0 0 0-180.8009652 257.07673485v202.27191946l-79.10148449 80.23084389v41.81023319H828.39821316v-41.81023319L749.29750116 662.86097977V460.58906031z m79.10148448-19.2099195h79.09993952A424.37482928 424.37482928 0 0 0 743.64761566 123.28148157l-50.85051284 54.80558709A382.9601039 382.9601039 0 0 1 828.39821316 441.37914081zM336.84351296 178.08706866L280.3438871 123.28148157A424.37482928 424.37482928 0 0 0 116.4925776 441.37914081h79.100712A332.78782439 332.78782439 0 0 1 336.84428543 178.08706866z m0 0"  /></svg>
