<?xml version="1.0" standalone="no"?><!DOCTYPE svg PUBLIC "-//W3C//DTD SVG 1.1//EN" "http://www.w3.org/Graphics/SVG/1.1/DTD/svg11.dtd"><svg class="icon" width="200px" height="198.45px" viewBox="0 0 1032 1024" version="1.1" xmlns="http://www.w3.org/2000/svg"><path d="M507.623635 1015.72325A503.723168 503.723168 0 0 1 516.376857 8.276915h8.918378a503.723168 503.723168 0 0 1-8.588067 1007.446335z" fill="#FFFFFF" /><path d="M516.376857 0.019158v16.515514h8.753223A495.465411 495.465411 0 0 1 863.202645 865.597231 492.822929 492.822929 0 0 1 516.376857 1007.465493h-8.753222A495.465411 495.465411 0 0 1 516.376857 16.534672V0.019158m0 0a511.980925 511.980925 0 0 0-8.753222 1023.961849H516.376857a511.980925 511.980925 0 0 0 8.753223-1023.961849z" fill="#DCDFE6" /><path d="M696.891422 615.056888l-30.388545-22.956564a22.130788 22.130788 0 0 1-8.257757-16.515514v-109.3327a133.610506 133.610506 0 0 0-11.395704-54.33604 132.12411 132.12411 0 0 0-30.388546-43.931267 138.23485 138.23485 0 0 0-44.757042-29.89308l-18.827685-6.606205v-15.029118a36.499285 36.499285 0 0 0-72.833416 0v15.029118a83.403344 83.403344 0 0 0-18.99284 6.606205 138.23485 138.23485 0 0 0-44.757043 29.89308 132.12411 132.12411 0 0 0-30.22339 43.931267 133.610506 133.610506 0 0 0-11.395704 54.33604v107.846304a20.974702 20.974702 0 0 1-8.422912 16.515514l-30.22339 23.121719a33.031027 33.031027 0 0 0-11.395705 37.159906 31.874941 31.874941 0 0 0 11.395705 15.689738 26.589977 26.589977 0 0 0 19.653461 7.431981h320.731276a33.031027 33.031027 0 0 0 20.479237-6.606206 34.847734 34.847734 0 0 0 11.395705-16.515513 32.040097 32.040097 0 0 0 0-19.323151 33.031027 33.031027 0 0 0-12.056325-18.00191zM516.376857 306.051627a10.239618 10.239618 0 0 1 10.569929 10.404773v9.083533h-21.965633v-9.083533a10.735084 10.735084 0 0 1 10.735084-10.404773z m-47.894989 390.261588a47.89499 47.89499 0 0 0 95.624824 0h-96.285445z m-77.127449-358.221492a12.882101 12.882101 0 0 0 4.459189-7.762291 13.047256 13.047256 0 0 0-2.972793-9.083533 12.55179 12.55179 0 0 0-9.909308-4.459188 9.248688 9.248688 0 0 0-7.597136 2.972792 228.079244 228.079244 0 0 0-55.326971 64.080193 211.728886 211.728886 0 0 0-26.589977 82.577569 12.55179 12.55179 0 0 0 25.10358 2.312172 192.405735 192.405735 0 0 1 72.833416-129.646783z m320.731276 44.757042a228.409554 228.409554 0 0 0-55.326971-64.080193 16.515514 16.515514 0 0 0-7.597136-2.972792 12.55179 12.55179 0 0 0-9.909309 4.459189 11.726015 11.726015 0 0 0 1.486397 16.515513 195.378527 195.378527 0 0 1 72.833415 129.481628 13.047256 13.047256 0 0 0 12.882101 11.230549h1.486396a13.707876 13.707876 0 0 0 8.422912-4.459189 13.542721 13.542721 0 0 0 2.972792-8.918377 239.805259 239.805259 0 0 0-27.250597-82.577569z m0 0" fill="#FFAC00" /></svg>