<?xml version="1.0" standalone="no"?><!DOCTYPE svg PUBLIC "-//W3C//DTD SVG 1.1//EN" "http://www.w3.org/Graphics/SVG/1.1/DTD/svg11.dtd"><svg class="icon" width="200px" height="193.57px" viewBox="0 0 1058 1024" version="1.1" xmlns="http://www.w3.org/2000/svg"><path d="M702.38208 107.27936H253.78304c-56.61696 0-89.73312 45.2096-89.73312 100.93056v616.83712c0 55.71584 33.12128 89.71264 89.73312 89.71264h538.30144c56.58624 0 89.72288-34.00192 89.72288-89.71264V286.73024l-179.42528-179.45088z m134.56896 717.7728c0 27.83232-16.57856 44.8512-44.86656 44.8512H253.78304c-28.32896 0-44.87168-17.01888-44.87168-44.8512V197.0176c0-27.89376 16.5376-44.87168 44.87168-44.87168h358.88128c-0.43008 60.46208 0 179.44576 0 179.44576 0 55.76704 33.05472 44.85632 89.71264 44.85632h134.56896v448.60416z m-134.56896-490.69056c-28.3392 0-44.87168-19.7376-44.87168-47.62624V152.14592l179.44064 179.44576-134.56896 2.76992z"  /><path d="M343.5008 645.60128h358.88128v44.86144H343.5008v-44.86144zM343.5008 511.03232h358.88128v44.86656H343.5008v-44.86656z"  /></svg>
