<?xml version="1.0" standalone="no"?><!DOCTYPE svg PUBLIC "-//W3C//DTD SVG 1.1//EN" "http://www.w3.org/Graphics/SVG/1.1/DTD/svg11.dtd"><svg class="icon" width="200px" height="200.00px" viewBox="0 0 1024 1024" version="1.1" xmlns="http://www.w3.org/2000/svg"><path d="M485.59390478 130.04417303c-83.44034458 0-151.07945146 67.32096115-151.07945147 150.44316001 0 83.11557083 67.63910688 150.48955626 151.07945147 150.48955626 83.42708851 0 151.06619539-67.37398544 151.06619537-150.48955626 0-83.12219886-67.63910688-150.44316001-151.06619537-150.44316001z m0-75.25472019c125.13731874 0 226.61917718 101.04440807 226.61917718 225.6978802 0 124.66010015-101.48848647 225.69125216-226.61917718 225.69125215-125.14394678 0-226.63243327-101.03115199-226.63243327-225.69125215-0.00662803-124.65347212 101.48848647-225.69788019 226.63243327-225.6978802z m0 0"  /><path d="M145.63531283 882.37927771a37.48154331 37.48154331 0 0 1-18.85013424 32.58342474 37.85271331 37.85271331 0 0 1-37.74666474 0 37.53456759 37.53456759 0 0 1-18.90315853-32.58342474 413.01280419 413.01280419 0 0 1 121.67085594-292.60127508 416.30693806 416.30693806 0 0 1 293.78106549-121.22014949c20.8518011 0 37.74666474 16.86172346 37.74666472 37.61410401 0 20.831917-16.89486365 37.62736009-37.74666472 37.62736009a340.63465162 340.63465162 0 0 0-240.37897983 99.18192997c-63.71530959 63.49658441-99.5729841 149.60802748-99.57298409 239.3980305z m763.54311348-313.75796583a37.83282922 37.83282922 0 0 1 31.97364542-21.08378236 37.91899367 37.91899367 0 0 1 34.02833657 17.61731956 37.32247043 37.32247043 0 0 1 1.02071753 38.15760297l-155.02313284 296.44553592a37.74666474 37.74666474 0 0 1-33.61739834 20.19562554 37.97864599 37.97864599 0 0 1-33.44506941-20.46074698l-151.07945146-294.80178301a37.44177508 37.44177508 0 0 1 1.20630255-38.24376743 37.77980492 37.77980492 0 0 1 34.20066549-17.4052224 37.71352457 37.71352457 0 0 1 31.83445669 21.44169629l117.80671098 229.83377462 121.09421682-231.75590504v0.05965232z m0 0"  /></svg>
