<?xml version="1.0" standalone="no"?><!DOCTYPE svg PUBLIC "-//W3C//DTD SVG 1.1//EN" "http://www.w3.org/Graphics/SVG/1.1/DTD/svg11.dtd"><svg class="icon" width="200px" height="194.12px" viewBox="0 0 1055 1024" version="1.1" xmlns="http://www.w3.org/2000/svg"><path d="M532.791541 513.276808m-510.723192 0a510.723192 510.723192 0 1 0 1021.446384 0 510.723192 510.723192 0 1 0-1021.446384 0Z" fill="#5AA8FE" /><path d="M772.15218 369.482693l-62.670843 329.207063c-3.309486 17.517805-19.867132 28.937576-36.955931 25.541266l-4.116428-0.827371c-0.097037-0.010214-0.14811-0.051072-0.24004-0.051072H394.671561c-3.784459 0-7.359521-0.796728-10.72008-2.01225-15.107192 0.270683-28.723072-10.393217-31.71591-25.970274L286.77618 354.906653a259.85596 259.85596 0 0 1-8.850833-46.041695l-2.635332-13.702704c-3.355451-17.451411 7.870244-34.351242 25.066294-37.742444l4.162394-0.822264c17.185835-3.406524 33.850733 8.003032 37.190863 25.449337l1.649636 8.483112h1.128698c0.306434 4.739511 0.934623 9.3922 1.573028 14.049995l4.300289 22.354354c21.174584 80.95984 94.075212 140.663382 180.995192 140.663382 85.091591 0 156.60816-57.323571 179.452808-135.724689l6.721117-35.321616c0.199182-2.027571 0.531152-3.988748 0.669048-6.03164h0.480079l1.271701-6.726225c3.34013-17.497377 19.877347-28.942683 36.976359-25.541267l4.131751 0.832479c14.974404 2.972409 25.367621 16.384 25.469765 31.435013h0.423901a258.757905 258.757905 0 0 1-14.800758 78.962912z m-240.422943 171.342524c-56.041656 0-107.655342-18.426893-149.713397-49.30011l29.683232 154.447801h239.345317l29.218474-153.543821c-41.869087 30.321636-93.033337 48.39613-148.533626 48.39613z m-117.348868 216.909247c23.513696 0 42.589207 19.233835 42.589207 42.972249s-19.075511 42.987571-42.589207 42.987571c-23.518803 0-42.609636-19.249157-42.609636-42.987571s19.090833-42.972249 42.609636-42.972249z m225.785616 0c23.529017 0 42.594314 19.233835 42.594314 42.972249s-19.06019 42.987571-42.594314 42.987571c-23.518803 0-42.609636-19.249157-42.609636-42.987571s19.090833-42.972249 42.609636-42.972249z" fill="#FFFFFF" /></svg>