<?xml version="1.0" standalone="no"?><!DOCTYPE svg PUBLIC "-//W3C//DTD SVG 1.1//EN" "http://www.w3.org/Graphics/SVG/1.1/DTD/svg11.dtd"><svg class="icon" width="200px" height="200.00px" viewBox="0 0 1024 1024" version="1.1" xmlns="http://www.w3.org/2000/svg"><path d="M566.4 192a97.92 97.92 0 1 0 97.92-97.92A98.56 98.56 0 0 0 566.4 192z m0 0"  /><path d="M825.6 259.84a144.64 144.64 0 0 1-212.48 39.68L576 279.68a244.48 244.48 0 0 0-346.24 74.88c-37.12 52.48 48.64 101.76 85.12 49.92a139.52 139.52 0 0 1 165.12-64c-32 56.32-60.16 111.36-99.84 192s-128 141.44-211.2 92.8a51.2 51.2 0 1 0-54.4 87.04 248.96 248.96 0 0 0 320-64l7.68 3.2a645.12 645.12 0 0 1 151.68 90.24 784.64 784.64 0 0 1 83.84 159.36 49.28 49.28 0 0 0 89.6-41.6 754.56 754.56 0 0 0-103.04-187.52 883.2 883.2 0 0 0-128-85.12c30.72-58.88 64-117.12 95.36-174.08a241.92 241.92 0 0 0 278.4-106.24c37.12-51.84-48.64-101.12-85.12-49.92z m0 0"  /></svg>
