<?xml version="1.0" standalone="no"?><!DOCTYPE svg PUBLIC "-//W3C//DTD SVG 1.1//EN" "http://www.w3.org/Graphics/SVG/1.1/DTD/svg11.dtd"><svg class="icon" width="200px" height="200.00px" viewBox="0 0 1024 1024" version="1.1" xmlns="http://www.w3.org/2000/svg"><path d="M761.005702 560.54053c0-20.468171 15.533788-37.007869 34.524305-37.007869 19.040658 0 34.603099 16.539698 34.603099 37.007869l0 361.774557c0 20.470217-15.562441 37.010939-34.603099 37.010939l-0.919952 0L225.556641 959.326025c-19.066241 0-34.628682-16.540721-34.628682-37.010939L190.927959 921.521001l0-360.981495c0-20.468171 15.562441-37.007869 34.628682-37.007869 19.22076 0 34.603099 16.539698 34.603099 37.007869l0 324.925301 111.179149 0L371.338888 520.479115c0-12.252045 9.239432-22.137183 20.704554-22.137183l0.563842 0 236.511645 0c11.440563 0 20.704554 9.885138 20.704554 22.137183l0 0.61603 0 364.371708L761.005702 885.466853 761.005702 560.54053 761.005702 560.54053zM412.827815 885.46583L412.827815 885.46583l195.435111 0L608.262926 542.694069 412.827815 542.694069 412.827815 885.46583 412.827815 885.46583zM120.009769 570.71731L120.009769 570.71731l390.56016-417.4813 390.383128 417.4813c13.511735 14.174837 35.447327 14.174837 48.933479 0 13.486152-14.567787 13.486152-37.96466 0-52.318576L535.599999 75.371618l-0.563842-0.873903c-13.564947-14.175861-35.344996-14.175861-48.90892 0L71.175551 518.398734c-13.410428 14.354939-13.410428 37.750789 0 52.318576C84.66375 584.892147 106.674043 584.892147 120.009769 570.71731L120.009769 570.71731z"  /></svg>
