<?xml version="1.0" standalone="no"?><!DOCTYPE svg PUBLIC "-//W3C//DTD SVG 1.1//EN" "http://www.w3.org/Graphics/SVG/1.1/DTD/svg11.dtd"><svg class="icon" width="200px" height="200.00px" viewBox="0 0 1024 1024" version="1.1" xmlns="http://www.w3.org/2000/svg"><path d="M886.784 240.75377778H134.94044445c-15.13244445 0-27.30666667 12.17422222-27.30666667 27.30666667v491.86133333c0 15.13244445 12.17422222 27.30666667 27.30666667 27.30666667h114.688c8.30577778 0 16.04266667-3.75466667 21.27644444-10.12622223l152.80355556-189.44 69.74577777 57.57155556c11.15022222 9.216 27.53422222 8.07822222 37.43288889-2.50311111l135.62311111-146.31822222c13.19822222 8.07822222 28.672 12.62933333 45.28355556 12.62933333 48.128 0 87.38133333-39.13955555 87.38133333-87.38133333s-39.13955555-87.38133333-87.38133333-87.38133334c-48.128 0-87.38133333 39.13955555-87.38133333 87.38133334 0 11.60533333 2.27555555 22.75555555 6.48533333 32.88177777L508.35911111 586.63822222 437.248 527.92888889c-5.57511111-4.66488889-12.85688889-6.82666667-20.13866667-6.144-7.28177778 0.68266667-13.88088889 4.32355555-18.54577778 10.01244444L236.65777778 732.61511111h-74.41066667V295.36711111h697.11644444v437.248h-376.60444444c-15.13244445 0-27.30666667 12.17422222-27.30666666 27.30666667v133.91644444h-160.42666667c-15.13244445 0-27.30666667 12.17422222-27.30666667 27.30666667s12.17422222 27.30666667 27.30666667 27.30666666H662.18666667c15.13244445 0 27.30666667-12.17422222 27.30666666-27.30666666s-12.17422222-27.30666667-27.30666666-27.30666667H510.06577778v-106.60977777h376.60444444c15.13244445 0 27.30666667-12.17422222 27.30666667-27.30666667V268.06044445c0.11377778-15.13244445-12.17422222-27.30666667-27.19288889-27.30666667zM711.79377778 388.77866667c18.09066667 0 32.768 14.67733333 32.768 32.768s-14.67733333 32.768-32.768 32.768-32.768-14.67733333-32.768-32.768 14.67733333-32.768 32.768-32.768z" /></svg>
