<?xml version="1.0" standalone="no"?><!DOCTYPE svg PUBLIC "-//W3C//DTD SVG 1.1//EN" "http://www.w3.org/Graphics/SVG/1.1/DTD/svg11.dtd"><svg class="icon" width="200px" height="193.57px" viewBox="0 0 1058 1024" version="1.1" xmlns="http://www.w3.org/2000/svg"><path d="M876.7488 560.47104c2.8416 7.86944 0.24064 16.74752 0.24064 24.58112v265.85088c0 37.79072-6.9888 68.44928-45.10208 68.44928h-583.168c-38.12864 0-45.1072-30.65856-45.1072-68.44928v-265.85088c-0.03584-8.0384-2.6112-17.08544 0.256-24.58112-28.79488-9.30816-44.86656-14.90944-44.86656-44.86144V336.1792c0-37.77536 6.74816-44.8512 44.86656-44.8512h672.88576c38.07232 0 43.4176 7.74144 44.86656 44.8512v179.4304c-0.32768 30.01856-16.01024 35.75808-44.87168 44.86144zM517.86752 336.1792H203.86816v134.57408c-0.0256 5.2992-3.80928 41.1136 0 44.86144h314.00448V336.1792z m0 224.29184H248.71936v314.03008h269.15328v-314.03008z m44.8512 314.03008h269.16864v-314.03008h-269.16864v314.03008zM876.7488 336.1792h-314.03008v179.4304h314.03008V336.1792zM729.72288 291.32288c7.71584-13.27104 12.4416-28.4416 12.4416-44.86656 0-49.54624-40.1664-89.72288-89.71264-89.72288s-89.728 40.17664-89.728 89.72288c0 16.42496 4.74624 31.59552 12.45184 44.86656h-69.7344c7.70048-13.27104 12.43136-28.4416 12.43136-44.86656 0-49.54624-40.17152-89.72288-89.70752-89.72288-49.55136 0-89.71776 40.17664-89.71776 89.72288 0 16.42496 4.72064 31.59552 12.42112 44.86656h-49.06496c-4.99712-14.09024-8.2176-29.05088-8.2176-44.86656 0-74.33216 60.24704-134.5792 134.5792-134.5792 46.8736 0 88.04864 24.00256 112.13824 60.33408 24.09984-36.33152 65.28-60.33408 112.14848-60.33408 74.33728 0 134.5792 60.24704 134.5792 134.5792 0 15.81568-3.21024 30.77632-8.2432 44.86656h-49.06496z"  /></svg>
