<?xml version="1.0" standalone="no"?><!DOCTYPE svg PUBLIC "-//W3C//DTD SVG 1.1//EN" "http://www.w3.org/Graphics/SVG/1.1/DTD/svg11.dtd"><svg class="icon" width="200px" height="200.00px" viewBox="0 0 1024 1024" version="1.1" xmlns="http://www.w3.org/2000/svg"><path d="M512 512m-510.272 0a510.272 510.272 0 1 0 1020.544 0 510.272 510.272 0 1 0-1020.544 0Z" fill="#FFED9E" /><path d="M599.296 413.888H506.24a81.728 81.728 0 0 0-81.6 77.504v0.064l-0.064 2.048v116.608H517.76c39.104 0 71.744-27.52 79.808-64.128a8.32 8.32 0 0 1 0.256-1.344l0.768-4.096 0.192-1.92a98.688 98.688 0 0 0 0.704-10.24c-0.064 0 0-107.904-0.192-114.496z" fill="#F7A500" /><path d="M393.728 487.552v122.56H323.2a81.664 81.664 0 0 1-81.6-81.6v-194.56c0-45.056 36.544-81.6 81.6-81.664h194.56c45.12 0 81.664 36.544 81.664 81.6v48.384h-100.48a105.28 105.28 0 0 0-105.216 105.28z m131.328 154.176h-100.48v48.384c0 45.12 36.608 81.664 81.664 81.664h194.56a81.728 81.728 0 0 0 81.6-81.664v-194.56c0-44.992-36.608-81.536-81.6-81.536H630.272v122.496c0 58.112-47.168 105.216-105.216 105.216z" fill="#fbc94f" /></svg>