<?xml version="1.0" standalone="no"?><!DOCTYPE svg PUBLIC "-//W3C//DTD SVG 1.1//EN" "http://www.w3.org/Graphics/SVG/1.1/DTD/svg11.dtd"><svg class="icon" width="200px" height="193.57px" viewBox="0 0 1058 1024" version="1.1" xmlns="http://www.w3.org/2000/svg"><path d="M521.79456 983.04c-118.4768 0-236.91776-45.12768-327.04-135.30624-180.34176-180.33152-180.34176-473.7536 0-654.05952 180.20352-180.3008 473.67168-180.39808 653.99808 0 87.32672 87.33696 135.41376 203.53024 135.41376 327.13216 0 123.48416-48.09216 239.7952-135.41376 327.00416C758.6304 938.04032 640.16384 983.04 521.79456 983.04z m0-884.79232c-106.00448 0-211.8656 41.20064-292.47488 123.56608-161.29536 164.7872-161.29536 432.9728 0 597.7856a407.99744 407.99744 0 0 0 585.04192 0c78.07488-79.86176 121.06752-185.89184 121.06752-298.7776 0-112.94208-43.08992-219.11552-121.14432-298.90048-80.59392-82.47296-186.5984-123.6736-292.49024-123.6736z m-2.99008 723.07712l-25.87648-47.17056c-21.89312-39.97184-56.00768-84.03456-96.19456-124.2112-40.17152-40.16128-84.352-74.38848-124.2112-96.24576l-47.17568-25.9072 47.17568-25.9072c39.9872-21.86752 84.03968-56.0896 124.2112-96.24064 40.17664-40.17664 74.29632-84.25472 96.19456-124.22144l25.87648-47.1808 25.89184 47.1808c21.89312 39.9616 56.09984 84.0448 96.28672 124.22144 40.1664 40.15104 84.15744 74.2656 124.2368 96.24064l47.17056 25.9072-47.17056 25.9072c-39.98208 21.85728-84.07552 56.09472-124.2368 96.24576-40.18688 40.17664-74.28608 84.23936-96.28672 124.2112l-25.89184 47.17056z m-199.02464-293.53472c36.34688 25.00096 73.07264 55.7568 108.17024 90.86976 34.97984 35.06176 65.87392 71.79264 90.83904 108.16 25.00608-36.36736 55.78752-73.09824 90.91584-108.16 35.05152-35.11296 71.78752-65.8688 108.18048-90.86976-36.38784-24.9856-73.12896-55.78752-108.18048-90.85952-35.1232-35.10784-65.90976-71.78752-90.91584-108.18048-24.96512 36.38784-55.77728 73.06752-90.83904 108.18048-34.97984 35.23072-71.82848 65.87392-108.17024 90.85952z"  /></svg>
