<?xml version="1.0" standalone="no"?><!DOCTYPE svg PUBLIC "-//W3C//DTD SVG 1.1//EN" "http://www.w3.org/Graphics/SVG/1.1/DTD/svg11.dtd"><svg class="icon" width="200px" height="200.00px" viewBox="0 0 1024 1024" version="1.1" xmlns="http://www.w3.org/2000/svg"><path d="M1.728 512a510.272 510.272 0 1 0 1020.544 0A510.272 510.272 0 0 0 1.728 512z" fill="#C3E9FF" /><path d="M439.232 339.072a104.448 104.448 0 1 0 208.96 0 104.448 104.448 0 0 0-208.96 0z" fill="#59A3E9" /><path d="M706.88 789.504h-13.056c-13.056 0-26.048-32.64-39.104-58.752-13.12 6.592-45.76 13.056-84.864 13.056h-26.176c-39.168-6.528-65.28-6.528-78.336-6.528a56.64 56.64 0 0 1-26.176 45.632c-6.528 6.592-19.584 6.592-32.64 6.592-13.056 0-32.64-6.592-39.168-6.592s-6.528-6.528-6.528-13.056v-65.28c0-26.112-13.056-32.64-13.056-32.64-91.392-39.168-130.56-97.92-137.088-143.616-6.528-26.112-6.528-39.168 0-45.696 6.528-6.592 13.056-6.592 19.584-6.592H236.8c13.056 0 39.168-6.528 45.696-26.112 6.528-19.584 19.584-26.112 26.112-32.64h6.528v-12.992c0-26.112-6.528-45.696-13.056-52.16v-13.056c0-6.592 13.056-6.592 19.584-6.592 45.696 6.592 78.4 32.64 91.392 39.168 45.696-26.112 91.392-39.168 143.616-39.168 32.64 0 71.808 0 124.032 19.648 150.208 52.16 137.152 182.72 137.152 189.312 0 45.696-26.112 84.8-45.696 110.976-13.056 19.584-19.648 58.752-26.112 84.864 0 6.528 0 19.584-6.528 26.048 6.528 19.584-6.528 26.176-32.64 26.176z m-359.04-300.288c-6.528 0-13.056 6.528-13.056 13.056s6.592 19.584 19.584 19.584c13.056 0 13.056-6.528 13.056-19.584s-6.528-13.056-19.584-13.056z" fill="#006FD3" /></svg>