<?xml version="1.0" standalone="no"?><!DOCTYPE svg PUBLIC "-//W3C//DTD SVG 1.1//EN" "http://www.w3.org/Graphics/SVG/1.1/DTD/svg11.dtd"><svg class="icon" width="200px" height="200.00px" viewBox="0 0 1024 1024" version="1.1" xmlns="http://www.w3.org/2000/svg"><path d="M1.728 512a510.272 510.272 0 1 0 1020.608 0A510.272 510.272 0 0 0 1.728 512z" fill="#C3E9FF" /><path d="M758.464 311.616a23.104 23.104 0 0 1-0.064 32.832l-37.568 37.248a23.552 23.552 0 0 1-16.448 6.784 23.168 23.168 0 0 1-16.32-39.68l37.568-37.312a23.168 23.168 0 0 1 32.832 0.128zM605.056 294.208l84.544-84.608a23.296 23.296 0 0 1 32.896 32.832L637.888 326.976a22.784 22.784 0 0 1-16.448 6.784 23.232 23.232 0 0 1-16.384-39.552zM301.376 639.36L222.72 718.08a23.168 23.168 0 1 1-32.832-32.896l78.656-78.656c9.088-9.024 23.744-9.024 32.832 0s9.152 23.744 0 32.832c0.064 0 0 0 0 0z" fill="#59A3E9" /><path d="M769.408 486.144L677.12 588.352a14.976 14.976 0 0 0-4.032 12.288l14.144 136.704a30.336 30.336 0 0 1-30.016 33.92 29.696 29.696 0 0 1-12.544-2.88l-126.016-55.488a15.68 15.68 0 0 0-13.632 0l-125.632 55.488a29.632 29.632 0 0 1-30.528-3.2 28.672 28.672 0 0 1-12.032-28.032l14.208-136.384a14.272 14.272 0 0 0-4.096-12.224l-92.16-102.464a28.672 28.672 0 0 1-6.4-29.888 29.696 29.696 0 0 1 22.464-20.224l134.784-28.416a16 16 0 0 0 10.88-7.936L485.76 280.64a29.248 29.248 0 0 1 26.368-15.168c11.136 0 20.608 5.568 26.304 15.168l68.672 118.784c2.56 4.288 6.272 6.848 11.52 8.064l134.592 28.288a30.528 30.528 0 0 1 16.192 50.368z" fill="#006FD3" /></svg>