<?xml version="1.0" standalone="no"?><!DOCTYPE svg PUBLIC "-//W3C//DTD SVG 1.1//EN" "http://www.w3.org/Graphics/SVG/1.1/DTD/svg11.dtd"><svg class="icon" width="200px" height="198.45px" viewBox="0 0 1032 1024" version="1.1" xmlns="http://www.w3.org/2000/svg"><path d="M507.623635 1015.72325A503.723168 503.723168 0 0 1 516.376857 8.276915h8.918378a503.723168 503.723168 0 0 1-8.588067 1007.446335z" fill="#FFFFFF" /><path d="M516.376857 0.019158v16.515514h8.753223A495.465411 495.465411 0 0 1 516.376857 1007.465493h-8.753222A495.465411 495.465411 0 0 1 516.376857 16.534672V0.019158m0 0a511.980925 511.980925 0 0 0-8.753222 1023.961849H516.376857a511.980925 511.980925 0 0 0 8.753223-1023.961849z" fill="#DCDFE6" /><path d="M421.412654 407.126571c0 74.650122 86.210981 129.316472 165.155137 69.530312 59.621004-78.283535 5.119809-165.155137-69.530313-165.155137a94.799049 94.799049 0 0 0-94.964204 94.964204z m0 0" fill="#FFAC00" /><path d="M546.600248 504.402946L516.376857 534.626336l-30.22339-30.22339A190.093563 190.093563 0 0 0 326.44845 692.019182h379.856815a190.093563 190.093563 0 0 0-159.705017-187.616236zM516.376857 664.933739l-33.031027-33.031027 33.031027-97.606686 33.031028 97.606686z m0 0" fill="#FFAC00" /></svg>