<?xml version="1.0" standalone="no"?><!DOCTYPE svg PUBLIC "-//W3C//DTD SVG 1.1//EN" "http://www.w3.org/Graphics/SVG/1.1/DTD/svg11.dtd"><svg class="icon" width="200px" height="198.45px" viewBox="0 0 1032 1024" version="1.1" xmlns="http://www.w3.org/2000/svg"><path d="M507.623635 1015.72325A503.723168 503.723168 0 0 1 516.376857 8.276915h8.918378a503.723168 503.723168 0 0 1-8.588067 1007.446335z" fill="#FFFFFF" /><path d="M516.376857 0.019158v16.515514h8.753223A495.465411 495.465411 0 0 1 516.376857 1007.465493h-8.753222A495.465411 495.465411 0 0 1 516.376857 16.534672V0.019158m0 0a511.980925 511.980925 0 0 0-8.753222 1023.961849H516.376857a511.980925 511.980925 0 0 0 8.753223-1023.961849z" fill="#DCDFE6" /><path d="M551.885212 338.587189h-74.154657a18.66253 18.66253 0 0 0 0 37.159906h74.650122a18.827686 18.827686 0 0 0 0-37.159906z m80.430552 12.386635h-36.829596a38.150837 38.150837 0 0 1 0 6.11074c0 15.689738-11.065394 31.049166-24.11265 31.049166h-112.966114A29.397614 29.397614 0 0 1 433.799289 357.084564a25.599046 25.599046 0 0 1 0-6.11074h-36.994751c-29.89308 0-37.325061 17.506445-37.325061 42.610025v249.549412c0 27.085442 10.569929 42.279715 39.637233 42.279715h231.217192c29.067304 0 43.270646-11.89117 43.270646-42.279715V393.583849A38.150837 38.150837 0 0 0 631.985453 350.973824z m-37.985682 246.411464H433.799289a14.368497 14.368497 0 0 1-11.89117-13.542721 11.230549 11.230549 0 0 1 10.900239-11.230549h160.035328a11.726015 11.726015 0 0 1 11.395704 11.230549c0 6.11074-4.128878 13.542721-10.074463 13.542721z m0-66.062054h-159.705017c-5.945585 0-9.744153-6.606205-9.744153-12.551791a12.056325 12.056325 0 0 1 10.900239-12.22148h160.035327a12.55179 12.55179 0 0 1 11.395705 12.22148 13.707876 13.707876 0 0 1-12.22148 12.551791z m0-67.878762h-159.705017c-5.945585 0-9.744153-6.606205-9.744153-12.55179a12.056325 12.056325 0 0 1 10.900239-12.22148h160.035327a12.55179 12.55179 0 0 1 11.395705 12.22148 13.707876 13.707876 0 0 1-12.22148 12.55179z m0 0" fill="#2EC061" /></svg>