<?xml version="1.0" standalone="no"?><!DOCTYPE svg PUBLIC "-//W3C//DTD SVG 1.1//EN" "http://www.w3.org/Graphics/SVG/1.1/DTD/svg11.dtd"><svg class="icon" width="200px" height="198.45px" viewBox="0 0 1032 1024" version="1.1" xmlns="http://www.w3.org/2000/svg"><path d="M507.623635 1015.72325A503.723168 503.723168 0 0 1 516.376857 8.276915h8.918378a503.723168 503.723168 0 0 1-8.588067 1007.446335z" fill="#FFFFFF" /><path d="M516.376857 0.019158v16.515514h8.753223A495.465411 495.465411 0 0 1 516.376857 1007.465493h-8.753222A495.465411 495.465411 0 0 1 516.376857 16.534672V0.019158m0 0a511.980925 511.980925 0 0 0-8.753222 1023.961849H516.376857a511.980925 511.980925 0 0 0 8.753223-1023.961849z" fill="#DCDFE6" /><path d="M318.190693 439.992443l1.321241-3.468258a24.44296 24.44296 0 0 1 21.635323-16.515514 24.938426 24.938426 0 0 1 23.947495 13.212411 23.286874 23.286874 0 0 1-3.303103 26.259667l-2.312172 2.972792c18.33222 11.065394 36.66444 21.800478 54.831506 33.031028l20.644392 12.386635a6.275895 6.275895 0 0 0 5.119809 1.156086 5.78043 5.78043 0 0 0 3.963723-3.303103l63.089263-111.314562a24.773271 24.773271 0 0 1-15.524583-21.635323 22.461099 22.461099 0 0 1 7.431981-18.167065 25.103581 25.103581 0 0 1 18.662531-7.762291 25.599046 25.599046 0 0 1 18.00191 8.918377c10.404774 12.386635 6.606205 26.920287-9.909309 37.820526 5.284964 9.578998 10.569929 19.323151 16.515514 28.902149l45.582818 80.430552c3.468258 6.11074 5.78043 6.771361 11.89117 3.137948l70.190933-41.949405 3.303103-1.981862a24.938426 24.938426 0 0 1-8.257757-16.515513 24.11265 24.11265 0 0 1 20.479237-25.103581 24.938426 24.938426 0 0 1 28.076373 16.515513l0.990931 2.807638v8.257757a25.599046 25.599046 0 0 1-26.259667 19.818616l-1.486396 4.294034-41.288784 137.243918c-1.816707 5.945585-3.963723 7.431981-10.239619 7.431982H397.795469c-6.606205 0-8.753222-1.486396-10.569929-7.431982q-16.515514-55.657281-33.031027-111.479717c-2.972792-10.074463-5.945585-19.983772-9.083533-30.058235a25.103581 25.103581 0 0 1-23.452029-12.882101 62.593797 62.593797 0 0 1-2.972792-6.936515z m198.186164 201.158957h110.984253a18.66253 18.66253 0 0 1 19.323151 16.515513A18.167065 18.167065 0 0 1 631.985453 677.15522H405.22745a18.497375 18.497375 0 0 1-18.00191-12.221481 16.515514 16.515514 0 0 1 6.441051-19.983771 22.956564 22.956564 0 0 1 12.22148-3.633413h110.323631z m0 0" fill="#F75D5A" /></svg>