<?xml version="1.0" standalone="no"?><!DOCTYPE svg PUBLIC "-//W3C//DTD SVG 1.1//EN" "http://www.w3.org/Graphics/SVG/1.1/DTD/svg11.dtd"><svg class="icon" width="200px" height="200.00px" viewBox="0 0 1024 1024" version="1.1" xmlns="http://www.w3.org/2000/svg"><path d="M512 512m-510.272 0a510.272 510.272 0 1 0 1020.544 0 510.272 510.272 0 1 0-1020.544 0Z" fill="#C3E9FF" /><path d="M663.168 277.44l-223.04-39.872-52.736 39.872 140.032 106.624M342.848 312.064L236.48 507.968l29.376 57.856 138.944-95.232M271.872 623.168l152.64 162.304 65.536 1.024-46.272-165.824M556.032 785.472l201.472-95.168 12.864-65.344-169.472-1.344M787.52 562.048l-28.16-227.52-57.536-30.016-56 162.496" fill="#006FD3" /><path d="M387.392 277.44l52.736-39.872 223.04 39.872zM342.848 312.064L236.48 507.968l29.376 57.856zM271.872 623.168l218.176 163.328-65.536-1.024zM770.368 624.96l-12.864 65.344-201.472 95.168zM701.824 304.512l57.536 30.016 28.16 227.52z" fill="#59A3E9" /></svg>