<?xml version="1.0" standalone="no"?><!DOCTYPE svg PUBLIC "-//W3C//DTD SVG 1.1//EN" "http://www.w3.org/Graphics/SVG/1.1/DTD/svg11.dtd"><svg class="icon" width="200px" height="200.00px" viewBox="0 0 1024 1024" version="1.1" xmlns="http://www.w3.org/2000/svg"><path d="M985.25730133 867.12356409h-72.00221866c0-159.05732835-128.95737173-288.00887467-288.00887467-288.00887467-159.07480462 0-288.00887467 128.95737173-288.00887467 288.00887467H265.23511467c0-148.71720391 90.21248853-276.34637938 218.87858915-331.26263467C417.22038045 490.56827165 373.23844267 413.97562027 373.23844267 327.09527325 373.23844267 187.91428551 486.05356942 75.09333333 625.24038258 75.09333333c139.15768605 0 252.00776533 112.82095218 252.00776533 252.00193992 0 86.88034702-43.97611235 163.4729984-110.886912 208.75983075 128.68357689 54.92208071 218.89606542 182.55125618 218.89606542 331.26846009z m-180.00554666-540.02829084c0-99.39917938-80.57724018-179.99972125-180.00554667-179.99972125-99.42248107 0-180.00554667 80.60054187-180.00554667 179.99972125 0 99.41083022 80.5830656 180.01137209 180.00554667 180.01137208 99.42830649 0 180.00554667-80.60054187 180.00554667-180.01137208zM193.232896 399.10331733c0 49.09665849 32.9777152 90.09598009 77.83346631 103.20900552a406.39893049 406.39893049 0 0 0 19.9753728 75.7363143c-19.88216605-1.11265565-38.60507307-6.04096285-56.25027698-13.07224746-6.3438848 11.7440512-12.69359502 23.4881024-17.63355306 35.8612992-56.81534293 30.3038464-95.92722773 89.40858027-95.92722774 158.27089636H49.22845867c0-97.45348835 55.38811449-181.68326827 136.34400711-223.59718116C146.52466062 502.69097529 121.23067733 454.18268445 121.23067733 399.10331733c0-99.4050048 80.5830656-180.00554667 179.99972125-180.00554666 8.22549618 0 16.08399075 1.35149795 24.01821582 2.42920106a400.91720818 400.91720818 0 0 0-34.20687929 70.61576818c-54.79392142 5.1904512-97.80883911 50.81515805-97.80883911 106.96057742z m432.08321707 354.59927609c10.12458382 0 19.36370347-3.58846009 27.17559466-9.20999253a46.00918471 46.00918471 0 0 1-26.26100338 8.22549618c-26.55227449 0-48.17041635-22.78905173-48.17041635-50.81515805 0-28.01445547 21.61814187-50.79768178 48.17041635-50.79768177 26.50567111 0 48.08886045 22.78322631 48.08886045 50.79768177 0 15.09366898-6.22155093 28.45136213-16.10146702 37.76038685 0 0 0.13981013 0 0.13981013-0.13981014l38.89051876 151.84545565-75.84699734 83.74626987-68.16326542-84.44532054 39.40898134-150.61629156c8.61579947 8.40608427 20.04527787 13.64896427 32.66896782 13.64896427z"  /></svg>
