<?xml version="1.0" standalone="no"?><!DOCTYPE svg PUBLIC "-//W3C//DTD SVG 1.1//EN" "http://www.w3.org/Graphics/SVG/1.1/DTD/svg11.dtd"><svg class="icon" width="200px" height="193.57px" viewBox="0 0 1058 1024" version="1.1" xmlns="http://www.w3.org/2000/svg"><path d="M536.68864 153.29792c100.608 0 182.8096 81.96608 182.8096 182.2976 0 100.34688-82.2016 182.31296-182.8096 182.31296-100.59776 0-182.80448-81.9712-182.80448-182.31296 0.00512-100.33152 82.20672-182.2976 182.80448-182.2976m0-48.9216c-127.616 0-231.87968 104.00256-231.87968 231.2192 0 127.24736 104.25856 231.23456 231.87968 231.23456 127.616 0 231.88992-103.99232 231.88992-231.23456 0-127.21664-104.27392-231.2192-231.88992-231.2192z m0 0"  /><path d="M193.13152 911.84128c-13.48608 0-24.51456-11.01824-24.51456-24.45824 0-203.08992 165.64736-367.01696 368.07168-367.01696 66.25792 0 132.49536 18.34496 188.928 51.36384 11.05408 7.3472 15.96928 22.03648 8.6016 33.0496-7.36256 10.99264-22.08256 15.8976-33.12128 8.56064-49.08032-29.3632-105.50784-45.28128-163.17952-45.28128-175.4624 0-319.01184 143.13984-319.01184 318.08512-1.22368 14.67392-12.25216 25.69728-25.77408 25.69728z m667.42272-178.51904H641.792c-13.52192 0-24.58624-10.28096-24.58624-22.88128 0-12.59008 11.06432-22.8864 24.58624-22.8864h220.00128c13.51168 0 24.58112 10.29632 24.58112 22.8864-0.00512 12.60032-12.3136 22.88128-25.82016 22.88128z m0 89.26208H641.792c-13.52192 0-24.58624-10.2912-24.58624-22.89152 0-12.56448 11.06432-22.88128 24.58624-22.88128h220.00128c13.51168 0 24.58112 10.3168 24.58112 22.88128-0.00512 12.60032-12.3136 22.89152-25.82016 22.89152z m0 89.25696H641.792c-13.52192 0-24.58624-10.2912-24.58624-22.88128 0-12.60032 11.06432-22.89152 24.58624-22.89152h220.00128c13.51168 0 24.58112 10.2912 24.58112 22.89152-0.00512 12.59008-12.3136 22.88128-25.82016 22.88128z m0 0"  /></svg>
