<?xml version="1.0" standalone="no"?><!DOCTYPE svg PUBLIC "-//W3C//DTD SVG 1.1//EN" "http://www.w3.org/Graphics/SVG/1.1/DTD/svg11.dtd"><svg class="icon" width="200px" height="200.00px" viewBox="0 0 1024 1024" version="1.1" xmlns="http://www.w3.org/2000/svg"><path d="M1.728 512a510.272 510.272 0 1 0 1020.608 0A510.272 510.272 0 0 0 1.728 512z" fill="#C3E9FF" /><path d="M697.728 490.56L512 168.96 326.272 490.56A214.272 214.272 0 0 0 512 811.84a214.272 214.272 0 0 0 185.728-321.28" fill="#59A3E9" /><path d="M326.656 590.208a165.248 165.248 0 0 0-2.368 25.472C322.496 713.408 408.32 792.64 512 792.64s187.136-79.168 187.776-176.96a127.872 127.872 0 0 0-2.304-25.472s-42.944-75.072-185.408 0c-142.528 75.136-185.408 0-185.408 0z" fill="#006FD3" /><path d="M476.544 418.816a13.12 13.12 0 0 1 10.816-5.632c7.104 0 13.312 6.08 13.312 13.568v211.84a13.312 13.312 0 0 1-13.12 13.568h-0.192a13.568 13.568 0 0 1-13.312-13.568V519.36h-37.376c-14.656 0-20.224-9.856-12.288-22.272l45.184-70.784a20.992 20.992 0 0 1 6.976-7.488z m72.384 225.92a13.12 13.12 0 0 1-11.648 6.848 13.44 13.44 0 0 1-13.248-13.44V426.24c0-7.616 5.952-13.504 13.248-13.504 7.104 0 13.312 6.016 13.312 13.504v119.296h36.8c14.656 0 20.032 9.984 12.096 22.144l-48.064 73.664a21.184 21.184 0 0 1-2.496 3.392z" fill="#ffffff" /></svg>