<?xml version="1.0" standalone="no"?><!DOCTYPE svg PUBLIC "-//W3C//DTD SVG 1.1//EN" "http://www.w3.org/Graphics/SVG/1.1/DTD/svg11.dtd"><svg class="icon" width="200px" height="200.00px" viewBox="0 0 1024 1024" version="1.1" xmlns="http://www.w3.org/2000/svg"><path d="M1.728 512a510.272 510.272 0 1 0 1020.544 0A510.272 510.272 0 0 0 1.728 512z" fill="#C3E9FF" /><path d="M382.016 717.056c-19.968 3.072-38.016 5.696-56 8.576-15.744 2.432-26.816-7.424-25.344-23.36 1.536-15.808 3.584-31.616 5.632-47.36 1.408-11.072 1.344-11.648-9.344-14.784-16-4.928-32-9.664-48.128-14.272-14.848-4.16-20.544-17.856-12.352-30.784 9.6-15.296 19.392-30.528 29.376-45.568 2.816-4.224 2.368-6.656-1.472-9.984a1886.528 1886.528 0 0 1-41.344-36.864c-10.368-9.536-9.088-23.808 2.752-31.36 15.744-10.048 31.616-19.84 47.552-29.504 4.352-2.688 5.12-5.312 3.072-9.92-6.656-15.36-12.864-30.976-19.392-46.464-6.72-16.128-0.256-28.48 17.152-31.04 17.024-2.496 34.048-4.16 51.2-5.824 5.824-0.576 9.792-1.344 10.048-8.896 0.512-15.488 2.112-30.912 3.264-46.4 0.448-5.504 0.512-11.136 3.584-16a19.712 19.712 0 0 1 23.424-8.192c17.728 5.504 35.52 11.456 53.056 17.728 5.504 1.984 8.32 0.832 11.072-4.224 8.448-15.232 17.472-30.144 26.176-45.248 7.552-13.184 22.848-15.552 33.792-4.992 13.568 13.12 27.264 26.112 40.704 39.424 3.136 3.136 5.44 1.792 8.256-0.064 14.72-9.92 29.504-19.904 44.416-29.696 15.744-10.368 29.056-5.568 35.264 12.224 5.632 16 11.584 31.936 17.216 48 1.28 3.712 3.136 4.992 6.976 4.352 18.624-2.816 37.312-5.376 56-8.256 14.848-2.304 26.176 7.872 24.704 22.784a2007.68 2007.68 0 0 1-5.632 48.064c-1.408 11.2-1.216 11.776 9.92 14.912 15.68 4.48 31.36 9.088 46.976 13.76 16.512 4.992 21.184 18.176 11.904 32.704-9.216 14.528-18.496 29.12-27.968 43.392-2.88 4.352-2.944 6.848 1.216 10.496 13.888 11.904 27.456 24.128 40.896 36.544 11.136 10.304 9.408 24.448-3.456 32.512-15.36 9.472-30.656 19.136-46.08 28.352-4.8 2.944-5.44 5.888-3.264 10.944 6.72 15.36 12.992 30.848 19.392 46.464 6.464 15.808-0.384 27.904-17.472 30.208a1559.04 1559.04 0 0 1-51.712 6.016c-6.08 0.64-9.216 2.432-9.472 9.024-0.768 15.488-2.112 30.912-3.2 46.4a37.76 37.76 0 0 1-3.008 14.848c-4.032 8.256-13.824 12.416-24.064 9.28a1172.864 1172.864 0 0 1-52.48-17.536c-6.08-2.24-8.896-0.96-11.968 4.608-8.256 15.04-17.152 29.824-25.856 44.608-8.128 13.76-22.72 15.616-34.176 4.544-13.44-12.992-26.944-25.792-40.256-38.912-3.264-3.2-5.504-1.728-8.256 0.128-14.656 9.792-29.248 19.648-43.968 29.376-16.384 10.816-29.568 6.08-36.032-12.544-5.312-15.488-11.2-30.656-16.448-46.208-1.6-4.864-3.84-7.04-6.848-6.016z" fill="#006FD3" /><path d="M665.856 585.408a82.752 82.752 0 0 0-10.944-43.776 57.536 57.536 0 0 0-93.376-12.16c-25.408 26.56-27.072 73.152-3.712 103.36 22.976 29.632 64.64 31.296 89.152 2.944 12.672-14.784 19.648-32.128 18.88-50.368zM482.56 449.024c-0.256-26.24-3.2-36.8-12.224-52.032a57.152 57.152 0 0 0-91.456-10.88c-26.56 27.328-27.968 77.056-2.816 105.792 22.528 25.728 57.408 28.672 82.048 6.656 17.024-15.296 24-35.008 24.448-49.536zM414.336 638.4c-0.128 2.88 1.472 4.8 3.776 6.208l10.88 6.656c6.912 4.544 10.112 4.032 14.656-3.008 8.832-13.76 17.408-27.712 26.24-41.408l101.888-158.72c11.776-18.432 23.424-36.992 35.072-55.424 4.544-7.232 3.776-10.56-3.648-15.04-3.2-1.984-6.592-3.84-9.792-5.888-5.184-3.2-9.216-2.112-12.352 2.944-1.408 2.368-3.008 4.672-4.48 6.976L497.28 505.664 416.704 631.872c-1.28 1.984-2.496 4.032-2.368 6.528z" fill="#ffffff" /><path d="M382.848 440.448a43.264 37.696 90 1 0 75.392 0 43.264 37.696 90 1 0-75.392 0Z" fill="#006FD3" /><path d="M566.976 584.064a43.2 37.696 90 1 0 75.392 0 43.2 37.696 90 1 0-75.392 0Z" fill="#006FD3" /></svg>