<?xml version="1.0" standalone="no"?><!DOCTYPE svg PUBLIC "-//W3C//DTD SVG 1.1//EN" "http://www.w3.org/Graphics/SVG/1.1/DTD/svg11.dtd"><svg class="icon" width="200px" height="200.00px" viewBox="0 0 1024 1024" version="1.1" xmlns="http://www.w3.org/2000/svg"><path d="M517.022476 574.610286c-134.607238-10.215619-209.310476 13.677714-248.905143 36.473905l0 286.939429c0 11.215238-9.118476 20.309333-20.309333 20.309333-11.264 0-20.333714-9.094095-20.333714-20.309333L227.474286 142.555429C203.873524 134.168381 186.855619 111.85981 186.855619 85.333333c0-33.670095 27.257905-60.952381 60.952381-60.952381 33.645714 0 60.952381 27.282286 60.952381 60.952381 0 26.502095-17.042286 48.810667-40.643048 57.222095l0 88.624762c57.709714-7.168 167.302095-1.974857 261.827048 111.34781 135.558095 162.474667 408.81981 100.376381 408.81981 100.376381S756.49219 592.774095 517.022476 574.610286L517.022476 574.610286zM247.808 64.999619C236.544 64.999619 227.474286 74.118095 227.474286 85.333333c0 11.215238 9.094095 20.309333 20.333714 20.309333 11.190857 0 20.309333-9.118476 20.309333-20.309333C268.117333 74.118095 258.998857 64.999619 247.808 64.999619L247.808 64.999619zM498.736762 368.566857c-68.193524-81.749333-144.457143-98.913524-196.388571-98.913524-13.06819 0-24.600381 1.097143-34.03581 2.486857l0 293.376c40.252952-18.505143 100.059429-33.962667 187.392-33.962667 20.48 0 42.179048 0.877714 64.438857 2.56 12.336762 0.926476 24.892952 1.414095 37.376 1.414095 79.506286 0 151.430095-19.163429 209.432381-42.422857C677.205333 485.595429 571.489524 455.826286 498.736762 368.566857L498.736762 368.566857zM186.855619 883.2c-36.400762 7.021714-60.976762 20.114286-60.976762 35.132952 0 19.017143 39.107048 34.889143 91.867429 39.375238 3.145143 0.731429 6.339048 1.29219 9.703619 1.29219l40.643048 0c3.34019 0 6.582857-0.536381 9.679238-1.29219 52.760381-4.510476 91.91619-20.358095 91.91619-39.375238 0-15.018667-24.576-28.111238-60.952381-35.132952l0-40.131048c59.538286 12.04419 101.571048 41.20381 101.571048 75.288381 0 44.909714-72.752762 81.286095-162.499048 81.286095-89.819429 0-162.57219-36.376381-162.57219-81.286095 0-34.06019 42.081524-63.24419 101.61981-75.288381L186.855619 883.2 186.855619 883.2z" /></svg>
