<?xml version="1.0" standalone="no"?><!DOCTYPE svg PUBLIC "-//W3C//DTD SVG 1.1//EN" "http://www.w3.org/Graphics/SVG/1.1/DTD/svg11.dtd"><svg class="icon" width="200px" height="200.00px" viewBox="0 0 1024 1024" version="1.1" xmlns="http://www.w3.org/2000/svg"><path d="M768.5 253.25l2.25-83.7c-2.25-43.2-39.15-76.5-82.8-74.7H178.55c-43.65-1.8-80.55 31.5-82.8 74.7v526.05c2.25 43.2 39.15 76.5 82.8 74.7h73.35l2.7-81.45H215c-14.4 1.8-36.9-25.2-39.6-39.6V213.65c2.7-14.4 25.2-41.4 39.6-39.6h435.6c14.4-1.8 36.9 25.2 39.6 39.6v39.6H333.35c-29.25-4.5-74.25 49.95-79.2 79.2v514.35c-3.6 18.45 19.8 41.85 31.5 56.25 11.7 14.4 29.7 22.95 48.6 22.5h509.85c43.2 1.8 80.1-31.5 82.8-74.7V317.6c0-40.95-33.75-64.35-79.2-64.35H768.5z m79.2 553.95c-2.7 14.4-25.2 41.4-39.6 39.6H372.95c-14.4 1.8-36.9-25.2-39.6-39.6L333.8 354.5c2.7-14.4-15.3-24.3-0.45-22.5h475.2c14.4-1.8 36.9 25.2 39.6 39.6v435.6h-0.45z m0 0" /></svg>
