<?xml version="1.0" standalone="no"?><!DOCTYPE svg PUBLIC "-//W3C//DTD SVG 1.1//EN" "http://www.w3.org/Graphics/SVG/1.1/DTD/svg11.dtd"><svg class="icon" width="200px" height="200.00px" viewBox="0 0 1024 1024" version="1.1" xmlns="http://www.w3.org/2000/svg"><path d="M919.552 141.312l-1.024 539.648-195.584-0.512c-13.824 0-26.624 2.56-39.424 7.68-12.288 5.12-23.552 12.8-33.792 22.528l-138.752 138.24-139.264-138.752c-4.608-5.12-9.728-9.728-15.36-13.824-5.632-3.584-11.776-6.656-17.408-9.216-6.144-2.048-12.288-4.096-19.456-5.632-6.656-1.536-13.824-2.048-20.48-2.56l-195.584-0.512 1.024-539.648 815.104 2.56z m22.528-102.4L82.432 37.376c-22.016 0-40.96 7.68-56.32 22.528-15.36 15.36-23.552 33.792-23.552 55.808L2.048 702.976c0 22.016 7.68 40.448 23.04 55.808s34.304 22.528 56.32 23.04l218.112 0.512L496.64 980.992c3.584 3.584 8.704 5.632 14.848 5.632 1.536 0 3.072-0.512 4.608-1.024l9.216-4.608 198.144-198.144 218.112 0.512c22.016 0 40.96-7.68 56.32-22.528 15.36-15.36 23.552-33.792 23.552-55.808l1.024-587.264c0-22.016-7.68-40.448-23.04-55.808-16.384-15.36-35.328-23.04-57.344-23.04z" /></svg>
