<?xml version="1.0" standalone="no"?><!DOCTYPE svg PUBLIC "-//W3C//DTD SVG 1.1//EN" "http://www.w3.org/Graphics/SVG/1.1/DTD/svg11.dtd"><svg class="icon" width="200px" height="198.45px" viewBox="0 0 1032 1024" version="1.1" xmlns="http://www.w3.org/2000/svg"><path d="M775.85084871 628.916224c-67.35935715 2.10297742-120.26584178 58.43481031-118.14538809 125.80581831 2.097152 67.35935715 58.42898489 120.26584178 125.80581831 118.15703894 65.9554304-2.06802489 118.3318016-56.19784818 118.21529316-122.19405654-1.04275058-68.3147264-57.26390045-122.82902755-125.55532516-121.78045156l-0.32039822 0.01165085z m81.91126187 89.82218525l-90.91736463 86.8220928c-10.37507698 9.82748729-15.83932302 8.19054365-20.4763591 3.81565155l-54.6016825-52.42297458a11.45278009 11.45278009 0 0 1 0-16.64905671 12.01202062 12.01202062 0 0 1 16.98110578-0.21554062l0.21554062 0.21554062 47.22669796 42.32169244 85.73273884-81.90543644a12.82757973 12.82757973 0 0 1 17.75006152 0 11.46443093 11.46443093 0 0 1 0 16.92285156l-1.91073849 1.09517938zM428.56830293 234.66912427h167.91197014a36.04771271 36.04771271 0 0 0 0-71.80415432H428.56830293a36.03606187 36.03606187 0 0 0 0 71.80415432z m351.10984818 365.03843271c18.74038329 0.06990507 37.28270222 3.76904818 54.60168249 10.91101582v-326.80618667c3.73409565-41.59934009-26.97170489-78.35192889-68.56521955-82.08019911a75.88194987 75.88194987 0 0 0-15.2567808 0.17476267h-76.16739556c6.33805938 32.40682382-14.7849216 63.82332587-47.20922169 70.16138524H394.71094898a57.32798009 57.32798009 0 0 1-50.78020551-59.79213368 85.79681849 85.79681849 0 0 1 0-11.73822578H267.48372765c-61.42907733 0-76.71498525 33.58355911-76.71498525 81.90543644v483.25372587c0 52.42297458 21.84533333 81.91708729 81.90543645 81.91708729h372.13379697c-52.37054578-66.82341831-40.66144711-163.43804587 26.15032036-215.80859165a153.68628907 153.68628907 0 0 1 108.71985493-32.09807644z m-426.18788978-215.42411378h327.6275712a25.10756978 25.10756978 0 0 1 23.20848214 23.47645155 27.30375395 27.30375395 0 0 1-24.8512512 24.2978361H351.84749227a22.66089245 22.66089245 0 0 1-19.92876942-24.2978361 23.73859555 23.73859555 0 0 1 22.3870976-23.47645155h-0.81555912z m147.4297856 318.07387875H350.75813831a22.66089245 22.66089245 0 0 1-19.65497458-24.29783608 23.7502464 23.7502464 0 0 1 22.11330276-23.48227698h149.07255466a25.11922062 25.11922062 0 0 1 23.47645156 23.48227698 27.30375395 27.30375395 0 0 1-24.84542578 24.29783608z m-151.53088284-132.9594368a27.30375395 27.30375395 0 0 1-24.02986667-27.30375395 22.39292302 22.39292302 0 0 1 22.11330276-21.57153849h326.81201209a23.19100587 23.19100587 0 0 1 23.19683128 21.57153849c0 12.01202062-8.1788928 27.30375395-20.4763591 27.30375395H349.38916409z"  /></svg>
