<?xml version="1.0" standalone="no"?><!DOCTYPE svg PUBLIC "-//W3C//DTD SVG 1.1//EN" "http://www.w3.org/Graphics/SVG/1.1/DTD/svg11.dtd"><svg class="icon" width="200px" height="199.80px" viewBox="0 0 1025 1024" version="1.1" xmlns="http://www.w3.org/2000/svg"><path d="M577.261 96.238v22.318c0 41.068 26.931 83.328 64.566 101.956l63.992 35.88c18.339 11.752 41.231 18.13 64.826 18.13 21.032 0 41.099-5.065 57.96-14.502l19.748-11.128 65.658 110.833-19.75 11.188c-38.85 21.82-62.32 69.014-55.911 111.899 0 0.124 1.54 11.253 1.54 29.505 0 18.131-1.54 29.193-1.54 29.193-6.41 43.197 17.06 90.457 55.911 112.332l19.75 11.131-65.658 110.832-19.748-11.067c-16.925-9.499-36.928-14.563-57.96-14.563-23.595 0-46.487 6.375-64.89 18.07l-63.928 35.878c-37.635 18.628-64.566 60.885-64.566 101.956v22.318H445.948V906.08c0-41.07-26.995-83.328-64.63-101.956l-63.864-35.879c-18.4-11.694-41.291-18.07-64.887-18.07-21.03 0-41.096 5.065-57.962 14.502l-19.75 11.13L109.2 664.974l19.749-11.13c38.726-21.876 62.258-69.136 55.846-111.956 0-0.128-1.476-11.255-1.476-29.57 0-18.065 1.413-29.132 1.413-29.132 6.475-43.258-17.057-90.517-55.847-112.394l-19.686-11.066 65.657-110.833 19.622 11.062c16.926 9.503 36.928 14.568 57.962 14.568 23.66 0 46.549-6.377 64.89-18.13l63.989-35.88c37.635-18.629 64.63-60.888 64.63-101.956V96.238H577.26m-65.656 608.114c108.617 0 196.971-86.142 196.971-192.035 0-105.892-88.354-192.034-196.971-192.034s-196.972 86.143-196.972 192.034c0 105.893 88.356 192.035 196.972 192.035m98.488-672.127H413.12c-18.08 0-32.83 14.382-32.83 32.005v54.325c0 17.567-13.463 38.072-29.877 45.444l-67.84 38.072c-8.077 5.565-19.107 8.44-30.134 8.44-8.978 0-17.952-2.001-25.072-6.002l-48.149-27.13a33.337 33.337 0 0 0-16.288-4.253c-11.413 0-22.506 5.751-28.596 16.006L35.85 355.41c-8.977 15.256-3.592 34.947 12.054 43.761l48.15 27.13c15.646 8.752 26.355 30.257 23.724 47.631 0 0-2.113 14.44-2.113 38.385 0 24.005 2.113 38.381 2.113 38.381 2.63 17.441-8.079 38.884-23.724 47.695l-48.15 27.067c-15.647 8.88-21.03 28.507-12.054 43.763l98.55 166.278c6.088 10.253 17.119 16.006 28.531 16.006 5.515 0 11.16-1.38 16.288-4.254l48.217-27.13c7.053-3.997 16.027-5.94 25.133-5.94 10.9 0 22.058 2.816 30.138 8.442l67.71 38.009c16.414 7.375 29.876 27.878 29.876 45.443v54.321c0 17.63 14.75 32.009 32.831 32.009h196.972c18.018 0 32.827-14.38 32.827-32.009v-54.321c0-17.565 13.337-38.068 29.75-45.443l67.84-38.009c8.079-5.626 19.168-8.443 30.135-8.443 9.038 0 18.015 1.943 25.134 5.941l48.152 27.13a33.398 33.398 0 0 0 16.35 4.254c11.35 0 22.443-5.753 28.468-16.006l98.487-166.278c9.107-15.255 3.655-34.884-11.989-43.763l-48.153-27.067c-15.646-8.811-26.29-30.254-23.724-47.695 0 0 2.183-14.376 2.183-38.38 0-23.945-2.183-38.386-2.183-38.386-2.566-17.374 8.078-38.818 23.724-47.63l48.217-27.131c15.646-8.814 21.032-28.505 11.99-43.76l-98.552-166.279c-6.025-10.255-17.118-16.006-28.467-16.006-5.578 0-11.22 1.378-16.35 4.316l-48.153 27.067c-7.052 4-16.028 6.001-25.134 6.001-10.902 0-22.057-2.875-30.135-8.44L672.673 164c-16.413-7.372-29.75-27.877-29.75-45.444V64.23c-0.003-17.623-14.812-32.006-32.83-32.006z m-98.488 608.113c-72.58 0-131.315-57.324-131.315-128.022s58.736-128.023 131.315-128.023c72.456 0 131.315 57.326 131.315 128.023s-58.86 128.022-131.315 128.022z" /></svg>
