<?xml version="1.0" standalone="no"?><!DOCTYPE svg PUBLIC "-//W3C//DTD SVG 1.1//EN" "http://www.w3.org/Graphics/SVG/1.1/DTD/svg11.dtd"><svg class="icon" width="200px" height="198.45px" viewBox="0 0 1032 1024" version="1.1" xmlns="http://www.w3.org/2000/svg"><path d="M519.33611052 138.35601857c-207.58189639 0.69499994-375.2913887 169.53708474-374.59638877 377.11898114a375.80620347 375.80620347 0 0 0 28.07456559 141.27375375 349.84237845 349.84237845 0 0 0 202.03905735 201.77306972c190.91905828 79.51314157 410.15292905-10.80252997 489.66607058-201.71300801 79.5217218-190.91905828-10.79394972-410.15292905-201.72158824-489.66607057a374.39904309 374.39904309 0 0 0-143.46171651-28.78672603z m3.87827128 536.38551119l-65.04684647 65.32141433h-1.65598752l-65.32141436-65.32141433-146.6878891-146.68788911 64.48913048-65.87055011h1.65598751l146.68788909 146.41332124 270.681027-270.68102701a1.63024677 1.63024677 0 0 1 1.6559875 0l64.48913049 63.38227871a1.6903085 1.6903085 0 0 1 0 1.66456776l-270.94701462 271.77929852z"  /></svg>
