<?xml version="1.0" standalone="no"?><!DOCTYPE svg PUBLIC "-//W3C//DTD SVG 1.1//EN" "http://www.w3.org/Graphics/SVG/1.1/DTD/svg11.dtd"><svg class="icon" width="200px" height="200.00px" viewBox="0 0 1024 1024" version="1.1" xmlns="http://www.w3.org/2000/svg"><path d="M841.6428125 854.0590625a84.9065625 84.9065625 0 0 0 11.690625-43.179375v-64.213125c0-93.86625-85.2478125-174.9328125-208.38375-212.4375 49.2796875-46.933125 80.3840625-115.9246875 80.3840625-192.8953125 0-46.464375-11.349375-90.0271875-31.1475-127.5740625 88.875 6.65625 159.1471875 89.89875 159.1471875 191.5734375 0 66.346875-29.866875 124.843125-75.391875 159.3178125 118.2290625 25.599375 203.3915625 97.408125 203.3915625 182.015625v64.725a42.6665625 42.6665625 0 0 1-42.665625 42.6675H841.641875zM384.0003125 554.665625c-117.8034375 0-213.33375-105.045-213.33375-234.6665625s95.53125-234.6665625 213.33375-234.6665625S597.333125 190.3784375 597.333125 320s-95.53125 234.6665625-213.3328125 234.6665625z m341.3334375 298.8796875a85.333125 85.333125 0 0 1-85.3340625 85.3340625H128a85.333125 85.333125 0 0 1-85.333125-85.3340625v-64.213125c0-129.6215625 152.83125-234.665625 341.3334375-234.665625s341.3334375 105.0440625 341.3334375 234.665625v64.213125z" /></svg>
