<?xml version="1.0" standalone="no"?><!DOCTYPE svg PUBLIC "-//W3C//DTD SVG 1.1//EN" "http://www.w3.org/Graphics/SVG/1.1/DTD/svg11.dtd"><svg class="icon" width="200px" height="200.00px" viewBox="0 0 1024 1024" version="1.1" xmlns="http://www.w3.org/2000/svg"><path d="M508.455385 895.212308a24.812308 24.812308 0 0 1-15.36-5.12c-10.633846-7.483077-261.12-185.895385-358.006154-305.624616a263.089231 263.089231 0 0 1-43.323077-241.427692 265.846154 265.846154 0 0 1 174.08-180.381538c157.538462-50.412308 259.544615 80.738462 263.876923 86.252307a27.175385 27.175385 0 0 1-4.726154 39.384616 27.175385 27.175385 0 0 1-39.384615-5.12c-3.150769-4.332308-85.070769-106.732308-204.8-68.135385A213.070769 213.070769 0 0 0 143.36 358.4a210.313846 210.313846 0 0 0 33.083077 192.984615c92.553846 114.215385 345.009231 294.203077 347.372308 295.778462a26.781538 26.781538 0 0 1-15.36 48.836923z m0 0"  /><path d="M508.455385 895.212308a27.175385 27.175385 0 0 1-15.36-48.836923c2.363077 0 254.818462-181.563077 347.372307-295.778462a209.526154 209.526154 0 0 0 33.083077-192.590769 212.283077 212.283077 0 0 0-139.027692-144.541539c-118.153846-39.384615-201.255385 63.803077-204.8 68.135385a26.781538 26.781538 0 0 1-42.535385-32.689231c4.332308-5.513846 107.913846-136.664615 263.876923-86.252307a265.058462 265.058462 0 0 1 174.08 180.381538 263.876923 263.876923 0 0 1-42.92923 241.427692c-97.28 118.153846-347.372308 298.141538-358.006154 305.624616a28.750769 28.750769 0 0 1-15.753846 5.12z m0 0"  /></svg>
