<?xml version="1.0" standalone="no"?><!DOCTYPE svg PUBLIC "-//W3C//DTD SVG 1.1//EN" "http://www.w3.org/Graphics/SVG/1.1/DTD/svg11.dtd"><svg class="icon" width="200px" height="200.00px" viewBox="0 0 1024 1024" version="1.1" xmlns="http://www.w3.org/2000/svg"><path d="M821.333333 256h-640a32 32 0 1 1 0-64h640a32 32 0 0 1 0 64z m-32 640a64 64 0 0 1-64 64H277.333333a64 64 0 0 1-64-64V320h576v576z m-384-800c0-17.664 14.336-32 32-32h128c17.664 0 32 14.336 32 32V128H405.333333v-32zM853.333333 128H661.333333V64A64 64 0 0 0 597.333333 0H405.333333A64 64 0 0 0 341.333333 64v64H149.333333a64 64 0 0 0-64 64V256c0 35.328 28.672 64 64 64v576a128 128 0 0 0 128 128H725.333333a128 128 0 0 0 128-128V320a64 64 0 0 0 64-64v-64A64 64 0 0 0 853.333333 128z m-352 768a32 32 0 0 0 32-32v-384a32 32 0 0 0-64 0v384c0 17.664 14.336 32 32 32zM341.333333 896a32 32 0 0 0 32-32v-384a32 32 0 0 0-64 0v384c0 17.664 14.336 32 32 32z m320 0a32 32 0 0 0 32-32v-384a32 32 0 0 0-64 0v384c0 17.664 14.336 32 32 32z"  /></svg>
