<?xml version="1.0" standalone="no"?><!DOCTYPE svg PUBLIC "-//W3C//DTD SVG 1.1//EN" "http://www.w3.org/Graphics/SVG/1.1/DTD/svg11.dtd"><svg class="icon" width="200px" height="195.98px" viewBox="0 0 1045 1024" version="1.1" xmlns="http://www.w3.org/2000/svg"><path d="M401.048167 603.146223A84.99451 84.99451 0 1 1 377.753376 544.59445a84.99451 84.99451 0 0 1 25.183558 58.551773z m-41.552871-166.841074A84.364921 84.364921 0 1 1 440.712272 351.310639a86.253687 86.253687 0 0 1-23.924381 62.958896 82.476154 82.476154 0 0 1-62.958896 25.183559zM692.547856 267.575308a83.735332 83.735332 0 1 1-161.174774-30.22027 83.735332 83.735332 0 0 1 161.174774 30.22027zM188.876688 933.050838c192.654222 15.739724 125.917792-188.876688 301.573112-188.876688l77.439442 62.958896c19.517258 232.318326-265.056952 283.944621-377.753376 125.917792z m590.554444-299.054756c59.810951-93.808755 245.539694-409.232824 245.539694-409.232823a27.072325 27.072325 0 0 0-6.295889-33.997804 27.701914 27.701914 0 0 0-34.627393 0c-10.073423 8.184656-276.389553 239.873394-356.97694 314.79448C566.630064 566.630064 566.630064 594.331978 543.335272 692.547856l70.513964 62.958895c93.179166-38.404927 120.251491-43.441638 167.470663-118.362724zM251.835584 836.094138A419.306247 419.306247 0 0 1 523.818014 100.104645c161.174774 0 271.982431 79.957798 272.61202 144.80546l69.884374-62.958896C823.502359 91.290399 692.547856 14.480546 522.558836 16.369313a503.671168 503.671168 0 0 0-381.530909 828.539071A100.104645 100.104645 0 0 0 251.835584 836.094138zM788.874966 755.506751c44.071227 82.476154-56.663006 141.657516-148.582994 167.470664a256.242707 256.242707 0 0 1-57.922184 97.586288c220.985725-24.553969 377.753376-180.692031 263.168185-331.163792a314.79448 314.79448 0 0 1-56.663007 62.958896z m0 0"  /></svg>
