<?xml version="1.0" standalone="no"?><!DOCTYPE svg PUBLIC "-//W3C//DTD SVG 1.1//EN" "http://www.w3.org/Graphics/SVG/1.1/DTD/svg11.dtd"><svg class="icon" width="200px" height="200.00px" viewBox="0 0 1024 1024" version="1.1" xmlns="http://www.w3.org/2000/svg"><path d="M804.58752 954.88H222.61248c-48.87552 0-109.12256-24.79616-109.12256-72.75008V263.78752c0-47.99488 60.24704-109.12256 109.12256-109.12256H404.48C423.37792 102.55872 457.2672 82.18624 513.60256 81.92c56.33536 0.31744 90.18368 20.6592 109.12256 72.74496h181.8624c48.95232 0 109.12256 61.1328 109.12256 109.12256v618.3424c-0.00512 47.95392-60.17536 72.75008-109.12256 72.75008z m36.3776-691.09248a36.37248 36.37248 0 0 0-36.3776-36.3776H222.61248a36.3776 36.3776 0 0 0-36.37248 36.3776v581.96992a36.36736 36.36736 0 0 0 36.37248 36.37248h581.96992a36.352 36.352 0 0 0 36.3776-36.37248V263.78752z m-163.68128 400.1024H349.9264a18.19648 18.19648 0 0 1-18.19136-18.18112v-36.3776a18.176 18.176 0 0 1 18.19136-18.18112h327.36256a18.19136 18.19136 0 0 1 18.18112 18.18112v36.3776a18.2272 18.2272 0 0 1-18.18624 18.18112z m0-181.8624H349.9264a18.19136 18.19136 0 0 1-18.19136-18.19136V427.4688a18.176 18.176 0 0 1 18.19136-18.19136h327.36256a18.19648 18.19648 0 0 1 18.18112 18.19136v36.37248a18.21184 18.21184 0 0 1-18.18624 18.18624z"  /></svg>
