<?xml version="1.0" standalone="no"?><!DOCTYPE svg PUBLIC "-//W3C//DTD SVG 1.1//EN" "http://www.w3.org/Graphics/SVG/1.1/DTD/svg11.dtd"><svg class="icon" width="200px" height="200.00px" viewBox="0 0 1024 1024" version="1.1" xmlns="http://www.w3.org/2000/svg"><path d="M678.998 322.451l-217.26 215.995-94.238-93.714c-16.417-16.298-41.007-16.298-57.412 0-16.364 16.292-16.364 40.756 0 57.027l123.01 122.268c8.192 8.159 20.447 12.242 28.646 12.242 8.212 0 20.494-4.076 28.72-12.242l245.893-244.522c16.411-16.298 16.411-40.762 0-57.06-16.418-16.299-40.981-16.299-57.359 0.006z m0 0M867.493 184.104l-327.85-134.49c-20.493-10.63-49.186-10.63-69.693 0l-327.89 134.49c-32.768 10.605-49.173 35.367-49.173 63.696v205.277c0 222.953 163.918 435.31 385.255 495.478a115.46 115.46 0 0 0 49.187 0c221.33-60.169 385.26-272.525 385.26-495.478V247.8c0.007-28.329-16.404-53.09-45.096-63.696z m-36.859 268.973c0 191.106-131.149 368.074-311.478 424.71-8.232 3.507-20.513 3.507-28.692 0-184.472-56.636-315.62-233.598-315.62-424.71V269.049c0-14.17 8.231-24.775 24.609-31.874l286.881-116.786a65.551 65.551 0 0 1 36.899 0L810.14 237.175c12.256 7.092 20.494 17.703 20.494 31.874v184.028z m0 0" /></svg>
