<?xml version="1.0" standalone="no"?><!DOCTYPE svg PUBLIC "-//W3C//DTD SVG 1.1//EN" "http://www.w3.org/Graphics/SVG/1.1/DTD/svg11.dtd"><svg class="icon" width="200px" height="200.00px" viewBox="0 0 1024 1024" version="1.1" xmlns="http://www.w3.org/2000/svg"><path d="M678.99799456 322.45123092L461.73760413 538.44566646 367.500189 444.73186617c-16.41764506-16.29834041-41.00765843-16.29834041-57.4120474 0-16.36462077 16.29171236-16.36462077 40.75579307 0 57.02762131l123.0097192 122.26737919c8.19225244 8.15911225 20.4474909 12.24198241 28.64637137 12.2419824 8.21213654 0 20.49388716-4.07624211 28.71927978-12.2419824l245.89350573-244.52150229c16.41101701-16.29834041 16.41101701-40.7624211 0-57.06076151-16.41764506-16.29834041-40.98114628-16.29834041-57.35902312 0.00662805z m0 0"  /><path d="M867.49270897 184.10423652l-327.84917026-134.48947748c-20.49388716-10.63136967-49.18665478-10.63136967-69.69379802 0l-327.88893849 134.48947748c-32.76900974 10.60485751-49.17339872 35.36719984-49.17339871 63.6954255v205.2769014c0 222.9538733 163.9179571 435.30951713 385.25458963 495.47882749a115.46038626 115.46038626 0 0 0 49.18665479 0c221.3300045-60.16931036 385.26121766-272.52495418 385.26121766-495.47882749V247.79966202c0.00662803-28.32822565-16.40438898-53.09056797-45.0971566-63.6954255z m-36.85850793 268.9723269c0 191.10616057-131.14894735 368.07472045-311.47792145 424.71128765-8.23202065 3.50623101-20.51377127 3.50623101-28.69276764 0-184.47149658-56.6365672-315.62044394-233.59849904-315.62044392-424.71128764V269.04914526c0-14.17074086 8.23202065-24.77559839 24.60989747-31.87422488l286.88128005-116.78599346a65.55127555 65.55127555 0 0 1 36.89827614 0l286.9077922 116.78599346c12.25523847 7.09199847 20.49388716 17.70348402 20.49388715 31.87422488v184.02741817z m0 1e-8"  /></svg>
