<?xml version="1.0" standalone="no"?><!DOCTYPE svg PUBLIC "-//W3C//DTD SVG 1.1//EN" "http://www.w3.org/Graphics/SVG/1.1/DTD/svg11.dtd"><svg class="icon" width="200px" height="198.45px" viewBox="0 0 1032 1024" version="1.1" xmlns="http://www.w3.org/2000/svg"><path d="M507.623635 1015.72325A503.723168 503.723168 0 0 1 516.376857 8.276915h8.918378a503.723168 503.723168 0 0 1-8.588067 1007.446335z" fill="#FFFFFF" /><path d="M516.376857 0.019158v16.515514h8.753223A495.465411 495.465411 0 0 1 863.202645 865.597231 492.822929 492.822929 0 0 1 516.376857 1007.465493h-8.753222A495.465411 495.465411 0 0 1 516.376857 16.534672V0.019158m0 0a511.980925 511.980925 0 0 0-8.753222 1023.961849H516.376857a511.980925 511.980925 0 0 0 8.753223-1023.961849z" fill="#DCDFE6" /><path d="M554.032229 647.26214A78.779 78.779 0 0 1 668.154428 578.062137V359.561891a54.00573 54.00573 0 0 0-54.501195-54.00573H380.949645a55.492126 55.492126 0 0 0-11.726015 1.321241 53.67542 53.67542 0 0 0-42.77518 52.519334v288.526024a58.299763 58.299763 0 0 0 1.321241 11.89117 53.510264 53.510264 0 0 0 52.354178 42.44487h196.864924a77.127449 77.127449 0 0 1-22.956564-54.99666z m-44.757042-16.515514h-27.415753v-56.152747h-67.713606v-22.461098h67.548451v-37.655371h-67.383296v-24.11265h57.804298l-68.539382-117.260148h28.076373a3.137948 3.137948 0 0 1 3.468258 2.147017 757.236303 757.236303 0 0 0 53.67542 93.973273c2.972792 4.624344 5.284964 9.413843 7.927446 14.533652L532.892371 419.01774l24.773271-43.931266a4.789499 4.789499 0 0 1 3.963723-2.312172h26.589977l-68.043916 117.425302h53.675419v23.947495h-66.062055v37.655372h66.062055v22.295943h-66.062055z" fill="#0091FA" /><path d="M639.417435 586.154739a66.062055 66.062055 0 1 0 66.062054 66.062055 66.062055 66.062055 0 0 0-66.062054-66.062055z m29.893079 102.065875a19.157996 19.157996 0 0 1-7.431981 1.981861h-36.994751a13.542721 13.542721 0 0 1-13.377566-13.212411v-50.702627a12.882101 12.882101 0 0 1 10.239619-12.8821 12.55179 12.55179 0 0 1 14.368497 7.597136 16.515514 16.515514 0 0 1 0.990931 6.606205v36.168975h24.938425a12.882101 12.882101 0 0 1 7.101671 23.78234z" fill="#0091FA" /></svg>