<?xml version="1.0" standalone="no"?><!DOCTYPE svg PUBLIC "-//W3C//DTD SVG 1.1//EN" "http://www.w3.org/Graphics/SVG/1.1/DTD/svg11.dtd"><svg class="icon" width="200px" height="200.00px" viewBox="0 0 1024 1024" version="1.1" xmlns="http://www.w3.org/2000/svg"><path d="M237.125632 478.01412267l121.97888 129.10592-45.940736 35.78811733-121.97888-129.08407467 45.940736-35.80996266zM723.566592 395.61898667l118.82222933 130.49309866-57.26208 22.94306134-118.85499733-130.48763734 57.294848-22.94852266zM624.246784 443.45480533l-111.90818133 198.78161067-44.14941867-25.001984 111.91364267-198.76522667 44.14395733 24.9856z"  /><path d="M877.50519467 786.35008c-83.17064533 0-150.585344-67.40923733-150.585344-150.59080533 0-83.17064533 67.42016-150.57988267 150.585344-150.57988267 83.181568 0 150.59080533 67.41469867 150.59080533 150.57988267 0 83.18702933-67.40923733 150.59080533-150.59080533 150.59080533z m0-240.943104c-49.87835733 0-90.35229867 40.47394133-90.35229867 90.35229867 0 49.88928 40.47394133 90.35229867 90.35229867 90.35229866 49.88928 0 90.35229867-40.46301867 90.35229866-90.35229866 0-49.87835733-40.46301867-90.35229867-90.35229866-90.35229867z m-240.93764267-60.227584c-83.17064533 0-150.585344-67.42562133-150.585344-150.59080533s67.40923733-150.59080533 150.585344-150.59080534 150.585344 67.42562133 150.585344 150.59080534-67.40923733 150.59080533-150.585344 150.59080533z m0-240.94856533c-49.87835733 0-90.35776 40.45755733-90.35776 90.35776 0 49.89474133 40.47940267 90.35229867 90.35776 90.35229866 49.88381867 0 90.35229867-40.45755733 90.35229867-90.35229866 0-49.90020267-40.47394133-90.35776-90.35229867-90.35776z m-60.23304533 481.88074666c0 83.181568-67.41469867 150.59080533-150.59080534 150.59080534-83.165184 0-150.59080533-67.40923733-150.59080533-150.59080534 0-83.17064533 67.43108267-150.57988267 150.59080533-150.57988266 83.181568 0 150.59080533 67.41469867 150.59080534 150.57988266z m-150.59080534-90.35229866c-49.89474133 0-90.35229867 40.47394133-90.35229866 90.35229866 0 49.88928 40.45755733 90.35229867 90.35229866 90.35229867s90.35229867-40.46301867 90.35229867-90.35229867c0-49.87835733-40.45755733-90.35229867-90.35229867-90.35229866z m-271.056896-60.227584C71.52162133 575.53169067 4.096 508.10606933 4.096 424.94088533c0-83.181568 67.42562133-150.59080533 150.59080533-150.59080533 83.165184 0 150.59080533 67.40923733 150.59080534 150.59080533 0 83.165184-67.42562133 150.59080533-150.59080534 150.59080534z m0-240.943104c-49.90020267 0-90.35229867 40.45755733-90.35229866 90.35229866s40.45755733 90.35229867 90.35229866 90.35229867 90.35229867-40.45755733 90.35229867-90.35229867-40.45755733-90.35229867-90.35229867-90.35229866z"  /></svg>
