<?xml version="1.0" standalone="no"?><!DOCTYPE svg PUBLIC "-//W3C//DTD SVG 1.1//EN" "http://www.w3.org/Graphics/SVG/1.1/DTD/svg11.dtd"><svg class="icon" width="200px" height="200.00px" viewBox="0 0 1024 1024" version="1.1" xmlns="http://www.w3.org/2000/svg"><path d="M543.1296 862.07146667h125.61066667v62.80533333H355.25973333v-62.80533333h125.61066667v-74.82026667H161.92853333c-18.56853333 0-62.80533333-12.56106667-62.80533333-31.1296v-578.90133333c0-18.56853333 15.29173333-33.86026667 33.86026667-33.86026667h757.48693333c18.56853333 0 33.86026667 15.29173333 33.86026667 33.86026667v557.60213333c0 18.56853333-12.56106667 52.4288-31.1296 52.4288H605.93493333v-62.80533333H861.52533333v-518.82666667H161.92853333v518.82666667H512c18.56853333 0 31.1296 12.56106667 31.1296 31.1296v106.496z m-62.2592-487.69706667h62.80533333V574.80533333h-62.80533333V374.3744z m168.7552 0h62.80533333v199.8848l-62.80533333 0.54613333V374.3744z m-338.05653333-62.2592h62.80533333v263.23626667l-62.80533333-0.54613334V312.1152z m0 0" /></svg>
