<?xml version="1.0" standalone="no"?><!DOCTYPE svg PUBLIC "-//W3C//DTD SVG 1.1//EN" "http://www.w3.org/Graphics/SVG/1.1/DTD/svg11.dtd"><svg class="icon" width="200px" height="199.80px" viewBox="0 0 1025 1024" version="1.1" xmlns="http://www.w3.org/2000/svg"><path d="M511.8873875 62v449.87837871h449.87837783C961.76576533 263.48198222 760.37387363 62 511.8873875 62z m64.31982012 69.59009003c161.40991026 27.14864854 288.90540528 154.5585583 315.96846767 316.05855822h-315.96846768V131.59009003z m299.36035986 508.8378375c-52.98648662 149.81531573-195.76576583 257.09459502-363.68017998 257.09459503-212.98648623 0-385.64414385-172.65765761-385.64414385-385.64414385 0-167.91441416 107.28378369-310.69819863 257.09909854-363.68018086v-67.5675668C197.59008974 135.98648633 62.01351318 308.11711748 62.01351318 511.87837871c0 248.48648613 201.38738731 449.87837871 449.87837872 449.87837783 203.76576563 0 375.89639678-135.49099131 431.25225204-321.328829h-67.57657646z" /></svg>
