<?xml version="1.0" standalone="no"?><!DOCTYPE svg PUBLIC "-//W3C//DTD SVG 1.1//EN" "http://www.w3.org/Graphics/SVG/1.1/DTD/svg11.dtd"><svg class="icon" width="200px" height="193.57px" viewBox="0 0 1058 1024" version="1.1" xmlns="http://www.w3.org/2000/svg"><path d="M517.80608 869.55008c-183.86944 0-345.83552-160.128-343.86944-344.07936 2.1248-198.54336 160.01024-344.02816 343.86944-344.02816V129.94048c-53.52448 0-104.89344 10.368-153.6768 31.0784-47.04256 19.87072-89.30816 48.37376-125.58848 84.6336a393.68192 393.68192 0 0 0-84.5824 125.65504C133.24288 420.11136 122.88 471.93088 122.88 525.05088c0 53.12512 10.36288 104.89856 31.0784 153.71776a393.984 393.984 0 0 0 84.5824 125.68064c36.28032 36.23424 78.54592 64.78848 125.58848 84.62848 48.77824 20.6848 100.58752 31.0784 153.6768 31.0784 53.49888 0 104.89344-10.3936 153.6256-31.0784 47.03744-19.84 89.35424-48.39424 125.63456-84.62848a394.15808 394.15808 0 0 0 84.5824-125.68064c20.6848-48.8192 31.06816-100.59264 31.06816-153.71776h-51.49184c0 184.84736-159.55456 344.4992-343.41888 344.4992z"  /><path d="M591.95904 57.39008h-37.67808v431.39072h431.37536v-35.84c0.3584-136.7808-162.25792-382.5408-393.69728-395.55072z m5.12 388.57728V95.08352c183.07072 25.216 336.18432 191.54944 350.88896 350.88384h-350.88896z"  /></svg>
