<?xml version="1.0" standalone="no"?><!DOCTYPE svg PUBLIC "-//W3C//DTD SVG 1.1//EN" "http://www.w3.org/Graphics/SVG/1.1/DTD/svg11.dtd"><svg class="icon" width="200px" height="200.00px" viewBox="0 0 1024 1024" version="1.1" xmlns="http://www.w3.org/2000/svg"><path d="M1.728 512a510.272 510.272 0 1 0 1020.608 0A510.272 510.272 0 0 0 1.728 512z" fill="#E4D5FF" /><path d="M770.112 342.72a20.416 20.416 0 0 1-20.352 20.416H274.304a20.48 20.48 0 0 1 0-40.832h475.456a20.416 20.416 0 0 1 20.352 20.416zM689.024 505.92c0 11.264-7.808 20.416-17.408 20.416H271.296c-9.6 0-17.408-9.152-17.408-20.416 0-11.264 7.808-20.416 17.408-20.416h400.256c9.664 0 17.472 9.152 17.472 20.416zM566.592 669.12c0 11.264-5.824 20.352-12.928 20.352H266.816c-7.168 0-12.992-9.152-12.992-20.352 0-11.328 5.824-20.416 12.992-20.416H553.6c7.168 0 12.992 9.088 12.992 20.416z" fill="#ae7af4" /><path d="M417.024 342.72m-56.128 0a56.128 56.128 0 1 0 112.256 0 56.128 56.128 0 1 0-112.256 0Z" fill="#7820EA" /><path d="M419.456 666.624m-56.128 0a56.128 56.128 0 1 0 112.256 0 56.128 56.128 0 1 0-112.256 0Z" fill="#7820EA" /><path d="M562.304 504.704m-56.128 0a56.128 56.128 0 1 0 112.256 0 56.128 56.128 0 1 0-112.256 0Z" fill="#7820EA" /><path d="M590.528 773.568a4.16 4.16 0 0 0 5.888 4.288l53.184-23.232-52.608-38.72-6.464 57.664zM765.44 586.368l-41.792-30.848a11.52 11.52 0 0 0-16.128 2.496l-3.456 4.608 60.352 44.48 3.456-4.608a11.52 11.52 0 0 0-2.432-16.128zM602.048 700.992l60.352 44.48 97.216-131.904-60.352-44.48-97.216 131.904z m129.28-86.144c3.136 2.176 3.84 6.592 1.536 9.728l-65.408 90.688a6.848 6.848 0 0 1-9.728 1.536 6.848 6.848 0 0 1-1.536-9.664l65.408-90.816a7.04 7.04 0 0 1 9.728-1.472z" fill="#ae7af4" /></svg>