<?xml version="1.0" standalone="no"?><!DOCTYPE svg PUBLIC "-//W3C//DTD SVG 1.1//EN" "http://www.w3.org/Graphics/SVG/1.1/DTD/svg11.dtd"><svg class="icon" width="200px" height="200.00px" viewBox="0 0 1024 1024" version="1.1" xmlns="http://www.w3.org/2000/svg"><path d="M252.061538 362.338462H669.538462c23.630769 0 39.384615-15.753846 39.384615-39.384616s-15.753846-39.384615-39.384615-39.384615h-417.476924c-23.630769 0-39.384615 15.753846-39.384615 39.384615s15.753846 39.384615 39.384615 39.384616z"  /><path d="M882.215385 519.876923v-370.215385c0-59.076923-47.261538-110.276923-110.276923-110.276923h-622.276924c-59.076923 0-110.276923 47.261538-110.276923 110.276923v693.169231c0 59.076923 47.261538 110.276923 110.276923 110.276923h370.215385c51.2 43.323077 114.215385 70.892308 185.107692 70.892308 153.6 0 283.569231-126.030769 283.569231-283.569231-3.938462-90.584615-43.323077-169.353846-106.338461-220.553846zM118.153846 842.830769V149.661538c0-15.753846 11.815385-31.507692 31.507692-31.507692h622.276924c15.753846 0 31.507692 11.815385 31.507692 31.507692v326.892308c-31.507692-11.815385-63.015385-19.692308-98.461539-19.692308-27.569231 0-55.138462 3.938462-82.707692 11.815385-7.876923-7.876923-15.753846-11.815385-27.569231-11.815385h-338.707692c-23.630769 0-39.384615 15.753846-39.384615 39.384616s15.753846 39.384615 39.384615 39.384615h256c-27.569231 27.569231-51.2 59.076923-66.953846 94.523077h-189.046154c-23.630769 0-39.384615 15.753846-39.384615 39.384616s15.753846 39.384615 39.384615 39.384615h169.353846v31.507692c0 47.261538 11.815385 94.523077 35.446154 133.907693h-307.2c-23.630769-3.938462-35.446154-15.753846-35.446154-31.507693z m582.892308 98.461539c-110.276923 0-204.8-90.584615-204.8-204.8s90.584615-204.8 204.8-204.8c110.276923 0 204.8 90.584615 204.8 204.8s-90.584615 204.8-204.8 204.8z"  /><path d="M858.584615 653.784615c-15.753846-15.753846-39.384615-15.753846-55.138461 0l-118.153846 118.153847-55.138462-55.138462c-15.753846-15.753846-39.384615-15.753846-55.138461 0s-15.753846 39.384615 0 55.138462l82.707692 82.707692c7.876923 7.876923 19.692308 11.815385 27.569231 11.815384s19.692308-3.938462 27.56923-11.815384l145.723077-145.723077c11.815385-11.815385 11.815385-39.384615 0-55.138462z"  /></svg>
