<?xml version="1.0" standalone="no"?><!DOCTYPE svg PUBLIC "-//W3C//DTD SVG 1.1//EN" "http://www.w3.org/Graphics/SVG/1.1/DTD/svg11.dtd"><svg class="icon" width="200px" height="200.00px" viewBox="0 0 1024 1024" version="1.1" xmlns="http://www.w3.org/2000/svg"><path d="M909.81895391 334.26258795v-29.0360999c0-75.32983793-62.86559538-133.29598913-131.41539439-133.29598913h-285.79384028c-22.87821262-40.4752062-62.85852548-63.70691409-108.62202065-69.49009637H218.27619498c-74.37540076 0-131.49316335 63.74933351-131.49316335 133.29598913v510.60974982c0 75.32983793 62.90094491 133.29598913 131.40125458 133.29598913h611.55385362c74.29763179 0 131.4083245-63.74226361 131.4083245-133.29598913V438.57903643c0.09897867-40.57418486-22.77923395-81.12009013-51.32751042-104.31644848z m-131.50023326-92.75008388c34.31731894 0 62.90801481 29.0431698 62.90801482 63.80589274h-262.95097717c-22.849933 0-51.36285993-17.41317604-57.15311215-46.39271669l-5.69127353-17.42024595h262.88734803z m108.62202065 493.29555244c0 34.78393266-28.60483568 63.77761313-62.83731577 63.77761313H212.5283622c-34.23248007 0-62.84438566-28.99368046-62.84438567-63.77761313V235.73639168c0-34.76272295 28.61190559-63.80589275 68.58514855-63.80589276h165.80341237c28.60483568 0 51.36992983 17.42024595 62.84438568 46.42806623l17.18693909 57.92373179c11.38254708 57.98029103 62.80903614 92.79957322 119.91972884 92.7995732h240.07983447c34.23248007 0 62.83731577 29.02196007 62.83731577 63.80589275v301.92029362z m0 0"  /><path d="M538.29544544 642.08625226H281.08523111c-17.13037985 0-34.23954997 17.3495469-34.23954997 34.75565304 0 17.41317604 17.10917014 34.76272295 34.23954997 34.76272297h257.21021433c17.13037985 0 34.2536898-17.3495469 34.2536898-34.76272297-0.0070699-17.40610614-17.13037985-34.75565306-34.2536898-34.75565304z m0 0"  /></svg>
