<?xml version="1.0" standalone="no"?><!DOCTYPE svg PUBLIC "-//W3C//DTD SVG 1.1//EN" "http://www.w3.org/Graphics/SVG/1.1/DTD/svg11.dtd"><svg class="icon" width="200px" height="200.00px" viewBox="0 0 1024 1024" version="1.1" xmlns="http://www.w3.org/2000/svg"><path d="M556.2 556.2V286.9h-88.3v269.2h88.3z m0 180.9v-90.5h-88.3v90.5h88.3zM512 64c81.8 0 157.6 20.5 227.2 61.4 67.5 38.8 120.6 91.9 159.4 159.4C939.5 354.4 960 430.2 960 512s-20.5 157.6-61.4 227.2c-38.8 67.5-91.9 120.6-159.4 159.4C669.6 939.5 593.8 960 512 960s-157.6-20.5-227.2-61.4c-67.5-39.5-120.6-93-159.4-160.5C84.5 668.5 64 593.1 64 511.9s20.5-156.5 61.4-226.2c39.5-67.5 93-121 160.5-160.5C355.5 84.5 430.9 64 512 64z" /></svg>
