<?xml version="1.0" standalone="no"?><!DOCTYPE svg PUBLIC "-//W3C//DTD SVG 1.1//EN" "http://www.w3.org/Graphics/SVG/1.1/DTD/svg11.dtd"><svg class="icon" width="200px" height="200.00px" viewBox="0 0 1024 1024" version="1.1" xmlns="http://www.w3.org/2000/svg"><path d="M650.262994 65.470107H263.142166c-61.052494 0-110.576421 49.981345-110.576422 111.633497v669.794839c0 61.651129 49.523927 111.63145 110.576422 111.63145h497.715668c61.052494 0 110.576421-49.981345 110.576422-111.63145V288.733007L650.262994 65.470107z m-7.877411 62.117756l165.873841 167.446664H697.664583c-30.517037 0-55.279001-24.974811-55.279-55.815214V127.587863z m173.751252 719.31058c0 30.840402-24.742521 55.815213-55.279001 55.815213h-497.715668c-30.517037 0-55.279001-24.974811-55.279001-55.815213v-669.794839c0-30.81175 24.761963-55.816237 55.279001-55.816237h331.047741c-0.548492 66.838268 0.757247 111.63145 0.757247 111.63145 0 61.651129 49.523927 111.63145 110.594841 111.63145h110.59484v502.348176zM679.686117 512.25992H399.297149c21.698185-24.902156 82.69849-99.456153 82.69849-151.422712 0-63.221904-51.618635-114.471125-115.308189-114.471124-63.653739 0-115.28977 51.249221-115.28977 114.471124 0 52.859905 63.161528 129.148405 83.85892 152.739707-11.279904 3.584642-19.448958 14.086833-19.448958 26.478048 0 15.340383 12.527314 27.79402 28.005844 27.794019h335.873654c15.47853 0 28.005844-12.453636 28.005844-27.794019-0.001023-15.341407-12.528338-27.795043-28.006867-27.795043zM313.382407 357.178889c0-29.247114 23.859407-52.954049 53.305043-52.954049 29.464055 0 53.375651 23.706935 53.375651 52.954049 0 29.249161-23.911596 52.955072-53.375651 52.955072-29.445636 0.001023-53.305043-23.705911-53.305043-52.955072z m366.30371 321.844125H343.812463c-15.47853 0-28.005844 12.44852-28.005844 27.79095s12.527314 27.796066 28.005844 27.796066h335.873654c15.47853 0 28.005844-12.453636 28.005844-27.796066s-12.527314-27.79095-28.005844-27.79095z" /></svg>
