<?xml version="1.0" standalone="no"?><!DOCTYPE svg PUBLIC "-//W3C//DTD SVG 1.1//EN" "http://www.w3.org/Graphics/SVG/1.1/DTD/svg11.dtd"><svg class="icon" width="200px" height="198.45px" viewBox="0 0 1032 1024" version="1.1" xmlns="http://www.w3.org/2000/svg"><path d="M507.623635 1015.72325A503.723168 503.723168 0 0 1 516.376857 8.276915h8.918378a503.723168 503.723168 0 0 1-8.588067 1007.446335z" fill="#FFFFFF" /><path d="M516.376857 0.019158v16.515514h8.753223A495.465411 495.465411 0 0 1 516.376857 1007.465493h-8.753222A495.465411 495.465411 0 0 1 516.376857 16.534672V0.019158m0 0a511.980925 511.980925 0 0 0-8.753222 1023.961849H516.376857a511.980925 511.980925 0 0 0 8.753223-1023.961849z" fill="#DCDFE6" /><path d="M516.376857 280.782891c-181.670651 0-313.79476 209.912179-169.44917 400.666362C537.68187 826.620618 747.594049 693.670733 747.594049 512.000083a231.217192 231.217192 0 0 0-231.217192-231.217192zM337.844154 471.041609a185.964684 185.964684 0 0 1 220.151798-143.850125 189.102632 189.102632 0 0 1 144.015279 170.109791c0.990931 10.735084-4.459189 14.533652-10.569928 14.698808-12.55179 0-73.824346-35.343199-75.806208-37.159906-4.624344-4.459189-2.807637-10.074463 1.981861-10.735084s31.379476-3.963723 31.379476-3.963723a143.189504 143.189504 0 0 0-101.074943-90.174705 146.492606 146.492606 0 0 0-173.412894 111.644872s-1.156086 8.588067-7.597136 8.422912a116.599527 116.599527 0 0 1-23.45203-8.092601c-5.78043-2.807637-7.431981-1.981862-5.615275-10.900239z m237.823398 25.929356a19.323151 19.323151 0 0 1 0 38.481147H532.892371v6.11074h42.279715a19.323151 19.323151 0 0 1 0 38.481147H532.892371v24.773271a19.323151 19.323151 0 1 1-38.481147 0v-24.773271h-37.325061a19.323151 19.323151 0 0 1 0-38.481147h37.820527v-6.11074h-37.820527a19.323151 19.323151 0 0 1 0-38.481147h37.820527v-3.633413L446.68139 462.453541a18.992841 18.992841 0 0 1-5.78043-26.424821A19.157996 19.157996 0 0 1 466.830316 429.422514l46.904059 30.22339L565.923399 429.422514a19.157996 19.157996 0 0 1 26.259666 6.606206 19.323151 19.323151 0 0 1-6.606205 26.424821L532.892371 493.833018v3.137947zM698.047508 550.316074v4.128879a185.799529 185.799529 0 0 1-222.959435 142.033418 188.772322 188.772322 0 0 1-144.015279-169.779481c-0.825776-13.707876 8.753222-16.515514 18.827685-11.23055s61.107401 34.847734 67.548451 38.976613a6.771361 6.771361 0 0 1-2.147016 13.047256l-29.067304 2.642482A142.528883 142.528883 0 0 0 657.089034 545.03111c0-1.651551 0-1.321241 0.990931-4.789499s1.651551-8.753222 8.422912-6.44105 23.121719 7.266826 28.406684 8.588067 4.459189 3.303103 3.798568 8.092601z m0 0" fill="#0091FA" /></svg>