<?xml version="1.0" standalone="no"?><!DOCTYPE svg PUBLIC "-//W3C//DTD SVG 1.1//EN" "http://www.w3.org/Graphics/SVG/1.1/DTD/svg11.dtd"><svg class="icon" width="200px" height="200.00px" viewBox="0 0 1024 1024" version="1.1" xmlns="http://www.w3.org/2000/svg"><path d="M524.15 102.31982422c-228.06035156 0-412.91982422 184.86035156-412.91982422 412.91982422s184.86035156 412.92070313 412.91982422 412.92070312 412.91982422-184.86035156 412.91982422-412.92070312-184.76982422-412.91894531-412.91982422-412.91894531zM205.28017578 442.16035156C241.01035156 264.13964844 423.35 144.16894531 598.4 185.21035156c145.16982422 34.11035156 246.06035156 160.11035156 257.13017578 303.75 1.8 19.25947266-7.91982422 26.1-18.72070312 26.18964844-22.40947266 0.18017578-131.84912109-63-135.26982422-66.33017578-8.36982422-7.91982422-5.12929688-17.81982422 3.33105468-19.16982422s56.15947266-7.01982422 56.15947266-7.01982422C731.68964844 344.41894531 666.35 281.77929687 580.58017578 261.52929687c-136.98017578-32.4-278.46035156 59.48964844-309.78017578 199.43964844-0.26982422 1.16982422-2.16035156 15.48017578-13.5 15.03017578-7.65-0.26982422-32.85-10.26035156-41.93964844-14.58017578-10.35-4.86035156-13.13964844-3.50947266-10.08105469-19.25947265z m424.70947266 46.35c18.99052734 0 34.29052734 15.3 34.29052734 34.28964844s-15.3 34.28964844-34.29052734 34.28964844H554.38964844v11.07070312h75.6c18.99052734 0 34.29052734 15.3 34.29052734 34.28964844s-15.3 34.28964844-34.29052734 34.28964844H554.38964844v44.37070312c0 18.98964844-15.3 34.28964844-34.28964844 34.28964844s-34.28964844-15.3-34.28964844-34.28964844v-44.37070312h-67.5c-18.99052734 0-34.29052734-15.3-34.29052734-34.28964844s15.3-34.28964844 34.29052734-34.28964844h67.5v-11.07070312h-67.5c-18.99052734 0-34.29052734-15.3-34.29052734-34.28964844s15.3-34.28964844 34.29052734-34.28964844h67.5V482.02929687l-86.13017578-55.44052734c-15.93017578-10.25947266-20.61035156-31.40947266-10.26035156-47.33964844 10.26035156-15.93017578 31.41035156-20.61035156 47.34052734-10.26035156l83.96982422 54 91.61982422-54.62929687c16.2-9.72070313 37.26035156-4.32070312 46.98017578 11.87929687 9.71982422 16.2 4.31982422 37.26035156-11.88017578 46.98017578L554.3 482.75v5.76035156h75.68964844z m219.78017578 95.03964844c-0.26982422 2.61035156-0.9 4.95-1.43964844 7.47070313-40.95 182.06894531-219.33017578 295.73964844-398.34052734 253.70947265-145.07929688-34.11035156-245.87929688-159.75-257.12929688-303.11982422-1.53017578-24.57070312 15.83964844-29.61035156 33.65947266-20.25 14.04052734 7.37929687 109.16982422 62.18964844 120.69052734 69.56982422 11.42929688 7.28964844 8.63964844 21.95947266-3.96035156 23.30947266s-51.83964844 4.77070312-51.83964844 4.77070312C322.55 692 385.63964844 749.6 467.36035156 768.95c136.88964844 32.4 276.92929688-54.9 308.15947266-195.02929688 0.63017578-2.79052734 0.63017578-2.43105469 1.71035156-8.5508789s2.88017578-15.48017578 15.02929688-11.43017578c12.06035156 4.13964844 41.40087891 12.78017578 50.58105468 15.21035156 9.08964844 2.33964844 8.09912109 5.85 6.92929688 14.4z"  /></svg>
