<?xml version="1.0" standalone="no"?><!DOCTYPE svg PUBLIC "-//W3C//DTD SVG 1.1//EN" "http://www.w3.org/Graphics/SVG/1.1/DTD/svg11.dtd"><svg class="icon" width="200px" height="200.00px" viewBox="0 0 1024 1024" version="1.1" xmlns="http://www.w3.org/2000/svg"><path d="M776.704 158.72H247.296C198.144 158.72 158.72 198.144 158.72 247.296v529.92c0 49.152 39.424 88.576 88.576 88.576h529.92c49.152 0 88.576-39.424 88.576-88.576V247.296c-0.512-49.152-39.936-88.576-89.088-88.576z m-132.096 397.312h-88.064v88.064c0 24.576-19.968 44.032-44.032 44.032s-44.032-19.968-44.032-44.032v-88.064H379.392c-24.576 0-44.032-19.968-44.032-44.032 0-24.576 19.968-44.032 44.032-44.032h88.064V379.392c0-24.576 19.968-44.032 44.032-44.032s44.032 19.968 44.032 44.032v88.064h88.064c24.576 0 44.032 19.968 44.032 44.032 1.024 25.088-18.944 44.544-43.008 44.544z" /></svg>
