<?xml version="1.0" standalone="no"?><!DOCTYPE svg PUBLIC "-//W3C//DTD SVG 1.1//EN" "http://www.w3.org/Graphics/SVG/1.1/DTD/svg11.dtd"><svg class="icon" width="200px" height="193.57px" viewBox="0 0 1058 1024" version="1.1" xmlns="http://www.w3.org/2000/svg"><path d="M527.36 367.86176c24.29952 0 41.68192-17.32608 41.68192-41.60512 0-24.23808-17.3824-41.56416-41.68192-41.56416-24.33536 0-48.67072 17.32608-48.67072 41.56416 0 27.74528 24.33536 41.60512 48.67072 41.60512z m-191.14496-41.60512c0-24.23808-17.3568-41.56416-41.69728-41.56416-24.3456 3.46112-48.65536 17.32608-48.65536 41.56416 0 24.28416 24.30976 41.60512 48.65536 41.60512s41.69728-13.85984 41.69728-41.60512z m0 0"  /><path d="M1034.7008 634.72128c0-131.72224-118.15936-246.07744-271.06816-259.92192-34.73408-142.08-187.6224-249.52832-361.39008-249.52832-194.59584 0-354.44736 135.16288-354.44736 304.98304 0 90.112 45.15328 169.78432 128.57856 232.17152l-27.8016 86.65088c-3.47648 6.93248 0 17.3312 6.9376 20.79232 6.96832 6.92224 13.92128 6.92224 20.864 3.46112l111.21152-55.42912h13.89056c34.74944 6.92224 66.02752 13.85984 100.77184 13.85984h31.26784c3.50208 0 6.9632 0 6.9632-3.47136 45.16352 100.51072 156.3648 169.82016 284.928 169.82016 31.2832 0 66.048-6.9376 97.31584-13.87008l83.39968 45.04576c3.4816 0 6.94272 3.46624 10.4192 3.46624 3.4816 0 10.43968 0 13.92128-3.46624 6.93248-6.92736 10.4192-13.85472 6.93248-20.80256l-20.85376-69.30432c76.45184-62.39744 118.15936-135.15264 118.15936-204.45696z m-813.16864 24.23808c3.47648-6.92224 0-17.32096-6.94272-24.23808-83.40992-55.47008-125.09696-128.22016-125.09696-207.92832 0-145.57184 139.00288-263.40352 312.74496-263.40352 149.42208 0 284.94848 90.112 312.76032 207.93344-163.33824 3.47648-291.91168 121.29792-291.91168 259.92192 0 17.34144 3.49184 34.6624 6.9376 51.968h-27.79136c-34.74432 0-62.56128-6.92736-93.81888-13.84448l-17.38752-3.46624c-3.456 0-10.43968 0-13.89568 3.46624l-72.97024 34.6624 17.37216-45.07136z m653.312 173.29152l10.42432 34.64192-48.64-27.71968c-3.50208 0-6.95808-3.46624-10.43968-3.46624h-3.47136c-31.26272 6.92736-62.55104 17.32608-93.824 17.32608-145.95072 0-264.09984-100.49536-264.09984-221.78816 0-121.28256 118.14912-221.81376 264.09984-221.81376 142.4896 0 264.09984 100.5312 264.09984 221.81376 0 58.91072-38.23616 121.2928-107.7248 176.74752-6.9376 6.9376-10.42432 17.31072-10.42432 24.25856z m0 0"  /><path d="M638.55104 527.27808c-17.37216 0-34.74432 17.3312-34.74432 34.65216s17.37728 34.64704 34.74432 34.64704c24.33024 0 41.68704-17.32608 41.68704-34.64704s-17.3568-34.65216-41.68704-34.65216z m180.70016 0c-17.36192 0-34.75968 17.3312-34.75968 34.65216s17.39776 34.64704 34.75968 34.64704c24.32 0 41.7024-17.32608 41.7024-34.64704s-13.90592-34.65216-41.7024-34.65216z m0 0"  /></svg>
