<?xml version="1.0" standalone="no"?><!DOCTYPE svg PUBLIC "-//W3C//DTD SVG 1.1//EN" "http://www.w3.org/Graphics/SVG/1.1/DTD/svg11.dtd"><svg class="icon" width="200px" height="200.00px" viewBox="0 0 1024 1024" version="1.1" xmlns="http://www.w3.org/2000/svg"><path d="M667.73374999 371.1996875c10.6659375 0 21.3328125 0 31.99968751 2.13375-27.733125-127.9996875-166.3996875-223.9996875-324.26718751-223.99968749-177.06562499 0-319.9996875 119.46562501-319.99968749 273.06562499 0 87.466875 49.066875 160.0003125 127.99968751 215.4675l-31.99968751 96 113.06718751-55.4671875c40.5328125 8.5340625 72.5325 17.0671875 113.06624999 17.0671875 10.666875 0 19.2 0 29.866875-2.13375-6.4003125-21.3328125-10.666875-44.799375-10.666875-68.26687499 0-138.66562501 119.4665625-253.86562499 270.93374999-253.86562501zM497.06562501 285.8665625c23.4665625 0 40.53374999 14.9334375 40.53374999 40.53375 0 23.46562501-14.93437499 40.5328125-40.53374999 40.5328125-23.4665625 0-49.066875-17.06625001-49.06687503-40.5328125 0-25.6003125 23.4665625-40.53374999 49.06687503-40.53375z m-226.13343751 78.93375c-23.46562501 0-49.066875-17.0671875-49.066875-40.53375s23.4675-40.5328125 49.066875-40.53281249c23.4665625 0 40.53374999 14.9325 40.53375 40.53281249s-14.93437499 40.53374999-40.53375 40.53375z m0 0"  /><path d="M962.133125 622.9334375c0-127.9996875-127.9996875-232.53374999-273.065625-232.53375-153.6 0-273.0675 104.5340625-273.0675 232.53375s119.4665625 232.5328125 273.0665625 232.53281251c31.9996875 0 64.0003125-8.533125 96-17.06625001l87.466875 49.066875-23.4665625-81.0665625c63.999375-46.9340625 113.06624999-113.0671875 113.06625-183.466875z m-362.66625-40.53375c-14.93437499 0-32.000625-14.9334375-32.00062501-31.9996875 0-14.9334375 17.0671875-31.9996875 32.00062501-31.9996875 23.46562501 0 40.5328125 17.06625001 40.5328125 31.9996875s-14.9334375 31.9996875-40.5328125 31.9996875z m177.065625 0c-14.9325 0-31.99875001-14.9334375-31.99875001-31.9996875 0-14.9334375 17.06625001-31.9996875 31.99968751-31.9996875 23.4665625 0 40.5328125 17.06625001 40.53281249 31.9996875s-17.06625001 31.9996875-40.53281249 31.9996875z m0 0"  /></svg>
