<?xml version="1.0" standalone="no"?><!DOCTYPE svg PUBLIC "-//W3C//DTD SVG 1.1//EN" "http://www.w3.org/Graphics/SVG/1.1/DTD/svg11.dtd"><svg class="icon" width="200px" height="183.02px" viewBox="0 0 1119 1024" version="1.1" xmlns="http://www.w3.org/2000/svg"><path d="M805.842473 704.582157c53.231847 0 96.538598 43.30675 96.538598 96.538597s-43.30675 96.538598-96.538598 96.538598-96.538598-43.30675-96.538597-96.538598 43.30675-96.538598 96.538597-96.538597m0-44.821058c-78.071349 0-141.359655 63.289522-141.359655 141.359655s63.289522 141.359655 141.359655 141.359656 141.359655-63.289522 141.359656-141.359656-63.288306-141.359655-141.359656-141.359655zM352.643809 704.582157c53.231847 0 96.538598 43.30675 96.538597 96.538597s-43.30675 96.538598-96.538597 96.538598-96.538598-43.30675-96.538598-96.538598 43.30675-96.538598 96.538598-96.538597m0-44.821058c-78.071349 0-141.359655 63.289522-141.359655 141.359655s63.289522 141.359655 141.359655 141.359656 141.359655-63.289522 141.359655-141.359656-63.288306-141.359655-141.359655-141.359655zM188.873625 801.120754c0-2.849816 0.074195-5.682605 0.218936-8.497148h-61.523439c-20.91325 0-37.927007-17.013757-37.927007-37.92579V547.153818c0-48.372685 18.838224-93.850551 53.042103-128.05443 34.205096-34.205096 79.681745-53.042103 128.05443-53.042103h146.34288v-44.821057H270.738648c-124.771607 0-225.91759 101.1472-225.917591 225.91759v207.543998c0 45.70045 37.047614 82.746848 82.746849 82.746848h65.371846a163.726397 163.726397 0 0 1-4.066127-36.32391zM991.5768 104.732884H473.070753c-45.70045 0-82.746848 37.047614-82.746848 82.746849v178.576336h44.821057V187.479733c0-20.91325 17.013757-37.927007 37.927007-37.927008H991.5768c20.91325 0 37.927007 17.013757 37.927007 37.927008v567.218083c0 20.912034-17.013757 37.925791-37.927007 37.92579h-22.102802c0.144741 2.814543 0.218936 5.647332 0.218936 8.497148a163.654634 163.654634 0 0 1-4.067344 36.32391h25.949994c45.70045 0 82.746848-37.047614 82.746848-82.746848V187.479733c0.001216-45.70045-37.046398-82.746848-82.745632-82.746849zM190.417123 592.302063h244.726623V419.351165h-44.821058v128.129841H190.417123zM489.62961 792.623606h185.309833v44.821058H489.62961z" /></svg>
