<?xml version="1.0" standalone="no"?><!DOCTYPE svg PUBLIC "-//W3C//DTD SVG 1.1//EN" "http://www.w3.org/Graphics/SVG/1.1/DTD/svg11.dtd"><svg class="icon" width="200px" height="198.45px" viewBox="0 0 1032 1024" version="1.1" xmlns="http://www.w3.org/2000/svg"><path d="M820.772864 628.424704h-2.58321067a59.899904 59.899904 0 0 0-46.74901333 25.82664533l-11.62717867 16.01809067-12.39722666-15.75594667a61.46730667 61.46730667 0 0 0-48.562176-24.02440533 56.311808 56.311808 0 0 0-41.582592 18.85252267 77.49632 77.49632 0 0 0-19.89563734 53.47191466 68.878336 68.878336 0 0 0 3.09111467 21.17905067v1.294336c2.84535467 12.65390933 18.60130133 37.96718933 77.49085867 86.52936533 13.43488 10.846208 33.83842133 25.82664533 42.88238933 32.28740267 10.58952533-7.749632 24.53777067-18.86344533 41.32590933-33.062912l14.71829334-12.91605333c48.81885867-43.90912 59.408384-65.86368 61.21608533-75.169792a78.6432 78.6432 0 0 0 2.83989333-21.96002134c1.78039467-36.487168-25.821184-67.74784-62.242816-70.51127466l2.07530667-2.05892267z"  /><path d="M611.04128 732.51771733a125.272064 125.272064 0 0 1-4.390912-30.212096 110.33531733 110.33531733 0 0 1 28.66653867-77.49085866 87.33218133 87.33218133 0 0 1 63.54807466-28.15317334 88.89412267 88.89412267 0 0 1 60.18389334 22.99221334 89.56040533 89.56040533 0 0 1 59.408384-24.53777067v-373.50058667c0.57344-30.43054933-23.560192-55.60183467-53.98528-56.311808H265.18050133c-30.425088 0.704512-54.56418133 25.88125867-53.98528 56.311808v582.975488c-0.57890133 30.43054933 23.55473067 55.59637333 53.98528 56.311808h467.779584c-10.07616-7.23080533-22.99221333-16.78813867-32.28740266-25.82664533-55.02293333-44.433408-83.427328-77.49085867-89.63140267-103.32296533v0.76458666zM316.58257067 314.08128h396.23611733v81.10626133H316.58257067V314.08128z m0 158.59165867h396.23611733v81.11172266H316.58257067V472.67293867z m0 239.69792v-81.10626134h248.48520533v81.10626134H316.58257067z"  /></svg>
