<?xml version="1.0" standalone="no"?><!DOCTYPE svg PUBLIC "-//W3C//DTD SVG 1.1//EN" "http://www.w3.org/Graphics/SVG/1.1/DTD/svg11.dtd"><svg class="icon" width="200px" height="198.45px" viewBox="0 0 1032 1024" version="1.1" xmlns="http://www.w3.org/2000/svg"><path d="M507.623635 1015.72325A503.723168 503.723168 0 0 1 516.376857 8.276915h8.918378a503.723168 503.723168 0 0 1-8.588067 1007.446335z" fill="#FFFFFF" /><path d="M516.376857 0.019158v16.515514h8.753223A495.465411 495.465411 0 0 1 516.376857 1007.465493h-8.753222A495.465411 495.465411 0 0 1 516.376857 16.534672V0.019158m0 0a511.980925 511.980925 0 0 0-8.753222 1023.961849H516.376857a511.980925 511.980925 0 0 0 8.753223-1023.961849z" fill="#DCDFE6" /><path d="M691.441303 585.494119h-1.651552a38.315992 38.315992 0 0 0-29.893079 16.515513l-7.431982 10.239619-7.927446-10.074464a39.306923 39.306923 0 0 0-31.049166-15.359427 36.00382 36.00382 0 0 0-26.589977 12.056325 49.546541 49.546541 0 0 0-12.716946 34.187113 43.931266 43.931266 0 0 0 1.981862 13.542721v0.825776c1.816707 8.092602 11.89117 24.277805 49.546541 55.326971 8.588067 6.936516 21.635323 16.515514 27.415753 20.644392 6.771361-4.954654 15.689738-12.056325 26.424822-21.139858l9.413843-8.257756c31.214321-28.076373 37.985682-42.11456 39.141767-48.060145a50.372317 50.372317 0 0 0 1.816707-14.038187 43.105491 43.105491 0 0 0-39.802388-45.087352z m0 0" fill="#F75D5A" /><path d="M557.335331 652.051639a80.265397 80.265397 0 0 1-2.807637-19.323151 70.521243 70.521243 0 0 1 18.33222-49.546541 55.822436 55.822436 0 0 1 40.628164-18.00191 56.813367 56.813367 0 0 1 38.481147 14.698807 57.308833 57.308833 0 0 1 37.985681-15.689738V325.374778a35.343199 35.343199 0 0 0-34.517423-36.00382H336.192603A35.343199 35.343199 0 0 0 301.675179 325.374778v372.755144a35.343199 35.343199 0 0 0 34.517424 36.00382H635.288556c-6.44105-4.624344-14.698807-10.735084-20.644392-16.515514-35.178044-28.406684-53.345109-49.546541-57.308833-66.062055z m-188.276856-267.551322h253.34798v51.858713H369.058475z m0 101.405254h253.34798v51.858713H369.058475z m0 153.263967v-51.858713h158.879242v51.858713z m0 0" fill="#F75D5A" /></svg>