<?xml version="1.0" standalone="no"?><!DOCTYPE svg PUBLIC "-//W3C//DTD SVG 1.1//EN" "http://www.w3.org/Graphics/SVG/1.1/DTD/svg11.dtd"><svg class="icon" width="200px" height="200.00px" viewBox="0 0 1024 1024" version="1.1" xmlns="http://www.w3.org/2000/svg"><path d="M577.829 111.25a313.856 313.856 0 0 1 247.954 306.908v242.249h10.971a90.917 90.917 0 1 1 0 181.833H187.246a90.917 90.917 0 1 1 0-181.833h10.971v-242.25a313.856 313.856 0 0 1 248.247-306.98V65.83a65.755 65.755 0 0 1 131.438 0v45.494zM365.422 885.03h293.303c0 80.969-65.683 130.998-146.652 130.998-80.969 0-146.651-50.03-146.651-130.925z" /></svg>
