<?xml version="1.0" standalone="no"?><!DOCTYPE svg PUBLIC "-//W3C//DTD SVG 1.1//EN" "http://www.w3.org/Graphics/SVG/1.1/DTD/svg11.dtd"><svg class="icon" width="200px" height="200.00px" viewBox="0 0 1024 1024" version="1.1" xmlns="http://www.w3.org/2000/svg"><path d="M764 134.9H263.6c-80.55 0-145.8 64.8-145.8 144.9v464.4c0 80.1 65.25 144.9 145.8 144.9H764c80.55 0 145.8-64.8 145.8-144.9V280.25c0-80.1-65.25-145.35-145.8-145.35z m72.9 609.3c0 40.05-32.85 72.45-72.9 72.45H263.6c-40.5 0-72.9-32.4-72.9-72.45l2.7-232.2h641.25l2.25 232.2z m-2.25-307.35H193.4l-2.7-156.6c0-40.05 32.85-72.45 72.9-72.45H764c40.5 0 72.9 32.4 72.9 72.45l-2.25 156.6z m0 0"  /><path d="M306.35 286.1h37.8c20.7 0 37.8 17.1 37.8 37.8 0 20.7-17.1 37.8-37.8 37.8h-37.8c-20.7 0-37.8-17.1-37.8-37.8 0-21.15 17.1-37.8 37.8-37.8zM306.35 625.4c20.7 0 37.8 17.1 37.8 37.8 0 20.7-17.1 37.8-37.8 37.8-20.7 0-37.8-17.1-37.8-37.8 0-20.7 17.1-37.8 37.8-37.8zM457.1 625.4h188.55c20.7 0 37.8 17.1 37.8 37.8 0 20.7-17.1 37.8-37.8 37.8H457.1c-20.7 0-37.8-17.1-37.8-37.8 0.45-20.7 17.1-37.8 37.8-37.8z"  /></svg>
