<?xml version="1.0" standalone="no"?><!DOCTYPE svg PUBLIC "-//W3C//DTD SVG 1.1//EN" "http://www.w3.org/Graphics/SVG/1.1/DTD/svg11.dtd"><svg class="icon" width="200px" height="200.00px" viewBox="0 0 1024 1024" version="1.1" xmlns="http://www.w3.org/2000/svg"><path d="M509.12533333 31.96266667C244.00213333 31.96266667 29.08586667 246.88106667 29.08586667 512c0 265.1168 214.91626667 480.0352 480.03946666 480.0352 265.10933333 0 480.032-214.91733333 480.032-480.0352S774.23466667 31.96266667 509.12533333 31.96266667z m284.48 334.70506666L455.33013333 708.46293333c-0.06186667 0.12053333-0.18133333 0.12053333-0.30506666 0.24533334-0.1216 0.0608-0.1216 0.30933333-0.30933334 0.30933333-2.576 2.69866667-5.70986667 4.05013333-8.77866666 5.77066667-1.53813333 0.91733333-2.704 2.20906667-4.30186667 2.82666666-4.84693333 2.02133333-10.00746667 2.94613333-15.1648 2.94613334-5.2192 0-10.43946667-0.92586667-15.35253333-3.0752-1.5968-0.736-2.88533333-2.02346667-4.42346667-2.8864-3.008-1.65866667-6.19733333-3.2512-8.77866667-5.83146667a1.3472 1.3472 0 0 1-0.1824-0.30506667c-0.06293333-0.06186667-0.24853333-0.06186667-0.30933333-0.30933333L230.24 536.60373333c-15.65866667-16.0288-15.22666667-41.76106667 0.86293333-57.4848 16.02773333-15.4752 41.69706667-15.22773333 57.2928 0.98453334L426.7136 621.99466667 735.88266667 309.55733333c15.65866667-15.968 41.32693333-16.09386667 57.2928-0.30933333 15.90613333 15.72053333 16.14826667 41.51253333 0.43093333 57.41866667z" /></svg>
