<?xml version="1.0" standalone="no"?><!DOCTYPE svg PUBLIC "-//W3C//DTD SVG 1.1//EN" "http://www.w3.org/Graphics/SVG/1.1/DTD/svg11.dtd"><svg class="icon" width="200px" height="200.00px" viewBox="0 0 1024 1024" version="1.1" xmlns="http://www.w3.org/2000/svg"><path d="M716.75660061 647.46048475H308.93976235c-18.90854381 0-34.3932928 14.94414981-34.3932928 33.29345307 0 18.30580679 15.36668709 33.25617038 34.3932928 33.25617039h407.81683826c18.81533706 0 34.18202416-14.82608791 34.37465144-33.06354309v-0.11184811c0-18.54814435-15.4412525-33.37423227-34.37465144-33.37423226z"  /><path d="M908.3213384 266.21999938a34.5859201 34.5859201 0 0 0-22.493897-13.37827631 35.08923658 35.08923658 0 0 0-25.5075821 5.9093083L604.32439827 438.55307662 447.91724866 312.79852203c-12.23494011-9.91098501-30.42889879-10.13468123-43.19201053-0.65866107L190.26270739 476.48822613V160.44897317c0-12.73825659 10.78091472-23.15255808 23.94792239-23.15255808h597.16946907c13.20429037 0 23.96034996 10.41430149 23.96034995 23.15255808v38.898286c0 18.32444814 15.37290089 33.26859795 34.42436173 33.26859795 18.88990245 0 34.37465145-14.93793602 34.37465144-33.26859795v-38.898286c0-49.39958045-41.50186135-89.62761614-92.52945313-89.62761614H214.204416c-48.93976045 0-89.51576803 37.09007493-92.43624638 84.35832757v703.47488066c2.82727158 47.27446642 43.49648592 84.35832756 92.43624638 84.35832756h597.16946907c51.03380556 0 92.53566691-40.22182192 92.53566691-89.62761614 0-0.96935026 0-1.89520403-0.08077919-2.8583405 0.08077919-0.92585377 0.08077919-1.90141781 0.08077919-2.82727159V399.48701847c0-18.33066192-15.32940439-33.29345309-34.37465145-33.29345308-18.93961273 0-34.38086523 14.96279116-34.38086523 33.29345308v448.21885991c0 0.92585377 0 1.90141781 0.07456539 2.82727158-0.07456541 0.96313648-0.07456541 1.88899024-0.07456539 2.8583405 0 12.74447038-10.80576987 23.18984078-23.96656375 23.18984079H214.11120925c-13.18564901 0-23.9479224-10.45158419-23.9479224-23.18984079v-292.1099719l235.06743751-180.12516201 155.59314394 125.03375568 0.11806189 0.11184811c12.01124389 9.48844771 29.27313503 9.99176419 41.89332974 1.26761187l277.43301479-194.7648364c7.43168531-5.17608182 12.34678821-12.76311173 13.78217227-21.49347784 1.78335593-8.96648989-0.3790408-17.81491788-5.72910859-25.09125859z m0 0"  /></svg>
