<?xml version="1.0" standalone="no"?><!DOCTYPE svg PUBLIC "-//W3C//DTD SVG 1.1//EN" "http://www.w3.org/Graphics/SVG/1.1/DTD/svg11.dtd"><svg class="icon" width="200px" height="152.84px" viewBox="0 0 1340 1024" version="1.1" xmlns="http://www.w3.org/2000/svg"><path d="M482.003338 669.251403l13.380272-13.465964c-8.385623-5.312935-15.338958-10.062748-22.68403-14.127021-1.983169-1.101761-6.047442-1.114003-7.455248 0.195868s-2.05662 5.888299-0.89365 7.345072c1.50574 1.860751 5.031374 2.448357 7.798018 2.889061 5.508804 0.832441 11.091058 1.224179 16.45296 3.072689-11.605213 9.315999-15.473618 9.009955-25.230321 1.383322-7.345072-5.704672-14.273923-10.62587-24.67944-12.364204s-19.586858-10.76053-29.380287-16.367268q-45.796522-26.148455-91.666494-52.125525c-31.828644-18.142327-63.657287-36.345863-96.122504-54.855443l11.433828-14.861529-29.47822-16.820214c-1.346596 10.478969-1.84851 16.575378 10.062748 13.380272 4.100998-1.101761 9.438417 2.448357 17.1385 4.639637-11.666422 5.986233-18.680965 8.165271-27.55626 0.991585-7.859227-6.341245-18.362679-9.291516-27.360392-14.310648-19.770484-11.017607-39.369584-22.292292-58.980925-33.566977q-49.934245-28.743714-99.807281-57.658812a42.08726 42.08726 0 0 1-12.241787-10.515695c-5.227243-6.977818-8.042853-14.494275 2.130071-16.710038 2.448357-22.977832 19.060461-37.447623 25.707751-56.997755l10.540178 3.342007c0.452946-0.673298 0.881409-1.346596 1.334354-2.019894l-9.683252-8.569251 10.944156-3.048204c1.50574-5.973992 1.92196-11.874532 4.407043-16.685555 8.459074-16.342784 17.530238-32.367282 26.58916-48.39178q39.871497-70.586138 79.951104-141.0621c2.815611-4.896714 4.492735-12.755941 10.454485-8.875295 0.869167-4.370318 0.881409-9.695495 3.01148-13.943395 6.292278-12.633523 13.343547-24.863067 20.321365-37.080369 3.133897-5.472078 4.725329-12.547831 13.661833-12.584556 1.689366 0 4.076515-5.704672 4.79878-9.071164 0.624331-2.901303-2.166796-7.345072-0.807958-9.132372 3.4277-4.443768 7.810259-9.120131 12.829392-11.017608 3.231832-1.224179 8.397865 2.130071 12.425413 4.015306 1.897477 0.89365 2.852336 3.843921 4.762054 4.737571 19.158395 9.071163 38.426966 17.921975 58.980926 27.421601-3.4277 3.537876-5.459837 5.61898-7.614391 7.822501 1.224179 0.89365 2.032136 1.762817 2.362664 1.615916 14.347373-6.035201 25.49964 2.631984 35.072717 10.062748 14.87377 11.544004 32.514184 17.395578 48.04901 27.286941 2.228005 1.420047 4.333592 3.072688 6.953335 4.896715-2.203521 5.557771-14.531 8.079579-5.753639 15.645002 3.170623-4.211174 6.047442-11.531762 9.573076-11.86229 4.700846-0.428463 9.989297 4.431527 14.910496 7.210411 24.116318 13.649591 48.281604 27.225732 72.226537 41.095676 46.653447 27.00538 93.111025 54.341288 139.837922 81.187525 9.94033 5.704672 20.737586 9.879121 32.563151 15.436892-5.374144 5.594496-16.195883 7.504215-8.397865 15.534827 3.158381-3.782712 5.410869-8.312173 9.034438-10.20965 2.448357-1.309871 7.345072 0.159143 10.344309 1.860752 38.329032 22.035215 76.462196 44.48665 114.766744 66.583074 37.655734 21.704687 75.617512 42.846251 113.101861 64.881466 9.156856 5.34966 16.514169 13.772009 25.609817 19.268571 6.622806 4.003064 16.122432 3.819437 21.961764 8.483558 15.583794 12.425413 34.876848 17.554721 51.244116 28.413185 17.27316 11.470554 35.954126 20.811036 53.937309 31.216555 7.479731 4.345834 15.192056 8.899778 13.747526 19.513407-0.636573 4.700846-1.970928 9.328241-3.452184 16.159157-29.306836-19.586858-60.168378-30.751367-83.856234-52.725372l1.799543-2.215764c-2.815611 0.452946-6.524872 2.276972-8.299931 1.126245-13.000777-8.459074-25.340497-17.934217-38.45145-26.172939-5.043616-3.158381-12.156094-2.901303-17.358853-5.876057-68.725387-39.247166-137.463015-78.604508-205.75994-118.733083-6.035201-3.525634-12.351962-12.033676-12.633523-18.472855-0.306045-7.528698-3.415458-8.91202-8.336656-11.458312a79.057454 79.057454 0 0 1-13.600624-9.169097c-5.96175-4.896714-8.83857-2.668709-11.017608 3.672535 5.582254 6.806433 19.758243 4.957923 19.32978 20.811037-5.472078-3.133897-9.034438-5.14155-12.584556-7.185929-73.377265-42.295371-146.840223-84.468324-219.972653-127.167673-6.243311-3.672536-13.63735-10.613628-14.592209-16.93039-2.448357-16.085707-17.652655-15.669486-26.136213-23.565438-0.807958-0.758991-4.762055 1.860751-7.638874 3.072688 5.888299 8.287689 18.889076 6.120893 19.586857 19.782726l-179.954254-102.659617c-2.999238 4.541703-5.263968 7.602149-7.161445 10.895189-21.827104 38.096438-43.433857 76.327536-65.554765 114.264831-3.29304 5.631222-8.924262 9.903605-14.812561 16.257092 2.117829 8.887537-1.469014 18.105602-17.248676 38.500417-3.586843-1.224179-7.443006-2.595259-11.31141-3.917372l-1.787301 1.456773c2.680951 3.758228 5.34966 7.516457 8.299931 11.629697-18.09336 31.706226-36.407072 63.657287-54.561641 95.657316-11.960225 21.092597-23.908208 42.197436-35.23186 63.657287-1.02831 1.958686 1.640399 7.944919 4.137724 9.377208 54.280079 31.46139 108.951896 62.322933 163.219733 93.723114q104.887623 60.645808 209.334541 122.00164c3.966339 2.325939 6.524872 7.112478 10.527936 9.230306 6.879884 3.611327 14.861528 5.202759 21.570027 9.04668q160.79586 92.058231 321.359125 184.495958c41.413962 23.78579 82.962584 47.375712 124.009293 70.80649-2.325939 10.026023 6.047442 19.586858 13.15992 15.791904s10.944157-0.34277 15.706211 2.374906q71.516514 40.801873 142.947336 81.775131l10.527936 6.010717 51.097215-89.536423c16.734522-29.282352 33.052822-58.760573 50.301499-87.773606s36.223445-57.009998 52.798823-86.378042c16.257092-28.768197 30.445322-58.760573 44.364232-85.851646-2.925787-8.128546-5.166034-15.241024-8.042853-22.035214-2.595259-6.182102-2.558533-15.167573-13.465965-13.784251-1.456773 0.183627-3.366491-3.121655-5.080341-4.811022l-2.301456 2.05662c4.333592 4.688604 8.667185 9.352725 13.392514 14.445307-6.267794 5.521046-11.348136 5.361902-17.224193-1.677124-2.448357-2.962512-8.299931-2.815611-11.99695-5.0681-20.553959-12.523347-40.863082-25.462915-61.417041-37.949537-3.807195-2.325939-8.740635-2.840094-12.449896-5.263968-14.029087-9.156856-27.788854-18.766658-41.805699-28.315251q-1.50574 1.224179-3.01148 2.53405c-0.979343-1.469014-2.815611-2.95027-2.778885-4.382559 0.20811-7.112478 0.905892-14.200472 1.615916-23.71234 21.361917 12.241786 42.001568 23.663372 62.322932 35.660323 24.483572 14.408582 48.489714 29.380286 72.887594 43.862319 5.606738 3.342008 12.241786 4.896714 17.799557 8.373382 7.112478 4.492735 18.815625 6.806433 12.633523 20.052045-0.13466 0.269319 2.240247 1.701608 4.419285 3.305283l3.4277-12.351963c5.82709 4.896714 11.017607 9.340483 16.58762 14.102538q-4.272383 3.072688-8.56925 6.182102l1.799543 5.410869c2.656468-2.289214 5.325177-4.553944 8.985471-7.687841 0.795716 4.725329 1.224179 7.491973 1.71385 10.14844-1.677125 0.538639-2.570775 1.138486-3.01148 0.893651-1.726092-0.918134-3.305282-2.081104-4.896714-3.170623a33.052822 33.052822 0 0 0-1.297629 5.839332c-0.183627 4.015306 1.469014 8.875295-0.220353 11.960225-14.690143 26.772786-30.065826 53.227286-45.294608 79.840929l-11.960225-3.072689c8.863053 15.55931-1.787301 25.707751-7.516456 36.174478-32.085721 58.662639-64.881466 116.93354-97.677211 175.204442-11.507279 20.443783-23.626647 40.557037-35.599114 60.755984-8.140788 13.723042-11.164509 14.628934-25.230321 7.222654-36.272412-19.097186-72.936561-37.484349-108.5724-57.695538-63.228825-35.880675-125.796593-72.912078-188.69489-109.380358-33.052822-19.158395-66.313755-37.949537-99.280885-57.23035-24.348912-14.249439-48.220395-29.380286-72.606033-43.531791-23.149217-13.465965-46.702414-26.283115-70.0475-39.443035-12.731457-7.173687-25.389464-14.482033-39.039055-22.267808z m59.323695 20.296882c13.319063 9.793429 25.071178 18.472855 37.031402 26.931929 2.019895 1.420047 4.896714 1.726092 7.345072 2.53405l0.991585-3.329766c-14.224955-11.091058-28.449911-22.157633-43.115571-33.579219-0.599848 2.019895-1.517981 5.117067-2.215763 7.430764zM280.625957 539.733307c13.392514 10.099473 25.279288 19.231846 37.435382 28.03369 1.530223 1.101761 4.345834 0.416221 9.193581 0.734507-12.511105-10.062748-22.145391-17.9587-31.951061-25.609816-3.672536-2.864578-7.785776-5.178275-12.780425-8.459074-0.110176 0.330528-1.150728 3.231832-1.897477 5.300693z"  /><path d="M232.576947 274.710881l-45.44151 78.726926q-9.413933 16.306059 6.892126 25.707751l142.849401 82.472913a24.483572 24.483572 0 0 0 16.991599 2.938028c7.063511-1.652641 19.843935-17.1385 38.916638-46.237226l21.655719 23.957176c-24.250978 34.081132-41.511896 52.749856-51.329808 55.859269-10.503452 2.338181-21.643478 0.47743-33.713879-5.729156l-158.029216-91.201306c-24.324429-14.041329-29.074242-33.579219-14.531-58.760573l85.937338-148.847876 27.48281 15.914322-22.647305 39.173715 149.717044 86.439251 39.332858-68.125539-188.927484-109.098797 15.032913-26.050521 216.679613 125.111054-69.410927 120.214338zM553.960556 567.50992a267.691135 267.691135 0 0 1-85.031446 17.701622l-4.333592-31.498115c28.915099-0.489671 55.540983-4.957923 80.342842-13.539416z m200.422521 48.122461l-14.212714 24.618231-103.614477-59.825608-29.527188 51.280842q-14.371857 24.899793-41.854666 9.034438l-26.699335-15.314475 8.77736-27.76437a193.518154 193.518154 0 0 0 22.475919 15.277749c5.729156 3.305282 10.527936 2.252489 13.674075-3.182865l25.940345-44.939596-111.914408-64.624389 14.212714-24.618231z m-0.244836-55.088038l-13.551657 23.50423-194.938201-112.550981 13.551657-23.467504z m-113.420148-197.508975l13.551658-23.479746 26.625884 15.326716-13.551657 23.467504 40.924291 23.638889-14.212714 24.618231-40.936532-23.638888-0.979343 1.726091c8.459074 14.420824 16.710038 29.869958 24.593748 46.641205l-27.164523 13.319063q-4.504977-24.912035-8.679427-40.495828l-25.781201 44.694761-26.613643-15.363441 26.11173-45.2334a210.55872 210.55872 0 0 1-63.889881 22.671788l-1.995412-30.91051q39.61442-1.224179 72.018428-15.669486l-42.075019-24.299945 14.212714-24.618232z m69.36196 332.02172l-28.71923 14.690144q-11.421586-46.67793-31.130862-80.94269l25.475157-12.400929a332.817437 332.817437 0 0 1 34.374935 78.653475z m49.150771-263.602378l13.551657-23.479746L799.396124 423.350647l-13.551657 23.467504 49.236463 28.425427-14.212713 24.618232-38.647319-22.304534c0.807958 21.080356 7.430764 43.984737 20.811037 68.468309l-30.01686 11.678664c-7.345072-25.609816-10.491211-49.934245-8.77736-73.377265l-30.739125 53.239527-26.625885-15.375683 30.078068-52.0888c-22.659546 14.775836-45.294608 24.961002-68.198989 30.849301l-1.946444-31.657259q37.533316-3.525634 68.223473-19.011493l-29.514946-17.052808 14.212714-24.618232zM802.982967 775.412172l-10.14844-30.604465q47.081909-22.035215 80.661128-78.237255l80.979415-140.303109 219.556432 126.73921-124.449997 215.541127c-12.388687 21.472093-29.833233 25.903619-51.586886 13.343547l-32.918163-18.974769 8.214239-30.751366c10.662596 7.345072 20.639651 13.833218 30.371871 19.452198 9.156856 5.288452 17.334369 2.374906 23.773548-8.789602l24.630474-42.650383-71.002359-40.9855-47.106393 81.579263-27.470568-15.914322 47.094151-81.579262-67.329823-38.843188q-36.321379 51.13394-83.268629 70.977876z m99.31761-95.326788l65.860809 38.010746 25.29153-43.801111-65.848567-37.949536z m64.453004-111.645089l-24.789617 42.944186 65.836325 38.010745 24.789617-42.944185z m125.135537 162.705579l-71.002359-40.9855-25.279288 43.80111 71.002359 40.9855z m39.173715-67.831737l-71.002359-40.997741-24.789617 42.944185 71.002359 40.9855z"  /></svg>
