<?xml version="1.0" standalone="no"?><!DOCTYPE svg PUBLIC "-//W3C//DTD SVG 1.1//EN" "http://www.w3.org/Graphics/SVG/1.1/DTD/svg11.dtd"><svg class="icon" width="200px" height="198.83px" viewBox="0 0 1030 1024" version="1.1" xmlns="http://www.w3.org/2000/svg"><path d="M508.522264 1024a502.339623 502.339623 0 1 1 502.339623-502.339623 502.339623 502.339623 0 0 1-502.339623 502.339623z m221.802264-595.079245" fill="#21B928" /><path d="M737.28 426.602264L486.110189 677.772075a46.369811 46.369811 0 0 1-66.463397 0L278.218868 536.344151a46.369811 46.369811 0 0 1-13.138113-33.231698A47.142642 47.142642 0 0 1 309.132075 455.969811a48.688302 48.688302 0 0 1 34.004529 13.910944l107.423396 108.196226 220.256604-217.938113a47.142642 47.142642 0 1 1 66.463396 66.463396z" fill="#FFFFFF" /></svg>