<?xml version="1.0" standalone="no"?><!DOCTYPE svg PUBLIC "-//W3C//DTD SVG 1.1//EN" "http://www.w3.org/Graphics/SVG/1.1/DTD/svg11.dtd"><svg class="icon" width="200px" height="199.80px" viewBox="0 0 1025 1024" version="1.1" xmlns="http://www.w3.org/2000/svg"><path d="M506.2774775 581.25165125c-137.76336375 0-249.43183219-111.66846844-249.43183219-249.43183125 0-137.74414406 111.66846844-249.43183219 249.43183219-249.43183219 137.74414406 0 249.42702656 111.6828825 249.42702656 249.43183219 0 137.76336375-111.6828825 249.43183219-249.42702656 249.43183125z m0-427.59399375c-98.3927925 0-178.17177187 79.77417375-178.17177187 178.16696719 0 98.38798781 79.77897938 178.15735781 178.17177187 178.15735687 98.38318313 0 178.15735781-79.76936906 178.15735688-178.15735687 0-98.39759719-79.77417375-178.16696719-178.15735688-178.16696719z"  /><path d="M694.39039062 652.51651625c-50.21501531-44.23783781-115.94955-71.264865-188.11291312-71.264865-157.44384375 0-285.06426469 127.61081062-285.06426469 285.05465531 0 12.08888906 1.00900875 23.9327325 2.46967031 35.6324325H151.74054031a359.31291281 359.31291281 0 0 1-1.79219156-35.6324325c0-196.79519531 159.52912875-356.32912875 356.32912875-356.32912969 116.45885906 0 219.54594563 56.13453469 284.57417438 142.53933938H694.39039062zM720.06726688 723.77657656h178.16216249a35.6324325 35.6324325 0 0 1 35.63243251 35.6324325 35.6324325 35.6324325 0 0 1-35.6324325 35.63723719h-178.1621625a35.6324325 35.6324325 0 0 1-35.63243251-35.63723719 35.6324325 35.6324325 0 0 1 35.6324325-35.6324325zM720.06726688 866.30630656h178.16216249a35.6324325 35.6324325 0 1 1 1e-8 71.264865h-178.1621625a35.6324325 35.6324325 0 1 1-1e-8-71.264865z"  /><path d="M538.91171187 740.16576594c9.77777812-9.23964 15.95675719-22.42882875 15.95675625-37.36696688 0-27.73333313-21.36696656-50.28228187-47.63483437-50.28228281-26.25825844 0-47.64444469 22.54414406-47.64444469 50.28228281 0 27.70930969 21.38138156 50.26306313 47.64444469 50.26306313 9.64324312 0 18.54174187-2.97897938 26.00840812-8.14414406-7.72132125 5.57357344-16.86006 9.11471438-26.90210156 9.11471437-12.4876875 0-23.83663687-5.16516562-32.32672687-13.46786812l-39.01021032 149.05465499 67.47387375 83.58438469 75.05585625-82.90210218-38.50090125-150.27507563c0.00480469 0.13933969-0.12012 0.13933969-0.12012 0.13933969z"  /></svg>
