<?xml version="1.0" standalone="no"?><!DOCTYPE svg PUBLIC "-//W3C//DTD SVG 1.1//EN" "http://www.w3.org/Graphics/SVG/1.1/DTD/svg11.dtd"><svg class="icon" width="200px" height="200.00px" viewBox="0 0 1024 1024" version="1.1" xmlns="http://www.w3.org/2000/svg"><path d="M1.728 512A510.272 510.272 0 0 0 512 1022.272 510.272 510.272 0 1 0 1.728 512z" fill="#C3E9FF" /><path d="M782.72 400.448a18.56 18.56 0 0 1 0 32.832l-32.832 32.832 32.832 32.832a18.56 18.56 0 0 1 0 32.832l-32.832 32.896 32.832 32.832a18.56 18.56 0 0 1 0 32.832l-32.832 32.832 32.832 32.832c13.184 13.184 6.592 39.36-19.712 39.36H474.24c-13.12-0.192-26.24-13.248-26.24-26.368V315.136c0-13.184 13.12-26.304 26.24-26.304h288.832c19.712 0 32.896 26.304 19.712 39.36l-32.832 32.896 32.768 39.36zM241.216 623.616a18.56 18.56 0 0 1 0-32.832l32.768-32.832-32.768-32.832a18.56 18.56 0 0 1 0-32.832l32.768-32.768-32.768-32.832a18.56 18.56 0 0 1 0-32.832l32.768-32.832-32.768-32.832c-13.12-13.12-6.592-39.36 19.712-39.36h288.768c13.184 0 26.304 13.12 26.304 26.24v393.856a28.16 28.16 0 0 1-26.304 26.24H260.928c-19.712 0-32.832-26.24-19.712-39.36l32.768-32.832-32.768-39.36z" fill="#006FD3" /><path d="M416.832 541.568v39.36h78.72V640h32.896v-59.072h78.72v-39.36h-78.72v-26.24h78.72v-39.424h-59.072l59.072-59.072L580.928 384 508.736 456.192 443.072 384l-26.24 32.832 59.072 59.072h-59.072v39.424h78.72v26.24h-78.72z" fill="#ffffff" /></svg>