<?xml version="1.0" standalone="no"?><!DOCTYPE svg PUBLIC "-//W3C//DTD SVG 1.1//EN" "http://www.w3.org/Graphics/SVG/1.1/DTD/svg11.dtd"><svg class="icon" width="200px" height="200.00px" viewBox="0 0 1024 1024" version="1.1" xmlns="http://www.w3.org/2000/svg"><path d="M784 144H240c-88 0-160 72-160 160v416c0 88 72 160 160 160h544c88 0 160-72 160-160V304c0-88-72-160-160-160z m-544 64h544c35.2 0 65.6 19.2 81.6 46.4L552 508.8c-24 19.2-57.6 19.2-80 0L158.4 254.4c16-27.2 46.4-46.4 81.6-46.4z m544 608H240c-52.8 0-96-43.2-96-96V326.4L432 560c24 19.2 51.2 28.8 80 28.8 28.8 0 57.6-9.6 80-28.8l288-233.6V720c0 52.8-43.2 96-96 96z"  /></svg>
