<?xml version="1.0" standalone="no"?><!DOCTYPE svg PUBLIC "-//W3C//DTD SVG 1.1//EN" "http://www.w3.org/Graphics/SVG/1.1/DTD/svg11.dtd"><svg class="icon" width="200px" height="193.57px" viewBox="0 0 1058 1024" version="1.1" xmlns="http://www.w3.org/2000/svg"><path d="M880.83456 223.59552H207.93344c-59.08992 0-89.71264 30.78656-89.71264 89.70752v448.5888c0 58.9312 31.08352 89.72288 89.71264 89.72288h672.90112c58.64448 0 89.71264-30.7968 89.71264-89.72288V313.30816c0.00512-59.37664-31.06816-89.71264-89.71264-89.71264z m44.85632 538.30144c0 27.4176-17.59232 44.86656-44.85632 44.86656H207.93344c-27.26912 0-44.86144-17.44384-44.86144-44.86656V313.30816c0-27.41248 17.59232-44.86144 44.86144-44.86144h672.90112c27.264 0 44.85632 17.44896 44.85632 44.86144v448.5888z m0 0"  /><path d="M793.74848 410.624l-249.3696 161.84832L294.62016 410.624c-11.55072-7.59808-27.09504-4.00384-34.24768 7.63904-7.57248 11.60192-3.98336 27.2128 7.552 34.43712l263.33184 170.624c3.968 2.80576 8.7552 4.02432 13.5168 4.02432 4.79232 0 9.58976-1.21856 13.5424-4.02432l262.92736-170.624a25.2416 25.2416 0 0 0 7.56736-34.43712c-7.97184-12.032-23.50592-15.23712-35.06176-7.63904z m0 0"  /></svg>
