<?xml version="1.0" standalone="no"?><!DOCTYPE svg PUBLIC "-//W3C//DTD SVG 1.1//EN" "http://www.w3.org/Graphics/SVG/1.1/DTD/svg11.dtd"><svg class="icon" width="200px" height="200.00px" viewBox="0 0 1024 1024" version="1.1" xmlns="http://www.w3.org/2000/svg"><path d="M663.19875611 571.69440617a550.09384372 550.09384372 0 0 0-74.41295962-20.93133754c45.10378464-19.66538267 76.36160219-62.88017706 76.45439469-112.97487278V376.8632894c0-68.75261692-59.06905639-124.5209114-131.78523881-124.52091141-72.74269456 0-131.7653547 55.7682945-131.76535471 124.52091141v61.024327c0 48.46419887 29.39533943 90.37327019 72.13291527 111.03948627-25.9222486 5.2162643-54.30349855 13.38863262-79.11223712 23.2113819-25.4052618 10.10775483-46.12450219 21.58088505-61.46177736 33.63728245-22.15089615 17.2925458-33.23297226 36.40780148-33.23297225 56.78901202v61.22979612c0 27.4334408 19.79131534 44.60005391 36.46745379 54.38966302 15.61565269 8.88819621 36.91816025 16.35799274 63.15192654 22.01170739 42.2934974 8.9412205 92.72622295 12.30826276 125.72721395 12.30826276 32.59668081 0 87.07250828-3.20134137 133.19701046-12.169074 28.28845744-5.51452591 51.14855343-12.81199348 67.81806384-21.53448881 33.23297226-17.29917383 40.15264178-39.53623444 40.1526418-55.01269839v-61.22979612c0.13918876-35.48650448-34.72428034-65.90256145-103.43050102-90.77758038l0.09942055-0.08616446zM459.77107671 376.77049689c0-38.42272441 32.92145457-69.54798124 73.68387566-69.63414569 40.78893324 0 73.78992423 31.11862879 73.78992424 69.63414569v61.01107093c0 38.42935245-33.00099101 69.69379803-73.78992424 69.69379802-40.7624211 0-73.77004013-31.26444558-73.77004012-69.69379802v-61.01107093h0.08616446z m274.93093124-315.12996926c114.96991161 0 209.01511371 88.90184621 209.0151137 197.455819v515.88655018c0 108.55397279-94.0452021 197.44919097-209.0151137 197.44919097H333.02314523c-115.04944803 0-209.00848566-88.89521818-209.00848567-197.44919097V259.09634663c0-108.55397279 94.0452021-197.455819 209.00848567-197.455819H734.70200795z m-26.14760184 661.39845143c-1.43165577 1.9552706-13.00420654 15.03238554-71.50987986 24.99432358-39.85438017 6.84676113-85.03770125 9.25273819-111.80171042 9.25273817-29.79964963 0-75.20169589-2.90307974-113.00801296-10.90311913-48.4708269-10.28008377-54.29687052-22.68776706-54.29687051-22.77393152v-61.24968022c0-3.40681047 10.13426698-20.28179001 59.23475729-39.83449607 30.42268501-12.04976935 78.56873815-24.9081591 108.07675421-24.90815909 22.04484757 0 69.2828598 8.49714209 113.53825584 24.05977049 55.45014876 19.51956588 69.05087853 37.04409293 69.68716999 40.77567717v60.57362056h0.07953642z m165.38275305 51.94391775V259.09634663c-0.21209715-72.57699365-62.38970241-131.32127629-139.24177925-131.63279398h-86.27714397v1.2526988c0 18.16744654-15.56262842 32.82203404-34.87009713 32.82203401h-157.87981636c-19.25444443 0-34.81044481-14.65458749-34.81044481-32.82203401v-1.2526988H332.93698077c-76.75265631 0.3115177-138.94351764 58.96300782-139.24177927 131.63279398v515.88655018c0.39105412 72.57036562 62.48912294 131.32127629 139.32794373 131.62616593h401.85119166c76.85207685-0.30488965 138.98328586-59.05580032 139.38759603-131.62616593h-0.32477376z m0 0"  /></svg>
