<?xml version="1.0" standalone="no"?><!DOCTYPE svg PUBLIC "-//W3C//DTD SVG 1.1//EN" "http://www.w3.org/Graphics/SVG/1.1/DTD/svg11.dtd"><svg class="icon" width="200px" height="200.00px" viewBox="0 0 1024 1024" version="1.1" xmlns="http://www.w3.org/2000/svg"><path d="M1.728 512a510.272 510.272 0 1 0 1020.608 0A510.272 510.272 0 0 0 1.728 512z" fill="#C3E9FF" /><path d="M512 584.384c60.032 0 108.544-48.64 108.544-108.544V331.072a108.544 108.544 0 1 0-217.088 0v144.768c0 59.904 48.576 108.544 108.544 108.544z" fill="#006FD3" /><path d="M710.976 485.056v-0.192-0.064a27.136 27.136 0 1 0-54.272 0 144.704 144.704 0 1 1-289.408 0 27.136 27.136 0 1 0-54.272 0v0.256a198.656 198.656 0 0 0 171.84 196.736v65.344H394.432a27.136 27.136 0 1 0 0 54.272h235.136a27.136 27.136 0 1 0 0-54.272H539.136v-65.344a198.656 198.656 0 0 0 171.84-196.736z" fill="#006FD3" /><path d="M636.224 342.272a20.928 20.928 0 0 1-21.248 20.672H408.96a20.992 20.992 0 0 1-21.248-20.672c0-11.52 9.472-20.736 21.248-20.736h206.016a20.864 20.864 0 0 1 21.248 20.736z m0 91.008a20.928 20.928 0 0 0-21.248-20.672H408.96a20.992 20.992 0 0 0-21.248 20.672c0 11.456 9.472 20.672 21.248 20.672h206.016a20.928 20.928 0 0 0 21.248-20.672z" fill="#59A3E9" /></svg>