<?xml version="1.0" standalone="no"?><!DOCTYPE svg PUBLIC "-//W3C//DTD SVG 1.1//EN" "http://www.w3.org/Graphics/SVG/1.1/DTD/svg11.dtd"><svg class="icon" width="200px" height="200.00px" viewBox="0 0 1024 1024" version="1.1" xmlns="http://www.w3.org/2000/svg"><path d="M751.499784 434.801806L495.502344 690.799246a47.261066 47.261066 0 0 1-67.740861 0L283.615232 546.652995a47.261066 47.261066 0 0 1-13.390635-33.870431A48.04875 48.04875 0 0 1 315.122609 464.733814a49.624119 49.624119 0 0 1 34.658115 14.17832l109.488136 110.27582 224.490063-222.127009a48.04875 48.04875 0 1 1 67.740861 67.740861z" fill="#FFFFFF" /><path d="M512.043717 0A512.782564 512.782564 0 0 0 0.048837 519.871724 519.08404 519.08404 0 0 0 505.742242 1023.98976 511.99488 511.99488 0 1 0 512.043717 0z" fill="#FFAC00" /><path d="M841.295809 655.353446H472.659495A25.205902 25.205902 0 0 1 450.604331 630.147545V259.148178a48.04875 48.04875 0 0 1 48.048751-48.048751 48.04875 48.04875 0 0 1 48.04875 48.048751v300.895452h294.593977a48.04875 48.04875 0 0 1 0 95.309816" fill="#FFFFFF" /></svg>