<?xml version="1.0" standalone="no"?><!DOCTYPE svg PUBLIC "-//W3C//DTD SVG 1.1//EN" "http://www.w3.org/Graphics/SVG/1.1/DTD/svg11.dtd"><svg t="1614318841653" class="icon" viewBox="0 0 1024 1024" version="1.1" xmlns="http://www.w3.org/2000/svg" p-id="26100" xmlns:xlink="http://www.w3.org/1999/xlink" width="200" height="200"><defs><style type="text/css"></style></defs><path d="M825.984 750.4c-2.56-19.584-10.368-34.496-23.296-44.8a155.328 155.328 0 0 0-45.056-24.448 640.384 640.384 0 0 0-53.312-16.256 172.8 172.8 0 0 1-48.96-20.608 119.488 119.488 0 0 1-25.344-19.84c-5.76-6.4-10.048-12.608-12.608-19.008a50.368 50.368 0 0 1-4.032-19.84c0-6.848 0.32-14.528 0.832-23.04a44.16 44.16 0 0 1 12.672-28.8c7.36-7.232 15.488-14.464 24.448-21.888a48.512 48.512 0 0 0 11.072-15.36c3.072-6.72 6.08-13.44 8.704-20.288 2.56-7.872 5.248-16.32 7.872-25.28a38.528 38.528 0 0 0 11.008-5.568c3.2-2.56 6.592-6.272 10.24-11.072a62.336 62.336 0 0 0 9.472-20.608 55.552 55.552 0 0 0 3.648-24.512 73.408 73.408 0 0 0-4.416-19.008 50.304 50.304 0 0 0-10.24-16.64 373.632 373.632 0 0 0-14.656-114.88 167.04 167.04 0 0 0-24.96-52.288 146.56 146.56 0 0 0-33.536-36.032 165.44 165.44 0 0 0-76.672-32.448 249.472 249.472 0 0 0-73.728 0 165.44 165.44 0 0 0-76.672 32.448 146.56 146.56 0 0 0-33.6 36.032 167.04 167.04 0 0 0-24.896 52.288 373.632 373.632 0 0 0-14.656 114.88 50.304 50.304 0 0 0-10.24 16.64 73.408 73.408 0 0 0-4.416 19.008 55.552 55.552 0 0 0 3.648 24.512c2.56 8.96 5.76 15.808 9.408 20.608 3.712 4.8 7.04 8.448 10.24 11.072 3.712 2.56 7.424 4.48 11.072 5.568 2.56 8.96 5.312 17.408 7.872 25.28 2.56 6.912 5.632 13.568 8.704 20.224 3.2 6.592 6.848 11.776 11.072 15.424 8.96 7.424 17.088 14.72 24.448 21.824a44.16 44.16 0 0 1 12.672 28.928c0.512 8.448 0.832 16.128 0.832 23.04 0 6.848-1.28 13.44-4.032 19.776-2.56 6.4-6.848 12.672-12.608 19.008-5.76 6.4-14.272 12.992-25.344 19.84a172.8 172.8 0 0 1-48.96 20.608c-18.432 4.8-36.16 10.176-53.312 16.256a155.328 155.328 0 0 0-45.056 24.512c-12.928 10.24-20.672 25.152-23.296 44.736-5.248 34.24-6.464 62.208-3.584 83.968 2.88 21.568 7.04 34.56 12.288 38.848 3.2 2.688 10.752 5.248 22.912 7.872 12.16 2.56 26.88 5.248 44.16 7.808 17.344 2.624 36.8 5.184 58.112 7.616 21.312 2.368 42.88 4.48 64.32 6.4 21.632 1.856 42.56 3.2 62.784 4.352 20.224 1.088 37.824 1.6 52.992 1.6s32.768-0.512 52.992-1.6c20.224-1.088 41.152-2.496 62.72-4.416 21.568-1.92 43.072-3.968 64.384-6.4 21.312-2.368 40.768-4.928 58.048-7.552 17.344-2.56 32.128-5.248 44.224-7.808 12.16-2.56 19.776-5.184 22.912-7.872 5.312-4.288 9.408-17.28 12.288-38.848 2.88-21.76 1.664-49.728-3.584-83.968z" p-id="26101"></path></svg>