<?xml version="1.0" standalone="no"?><!DOCTYPE svg PUBLIC "-//W3C//DTD SVG 1.1//EN" "http://www.w3.org/Graphics/SVG/1.1/DTD/svg11.dtd"><svg class="icon" width="200px" height="200.00px" viewBox="0 0 1024 1024" version="1.1" xmlns="http://www.w3.org/2000/svg"><path d="M925.184 399.36c-18.944-16.384-45.056-19.968-67.584-9.216-1.024 0.512-1.536 1.024-2.048 1.024L696.32 484.864l-92.16-193.536c15.36-19.968 24.576-44.544 24.576-71.68 0-64.512-52.224-116.736-116.736-116.736S395.264 155.136 395.264 219.648c0 27.136 9.216 52.224 24.576 71.68L328.192 485.376 168.96 391.168c-0.512-0.512-1.536-1.024-2.048-1.024-22.528-10.752-48.64-7.168-67.584 9.216-18.944 16.384-26.624 41.472-19.456 65.536 0 0.512 0 0.512 0.512 1.024L225.28 902.144c3.584 11.264 14.336 18.944 26.624 18.944h520.192c12.288 0 22.528-7.68 26.624-18.944L944.128 465.92c0-0.512 0-0.512 0.512-1.024 7.168-24.064-0.512-49.152-19.456-65.536zM512 158.72c33.28 0 60.928 27.136 60.928 60.928 0 33.28-27.136 60.928-60.928 60.928-33.28 0-60.928-27.136-60.928-60.928 0-33.792 27.648-60.928 60.928-60.928z m378.88 289.792L752.128 865.28H271.872L133.12 448.512c-0.512-2.56 0-5.12 2.048-6.656 2.048-1.536 4.096-2.048 6.656-1.536l184.32 108.544c6.656 4.096 14.848 5.12 22.528 2.56 7.68-2.56 13.824-7.68 16.896-14.848l99.328-210.432c14.336 6.144 30.208 9.728 46.592 9.728s32.256-3.584 46.592-9.728l99.328 210.432c3.584 7.168 9.728 12.288 16.896 14.848s15.872 1.536 22.528-2.56l184.32-108.544c2.56-1.024 4.608-0.512 6.656 1.536 3.072 2.048 3.584 4.096 3.072 6.656z"  /></svg>
