<?xml version="1.0" standalone="no"?><!DOCTYPE svg PUBLIC "-//W3C//DTD SVG 1.1//EN" "http://www.w3.org/Graphics/SVG/1.1/DTD/svg11.dtd"><svg class="icon" width="200px" height="200.00px" viewBox="0 0 1024 1024" version="1.1" xmlns="http://www.w3.org/2000/svg"><path d="M684.544 487.936c36.864-42.496 58.88-97.28 58.88-157.696 0-133.12-108.032-241.152-240.64-241.152h-0.512-0.512c-133.12 0-240.64 107.52-240.64 240.64 0 62.976 24.064 120.32 64 163.328-120.832 44.544-207.36 160.768-207.36 296.96v15.872c0 34.304 13.824 64 39.936 84.992 19.456 15.872 45.056 26.624 78.848 33.28 52.736 10.752 119.296 10.752 197.12 10.752h156.16c72.704 0 141.312 0 194.56-10.752 34.304-6.656 60.416-17.408 79.872-32.768 27.136-21.504 41.472-51.2 41.472-86.016v-15.872c0.512-140.8-92.672-261.12-221.184-301.568z m-306.688-29.184l-7.168-7.68c-30.208-33.28-47.104-76.288-47.104-120.832 0-98.816 79.872-179.2 178.688-179.712 98.304 0.512 178.688 80.384 178.688 179.2s-80.384 179.2-179.2 179.2c-48.128 0-91.648-18.944-123.904-50.176z m466.944 347.136c0 15.872-5.632 27.648-17.92 37.376-11.776 9.216-29.696 16.384-53.76 20.992-47.104 9.216-113.152 9.216-182.784 9.216H433.664c-74.24 0-138.24 0-184.832-9.216-23.552-4.608-40.96-11.776-52.224-20.992-11.776-9.728-17.408-21.504-17.408-37.376v-15.872c0-106.496 67.072-202.752 167.424-239.616l34.304-12.8c35.328 20.48 76.8 32.768 120.832 32.768 46.592 0 89.6-13.312 126.464-35.84l38.4 11.776c107.008 33.792 178.688 131.584 178.688 243.712v15.872z"  /></svg>
