<?xml version="1.0" standalone="no"?><!DOCTYPE svg PUBLIC "-//W3C//DTD SVG 1.1//EN" "http://www.w3.org/Graphics/SVG/1.1/DTD/svg11.dtd"><svg class="icon" width="200px" height="200.00px" viewBox="0 0 1024 1024" version="1.1" xmlns="http://www.w3.org/2000/svg"><path d="M814.592 787.968c66.56-72.704 107.008-169.984 107.008-275.968 0-225.792-183.808-409.6-409.6-409.6s-409.6 183.808-409.6 409.6 183.808 409.6 409.6 409.6c97.792 0 187.392-34.304 257.536-91.648l82.432 82.432c6.144 6.144 13.824 9.216 21.504 9.216s15.872-3.072 21.504-9.216c11.776-11.776 11.776-31.232 0-43.52l-80.384-80.896zM163.84 512c0-192 156.16-348.16 348.16-348.16s348.16 156.16 348.16 348.16-156.16 348.16-348.16 348.16-348.16-156.16-348.16-348.16z"  /><path d="M686.592 420.352l-109.568 111.616-108.544-104.448c-12.288-11.776-31.232-11.264-43.008 0.512l-132.096 132.096c-11.776 11.776-11.776 31.232 0 43.52 6.144 6.144 13.824 9.216 21.504 9.216s15.872-3.072 21.504-9.216l110.592-110.592 108.544 104.448c12.288 11.776 31.232 11.264 43.008-0.512l131.072-133.12c11.776-12.288 11.776-31.744-0.512-43.52-11.264-12.288-30.72-11.776-42.496 0z"  /></svg>
