<?xml version="1.0" standalone="no"?><!DOCTYPE svg PUBLIC "-//W3C//DTD SVG 1.1//EN" "http://www.w3.org/Graphics/SVG/1.1/DTD/svg11.dtd"><svg t="1625552164520" class="icon" viewBox="0 0 1024 1024" version="1.1" xmlns="http://www.w3.org/2000/svg" p-id="31986" xmlns:xlink="http://www.w3.org/1999/xlink" width="16" height="16"><defs><style type="text/css"></style></defs><path d="M512 920.669091c225.745455 0 408.669091-182.923636 408.669091-408.669091S737.745455 103.330909 512 103.330909 103.330909 286.254545 103.330909 512s182.923636 408.669091 408.669091 408.669091z m0-64.232727c-190.370909 0-344.436364-154.065455-344.436364-344.436364s154.065455-344.436364 344.436364-344.436364 344.436364 154.065455 344.436364 344.436364-154.065455 344.436364-344.436364 344.436364z m28.858182-440.32c0-38.632727 31.185455-69.818182 69.818182-69.818182s69.818182 31.185455 69.818181 69.818182-31.185455 69.818182-69.818181 69.818181c-15.36 0-27.461818 12.567273-27.461819 27.461819s12.567273 27.461818 27.461819 27.461818c68.887273 0 124.741818-55.854545 124.741818-124.741818s-55.854545-124.741818-124.741818-124.741819-124.741818 55.854545-124.741819 124.741819c0 15.36 12.567273 27.461818 27.461819 27.461818s27.461818-12.101818 27.461818-27.461818z m-54.923637 191.301818c0 38.632727-31.185455 69.352727-69.818181 69.352727s-69.352727-31.185455-69.352728-69.818182 31.185455-69.352727 69.352728-69.352727c15.36 0 27.461818-12.567273 27.461818-27.461818 0-15.36-12.567273-27.461818-27.461818-27.461818-68.887273 0-124.741818 55.854545-124.741819 124.741818s55.854545 124.741818 124.741819 124.741818 124.741818-55.854545 124.741818-124.741818c0-15.36-12.567273-27.461818-27.461818-27.461818s-27.461818 12.567273-27.461819 27.461818z m0-194.094546v195.490909h54.923637v-195.490909h-54.923637z" p-id="31987"></path></svg>