<?xml version="1.0" standalone="no"?><!DOCTYPE svg PUBLIC "-//W3C//DTD SVG 1.1//EN" "http://www.w3.org/Graphics/SVG/1.1/DTD/svg11.dtd"><svg class="icon" width="200px" height="200.00px" viewBox="0 0 1024 1024" version="1.1" xmlns="http://www.w3.org/2000/svg"><path d="M896 838.144l-13.824-181.248c0-1.536 0.512-2.56 0.512-4.096 0-3.072-0.512-6.144-1.024-8.704l-35.328-461.824c-1.024-44.032-37.376-79.872-81.92-79.872H259.584C215.04 102.4 179.2 138.24 178.176 182.272L128 838.144v2.56c0 44.544 36.352 81.408 81.408 81.408h606.208c44.544 0 81.408-36.352 81.408-81.408-0.512-1.024-0.512-2.048-1.024-2.56zM239.616 183.808c0-10.752 8.704-19.968 19.968-19.968h505.344c10.752 0 19.968 8.704 19.968 19.968v2.56l33.792 436.224h-151.552c-16.896 0-30.72 13.312-30.72 30.208 0 7.68-5.632 75.264-126.464 75.264-102.912 0-124.928-74.24-126.976-81.92-3.072-13.824-15.872-23.552-29.696-23.552H205.824l33.792-436.224v-2.56zM815.104 860.16H208.896c-10.752 0-19.456-8.192-19.968-18.944l12.288-157.696h129.536c20.992 45.568 74.752 105.984 178.688 105.984 129.024 0 169.472-65.536 182.272-105.984h131.072l12.288 157.696c-0.512 10.752-9.216 18.944-19.968 18.944z"  /><path d="M361.472 553.984h301.568c16.896 0 30.72-13.824 30.72-30.72s-13.824-30.72-30.72-30.72H361.472c-16.896 0-30.72 13.824-30.72 30.72s13.312 30.72 30.72 30.72zM361.472 450.048h301.568c16.896 0 30.72-13.824 30.72-30.72s-13.824-30.72-30.72-30.72H361.472c-16.896 0-30.72 13.824-30.72 30.72s13.312 30.72 30.72 30.72zM361.472 345.6h301.568c16.896 0 30.72-13.824 30.72-30.72s-13.824-30.72-30.72-30.72H361.472c-16.896 0-30.72 13.824-30.72 30.72s13.312 30.72 30.72 30.72z"  /></svg>
