<?xml version="1.0" standalone="no"?><!DOCTYPE svg PUBLIC "-//W3C//DTD SVG 1.1//EN" "http://www.w3.org/Graphics/SVG/1.1/DTD/svg11.dtd"><svg t="1618280562705" class="icon" viewBox="0 0 1024 1024" version="1.1" xmlns="http://www.w3.org/2000/svg" p-id="14278" xmlns:xlink="http://www.w3.org/1999/xlink" width="128" height="128"><defs><style type="text/css"></style></defs><path d="M792.149333 402.773333L632.064 242.602667l106.666667-106.666667c25.6-27.221333 28.16-26.965333 53.418666 0l106.666667 106.666667c26.026667 26.453333 27.733333 25.941333 0 53.418666l-106.666667 106.666667z m-400.213333 400.213334L231.850667 642.901333l346.88-346.88 160.085333 160.085334L391.936 802.986667z m-273.664 113.493333l60.245333-220.245333 160.085334 160.085333-220.330667 60.245333z m860.672-700.586667L818.858667 55.978667c-32.256-32.341333-74.154667-32.597333-106.666667 0L119.466667 648.533333 37.717333 943.786667c-8.704 40.96 12.458667 62.122667 53.418667 53.333333l295.168-81.664 592.64-592.64c32.597333-32.597333 32.256-74.496 0-106.752z" fill="#0091FA" p-id="14279"></path></svg>