<?xml version="1.0" standalone="no"?><!DOCTYPE svg PUBLIC "-//W3C//DTD SVG 1.1//EN" "http://www.w3.org/Graphics/SVG/1.1/DTD/svg11.dtd"><svg class="icon" width="200px" height="200.00px" viewBox="0 0 1024 1024" version="1.1" xmlns="http://www.w3.org/2000/svg"><path d="M306.744 672L897.369 81.377l45.255 45.255-590.625 590.625z"  /><path d="M329.377364 694.627778m-22.627417 22.627417a32 32 0 1 0 45.254834-45.254834 32 32 0 1 0-45.254834 45.254834Z"  /><path d="M919.997192 103.991222m-22.627417 22.627417a32 32 0 1 0 45.254834-45.254834 32 32 0 1 0-45.254834 45.254834Z"  /><path d="M896 288a32 32 0 0 0-32 32v576H160l-0.5-768.5 544.5 0.5a32 32 0 0 0 0-64H128a32 32 0 0 0-32 32v832a32 32 0 0 0 32 32h768a32 32 0 0 0 32-32V320a32 32 0 0 0-32-32z"  /><path d="M306.744 672L897.369 81.377l45.255 45.255-590.625 590.625z"  /><path d="M329.377364 694.627778m-22.627417 22.627417a32 32 0 1 0 45.254834-45.254834 32 32 0 1 0-45.254834 45.254834Z"  /><path d="M919.997192 103.991222m-22.627417 22.627417a32 32 0 1 0 45.254834-45.254834 32 32 0 1 0-45.254834 45.254834Z"  /><path d="M896 288a32 32 0 0 0-32 32v576H160l-0.5-768.5 544.5 0.5a32 32 0 0 0 0-64H128a32 32 0 0 0-32 32v832a32 32 0 0 0 32 32h768a32 32 0 0 0 32-32V320a32 32 0 0 0-32-32z"  /></svg>
