<?xml version="1.0" standalone="no"?><!DOCTYPE svg PUBLIC "-//W3C//DTD SVG 1.1//EN" "http://www.w3.org/Graphics/SVG/1.1/DTD/svg11.dtd"><svg t="1571471148595" class="icon" viewBox="0 0 1024 1024" version="1.1" xmlns="http://www.w3.org/2000/svg" p-id="8023" xmlns:xlink="http://www.w3.org/1999/xlink" width="20" height="20"><defs><style type="text/css"></style></defs><path d="M512 907.5078125C293.89392089 907.5078125 116.4921875 730.10607911 116.4921875 512S293.89392089 116.4921875 512 116.4921875s395.5078125 177.4017334 395.5078125 395.5078125-177.4017334 395.5078125-395.5078125 395.5078125z m0-738.28125C322.98022461 169.2265625 169.2265625 322.98022461 169.2265625 512s153.75366211 342.7734375 342.7734375 342.7734375 342.7734375-153.75366211 342.7734375-342.7734375S701.01977539 169.2265625 512 169.2265625z" p-id="8024"></path><path d="M512 749.3046875c-64.27001953 0-124.50256348-25.29602051-169.49157715-71.27380372C298.75537109 633.45385742 274.6953125 574.45727539 274.6953125 512c0-14.58435059 11.78283692-26.3671875 26.3671875-26.3671875h421.875c14.58435059 0 26.3671875 11.78283692 26.3671875 26.3671875 0 62.45727539-24.06005859 121.45385742-67.81311036 166.03088379C636.50256348 724.008667 576.27001953 749.3046875 512 749.3046875zM380.1640625 641.19921875c35.0189209 35.76049805 81.82067872 55.37109375 131.8359375 55.37109375s96.81701661-19.69299317 131.8359375-55.37109375c27.76794434-28.34472656 45.31860352-64.18762208 50.8392334-102.83203125H329.3248291c5.43823242 38.64440918 23.07128906 74.40490723 50.8392334 102.83203125zM393.34765625 432.8984375c-21.83532715 0-39.55078125-17.71545411-39.55078125-39.55078125s17.71545411-39.55078125 39.55078125-39.55078125 39.55078125 17.71545411 39.55078125 39.55078125-17.71545411 39.55078125-39.55078125 39.55078125zM630.65234375 432.8984375c-21.83532715 0-39.55078125-17.71545411-39.55078125-39.55078125s17.71545411-39.55078125 39.55078125-39.55078125 39.55078125 17.71545411 39.55078125 39.55078125-17.71545411 39.55078125-39.55078125 39.55078125z" p-id="8025"></path></svg>
