<?xml version="1.0" standalone="no"?><!DOCTYPE svg PUBLIC "-//W3C//DTD SVG 1.1//EN" "http://www.w3.org/Graphics/SVG/1.1/DTD/svg11.dtd"><svg class="icon" width="200px" height="200.00px" viewBox="0 0 1024 1024" version="1.1" xmlns="http://www.w3.org/2000/svg"><path d="M787.968 117.76H236.032C190.464 117.76 153.6 155.136 153.6 200.704v623.104c0 45.568 36.864 82.944 82.432 82.944 6.656 0 13.312-2.048 18.432-6.144l257.536-188.416 257.536 188.416c5.12 4.096 11.776 6.144 18.432 6.144 45.568 0 82.432-37.376 82.432-82.944V200.704c0-45.568-36.864-82.944-82.432-82.944z m19.968 705.536c0 8.704-5.12 15.872-12.288 18.944l-265.216-194.048c-10.752-8.192-25.6-8.192-36.864 0l-265.216 194.048c-7.168-3.072-12.288-10.24-12.288-18.944V200.704c0-11.264 9.216-20.48 19.968-20.48h551.936c11.264 0 19.968 9.216 19.968 20.48v622.592z"  /><path d="M688.64 291.84h-353.28c-17.408 0-31.232 13.824-31.232 31.232 0 17.408 13.824 31.232 31.232 31.232h353.28c17.408 0 31.232-13.824 31.232-31.232 0-17.408-13.824-31.232-31.232-31.232zM688.64 440.832h-353.28c-17.408 0-31.232 13.824-31.232 31.232s13.824 31.232 31.232 31.232h353.28c17.408 0 31.232-13.824 31.232-31.232s-13.824-31.232-31.232-31.232z"  /></svg>
