<?xml version="1.0" encoding="UTF-8"?>
<svg width="16px" height="16px" viewBox="0 0 16 16" version="1.1" xmlns="http://www.w3.org/2000/svg" xmlns:xlink="http://www.w3.org/1999/xlink">
    <!-- Generator: Sketch 63.1 (92452) - https://sketch.com -->
    <title>商机</title>
    <desc>Created with Sketch.</desc>
    <g id="商机" stroke="none" stroke-width="1" fill="none" fill-rule="evenodd">
        <g id="编组">
            <rect id="矩形" fill="#ffffff" opacity="0" x="0" y="0" width="16" height="16"></rect>
            <path d="M3,6.52792727 L3,6.47207273 L3,6.52792727 Z M12.9932295,6.5 C12.9932295,5.12279512 12.5057549,3.95590231 11.5240352,2.97218453 C10.5423155,1.98846676 9.36425186,1.5 7.9830738,1.5 C6.60189573,1.5 5.42383209,1.98846676 4.45565335,2.97218453 C3.48747461,3.95590231 3,5.12279512 3,6.5 C3,6.68995929 3.00677048,6.87991859 3.02708192,7.06987788 C3.02708192,7.10379919 3.05416385,7.17164179 3.05416385,7.19877883 C3.06770481,7.35481682 3.09478673,7.51085482 3.12863913,7.66689281 L3.14218009,7.70759837 C3.14895058,7.73473541 3.10832769,7.58548168 3.15572106,7.74830393 C3.20311442,7.90434193 3.25727827,8.06037992 3.31144211,8.21641791 L3.31144211,8.24355495 C3.31144211,8.26390773 3.31821259,8.27069199 3.33852404,8.27069199 C3.39945836,8.44029851 3.46716317,8.60312076 3.54840894,8.76594301 C3.54840894,8.78629579 3.55517942,8.79308005 3.57549086,8.79308005 C3.75152336,9.13907734 3.96140826,9.44436906 4.19837508,9.75644505 L4.21191605,9.77001357 L4.22545701,9.78358209 L4.59106297,10.1499322 L4.66553825,10.224559 L4.76709546,10.3263229 L4.84834123,10.380597 L5.09884902,10.5773406 L5.1394719,10.6180461 C5.15978334,10.6383989 5.17332431,10.6451832 5.19363575,10.6451832 C5.32904536,10.7605156 5.43737305,10.9029851 5.51861882,11.0590231 C5.57278267,11.1811398 5.64725796,11.2964722 5.74204469,11.3982361 C5.81651997,11.4660787 5.94515911,11.5 6.13473257,11.5 L9.8788084,11.5 C10.0683819,11.5 10.197021,11.4660787 10.2714963,11.3982361 C10.3459716,11.3303935 10.4069059,11.2150611 10.4813812,11.0590231 C10.5558565,10.9029851 10.6641842,10.7672999 10.8199052,10.6451832 L10.8605281,10.6180461 L10.9146919,10.5773406 L11.1651997,10.380597 C11.1651997,10.3466757 11.2125931,10.3263229 11.2464455,10.3263229 C11.3141503,10.2584803 11.3209208,10.2177748 11.3886256,10.1702849 C11.4157075,10.1499322 11.4292485,10.1431479 11.4292485,10.1431479 C11.5646581,10.0210312 11.6865267,9.90569878 11.7948544,9.77679783 L11.8083954,9.76322931 L11.8219364,9.74966079 C11.943805,9.60040706 12.0521327,9.44436906 12.1604604,9.28154681 C12.2620176,9.12550882 12.3635748,8.96268657 12.4448206,8.78629579 C12.465132,8.78629579 12.4719025,8.77951153 12.4719025,8.75915875 C12.5463778,8.62347354 12.6073121,8.45386703 12.6817874,8.26390773 L12.7088693,8.23677069 L12.7088693,8.20963365 C12.7630332,8.05359566 12.817197,7.89755767 12.8645904,7.74151967 C12.8645904,7.70759837 12.8578199,7.66689281 12.8916723,7.66689281 L12.9729181,7.19877883 C12.9729181,7.16485753 12.9661476,7.09701493 13,7.06987788 C12.986459,6.87991859 12.9932295,6.68317503 12.9932295,6.5 Z M9.85064249,6.77965436 L7.85007373,8.38216811 C7.65393954,8.5392773 7.34012483,8.5392773 7.14399064,8.38216811 C6.94785644,8.22505892 6.94785644,7.97368421 7.14399064,7.81657502 L8.28941432,6.89905734 L6.50067048,6.89905734 C6.29669092,6.89905734 6.11624747,6.80479183 6.03779379,6.65396701 C5.95934011,6.50314218 6.00641232,6.33346426 6.14762894,6.22034564 L8.1481977,4.61783189 C8.34433189,4.4607227 8.6581466,4.4607227 8.85428079,4.61783189 C9.05041499,4.77494108 9.05041499,5.02631579 8.85428079,5.18342498 L7.70885711,6.10094266 L9.49760094,6.10094266 C9.70158051,6.10094266 9.88202396,6.19520817 9.96047764,6.34603299 C10.0389313,6.49685782 9.99970448,6.66653574 9.85064249,6.77965436 Z M9.66350068,12.5 L6.33107191,12.5 C6.13568521,12.5 6,12.7131148 6,13 C6,13.2868852 6.14111262,13.5 6.33107191,13.5 L9.66892809,13.5 C9.85888738,13.5 10,13.2868852 10,13 C10,12.7131148 9.85888738,12.5 9.66350068,12.5 Z" id="形状" fill="#FFFFFF" fill-rule="nonzero"></path>
        </g>
    </g>
</svg>
