<?xml version="1.0" standalone="no"?><!DOCTYPE svg PUBLIC "-//W3C//DTD SVG 1.1//EN" "http://www.w3.org/Graphics/SVG/1.1/DTD/svg11.dtd"><svg t="1603425461167" class="icon" viewBox="0 0 1024 1024" version="1.1" xmlns="http://www.w3.org/2000/svg" p-id="31003" xmlns:xlink="http://www.w3.org/1999/xlink" width="200" height="200"><defs><style type="text/css"></style></defs><path d="M192 417.792v-3.584 3.584z m639.552-1.792c0-88.128-31.168-162.816-94.016-225.792-62.848-62.976-138.24-94.208-226.56-94.208-88.448 0-163.84 31.232-225.792 94.208C223.168 253.184 192 327.808 192 416c0 12.16 0.448 24.32 1.728 36.48 0 2.176 1.728 6.528 1.728 8.256 0.896 9.984 2.56 19.968 4.8 29.952l0.832 2.56c0.448 1.792-2.176-7.808 0.896 2.624 3.008 9.984 6.464 19.968 9.92 29.952v1.792c0 1.28 0.448 1.728 1.792 1.728 3.84 10.88 8.192 21.248 13.44 31.68 0 1.28 0.384 1.728 1.664 1.728 11.328 22.144 24.704 41.664 39.872 61.632l0.896 0.896 0.832 0.896 23.424 23.424 4.8 4.8 6.464 6.464 5.184 3.52 16 12.544 2.624 2.624c1.28 1.28 2.176 1.728 3.52 1.728 8.64 7.424 15.552 16.512 20.8 26.496 3.456 7.808 8.192 15.168 14.272 21.76 4.8 4.288 12.992 6.464 25.152 6.464h239.616c12.16 0 20.352-2.176 25.088-6.528 4.8-4.352 8.704-11.712 13.44-21.696 4.8-9.984 11.712-18.688 21.696-26.496l2.56-1.728 3.52-2.56 16-12.608c0-2.176 3.072-3.52 5.184-3.52 4.352-4.352 4.8-6.912 9.152-9.984 1.728-1.28 2.56-1.728 2.56-1.728a238.72 238.72 0 0 0 23.424-23.424l0.832-0.896 0.896-0.832c7.808-9.6 14.72-19.584 21.632-29.952 6.528-9.984 13.056-20.48 18.24-31.744 1.28 0 1.728-0.384 1.728-1.728 4.736-8.704 8.64-19.52 13.44-31.68l1.728-1.728V525.44c3.456-9.984 6.912-19.968 9.984-29.952 0-2.176-0.448-4.8 1.728-4.8l5.12-29.952c0-2.176-0.384-6.528 1.792-8.32-0.896-12.16-0.448-24.704-0.448-36.416z m-201.088 17.92l-128 102.528a37.632 37.632 0 0 1-45.248 0c-12.544-10.048-12.544-26.112 0-36.16l73.28-58.752H416.064c-13.056 0-24.64-6.016-29.632-15.68-5.056-9.6-2.048-20.48 7.04-27.776l128-102.528a37.632 37.632 0 0 1 45.184 0c12.544 10.048 12.544 26.112 0 36.16l-73.28 58.752h114.496c13.056 0 24.576 6.016 29.568 15.68 5.056 9.6 2.56 20.48-7.04 27.776z m-11.968 366.08H405.12c-12.48 0-21.184 13.632-21.184 32 0 18.368 9.024 32 21.184 32H618.88c12.16 0 21.184-13.632 21.184-32 0-18.368-9.024-32-21.504-32z" p-id="31004"></path></svg>