<?xml version="1.0" standalone="no"?><!DOCTYPE svg PUBLIC "-//W3C//DTD SVG 1.1//EN" "http://www.w3.org/Graphics/SVG/1.1/DTD/svg11.dtd"><svg class="icon" width="200px" height="200.00px" viewBox="0 0 1024 1024" version="1.1" xmlns="http://www.w3.org/2000/svg"><path d="M512 512m-510.272 0a510.272 510.272 0 1 0 1020.544 0 510.272 510.272 0 1 0-1020.544 0Z" fill="#C3E9FF" /><path d="M745.472 421.44a56.896 56.896 0 0 1-9.792 20.736 421.12 421.12 0 0 1-67.584 71.936c-25.088 21.76-52.288 41.408-81.728 57.728-8.704 5.504-16.32 7.616-21.76 7.616s-9.792-3.264-14.208-10.88c-5.44-13.056-1.088-22.912 13.12-30.528a401.152 401.152 0 0 0 79.552-56.64c22.848-20.736 42.496-42.496 59.968-65.408 5.44-7.68 10.88-13.12 16.384-15.232 4.288-2.176 9.792-1.088 15.168 3.264 7.68 5.44 10.88 10.88 10.88 17.408zM638.656 337.536c20.736-18.56 38.144-35.968 51.264-54.528 6.528-9.792 13.056-16.32 18.496-19.584 5.44-3.264 10.944-2.176 17.408 1.088 6.592 4.352 9.792 9.856 9.792 15.296s-4.352 13.056-13.056 24c-15.232 19.648-33.792 40.32-56.704 59.968s-47.872 38.08-73.984 54.4c-8.768 5.44-16.384 8.704-20.736 8.704s-9.792-3.264-13.056-8.704a23.04 23.04 0 0 1-3.264-18.496 31.552 31.552 0 0 1 13.056-14.144 353.216 353.216 0 0 0 70.784-48zM279.04 308.096c4.352-3.264 10.88-4.352 19.648-4.352 20.672 0 41.408-1.088 62.144-2.176 20.736-1.088 41.344-3.264 61.056-4.352 19.52-2.176 38.08-4.352 55.488-6.528 17.472-3.264 32.704-5.44 44.736-8.768 11.968-3.264 20.736-3.264 26.176-1.088 5.44 2.176 8.704 5.44 10.944 13.12 1.088 7.616 1.088 14.144-2.24 17.408-3.328 3.328-9.792 6.528-20.736 8.704-15.232 3.264-32.64 6.528-51.2 8.704-18.56 3.264-38.144 5.44-58.88 7.616-20.672 2.24-41.408 4.416-62.144 5.504-21.76 1.088-42.496 2.176-63.168 2.176-10.88 0-18.56-1.088-21.824-4.352-4.352-3.264-5.44-8.704-5.44-16.32-1.088-7.616 1.088-12.032 5.44-15.296zM549.312 357.184a689.28 689.28 0 0 1-19.584 52.288 279.68 279.68 0 0 1-24 43.584c-6.528 9.792-11.968 15.232-16.32 16.32-4.352 2.176-10.88 0-17.408-4.352-10.88-7.616-9.792-19.648 2.176-35.968a151.68 151.68 0 0 0 19.584-34.88c5.44-13.056 10.88-29.376 16.32-46.848a56.512 56.512 0 0 1 9.856-18.56c3.264-3.2 8.704-4.352 16.32-3.2 6.592 1.088 12.032 4.352 14.208 8.704s2.176 11.968-1.152 22.912zM353.216 460.672c-1.088 4.352-5.504 7.616-13.12 9.792a18.752 18.752 0 0 1-17.408-2.176c-4.416-3.264-7.616-9.792-8.704-19.584-2.176-12.032-4.416-22.912-6.592-33.792a1361.92 1361.92 0 0 1-9.792-33.792c-5.44-15.296-2.176-25.088 10.88-29.44 6.592-2.176 12.032-2.176 15.296 0 4.352 2.176 7.616 8.704 10.88 17.408 3.2 8.704 6.528 19.648 9.792 32.704 3.264 13.056 6.592 26.112 8.704 38.144 1.088 9.792 2.176 16.384 0.064 20.736z" fill="#006FD3" /><path d="M445.824 584.96v158.016c0 7.616-1.088 13.056-4.352 15.232-3.264 3.264-7.616 4.352-14.144 4.352-13.12 0-19.584-6.592-19.584-20.672V578.368a555.456 555.456 0 0 1-45.824 66.496 547.968 547.968 0 0 1-55.552 54.528c-9.792 7.616-17.472 11.968-22.912 11.968s-10.88-2.112-16.32-7.616c-5.504-6.528-6.528-13.056-3.264-19.648 3.264-6.528 8.704-13.056 16.32-19.584 19.648-15.296 38.144-33.792 55.552-53.44 17.472-19.648 33.792-43.648 50.176-70.848H282.368c-6.528 0-12.032-2.176-14.144-5.44-3.328-3.264-4.416-8.704-4.416-14.144a23.04 23.04 0 0 1 4.352-15.232c3.264-3.328 7.68-5.504 15.296-5.504H407.68v-23.936c0-5.44 1.088-9.792 2.176-13.056 1.088-3.264 3.264-4.352 6.528-5.44a41.856 41.856 0 0 1-6.528-19.712c-1.088-8.64-3.264-19.584-5.44-31.552-4.352-13.12-6.592-24-10.88-34.88a33.216 33.216 0 0 1-1.152-17.472c1.088-5.44 5.44-8.704 14.208-10.88 6.528-2.176 12.032-1.088 16.32 2.176s6.528 8.704 9.792 17.472c3.328 11.968 6.592 25.088 9.792 37.056 3.328 13.056 4.416 22.848 5.504 30.528 1.088 8.704 1.088 16.32 0 20.672 0 4.352-3.264 7.616-8.704 9.792 4.352 3.264 6.528 9.792 6.528 18.56v21.824h100.224c6.592 0 12.032 2.176 15.232 5.376 3.328 3.264 4.416 8.768 4.416 15.232a22.144 22.144 0 0 1-4.352 14.208c-3.264 3.264-7.68 5.44-15.296 5.44H456.704c15.296 16.384 30.528 32.704 42.496 49.088 13.12 15.232 25.024 31.616 35.968 46.848 4.352 6.528 6.528 13.056 6.528 18.496s-4.352 9.792-10.88 15.232c-5.44 4.352-11.968 5.504-16.384 3.264a26.688 26.688 0 0 1-14.144-13.056 573.184 573.184 0 0 0-54.464-76.224zM753.152 583.808c-26.112 38.208-57.728 71.936-92.608 101.376s-76.288 52.288-124.224 69.76c-8.704 3.264-16.32 4.352-21.824 3.264-5.44-1.088-8.704-5.44-11.968-14.144-2.176-6.592-1.088-13.12 3.2-17.408a43.392 43.392 0 0 1 16.384-10.944 449.536 449.536 0 0 0 113.344-64.32 413.632 413.632 0 0 0 82.816-90.432c5.44-8.704 10.944-14.208 16.32-16.32 4.416-2.24 10.944-1.152 17.408 3.264 6.656 4.352 10.944 9.792 9.792 15.232 0 5.44-3.136 13.056-8.64 20.672z" fill="#006FD3" /></svg>