<?xml version="1.0" standalone="no"?><!DOCTYPE svg PUBLIC "-//W3C//DTD SVG 1.1//EN" "http://www.w3.org/Graphics/SVG/1.1/DTD/svg11.dtd"><svg t="1621479528355" class="icon" viewBox="0 0 1024 1024" version="1.1" xmlns="http://www.w3.org/2000/svg" p-id="14676" xmlns:xlink="http://www.w3.org/1999/xlink" width="200" height="200"><defs><style type="text/css"></style></defs><path d="M853.333333 325.418667H170.666667a85.333333 85.333333 0 0 0-85.333334 85.333333V853.333333a85.333333 85.333333 0 0 0 85.333334 85.333334h682.666666a85.333333 85.333333 0 0 0 85.333334-85.333334V410.752a85.333333 85.333333 0 0 0-85.333334-85.333333zM881.792 853.333333a28.458667 28.458667 0 0 1-28.458667 28.458667H170.666667A28.458667 28.458667 0 0 1 142.208 853.333333V410.752c0-15.744 12.757333-28.458667 28.458667-28.458667h682.666666a28.458667 28.458667 0 0 1 28.458667 28.458667V853.333333z m-256-223.018666h-85.333333V597.333333h66.56a28.458667 28.458667 0 0 0 0-56.874666h-27.904l40.96-42.112a28.586667 28.586667 0 1 0-40.96-39.808L512 527.36l-67.712-69.418667a28.586667 28.586667 0 1 0-40.96 39.850667l41.557333 42.666667h-27.904a28.458667 28.458667 0 1 0 0 56.874666h66.56v33.578667h-85.333333a28.458667 28.458667 0 1 0 0 56.874667h85.333333v99.541333a28.458667 28.458667 0 1 0 56.917334 0v-100.096h85.333333a28.458667 28.458667 0 0 0 0-56.917333zM172.373333 265.685333h682.666667a28.458667 28.458667 0 0 0 0-56.917333h-682.666667a28.458667 28.458667 0 1 0 0 56.917333z m55.168-123.477333h568.917334a28.458667 28.458667 0 0 0 0-56.874667H227.541333a28.458667 28.458667 0 0 0 0 56.874667z" p-id="14677"></path></svg>