<?xml version="1.0" standalone="no"?><!DOCTYPE svg PUBLIC "-//W3C//DTD SVG 1.1//EN" "http://www.w3.org/Graphics/SVG/1.1/DTD/svg11.dtd"><svg class="icon" width="200px" height="200.00px" viewBox="0 0 1024 1024" version="1.1" xmlns="http://www.w3.org/2000/svg"><path fill="#333333" d="M501.4 869.5h-231c-22.7 0-41.2-17.2-41.2-38.4V192.9c0-21.2 18.5-38.4 41.2-38.4h451.3c22.7 0 41.2 17.2 41.2 38.4v266.8c0 16.3 13.2 29.5 29.5 29.5s29.5-13.2 29.5-29.5V192.9c0-53.7-45-97.4-100.2-97.4H270.3c-55.3 0-100.2 43.7-100.2 97.4V831c0 53.7 45 97.4 100.2 97.4h231c16.3 0 29.5-13.2 29.5-29.5s-13.1-29.4-29.4-29.4zM622 301.2h-0.2l-251.4 1.7c-16.3 0.1-29.4 13.4-29.3 29.7 0.1 16.2 13.3 29.3 29.5 29.3h0.2l251.4-1.7c16.3-0.1 29.4-13.4 29.3-29.7-0.2-16.2-13.3-29.3-29.5-29.3z m29.4 195.7c-0.1-16.2-13.3-29.3-29.5-29.3h-0.2l-251.4 1.7c-16.3 0.1-29.4 13.4-29.3 29.7 0.1 16.2 13.3 29.3 29.5 29.3h0.2l251.4-1.7c16.3-0.1 29.5-13.4 29.3-29.7zM476.7 634.4l-106.1 0.3c-16.3 0-29.5 13.3-29.4 29.6 0 16.3 13.2 29.4 29.5 29.4h0.1l106.1-0.3c16.3 0 29.5-13.3 29.4-29.6-0.1-16.3-13.3-29.4-29.6-29.4zM882 606.9l-104.5-67.8c-5.8-3.8-12.8-5-19.6-3.6s-12.6 5.5-16.4 11.3L575.2 803.3c-4 6.1-5.2 13.7-3.3 20.8l21.4 81.4c3 11.6 13.5 19.4 25.1 19.4 1.4 0 2.8-0.1 4.2-0.3l83.1-13.6c7.2-1.2 13.6-5.4 17.6-11.5L889.6 643c7.9-12.2 4.5-28.3-7.6-36.1zM686 861.4l-48.4 7.9-12.5-47.4 145.9-225 60.9 39.5-145.9 225z" /></svg>