<?xml version="1.0" standalone="no"?><!DOCTYPE svg PUBLIC "-//W3C//DTD SVG 1.1//EN" "http://www.w3.org/Graphics/SVG/1.1/DTD/svg11.dtd"><svg class="icon" width="200px" height="193.57px" viewBox="0 0 1058 1024" version="1.1" xmlns="http://www.w3.org/2000/svg"><path d="M690.688 564.224c14.336 0 28.672 2.048 42.496 5.632-36.352-32.256-78.336-56.832-123.392-72.704 56.832-38.912 94.208-104.448 94.208-178.688 0-119.296-97.28-216.576-216.576-216.576s-216.576 97.28-216.576 216.576c0 74.24 37.376 139.264 94.208 178.688-60.416 20.992-115.2 57.856-159.232 108.544C140.288 681.984 102.4 783.872 102.4 886.272c0 15.872 13.312 29.184 29.184 29.184s29.184-13.312 29.184-29.184c0-88.576 32.768-176.64 89.6-242.176 60.928-70.144 145.408-108.544 237.056-108.544 53.76 0 104.448 13.312 149.504 37.888 17.408-6.144 35.328-9.216 53.76-9.216zM329.216 318.976c0-87.04 71.168-158.208 158.208-158.208s158.208 71.168 158.208 158.208-71.168 158.208-158.208 158.208-158.208-71.168-158.208-158.208zM890.368 653.312c-19.968-19.968-47.104-30.72-75.264-30.72-22.528 0-44.032 7.168-62.464 19.968-17.92-12.8-39.936-19.968-62.464-19.968-28.16 0-54.784 10.752-75.264 30.72-19.968 19.456-31.232 47.104-31.232 74.752 0 28.16 11.264 55.296 31.232 74.752l106.496 105.472c8.192 8.192 18.944 12.8 30.72 12.8s22.528-4.608 30.72-12.8l106.496-105.472c19.968-19.456 31.232-47.104 31.232-74.752 1.024-27.648-10.24-54.784-30.208-74.752z m-40.96 108.544L752.64 857.088l-96.256-95.744c-8.704-8.704-13.824-20.992-13.824-33.28 0-12.288 5.12-24.576 13.824-33.28 9.216-9.216 20.992-13.824 34.304-13.824 10.24 0 19.968 3.072 28.16 9.216l33.792 24.064 33.792-24.064c8.192-6.144 17.92-9.216 28.16-9.216 12.8 0 25.088 5.12 34.304 13.824 8.704 8.704 13.824 20.992 13.824 33.28 0.512 12.8-4.608 25.088-13.312 33.792z"  /></svg>
