<?xml version="1.0" standalone="no"?><!DOCTYPE svg PUBLIC "-//W3C//DTD SVG 1.1//EN" "http://www.w3.org/Graphics/SVG/1.1/DTD/svg11.dtd"><svg t="1622775713014" class="icon" viewBox="0 0 1024 1024" version="1.1" xmlns="http://www.w3.org/2000/svg" p-id="32629" xmlns:xlink="http://www.w3.org/1999/xlink" width="32" height="32"><defs><style type="text/css"></style></defs><path d="M748.1 642.2c-16.9 0-30.6 13.7-30.6 30.6s13.7 30.6 30.6 30.6c16.9 0 30.6-13.7 30.6-30.6s-13.7-30.6-30.6-30.6zM573.6 763.8c-1-0.8-2.1-1.4-3.2-2-4.2-2.3-9-3.6-14.1-3.6H263.8c-48.2 0-87.3-39.2-87.3-87.3 0-48.1 39.2-87.3 87.3-87.3h320.5c9.5-23.2 24.7-43.4 44-58.9-0.6 0-1.3-0.1-1.9-0.1H263.8c-80.7 0-146.3 65.6-146.3 146.3 0 80.7 65.6 146.3 146.3 146.3h292.5c16.3 0 29.5-13.2 29.5-29.5 0.1-9.8-4.8-18.5-12.2-23.9z m174.5-237.5c-80.8 0-146.6 65.7-146.6 146.6 0 80.8 65.7 146.6 146.6 146.6 80.8 0 146.6-65.7 146.6-146.6-0.1-80.9-65.8-146.6-146.6-146.6z m0 237.1c-49.9 0-90.6-40.6-90.6-90.6 0-49.9 40.6-90.6 90.6-90.6 49.9 0 90.6 40.6 90.6 90.6-0.1 50-40.7 90.6-90.6 90.6zM147.5 349.7v1.1h582c47.5 0 86.2 38.7 86.2 86.2 0 16.2-4.5 32.1-13.1 45.7h67.1c4.8-14.7 7.2-30.1 7.2-45.7 0-81.3-66.1-147.4-147.4-147.4H244.4l46.2-32.8c13.3-9.4 16.4-27.8 7-41.1-9.4-13.3-27.9-16.4-41.1-7L133 296.2c-13.3 9.4-16.4 27.9-7 41.1 5.3 7.4 13.2 11.6 21.5 12.4z" p-id="32630"></path></svg>