<?xml version="1.0" standalone="no"?><!DOCTYPE svg PUBLIC "-//W3C//DTD SVG 1.1//EN" "http://www.w3.org/Graphics/SVG/1.1/DTD/svg11.dtd"><svg class="icon" width="200px" height="193.57px" viewBox="0 0 1058 1024" version="1.1" xmlns="http://www.w3.org/2000/svg"><path d="M142.976 876.36992h542.91968c14.45376 0 26.1632 7.10144 26.1632 22.20032s-11.70944 22.1952-26.1632 22.1952H122.89536a25.72288 25.72288 0 0 1-19.61472-9.216 28.16 28.16 0 0 1-6.3488-21.48352c28.73344-239.3344 149.9648-367.37024 358.49216-376.27904 63.7184-2.7392 119.64416 7.30112 167.61856 30.20288 13.16864 6.29248 18.93888 22.50752 12.93824 36.224-6.01088 13.75232-21.56032 9.54368-34.70848 3.25632-40.05888-19.12832-87.84896-27.64288-143.69792-25.28256-172.9024 7.34208-283.1104 124.8-314.5984 318.1824z"  /><path d="M474.7776 497.17248c53.7856 0 103.936-20.43904 141.5168-57.33888 36.9152-36.31616 56.90368-83.74784 56.90368-134.28224 0-50.52416-19.98848-97.98656-56.90368-134.27712-37.5808-36.89472-87.72096-57.33888-141.5168-57.33888-53.8368 0-103.96672 20.44416-141.52704 57.33888C296.3456 207.5648 276.3008 255.0272 276.3008 305.55136c0 50.5344 19.99872 97.97632 56.90368 134.28224 37.58592 36.90496 87.70048 57.33888 141.55776 57.33888h0.01536z m-0.00512 43.5456c-63.90272 0-124.01664-24.45824-169.21088-68.88448-45.15328-44.42112-70.0672-103.45984-70.0672-166.28224 0-62.81728 24.9088-121.85088 70.10304-166.26688 45.13792-44.42112 105.27232-68.8896 169.1648-68.8896 63.872 0 123.98592 24.46848 169.14432 68.8896 45.19424 44.416 70.10816 103.45984 70.10816 166.26688 0 62.8224-24.91392 121.86112-70.10816 166.28224-45.1584 44.416-105.27232 68.88448-169.14432 68.88448h0.01024z m314.46528 336.57344c0.14848-0.1024 0.32768-0.2048 0.512-0.30208l-0.512 0.30208z m37.05856-20.82816c28.54912-25.80992 67.46624-65.32608 115.24608-116.93056 12.6464-15.04256 19.4816-34.45248 19.2-54.41024 0-43.00288-29.84448-76.5696-64.72192-76.5696-18.54464 0-36.03968 9.5232-48.41984 26.4448l-10.95168 14.90944c-9.09312 12.40064-23.23456 19.72736-38.2208 19.72736-14.95552 0-29.10208-7.32672-38.1696-19.72736l-10.91584-14.90944c-12.49792-17.02912-30.09024-26.4448-48.61952-26.4448-34.68288 0-64.49152 33.60256-64.49152 76.74368 0 24.00256 9.28768 45.7728 24.92928 60.31872l2.64192 2.64704c45.73184 49.54624 82.19136 86.50752 109.02528 110.57664 10.13248 9.04704 18.70336 16.128 25.4464 21.03808 7.3472-5.33504 16.79872-13.17376 28.02176-23.41376z m-25.75872-218.40384l28.66176-46.19776c17.3568-14.04416 38.71744-21.70368 60.66688-21.73952 58.36288 0 105.65632 53.25824 105.65632 118.7584 0.26624 30.35136-10.25024 59.65824-29.4912 82.37056-93.4656 101.07904-149.3504 151.57248-167.53664 151.57248-18.27328 0-71.10144-47.37536-158.63296-142.14656-23.53152-21.92896-38.40512-54.80448-38.40512-91.648 0-65.6384 47.28832-118.90176 105.45664-118.90176 22.08768 0 43.22816 7.68512 60.8256 21.7088l32.79872 46.22336z"  /></svg>
