<?xml version="1.0" standalone="no"?><!DOCTYPE svg PUBLIC "-//W3C//DTD SVG 1.1//EN" "http://www.w3.org/Graphics/SVG/1.1/DTD/svg11.dtd"><svg class="icon" width="200px" height="200.00px" viewBox="0 0 1024 1024" version="1.1" xmlns="http://www.w3.org/2000/svg"><path d="M922.427 956.955H104.602V660.121H37.923v363.377h45.948v0.163h873.024v-0.163h32.21V660.12h-66.678zM1019.99 279.497c-0.383-9.852-2.637-19.557-6.709-28.903l0.415-0.477-1.841-3.146c-1.179-2.017-117.754-201.187-119.952-205.043-12.232-23.57-25.83-41.59-78.767-41.59H210.858c-47.27 0-67.075 22.165-81.46 46.16L14.158 243.277l-0.246 0.42-0.622 1.767v0.012c-5.634 10.918-8.77 22.452-9.33 34.31a7.718 7.718 0 0 0-0.202 1.773v175.838c0 86.528 67.168 156.922 149.726 156.922 47.108 0 91.252-23.21 119.503-62.455 28.27 39.244 72.413 62.455 119.497 62.455 47.098 0 91.25-23.212 119.523-62.455 28.251 39.246 72.384 62.455 119.477 62.455 47.1 0 91.251-23.21 119.525-62.457 28.273 39.248 72.415 62.457 119.5 62.457 82.56 0 149.727-70.394 149.727-156.922v-175.73a7.698 7.698 0 0 0-0.246-2.17z m-910.055-78.39c37.643-63.013 62.327-104.137 73.387-122.261 6.922-11.403 14.392-15.641 27.562-15.641h602.279c13.528 0 18.659 0.753 27.549 15.57a238691.4 238691.4 0 0 1 73.406 122.332H109.935z m760.597 350.345c-49.224 0-89.27-42.193-89.27-94.055V432.32c0-17.332-13.549-31.433-30.203-31.433-16.68 0-30.25 14.1-30.25 31.433v25.077c0 51.862-40.038 94.055-89.25 94.055-49.226 0-89.27-42.193-89.27-94.055V432.32c0-17.332-13.562-31.433-30.23-31.433-16.681 0-30.252 14.1-30.252 31.433v25.077c0 51.862-40.047 94.055-89.27 94.055-49.212 0-89.249-42.193-89.249-94.055V432.32c0-17.332-13.559-31.433-30.225-31.433-16.669 0-30.23 14.1-30.23 31.433v25.077c0 51.862-40.037 94.055-89.249 94.055-49.224 0-89.27-42.193-89.27-94.055V281.961c0.433-10.124 8.573-18.038 18.57-18.038h858.4c10 0 18.14 7.895 18.573 17.99l-0.048 175.484c-0.002 51.862-40.05 94.055-89.277 94.055z"  /></svg>
