<?xml version="1.0" standalone="no"?><!DOCTYPE svg PUBLIC "-//W3C//DTD SVG 1.1//EN" "http://www.w3.org/Graphics/SVG/1.1/DTD/svg11.dtd"><svg class="icon" width="200px" height="200.00px" viewBox="0 0 1024 1024" version="1.1" xmlns="http://www.w3.org/2000/svg"><path d="M513.536 121.856c-232.96 0-423.936 158.208-423.936 354.304 0 119.808 71.68 227.328 180.736 291.84v110.08c0 14.336 9.728 24.064 22.528 24.064 4.608 0 9.728-2.048 12.288-2.048l116.224-74.24c29.696 4.608 59.392 7.168 89.088 7.168 232.96 0 423.936-158.208 423.936-354.304 2.56-198.656-187.904-356.864-420.864-356.864z m-3.072 649.216c-24.576 0-51.2-2.048-79.872-6.656l-23.04-3.584-75.776 48.64v-76.288l-30.208-17.92C207.36 659.456 151.04 569.856 151.04 476.16c0-161.28 162.304-292.864 362.496-292.864 110.08 0 212.48 39.936 281.6 110.08 52.224 52.736 78.848 116.224 77.824 184.32v1.024c0 161.28-162.816 292.352-362.496 292.352z"  /><path d="M307.712 477.696m-51.2 0a51.2 51.2 0 1 0 102.4 0 51.2 51.2 0 1 0-102.4 0Z"  /><path d="M512 477.696m-51.2 0a51.2 51.2 0 1 0 102.4 0 51.2 51.2 0 1 0-102.4 0Z"  /><path d="M696.467363 524.965735a51.2 51.2 0 1 0 39.186783-94.605264 51.2 51.2 0 1 0-39.186783 94.605264Z"  /></svg>
