<?xml version="1.0" standalone="no"?><!DOCTYPE svg PUBLIC "-//W3C//DTD SVG 1.1//EN" "http://www.w3.org/Graphics/SVG/1.1/DTD/svg11.dtd"><svg class="icon" width="200px" height="200.00px" viewBox="0 0 1024 1024" version="1.1" xmlns="http://www.w3.org/2000/svg"><path d="M512 102.4c-226.304 0-409.6 183.296-409.6 409.6s183.296 409.6 409.6 409.6 409.6-183.296 409.6-409.6-183.296-409.6-409.6-409.6z m0 757.76c-192 0-348.16-156.16-348.16-348.16s156.16-348.16 348.16-348.16 348.16 156.16 348.16 348.16-156.16 348.16-348.16 348.16z"  /><path d="M656.896 367.104c-11.776-11.776-31.232-11.776-43.52 0L512 468.48 410.624 367.104c-11.776-11.776-31.232-11.776-43.52 0-11.776 11.776-11.776 31.232 0 43.52L468.48 512l-101.376 101.376c-11.776 11.776-11.776 31.232 0 43.52 6.144 6.144 13.824 9.216 21.504 9.216s15.872-3.072 21.504-9.216l101.376-101.376 101.376 101.376c6.144 6.144 13.824 9.216 21.504 9.216s15.872-3.072 21.504-9.216c11.776-11.776 11.776-31.232 0-43.52L555.52 512l101.376-101.376c11.776-11.776 11.776-31.232 0-43.52z"  /></svg>
