<?xml version="1.0" standalone="no"?><!DOCTYPE svg PUBLIC "-//W3C//DTD SVG 1.1//EN" "http://www.w3.org/Graphics/SVG/1.1/DTD/svg11.dtd"><svg t="1618294783524" class="icon" viewBox="0 0 1024 1024" version="1.1" xmlns="http://www.w3.org/2000/svg" p-id="25115" xmlns:xlink="http://www.w3.org/1999/xlink" width="128" height="128"><defs><style type="text/css"></style></defs><path d="M532.107636 498.688a26.205091 26.205091 0 0 0-37.050181 0l-13.917091 13.917091-126.138182 126.138182 32.395636 32.395636 104.168727-104.261818 0.791273-0.791273v244.736h44.218182V567.854545l0.791273 0.837819 102.4 102.4 32.442182-32.395637-126.277819-126.231272-13.824-13.824z m342.760728-111.522909a270.289455 270.289455 0 0 0-57.995637-86.109091 270.289455 270.289455 0 0 0-191.488-79.266909A270.056727 270.056727 0 0 0 433.943273 301.149091a269.498182 269.498182 0 0 0-52.503273 73.960727 186.274909 186.274909 0 0 0-65.210182-11.729454 184.506182 184.506182 0 0 0-131.351273 54.458181A183.668364 183.668364 0 0 0 130.327273 548.957091c0 49.570909 19.316364 96.209455 54.411636 131.304727 18.897455 18.897455 41.146182 33.233455 65.442909 42.496v-50.362182a139.962182 139.962182 0 0 1-74.007273-123.345454A140.055273 140.055273 0 0 1 364.823273 417.978182c15.173818 5.632 28.997818 13.824 41.099636 24.017454a223.278545 223.278545 0 0 1 60.229818-108.450909 223.185455 223.185455 0 0 1 159.045818-65.861818c60.043636 0 116.596364 23.365818 159.045819 65.861818a223.650909 223.650909 0 0 1 65.954909 159.138909 223.464727 223.464727 0 0 1-76.520728 169.006546v57.530182a270.289455 270.289455 0 0 0 122.321455-226.490182c0-36.491636-7.121455-72.238545-21.178182-105.611637z" p-id="25116"></path></svg>