<?xml version="1.0" standalone="no"?><!DOCTYPE svg PUBLIC "-//W3C//DTD SVG 1.1//EN" "http://www.w3.org/Graphics/SVG/1.1/DTD/svg11.dtd"><svg class="icon" width="200px" height="200.00px" viewBox="0 0 1024 1024" version="1.1" xmlns="http://www.w3.org/2000/svg"><path d="M861.184 541.184c-3.072 21.504-11.264 41.472-25.088 58.368 16.896 20.992 27.136 46.08 27.136 73.216 0 72.704-72.192 131.584-160.768 131.584-38.912 0-73.728-11.776-101.888-30.208-15.872 11.776-33.792 20.992-53.248 25.6 39.936 34.816 95.232 56.32 156.672 56.32 15.36 0 30.72-1.536 46.08-4.096l60.416 38.912c1.024 0 4.096 1.024 6.144 1.024 6.144 0 11.776-5.12 11.776-12.288v-57.856c56.32-33.792 93.696-90.624 93.696-153.088-0.512-49.664-23.552-94.208-60.928-127.488zM614.4 394.752c-24.064 0-44.032 19.456-44.032 44.032 0 24.064 19.456 44.032 44.032 44.032 24.064 0 44.032-19.456 44.032-44.032 0-24.064-19.968-44.032-44.032-44.032zM467.968 394.752c-24.064 0-44.032 19.456-44.032 44.032 0 24.064 19.456 44.032 44.032 44.032 24.064 0 44.032-19.456 44.032-44.032 0-24.064-19.456-44.032-44.032-44.032zM322.048 394.752c-24.064 0-44.032 19.456-44.032 44.032 0 24.064 19.456 44.032 44.032 44.032 24.064 0 44.032-19.456 44.032-44.032-0.512-24.064-19.968-44.032-44.032-44.032z"  /><path d="M831.488 439.296c2.56-171.008-162.304-307.712-363.52-307.712C267.264 131.584 102.4 268.288 102.4 437.248c0 103.424 61.952 196.096 156.16 251.904v94.72c0 12.288 8.704 20.48 19.456 20.48 4.096 0 8.704-2.048 10.752-2.048L389.12 738.304c25.6 4.096 51.2 6.144 76.8 6.144 200.704 0.512 365.568-136.192 365.568-305.152z m-363.52 248.32c-169.472 0-307.2-111.104-307.2-248.832 0-137.216 137.728-248.832 307.2-248.832s307.2 111.104 307.2 248.832c0 137.216-137.216 248.832-307.2 248.832z"  /></svg>
