<?xml version="1.0" standalone="no"?><!DOCTYPE svg PUBLIC "-//W3C//DTD SVG 1.1//EN" "http://www.w3.org/Graphics/SVG/1.1/DTD/svg11.dtd"><svg class="icon" width="200px" height="200.00px" viewBox="0 0 1024 1024" version="1.1" xmlns="http://www.w3.org/2000/svg"><path d="M748.64 161.6H275.36C207.2 161.6 152 217.28 152 285.44v2.88l47.04 451.2C200 807.68 255.2 862.4 322.88 862.4h378.72c67.68 0 122.4-54.72 123.36-122.4l47.04-451.2v-2.88c0-68.64-55.2-124.32-123.36-124.32z m18.72 573.6v2.88c0 36.48-29.76 66.24-65.76 66.24H322.88c-36.48 0-65.76-29.76-65.76-66.24v-2.88l-47.04-451.2c0.48-35.52 29.28-64.8 65.28-64.8h473.28c36 0 65.28 29.28 65.76 65.28l-47.04 450.72z"  /><path d="M684.32 337.76c-15.84 0-28.8 12.96-28.8 28.8 0 10.56-5.76 101.76-143.52 101.76S368.48 377.6 368.48 366.56c0-15.84-12.96-28.8-28.8-28.8s-28.8 12.96-28.8 28.8c0 1.44 2.4 158.88 201.12 158.88s201.12-157.44 201.12-158.88c0-15.36-12.48-28.8-28.8-28.8z"  /></svg>
