<?xml version="1.0" standalone="no"?><!DOCTYPE svg PUBLIC "-//W3C//DTD SVG 1.1//EN" "http://www.w3.org/Graphics/SVG/1.1/DTD/svg11.dtd"><svg class="icon" width="200px" height="175.49px" viewBox="0 0 1167 1024" version="1.1" xmlns="http://www.w3.org/2000/svg"><path d="M1024 512.736561c0-150.024982-106.693614-271.970807-237.981193-271.970807-31.312842 0-61.278316 7.042246-88.692772 19.671579C653.114386 149.396211 555.421193 71.859649 441.990737 71.859649 287.456561 71.859649 161.684211 215.884351 161.684211 392.910596c0 152.270596 93.11214 279.947228 217.429333 312.805053l-23.246597 68.230737h62.751439l-7.922526 30.055298a55.799018 55.799018 0 0 0 13.294035 52.673123c5.640982 6.10807 6.718877 15.018667 2.694737 22.330386l-35.893895 63.182596a18.665544 18.665544 0 0 0 7.257824 25.528141 19.042807 19.042807 0 0 0 25.815579-7.185965l35.87593-63.164632a55.996632 55.996632 0 0 0-7.796772-66.092912 18.827228 18.827228 0 0 1-4.437333-17.821193l10.491509-39.504842h70.404491l-23.246597-68.230737a259.862456 259.862456 0 0 0 84.524913-39.774316c35.354947 59.194386 90.579088 101.483789 154.55214 114.652071l-10.760982 31.510456h36.414877l-2.01207 7.724912c-3.898386 14.892912 0 30.594246 10.617263 42.01993 2.281544 2.389333 2.694737 6.126035 1.077895 8.910596l-25.258667 44.032a18.629614 18.629614 0 0 0 7.239859 25.528141 19.042807 19.042807 0 0 0 25.815579-7.185965l25.132913-44.13979a44.660772 44.660772 0 0 0-6.197895-52.673123 7.778807 7.778807 0 0 1-1.868351-7.185965l4.563088-17.282245h27.558175l-10.617263-31.133193C938.145684 759.304982 1024 647.329684 1024 512.736561zM408.54007 736.435649l7.383579-21.53993h52.15214l7.383579 21.53993h-66.919298z m163.678316-104.394105c-37.636491 28.061193-82.243368 44.552982-130.227649 44.552982-133.694877 0-242.544281-127.281404-242.544281-283.68393S308.29586 109.226667 441.990737 109.226667c99.184281 0 184.643368 69.955368 222.13614 169.966035a324.949333 324.949333 0 0 1 20.426105 113.717894c0 84.578807-31.851789 160.660211-82.243368 212.650667a255.209544 255.209544 0 0 1-30.091228 26.480281zM786.018807 747.340351c-69.739789 0-131.161825-42.01993-167.037754-105.597755 63.020912-58.924912 103.334175-148.55186 103.334175-248.832 0-33.792-4.563088-66.236632-13.024561-96.830877a173.361404 173.361404 0 0 1 76.72814-17.946947c110.322526 0 200.093193 105.202526 200.093193 234.603789 0 129.401263-89.770667 234.603789-200.093193 234.60379z" /></svg>
