<?xml version="1.0" standalone="no"?><!DOCTYPE svg PUBLIC "-//W3C//DTD SVG 1.1//EN" "http://www.w3.org/Graphics/SVG/1.1/DTD/svg11.dtd"><svg class="icon" width="200px" height="200.00px" viewBox="0 0 1024 1024" version="1.1" xmlns="http://www.w3.org/2000/svg"><path d="M283.768 478.664l-0.356-0.378c-5.842-6.24-14.092-9.818-22.636-9.818-7.898 0-15.42 2.972-21.184 8.37-6.042 5.658-9.524 13.332-9.798 21.608-0.268 8.142 2.526 15.84 7.87 21.692l195.008 185.328 0.386 0.396c5.838 6.236 14.086 9.812 22.63 9.812 2.892 0 5.842-0.422 8.856-1.282l0.422-0.11c5.938-1.406 11.334-4.56 15.668-9.186l342.184-349.486c5.59-6.034 8.518-13.88 8.246-22.098-0.274-8.278-3.754-15.952-9.804-21.612-5.762-5.394-13.284-8.366-21.176-8.366-8.548 0-16.878 3.662-22.93 10.126l-320.384 324.64L283.768 478.664z"  /><path d="M925.416 408.84l0 516.01L98.584 924.85 98.584 99.15l618.926 0 0-48L94.584 51.15c-24.262 0-44 19.738-44 44l0 833.7c0 24.262 19.738 44 44 44l834.834 0c24.262 0 44-19.738 44-44L973.418 408.84 925.416 408.84z"  /></svg>
