<?xml version="1.0" standalone="no"?><!DOCTYPE svg PUBLIC "-//W3C//DTD SVG 1.1//EN" "http://www.w3.org/Graphics/SVG/1.1/DTD/svg11.dtd"><svg class="icon" width="200px" height="200.00px" viewBox="0 0 1024 1024" version="1.1" xmlns="http://www.w3.org/2000/svg"><path d="M512 102.4c-226.304 0-409.6 183.296-409.6 409.6s183.296 409.6 409.6 409.6 409.6-183.296 409.6-409.6-183.296-409.6-409.6-409.6z m0 757.76c-192 0-348.16-156.16-348.16-348.16s156.16-348.16 348.16-348.16 348.16 156.16 348.16 348.16-156.16 348.16-348.16 348.16z"  /><path d="M629.248 491.52c16.896 0 30.72-13.824 30.72-30.72s-13.824-30.72-30.72-30.72h-64.512l76.288-76.288c11.776-11.776 11.776-31.232 0-43.52-11.776-11.776-31.232-11.776-43.52 0L506.368 401.92 415.232 310.784c-11.776-11.776-31.232-11.776-43.52 0-11.776 11.776-11.776 31.232 0 43.52L448 430.08H383.488c-16.896 0-30.72 13.824-30.72 30.72s13.824 30.72 30.72 30.72h92.16v46.592h-92.16c-16.896 0-30.72 13.824-30.72 30.72s13.824 30.72 30.72 30.72h92.16v119.296c0 16.896 13.824 30.72 30.72 30.72s30.72-13.824 30.72-30.72v-119.296h92.16c16.896 0 30.72-13.824 30.72-30.72s-13.824-30.72-30.72-30.72h-92.16V491.52h92.16z"  /></svg>
