<?xml version="1.0" standalone="no"?><!DOCTYPE svg PUBLIC "-//W3C//DTD SVG 1.1//EN" "http://www.w3.org/Graphics/SVG/1.1/DTD/svg11.dtd"><svg t="1589445885274" class="icon" viewBox="0 0 1097 1024" version="1.1" xmlns="http://www.w3.org/2000/svg" p-id="9395" xmlns:xlink="http://www.w3.org/1999/xlink" width="214.2578125" height="200"><defs><style type="text/css"></style></defs><path d="M554.14983226 624.04171338H461.88351027c-18.13685814 0-32.94015088-17.79785156-32.9401509-39.55078124 0-21.75292969 14.80329274-39.55078125 32.9401509-39.55078125h92.26632199V455.32938036c0-18.13685814 17.85435278-32.99665211 39.55078125-32.99665134 21.75292969 0 39.55078125 14.8597932 39.55078125 32.99665134v89.61077053h92.32282399c18.08035692 0 32.94015088 17.85435278 32.94015088 39.55078124 0 21.75292969-14.80329274 39.55078125-32.94015088 39.55078125H633.25139475v94.92187501c0 18.13685814-17.79785156 32.99665211-39.55078125 32.99665134-21.75292969 0-39.55078125-14.8597932-39.55078125-32.99665134v-94.921875zM264.12960402 709.75390625V347.18624463a99.15945848 99.15945848 0 0 1 98.87695312-98.87695311h461.44461474a99.15945848 99.15945848 0 0 1 98.87695312 98.87695312v461.44461474A99.15945848 99.15945848 0 0 1 824.45117188 907.5078125H363.00655714a99.15945848 99.15945848 0 0 1-98.87695312-98.87695313v-32.94015088H231.18945312a99.15945848 99.15945848 0 0 1-98.87695312-98.87695313V215.36914062A99.15945848 99.15945848 0 0 1 231.18945312 116.4921875h461.38811352a99.15945848 99.15945848 0 0 1 98.87695312 98.87695313v32.82714843H725.57421875V215.36914062a33.3356587 33.3356587 0 0 0-32.99665211-32.94015088H231.18945312a33.3356587 33.3356587 0 0 0-32.99665211 32.94015089v461.44461473a33.3356587 33.3356587 0 0 0 32.99665212 32.94015089h32.94015089z m560.32156786-395.5078125H363.00655714a33.3356587 33.3356587 0 0 0-32.94015089 32.94015088v461.44461474a33.3356587 33.3356587 0 0 0 32.94015089 32.94015089h461.44461474a33.3356587 33.3356587 0 0 0 32.94015088-32.94015089V347.18624463a33.3356587 33.3356587 0 0 0-32.94015089-32.94015088z" p-id="9396"></path></svg>