<?xml version="1.0" standalone="no"?><!DOCTYPE svg PUBLIC "-//W3C//DTD SVG 1.1//EN" "http://www.w3.org/Graphics/SVG/1.1/DTD/svg11.dtd"><svg t="1570523019467" class="icon" viewBox="0 0 1024 1024" version="1.1" xmlns="http://www.w3.org/2000/svg" p-id="6642" xmlns:xlink="http://www.w3.org/1999/xlink" width="20" height="20"><defs><style type="text/css"></style></defs><path d="M406.7 931.14285752c-18 20.57142832-28.28571416 30.85714248-56.57142832 30.85714248h-146.5714292c-46.28571416 0-84.85714248-38.57142832-84.85714248-84.85714248V146.85714248C118.7 100.57142832 157.27142832 62 203.55714248 62h146.5714292c12.85714248 0 41.14285752 2.57142833 59.14285664 30.85714248v2.5714292c10.28571416 30.85714248 28.28571416 64.28571416 84.85714336 64.28571416 51.42857168 0 77.14285752-46.28571416 87.4285708-66.85714336 15.42857168-28.28571416 36-30.85714248 59.14285752-30.85714248h146.57142832c46.28571416 0 84.85714248 38.57142832 84.85714335 84.85714248v730.28571504c0 46.28571416-38.57142832 84.85714248-84.85714335 84.85714248h-146.57142832c-25.71428584 0-41.14285752-2.57142833-59.14285752-30.85714248-28.28571416-51.42857168-48.85714248-66.85714248-87.4285708-66.85714336-41.14285752 0-61.71428584 15.42857168-87.42857168 66.85714336z m-65.57142832-547.77857168a38.57142832 38.57142832 0 1 0-1e-8 77.14285664h308.57142833a38.57142832 38.57142832 0 1 0 0-77.14285664h-308.57142832z m-1e-8 180.12857168a38.57142832 38.57142832 0 1 0 0 77.14285664h308.57142833a38.57142832 38.57142832 0 1 0 0-77.14285664h-308.57142832z" p-id="6643"></path></svg>
