<?xml version="1.0" standalone="no"?><!DOCTYPE svg PUBLIC "-//W3C//DTD SVG 1.1//EN" "http://www.w3.org/Graphics/SVG/1.1/DTD/svg11.dtd"><svg t="1589445864952" class="icon" viewBox="0 0 1024 1024" version="1.1" xmlns="http://www.w3.org/2000/svg" p-id="9260" xmlns:xlink="http://www.w3.org/1999/xlink" width="200" height="200"><defs><style type="text/css"></style></defs><path d="M713.12696826 90.67864172H311.55954761C214.53937018 90.67864172 135.87795267 169.34005923 135.87795267 266.36023584v392.7091539c0 97.02017742 78.66141751 175.68159412 175.68159494 175.68159412H635.75000027c21.41486197 0 42.80757879 8.17175171 59.15108222 24.49311081 19.79822873 19.79822873 27.59350397 47.05954733 23.38582735 72.7485238 28.32431094-14.52755896 54.92125964-33.63927182 78.6614167-57.37942969 54.85482257-54.85482257 85.12795294-124.96801191 90.8636814-196.67568851 0.6643699-8.37106292 1.01870041-16.76427182 1.01870041-25.17962585V266.31594473C888.8085632 169.34005923 810.14714569 90.67864172 713.12696826 90.67864172z m76.84547305 511.71998017c0 71.55265732-58.02165363 129.57431094-129.57431177 129.57431094H421.31348386c-15.78986252 0-31.57972421 6.02362189-43.62696799 18.07086649-14.61614199 14.61614199-20.35187046 34.7244093-17.2293305 53.65895691-20.90551218-10.71850396-40.50442886-24.82529534-57.99950849-42.32037415-40.46013776-40.46013776-62.78297278-92.17027524-67.01279535-145.05413406-0.48720465-6.17864199-0.75295295-12.37942913-0.75295211-18.55807114V315.10285431c0-71.55265732 58.02165363-129.57431094 129.57431094-129.57431094h296.15403516c71.55265732 0 129.57431094 58.02165363 129.57431093 129.57431094v287.29576758h-0.02214514z" p-id="9261"></path><path d="M363.75688974 376.09202776c-1.32873982-0.19931122-2.65748044-0.37647647-3.94192914-0.62007878-0.99655527-0.17716525-1.99311053-0.33218537-2.96751983-0.44291355-0.42076758-0.13287414-0.84153516-0.22145635-1.26230274-0.33218536-1.12942942-0.08858303-2.25885801-0.17716525-3.41043338-0.17716525h-3.14468509c-24.82529534 0-44.93356265 20.10826812-44.93356265 44.93356347v3.14468508c0 21.01624036 14.43897674 38.59990137 33.90501929 43.51623982 0.04429111 0 0.08858303 0.02214597 0.13287414 0.02214596 0.46505869 0.13287414 0.93011819 0.24360232 1.41732285 0.37647647 3.05610205 0.6643699 6.2229331 1.01870041 9.47834637 1.01870041h3.14468509c24.82529534 0 44.93356265-20.10826812 44.93356347-44.93356266v-3.14468508c0-20.79478317-14.15108249-38.24557087-33.35137838-43.36122053zM640.53346457 388.80364145c-0.57578769 0.59793283-60.23622052 60.5019688-134.22490192 60.5019688h-0.02214514c-10.87352325 0-21.63631914-1.37303174-32.31053201-4.03051217-2.30314993-1.06299233-4.69488208-1.9488186-7.17519644-2.59104336-1.32873982-0.19931122-2.65748044-0.37647647-3.94192915-0.62007797-0.99655527-0.17716525-1.99311053-0.33218537-2.96751982-0.44291355-0.42076758-0.13287414-0.84153516-0.22145635-1.26230274-0.33218537-1.12942942-0.08858303-2.25885801-0.17716525-3.41043339-0.17716524h-3.14468509c-24.82529534 0-44.93356265 20.10826812-44.93356264 44.93356265v3.14468509c0 19.86466498 12.91092489 36.65108276 30.78248016 42.58612243l-0.06643707 0.13287415a228.7869093 228.7869093 0 0 0 68.43011819 10.40846457h0.02214514c114.315945 0 197.76082681-85.39370041 201.25984323-89.04773611 17.80511819-18.5137792 17.2293305-47.94537442-1.28444953-65.75049262-18.5137792-17.80511819-47.94537442-17.2293305-65.75049178 1.2844487z" p-id="9262"></path></svg>