<?xml version="1.0" standalone="no"?><!DOCTYPE svg PUBLIC "-//W3C//DTD SVG 1.1//EN" "http://www.w3.org/Graphics/SVG/1.1/DTD/svg11.dtd"><svg t="1608791969862" class="icon" viewBox="0 0 1024 1024" version="1.1" xmlns="http://www.w3.org/2000/svg" p-id="23208" xmlns:xlink="http://www.w3.org/1999/xlink" width="200" height="200"><defs><style type="text/css"></style></defs><path d="M728.064 149.504h-563.2v186.368h563.2V149.504zM488.96 677.376H412.672v199.168h76.288v-199.168z m272.384-599.04c25.088 0 33.28 13.312 33.28 39.936v115.712h97.28c25.088 0 33.28 13.312 33.28 39.936v220.16c0 26.112-7.68 39.424-31.744 39.936H481.28v74.752h37.376c24.576 0 37.376 7.68 38.4 31.232V911.872c0 26.112-12.8 34.304-38.4 34.304H382.976c-25.6 0-38.4-8.192-38.4-34.304v-266.24-6.144c1.536-22.528 14.336-29.184 38.4-29.184H414.72V504.832c0-26.624 7.68-39.936 33.28-39.936H858.624V305.152h-64.512v61.44c0 26.112-7.68 39.424-31.744 39.936H126.464c-20.992-1.536-27.648-14.848-27.648-39.936V118.272c0-25.6 7.168-38.912 30.208-39.936h632.32z" p-id="23209"></path></svg>