<?xml version="1.0" standalone="no"?><!DOCTYPE svg PUBLIC "-//W3C//DTD SVG 1.1//EN" "http://www.w3.org/Graphics/SVG/1.1/DTD/svg11.dtd"><svg class="icon" width="200px" height="200.00px" viewBox="0 0 1024 1024" version="1.1" xmlns="http://www.w3.org/2000/svg"><path d="M853.87946667 595.01226667c-37.6832-43.14453333-83.5584-75.3664-134.3488-95.0272 46.96746667-36.59093333 77.55093333-93.93493333 77.55093333-158.37866667 0-110.86506667-90.112-200.97706667-200.97706667-200.97706667S395.12746667 230.1952 395.12746667 341.06026667c0 64.44373333 30.58346667 121.78773333 77.55093333 158.37866666-50.7904 19.6608-96.6656 51.88266667-134.3488 95.0272-60.6208 69.35893333-95.0272 162.74773333-95.0272 256.68266667 0 18.0224 14.7456 32.768 32.768 32.768s32.768-14.7456 32.768-32.768c0-78.09706667 28.94506667-155.648 79.18933333-213.53813333 53.52106667-61.71306667 127.24906667-95.57333333 208.62293334-95.57333334s155.10186667 33.86026667 208.62293333 95.57333334c50.24426667 57.89013333 79.18933333 135.44106667 79.18933333 213.53813333 0 18.0224 14.7456 32.768 32.768 32.768s32.768-14.7456 32.768-32.768c-1.09226667-93.3888-35.49866667-186.7776-96.11946666-256.13653333z m-257.77493334-118.51093334c-74.82026667 0-135.44106667-60.6208-135.44106666-135.44106666 0-74.82026667 60.6208-135.44106667 135.44106666-135.44106667 74.82026667 0 135.44106667 60.6208 135.44106667 135.44106667 0 74.82026667-60.6208 135.44106667-135.44106667 135.44106666z"  /><path d="M288.63146667 551.86773333c24.02986667-27.8528 50.7904-51.33653333 79.73546666-71.54346666-1.09226667-1.6384-1.6384-3.2768-2.73066666-4.9152-53.52106667-8.192-95.0272-54.0672-95.0272-110.31893334 0-46.96746667 29.4912-87.38133333 70.99733333-103.76533333 8.192-26.2144 20.75306667-50.7904 36.0448-73.18186667-95.57333333 2.73066667-172.57813333 80.82773333-172.57813333 176.9472 0 54.0672 24.02986667 102.12693333 62.2592 134.3488-41.50613333 17.47626667-78.6432 44.2368-109.7728 79.73546667-52.4288 61.16693333-82.46613333 142.5408-82.46613334 223.91466667 0 18.0224 14.7456 32.768 32.768 32.768s32.768-14.7456 32.768-32.768c0-65.536 24.02986667-131.072 66.62826667-180.224 15.83786667-18.56853333 38.22933333-38.77546667 67.72053333-54.61333334 4.36906667-5.46133333 9.28426667-10.92266667 13.65333334-16.384zM628.87253333 623.95733333c0-18.0224-14.7456-32.768-32.768-32.768s-32.768 14.7456-32.768 32.768v176.9472c-6.5536 7.64586667-10.92266667 18.0224-10.92266666 28.94506667 0 24.02986667 19.6608 43.69066667 43.69066666 43.69066667s43.69066667-19.6608 43.69066667-43.69066667c0-10.92266667-4.36906667-21.2992-10.92266667-28.94506667v-176.9472z"  /></svg>
