<?xml version="1.0" standalone="no"?><!DOCTYPE svg PUBLIC "-//W3C//DTD SVG 1.1//EN" "http://www.w3.org/Graphics/SVG/1.1/DTD/svg11.dtd"><svg t="1608616720074" class="icon" viewBox="0 0 1024 1024" version="1.1" xmlns="http://www.w3.org/2000/svg" p-id="14582" xmlns:xlink="http://www.w3.org/1999/xlink" width="200" height="200"><defs><style type="text/css"></style></defs><path d="M806.424381 0c29.842286 0 39.009524 15.750095 39.009524 47.299048v136.484571h112.64l2.535619-0.048762c29.793524 0 39.009524 15.750095 39.009524 47.250286v259.900952c0 30.866286-8.825905 46.616381-37.205334 47.250286l-0.097524-0.048762a22.28419 22.28419 0 0 1-1.706666 0.048762l-1.26781-0.048762H475.331048v88.210286h44.324571c29.013333 0 44.129524 8.777143 45.348571 36.766476v0.926476l0.097524 1.414095v1.462858l-0.097524 1.511619 0.097524 313.539047v1.462857c0 31.061333-15.11619 40.618667-45.446095 40.618667H359.619048c-30.281143 0-45.446095-9.557333-45.446096-40.569905v-314.953143-4.534857l0.097524-0.828952 0.097524-2.145524c1.901714-26.331429 16.969143-34.620952 45.251048-34.620952l37.64419-0.048762v-124.684191c0-31.50019 9.264762-47.250286 39.009524-47.250285l3.267048 0.097523h0.78019l481.231238-0.048762V267.410286h-76.117333v72.801524c0 30.866286-8.777143 46.616381-37.205334 47.299047l-0.048761-0.048762a22.674286 22.674286 0 0 1-1.755429 0l-1.219048-0.048762-740.547047 0.048762H63.390476l-1.219047-0.048762H60.611048L59.489524 387.364571l-2.145524-0.048761C32.329143 385.170286 24.380952 369.468952 24.380952 340.21181V47.299048C24.380952 17.066667 32.865524 1.26781 59.977143 0.097524h0.633905L61.830095 0H63.390476l1.511619 0.048762h739.961905L806.424381 0zM484.547048 707.437714H394.630095v235.373715h89.916953v-235.373715z m282.819047-623.713524H102.4V303.786667h664.966095V83.72419z" p-id="14583"></path></svg>