<?xml version="1.0" standalone="no"?><!DOCTYPE svg PUBLIC "-//W3C//DTD SVG 1.1//EN" "http://www.w3.org/Graphics/SVG/1.1/DTD/svg11.dtd"><svg class="icon" width="200px" height="200.00px" viewBox="0 0 1024 1024" version="1.1" xmlns="http://www.w3.org/2000/svg"><path d="M911.36 560.128c-1.024-38.4-16.896-62.464-32.256-86.016-6.144-9.216-11.776-18.432-16.896-28.16 1.536-8.192 3.584-16.384 5.632-24.576 5.12-18.432 8.192-36.864 8.192-55.808-1.024-82.944-66.56-141.824-166.4-152.576-28.16-39.936-73.216-100.352-144.896-100.352-14.336 0.512-29.184 2.56-43.008 7.168-14.848 6.144-28.16 13.824-40.448 23.552-10.752 8.704-23.04 15.36-35.84 19.968-5.632-0.512-11.264-2.048-16.384-4.096s-10.24-3.584-15.36-4.608c-13.312-2.56-26.624-4.096-39.936-4.096-87.04 0-148.992 64.512-158.72 166.4-43.52 28.16-126.976 87.552-95.744 186.368 6.656 17.92 15.872 34.816 27.648 49.664 6.144 8.192 11.776 17.408 16.896 26.624-1.536 8.704-3.584 16.896-5.632 25.088-5.12 16.896-7.68 34.304-8.192 51.712 0 82.944 64 140.8 166.4 152.576 25.6 39.424 70.656 102.4 144.896 102.4 13.824-0.512 28.16-2.56 41.984-6.656 17.92-6.144 34.304-14.848 48.64-26.624 8.704-6.656 18.432-12.8 28.16-17.92 8.192 1.536 16.896 3.584 25.088 5.632 17.408 5.12 34.816 7.68 52.736 8.192h3.072c81.92-1.536 138.752-65.024 150.528-164.864 2.56-2.048 5.12-3.584 7.68-5.632 44.032-31.744 94.208-67.584 92.16-143.36z m-127.488 93.184l-1.536 1.024-1.024 1.024-1.024 0.512c-2.56 1.536-4.608 3.072-7.168 5.12l-19.456 15.872-3.072 25.088c-4.096 32.768-20.48 109.056-90.624 111.104h-1.536c-12.8-0.512-24.576-2.048-36.352-5.632l-1.024-0.512-1.024-0.512c-11.264-3.072-20.48-5.12-28.672-6.144l-20.992-4.096-18.944 9.728c-12.8 6.656-25.6 14.848-36.864 23.552l-1.024 0.512-1.024 0.512c-7.68 6.656-16.896 11.776-28.16 15.36-7.68 2.048-15.872 3.584-24.576 3.584-22.528-0.512-50.688-9.728-92.672-74.24l-15.872-24.064-28.672-3.072c-33.792-4.096-111.616-20.48-112.128-91.136 0.512-12.288 2.048-24.064 5.632-34.816l0.512-1.536 0.512-1.536c2.048-8.704 4.608-18.432 6.656-29.184l3.584-21.504-10.752-18.944c-7.168-13.312-14.336-24.064-21.504-33.792l-1.024-1.536c-7.168-9.216-13.312-19.456-17.408-31.232-9.216-30.208-6.144-65.024 70.656-115.2l25.088-15.872 3.072-29.696c9.728-100.352 71.68-111.104 97.792-111.104 8.704 0 17.92 1.024 28.16 3.072 1.024 0 2.56 0.512 4.096 1.536 11.264 4.608 22.528 7.168 33.792 8.192l13.312 1.024 12.8-4.608c19.456-7.168 37.376-16.896 53.248-29.696 7.168-5.632 14.336-9.728 22.528-13.312 6.656-2.048 14.336-3.072 23.552-3.584 38.912 0.512 69.12 38.4 94.208 74.24l15.872 22.528 27.648 3.072c26.112 2.56 110.592 17.408 111.616 92.16 0 11.776-2.048 24.576-6.144 38.912l-0.512 1.536c-2.048 8.704-4.608 17.92-6.144 28.16l-4.096 20.992 9.728 18.944c5.632 10.752 12.288 21.504 19.968 33.28v0.512c14.336 22.016 21.504 33.792 22.016 53.248 2.048 39.936-18.432 58.88-65.024 92.16z"  /><path d="M412.672 494.08c20.992 0 41.984-8.192 57.856-24.064 31.744-31.744 31.744-83.968 0-115.712s-83.968-31.744-115.712 0c-31.744 31.744-31.744 83.968 0 115.712 15.872 16.384 36.864 24.064 57.856 24.064z m-14.848-96.256c4.096-4.096 9.216-6.144 14.336-6.144s10.24 2.048 14.336 6.144c8.192 8.192 8.192 20.992 0 29.184-8.192 8.192-20.992 8.192-29.184 0-7.168-8.192-7.168-20.992 0.512-29.184zM553.472 553.472c-31.744 31.744-31.744 83.968 0 115.712 15.872 15.872 36.864 24.064 57.856 24.064 20.992 0 41.984-8.192 57.856-24.064 31.744-31.744 31.744-83.968 0-115.712-31.744-31.744-83.456-31.744-115.712 0z m72.704 72.704c-8.192 8.192-20.992 8.192-29.184 0-8.192-8.192-8.192-20.992 0-29.184 4.096-4.096 9.216-6.144 14.336-6.144 5.12 0 10.24 2.048 14.336 6.144 8.192 8.192 8.192 20.992 0.512 29.184zM669.696 354.304c-11.776-11.776-31.232-11.776-43.52 0l-271.36 271.36c-11.776 11.776-11.776 31.232 0 43.52 6.144 6.144 13.824 9.216 21.504 9.216s15.872-3.072 21.504-9.216l271.36-271.36c12.288-11.776 12.288-31.232 0.512-43.52z"  /></svg>
