<?xml version="1.0" standalone="no"?><!DOCTYPE svg PUBLIC "-//W3C//DTD SVG 1.1//EN" "http://www.w3.org/Graphics/SVG/1.1/DTD/svg11.dtd"><svg t="1595842105357" class="icon" viewBox="0 0 1024 1024" version="1.1" xmlns="http://www.w3.org/2000/svg" p-id="10853" xmlns:xlink="http://www.w3.org/1999/xlink" width="200" height="200"><defs><style type="text/css"></style></defs><path d="M109.248 522.112l413.952-413.12c10.24-10.24 24.96-14.848 39.296-12.224l278.016 50.56a44.352 44.352 0 0 1 35.712 35.776l51.008 280.512a44.352 44.352 0 0 1-12.288 39.36l-412.608 411.776a44.352 44.352 0 0 1-62.656 0L109.248 584.96a44.352 44.352 0 0 1 0-62.72z m449.92-361.728L165.12 553.472l305.856 305.28 392.768-392.064-50.496-256.128-254.144-50.176z m102.4 93.696a108.736 108.736 0 1 1 0 217.408 108.736 108.736 0 0 1 0-217.408z m0 61.824a47.168 47.168 0 0 0-43.584 64.896 47.104 47.104 0 0 0 87.104 0 47.168 47.168 0 0 0-43.52-64.896z" p-id="10854" fill="#2c2c2c"></path></svg>