<?xml version="1.0" standalone="no"?><!DOCTYPE svg PUBLIC "-//W3C//DTD SVG 1.1//EN" "http://www.w3.org/Graphics/SVG/1.1/DTD/svg11.dtd"><svg t="1617953550063" class="icon" viewBox="0 0 1024 1024" version="1.1" xmlns="http://www.w3.org/2000/svg" p-id="17876" xmlns:xlink="http://www.w3.org/1999/xlink" width="128" height="128"><defs><style type="text/css"></style></defs><path d="M17.066667 34.133333l972.8 802.133334V364.561067L589.175467 34.133333z" fill="#FFAE09" p-id="17877"></path><path d="M440.610133 141.653333c29.3888 1.928533 55.296-2.525867 77.943467-12.936533l-6.058667-12.8512c-19.4048 9.1136-41.301333 13.2096-66.0992 12.1856l-5.7856 13.585067z m134.536534 125.44l8.704-10.3424-41.745067-35.0208 16.452267-19.626666 35.293866 29.627733 8.567467-10.1888-35.293867-29.627733 14.336-17.1008-10.820266-9.079467-14.336 17.1008-34.986667-29.354667-8.567467 10.1888 34.986667 29.354667-16.452267 19.626667-40.96-34.372267-8.686933 10.359467 93.525333 78.455466z m-182.101334-6.007466l66.628267-79.394134a161.211733 161.211733 0 0 0 34.2528-12.151466l-5.905067-12.714667c-22.596267 10.990933-48.145067 16.2816-76.544 15.701333l-5.802666 13.602134c11.093333 0.477867 21.981867 0.256 32.631466-0.9728l-56.081066 66.833066 10.837333 9.096534z m74.717867 61.3376c10.0352 8.430933 19.5584 7.594667 28.125867-2.594134l33.826133-40.328533 18.363733 15.4112 8.8064-10.513067-18.346666-15.4112 9.728-11.605333-11.281067-9.472-9.745067 11.605333-60.8768-51.080533-8.823466 10.513067 60.8768 51.080533-31.453867 37.495467c-4.488533 5.3248-9.5232 5.922133-14.6944 1.570133-6.587733-5.5296-13.380267-11.776-20.206933-18.295467l-6.570667 12.936534 22.272 18.688z m-10.257067-42.564267l14.045867 1.092267c0.8192-10.530133 0.6656-24.029867-0.631467-40.3456l-13.380266-1.877334c1.092267 15.872 0.989867 29.696-0.034134 41.130667z m162.321067-3.874133l15.138133-18.039467 108.885334 91.357867-14.4896 17.2544 10.990933 9.216 23.04-27.460267-59.460267-49.885867c2.628267-6.331733 4.9152-11.912533 6.638934-17.152l-13.653334-7.970133a167.714133 167.714133 0 0 1-4.608 15.377067l-59.767466-50.158934-23.688534 28.245334 10.973867 9.216z m-26.538667 155.2384l26.7264-31.8464 35.293867 29.627733-7.3728 8.789333 10.990933 9.216 63.453867-75.6224-46.2848-38.843733 13.1584-15.684267-11.298133-9.472-13.1584 15.684267-45.806934-38.434133-63.8464 76.0832 10.973867 9.216 7.765333-9.250134 34.816 29.218134-26.709333 31.8464 11.298133 9.472z m94.276267-40.6528l-35.293867-29.627734 15.138134-18.039466 35.293866 29.627733-15.138133 18.039467z m-46.592-39.099734l-34.833067-29.2352 15.138134-18.039466 34.816 29.2352-15.121067 18.039466z m-23.569067 28.074667l-34.816-29.218133 15.121067-18.039467 34.833067 29.218133-15.138134 18.039467z m46.592 39.099733l-35.293866-29.610666 15.138133-18.039467 35.293867 29.610667-15.138134 18.039466z m94.72 90.709334c39.918933 14.250667 80.725333 12.117333 122.487467-5.768534l-5.0176-12.4928c-8.413867 3.6352-16.896 6.417067-25.7024 8.635734-10.3936-7.3728-20.804267-15.035733-31.368533-22.8352 11.9808-0.904533 28.603733-5.410133 50.005333-13.397334l42.973867 36.078934 8.567466-10.205867-34.833066-29.218133c3.328-8.430933 5.853867-16.213333 7.714133-23.210667l-13.192533-7.850667a133.085867 133.085867 0 0 1-5.495467 21.845334l-39.236267-32.904534-8.5504 10.1888 30.429867 25.5488c-24.388267 8.669867-41.198933 12.458667-50.909867 11.264-0.887467-0.2048-1.774933-0.4096-2.986666-0.887466l-5.410134 11.229866c12.8 9.9328 25.088 19.182933 36.590934 27.767467-24.968533 3.6352-49.629867 0.853333-74.274134-8.328533l-1.792 14.5408z m-51.7632 16.452266l67.003734-79.854933c-0.955733 10.7008-2.9696 24.234667-5.751467 40.618667l14.318933-4.3008c1.365333-17.5616 1.9968-33.621333 1.706667-48.554667l8.5504-10.205867 18.517333 15.530667 9.079467-10.820267-18.500267-15.530666 25.668267-30.583467-10.837333-9.096533-25.668267 30.600533-21.640533-18.158933-9.096534 10.820266 21.179734 17.7664c-22.084267 16.759467-45.6192 28.552533-70.434134 35.5328l-4.9152 15.394134a246.016 246.016 0 0 0 55.944534-26.845867l-65.9456 78.609067 10.820266 9.079466z m101.0688 83.456l15.0016-1.297066c0.443733-16.469333-0.989867-34.5088-3.857066-54.033067a205.943467 205.943467 0 0 0 57.480533-14.336l-5.358933-13.056c-47.189333 18.961067-94.276267 19.012267-141.294934 0.170667l-2.048 14.848c25.890133 9.949867 51.985067 14.199467 78.370134 13.346133 2.389333 20.736 2.9696 38.843733 1.706666 54.3744z" fill="#FFFFFF" p-id="17878"></path></svg>