<?xml version="1.0" standalone="no"?><!DOCTYPE svg PUBLIC "-//W3C//DTD SVG 1.1//EN" "http://www.w3.org/Graphics/SVG/1.1/DTD/svg11.dtd"><svg t="1617953577246" class="icon" viewBox="0 0 1024 1024" version="1.1" xmlns="http://www.w3.org/2000/svg" p-id="18002" xmlns:xlink="http://www.w3.org/1999/xlink" width="128" height="128"><defs><style type="text/css"></style></defs><path d="M17.066667 34.133333l972.8 802.133334V364.561067L589.175467 34.133333z" fill="#0091FA" p-id="18003"></path><path d="M457.762133 141.602133c29.3888 1.928533 55.313067-2.5088 77.960534-12.936533l-6.075734-12.834133c-19.4048 9.1136-41.301333 13.2096-66.0992 12.1856l-5.7856 13.585066z m134.536534 125.44l8.704-10.3424-41.745067-35.0208 16.452267-19.6096 35.310933 29.627734 8.5504-10.205867-35.293867-29.610667 14.336-17.1008-10.820266-9.079466-14.336 17.1008-34.986667-29.354667-8.567467 10.1888 34.986667 29.354667-16.452267 19.626666-40.96-34.372266-8.669866 10.359466 93.4912 78.455467z m-182.101334-6.007466l66.628267-79.377067a161.211733 161.211733 0 0 0 34.2528-12.168533l-5.905067-12.6976c-22.5792 10.990933-48.128 16.264533-76.544 15.701333l-5.7856 13.585067c11.093333 0.494933 21.981867 0.273067 32.631467-0.955734l-56.081067 66.833067 10.820267 9.079467z m74.717867 61.354666c10.052267 8.430933 19.575467 7.594667 28.125867-2.6112l33.826133-40.311466 18.363733 15.394133 8.823467-10.513067-18.363733-15.394133 9.728-11.605333-11.264-9.489067-9.762134 11.605333-60.859733-51.063466-8.823467 10.513066 60.859734 51.063467-31.453867 37.495467c-4.471467 5.341867-9.506133 5.922133-14.677333 1.5872-6.6048-5.5296-13.397333-11.776-20.224-18.295467l-6.570667 12.936533 22.272 18.688z m-10.257067-42.564266l14.045867 1.092266c0.8192-10.5472 0.6656-24.046933-0.6144-40.362666l-13.397333-1.877334c1.092267 15.889067 1.006933 29.713067-0.034134 41.130667z m78.677334 100.2496c8.96 7.509333 17.322667 6.775467 24.695466-2.013867l38.826667-46.2848c6.4 1.621333 12.8 3.242667 19.165867 4.573867l9.608533-11.434667c-6.5024-1.194667-12.9024-2.816-19.285333-4.437333l25.668266-30.583467 15.837867 13.294933 9.096533-10.837333-15.854933-13.294933 24.8832-29.6448-11.605333-9.728-24.8832 29.6448-18.978134-15.940267-9.096533 10.837333 18.9952 15.9232-29.764267 35.447467a220.7232 220.7232 0 0 1-26.385066-10.922667l-6.826667 13.550934c7.714133 3.242667 15.6672 6.178133 23.6032 8.823466l-32.119467 38.280534c-3.293867 3.925333-7.031467 4.266667-10.8032 1.092266-4.078933-3.413333-7.901867-7.168-12.014933-11.1616l-6.877867 12.970667 14.1312 11.844267z m179.234133 9.762133l45.687467-54.442667-68.4032-57.3952-45.687467 54.442667 68.4032 57.3952z m15.479467-40.7552l-46.4384-38.9632 11.451733-13.653333 46.4384 38.9632-11.451733 13.653333z m-18.688 22.272l-46.4384-38.9632 11.3152-13.482667 46.4384 38.9632-11.3152 13.482667z m-146.961067 34.952533a125.713067 125.713067 0 0 0 38.1952-13.653333c-2.6624 12.731733-2.184533 23.296 1.143467 31.4368 4.369067 10.0864 16.776533 23.978667 37.376 41.506133 5.000533 4.215467 10.683733 9.250133 16.9472 14.506667l12.356266-8.3456a342.818133 342.818133 0 0 1-21.674666-16.861867 198.314667 198.314667 0 0 1-21.0944-20.104533l16.981333-20.224 32.785067 27.511467 8.567466-10.205867-32.802133-27.511467 14.882133-17.732266 39.2192 32.9216 8.430934-10.052267-89.736534-75.298133-8.430933 10.052266 39.697067 33.297067-38.4512 45.806933a63.709867 63.709867 0 0 1-2.56-4.573866c-4.096-8.4992-4.2496-20.1216-0.443734-34.850134a121.344 121.344 0 0 0 16.042667-14.336l-9.1136-9.5232c-16.264533 16.827733-36.5568 27.613867-60.586667 32.0512l2.269867 14.1824z m344.6784 94.8736l9.079467-10.837333-61.815467-51.8656c3.242667-9.5744 5.632-18.807467 7.492267-27.392l-14.3872-8.3456c-1.024 8.2432-2.7648 16.674133-5.341867 25.480533l-64.785067-54.3744-9.096533 10.820267 138.8544 116.514133zM872.277333 547.669333l15.291734-1.3312c-0.187733-23.688533-3.328-49.578667-9.147734-77.994666l-13.8752 0.9216c5.717333 30.464 8.430933 56.541867 7.7312 78.404266z m-120.8832-103.8336c27.306667 3.140267 53.521067 1.877333 78.472534-3.652266l-2.0992-14.062934c-24.149333 4.864-49.237333 5.461333-75.554134 2.0992l-0.8192 15.616z m-53.418666 60.501334c30.6176 14.472533 60.637867 22.016 90.0608 22.647466 5.888 27.392 18.6368 55.210667 38.007466 83.746134l15.872-4.573867c-19.2-26.811733-32.119467-53.162667-38.792533-79.616a188.928 188.928 0 0 0 58.7776-14.301867l-6.536533-13.243733a164.898133 164.898133 0 0 1-55.296 12.6976 152.4736 152.4736 0 0 1 1.024-56.354133l-14.336-2.6624a181.8112 181.8112 0 0 0-1.501867 59.153066c-26.999467-1.28-55.466667-9.1136-85.504-23.637333l-1.792 16.145067z" fill="#FFFFFF" p-id="18004"></path></svg>