<?xml version="1.0" standalone="no"?><!DOCTYPE svg PUBLIC "-//W3C//DTD SVG 1.1//EN" "http://www.w3.org/Graphics/SVG/1.1/DTD/svg11.dtd"><svg class="icon" width="200px" height="200.00px" viewBox="0 0 1024 1024" version="1.1" xmlns="http://www.w3.org/2000/svg"><path d="M822.78125 379.53125C810.40625 218.75 676.0625 92 512 92S213.59375 218.75 201.21875 379.53125c-0.65625 8.0625-1.03125 16.125-1.03125 24.28125 0 56.71875 15.28125 109.96875 41.71875 155.8125l38.15625 52.6875L512 932l231.9375-319.78125 38.15625-52.6875c26.53125-45.84375 41.71875-99 41.71875-155.8125 0-8.0625-0.375-16.125-1.03125-24.1875zM512 528.59375c-68.90625 0-124.78125-55.875-124.78125-124.78125 0-8.34375 0.84375-16.40625 2.4375-24.28125 11.34375-57.28125 61.78125-100.5 122.34375-100.5s111 43.21875 122.34375 100.5c1.59375 7.875 2.4375 15.9375 2.4375 24.28125-0.09375 68.90625-55.875 124.78125-124.78125 124.78125z"  /></svg>
