<?xml version="1.0" standalone="no"?><!DOCTYPE svg PUBLIC "-//W3C//DTD SVG 1.1//EN" "http://www.w3.org/Graphics/SVG/1.1/DTD/svg11.dtd"><svg class="icon" width="200px" height="200.00px" viewBox="0 0 1024 1024" version="1.1" xmlns="http://www.w3.org/2000/svg"><path d="M822.77888 379.53024C810.40384 218.752 676.06016 92.00128 512 92.00128S213.59616 218.752 201.22112 379.53024a298.99776 298.99776 0 0 0-1.03424 24.28416 311.16288 311.16288 0 0 0 41.71776 155.81184l38.15936 52.6848 231.936 319.68768 231.94112-319.77984 38.15424-52.68992c26.53696-45.84448 41.71264-99.00032 41.71264-155.81184 0-8.064-0.36864-16.12288-1.02912-24.18688zM512 528.59392c-68.90496 0-124.77952-55.87456-124.77952-124.78464 0-8.34048 0.8448-16.4096 2.43712-24.28416C400.9984 322.24768 451.43552 279.02976 512 279.02976c60.55936 0 111.0016 43.21792 122.34752 100.50048 1.59744 7.87456 2.43712 15.93856 2.43712 24.28416-0.09216 68.90496-55.87968 124.77952-124.78464 124.77952z"  /></svg>
