<?xml version="1.0" standalone="no"?><!DOCTYPE svg PUBLIC "-//W3C//DTD SVG 1.1//EN" "http://www.w3.org/Graphics/SVG/1.1/DTD/svg11.dtd"><svg t="1603370434393" class="icon" viewBox="0 0 1024 1024" version="1.1" xmlns="http://www.w3.org/2000/svg" p-id="10868" xmlns:xlink="http://www.w3.org/1999/xlink" width="200" height="200"><defs><style type="text/css"></style></defs><path d="M256 192a42.666667 42.666667 0 0 1 42.666667 42.666667v640a42.666667 42.666667 0 0 1-42.666667 42.666666H85.333333a42.666667 42.666667 0 0 1-42.666666-42.666666v-640a42.666667 42.666667 0 0 1 42.666666-42.666667h170.666667z m-17.066667 59.733333H102.4v605.866667h136.533333V251.733333zM597.333333 320a42.666667 42.666667 0 0 1 42.666667 42.666667v512a42.666667 42.666667 0 0 1-42.666667 42.666666h-170.666666a42.666667 42.666667 0 0 1-42.666667-42.666666v-512a42.666667 42.666667 0 0 1 42.666667-42.666667h170.666666z m-17.066666 59.733333h-136.533334v477.866667h136.533334V379.733333zM938.666667 106.666667a42.666667 42.666667 0 0 1 42.666666 42.666666v725.333334a42.666667 42.666667 0 0 1-42.666666 42.666666h-170.666667a42.666667 42.666667 0 0 1-42.666667-42.666666v-725.333334a42.666667 42.666667 0 0 1 42.666667-42.666666h170.666667z m-17.066667 59.733333h-136.533333v691.2h136.533333V166.4z" p-id="10869"></path></svg>