<?xml version="1.0" standalone="no"?><!DOCTYPE svg PUBLIC "-//W3C//DTD SVG 1.1//EN" "http://www.w3.org/Graphics/SVG/1.1/DTD/svg11.dtd"><svg class="icon" width="200px" height="200.00px" viewBox="0 0 1024 1024" version="1.1" xmlns="http://www.w3.org/2000/svg"><path d="M788.48 195.072H235.52c-59.392 0-107.52 48.128-107.52 107.52v418.816c0 59.392 48.128 107.52 107.52 107.52h552.96c59.392 0 107.52-48.128 107.52-107.52V302.592c0-59.392-48.128-107.52-107.52-107.52z m46.08 526.336c0 25.6-20.48 46.08-46.08 46.08H235.52c-25.6 0-46.08-20.48-46.08-46.08V404.48h645.12v316.928z m0-378.368H189.44v-40.448c0-25.6 20.48-46.08 46.08-46.08h552.96c25.6 0 46.08 20.48 46.08 46.08V343.04z"  /><path d="M355.84 672.768c14.336 9.216 33.28 5.632 42.496-8.192l53.76-79.872 76.288 87.552c5.632 6.656 14.336 10.752 23.04 10.752h1.536c9.728-0.512 18.432-5.632 23.552-13.312l99.84-145.408c9.728-13.824 6.144-33.28-7.68-42.496-13.824-9.728-33.28-6.144-42.496 7.68l-77.312 112.64-76.288-88.064c-6.144-7.168-15.36-11.264-25.088-10.752-9.728 0.512-18.432 5.632-23.552 13.312L347.648 629.76c-9.728 14.848-6.144 33.792 8.192 43.008z"  /></svg>
