<?xml version="1.0" standalone="no"?><!DOCTYPE svg PUBLIC "-//W3C//DTD SVG 1.1//EN" "http://www.w3.org/Graphics/SVG/1.1/DTD/svg11.dtd"><svg class="icon" width="200px" height="200.00px" viewBox="0 0 1024 1024" version="1.1" xmlns="http://www.w3.org/2000/svg"><path d="M721.408 128H302.592c-59.392 0-107.52 48.128-107.52 107.52v552.96c0 59.392 48.128 107.52 107.52 107.52h418.816c59.392 0 107.52-48.128 107.52-107.52V235.52c0-59.392-48.128-107.52-107.52-107.52z m46.08 660.48c0 25.6-20.48 46.08-46.08 46.08H302.592c-25.6 0-46.08-20.48-46.08-46.08V235.52c0-25.6 20.48-46.08 46.08-46.08h418.816c25.6 0 46.08 20.48 46.08 46.08v552.96z"  /><path d="M683.52 312.32h-343.04c-16.896 0-30.72 13.824-30.72 30.72s13.824 30.72 30.72 30.72h343.04c16.896 0 30.72-13.824 30.72-30.72s-13.824-30.72-30.72-30.72zM605.184 445.44H340.48c-16.896 0-30.72 13.824-30.72 30.72s13.824 30.72 30.72 30.72h264.704c16.896 0 30.72-13.824 30.72-30.72s-13.824-30.72-30.72-30.72zM521.216 578.56H340.48c-16.896 0-30.72 13.824-30.72 30.72s13.824 30.72 30.72 30.72h180.736c16.896 0 30.72-13.824 30.72-30.72s-13.824-30.72-30.72-30.72z"  /></svg>
