<?xml version="1.0" standalone="no"?><!DOCTYPE svg PUBLIC "-//W3C//DTD SVG 1.1//EN" "http://www.w3.org/Graphics/SVG/1.1/DTD/svg11.dtd"><svg class="icon" width="200px" height="200.00px" viewBox="0 0 1024 1024" version="1.1" xmlns="http://www.w3.org/2000/svg"><path d="M762.368 205.312h-119.296C628.736 146.432 574.976 102.4 512 102.4s-116.736 44.032-131.072 102.912H261.632c-59.392 0-107.52 48.128-107.52 107.52V814.08c0 59.392 48.128 107.52 107.52 107.52H762.88c59.392 0 107.52-48.128 107.52-107.52V312.832c-0.512-58.88-48.64-107.52-108.032-107.52zM512 163.84c29.184 0 54.272 16.896 66.048 41.472H445.952c11.776-24.576 36.864-41.472 66.048-41.472z m296.448 650.24c0 25.6-20.48 46.08-46.08 46.08H261.632c-25.6 0-46.08-20.48-46.08-46.08V312.832c0-25.6 20.48-46.08 46.08-46.08H762.88c25.6 0 46.08 20.48 46.08 46.08V814.08z"  /><path d="M691.2 361.984H332.8c-16.896 0-30.72 13.824-30.72 30.72s13.824 30.72 30.72 30.72h358.4c16.896 0 30.72-13.824 30.72-30.72s-13.824-30.72-30.72-30.72zM691.2 623.616H332.8c-16.896 0-30.72 13.824-30.72 30.72s13.824 30.72 30.72 30.72h358.4c16.896 0 30.72-13.824 30.72-30.72s-13.824-30.72-30.72-30.72zM691.2 492.544H332.8c-16.896 0-30.72 13.824-30.72 30.72s13.824 30.72 30.72 30.72h358.4c16.896 0 30.72-13.824 30.72-30.72s-13.824-30.72-30.72-30.72z"  /></svg>
