<?xml version="1.0" encoding="UTF-8"?>
<svg width="24px" height="24px" viewBox="0 0 24 24" version="1.1" xmlns="http://www.w3.org/2000/svg" xmlns:xlink="http://www.w3.org/1999/xlink">
    <!-- Generator: Sketch 63.1 (92452) - https://sketch.com -->
    <title>数据中心</title>
    <desc>Created with Sketch.</desc>
    <g id="数据中心" stroke="none" stroke-width="1" fill="none" fill-rule="evenodd">
        <g id="编组-14">
            <rect id="矩形" fill="#F2F2F2" opacity="0" x="0" y="0" width="24" height="24"></rect>
            <g id="编组-11" transform="translate(1.000000, 2.500000)" fill="#FFFFFF" fill-rule="nonzero">
                <path d="M5,2 C5.55228475,2 6,2.44771525 6,3 L6,18 C6,18.5522847 5.55228475,19 5,19 L1,19 C0.44771525,19 0,18.5522847 0,18 L0,3 C0,2.44771525 0.44771525,2 1,2 L5,2 Z M4.6,3.4 L1.4,3.4 L1.4,17.6 L4.6,17.6 L4.6,3.4 Z" id="矩形备份-5"></path>
                <path d="M13,5 C13.5522847,5 14,5.44771525 14,6 L14,18 C14,18.5522847 13.5522847,19 13,19 L9,19 C8.44771525,19 8,18.5522847 8,18 L8,6 C8,5.44771525 8.44771525,5 9,5 L13,5 Z M12.6,6.4 L9.4,6.4 L9.4,17.6 L12.6,17.6 L12.6,6.4 Z" id="矩形备份-6"></path>
                <path d="M21,0 C21.5522847,0 22,0.44771525 22,1 L22,18 C22,18.5522847 21.5522847,19 21,19 L17,19 C16.4477153,19 16,18.5522847 16,18 L16,1 C16,0.44771525 16.4477153,0 17,0 L21,0 Z M20.6,1.4 L17.4,1.4 L17.4,17.6 L20.6,17.6 L20.6,1.4 Z" id="矩形备份-7"></path>
            </g>
        </g>
    </g>
</svg>