<?xml version="1.0" standalone="no"?><!DOCTYPE svg PUBLIC "-//W3C//DTD SVG 1.1//EN" "http://www.w3.org/Graphics/SVG/1.1/DTD/svg11.dtd"><svg t="1602647443066" class="icon" viewBox="0 0 1024 1024" version="1.1" xmlns="http://www.w3.org/2000/svg" p-id="1304" xmlns:xlink="http://www.w3.org/1999/xlink" width="200" height="200"><defs><style type="text/css"></style></defs><path d="M324.992 224h41.984a16 16 0 0 0 16-16V115.968a16 16 0 0 0-16-16h-41.984a16 16 0 0 0-16 16V208c0 8.832 7.232 16 16 16z m555.008-64h-132.992v76.032a16 16 0 0 1-16 16H627.008a16 16 0 0 1-16-16V160H414.016v76.032a16 16 0 0 1-16 16H294.016a16 16 0 0 1-16-16V160H144c-17.6 0-32 14.4-32 32v688c0 17.6 14.4 32 32 32h736c17.6 0 32-14.4 32-32V192c0-17.6-14.4-32-32-32zM363.968 812.992h-56V563.008h56v249.984z m177.024 0h-56V462.976h56v350.08z m176 0h-56V363.008h56v449.984zM657.984 224h41.984a16 16 0 0 0 16-16V115.968a16 16 0 0 0-16-16h-41.984a16 16 0 0 0-16 16V208c0 8.832 7.232 16 16 16z" p-id="1305" fill="#41C500"></path></svg>