<?xml version="1.0" standalone="no"?><!DOCTYPE svg PUBLIC "-//W3C//DTD SVG 1.1//EN" "http://www.w3.org/Graphics/SVG/1.1/DTD/svg11.dtd"><svg class="icon" width="200px" height="200.00px" viewBox="0 0 1024 1024" version="1.1" xmlns="http://www.w3.org/2000/svg"><path d="M890.88 274.944h-205.824C670.72 192.512 598.528 129.536 512 129.536S353.28 192.512 338.944 274.944H133.12c-16.896 0-30.72 13.824-30.72 30.72s13.824 30.72 30.72 30.72h95.744v506.368c0 28.16 23.04 51.2 51.2 51.2h464.384c28.16 0 51.2-23.04 51.2-51.2V336.384H890.88c16.896 0 30.72-13.824 30.72-30.72s-13.824-30.72-30.72-30.72z m-378.88-83.968c52.736 0 96.768 35.328 110.08 83.968h-220.16c13.312-48.128 57.344-83.968 110.08-83.968z m221.696 642.048H290.304V338.432h443.904v494.592z"  /><path d="M390.144 429.568c-16.896 0-30.72 13.824-30.72 30.72v250.368c0 16.896 13.824 30.72 30.72 30.72s30.72-13.824 30.72-30.72V460.288c0-16.896-13.824-30.72-30.72-30.72zM512 429.568c-16.896 0-30.72 13.824-30.72 30.72v250.368c0 16.896 13.824 30.72 30.72 30.72s30.72-13.824 30.72-30.72V460.288c0-16.896-13.824-30.72-30.72-30.72zM633.856 429.568c-16.896 0-30.72 13.824-30.72 30.72v250.368c0 16.896 13.824 30.72 30.72 30.72s30.72-13.824 30.72-30.72V460.288c0-16.896-13.312-30.72-30.72-30.72z"  /></svg>
