<?xml version="1.0" standalone="no"?><!DOCTYPE svg PUBLIC "-//W3C//DTD SVG 1.1//EN" "http://www.w3.org/Graphics/SVG/1.1/DTD/svg11.dtd"><svg class="icon" width="200px" height="200.00px" viewBox="0 0 1024 1024" version="1.1" xmlns="http://www.w3.org/2000/svg"><path fill="#333333" d="M809.7 720.1c18.6-19.7 29.9-46.3 29.9-75.4 0-60.8-49.5-110.3-110.3-110.3S619 583.9 619 644.7c0 29.2 11.4 55.7 29.9 75.4-68.8 30.8-116.9 100-116.9 180.1 0 14.4 11.6 26 26 26s26-11.6 26-26c0-80.1 65.2-145.2 145.2-145.2 80.1 0 145.2 65.2 145.2 145.2 0 14.4 11.6 26 26 26s26-11.6 26-26c0.2-80.1-47.9-149.2-116.7-180.1zM729.3 703c-32.1 0-58.3-26.1-58.3-58.3s26.1-58.3 58.3-58.3c32.1 0 58.3 26.2 58.3 58.3S761.5 703 729.3 703zM468 868.6H237.5c-22.6 0-41-17.2-41-38.3V193.7c0-21.1 18.4-38.3 41-38.3h450.2c22.6 0 41 17.2 41 38.3v266.2c0 16.3 13.2 29.5 29.5 29.5s29.5-13.2 29.5-29.5V193.7c0-53.6-44.9-97.3-100-97.3H237.5c-55.2 0-100 43.6-100 97.3v636.6c0 53.6 44.9 97.3 100 97.3H468c16.3 0 29.5-13.2 29.5-29.5s-13.3-29.5-29.5-29.5z m120.3-567h-0.2l-250.8 1.7c-16.3 0.1-29.4 13.4-29.3 29.7 0.1 16.2 13.3 29.3 29.5 29.3h0.2l250.8-1.7c16.3-0.1 29.4-13.4 29.3-29.7-0.2-16.2-13.3-29.3-29.5-29.3zM617.8 497c-0.1-16.2-13.3-29.3-29.5-29.3h-0.2l-250.8 1.7c-16.3 0.1-29.4 13.4-29.3 29.7 0.1 16.2 13.3 29.3 29.5 29.3h0.2l250.8-1.7c16.2-0.1 29.4-13.4 29.3-29.7zM443.3 634l-105.9 0.3c-16.3 0-29.5 13.3-29.4 29.6 0 16.3 13.2 29.4 29.5 29.4h0.1l105.9-0.3c16.3 0 29.5-13.3 29.4-29.6-0.1-16.2-13.3-29.4-29.6-29.4z" /></svg>