<?xml version="1.0" standalone="no"?><!DOCTYPE svg PUBLIC "-//W3C//DTD SVG 1.1//EN" "http://www.w3.org/Graphics/SVG/1.1/DTD/svg11.dtd"><svg class="icon" width="200px" height="200.00px" viewBox="0 0 1024 1024" version="1.1" xmlns="http://www.w3.org/2000/svg"><path d="M846.08 673.28L686.72 512l153.6-154.24a57.6 57.6 0 0 0 0-83.2l-90.88-91.52a58.88 58.88 0 0 0-83.2 0L512 337.92 353.28 177.28a58.88 58.88 0 0 0-83.2 0L177.28 270.72a58.88 58.88 0 0 0 0 83.2L337.28 512 204.8 647.04a624.64 624.64 0 0 0-37.76 165.76 53.12 53.12 0 0 0 11.52 32 39.04 39.04 0 0 0 32 11.52A558.72 558.72 0 0 0 384 818.56l128-132.48 159.36 160.64a58.88 58.88 0 0 0 83.2 0l92.8-93.44a55.68 55.68 0 0 0 0-80zM239.36 361.6l68.48-68.48a13.44 13.44 0 0 1 23.04 5.76 15.36 15.36 0 0 1-3.84 12.8L256 384zM209.28 832a14.08 14.08 0 0 1-8.96-3.84 12.8 12.8 0 0 1-3.84-9.6 1056.64 1056.64 0 0 1 28.8-144l128 128a1095.68 1095.68 0 0 1-144 29.44z m169.6-467.2L310.4 432.64l-18.56-18.56 68.48-69.12a12.16 12.16 0 0 1 12.8-3.84 14.72 14.72 0 0 1 10.88 9.6 12.16 12.16 0 0 1-3.84 12.8zM576 699.52l68.48-69.12a13.44 13.44 0 0 1 18.56 18.56l-67.2 69.12z m146.56 8.96l-68.48 69.12-14.08-18.56 64-69.12a12.16 12.16 0 0 1 12.8-3.84 14.72 14.72 0 0 1 9.6 9.6 15.36 15.36 0 0 1-3.84 12.8z m0 0"  /></svg>
