<?xml version="1.0" standalone="no"?><!DOCTYPE svg PUBLIC "-//W3C//DTD SVG 1.1//EN" "http://www.w3.org/Graphics/SVG/1.1/DTD/svg11.dtd"><svg class="icon" width="200px" height="193.57px" viewBox="0 0 1058 1024" version="1.1" xmlns="http://www.w3.org/2000/svg"><path d="M733.81888 590.00832c-10.22464-3.40992-21.58592-1.13664-29.5424 5.67808-164.36224 138.60864-345.76896 4.92544-353.34656-1.13664-9.088-7.1936-21.58592-8.33536-32.18944-3.03104-176.10752 86.72768-160.95744 251.08992-160.19968 257.90976 1.51552 15.51872 14.76608 27.64288 30.67392 27.64288h680.18176a30.55104 30.55104 0 0 0 30.67904-30.67392c0.00512-158.29504-108.6976-237.07136-166.25664-256.38912zM196.97152 836.76672c-4.34176-56.6016 25.728-151.3216 128.77824-203.43808 66.12992 41.32864 229.87776 125.44512 402.52928-5.12 33.3056 16.86528 121.62048 66.2016 131.86048 208.96256l-663.168-5.12v4.71552z"  /><path d="M529.69472 217.1392c-112.10752 0-203.7504 91.26912-203.7504 203.7504 0 112.1024 91.27424 203.75552 203.7504 203.75552s203.74528-91.65312 203.74528-204.1344c0-112.1024-91.648-203.37152-203.74528-203.37152z m0 365.93152c-89.51808 0-162.17088-72.65792-162.17088-162.18112 0-89.51808 72.6528-162.176 162.17088-162.176s162.16576 72.65792 162.16576 162.176-72.6528 162.18112-162.16576 162.18112z"  /><path d="M287.50848 462.50496v-44.28288C293.5296 288.21504 393.728 182.67648 529.69472 182.67648c135.20384 0 239.91296 114.19136 242.176 248.63744v48.07168c49.9968 0 74.7776-45.24544 74.7776-69.6576 0-34.08384-19.30752-63.24736-46.96064-78.7712-38.10816-103.74656-136.30976-184.02816-269.62432-184.02816-132.92544 0-223.52896 75.8016-264.1152 182.13888-28.40576 15.14496-47.7184 34.44736-47.7184 68.91008 0 25.06752 19.28704 64.52736 69.27872 64.52736z"  /></svg>
