<?xml version="1.0" standalone="no"?><!DOCTYPE svg PUBLIC "-//W3C//DTD SVG 1.1//EN" "http://www.w3.org/Graphics/SVG/1.1/DTD/svg11.dtd"><svg class="icon" width="200px" height="193.57px" viewBox="0 0 1058 1024" version="1.1" xmlns="http://www.w3.org/2000/svg"><path d="M736.768 591.36c-4.096-1.536-8.192-2.048-12.288-2.048-9.216 0-18.432 3.072-25.088 9.216-52.736 44.544-112.128 67.072-176.64 67.072-112.128 0-200.192-67.584-200.704-68.096-6.656-5.12-14.848-8.192-23.552-8.192-6.144 0-12.288 1.536-17.408 4.096-196.608 96.768-178.176 278.528-177.664 286.208 2.048 19.968 18.944 35.328 38.912 35.328h740.352c10.24 0 20.48-4.096 27.648-11.264 7.168-7.168 11.264-17.408 11.264-27.648 0-176.128-120.832-263.168-184.832-284.672zM156.16 854.528c-0.512-66.56 39.936-154.624 134.656-203.776 75.264 46.592 150.528 69.632 223.744 69.632 75.776 0 147.968-25.088 215.04-75.264 81.92 42.496 128 115.2 136.704 215.04l-710.144-5.632z"  /><path d="M513.024 185.344c-125.44 0-227.328 101.888-227.328 227.328S387.584 640 513.024 640s227.328-102.4 227.328-227.84c0-124.928-101.888-226.816-227.328-226.816z m0 398.336c-94.208 0-170.496-76.8-170.496-170.496s76.8-170.496 170.496-170.496c94.208 0 170.496 76.8 170.496 170.496s-76.8 170.496-170.496 170.496z"  /><path d="M249.344 463.872h5.632V410.112c6.656-142.848 117.248-250.88 257.536-250.88 139.776 0 255.488 118.784 257.536 264.704v57.856h5.632c57.856 0 87.04-52.224 87.04-81.408 0-36.352-19.968-70.656-52.224-89.6-46.592-124.928-160.768-202.24-297.984-202.24-136.192 0-242.688 72.704-291.84 199.68-25.088 13.824-53.248 35.328-53.248 78.848 0.512 30.208 22.528 76.8 81.92 76.8z"  /></svg>
