<?xml version="1.0" standalone="no"?><!DOCTYPE svg PUBLIC "-//W3C//DTD SVG 1.1//EN" "http://www.w3.org/Graphics/SVG/1.1/DTD/svg11.dtd"><svg t="1610016640825" class="icon" viewBox="0 0 1024 1024" version="1.1" xmlns="http://www.w3.org/2000/svg" p-id="12995" xmlns:xlink="http://www.w3.org/1999/xlink" width="200" height="200"><defs><style type="text/css"></style></defs><path d="M729.6 192c44.8 0 83.2 19.2 115.2 51.2S896 320 896 364.8s-19.2 89.6-51.2 121.6l-12.8 12.8-12.8 12.8L512 832l-70.4-76.8-44.8-44.8-217.6-224C147.2 454.4 128 409.6 128 364.8s19.2-89.6 51.2-121.6S249.6 192 294.4 192s83.2 19.2 115.2 51.2l57.6 57.6 44.8 44.8 44.8-44.8 57.6-57.6c32-32 70.4-51.2 115.2-51.2m0-64c-64 0-121.6 25.6-160 70.4L512 256l-57.6-57.6C416 153.6 358.4 128 294.4 128s-121.6 25.6-160 70.4C89.6 243.2 64 300.8 64 364.8s25.6 121.6 70.4 166.4l217.6 224 115.2 121.6c12.8 12.8 25.6 19.2 44.8 19.2 19.2 0 32-6.4 44.8-19.2l307.2-313.6 12.8-12.8 12.8-12.8c44.8-51.2 70.4-108.8 70.4-172.8 0-64-25.6-121.6-70.4-166.4-38.4-44.8-96-70.4-160-70.4z" p-id="12996"></path></svg>