<?xml version="1.0" standalone="no"?><!DOCTYPE svg PUBLIC "-//W3C//DTD SVG 1.1//EN" "http://www.w3.org/Graphics/SVG/1.1/DTD/svg11.dtd"><svg class="icon" width="200px" height="177.01px" viewBox="0 0 1157 1024" version="1.1" xmlns="http://www.w3.org/2000/svg"><path d="M955.97 42.874a303.727 303.727 0 0 0-182.939-23.062c-68.296 12.11-131.206 48.084-185.433 90.112a931.395 931.395 0 0 0-7.168 5.61A381.685 381.685 0 0 0 345.4 11.798C228.975 3.784 109.613 75.687 53.782 177.063 17.675 242.51 9.617 316.55 22.84 389.476c11.575 63.844 41.494 123.548 77.824 176.662 72.481 105.918 165.398 197.32 260.942 282.046 60.46 53.604 122.79 107.074 188.594 154.045 1.024 0.712 1.959 1.47 2.938 2.226 13.89 10.24 41.36 10.64 55.207 0a2886.478 2886.478 0 0 0 132.363-109.078c82.365-71.814 162.282-147.367 234.14-229.822 77.913-89.488 158.141-191.666 164.775-315.08 6.856-126.442-67.94-255.243-183.697-307.6z m-154.89 84.37c1.647-1.782 3.695-2.227 5.698-2.539-2.849 1.47-6.233 3.206-5.698 2.538zM137.706 253.906a21.994 21.994 0 0 1 4.407-6.811c-1.691 2.715-4.674 7.568-4.452 6.811z m892.66 96.613a268.422 268.422 0 0 1-1.023 12.688 325.454 325.454 0 0 1-8.682 37.577 270.38 270.38 0 0 1-6.545 18.699l-0.089 0.222c-1.825 3.83-3.606 7.703-5.52 11.487a503.54 503.54 0 0 1-16.162 29.206c-12.466 21.06-26.268 41.361-40.737 61.084-3.518 4.72-7.124 9.35-10.597 14.114a1168.25 1168.25 0 0 1-32.812 40.07c-68.786 80.762-145.72 154.579-225.057 224.834a3203.962 3203.962 0 0 1-103.157 87.574l-2.048-1.603a3027.834 3027.834 0 0 1-101.42-83.166c-89.668-76.756-176.93-158.498-250.792-250.97l-6.678-8.458a730.023 730.023 0 0 1-35.93-51.245c-13.356-20.836-24.887-42.43-35.305-64.868a399.805 399.805 0 0 1-13.312-40.07 332.889 332.889 0 0 1-6.277-28.271 12.6 12.6 0 0 1-0.757-3.25 912.206 912.206 0 0 1-0.445-4.319 23.953 23.953 0 0 0-0.268-0.98l0.223 0.802a268.778 268.778 0 0 1-0.134-54.494c0.357-2.093 0.713-4.453 0.89-5.21a236.299 236.299 0 0 1 11.131-40.514c0.624-1.648 1.336-3.206 1.87-4.809l0.134-0.4 2.092-3.874a248.075 248.075 0 0 1 21.771-36.062l2.672-3.25a268.288 268.288 0 0 1 26.624-27.56c3.829-3.472 20.213-15.849 9.26-8.013a292.419 292.419 0 0 1 42.43-26.357c5.12-2.582 26.134-10.863 6.01-3.25 10.596-4.007 21.103-8.103 32.056-11.13 4.897-1.336 9.794-2.538 14.78-3.562 3.25-0.713 10.285-1.425 13.09-1.781a250.39 250.39 0 0 1 40.56 0.579l4.585 0.445 8.726 1.424c4.675 0.89 9.35 1.87 14.025 2.983 15.27 3.562 29.473 9.484 44.299 14.247l1.514 0.713a320.646 320.646 0 0 1 58.323 35.038c-11.709-8.414 3.117 2.449 7.124 5.788a332.978 332.978 0 0 1 37.309 37.31c2.226 3.873 5.03 7.435 8.325 10.462 7.57 6.99 16.206 11.576 25.2 13.89a47.772 47.772 0 0 0 45.946-8.904c2.182-1.513 4.23-3.205 6.189-4.986a770.137 770.137 0 0 1 37.532-32.367c5.387-4.274 4.185-4.052 2.493-2.85 5.03-4.14 16.829-11.264 18.343-12.288 7.123-4.986 14.47-9.75 21.86-14.291 13.757-8.46 27.915-16.25 42.563-23.062l6.055-2.76 2.983-1.203a287.7 287.7 0 0 1 59.213-16.473l2.894-0.445 2.672-0.178a241.62 241.62 0 0 1 43.052 0.178c10.953 2.226 21.727 4.318 32.412 7.702 5.565 1.781 11.041 3.829 16.518 5.922 3.472 1.691 6.99 3.294 10.418 5.03 12.154 6.234 23.418 13.669 34.638 21.415l6.055 5.076c9.794 8.459 18.921 17.675 27.38 27.47l4.898 5.966 1.558 2.137c7.524 10.462 14.247 21.504 20.168 32.946 2.672 5.12 4.898 10.462 7.391 15.672a274.09 274.09 0 0 1 13.757 49.953c0.267 1.425 0.445 2.85 0.624 4.274l0.311 2.716c1.247 13.134 1.47 26.357 0.802 39.49z" /></svg>
