<?xml version="1.0" standalone="no"?><!DOCTYPE svg PUBLIC "-//W3C//DTD SVG 1.1//EN" "http://www.w3.org/Graphics/SVG/1.1/DTD/svg11.dtd"><svg class="icon" width="200px" height="200.00px" viewBox="0 0 1024 1024" version="1.1" xmlns="http://www.w3.org/2000/svg"><path d="M734.72 171.52h-76.288v-35.84c0-22.528-18.432-40.96-40.96-40.96H406.528c-22.528 0-40.96 18.432-40.96 40.96v35.84H289.28c-59.392 0-107.52 48.128-107.52 107.52v542.72c0 59.392 48.128 107.52 107.52 107.52h445.44c59.392 0 107.52-48.128 107.52-107.52v-542.72c0-59.392-48.128-107.52-107.52-107.52z m-307.712-15.36h170.496v92.16H427.008v-92.16z m353.792 665.6c0 25.6-20.48 46.08-46.08 46.08h-445.44c-25.6 0-46.08-20.48-46.08-46.08v-542.72c0-25.6 20.48-46.08 46.08-46.08h76.288v35.84c0 22.528 18.432 40.96 40.96 40.96h211.456c22.528 0 40.96-18.432 40.96-40.96v-35.84h76.288c25.6 0 46.08 20.48 46.08 46.08v542.72z"  /><path d="M622.592 465.408l-145.92 103.936-70.656-75.264c-11.776-12.288-31.232-13.312-43.52-1.536-12.288 11.776-13.312 31.232-1.536 43.52l89.088 95.232c6.144 6.656 14.336 9.728 22.528 9.728 6.144 0 12.288-2.048 17.92-5.632l167.936-119.808c13.824-9.728 16.896-29.184 7.168-43.008s-29.184-16.896-43.008-7.168z"  /></svg>
