<?xml version="1.0" standalone="no"?><!DOCTYPE svg PUBLIC "-//W3C//DTD SVG 1.1//EN" "http://www.w3.org/Graphics/SVG/1.1/DTD/svg11.dtd"><svg class="icon" width="200px" height="193.57px" viewBox="0 0 1058 1024" version="1.1" xmlns="http://www.w3.org/2000/svg"><path d="M442.88 915.968c-52.224 0-99.84-34.304-115.2-82.944v-0.512H168.96c-2.048 0.512-4.608 0.512-7.68 0.512-15.36 0-30.208-5.632-39.936-15.872-13.824-13.824-17.92-27.648-18.432-36.352v-98.816c0.512-5.632 2.56-19.456 11.264-30.72 2.048-2.56 5.632-7.68 48.128-48.64V508.416c-0.512-3.584-0.512-8.192-0.512-12.288 0-54.272 17.408-105.984 50.688-150.528 28.16-36.864 66.048-67.072 109.568-86.528 8.192-20.48 21.504-38.912 37.888-52.736 24.064-19.456 53.248-30.208 82.944-30.208 30.208 0 59.392 10.752 82.944 30.208 16.384 14.336 29.696 32.256 37.888 52.736 43.52 19.456 81.408 49.152 109.568 86.528 33.28 44.032 51.2 96.256 51.2 150.528 0 5.12 0 10.752-0.512 16.384v90.112c45.056 44.032 46.592 46.592 48.64 49.664 8.192 11.264 10.24 24.064 10.752 29.696v98.816c-1.024 13.312-7.168 26.112-18.432 37.376-10.24 10.24-24.576 15.872-40.448 15.872-3.072 0-5.632 0-8.704-0.512H558.08v0.512c-15.36 47.616-62.976 81.92-115.2 81.92z m-42.496-82.432c12.8 15.872 28.672 25.088 43.008 25.088 14.336 0 30.208-9.216 43.008-25.088l0.512-1.024H399.36l1.024 1.024z m41.984-600.576c-26.112 0-48.128 18.944-54.272 46.08l-4.608 23.04-22.016 7.68c-84.48 30.72-138.752 103.424-138.752 186.368v10.24l4.608 107.52-2.56 3.072c-5.12 6.144-48.128 58.88-61.952 74.24v80.384h558.592v-84.48c-12.288-11.264-45.568-37.376-55.296-45.056l-4.608-3.584V508.416c0.512-4.608 0.512-8.704 0.512-12.288v-0.512c0-82.432-54.272-155.648-138.752-186.368l-22.528-8.192-4.096-22.016c-6.144-27.136-28.16-46.08-54.272-46.08zM890.88 475.648c-22.016 0-39.936-17.92-39.936-39.936 0-21.504-3.072-96.768-45.568-161.792-38.4-59.392-116.224-94.208-131.584-100.864-9.728-3.072-16.384-8.192-20.48-15.36-4.096-7.68-4.608-17.92-1.536-29.184 2.048-7.68 9.216-20.48 29.696-20.48 5.632 0 12.288 1.024 19.968 3.072 26.112 6.144 92.672 29.696 154.624 120.832 26.624 38.4 45.056 79.36 55.808 121.856 8.192 32.256 9.728 59.392 10.24 81.92 0 14.848-3.584 25.6-10.24 32.256-5.632 5.12-12.288 7.68-20.992 7.68z m-108.544 0c-22.016 0-39.936-17.92-39.936-39.936 0-39.424-1.536-71.68-20.992-101.888-26.624-39.936-87.552-62.464-88.576-62.976-11.264-4.096-19.456-11.264-23.04-19.968-3.584-8.192-3.584-17.408 0.512-27.136 4.608-11.264 15.872-17.92 30.208-17.92 8.192 0 17.408 2.048 26.112 5.12 27.648 11.264 78.848 37.888 112.64 88.064 28.672 43.52 33.792 81.408 33.792 136.192 0 33.28-16.896 40.448-30.72 40.448z"  /></svg>
