<?xml version="1.0" standalone="no"?><!DOCTYPE svg PUBLIC "-//W3C//DTD SVG 1.1//EN" "http://www.w3.org/Graphics/SVG/1.1/DTD/svg11.dtd"><svg class="icon" width="200px" height="193.57px" viewBox="0 0 1058 1024" version="1.1" xmlns="http://www.w3.org/2000/svg"><path d="M218.61376 932.62848c-17.64864 0-32.04096-14.7712-32.04096-32.79872V293.19168c0-18.00704 14.39232-32.78336 32.04096-32.78336 17.59744 0 12.81536 26.1376 12.81536 44.19584v583.168c0 18.0224 4.78208 44.85632-12.81536 44.85632z m521.47712 0c-17.62816 0-15.21152-26.83392-15.21152-44.86144v-583.168c0-18.05824-2.42176-44.19584 15.21152-44.19584s29.64992 26.1376 29.64992 44.19584v583.168c0 18.02752-12.01664 44.86144-29.64992 44.86144z m119.36768-179.44576c-17.64864 0 0 18.02752 0 0V170.01984c0-18.05824-4.8128-44.86656 12.8-44.86656 17.6384 0 32.06656 14.75584 32.06656 32.78848v590.21312c-25.51296 3.88096-27.23328 5.02784-44.86656 5.02784z m0 0"  /><path d="M904.32512 157.94688c0 18.02752-27.25376 12.07296-44.86656 12.07296h-493.4656c-17.62304 0-47.26784 5.95456-47.26784-12.07296 0-18.03264 14.42304-32.78848 32.03584-32.78848h521.4976c17.64352-0.00512 32.06656 14.75584 32.06656 32.78848z m0 590.21312c-28.04736-0.0768-27.23328 5.02272-44.86656 5.02272H769.7408c-17.61792 0-27.19232-0.88576-45.68064-5.02272 0-18.01216 28.0576-39.8336 45.68064-39.8336h89.71776c17.63328 0 44.86656 21.82144 44.86656 39.8336z m0 0"  /><path d="M350.76096 309.60128c-17.6128 0-29.63456-31.85152-29.63456-49.86368V170.01984c0-18.05824 12.02176-44.86656 29.63456-44.86656 17.64864 0 15.232 26.80832 15.232 44.86656V259.7376c0 18.01216 2.41664 49.86368-15.232 49.86368z m0 0"  /><path d="M769.7408 304.60416c0 18.00704-27.25888 0-44.86144 0H231.42912c-17.64352 0-44.85632 18.00704-44.85632 0 0-18.05824 14.39232-44.19584 32.04096-44.19584h521.47712c17.63328-0.00512 29.64992 26.1376 29.64992 44.19584z m0 583.168c0 18.02752-12.01664 44.86144-29.64992 44.86144H218.61376c-17.64864 0-32.04096-14.7712-32.04096-32.79872 0-18.01216 27.2128-12.0576 44.85632-12.0576h493.45024c17.60256-0.00512 44.86144-18.05312 44.86144-0.00512z"  /><path d="M321.13152 439.16288h314.03008v44.86144H321.13152v-44.86144zM321.13152 573.7472h179.44576v44.86144H321.13152v-44.86144zM321.13152 708.3264h179.44576v44.86144H321.13152v-44.86144z"  /></svg>
