<?xml version="1.0" standalone="no"?><!DOCTYPE svg PUBLIC "-//W3C//DTD SVG 1.1//EN" "http://www.w3.org/Graphics/SVG/1.1/DTD/svg11.dtd"><svg t="1570522996826" class="icon" viewBox="0 0 1024 1024" version="1.1" xmlns="http://www.w3.org/2000/svg" p-id="6393" xmlns:xlink="http://www.w3.org/1999/xlink" width="20" height="20"><defs><style type="text/css"></style></defs><path d="M866.7763042 62.23333027L574.9531376 76.24598398A155.93898691 155.93898691 0 0 0 472.17224727 121.69069297L87.85270742 506.33162422a87.86834121 87.86834121 0 0 0 0 124.24981992L393.43141513 936.28870771c34.32457529 34.26029648 89.92524463 34.26029648 124.24981904 0l117.37204893-117.37204893 267.14032559-267.01176884c27.38252636-27.38252636 43.58064023-64.02111768 45.44470899-102.7166124l14.14121044-291.88744453a90.82514004 90.82514004 0 0 0-95.13178065-95.13178155z m-137.23402237 383.09825303a106.57330576 106.57330576 0 0 1-181.9716706-75.46264189 106.7018625 106.7018625 0 0 1 181.9716706-75.46264278c41.65229356 41.71657148 41.65229356 109.272992 1e-8 150.92528467z" p-id="6394"></path></svg>
