<?xml version="1.0" standalone="no"?><!DOCTYPE svg PUBLIC "-//W3C//DTD SVG 1.1//EN" "http://www.w3.org/Graphics/SVG/1.1/DTD/svg11.dtd"><svg t="1603425504420" class="icon" viewBox="0 0 1024 1024" version="1.1" xmlns="http://www.w3.org/2000/svg" p-id="31387" xmlns:xlink="http://www.w3.org/1999/xlink" width="200" height="200"><defs><style type="text/css"></style></defs><path d="M507.712 64a274.88 274.88 0 0 1 104.192 21.568c15.616 6.528 29.44 14.08 41.728 22.464 12.224 8.448 21.76 16.64 28.608 25.088 16.32 18.944 28.16 40.128 35.584 63.04 7.488 22.848 12.736 44.864 15.936 65.792 3.2 23.808 4.736 48 4.736 72.576 4.288 3.008 7.68 6.912 10.24 11.648 2.496 4.096 4.48 9.536 6.08 16.192 1.6 6.464 1.856 14.72 0.448 24.192-1.28 12.544-3.84 22.4-7.936 30.016a60.8 60.8 0 0 1-13.568 17.472 50.752 50.752 0 0 1-17.92 9.92c-3.2 10.176-6.4 19.648-9.344 28.736a234.88 234.88 0 0 1-10.88 22.912 60.8 60.8 0 0 1-13.632 17.472c-11.776 8.832-21.568 16.64-29.056 22.848-7.488 6.272-12.48 16.896-14.976 31.744-1.792 8.896-2.496 18.176-1.792 27.2 0.64 9.28 3.2 18.56 7.936 27.648 4.736 9.28 11.776 18.176 21.568 26.368 9.728 8.384 23.36 15.744 40.832 22.4 15.68 6.08 32.64 11.264 51.072 16.256 18.368 4.736 36.48 10.368 54.016 16.64 17.472 6.208 32.896 14.016 46.528 23.296 13.376 9.28 22.912 22.016 28.608 37.952 3.2 9.536 5.44 21.376 7.04 35.456 1.536 14.016 2.24 28.288 2.24 42.496 0 14.272-1.344 26.368-3.648 38.656a80 80 0 0 1-9.728 28.736c-3.2 4.096-12.032 8.384-26.816 12.544-14.72 4.096-32.896 8.192-54.4 12.032-21.632 3.904-45.632 7.36-72.192 10.368a2741.12 2741.12 0 0 1-157.504 12.544c-24.768 1.28-46.08 1.728-64.256 1.728-18.176 0-39.232-0.64-63.36-1.728-24-1.28-48.96-2.816-74.624-4.992-25.6-2.112-51.072-4.48-76.48-7.04-25.408-2.624-48.32-5.696-68.992-8.448a1106.304 1106.304 0 0 1-52.48-8.896c-14.272-3.008-23.296-6.016-27.2-8.832-6.336-4.736-11.072-19.456-14.528-43.84-3.392-24.384-2.048-56.128 4.352-94.592 3.2-22.016 12.224-38.848 27.648-50.496a181.76 181.76 0 0 1 53.568-27.648c20.48-6.912 41.6-12.928 63.36-18.304 21.76-5.44 41.28-13.184 58.048-23.36 13.184-7.744 23.168-15.104 29.952-22.4 6.848-7.168 11.84-14.272 15.04-21.44a54.784 54.784 0 0 0 4.736-22.4c0-7.808-0.256-16.448-0.896-25.92a49.088 49.088 0 0 0-14.976-32.64 571.968 571.968 0 0 0-29.056-24.576 53.76 53.76 0 0 1-13.184-17.536 228.48 228.48 0 0 1-10.24-22.848c-3.136-8.832-6.336-18.56-9.28-28.736a45.632 45.632 0 0 1-13.12-6.272 86.592 86.592 0 0 1-12.288-12.48 72.064 72.064 0 0 1-11.328-23.36 59.648 59.648 0 0 1-4.352-27.584c0.96-8.448 2.752-15.552 5.248-21.376a58.304 58.304 0 0 1 12.224-18.816c-0.64-22.656 0.704-45.312 3.84-68.032 2.56-18.944 7.04-39.68 13.632-61.696s16.384-41.664 29.504-58.944c11.84-16.64 25.216-30.272 40-40.832a201.856 201.856 0 0 1 91.008-36.672c15.36-2.176 30.144-3.264 44.48-3.264zM768 768H576v64h192v-64z" p-id="31388"></path></svg>