<?xml version="1.0" standalone="no"?><!DOCTYPE svg PUBLIC "-//W3C//DTD SVG 1.1//EN" "http://www.w3.org/Graphics/SVG/1.1/DTD/svg11.dtd"><svg t="1602647608355" class="icon" viewBox="0 0 1024 1024" version="1.1" xmlns="http://www.w3.org/2000/svg" p-id="3175" xmlns:xlink="http://www.w3.org/1999/xlink" width="200" height="200"><defs><style type="text/css"></style></defs><path d="M285.632 591.872c13.12 0.192 27.904 0.192 44.096 0.192l2.752 2.304a122.624 122.624 0 0 0 157.44-1.984h45.12c21.504 18.368 49.28 29.376 79.808 29.376 30.272 0 57.984-10.88 79.424-29.056 15.04 0 30.336 0 46.08 0.128a122.24 122.24 0 0 0 111.36 24.768l-0.064 257.344c0 20.16-16.384 36.48-36.544 36.416l-607.232-0.256a36.48 36.48 0 0 1-36.544-36.48l0.192-257.536c10.752 3.072 22.08 4.672 33.792 4.672 30.72 0 58.88-11.264 80.32-29.888zM790.4 748.8h-256v48h256v-48z m39.168-640a18.176 18.176 0 0 1 16.576 11.264l103.04 254.08 2.24 5.504A140.544 140.544 0 0 1 819.2 568.512a140.544 140.544 0 0 1-102.016-43.712l-0.448-0.384-6.144 6.144c-23.68 22.144-54.464 35.712-87.872 37.76l-8.32 0.192A140.544 140.544 0 0 1 512.384 524.8L512 524.416l-6.144 6.144c-23.68 22.144-54.528 35.712-87.872 37.76l-8.384 0.192A140.544 140.544 0 0 1 307.584 524.8L307.2 524.416l-6.208 6.144c-23.68 22.144-54.464 35.712-87.808 37.76l-8.448 0.192a140.608 140.608 0 0 1-132.16-188.864l104.256-259.584a17.984 17.984 0 0 1 16.576-11.264h636.16z" p-id="3176" fill="#4792f9"></path></svg>