<?xml version="1.0" standalone="no"?><!DOCTYPE svg PUBLIC "-//W3C//DTD SVG 1.1//EN" "http://www.w3.org/Graphics/SVG/1.1/DTD/svg11.dtd"><svg t="1641278370569" class="icon" viewBox="0 0 1024 1024" version="1.1" xmlns="http://www.w3.org/2000/svg" p-id="15160" xmlns:xlink="http://www.w3.org/1999/xlink" width="200" height="200"><defs><style type="text/css"></style></defs><path d="M164.38571167 778.52084058h695.22857666V859.61428833H164.38571167v-81.09344774z m547.04557127-252.02035903l-159.80325407 168.49361195c-9.93183652 10.13047364-23.88606733 16.73514513-39.62802887 16.73514444-15.74196153 0-29.69619235-6.60467148-39.47905103-16.88412228L312.41973922 526.64945939a49.80816179 49.80816179 0 0 1-13.70593441-33.76824525c0-27.90846162 23.88606733-50.55304966 53.33396329-50.55304965l1.24147997 0.09931856V441.9805502h105.37678798V318.22986356c0-27.90846162 23.88606733-50.55304966 53.33396395-50.55304898 29.44789595 0 53.33396395 22.64458802 53.33396395 50.55304897V441.9805502h103.44008008V442.47714234c1.04284287-0.09931856 2.08568573-0.19863644 3.17818787-0.19863645 29.44789595 0 53.33396395 22.64458802 53.33396329 50.55304897a48.66600037 48.66600037 0 0 1-13.90457153 33.66892669zM425.09642791 164.38571167h173.80714418v293.98236936h-173.80714418V164.38571167z" p-id="15161"></path></svg>