<?xml version="1.0" standalone="no"?><!DOCTYPE svg PUBLIC "-//W3C//DTD SVG 1.1//EN" "http://www.w3.org/Graphics/SVG/1.1/DTD/svg11.dtd"><svg class="icon" width="200px" height="193.57px" viewBox="0 0 1058 1024" version="1.1" xmlns="http://www.w3.org/2000/svg"><path d="M814.08 158.208H209.92c-59.392 0-107.52 48.128-107.52 107.52v399.36c0 59.392 48.128 107.52 107.52 107.52h188.928c1.536 0 3.072 0.512 4.096 2.048l51.712 66.048c12.288 15.872 31.232 25.088 51.2 25.6h1.024c19.968 0 38.4-8.704 51.2-24.064l56.832-67.584c1.024-1.024 2.56-2.048 4.096-2.048H814.08c59.392 0 107.52-48.128 107.52-107.52v-399.36c0-59.392-48.128-107.52-107.52-107.52z m46.08 506.88c0 25.6-20.48 46.08-46.08 46.08h-195.584c-19.968 0-38.4 8.704-51.2 24.064l-56.832 67.584c-1.536 1.536-3.072 2.048-4.096 2.048-1.024 0-2.56-0.512-4.096-2.048L450.56 736.768c-12.8-16.384-31.744-25.6-52.224-25.6H209.92c-25.6 0-46.08-20.48-46.08-46.08v-399.36c0-25.6 20.48-46.08 46.08-46.08h604.16c25.6 0 46.08 20.48 46.08 46.08v399.36z"  /><path d="M324.608 462.848m-46.08 0a46.08 46.08 0 1 0 92.16 0 46.08 46.08 0 1 0-92.16 0Z"  /><path d="M512 462.848m-46.08 0a46.08 46.08 0 1 0 92.16 0 46.08 46.08 0 1 0-92.16 0Z"  /><path d="M681.44231 505.357585a46.08 46.08 0 1 0 35.268106-85.144738 46.08 46.08 0 1 0-35.268106 85.144738Z"  /></svg>
