<?xml version="1.0" standalone="no"?><!DOCTYPE svg PUBLIC "-//W3C//DTD SVG 1.1//EN" "http://www.w3.org/Graphics/SVG/1.1/DTD/svg11.dtd"><svg class="icon" width="200px" height="200.00px" viewBox="0 0 1024 1024" version="1.1" xmlns="http://www.w3.org/2000/svg"><path d="M1.728 512a510.336 510.336 0 0 0 1020.544 0A510.272 510.272 0 1 0 1.728 512z" fill="#C3E9FF" /><path d="M711.104 349.824h-13.376v253.952H343.424v13.376c0 49.088 32.064 71.232 71.232 71.232h254.016l113.664 112.896V421.12a70.272 70.272 0 0 0-71.232-71.296z" fill="#59A3E9" /><path d="M636.48 574.016a28.352 28.352 0 0 0 28.224-28.224V334.848c0-35.712-22.528-71.232-71.232-71.232H312.832c-40.256 0-71.232 35.136-71.232 71.232v352l112.832-112.896h282.048v0.064z" fill="#006FD3" /><path d="M390.4 413.504a27.776 27.776 0 1 1-55.552 0 27.776 27.776 0 0 1 55.552 0z m90.56 0a27.776 27.776 0 1 1-55.552 0 27.776 27.776 0 0 1 55.552 0z m90.56 0a27.776 27.776 0 1 1-55.552 0 27.776 27.776 0 0 1 55.552 0z" fill="#ffffff" /></svg>