<?xml version="1.0" standalone="no"?><!DOCTYPE svg PUBLIC "-//W3C//DTD SVG 1.1//EN" "http://www.w3.org/Graphics/SVG/1.1/DTD/svg11.dtd"><svg class="icon" width="200px" height="200.00px" viewBox="0 0 1024 1024" version="1.1" xmlns="http://www.w3.org/2000/svg"><path d="M711.68 102.4H312.32c-50.688 0-92.16 41.472-92.16 92.16v634.88c0 50.688 41.472 92.16 92.16 92.16h399.36c50.688 0 92.16-41.472 92.16-92.16V194.56c0-50.688-41.472-92.16-92.16-92.16zM312.32 163.84h399.36c16.896 0 30.72 13.824 30.72 30.72v466.944H281.6V194.56c0-16.896 13.824-30.72 30.72-30.72z m399.36 696.32H312.32c-16.896 0-30.72-13.824-30.72-30.72v-106.496h460.8V829.44c0 16.896-13.824 30.72-30.72 30.72z"  /><path d="M372.736 295.936h109.056c16.896 0 30.72-13.824 30.72-30.72s-13.824-30.72-30.72-30.72H372.736c-16.896 0-30.72 13.824-30.72 30.72s13.824 30.72 30.72 30.72zM372.736 402.944h267.776c16.896 0 30.72-13.824 30.72-30.72s-13.824-30.72-30.72-30.72H372.736c-16.896 0-30.72 13.824-30.72 30.72s13.824 30.72 30.72 30.72zM372.736 509.44h208.384c16.896 0 30.72-13.824 30.72-30.72s-13.824-30.72-30.72-30.72H372.736c-16.896 0-30.72 13.824-30.72 30.72s13.824 30.72 30.72 30.72z"  /><path d="M512 792.064m-40.96 0a40.96 40.96 0 1 0 81.92 0 40.96 40.96 0 1 0-81.92 0Z"  /></svg>
