<?xml version="1.0" standalone="no"?><!DOCTYPE svg PUBLIC "-//W3C//DTD SVG 1.1//EN" "http://www.w3.org/Graphics/SVG/1.1/DTD/svg11.dtd"><svg class="icon" width="200px" height="193.57px" viewBox="0 0 1058 1024" version="1.1" xmlns="http://www.w3.org/2000/svg"><path d="M913.87257742 80.60418275H148.80822613c-38.61089849 0-69.90506667 31.2999936-69.90506666 69.90506667v578.6566656c0 38.60507307 31.29416818 69.90506667 69.90506666 69.90506667H363.68475022c0.92624213 1.07187769 1.82918258 2.1495808 2.84280605 3.16320426l124.44849493 124.4368441c22.28806542 22.27641458 58.42315947 22.27641458 80.71122489 0l124.42519324-124.4368441c1.02527431-1.01362347 1.93404018-2.09132658 2.85445689-3.16320426h214.88234951c38.61089849 0 69.90506667-31.2999936 69.90506667-69.90506667V150.50924942c0.02330169-38.60507307-31.27669191-69.90506667-69.88176498-69.90506667z m11.65666987 648.56173227a11.66249529 11.66249529 0 0 1-11.65666987 11.65084445h-241.57443413l-17.91899876 20.78510648-123.03874275 123.02709192-123.03291733-122.9979648-17.7442361-20.4996608-26.88432355-0.32622365H148.80822613c-6.42544071 0-11.65084445-5.21957831-11.65084444-11.65084444V150.50924942c0-6.42544071 5.22540373-11.65084445 11.65084444-11.65084444h765.07017672c6.43126613 0 11.65084445 5.22540373 11.65084444 11.65084444v578.6566656z"  /><path d="M333.03137849 383.04262827c-30.55433955 0-55.34151111 24.78134613-55.34151111 55.34151111v2.91271111c0 30.5659904 24.78717155 55.34151111 55.34151111 55.34151111a55.34151111 55.34151111 0 0 0 55.34151111-55.34151111v-2.91271111a55.34151111 55.34151111 0 0 0-55.34151111-55.34151111zM531.3462272 383.04262827c-30.54851413 0-55.34151111 24.78134613-55.34151111 55.34151111v2.91271111a55.34151111 55.34151111 0 0 0 110.68302222 0v-2.91271111c-0.00582542-30.56016498-24.78717155-55.34151111-55.34151111-55.34151111zM729.64359965 383.04262827c-30.54851413 0-55.34151111 24.78134613-55.34151112 55.34151111v2.91271111a55.34151111 55.34151111 0 0 0 110.68302222 0v-2.91271111c0-30.56016498-24.78134613-55.34151111-55.3415111-55.34151111z"  /></svg>
