<?xml version="1.0" standalone="no"?><!DOCTYPE svg PUBLIC "-//W3C//DTD SVG 1.1//EN" "http://www.w3.org/Graphics/SVG/1.1/DTD/svg11.dtd"><svg class="icon" width="200px" height="193.03px" viewBox="0 0 1061 1024" version="1.1" xmlns="http://www.w3.org/2000/svg"><path d="M819.2 283.648c-5.632-5.12-12.8-7.68-19.968-7.68-8.704 0-17.408 4.096-23.04 10.752-5.632 6.144-8.192 13.824-7.68 22.016 0.512 8.192 4.096 15.872 10.24 20.992 52.736 46.08 82.944 112.128 82.944 181.76 0 133.12-108.032 241.152-241.152 241.152H403.456c-12.8 0-23.552 7.168-28.16 18.944-4.608 11.776-2.048 24.576 6.656 33.28L481.28 905.216c5.632 5.632 13.312 9.216 21.504 9.216s15.872-3.072 21.504-9.216c5.632-5.632 9.216-13.312 9.216-21.504s-3.072-15.872-9.216-21.504l-47.104-47.104h143.36c80.896 0 156.672-31.744 214.016-88.576 56.832-57.344 88.576-133.12 88.576-214.016 0-88.064-37.888-171.008-103.936-228.864zM244.736 693.76c-52.736-46.08-82.944-112.128-82.944-181.76 0-133.12 108.032-241.152 241.152-241.152h217.6c12.8 0 23.552-7.168 28.16-18.944 4.608-11.776 2.048-24.576-6.656-33.28L542.72 118.784c-5.632-5.632-13.312-9.216-21.504-9.216s-15.872 3.072-21.504 9.216c-5.632 5.632-9.216 13.312-9.216 21.504s3.072 15.872 9.216 21.504l47.104 47.104h-143.36C322.56 209.408 246.272 241.152 189.44 297.984c-57.344 57.344-88.576 133.12-88.576 214.016 0 87.552 37.888 170.496 103.936 228.352 5.632 5.12 12.8 7.68 19.968 7.68 8.704 0 17.408-4.096 23.04-10.752 5.632-6.144 8.192-13.824 7.68-22.016-0.512-8.704-4.096-15.872-10.752-21.504z"  /><path d="M587.776 365.056c-8.192 0-15.872 3.072-21.504 8.704s-9.216 13.824-8.704 21.504v129.536l-31.232-48.64-64.512-97.28a30.208 30.208 0 0 0-19.456-13.312H433.664c-1.024 0-1.536 0-2.56 0.512h-0.512c-6.144 1.024-11.776 4.096-16.384 8.192-1.536 1.536-2.56 2.56-3.584 4.096-1.024 1.536-2.048 3.072-2.56 4.608 0 0 0 0.512-0.512 0.512-0.512 1.536-1.024 3.584-1.536 5.12v1.024c0 1.024-0.512 1.536-0.512 2.56v236.032c0 8.192 3.072 15.872 8.704 21.504s13.312 8.704 21.504 8.704c16.896 0 30.72-13.824 30.72-30.72V498.176l7.68 11.264 87.04 134.144c1.024 2.048 2.56 4.096 4.608 6.144 5.632 5.632 12.8 8.704 20.992 8.704h6.656c0.512 0 1.024-0.512 1.536-0.512 0.512 0 0.512 0 1.024-0.512 1.024 0 1.536-0.512 2.048-1.024h0.512c10.752-4.608 18.432-14.848 18.944-26.624V395.776c1.024-16.896-12.8-30.72-29.696-30.72z"  /></svg>
