<?xml version="1.0" standalone="no"?><!DOCTYPE svg PUBLIC "-//W3C//DTD SVG 1.1//EN" "http://www.w3.org/Graphics/SVG/1.1/DTD/svg11.dtd"><svg class="icon" width="200px" height="200.00px" viewBox="0 0 1024 1024" version="1.1" xmlns="http://www.w3.org/2000/svg"><path fill="#333333" d="M803.5 136H220c-49.4 0-89.5 40.1-89.5 89.5v572.9c0 49.4 40.1 89.5 89.5 89.5h583.5c49.4 0 89.5-40.1 89.5-89.5V225.5c0-49.3-40.2-89.5-89.5-89.5zM834 798.5c0 16.8-13.7 30.5-30.5 30.5H220c-16.8 0-30.5-13.7-30.5-30.5V653.3c6.1 4 12.8 8 20 11.8 29.9 16 73.6 32.1 128.2 32.1 20.3 0 42-2.2 65.2-7.5 95.1-21.7 139.2-83 178.1-137 24.4-33.9 47.5-66 81.5-88.4 54.8-36.1 134.7-20.1 171.5-9.7v343.9z m0-401.8c-49.8-12-135.9-22.9-202.3 20.9-42.7 28.1-69.9 65.9-96.2 102.4-37.9 52.7-70.6 98.2-145.1 115.1-54.2 12.3-105.5 6.2-152.5-18.4-23-12-39.5-25.8-48.4-34.2v-357c0-16.8 13.7-30.5 30.5-30.5h583.5c16.8 0 30.5 13.7 30.5 30.5v171.2zM334.6 263.9c-58.6 0-106.3 47.7-106.3 106.3 0 58.6 47.7 106.3 106.3 106.3 58.6 0 106.3-47.7 106.3-106.3 0-58.6-47.7-106.3-106.3-106.3z m0 160.7c-30 0-54.3-24.4-54.3-54.3 0-30 24.4-54.3 54.3-54.3 30 0 54.3 24.4 54.3 54.3s-24.3 54.3-54.3 54.3z m290.4 160c-25.4 0-46 20.6-46 46v112.8c0 25.4 20.6 46 46 46h115.1c25.4 0 46-20.6 46-46V630.6c0-25.4-20.6-46-46-46H625z m109.1 152.8H631V636.6h103.1v100.8z" /></svg>