<?xml version="1.0" standalone="no"?><!DOCTYPE svg PUBLIC "-//W3C//DTD SVG 1.1//EN" "http://www.w3.org/Graphics/SVG/1.1/DTD/svg11.dtd"><svg class="icon" width="200px" height="200.00px" viewBox="0 0 1024 1024" version="1.1" xmlns="http://www.w3.org/2000/svg"><path d="M922.282667 334.506667h-64.284445v-28.444445-192.170666c0-29.923556-16.839111-47.900444-46.535111-47.900445H111.388444A43.576889 43.576889 0 0 0 63.715556 113.777778v798.151111c0 29.923556 22.755556 49.038222 56.888888 49.152h278.755556v59.505778c-8.647111 0-17.180444 1.706667-25.713778 1.706666H63.260444c-42.552889 0-62.008889-18.887111-62.008888-60.984889V64.625778C0.682667 22.755556 20.252444 2.844444 62.350222 2.844444H863.573333c34.133333 0 57.571556 17.180444 58.026667 48.583112 1.706667 93.411556 0.682667 187.050667 0.682667 283.079111z m0 0"  /><path d="M229.831111 246.442667h495.729778v56.547555H229.831111zM230.855111 473.429333h232.789333v58.140445h-204.8c-31.516444 0-31.516444-22.755556-28.216888-58.140445z m0 0M366.136889 781.539556H233.130667c-8.988444-35.043556-7.168-60.416 26.055111-60.529778h79.644444c32.654222 0 32.654222 22.755556 27.648 60.529778z m0 0M769.251556 881.550222V827.164444c47.672889 0 75.093333-27.192889 75.093333-74.752s-27.420444-74.638222-75.093333-74.638222v-54.385778a129.137778 129.137778 0 1 1 0 258.161778z m-43.235556-367.729778h-4.437333a91.818667 91.818667 0 0 0-71.338667 26.055112l-67.015111 66.673777H509.724444a43.121778 43.121778 0 0 0-43.235555 43.008V864.711111a43.008 43.008 0 0 0 12.629333 30.492445 43.463111 43.463111 0 0 0 30.606222 12.629333H591.644444l58.368 58.026667a87.04 87.04 0 0 0 71.111112 22.755555 21.959111 21.959111 0 0 0 5.461333 0 21.504 21.504 0 0 0 15.246222-6.371555 21.162667 21.162667 0 0 0 5.802667-15.132445V534.755556a21.504 21.504 0 0 0-6.371556-15.246223 21.959111 21.959111 0 0 0-15.246222-6.257777z m-30.492444 415.857778a39.367111 39.367111 0 0 1-22.755556-10.808889l-63.488-63.146666h-12.515556v-1.137778h-78.165333V659.000889h26.510222l-1.137777 1.251555h55.637333l73.500444-73.159111a38.684444 38.684444 0 0 1 22.755556-10.581333zM959.146667 735.232h43.235555a21.504 21.504 0 1 1 0 43.008h-43.235555a21.504 21.504 0 1 1 0-43.008z m-85.219556-161.336889l31.175111-30.606222a21.617778 21.617778 0 0 1 30.492445 30.378667l-30.492445 30.492444A21.731556 21.731556 0 0 1 876.088889 603.022222a21.276444 21.276444 0 0 1-1.137778-29.127111z m38.229333 326.769778l30.492445 30.378667a21.617778 21.617778 0 1 1-30.492445 30.378666l-30.492444-30.378666a21.617778 21.617778 0 1 1 30.492444-30.378667z m0 0"  /></svg>
