<?xml version="1.0" standalone="no"?><!DOCTYPE svg PUBLIC "-//W3C//DTD SVG 1.1//EN" "http://www.w3.org/Graphics/SVG/1.1/DTD/svg11.dtd"><svg t="1619666830991" class="icon" viewBox="0 0 1024 1024" version="1.1" xmlns="http://www.w3.org/2000/svg" p-id="14892" xmlns:xlink="http://www.w3.org/1999/xlink" width="200" height="200"><defs><style type="text/css"></style></defs><path d="M638.976 462.848c-4.096-8.192-12.288-12.288-24.576-12.288-8.192 0-16.384 4.096-24.576 8.192L532.48 516.096l-61.44-57.344c-8.192-4.096-16.384-8.192-24.576-8.192-8.192 0-16.384 4.096-24.576 12.288-12.288 12.288-12.288 32.768 4.096 45.056l53.248 49.152H450.56c-16.384 0-32.768 16.384-32.768 32.768s16.384 32.768 32.768 32.768h49.152v20.48H450.56c-16.384 0-32.768 16.384-32.768 32.768s16.384 32.768 32.768 32.768h49.152v40.96c0 16.384 16.384 32.768 32.768 32.768s32.768-16.384 32.768-32.768v-40.96H614.4c16.384 0 32.768-16.384 32.768-32.768s-16.384-32.768-32.768-32.768h-49.152v-20.48H614.4c16.384 0 32.768-16.384 32.768-32.768s-16.384-32.768-32.768-32.768h-28.672l53.248-49.152c12.288-8.192 12.288-32.768 0-45.056z" p-id="14893"></path><path d="M835.584 364.544c-16.384 0-32.768 16.384-32.768 32.768v450.56H262.144V401.408c0-16.384-16.384-32.768-32.768-32.768s-32.768 16.384-32.768 32.768v446.464c0 36.864 28.672 69.632 65.536 69.632h540.672c16.384 0 32.768-8.192 49.152-20.48 12.288-12.288 20.48-28.672 20.48-49.152v-450.56c-4.096-20.48-20.48-32.768-36.864-32.768z" p-id="14894"></path><path d="M811.008 114.688H253.952c-32.768 0-57.344 24.576-57.344 57.344v98.304c0 28.672 20.48 53.248 45.056 57.344l299.008 57.344L823.296 327.68c28.672-4.096 45.056-28.672 45.056-57.344V172.032c0-32.768-24.576-57.344-57.344-57.344zM258.048 266.24V180.224h544.768v86.016l-266.24 53.248-278.528-53.248z" p-id="14895"></path></svg>