<?xml version="1.0" standalone="no"?><!DOCTYPE svg PUBLIC "-//W3C//DTD SVG 1.1//EN" "http://www.w3.org/Graphics/SVG/1.1/DTD/svg11.dtd"><svg t="1613787955650" class="icon" viewBox="0 0 1024 1024" version="1.1" xmlns="http://www.w3.org/2000/svg" p-id="14360" width="32" height="32" xmlns:xlink="http://www.w3.org/1999/xlink"><defs><style type="text/css"></style></defs><path d="M967.121455 0C998.539636 0 1024 25.460364 1024 56.878545v910.24291c0 31.418182-25.460364 56.878545-56.878545 56.878545H56.878545A56.878545 56.878545 0 0 1 0 967.121455V56.878545C0 25.460364 25.460364 0 56.878545 0h910.24291zM977.454545 46.545455H46.545455v930.90909h930.90909V46.545455z" p-id="14361"></path><path d="M462.987636 265.169455l32.861091 32.86109-187.392 187.438546H798.254545v53.061818H308.456727l187.392 187.438546-32.861091 32.86109-213.969454-213.969454-16.430546-16.430546a23.272727 23.272727 0 0 1 0-32.954181l16.430546-16.430546 213.969454-213.876363z" p-id="14362"></path></svg>