<?xml version="1.0" standalone="no"?><!DOCTYPE svg PUBLIC "-//W3C//DTD SVG 1.1//EN" "http://www.w3.org/Graphics/SVG/1.1/DTD/svg11.dtd"><svg t="1614163615292" class="icon" viewBox="0 0 1024 1024" version="1.1" xmlns="http://www.w3.org/2000/svg" p-id="12936" xmlns:xlink="http://www.w3.org/1999/xlink" width="128" height="128"><defs><style type="text/css"></style></defs><path d="M912.00909131 62C939.62272695 62 962 84.37727305 962 111.99090869v800.01818262c0 27.61363653-22.37727305 49.99090869-49.99090869 49.99090869H111.99090869A49.99090869 49.99090869 0 0 1 62 912.00909131V111.99090869C62 84.37727305 84.37727305 62 111.99090869 62h800.01818262zM921.09090869 102.90909131H102.90909131v818.18181738h818.18181738V102.90909131z" p-id="12937"></path><path d="M466.05090875 280.59636406l30.80727281 30.80727188-175.68 175.72363687H780.36363594v49.74545438H321.17818156l175.68 175.72363687-30.80727281 30.80727188-200.59636313-200.59636313-15.40363687-15.40363687a21.81818156 21.81818156 0 0 1 0-30.89454469l15.40363687-15.40363688 200.59636313-200.50909031z" p-id="12938"></path></svg>