<?xml version="1.0" standalone="no"?><!DOCTYPE svg PUBLIC "-//W3C//DTD SVG 1.1//EN" "http://www.w3.org/Graphics/SVG/1.1/DTD/svg11.dtd"><svg t="1614158627620" class="icon" viewBox="0 0 1024 1024" version="1.1" xmlns="http://www.w3.org/2000/svg" p-id="13065" xmlns:xlink="http://www.w3.org/1999/xlink" width="128" height="128"><defs><style type="text/css"></style></defs><path d="M938.67636406 32C968.13090875 32 992 55.86909125 992 85.32363594v853.35272812c0 29.45454563-23.86909125 53.32363594-53.32363594 53.32363594H85.32363594A53.32363594 53.32363594 0 0 1 32 938.67636406V85.32363594C32 55.86909125 55.86909125 32 85.32363594 32h853.35272812zM948.36363594 75.63636406H75.63636406v872.72727188h872.72727188V75.63636406z" p-id="13066"></path><path d="M462.987636 265.169455l32.861091 32.86109-187.392 187.438546H798.254545v53.061818H308.456727l187.392 187.438546-32.861091 32.86109-213.969454-213.969454-16.430546-16.430546a23.272727 23.272727 0 0 1 0-32.954181l16.430546-16.430546 213.969454-213.876363z" p-id="13067"></path></svg>