<?xml version="1.0" standalone="no"?><!DOCTYPE svg PUBLIC "-//W3C//DTD SVG 1.1//EN" "http://www.w3.org/Graphics/SVG/1.1/DTD/svg11.dtd"><svg t="1584518660839" class="icon" viewBox="0 0 1024 1024" version="1.1" xmlns="http://www.w3.org/2000/svg" p-id="8525" xmlns:xlink="http://www.w3.org/1999/xlink" width="32" height="32"><defs><style type="text/css"></style></defs><path d="M872.448 181.76c-122.368-19.456-243.2-48.64-360.96-87.04-116.736 39.936-236.544 69.632-358.4 88.576-13.824 3.072-23.552 15.36-23.04 29.696v330.24c6.144 55.808 23.552 110.08 51.2 158.72 34.304 51.2 76.8 95.744 125.44 133.12 58.368 49.664 126.464 87.552 199.68 110.592h14.336c71.68-23.552 138.24-60.928 195.584-110.592 49.152-36.864 92.16-81.92 126.976-132.608 28.672-49.152 46.08-103.936 51.2-160.256V210.944c-0.512-13.312-9.216-25.088-22.016-29.184z m-39.424 357.888c-4.608 45.568-18.944 90.624-41.984 130.048-30.72 44.544-68.096 83.968-111.616 116.224l-2.048 1.536-1.536 1.536c-48.128 41.984-102.912 73.728-162.816 94.72-61.44-20.992-117.248-52.736-166.912-95.232l-1.536-1.024-1.536-1.024c-43.008-32.768-79.872-71.68-110.08-116.736-22.528-40.448-36.864-83.968-41.984-129.536V239.616c108.544-18.432 216.064-45.056 320.512-79.872 104.96 33.28 212.48 59.392 321.024 77.824v302.08z" fill="#333333" p-id="8526"></path><path d="M330.752 633.344c-7.68 0-15.872-3.072-21.504-9.216-11.776-11.776-11.776-31.232 0-43.52l134.144-134.144c11.776-11.776 31.232-11.776 43.52 0l67.072 67.072 117.76-117.76c11.776-11.776 31.232-11.776 43.52 0 11.776 11.776 11.776 31.232 0 43.52L576 578.56c-11.776 11.776-31.232 11.776-43.52 0l-67.584-66.56-112.128 112.128c-6.144 6.144-13.824 9.216-22.016 9.216z" fill="#333333" p-id="8527"></path></svg>