<?xml version="1.0" standalone="no"?><!DOCTYPE svg PUBLIC "-//W3C//DTD SVG 1.1//EN" "http://www.w3.org/Graphics/SVG/1.1/DTD/svg11.dtd"><svg class="icon" width="200px" height="200.00px" viewBox="0 0 1024 1024" version="1.1" xmlns="http://www.w3.org/2000/svg"><path d="M824.32 643.072c-34.816-18.432-74.752-22.016-112.64-10.752-27.648 8.704-51.712 24.576-69.632 46.592l-231.424-122.368c4.096-13.824 6.144-28.16 6.144-42.496 0.512-15.872-1.536-31.744-6.144-47.104l231.424-122.368c17.92 22.016 41.984 37.888 69.632 46.592 14.336 4.608 29.184 6.656 43.52 6.656 23.552 0 47.104-5.632 68.608-17.408 34.816-18.432 60.416-49.152 72.192-87.04 11.776-37.888 7.68-77.824-10.752-112.64-18.432-34.816-49.152-60.416-87.04-72.192-37.888-11.776-77.824-7.68-112.64 10.752-62.464 33.28-91.648 105.472-73.216 171.008l-232.448 122.88C335.872 361.984 261.12 346.112 199.168 378.88c-34.816 18.432-60.416 49.152-72.192 87.04-5.12 15.872-7.168 32.256-6.656 48.64 0.512 52.736 28.672 103.424 78.848 130.048 22.016 11.776 45.568 16.896 68.608 16.896 42.496 0 83.456-18.432 112.128-51.2l232.448 122.88c-18.432 65.536 10.24 137.728 73.216 171.008 21.504 11.264 45.056 17.408 68.608 17.408 14.848 0 29.184-2.048 43.52-6.656 37.888-11.776 68.608-37.376 87.04-72.192 18.432-34.816 22.016-74.752 10.752-112.64-10.752-37.376-36.352-68.608-71.168-87.04zM309.248 586.24c-41.984 22.016-94.208 6.144-116.736-35.84-6.144-11.776-9.216-24.576-9.728-37.376 0-13.312 3.584-26.624 9.728-38.912 10.752-20.48 28.672-35.328 50.688-41.984 8.192-2.56 16.896-4.096 25.6-4.096 13.824 0 27.648 3.584 40.448 10.24 28.672 14.848 45.056 44.032 46.08 74.24 0 7.68-1.536 15.36-3.584 23.04-7.168 21.504-22.528 39.936-42.496 50.688zM714.752 174.08c12.8-6.656 26.624-9.728 39.936-9.728 31.232 0 60.928 16.896 76.288 46.08 10.752 20.48 12.8 43.52 6.144 65.536-6.656 22.016-21.504 39.936-41.984 50.688-20.48 10.752-43.52 12.8-65.536 6.144-22.016-6.656-39.936-21.504-50.688-41.984-22.016-42.496-6.144-94.72 35.84-116.736z m116.736 640c-10.752 20.48-28.672 35.328-50.688 41.984-22.016 6.656-45.568 4.608-65.536-6.144-41.984-22.016-58.368-74.752-35.84-116.736 10.752-20.48 28.672-35.328 50.688-41.984 8.192-2.56 16.896-4.096 25.6-4.096 13.824 0 27.648 3.584 40.448 10.24 20.48 10.752 35.328 28.672 41.984 50.688 6.144 22.528 4.096 45.568-6.656 66.048z"  /></svg>
