<?xml version="1.0" standalone="no"?><!DOCTYPE svg PUBLIC "-//W3C//DTD SVG 1.1//EN" "http://www.w3.org/Graphics/SVG/1.1/DTD/svg11.dtd"><svg class="icon" width="200px" height="200.00px" viewBox="0 0 1024 1024" version="1.1" xmlns="http://www.w3.org/2000/svg"><path d="M819.227 659.433c-61.894 0-115.062 34.976-142.546 85.863L315.976 562.422c9.005-20.207 14.244-42.45 14.244-66 0-25.024-6.115-48.448-16.213-69.627l376.646-155.22c29.757 38.264 75.714 63.316 127.939 63.316 89.82 0 162.634-72.812 162.634-162.634 0-89.82-72.816-162.634-162.634-162.634-89.822 0-162.634 72.815-162.634 162.634 0 8.44 1.243 16.547 2.484 24.64l-399.81 164.764c-25.982-17.588-57.309-27.873-91.046-27.873-89.822 0-162.635 72.815-162.635 162.634 0 89.821 72.813 162.634 162.635 162.634 36.065 0 69.07-12.123 96.04-31.991L657.044 826.52c2.414 87.71 73.889 158.18 162.185 158.18 89.82 0 162.634-72.812 162.634-162.634 0-89.818-72.816-162.634-162.635-162.634z"  /></svg>
