<?xml version="1.0" standalone="no"?><!DOCTYPE svg PUBLIC "-//W3C//DTD SVG 1.1//EN" "http://www.w3.org/Graphics/SVG/1.1/DTD/svg11.dtd"><svg class="icon" width="200px" height="200.00px" viewBox="0 0 1024 1024" version="1.1" xmlns="http://www.w3.org/2000/svg"><path d="M1.728 512a510.272 510.272 0 1 0 1020.544 0A510.272 510.272 0 1 0 1.728 512z" fill="#ACFFE5" /><path d="M405.568 552.384a23.168 23.168 0 0 0 0-40.192c-65.216-100.224-42.624-168.96-32.576-193.024a85.376 85.376 0 0 0-27.584-5.568 86.72 86.72 0 0 0-82.688 93.824 137.28 137.28 0 0 0 45.12 112.832 42.048 42.048 0 0 1 0 16 30.72 30.72 0 0 1-5.12 13.632c-22.528 20.992-107.776 45.12-116.352 93.76-1.28 13.312-1.28 26.752 0 40.128 19.136 9.6 39.296 16.896 60.16 21.568 0 0 2.56-13.568 7.552-32.064 0-27.136 40.128-75.264 132.864-112.896 6.528-1.92 12.8-4.608 18.624-8z" fill="#56dba6" /><path d="M553.088 552.384a39.68 39.68 0 0 1-5.056-16.064 58.24 58.24 0 0 1 0-21.568 157.824 157.824 0 0 0 60.096-139.392c0-43.136-25.088-118.4-100.288-118.4h-4.992A107.84 107.84 0 0 0 402.56 375.296a169.344 169.344 0 0 0 57.664 139.392 37.248 37.248 0 0 1 7.552 24.128 23.68 23.68 0 0 1-9.984 13.568c-32.192 26.56-147.456 55.616-155.072 115.328-4.992 24.064-40.064 64.192 75.264 80.768 43.84 6.848 88.064 10.176 132.352 10.048 265.344 0 210.176-56.192 200.704-88.832-7.552-61.696-123.392-90.752-157.952-117.312z" fill="#00B767" /><path d="M833.408 643.648c-5.056-50.112-95.296-69.696-120.448-93.76a29.632 29.632 0 0 1-4.992-13.568 27.008 27.008 0 0 1 2.496-16 130.048 130.048 0 0 0 45.696-112.896 88.768 88.768 0 0 0-82.816-93.76 59.456 59.456 0 0 0-32.576 8c12.544 50.176 30.08 134.4-37.632 190.592-25.088 40.128 60.16 67.2 47.616 59.2 77.76 37.568 100.288 67.2 105.344 96.768 4.992 29.632 4.992 40.128 4.992 40.128a358.4 358.4 0 0 0 77.248-22.08 127.68 127.68 0 0 0-4.928-42.624z" fill="#56dba6" /></svg>