<?xml version="1.0" standalone="no"?><!DOCTYPE svg PUBLIC "-//W3C//DTD SVG 1.1//EN" "http://www.w3.org/Graphics/SVG/1.1/DTD/svg11.dtd"><svg class="icon" width="200px" height="200.00px" viewBox="0 0 1024 1024" version="1.1" xmlns="http://www.w3.org/2000/svg"><path d="M138.99093333 173.94346667c-5.46133333-17.47626667-24.02986667-26.76053333-40.96-21.2992-17.47626667 5.46133333-26.76053333 24.02986667-21.2992 40.96L305.5616 916.13866667c4.36906667 14.19946667 17.47626667 22.9376 31.1296 22.9376 3.2768 0 6.5536-0.54613333 9.8304-1.6384 17.47626667-5.46133333 26.76053333-24.02986667 21.2992-40.96L138.99093333 173.94346667zM946.72213333 553.50613333L806.36586667 184.32c-4.9152-13.1072-17.47626667-21.2992-31.1296-21.2992-37.13706667 1.09226667-144.72533333-0.54613333-194.9696-18.0224C435.54133333 94.75413333 324.67626667 75.63946667 250.94826667 88.74666667c-66.08213333 11.4688-83.01226667 45.8752-85.74293334 52.4288-2.73066667 7.09973333-3.2768 14.7456-1.09226666 22.39146666L277.16266667 520.73813333c2.73066667 9.28426667 9.8304 16.93013333 19.11466666 20.20693334 8.73813333 3.82293333 19.11466667 3.2768 27.8528-1.6384 0.54613333 0 105.94986667-54.61333333 219.5456-10.92266667 158.9248 61.16693333 269.78986667 72.0896 328.77226667 72.0896 31.1296 0 48.05973333-3.2768 49.69813333-3.2768 9.28426667-1.6384 17.47626667-7.64586667 22.39146667-16.384 4.9152-8.192 5.46133333-18.0224 2.18453333-27.30666667z m-122.88-20.75306666c-52.4288-4.9152-139.264-20.20693333-256.13653333-65.536-41.50613333-15.83786667-81.37386667-21.84533333-117.41866667-21.84533334-50.24426667 0-93.3888 10.92266667-121.2416 21.2992L232.37973333 163.0208c23.48373333-12.56106667 102.67306667-33.86026667 325.49546667 43.69066667 55.15946667 19.11466667 150.7328 21.84533333 194.9696 21.84533333l116.3264 306.3808c-12.01493333 0-27.30666667-0.54613333-45.32906667-2.18453333z"  /></svg>
