<?xml version="1.0" standalone="no"?><!DOCTYPE svg PUBLIC "-//W3C//DTD SVG 1.1//EN" "http://www.w3.org/Graphics/SVG/1.1/DTD/svg11.dtd"><svg class="icon" width="200px" height="200.00px" viewBox="0 0 1024 1024" version="1.1" xmlns="http://www.w3.org/2000/svg"><path d="M512 483.328c-98.816 0-192.512-14.848-263.168-41.472-80.384-30.208-124.416-74.24-124.416-123.904s44.032-93.696 124.416-123.904c70.656-26.624 164.352-41.472 263.168-41.472 98.816 0 192.512 14.848 263.168 41.472 80.384 30.208 124.416 74.24 124.416 123.904s-44.032 93.696-124.416 123.904c-70.656 26.624-164.352 41.472-263.168 41.472z m0-268.8c-199.168 0-326.656 61.44-326.656 103.424S312.832 421.888 512 421.888s326.656-61.44 326.656-103.424-127.488-103.936-326.656-103.936zM900.096 522.24c0-16.896-13.824-30.72-30.72-30.72s-30.72 13.824-30.72 30.72c0 1.024-13.824 102.912-323.072 103.424h-6.144c-309.248-0.512-323.072-102.4-323.072-103.424 0-16.896-13.824-30.72-30.72-30.72s-30.72 13.824-30.72 30.72 10.752 164.864 387.584 164.864h1.024c375.296 0 386.56-147.968 386.56-164.864zM900.096 729.6c0-16.896-13.824-30.72-30.72-30.72s-30.72 13.824-30.72 30.72c0 1.024-13.824 102.912-323.072 103.424h-6.144c-309.248-0.512-323.072-102.4-323.072-103.424 0-16.896-13.824-30.72-30.72-30.72s-30.72 13.824-30.72 30.72 10.752 164.864 387.584 164.864h1.024c375.296 0 386.56-147.968 386.56-164.864z"  /></svg>
