<?xml version="1.0" standalone="no"?><!DOCTYPE svg PUBLIC "-//W3C//DTD SVG 1.1//EN" "http://www.w3.org/Graphics/SVG/1.1/DTD/svg11.dtd"><svg t="1610016677234" class="icon" viewBox="0 0 1024 1024" version="1.1" xmlns="http://www.w3.org/2000/svg" p-id="13251" xmlns:xlink="http://www.w3.org/1999/xlink" width="200" height="200"><defs><style type="text/css"></style></defs><path d="M896 694.336H634.816c-36.288 0-71.232 10.88-100.864 31.552l-119.488 87.68v-55.232a64 64 0 0 0-64-64H128V184.576h768v509.76zM64 184.576v512a64 64 0 0 0 64 64h217.6a6.4 6.4 0 0 1 6.4 6.4v97.984a38.4 38.4 0 0 0 60.608 31.36l175.04-123.968a63.872 63.872 0 0 1 36.992-11.776H896a64 64 0 0 0 64-64v-512a64 64 0 0 0-64-64H128a64 64 0 0 0-64 64z" p-id="13252"></path></svg>