<?xml version="1.0" standalone="no"?><!DOCTYPE svg PUBLIC "-//W3C//DTD SVG 1.1//EN" "http://www.w3.org/Graphics/SVG/1.1/DTD/svg11.dtd"><svg class="icon" width="200px" height="200.00px" viewBox="0 0 1024 1024" version="1.1" xmlns="http://www.w3.org/2000/svg"><path d="M601.1 422.9c5.4 5.4 12.15 8.1 18.9 8.1s13.95-2.7 18.9-8.1L818 244.25V404c0 14.85 12.15 27 27 27s27-12.15 27-27V179c0-1.8 0-3.15-0.45-4.95v-0.45c-0.45-1.8-0.9-3.15-1.35-4.5v-0.45c-0.45-1.35-1.35-3.15-2.25-4.5v-0.45c-1.8-3.15-4.5-5.4-7.65-7.65h-0.45c-1.35-0.9-2.7-1.8-4.5-2.25h-0.45c-1.35-0.45-3.15-0.9-4.5-1.35h-0.45c-1.8-0.45-3.15-0.45-4.95-0.45h-225c-14.85 0-27 12.15-27 27s12.15 27 27 27h159.75l-179.1 179.1c-10.35 10.35-10.35 27.45 0.45 37.8zM869.75 855.35c0.45 0 0.45-0.45 0 0 0.9-1.8 1.35-3.6 1.35-4.95v-0.45c0.45-1.8 0.45-3.15 0.45-4.95v-225c0-14.85-12.15-27-27-27s-27 12.15-27 27v159.75l-179.1-179.1c-10.35-10.35-27.45-10.35-38.25 0-10.35 10.35-10.35 27.45 0 38.25l179.1 179.1H620c-14.85 0-27 12.15-27 27s12.15 27 27 27h225c1.8 0 3.15 0 4.95-0.45h0.45c1.8-0.45 3.15-0.9 4.5-1.35h0.45c1.35-0.45 3.15-1.35 4.5-2.25h0.45c3.15-1.8 5.4-4.5 7.65-7.65v-0.45c0.45-1.8 1.35-3.15 1.8-4.5zM244.25 206H404c14.85 0 27-12.15 27-27s-12.15-27-27-27H179c-1.8 0-3.15 0-4.95 0.45h-0.45c-1.8 0.45-3.15 0.9-4.5 1.35h-0.45c-1.35 0.45-3.15 1.35-4.5 2.25h-0.45c-3.15 1.8-5.4 4.5-7.65 7.65v0.45c-0.9 1.35-1.8 2.7-2.25 4.5v0.45c-0.45 1.35-0.9 3.15-1.35 4.5v0.45c-0.45 1.8-0.45 3.15-0.45 4.95v225c0 14.85 12.15 27 27 27s27-12.15 27-27V244.25l179.1 179.1c5.4 5.4 12.15 8.1 18.9 8.1s13.95-2.7 18.9-8.1c10.35-10.35 10.35-27.45 0-38.25L244.25 206zM422.9 601.1c-10.35-10.35-27.45-10.35-38.25 0L206 779.75V620c0-14.85-12.15-27-27-27s-27 12.15-27 27v225c0 1.8 0 3.15 0.45 4.95v0.45c0.45 1.8 0.9 3.15 1.35 4.5v0.45c0.45 1.35 1.35 3.15 2.25 4.5v0.45c1.8 3.15 4.5 5.4 7.65 7.65h0.45c1.35 0.9 2.7 1.8 4.5 2.25h0.45c1.35 0.45 3.15 0.9 4.5 1.35h0.45c1.8 0.45 3.15 0.45 4.95 0.45h225c14.85 0 27-12.15 27-27s-12.15-27-27-27H244.25l179.1-179.1c10.35-10.35 10.35-27.45-0.45-37.8z"  /></svg>
