<?xml version="1.0" standalone="no"?><!DOCTYPE svg PUBLIC "-//W3C//DTD SVG 1.1//EN" "http://www.w3.org/Graphics/SVG/1.1/DTD/svg11.dtd"><svg class="icon" width="200px" height="200.00px" viewBox="0 0 1024 1024" version="1.1" xmlns="http://www.w3.org/2000/svg"><path d="M126.368 415.136c17.7024-0.0096 32.064-14.4864 32.0496-32.2992l-0.1104-182.2992 204.0096 205.224a30.6144 30.6144 0 0 0 43.488-0.0288c11.9856-12.144 11.976-31.704-0.0336-43.776L201.6992 156.8l181.0464-0.1152c17.7024-0.0144 32.064-14.4912 32.0544-32.304s-14.3856-32.2848-32.0928-32.2752l-250.8912 0.1584c-23.4096 0.0144-37.704 12.1632-37.6944 37.9968l0.1584 252.6144c0.0144 17.8224 14.3904 32.2752 32.088 32.2608zM641.0096 157.1312l181.0608-0.2976-203.6256 205.6128c-11.9616 12.1008-11.9328 31.6656 0.0768 43.7808a30.6288 30.6288 0 0 0 43.4928-0.072L865.5584 200.48l0.3024 182.2992c0.0288 17.8224 14.4192 32.2656 32.1072 32.232 17.7072-0.0288 32.0448-14.5104 32.016-32.3376l-0.4032-252.6144c-0.0384-25.8192-14.2896-37.9296-37.7712-37.9008l-250.896 0.4032c-17.7024 0.0288-32.0448 14.5056-32.016 32.3328s14.4096 32.2704 32.112 32.2368zM405.9296 618.248a30.624 30.624 0 0 0-43.488-0.0672l-204.1968 205.032 0.288-182.2992c0.024-17.832-14.3184-32.3136-32.016-32.3328-17.7024-0.0288-32.0928 14.4096-32.1168 32.232l-0.3888 252.6192c-0.048 25.8288 14.2368 37.9872 37.6512 38.0256l250.8912 0.3936c17.7024 0.0288 32.088-14.4192 32.1168-32.2416 0.024-17.8224-14.3136-32.304-32.0208-32.3328l-181.0464-0.2832 204.264-204.9648c12.0144-12.0576 12.0336-31.6224 0.0624-43.7808zM897.2672 608.5616c-17.7024 0.0288-32.0448 14.5104-32.0064 32.3424l0.3072 182.2896-204.2448-204.9744a30.6096 30.6096 0 0 0-43.4928 0.0864c-11.9616 12.1584-11.9232 31.7232 0.0864 43.7808l204.3072 204.9264-181.0512 0.3168c-17.7024 0.0288-32.0448 14.5056-32.016 32.3328 0.0384 17.8224 14.4288 32.2704 32.1264 32.232l250.896-0.4464c23.4768-0.048 37.6992-12.216 37.6416-38.0448l-0.4416-252.6288c-0.0336-17.8128-14.424-32.2512-32.112-32.2128z"  /></svg>
