<?xml version="1.0" standalone="no"?><!DOCTYPE svg PUBLIC "-//W3C//DTD SVG 1.1//EN" "http://www.w3.org/Graphics/SVG/1.1/DTD/svg11.dtd"><svg t="1637572833760" class="icon" viewBox="0 0 1111 1024" version="1.1" xmlns="http://www.w3.org/2000/svg" p-id="14969" xmlns:xlink="http://www.w3.org/1999/xlink" width="216.9921875" height="200"><defs><style type="text/css"></style></defs><path d="M879.48186393 495.04966539V183.58726304c2.11879165-23.30671028-16.95033461-42.37583726-40.2570456-42.37583726H203.58726304C180.28055277 141.21142578 161.21142578 160.28055277 161.21142578 183.58726304v593.26171875c0 23.30671028 19.06912698 42.37583726 42.37583726 42.37583654h396.21407614c14.83154297 0 25.42550193-12.71275132 25.42550265-25.42550192s-12.71275132-25.42550193-25.42550264-25.42550192H214.181222V319.18994141l256.37381448 175.85972398c8.47516731 6.35637565 21.18791862 6.35637565 29.66308594-1e-8l120.77113539-88.98925781 211.87918558 125.00871941c4.23758401 8.47516731 12.71275132 12.71275132 21.18791791 12.7127506 12.71275132 0 25.42550193-12.71275132 25.42550264-25.42550192m-275.44294074-165.2657643l-118.65234375 86.87046544L214.181222 255.62618551V196.30001364h614.44963737v269.08656581l-194.92885024-114.41476045c-10.59395896-4.23758401-21.18791862-4.23758401-29.66308593 2.11879236z" p-id="14970"></path><path d="M796.84898179 543.78187758c-93.22684183 0-169.50334831 76.27650649-169.50334832 169.50334832s76.27650649 169.50334831 169.50334831 169.50334832 169.50334831-76.27650649 169.50334833-169.50334832-76.27650649-169.50334831-169.50334832-169.50334831z m0 296.63085939c-69.92013083 0-127.12751107-57.20738023-127.12751107-127.12751106s57.20738023-127.12751107 127.12751107-127.12751107 127.12751107 57.20738023 127.12751106 127.12751106-57.20738023 127.12751107-127.12751107 127.12751107z" p-id="14971"></path><path d="M834.98723503 624.29596809h-8.4751673c-10.59395896 0-21.18791862 6.35637565-29.66308594 12.71275132-8.47516731 8.47516731-14.83154297 19.06912698-16.95033534 33.90066924V753.54227152c-2.11879165 10.59395896-10.59395896 19.06912698-21.18791791 19.06912626s-21.18791862-8.47516731-21.18791862-21.18791864c0-6.35637565 2.11879165-10.59395896 6.35637566-14.83154296 4.23758401-4.23758401 8.47516731-6.35637565 14.83154297-6.35637566h2.11879164c6.35637565 0 12.71275132-6.35637565 12.71275133-14.83154298 0-10.59395896-6.35637565-16.95033461-14.83154297-16.9503346-29.66308594 0-52.96979621 23.30671028-52.96979694 52.9697962s23.30671028 52.96979621 52.96979694 52.96979622h8.4751673c10.59395896 0 21.18791862-6.35637565 29.66308594-12.7127506 8.47516731-8.47516731 14.83154297-19.06912698 16.95033461-33.90066995V675.14697266c2.11879165-10.59395896 10.59395896-19.06912698 21.18791862-19.06912698s21.18791862 8.47516731 21.18791865 21.18791862c0 6.35637565-2.11879165 10.59395896-6.35637568 14.83154298-4.23758401 4.23758401-8.47516731 6.35637565-14.83154297 6.35637565h-2.11879164c-6.35637565 0-12.71275132 6.35637565-12.71275132 14.83154297 0 10.59395896 6.35637565 16.95033461 14.83154296 16.95033461 29.66308594 0 52.96979621-23.30671028 52.96979623-52.96979621s-23.30671028-52.96979621-52.96979623-52.9697962z" p-id="14972"></path></svg>