<?xml version="1.0" standalone="no"?><!DOCTYPE svg PUBLIC "-//W3C//DTD SVG 1.1//EN" "http://www.w3.org/Graphics/SVG/1.1/DTD/svg11.dtd"><svg t="1637564401990" class="icon" viewBox="0 0 1111 1024" version="1.1" xmlns="http://www.w3.org/2000/svg" p-id="26797" xmlns:xlink="http://www.w3.org/1999/xlink" width="216.9921875" height="200"><defs><style type="text/css"></style></defs><path d="M930.11269852 492.71428595V138.33928595c2.41071406-26.51785703-19.28571405-48.21428595-45.80357189-48.21428595H161.0948415C134.57698448 90.125 112.88055555 111.82142893 112.88055555 138.33928595v675c0 26.51785703 21.69642892 48.21428595 48.21428595 48.21428513h450.80357108c16.875 0 28.92857108-14.46428595 28.9285719-28.92857108s-14.46428595-28.92857108-28.92857189-28.92857107H173.14841259V292.625l291.69642891 200.08928595c9.64285702 7.23214297 24.10714297 7.23214297 33.75-1e-8l137.41071405-101.25 241.07142893 142.23214298c4.82142892 9.64285702 14.46428595 14.46428595 24.10714215 14.46428513 14.46428595 0 28.92857108-14.46428595 28.9285719-28.92857107m-313.39285703-188.03571405l-135 98.83928512L173.14841259 220.30357107V152.80357107h699.10714296v306.16071488l-221.78571405-130.17857189c-12.05357108-4.82142892-24.10714297-4.82142892-33.75 2.41071487z" p-id="26798"></path><path d="M836.0948415 548.16071405c-106.07142893 0-192.85714297 86.78571405-192.85714297 192.85714297s86.78571405 192.85714297 192.85714296 192.85714298 192.85714297-86.78571405 192.85714299-192.85714298-86.78571405-192.85714297-192.85714298-192.85714296z m0 337.50000001c-79.55357107 0-144.64285703-65.08928595-144.64285703-144.64285703s65.08928595-144.64285703 144.64285703-144.64285703 144.64285703 65.08928595 144.64285703 144.64285702-65.08928595 144.64285703-144.64285704 144.64285704z" p-id="26799"></path><path d="M879.48769852 639.76785702h-9.64285702c-12.05357108 0-24.10714297 7.23214297-33.75 14.46428596-9.64285702 9.64285702-16.875 21.69642892-19.28571488 38.5714281V786.82142893c-2.41071406 12.05357108-12.05357108 21.69642892-24.10714215 21.69642809s-24.10714297-9.64285702-24.10714297-24.10714297c0-7.23214297 2.41071406-12.05357108 7.23214298-16.875 4.82142892-4.82142892 9.64285702-7.23214297 16.875-7.23214297h2.41071405c7.23214297 0 14.46428595-7.23214297 14.46428595-16.87500001 0-12.05357108-7.23214297-19.28571405-16.875-19.28571404-33.75 0-60.26785702 26.51785703-60.26785785 60.26785702s26.51785703 60.26785702 60.26785785 60.26785702h9.64285702c12.05357108 0 24.10714297-7.23214297 33.75-14.46428512 9.64285702-9.64285702 16.875-21.69642892 19.28571405-38.57142893V697.625c2.41071406-12.05357108 12.05357108-21.69642892 24.10714297-21.69642892s24.10714297 9.64285702 24.10714298 24.10714297c0 7.23214297-2.41071406 12.05357108-7.23214298 16.87500001-4.82142892 4.82142892-9.64285702 7.23214297-16.875 7.23214296h-2.41071405c-7.23214297 0-14.46428595 7.23214297-14.46428595 16.875 0 12.05357108 7.23214297 19.28571405 16.875 19.28571405 33.75 0 60.26785702-26.51785703 60.26785703-60.26785702s-26.51785703-60.26785702-60.26785703-60.26785702z" p-id="26800"></path></svg>