<?xml version="1.0" standalone="no"?><!DOCTYPE svg PUBLIC "-//W3C//DTD SVG 1.1//EN" "http://www.w3.org/Graphics/SVG/1.1/DTD/svg11.dtd"><svg class="icon" width="200px" height="200.00px" viewBox="0 0 1024 1024" version="1.1" xmlns="http://www.w3.org/2000/svg"><path d="M422.912 929.792c-17.408 0-33.792-6.656-46.08-18.944-12.8-12.288-19.456-29.184-19.456-47.104v-17.408c0-36.352 29.696-66.56 66.56-66.56h120.32c25.088 0 48.128 14.336 59.392 36.352 46.592-13.824 82.944-31.232 114.176-55.296 37.376-28.672 64-65.536 81.92-112.128-36.864-16.896-61.44-64.512-61.44-119.808 0-51.2 21.504-96.768 55.296-116.224-15.872-71.68-48.128-133.12-92.672-177.664-50.688-50.688-115.2-77.312-187.392-77.312-36.352 0-70.656 5.632-102.4 16.896-31.744 11.264-60.416 28.16-85.504 50.176-48.128 42.496-82.944 104.448-102.4 183.296C260.608 424.448 286.72 473.6 286.72 529.408c0 70.656-40.448 126.464-92.16 126.464s-92.16-55.296-92.16-126.464c0-49.664 20.48-94.72 52.736-114.688 10.24-48.64 25.6-93.184 46.08-131.584 21.504-41.472 49.152-76.8 80.896-105.472 31.232-27.648 67.072-48.64 107.008-62.976 38.4-13.312 79.872-20.48 123.904-20.48 89.6 0 169.984 33.28 232.96 96.256C801.28 245.76 839.68 321.024 857.6 408.576c38.912 15.872 64.512 64 64.512 120.832 0 50.688-20.992 95.744-53.76 115.2-9.728 32.768-23.552 62.464-39.936 88.576-18.944 30.208-43.008 56.32-71.68 78.336-40.448 31.232-87.552 53.76-148.48 70.144-3.072 10.752-9.216 20.992-17.408 29.184-12.288 12.288-28.672 18.944-46.08 18.944H422.912z m1.024-85.504c-1.024 0-2.048 1.024-2.048 2.048v17.408c0 0.512 0 1.024 0.512 1.536 0 0 0.512 0.512 1.024 0.512h120.832c0.512 0 1.024 0 1.536-0.512 0.512-0.512 0.512-1.024 0.512-1.536v-17.408c0-1.024-1.024-2.048-2.048-2.048H423.936zM829.44 466.944c-9.728 0-28.16 23.552-28.16 62.464 0 30.72 14.336 62.464 28.16 62.464 9.728 0 28.16-23.552 28.16-62.464 0-30.72-14.336-62.464-28.16-62.464z m-634.88 0c-9.728 0-28.16 23.552-28.16 62.464 0 30.72 14.336 62.464 28.16 62.464 9.728 0 28.16-23.552 28.16-62.464 0-30.72-14.336-62.464-28.16-62.464z"  /></svg>
