<?xml version="1.0" standalone="no"?><!DOCTYPE svg PUBLIC "-//W3C//DTD SVG 1.1//EN" "http://www.w3.org/Graphics/SVG/1.1/DTD/svg11.dtd"><svg class="icon" width="200px" height="200.00px" viewBox="0 0 1024 1024" version="1.1" xmlns="http://www.w3.org/2000/svg"><path fill="#333333" d="M898.3 451.3c-11.6-11.2-24.9-20.2-39.3-26.8V407c0-78-30.4-151.3-85.5-206.5C718.3 145.4 645 115 567 115H457c-78 0-151.3 30.4-206.5 85.5C195.4 255.7 165 329 165 407v17.3c-15 7-28.8 16.8-40.8 29.2-25.1 25.9-39.5 60.7-39.5 95.5v81.8c0.8 36.6 15.8 70.8 42.3 96.1 25.7 24.6 59.3 38.1 94.8 38.1h3.1c19.1 0 36.8-7.2 49.9-20.2 13-13 20.2-30.8 20.2-49.9V479c0-18-7.3-34.9-20.6-47.4-13.6-12.8-32.2-19.8-52.4-19.8h-0.9V407c0-63 24.6-122.3 69.1-166.9C334.7 195.6 394 171 457 171h110c63 0 122.3 24.6 166.9 69.1C778.5 284.7 803 344 803 407v4.8c-1.3 0-2.5-0.1-3.8-0.1-19 0-36.7 7-49.9 19.8-13.1 12.7-20.2 29.5-20.2 47.4V698c1.5 17.6 9.5 33.8 22.6 45.7 4.2 3.9 8.9 7.2 13.9 9.9-82.1 79.3-163.5 96.8-219.4 96.8-16.1 0-29.3 13.1-29.3 29.3S530 909 546.2 909h5.8v-0.1c65.9-1.1 129.3-21.5 188.4-60.5 48.8-32.2 81.3-68.6 95.2-84.2 2.1-2.3 4.1-4.6 5.5-6 21.3-6.7 40.7-18.1 56.9-33.8 26.7-25.9 41.4-60.2 41.4-96.6V549c0-37.3-14.6-72-41.1-97.7z m-674.2 18.9c3.5 1.7 6 5 6.5 8.9V695c0.4 4.8-2.2 9.2-6.4 11.3-44.8-0.3-83.9-37-83.9-78.7V549c0-1.9 0.1-3.9 0.2-5.8 3-41.4 37.6-73.1 78.4-73.1 1.7 0 3.4 0 5.2 0.1z m656.7 160.5c-1.6 43.4-38.2 77.4-81.5 75.8h-0.1c-7.1 0-11.6-4.4-11.6-11.6V479.3c1.2-5.2 5.7-8.9 11-9h0.6v-0.2c1.1 0 2.1-0.1 3.1-0.1 43.4 0.1 78.6 35.5 78.5 78.9v76c0.1 2 0.1 3.9 0 5.8z" /></svg>