<?xml version="1.0" standalone="no"?><!DOCTYPE svg PUBLIC "-//W3C//DTD SVG 1.1//EN" "http://www.w3.org/Graphics/SVG/1.1/DTD/svg11.dtd"><svg class="icon" width="200px" height="200.00px" viewBox="0 0 1024 1024" version="1.1" xmlns="http://www.w3.org/2000/svg"><path fill="#333333" d="M480.7 656.1c-7.5 0-15.1-2.9-20.9-8.6L333.3 520.9c-11.5-11.5-11.5-30.2 0-41.7 11.5-11.5 30.2-11.5 41.7 0l105.7 105.7L689 376.6c11.5-11.5 30.2-11.5 41.7 0 11.5 11.5 11.5 30.2 0 41.7L501.6 647.4c-5.8 5.8-13.3 8.7-20.9 8.7zM507.7 88.7L153.5 259.5v311.8l0.1 1.2c0.2 2.8 6 70.5 52.7 148.5 27.2 45.5 62.9 85.5 105.9 118.7 53.3 41.1 118 71.9 192.3 91.5l7.5 2 7.5-2c74.4-19.6 139.1-50.4 192.3-91.5 43-33.2 78.7-73.2 105.9-118.7 46.6-78 52.4-145.7 52.7-148.5l0.1-1.2v-312L507.7 88.7z m303.8 480c-0.9 7.9-8.2 62.7-45.9 124.5-23.6 38.7-54.3 72.7-91.4 101-44.9 34.3-99.5 60.5-162.3 77.9-62.8-17.4-117.4-43.6-162.3-77.9-37.1-28.3-67.8-62.3-91.4-101-37.6-61.8-45-116.6-45.9-124.5V296.6L508 154l303.5 142.7v272z" /></svg>