<?xml version="1.0" standalone="no"?><!DOCTYPE svg PUBLIC "-//W3C//DTD SVG 1.1//EN" "http://www.w3.org/Graphics/SVG/1.1/DTD/svg11.dtd"><svg class="icon" width="200px" height="200.00px" viewBox="0 0 1024 1024" version="1.1" xmlns="http://www.w3.org/2000/svg"><path fill="#333333" d="M558.9 788.1h0.4l94.9-1.5c14.9-0.2 26.8-12.5 26.6-27.4-0.2-14.8-12.3-26.6-27-26.6h-0.4l-94.9 1.5c-14.9 0.2-26.8 12.5-26.6 27.4 0.3 14.8 12.3 26.6 27 26.6zM919.5 512c0-55-10.8-108.4-32-158.6-20.5-48.5-49.9-92.1-87.3-129.5-37.4-37.4-81-66.8-129.5-87.3-50.3-21.3-103.6-32-158.6-32-55.5 0-109.3 11-160 32.6-48.9 20.9-92.7 50.8-130.2 88.8-37.5 38-66.7 82.2-86.9 131.4-20.9 51-31.2 105-30.4 160.6 3 222.2 185.4 401.5 407.4 401.5h4.4c104.2-1.1 202.9-41.5 278-113.7 4.5-4.3 7.4-9.8 8.6-15.9v-0.2c1.6-8.8 0-17.8-4.7-25.4l-1.2-2c-0.1-0.2-0.3-0.5-0.4-0.7-29.7-46.2-70.7-84.7-118.6-111.3-16.1-9-32.9-16.5-50.2-22.7 41-32.9 67.2-83.4 67.2-139.9 0-99-80.5-179.5-179.5-179.5s-179.5 80.5-179.5 179.5c0 56.5 26.3 107 67.2 139.9-18.2 6.5-35.9 14.5-52.8 24.1-39.4 22.4-74 52.8-101.4 88.9-52.3-60-84.5-138.1-85.7-223.6-0.7-47.6 8.1-93.8 26-137.3 17.3-42 42.3-79.8 74.3-112.3 32.1-32.5 69.6-58.1 111.4-75.9 43.3-18.5 89.3-27.9 136.8-27.9 93.1 0 180.6 36.2 246.4 102.1 65.8 65.8 102.1 153.3 102.1 246.4 0 8.1-0.3 16.2-0.9 24.3l-33.6-46.6c-9.5-13.2-28-16.2-41.2-6.6-13.2 9.5-16.2 28-6.7 41.2l76 104.8c5.8 8 14.8 12.2 23.9 12.2 6 0 12-1.8 17.2-5.6 8.2-6 12.5-15.4 12.2-24.8 8.1-32.2 12.2-65.5 12.2-99z m-524.3-24.4c0-66.4 54.1-120.5 120.5-120.5s120.5 54.1 120.5 120.5-54.1 120.5-120.5 120.5-120.5-54-120.5-120.5zM379.8 703c41.2-23.4 88.2-35.8 135.8-35.8 87.8 0 169.2 41.2 221 111.2-61.8 52.2-139.4 81.2-220.9 82.1H512c-83.2 0-159.9-29.4-220-78.5 23.2-32.2 53.3-59.3 87.8-79z" /></svg>