<?xml version="1.0" standalone="no"?><!DOCTYPE svg PUBLIC "-//W3C//DTD SVG 1.1//EN" "http://www.w3.org/Graphics/SVG/1.1/DTD/svg11.dtd"><svg class="icon" width="200px" height="200.00px" viewBox="0 0 1024 1024" version="1.1" xmlns="http://www.w3.org/2000/svg"><path fill="#333333" d="M507.7 89.8L153.5 260.6v311.8l0.1 1.2c0.2 2.8 6 70.5 52.7 148.5 27.2 45.5 62.8 85.5 105.9 118.7 53.3 41.1 118 71.9 192.3 91.5l7.5 2 7.5-2c74.3-19.6 139.1-50.4 192.3-91.5 43-33.2 78.7-73.2 105.9-118.7 46.6-78 52.4-145.7 52.7-148.5l0.1-1.2v-312L507.7 89.8z m303.8 479.9c-0.9 7.8-8.2 62.6-45.9 124.5-23.5 38.7-54.3 72.7-91.4 101-44.9 34.3-99.5 60.5-162.3 77.9-62.8-17.4-117.3-43.6-162.3-77.9-37.1-28.3-67.8-62.3-91.4-101-37.6-61.8-45-116.6-45.9-124.5v-272L508 155.1l303.5 142.7v271.9zM482.5 364v118.5H364c-16.3 0-29.5 13.2-29.5 29.5s13.2 29.5 29.5 29.5h118.5V660c0 16.3 13.2 29.5 29.5 29.5s29.5-13.2 29.5-29.5V541.5H660c16.3 0 29.5-13.2 29.5-29.5s-13.2-29.5-29.5-29.5H541.5V364c0-16.3-13.2-29.5-29.5-29.5s-29.5 13.2-29.5 29.5z" /></svg>