<?xml version="1.0" standalone="no"?><!DOCTYPE svg PUBLIC "-//W3C//DTD SVG 1.1//EN" "http://www.w3.org/Graphics/SVG/1.1/DTD/svg11.dtd"><svg class="icon" width="200px" height="193.57px" viewBox="0 0 1058 1024" version="1.1" xmlns="http://www.w3.org/2000/svg"><path d="M775.168 89.6H248.832c-56.832 0-102.912 46.08-102.912 102.912v638.464c0 56.832 46.08 102.912 102.912 102.912h526.336c56.832 0 102.912-46.08 102.912-102.912V192.512c0-56.832-46.08-102.912-102.912-102.912zM248.832 148.48h526.336c24.576 0 44.032 19.968 44.032 44.032v127.488H204.8V192.512c0-24.064 19.456-44.032 44.032-44.032zM430.08 379.392h164.864v197.12l-65.024-45.568c-10.24-7.168-23.552-7.168-33.792 0l-66.56 46.08 0.512-197.632z m345.088 496.128H248.832c-24.576 0-44.032-19.968-44.032-44.032V379.392h166.4l-1.024 253.44c0 10.752 6.144 20.992 15.872 26.112 9.728 5.12 21.504 4.608 30.208-1.536l96.256-66.048 94.72 66.048c5.12 3.584 10.752 5.12 16.896 5.12 4.608 0 9.216-1.024 13.824-3.584 9.728-5.12 15.872-15.36 15.872-26.112V379.392H819.2v452.096c0 24.064-19.456 44.032-44.032 44.032z"  /><path d="M623.616 263.68h113.152c16.384 0 29.696-13.312 29.696-29.696 0-16.384-13.312-29.696-29.696-29.696h-113.152c-16.384 0-29.696 13.312-29.696 29.696 0 16.896 13.312 29.696 29.696 29.696z"  /></svg>
