<?xml version="1.0" standalone="no"?><!DOCTYPE svg PUBLIC "-//W3C//DTD SVG 1.1//EN" "http://www.w3.org/Graphics/SVG/1.1/DTD/svg11.dtd"><svg t="1569224331460" class="icon" viewBox="0 0 1024 1024" version="1.1" xmlns="http://www.w3.org/2000/svg" p-id="7917" xmlns:xlink="http://www.w3.org/1999/xlink" width="200" height="200"><defs><style type="text/css"></style></defs><path d="M831.47039487 880.67434189V185.86842136L717.91940811 90.125 340.14144702 226.76809189v34.19407947l343.13980298-111.95230298V930.76644703H911.67105297v-50.13651243h-80.2006581zM217.13157864 666.62828973l179.94078974-34.81578973v-88.37171026L217.13157864 589.26973676v77.35855297z m0 265.38157865h179.94078974V839.2861846l-179.94078974 12.61184189v80.06743377z m0-133.09046027l179.94078974-16.83059271v-88.19407864l-179.94078974 29.30921026v75.71546109z m0-267.06907947l179.94078974-47.91611837V392.14309189L217.13157864 451.07236838v80.77796026z m379.50986839-228.16776324L495.0361846 243.95394702 112.50657864 377.39967136 112.32894703 933.875h50.40296108V404.31085513l286.16447351-91.21381539v617.98026323h147.74506541V303.6825654z" p-id="7918"></path></svg>