<?xml version="1.0" standalone="no"?><!DOCTYPE svg PUBLIC "-//W3C//DTD SVG 1.1//EN" "http://www.w3.org/Graphics/SVG/1.1/DTD/svg11.dtd"><svg class="icon" width="200px" height="200.00px" viewBox="0 0 1024 1024" version="1.1" xmlns="http://www.w3.org/2000/svg"><path fill="#333333" d="M803 136.8H221c-49.4 0-89.5 40.1-89.5 89.5v571.5c0 49.4 40.1 89.5 89.5 89.5h582c49.4 0 89.5-40.1 89.5-89.5V226.3c0-49.4-40.1-89.5-89.5-89.5z m30.5 660.9c0 16.8-13.7 30.5-30.5 30.5H221c-16.8 0-30.5-13.7-30.5-30.5V226.3c0-16.8 13.7-30.5 30.5-30.5h582c16.8 0 30.5 13.7 30.5 30.5v571.4zM337.4 477h126.3c12.7 0 23.1-10.3 23.1-23.1s-10.3-23.1-23.1-23.1H361.8V274.4c0-14.1-11.5-25.6-25.6-25.6s-25.6 11.5-25.6 25.6v175.8c0.1 14.8 12 26.8 26.8 26.8z m354.2-206.7c-8.9-9.1-19.9-15.6-32.7-19.2-12.4-3.6-26.9-5.4-43-5.4s-30.6 1.8-43.2 5.4c-13 3.7-24 10.2-32.7 19.3-8.7 9-15.4 21.3-19.9 36.5-4.4 14.8-6.7 33.7-6.7 56.1 0 22.6 2.2 41.6 6.7 56.4 4.5 15.2 11.2 27.4 19.9 36.5 8.8 9.1 19.8 15.5 32.8 19.1 12.5 3.5 27.1 5.2 43.1 5.2 16.1 0 30.5-1.8 43-5.2 12.8-3.6 23.9-10 32.7-19.1 8.8-9 15.5-21.3 19.9-36.5 4.3-14.9 6.5-33.8 6.5-56.4 0-22.4-2.2-41.2-6.5-56.1-4.4-15.3-11.1-27.5-19.9-36.6z m-28.8 128c-1.4 9.1-3.9 16.4-7.4 21.9-3.4 5.2-8.1 9-14.2 11.5-6.4 2.6-14.9 3.9-25.3 3.9s-19-1.3-25.5-3.9c-6.2-2.5-10.9-6.2-14.3-11.4-3.6-5.4-6.1-12.8-7.4-21.9-1.4-9.5-2.1-21.5-2.1-35.4 0-13.5 0.7-25.3 2.1-34.9 1.4-9.2 3.9-16.8 7.5-22.4 3.4-5.4 8.1-9.3 14.3-11.9 6.5-2.7 15.1-4 25.5-4s18.9 1.4 25.3 4c6.1 2.6 10.8 6.4 14.2 11.9 3.6 5.7 6.1 13.2 7.5 22.4 1.4 9.7 2.1 21.4 2.1 34.9-0.1 13.8-0.9 25.8-2.3 35.3zM476 524.9s-19.2-4.6-24.5-5.2c-5.2-0.6-10.7-1.2-16.2-1.6-5.6-0.4-11-0.6-16.1-0.6-17.1 0-32.8 2-46.5 5.8-14 4-26.1 10.7-36 20-9.9 9.3-17.5 21.7-22.7 36.8-5.1 14.8-7.7 33.2-7.7 54.6 0 23.3 2.5 42.7 7.5 57.7 5.1 15.3 12.6 27.6 22.3 36.4 9.7 8.8 21.6 15 35.4 18.3 13.3 3.2 28.6 4.9 45.5 4.9 13.8 0 27.1-1 39.4-2.9 4.3-0.7 9.9-2.3 15.3-4.1 11.6-3.9 19.4-14.8 19.4-27v-90.4c0-6.4-5.2-11.6-11.6-11.6h-54.1c-6.1 0-11.7 2.5-15.8 6.5-4 4-6.5 9.6-6.5 15.8 0 12.3 10 22.3 22.3 22.3h17v45.1c-2.6 0.5-5.4 0.9-8.4 1.1-4.6 0.3-9.3 0.5-14 0.5-10.8 0-20.2-1-27.8-3-7.1-1.8-13-5.3-17.6-10.2-4.6-5-8.1-12.2-10.4-21.4-2.4-9.6-3.6-22.3-3.6-37.8 0-14.6 1.3-26.7 3.9-36.1 2.5-9 6.3-16.2 11.2-21.5 4.9-5.2 11.1-8.8 18.4-10.9 7.8-2.2 17.1-3.3 27.7-3.3 9.7 0 19.3 0.7 28.3 2.1 9 1.4 25.7 6.8 25.7 6.8s16 3.1 20-17.9c4-19.9-19.1-28.9-19.8-29.2z m215.6 17.2c-8.9-9.1-19.9-15.6-32.7-19.2-12.4-3.6-26.9-5.4-43-5.4s-30.6 1.8-43.2 5.4c-13 3.7-24 10.2-32.7 19.3-8.7 9-15.4 21.3-19.9 36.5-4.4 14.8-6.7 33.7-6.7 56.1 0 22.6 2.2 41.6 6.7 56.4 4.5 15.2 11.2 27.4 19.9 36.5 8.8 9.1 19.8 15.5 32.8 19.1 12.5 3.5 27.1 5.2 43.1 5.2 16.1 0 30.5-1.8 43-5.2 12.8-3.6 23.9-10 32.7-19.1 8.8-9 15.5-21.3 19.9-36.5 4.3-14.9 6.5-33.8 6.5-56.4 0-22.4-2.2-41.2-6.5-56.1-4.4-15.3-11.1-27.6-19.9-36.6z m-28.8 128c-1.4 9.1-3.9 16.4-7.4 21.9-3.4 5.2-8.1 9-14.2 11.5-6.4 2.6-14.9 3.9-25.3 3.9s-19-1.3-25.5-3.9c-6.2-2.5-10.9-6.2-14.3-11.4-3.6-5.4-6.1-12.8-7.4-21.9-1.4-9.6-2.1-21.5-2.1-35.4 0-13.5 0.7-25.3 2.1-34.9 1.4-9.2 3.9-16.8 7.5-22.4 3.4-5.4 8.1-9.3 14.3-11.9 6.5-2.7 15.1-4 25.5-4s18.9 1.4 25.3 4c6.1 2.6 10.8 6.4 14.2 11.9 3.6 5.7 6.1 13.2 7.5 22.4 1.4 9.7 2.1 21.4 2.1 34.9-0.1 13.8-0.9 25.7-2.3 35.3z" /></svg>