<?xml version="1.0" standalone="no"?><!DOCTYPE svg PUBLIC "-//W3C//DTD SVG 1.1//EN" "http://www.w3.org/Graphics/SVG/1.1/DTD/svg11.dtd"><svg class="icon" width="200px" height="200.00px" viewBox="0 0 1024 1024" version="1.1" xmlns="http://www.w3.org/2000/svg"><path d="M299.42784 393.86112c28.09344 0 50.85696 22.77888 50.85696 50.87232s-22.76352 50.86208-50.85696 50.86208c-28.10368 0-50.87232-22.76864-50.87232-50.86208s22.77376-50.87232 50.87232-50.87232zM468.95616 393.86112c28.09344 0 50.88256 22.77888 50.88256 50.87232s-22.78912 50.86208-50.88256 50.86208c-28.09856 0-50.86208-22.76864-50.86208-50.86208s22.76352-50.87232 50.86208-50.87232zM638.52032 393.86112c28.06784 0 50.8672 22.77888 50.8672 50.87232s-22.79424 50.86208-50.8672 50.86208c-28.08832 0-50.88256-22.76864-50.88256-50.86208s22.79424-50.87232 50.88256-50.87232zM886.03136 888.87296v66.95424c0 8.6272-5.97504 14.49984-13.36832 14.49984-2.8416 0-5.98528-1.40288-7.38816-1.40288l-69.79584-45.17888c-17.95584 2.80576-35.56864 4.46464-53.52448 4.46464-71.02976 0-135.29088-24.98048-181.56032-65.03936 22.89664-5.62176 43.74528-15.96928 61.89568-29.8752 32.256 21.71904 72.93952 35.29216 117.95456 35.29216 102.96832 0 186.51136-68.3008 186.51136-152.59648 0-31.39072-11.66848-60.52352-31.49824-84.77184 16.11776-19.72224 25.9584-42.90048 29.35808-67.69152 43.04384 38.5792 69.93408 90.27584 69.93408 147.69152-0.00512 72.79104-42.97216 138.28608-108.5184 177.65376z"  /><path d="M466.11968 799.38048c-29.9008 0-59.3408-2.72384-89.2416-7.30624l-116.28032 74.2144c-2.37568 0-7.59808 2.29376-12.33408 2.29376-12.34432 0-22.3232-9.61024-22.3232-23.81824v-109.9776c-109.1584-64.62464-180.83328-172.288-180.83328-291.8912 0-196.11136 190.81216-354.20672 423.85408-354.20672 233.07264 0 423.87456 158.09536 421.03808 356.48512-0.00512 196.13184-190.81728 354.20672-423.87968 354.20672z m2.83648-642.88256c-196.62848 0-356.03968 129.05472-356.03968 288.23552 0 159.17568 159.4112 288.2304 356.03968 288.2304 196.64896 0 356.05504-129.05472 356.05504-288.2304 0-159.1808-159.40608-288.23552-356.05504-288.23552z"  /></svg>
