<?xml version="1.0" standalone="no"?><!DOCTYPE svg PUBLIC "-//W3C//DTD SVG 1.1//EN" "http://www.w3.org/Graphics/SVG/1.1/DTD/svg11.dtd"><svg class="icon" width="200px" height="193.57px" viewBox="0 0 1058 1024" version="1.1" xmlns="http://www.w3.org/2000/svg"><path d="M914.432 251.392c-6.144-7.168-14.848-11.264-24.064-11.264H395.264c-17.408 0-31.232 13.824-31.232 31.232 0 17.408 13.824 31.232 31.232 31.232h457.216L783.36 678.4H341.504L289.28 193.024c-1.536-15.872-15.36-28.16-31.232-28.16H116.736c-17.408 0-31.232 13.824-31.232 31.232 0 17.408 13.824 31.232 31.232 31.232h113.152l52.736 485.376c1.536 15.872 15.36 28.16 31.232 28.16h496.128c15.36 0 28.16-10.752 30.72-25.6l80.384-438.272c1.536-9.216-1.024-18.432-6.656-25.6z"  /><path d="M421.888 832m-41.984 0a41.984 41.984 0 1 0 83.968 0 41.984 41.984 0 1 0-83.968 0Z"  /><path d="M695.808 832m-41.984 0a41.984 41.984 0 1 0 83.968 0 41.984 41.984 0 1 0-83.968 0Z"  /></svg>
