<?xml version="1.0" standalone="no"?><!DOCTYPE svg PUBLIC "-//W3C//DTD SVG 1.1//EN" "http://www.w3.org/Graphics/SVG/1.1/DTD/svg11.dtd"><svg class="icon" width="200px" height="193.57px" viewBox="0 0 1058 1024" version="1.1" xmlns="http://www.w3.org/2000/svg"><path d="M870.4 334.848c0-1.024 0-1.536-0.512-2.56v-0.512c0-1.024-0.512-2.048-0.512-2.56-0.512-1.024-0.512-1.536-1.024-2.56s-0.512-1.536-1.024-2.56v-0.512c-0.512-0.512-1.024-1.536-1.024-2.048 0 0 0-0.512-0.512-0.512-0.512-0.512-1.024-1.536-1.536-2.048 0 0 0-0.512-0.512-0.512-0.512-1.024-1.536-1.536-2.048-2.048l-204.8-204.8-2.048-2.048-0.512-0.512-1.536-1.536-0.512-0.512c-0.512-0.512-1.024-1.024-2.048-1.024h-0.512c-0.512-0.512-1.536-0.512-2.048-1.024h-0.512c-1.024-0.512-1.536-0.512-2.56-1.024h-0.512c-1.024 0-1.536-0.512-2.56-0.512h-1.024c-0.512 0-1.536 0-2.048-0.512H261.12c-59.392 0-107.52 48.128-107.52 107.52v604.16c0 59.392 48.128 107.52 107.52 107.52h501.76c59.392 0 107.52-48.128 107.52-107.52V337.92v-3.072z m-204.8-127.488L765.44 307.2H665.6V207.36zM808.96 814.08c0 25.6-20.48 46.08-46.08 46.08H261.12c-25.6 0-46.08-20.48-46.08-46.08V209.92c0-25.6 20.48-46.08 46.08-46.08h343.04v174.08c0 16.896 13.824 30.72 30.72 30.72h174.08v445.44z"  /><path d="M300.032 558.08c0 16.896 13.824 30.72 30.72 30.72h361.984c16.896 0 30.72-13.824 30.72-30.72s-13.824-30.72-30.72-30.72H330.752c-16.896 0-30.72 13.824-30.72 30.72zM693.248 678.4H330.752c-16.896 0-30.72 13.824-30.72 30.72s13.824 30.72 30.72 30.72h361.984c16.896 0 30.72-13.824 30.72-30.72s-13.312-30.72-30.208-30.72z"  /></svg>
