<?xml version="1.0" standalone="no"?><!DOCTYPE svg PUBLIC "-//W3C//DTD SVG 1.1//EN" "http://www.w3.org/Graphics/SVG/1.1/DTD/svg11.dtd"><svg class="icon" width="200px" height="200.00px" viewBox="0 0 1024 1024" version="1.1" xmlns="http://www.w3.org/2000/svg"><path fill="#333333" d="M516.1 442.2c-40.1 0-77.9-19.6-101-52.5-7.6-10.8-5-25.8 5.8-33.4 10.8-7.6 25.8-5 33.4 5.8 14.1 20.1 37.2 32.1 61.8 32.1 22.4 0 43.5-9.9 57.9-27.1 2.1-2.5 4-5.1 5.7-7.8 7.1-11.2 22-14.4 33.1-7.3 11.2 7.1 14.4 22 7.3 33.1-2.8 4.4-6 8.7-9.3 12.7-23.5 28.3-58 44.4-94.7 44.4zM871.1 712.1L716.6 892.7c-5.2 6.1-12.8 9.8-20.8 10.3-8.1 0.4-15.9-2.4-21.8-7.9L554 782.6 436.5 894.9c-5.7 5.4-13.1 8.2-20.4 8.2-7.8 0-15.5-3.1-21.3-9.1-11.2-11.8-10.8-30.4 0.9-41.7l137.7-131.5c11.3-10.8 29.1-10.9 40.6-0.2L691.8 831l99.4-116.2-71.6-0.3c-14.6-0.1-26.5-12-26.4-26.6 0.1-14.6 11.9-26.4 26.5-26.4h0.1l129.4 0.5c9.4 0 17.6 4.9 22.2 12.3 9 10.7 9.1 26.8-0.3 37.8zM744.1 585.7c-32-27.5-67.7-48.8-106.1-63.6-2.4-0.9-4.9-1.8-7.3-2.7 15.1-9.2 29.2-20.3 42-33.1 42.4-42.4 65.7-98.7 65.7-158.7 0-59.9-23.3-116.3-65.7-158.7-42.4-42.4-98.7-65.7-158.7-65.7-59.9 0-116.3 23.3-158.7 65.7-42.4 42.4-65.7 98.7-65.7 158.7 0 59.9 23.3 116.3 65.7 158.7 12.7 12.7 26.6 23.7 41.5 32.8-9.2 3.3-18.4 7-27.4 11.1-43.9 19.9-83.2 48.3-117 84.5-33.6 36-60 78-78.4 124.6-19 48.2-28.7 99.3-28.7 152 0 16.3 13.2 29.5 29.5 29.5s29.5-13.2 29.5-29.5c0-89.4 32.4-173.3 91.2-236.4 58.3-62.5 135.6-96.9 217.8-96.9 35.5 0 70.3 6.4 103.5 19.1 32.1 12.3 62 30.2 88.8 53.2 12.4 10.6 31 9.2 41.6-3.2 10.7-12.2 9.3-30.8-3.1-41.4zM348.7 327.6c0-91.2 74.2-165.4 165.4-165.4s165.4 74.2 165.4 165.4S605.3 493 514.1 493s-165.4-74.2-165.4-165.4z" /></svg>