<?xml version="1.0" standalone="no"?><!DOCTYPE svg PUBLIC "-//W3C//DTD SVG 1.1//EN" "http://www.w3.org/Graphics/SVG/1.1/DTD/svg11.dtd"><svg class="icon" width="200px" height="200.00px" viewBox="0 0 1024 1024" version="1.1" xmlns="http://www.w3.org/2000/svg"><path fill="#333333" d="M683.5 588.2c14.8 6.8 32.3 0.4 39.1-14.4 6.8-14.8 0.4-32.3-14.4-39.1-13.1-6-26.4-11.4-40-15.9 12.2-8.1 23.7-17.6 34.3-28.2 42.4-42.4 65.7-98.7 65.7-158.7 0-59.9-23.3-116.3-65.7-158.7s-98.7-65.7-158.7-65.7c-59.9 0-116.3 23.3-158.7 65.7s-65.7 98.7-65.7 158.7c0 59.9 23.3 116.3 65.7 158.7 9.4 9.4 19.6 17.9 30.3 25.4a398.7 398.7 0 0 0-33.2 12c-47.6 19.6-90.3 47.6-127 83.3-36.8 35.8-65.6 77.4-85.8 123.9-20.9 48.1-31.5 99.2-31.5 151.9 0 16.3 13.2 29.5 29.5 29.5s29.5-13.2 29.5-29.5c0-88.2 35.3-171.1 99.5-233.5 64.4-62.6 150-97.1 241.2-97.1 51-0.1 100.2 10.6 145.9 31.7z m-305-256.4c0-91.2 74.2-165.4 165.4-165.4s165.4 74.2 165.4 165.4-74.2 165.4-165.4 165.4S378.5 423 378.5 331.8z m262.2 70.4c3.4-4 6.5-8.3 9.3-12.7 7.1-11.2 3.9-26-7.3-33.1-11.2-7.1-26-3.9-33.1 7.3-1.7 2.7-3.7 5.3-5.7 7.8-14.4 17.2-35.5 27.1-57.9 27.1-24.5 0-47.6-12-61.8-32.1-7.6-10.8-22.6-13.4-33.4-5.8-10.8 7.6-13.4 22.6-5.8 33.4 23.1 32.9 60.9 52.5 101 52.5 36.6-0.1 71.1-16.3 94.7-44.4zM747 627.5c-12.2 10.8-13.3 29.5-2.4 41.7l43 48.3H498.4c-16.3 0-29.5 13.2-29.5 29.5s13.2 29.5 29.5 29.5h348.2c1.7 0 3.4-0.2 5-0.4h1.3c7 0 14-2.5 19.6-7.5 12.2-10.8 13.3-29.5 2.4-41.6l-86.3-97c-10.8-12.2-29.4-13.3-41.6-2.5z m99.6 206.6H498.4c-16.3 0-29.5 13.2-29.5 29.5s13.2 29.5 29.5 29.5h348.2c16.3 0 29.5-13.2 29.5-29.5s-13.2-29.5-29.5-29.5z" /></svg>