<?xml version="1.0" standalone="no"?><!DOCTYPE svg PUBLIC "-//W3C//DTD SVG 1.1//EN" "http://www.w3.org/Graphics/SVG/1.1/DTD/svg11.dtd"><svg t="1613995452445" class="icon" viewBox="0 0 1024 1024" version="1.1" xmlns="http://www.w3.org/2000/svg" p-id="40823" xmlns:xlink="http://www.w3.org/1999/xlink" width="200" height="200"><defs><style type="text/css"></style></defs><path d="M543.2 507.4c-110.2 0-199.9-89.7-199.9-199.9S433 107.6 543.2 107.6s199.9 89.7 199.9 199.9-89.7 199.9-199.9 199.9z m0-340.8c-77.7 0-140.9 63.2-140.9 140.9s63.2 140.9 140.9 140.9 140.9-63.2 140.9-140.9-63.2-140.9-140.9-140.9z" p-id="40824"></path><path d="M153.9 915.3c-16.3 0-29.5-13.2-29.5-29.5 0-107.7 42.8-216.9 117.4-299.7 37.4-41.5 80.5-74.2 128.2-97.4 50.7-24.6 104.1-37.1 158.8-37.1 71.7 0 142.2 19 203.8 55 14.1 8.2 18.8 26.3 10.6 40.4-8.2 14.1-26.3 18.8-40.4 10.6-52.6-30.7-112.7-47-174-47-45.7 0-90.4 10.5-133.1 31.1-40.8 19.8-77.9 48-110.1 83.8-65 72.1-102.2 166.9-102.2 260.2 0 16.4-13.2 29.6-29.5 29.6z" p-id="40825"></path><path d="M780.9 911.1H653.7c-17.5 0-33.8-9.4-42.6-24.6l-63.6-110.1c-8.8-15.2-8.8-34 0-49.2l63.6-110.1c8.8-15.2 25.1-24.6 42.6-24.6h127.1c17.5 0 33.8 9.4 42.6 24.6L887 727.2c8.8 15.2 8.8 34 0 49.2l-63.6 110.1c-8.7 15.1-25 24.6-42.5 24.6zM653.7 640.5c-0.4 0-0.8 0.2-1 0.6l-63.6 110.1c-0.2 0.4-0.2 0.8 0 1.2l63.6 110.1c0.2 0.4 0.6 0.6 1 0.6h127.1c0.4 0 0.8-0.2 1-0.6l63.6-110.1c0.2-0.4 0.2-0.8 0-1.2l-63.6-110.1c-0.2-0.4-0.6-0.6-1-0.6H653.7z" p-id="40826"></path></svg>