<?xml version="1.0" standalone="no"?><!DOCTYPE svg PUBLIC "-//W3C//DTD SVG 1.1//EN" "http://www.w3.org/Graphics/SVG/1.1/DTD/svg11.dtd"><svg class="icon" width="200px" height="200.00px" viewBox="0 0 1024 1024" version="1.1" xmlns="http://www.w3.org/2000/svg"><path d="M512 512m-510.272 0a510.272 510.272 0 1 0 1020.544 0 510.272 510.272 0 1 0-1020.544 0Z" fill="#C3E9FF" /><path d="M718.912 283.84l-1.792-6.4c-1.28-3.264-2.88-6.4-4.608-9.344l-200.64 118.4v-0.768L315.84 261.824a59.328 59.328 0 0 0-13.056 37.44v425.472c0 31.552 23.872 57.216 53.312 57.216h311.872c29.376 0 53.248-25.6 53.248-57.216V299.264a57.984 57.984 0 0 0-2.304-15.424z" fill="#006FD3" /><path d="M508.608 357.504l0.448 0.192v-0.512l181.504-105.792a48.832 48.832 0 0 0-28.672-9.28H353.28a49.28 49.28 0 0 0-19.84 4.224l175.168 110.976v0.192z" fill="#59A3E9" /><path d="M425.408 588.608v35.84h71.68v53.696h29.888v-53.696h71.616v-35.84h-71.68v-23.936h71.616v-35.84h-53.632l53.696-53.76-23.936-29.824-65.664 65.664-59.648-65.664-23.936 29.888 53.76 53.76h-53.76v35.84h71.68v23.936h-71.68z" fill="#ffffff" /></svg>