<?xml version="1.0" standalone="no"?><!DOCTYPE svg PUBLIC "-//W3C//DTD SVG 1.1//EN" "http://www.w3.org/Graphics/SVG/1.1/DTD/svg11.dtd"><svg class="icon" width="200px" height="200.00px" viewBox="0 0 1024 1024" version="1.1" xmlns="http://www.w3.org/2000/svg"><path fill="#333333" d="M845.3 130.5H178.7c-54.7 0-99.2 44.5-99.2 99.2v441.4c0 54.7 44.5 99.2 99.2 99.2h40.4l0.7 82.5c0.1 14.7 8.1 28.3 20.9 35.5 6.2 3.5 13.2 5.3 20.2 5.3 7.3 0 14.6-1.9 21-5.8l197.4-117.4h365.8c54.7 0 99.2-44.5 99.2-99.2V229.7c0.1-54.7-44.4-99.2-99-99.2z m40.1 540.6c0 22.1-18 40.2-40.2 40.2h-382L278.6 821.1l-1-109.8h-98.9c-22.1 0-40.2-18-40.2-40.2V229.7c0-22.1 18-40.2 40.2-40.2h666.5c22.1 0 40.2 18 40.2 40.2v441.4zM682 407.8c16.3-0.1 29.4-13.3 29.4-29.6-0.1-16.2-13.3-29.4-29.5-29.4h-0.1l-32.2 0.1 8.5-25.9c5-15.5-3.4-32.1-18.9-37.2-15.5-5-32.1 3.4-37.2 18.9l-14.5 44.5-96.3 0.4 24-74.7c5-15.5-3.5-32.1-19-37.1s-32.1 3.5-37.1 19l-30 93-86.9 0.4c-16.3 0.1-29.4 13.3-29.4 29.6 0.1 16.2 13.3 29.4 29.5 29.4h0.1l67.6-0.2-29.3 91-38.6 0.2c-16.3 0.1-29.4 13.3-29.4 29.6 0.1 16.2 13.3 29.4 29.5 29.4h0.1l19.3-0.1-6.6 20.5c-5 15.5 3.5 32.1 19 37.1 3 1 6.1 1.4 9 1.4 12.5 0 24-8 28.1-20.5l12.5-38.8 95.4-0.4-22.2 68c-5 15.5 3.4 32.1 18.9 37.2 3 1 6.1 1.5 9.1 1.5 12.4 0 24-7.9 28-20.4l28.2-86.6 100.7-0.4c16.3-0.1 29.4-13.3 29.4-29.6-0.1-16.2-13.3-29.4-29.5-29.4h-0.1l-81.2 0.4 29.7-91 52-0.3z m-143.6 91.4l-95.6 0.4 29.3-91 96-0.4-29.7 91z" /></svg>