<?xml version="1.0" standalone="no"?><!DOCTYPE svg PUBLIC "-//W3C//DTD SVG 1.1//EN" "http://www.w3.org/Graphics/SVG/1.1/DTD/svg11.dtd"><svg t="1623237259256" class="icon" viewBox="0 0 1024 1024" version="1.1" xmlns="http://www.w3.org/2000/svg" p-id="17355" xmlns:xlink="http://www.w3.org/1999/xlink" width="32" height="32"><defs><style type="text/css"></style></defs><path d="M320 448.2H159c-17.7 0-32 14.3-32 32v384c0 17.7 14.3 32 32 32h161c17.7 0 32-14.3 32-32v-384c0-17.6-14.3-32-32-32z m-24 392H183v-336h113v336z m569-712.4H704c-17.7 0-32 14.3-32 32v704c0 17.7 14.3 32 32 32h161c17.7 0 32-14.3 32-32v-704c0-17.7-14.3-32-32-32z m-24 712H728v-656h113v656zM592.5 288.2h-161c-17.7 0-32 14.3-32 32v544c0 17.7 14.3 32 32 32h161c17.7 0 32-14.3 32-32v-544c0-17.6-14.3-32-32-32z m-24 552h-113v-496h113v496z" p-id="17356"></path></svg>