<?xml version="1.0" standalone="no"?><!DOCTYPE svg PUBLIC "-//W3C//DTD SVG 1.1//EN" "http://www.w3.org/Graphics/SVG/1.1/DTD/svg11.dtd"><svg class="icon" width="200px" height="200.00px" viewBox="0 0 1024 1024" version="1.1" xmlns="http://www.w3.org/2000/svg"><path fill="#333333" d="M231.2 412.1h242.5c19.6 0 35.4-15.8 35.4-35.4V375c0-19.6-15.8-35.4-35.4-35.4H231.2c-19.6 0-35.4 15.8-35.4 35.4v1.7c0 19.5 15.9 35.4 35.4 35.4z m353.2 89.3H231.2c-19.6 0-35.4 15.8-35.4 35.4v1.7c0 19.6 15.8 35.4 35.4 35.4h353.1c19.6 0 35.4-15.8 35.4-35.4v-1.7c0.1-19.6-15.8-35.4-35.3-35.4z m261 149.9V242.7c0-50.1-40.8-90.9-90.9-90.9H167.7c-50.1 0-90.9 40.8-90.9 90.9v518.1c0 15 7.3 29.1 19.5 37.7 7.9 5.6 17.2 8.5 26.7 8.5 5.2 0 10.4-0.9 15.4-2.6l97.5-34.5h491c65.3-0.1 118.5-53.2 118.5-118.6z m-619.7 59.5l-89.9 31.8v-500c0-17.6 14.3-31.9 31.9-31.9h586.7c17.6 0 31.9 14.3 31.9 31.9v408.6c0 32.8-26.7 59.5-59.5 59.5H225.7z m692.1-381.9c-16.3 0-29.5 13.2-29.5 29.5V682c0 72.3-58.9 131.2-131.2 131.2H317.7c-16.3 0-29.5 13.2-29.5 29.5s13.2 29.5 29.5 29.5H757c104.9 0 190.2-85.3 190.2-190.2V358.4c0-16.3-13.2-29.5-29.4-29.5z" /></svg>