<?xml version="1.0" standalone="no"?><!DOCTYPE svg PUBLIC "-//W3C//DTD SVG 1.1//EN" "http://www.w3.org/Graphics/SVG/1.1/DTD/svg11.dtd"><svg t="1651116914612" class="icon" viewBox="0 0 1024 1024" version="1.1" xmlns="http://www.w3.org/2000/svg" p-id="21940" xmlns:xlink="http://www.w3.org/1999/xlink" width="200" height="200"><defs><style type="text/css"></style></defs><path d="M835.89 150.52H190.66a97.06 97.06 0 0 0-96.95 96.94v449.82a97.06 97.06 0 0 0 97 97h38.2l0.7 78.89a40.77 40.77 0 0 0 61.56 34.66L482 794.23h353.89a97.06 97.06 0 0 0 96.94-97V247.46a97.05 97.05 0 0 0-96.94-96.94z m37.94 546.76a38 38 0 0 1-37.94 38H465.82L288.27 840.82l-0.93-105.59h-96.68a38 38 0 0 1-37.95-38V247.46a38 38 0 0 1 37.95-37.94h645.23a38 38 0 0 1 37.94 37.94z" p-id="21941"></path><path d="M684.94 382.83l-107 109-106-102a29.88 29.88 0 0 0-42 0.5l-129 129c-11.5 11.5-11.5 30.5 0 42.5a29.62 29.62 0 0 0 21 9 28.78 28.78 0 0 0 21-9l108-108 106 102a29.88 29.88 0 0 0 42-0.5l128-130c11.5-12 11.5-31-0.5-42.5-11-12-30-11.5-41.5 0z" p-id="21942"></path></svg>