<?xml version="1.0" standalone="no"?><!DOCTYPE svg PUBLIC "-//W3C//DTD SVG 1.1//EN" "http://www.w3.org/Graphics/SVG/1.1/DTD/svg11.dtd"><svg class="icon" width="200px" height="200.00px" viewBox="0 0 1024 1024" version="1.1" xmlns="http://www.w3.org/2000/svg"><path fill="#333333" d="M804 135.8H220c-49.3 0-89.5 40.1-89.5 89.5v573.4c0 49.4 40.2 89.5 89.5 89.5h584c49.3 0 89.5-40.1 89.5-89.5V225.3c0-49.4-40.2-89.5-89.5-89.5z m-71.5 59.3v154c0 16.8-13.7 30.5-30.5 30.5H336.2c-16.8 0-30.5-13.7-30.5-30.5v-154h426.8z m102 603.6c0 16.8-13.7 30.5-30.5 30.5H220c-16.8 0-30.5-13.7-30.5-30.5V225.3c0-16.8 13.7-30.5 30.5-30.5h26.7V349c0 49.4 40.1 89.5 89.5 89.5H702c49.4 0 89.5-40.1 89.5-89.5V194.8H804c16.8 0 30.5 13.7 30.5 30.5v573.4zM660.6 341.7c-16.3 0-29.5-13.2-29.5-29.5V260c0-16.3 13.2-29.5 29.5-29.5s29.5 13.2 29.5 29.5v52.2c0 16.3-13.2 29.5-29.5 29.5zM336.5 742.1c-16.2 0-29.4-13.1-29.5-29.3-0.1-16.3 13-29.6 29.3-29.7l204.9-1.5h0.2c16.2 0 29.4 13.1 29.5 29.3 0.1 16.3-13 29.6-29.3 29.7l-204.9 1.5h-0.2z" /></svg>