<?xml version="1.0" standalone="no"?><!DOCTYPE svg PUBLIC "-//W3C//DTD SVG 1.1//EN" "http://www.w3.org/Graphics/SVG/1.1/DTD/svg11.dtd"><svg t="1571795957841" class="icon" viewBox="0 0 1024 1024" version="1.1" xmlns="http://www.w3.org/2000/svg" p-id="8387" xmlns:xlink="http://www.w3.org/1999/xlink" width="20" height="20"><defs><style type="text/css"></style></defs><path d="M488.79151787 176.29663646c-73.33624035 0-132.78467413 59.16881351-132.78467414 132.2254336 0 73.05079467 59.44843378 132.26621155 132.78467414 132.26621155 73.32458951 0 132.77302329-59.21541689 132.77302328-132.26621155 0-73.05662009-59.44843378-132.2254336-132.77302328-132.2254336z m0-66.14184392c109.98397155 0 199.1770112 88.80856178 199.1770112 198.36727752 0 109.56454115-89.19886507 198.36145209-199.1770112 198.36145208-109.98979698 0-199.18866205-88.79691093-199.18866205-198.36145208-0.00582542-109.55871573 89.19886507-198.36727751 199.18866205-198.36727752z m0 0" p-id="8388"></path><path d="M189.99978667 837.52866205a32.94276267 32.94276267 0 0 1-16.5675008 28.63777565 33.26898631 33.26898631 0 0 1-33.17577956 0 32.98936605 32.98936605 0 0 1-16.61410418-28.63777565 362.99953493 362.99953493 0 0 1 106.93727574-257.16908942 365.89476978 365.89476978 0 0 1 258.20601458-106.54114702c18.32677831 0 33.17577955 14.81987413 33.17577955 33.05927111 0 18.30930205-14.84900125 33.07092195-33.17577955 33.07092195a299.38592427 299.38592427 0 0 0-211.27058774 87.17161814c-55.99978382 55.80754489-87.51531805 131.4914304-87.51531804 210.40842524z m671.08281458-275.76383715a33.25151005 33.25151005 0 0 1 28.1018368-18.53066809 33.32724053 33.32724053 0 0 1 29.90771768 15.48397226 32.80295253 32.80295253 0 0 1 0.89711502 33.53695574l-136.25080035 260.5478343a33.17577955 33.17577955 0 0 1-29.54654151 17.75006152 33.37966933 33.37966933 0 0 1-29.39508054-17.98307841l-132.78467413-259.10312959a32.90781013 32.90781013 0 0 1 1.06022685-33.61268623 33.20490667 33.20490667 0 0 1 30.05917866-15.29755875 33.14665245 33.14665245 0 0 1 27.97950294 18.84524089l103.54105458 202.00234097 106.430464-203.69171341v0.0524288z m0 0" p-id="8389"></path></svg>
