<?xml version="1.0" standalone="no"?><!DOCTYPE svg PUBLIC "-//W3C//DTD SVG 1.1//EN" "http://www.w3.org/Graphics/SVG/1.1/DTD/svg11.dtd"><svg t="1613995432998" class="icon" viewBox="0 0 1024 1024" version="1.1" xmlns="http://www.w3.org/2000/svg" p-id="40695" xmlns:xlink="http://www.w3.org/1999/xlink" width="200" height="200"><defs><style type="text/css"></style></defs><path d="M525.9 505.4c-110.2 0-199.9-89.7-199.9-199.9s89.7-199.9 199.9-199.9 199.9 89.7 199.9 199.9-89.6 199.9-199.9 199.9z m0-340.8c-77.7 0-140.9 63.2-140.9 140.9s63.2 140.9 140.9 140.9 140.9-63.2 140.9-140.9-63.2-140.9-140.9-140.9z" p-id="40696"></path><path d="M136.7 913.2c-16.3 0-29.5-13.2-29.5-29.5C107.2 776 150 666.8 224.6 584c37.4-41.5 80.5-74.2 128.2-97.4 50.7-24.6 104.1-37.1 158.8-37.1 71.7 0 142.2 19 203.8 55 14.1 8.2 18.8 26.3 10.6 40.4-8.2 14.1-26.3 18.8-40.4 10.6-52.6-30.7-112.7-47-174-47-45.7 0-90.4 10.5-133.1 31.1-40.8 19.8-77.9 48-110.1 83.8-65 72.1-102.2 166.9-102.2 260.2 0 16.4-13.3 29.6-29.5 29.6z" p-id="40697"></path><path d="M694.6 913c-14.5 0-28.5-6.1-38.4-16.8-4.2-4.6-6.9-10.5-7.6-16.7l-24.3-214.9h-17.5c-16.3 0-29.5-13.2-29.5-29.5s13.2-29.5 29.5-29.5h43.9c15 0 27.6 11.3 29.3 26.2L703.1 836 867 595.8c9.2-13.5 27.5-16.9 41-7.7s16.9 27.5 7.7 41l-180 263.8c-0.8 1.2-1.7 2.3-2.7 3.4-9.8 10.6-23.8 16.7-38.4 16.7z" p-id="40698"></path></svg>