<?xml version="1.0" standalone="no"?><!DOCTYPE svg PUBLIC "-//W3C//DTD SVG 1.1//EN" "http://www.w3.org/Graphics/SVG/1.1/DTD/svg11.dtd"><svg class="icon" width="200px" height="200.00px" viewBox="0 0 1024 1024" version="1.1" xmlns="http://www.w3.org/2000/svg"><path fill="#333333" d="M165 369c16.3 0 29.5-13.2 29.5-29.5V230.2c0-16.8 13.7-30.5 30.5-30.5h114.5c16.3 0 29.5-13.2 29.5-29.5s-13.2-29.5-29.5-29.5H225c-49.4 0-89.5 40.1-89.5 89.5v109.3c0 16.3 13.2 29.5 29.5 29.5z m174.5 455.3H225c-16.8 0-30.5-13.7-30.5-30.5V684.5c0-16.3-13.2-29.5-29.5-29.5s-29.5 13.2-29.5 29.5v109.3c0 49.4 40.1 89.5 89.5 89.5h114.5c16.3 0 29.5-13.2 29.5-29.5s-13.2-29.5-29.5-29.5zM859 655c-16.3 0-29.5 13.2-29.5 29.5v109.3c0 16.8-13.7 30.5-30.5 30.5H684.5c-16.3 0-29.5 13.2-29.5 29.5s13.2 29.5 29.5 29.5H799c49.4 0 89.5-40.1 89.5-89.5V684.5c0-16.3-13.2-29.5-29.5-29.5z m-60-514.3H684.5c-16.3 0-29.5 13.2-29.5 29.5s13.2 29.5 29.5 29.5H799c16.8 0 30.5 13.7 30.5 30.5v109.3c0 16.3 13.2 29.5 29.5 29.5s29.5-13.2 29.5-29.5V230.2c0-49.4-40.1-89.5-89.5-89.5zM720.3 746c15.2 0 27.5-12.3 27.5-27.5 0-63-24.5-122.2-69-166.7-22.1-22.1-47.8-39.3-75.8-50.9 24-23.7 39-56.6 39-92.9 0-71.7-58.3-130-130-130s-130 58.3-130 130c0 36.3 15 69.2 39.1 92.8-28 11.7-53.7 28.9-75.8 50.9-44.5 44.5-69.1 103.7-69.1 166.7 0 15.2 12.3 27.5 27.5 27.5s27.5-12.3 27.5-27.5c0-97.5 77.6-177.2 174.2-180.6 2.2 0.1 4.3 0.2 6.5 0.2s4.4 0 6.5-0.2c96.7 3.4 174.2 83.2 174.2 180.6 0.2 15.3 12.5 27.6 27.7 27.6zM517.7 482.8c-1.9 0-3.8-0.1-5.7-0.1s-3.8 0-5.7 0.1c-38.7-2.9-69.3-35.3-69.3-74.8 0-41.4 33.6-75 75-75s75 33.6 75 75c0 39.5-30.6 71.9-69.3 74.8z" /></svg>