<?xml version="1.0" standalone="no"?><!DOCTYPE svg PUBLIC "-//W3C//DTD SVG 1.1//EN" "http://www.w3.org/Graphics/SVG/1.1/DTD/svg11.dtd"><svg class="icon" width="200px" height="200.00px" viewBox="0 0 1024 1024" version="1.1" xmlns="http://www.w3.org/2000/svg"><path d="M392.192 988.891429c-20.48 23.405714-32.182857 35.108571-64.365714 35.108571h-166.765715c-52.662857 0-96.548571-43.885714-96.548571-96.548571V96.548571C64.512 43.885714 108.397714 0 161.060571 0h166.765715c14.628571 0 46.811429 2.925714 67.291428 35.108571v2.925715c11.702857 35.108571 32.182857 73.142857 96.548572 73.142857 58.514286 0 87.771429-52.662857 99.474285-76.068572 17.554286-32.182857 40.96-35.108571 67.291429-35.108571h166.765714c52.662857 0 96.548571 43.885714 96.548572 96.548571v830.902858c0 52.662857-43.885714 96.548571-96.548572 96.548571h-166.765714c-29.257143 0-46.811429-2.925714-67.291429-35.108571-32.182857-58.514286-55.588571-76.068571-99.474285-76.068572-46.811429 0-70.217143 17.554286-99.474286 76.068572z m-74.605714-623.250286a43.885714 43.885714 0 1 0 0 87.771428h351.085714a43.885714 43.885714 0 1 0 0-87.771428h-351.085714z m0 204.946286a43.885714 43.885714 0 1 0 0 87.771428h351.085714a43.885714 43.885714 0 1 0 0-87.771428h-351.085714z"  /></svg>
