<?xml version="1.0" standalone="no"?><!DOCTYPE svg PUBLIC "-//W3C//DTD SVG 1.1//EN" "http://www.w3.org/Graphics/SVG/1.1/DTD/svg11.dtd"><svg t="1636009332651" class="icon" viewBox="0 0 1111 1024" version="1.1" xmlns="http://www.w3.org/2000/svg" p-id="14956" xmlns:xlink="http://www.w3.org/1999/xlink" width="216.9921875" height="200"><defs><style type="text/css"></style></defs><path d="M991.817143 488.594286V58.514286c2.925714-32.182857-23.405714-58.514286-55.588572-58.514286H58.514286C26.331429 0 0 26.331429 0 58.514286v819.2c0 32.182857 26.331429 58.514286 58.514286 58.514285h547.108571c20.48 0 35.108571-17.554286 35.108572-35.108571s-17.554286-35.108571-35.108572-35.108571H73.142857V245.76l354.011429 242.834286c11.702857 8.777143 29.257143 8.777143 40.96 0l166.765714-122.88 292.571429 172.617143c5.851429 11.702857 17.554286 17.554286 29.257142 17.554285 17.554286 0 35.108571-17.554286 35.108572-35.108571m-380.342857-228.205714l-163.84 119.954285L73.142857 157.988571V76.068571h848.457143v371.565715l-269.165714-157.988572c-14.628571-5.851429-29.257143-5.851429-40.96 2.925715z" p-id="14957"></path><path d="M877.714286 555.885714c-128.731429 0-234.057143 105.325714-234.057143 234.057143s105.325714 234.057143 234.057143 234.057143 234.057143-105.325714 234.057143-234.057143-105.325714-234.057143-234.057143-234.057143z m0 409.6c-96.548571 0-175.542857-78.994286-175.542857-175.542857s78.994286-175.542857 175.542857-175.542857 175.542857 78.994286 175.542857 175.542857-78.994286 175.542857-175.542857 175.542857z" p-id="14958"></path><path d="M930.377143 667.062857h-11.702857c-14.628571 0-29.257143 8.777143-40.96 17.554286-11.702857 11.702857-20.48 26.331429-23.405715 46.811428V845.531429c-2.925714 14.628571-14.628571 26.331429-29.257142 26.331428s-29.257143-11.702857-29.257143-29.257143c0-8.777143 2.925714-14.628571 8.777143-20.48 5.851429-5.851429 11.702857-8.777143 20.48-8.777143h2.925714c8.777143 0 17.554286-8.777143 17.554286-20.48 0-14.628571-8.777143-23.405714-20.48-23.405714-40.96 0-73.142857 32.182857-73.142858 73.142857s32.182857 73.142857 73.142858 73.142857h11.702857c14.628571 0 29.257143-8.777143 40.96-17.554285 11.702857-11.702857 20.48-26.331429 23.405714-46.811429V737.28c2.925714-14.628571 14.628571-26.331429 29.257143-26.331429s29.257143 11.702857 29.257143 29.257143c0 8.777143-2.925714 14.628571-8.777143 20.48-5.851429 5.851429-11.702857 8.777143-20.48 8.777143h-2.925714c-8.777143 0-17.554286 8.777143-17.554286 20.48 0 14.628571 8.777143 23.405714 20.48 23.405714 40.96 0 73.142857-32.182857 73.142857-73.142857s-32.182857-73.142857-73.142857-73.142857z" p-id="14959"></path></svg>