<?xml version="1.0" standalone="no"?><!DOCTYPE svg PUBLIC "-//W3C//DTD SVG 1.1//EN" "http://www.w3.org/Graphics/SVG/1.1/DTD/svg11.dtd"><svg class="icon" width="200px" height="200.00px" viewBox="0 0 1024 1024" version="1.1" xmlns="http://www.w3.org/2000/svg"><path d="M0 0m91.022222 0l841.955556 0q91.022222 0 91.022222 91.022222l0 841.955556q0 91.022222-91.022222 91.022222l-841.955556 0q-91.022222 0-91.022222-91.022222l0-841.955556q0-91.022222 91.022222-91.022222Z" fill="#D9D9D9" /><path d="M726.129778 728.177778c-1.274311 7.281778-3.072 12.856889-5.484089 16.748089-1.797689 2.412089-6.781156 4.937956-15.086933 7.327289-8.305778 2.389333-18.523022 4.778667-30.651734 7.054222-12.151467 2.275556-25.691022 4.3008-40.641422 6.052978a1487.985778 1487.985778 0 0 1-88.6784 7.304533c-13.903644 0.773689-25.941333 1.024-36.135822 1.024-10.24 0-22.1184-0.386844-35.657956-1.001245a1339.505778 1339.505778 0 0 1-42.029511-2.912711c-14.427022-1.251556-28.740267-2.639644-43.053511-4.164266a1102.688711 1102.688711 0 0 1-38.843733-4.9152c-11.628089-1.752178-21.458489-3.527111-29.513956-5.165511-8.055467-1.774933-13.152711-3.527111-15.337244-5.165512-3.572622-2.776178-6.257778-11.377778-8.192-25.6-1.888711-14.267733-1.137778-32.790756 2.4576-55.250488 1.774933-12.856889 6.894933-22.687289 15.587555-29.513956 8.669867-6.803911 18.659556-12.219733 30.151111-16.156444a433.3568 433.3568 0 0 1 35.6352-10.695112 115.461689 115.461689 0 0 0 32.699734-13.630577c7.418311-4.551111 13.038933-8.829156 16.884622-13.1072a44.828444 44.828444 0 0 0 8.419555-12.4928c1.797689-4.164267 2.685156-8.578844 2.685156-13.1072 0-4.551111-0.136533-9.580089-0.500622-15.132445-0.773689-8.078222-3.595378-14.381511-8.442311-19.0464a325.336178 325.336178 0 0 0-16.361245-14.381511 31.3344 31.3344 0 0 1-7.395555-10.217244 136.032711 136.032711 0 0 1-5.757156-13.357511 295.981511 295.981511 0 0 1-5.233778-16.770845 25.281422 25.281422 0 0 1-7.418311-3.663644 49.743644 49.743644 0 0 1-6.894933-7.327289 42.757689 42.757689 0 0 1-6.371556-13.607822 36.0448 36.0448 0 0 1-2.434844-16.156445c0.500622-4.9152 1.524622-9.079467 2.935467-12.470044 1.388089-3.777422 3.709156-7.441067 6.894933-10.968178a243.712 243.712 0 0 1 2.161778-39.7312c1.410844-11.104711 3.959467-23.210667 7.668622-36.067556 3.709156-12.879644 9.216-24.348444 16.611555-34.429155 6.644622-9.716622 14.176711-17.658311 22.482489-23.847822a122.038044 122.038044 0 0 1 25.304178-14.381512 110.364444 110.364444 0 0 1 25.941333-7.054222 173.966222 173.966222 0 0 1 25.031112-1.888711c10.24 0 20.320711 1.137778 30.424177 3.413333 10.080711 2.275556 19.410489 5.279289 28.216889 9.193245 8.829156 3.777422 16.611556 8.192 23.529245 13.129955 6.894933 4.9152 12.265244 9.693867 16.088177 14.609067 9.193244 11.104711 15.837867 23.460978 20.047645 36.841245 4.232533 13.357511 7.168 26.237156 8.965689 38.456888 1.774933 13.880889 2.6624 27.989333 2.6624 42.370845 2.434844 1.774933 4.346311 4.050489 5.757155 6.826667 1.410844 2.389333 2.548622 5.5296 3.458845 9.443555 0.887467 3.800178 1.024 8.578844 0.227555 14.1312-0.750933 7.304533-2.161778 13.1072-4.460089 17.521778a35.316622 35.316622 0 0 1-7.645866 10.24c-3.185778 2.753422-6.530844 4.642133-10.103467 5.779911-1.797689 5.916444-3.572622 11.491556-5.233778 16.770844-1.797689 4.551111-3.845689 8.965689-6.144 13.380267a35.316622 35.316622 0 0 1-7.668622 10.217245c-6.644622 5.165511-12.128711 9.693867-16.338489 13.357511-4.232533 3.640889-7.054222 9.8304-8.419555 18.545777-1.046756 5.165511-1.4336 10.581333-1.046756 15.883378 0.386844 5.438578 1.797689 10.8544 4.482845 16.156445 2.685156 5.415822 6.644622 10.581333 12.128711 15.382755 5.506844 4.9152 13.152711 9.193244 22.983111 13.1072 8.829156 3.527111 18.432 6.5536 28.763022 9.466311 10.353778 2.776178 20.571022 6.052978 30.401422 9.716623 9.853156 3.640889 18.523022 8.192 26.191645 13.607822 7.554844 5.415822 12.9024 12.856889 16.110933 22.209422 1.774933 5.5296 3.072 12.470044 3.959467 20.662044 0.910222 8.192 1.274311 16.520533 1.274311 24.849067 0 8.328533-0.773689 15.382756-2.048 22.573511z" fill="#FFFFFF" /></svg>