<?xml version="1.0" standalone="no"?><!DOCTYPE svg PUBLIC "-//W3C//DTD SVG 1.1//EN" "http://www.w3.org/Graphics/SVG/1.1/DTD/svg11.dtd"><svg t="1648534612266" class="icon" viewBox="0 0 1024 1024" version="1.1" xmlns="http://www.w3.org/2000/svg" p-id="45633" xmlns:xlink="http://www.w3.org/1999/xlink" width="200" height="200"><defs><style type="text/css"></style></defs><path d="M767.5904 64a148.736 148.736 0 1 1-105.1136 254.0544L402.432 480.6144a149.248 149.248 0 0 1 0.1536 66.4576l257.7408 161.1776a148.736 148.736 0 1 1-30.6176 47.2064L379.5968 599.04a148.736 148.736 0 1 1-0.3072-170.3424l251.5968-157.2864a148.736 148.736 0 0 1 136.704-207.4624z m0 654.4896c-51.2 0-92.7744 41.6768-92.7744 92.7744 0 51.0976 41.6768 92.7232 92.7744 92.7232 51.0976 0 92.7232-41.6256 92.7232-92.7232s-41.6256-92.7744-92.7232-92.7744zM257.4848 421.376c-51.2 0-92.7744 41.6768-92.7744 92.7744 0 51.0976 41.6768 92.7744 92.7744 92.7744 51.0976 0 92.7232-41.6768 92.7232-92.7744 0-51.0976-41.6256-92.7744-92.7232-92.7744z m510.1056-301.312c-51.2 0-92.7744 41.6256-92.7744 92.7232s41.6768 92.7744 92.7744 92.7744c51.0976 0 92.7232-41.6768 92.7232-92.7744 0-51.0976-41.6256-92.7232-92.7232-92.7232z" p-id="45634"></path></svg>