<?xml version="1.0" standalone="no"?><!DOCTYPE svg PUBLIC "-//W3C//DTD SVG 1.1//EN" "http://www.w3.org/Graphics/SVG/1.1/DTD/svg11.dtd"><svg class="icon" width="200px" height="200.00px" viewBox="0 0 1024 1024" version="1.1" xmlns="http://www.w3.org/2000/svg"><path d="M39.643429 242.761143c0 86.747429 89.965714 166.838857 236.178285 210.212571 146.139429 43.373714 326.217143 43.373714 472.356572 0 146.139429-43.373714 236.251429-123.465143 236.251428-210.212571C984.356571 108.690286 772.827429 0 512 0 251.099429 0 39.643429 108.690286 39.643429 242.761143zM512 558.592c-192.950857 0-358.912-59.465143-432.274286-144.676571C54.052571 443.904 39.716571 477.110857 39.716571 512c0 134.070857 211.456 242.761143 472.356572 242.761143S984.356571 646.070857 984.356571 512c0-34.889143-14.336-68.096-40.155428-98.084571C870.912 499.126857 704.950857 558.592 512 558.592z m0 275.894857c-195.437714 0-363.227429-61.001143-435.053714-147.968-24.064 29.110857-37.302857 61.074286-37.302857 94.72C39.643429 915.309714 251.099429 1024 512 1024s472.356571-108.690286 472.356571-242.761143c0-33.645714-13.238857-65.609143-37.302857-94.72-71.826286 86.966857-239.616 147.968-435.053714 147.968z"  /></svg>
