<?xml version="1.0" standalone="no"?><!DOCTYPE svg PUBLIC "-//W3C//DTD SVG 1.1//EN" "http://www.w3.org/Graphics/SVG/1.1/DTD/svg11.dtd"><svg t="1614223396006" class="icon" viewBox="0 0 1024 1024" version="1.1" xmlns="http://www.w3.org/2000/svg" p-id="13745" xmlns:xlink="http://www.w3.org/1999/xlink" width="200" height="200"><defs><style type="text/css"></style></defs><path d="M925.742545 46.545455C954.321455 46.545455 977.454545 69.678545 977.454545 98.257455V925.789091c0 28.578909-23.133091 51.712-51.712 51.712H98.210909A51.712 51.712 0 0 1 46.545455 925.742545V98.210909C46.545455 69.678545 69.678545 46.545455 98.257455 46.545455H925.789091zM930.909091 93.090909H93.090909v837.818182h837.818182V93.090909z" p-id="13746"></path><path d="M469.131636 296.029091l28.718546 28.765091L333.870545 488.727273h428.590546v46.452363H333.870545l163.979637 163.979637-28.718546 28.765091-187.252363-187.205819-14.382546-14.382545a20.386909 20.386909 0 0 1 0-28.858182l14.429091-14.336 187.205818-187.159273z" p-id="13747"></path></svg>