<?xml version="1.0" standalone="no"?><!DOCTYPE svg PUBLIC "-//W3C//DTD SVG 1.1//EN" "http://www.w3.org/Graphics/SVG/1.1/DTD/svg11.dtd"><svg class="icon" width="200px" height="200.00px" viewBox="0 0 1024 1024" version="1.1" xmlns="http://www.w3.org/2000/svg"><path d="M915.656595 0.265478L583.626681 16.208764A177.423914 177.423914 0 0 0 466.684868 67.914744L29.414636 505.550648a99.974646 99.974646 0 0 0 0 141.368684L377.095299 994.746263c39.053739 38.980604 102.314945 38.980604 141.368683 0l133.543309-133.543309 303.946326-303.800057c31.15523-31.15523 49.585084-72.841805 51.70598-116.868679l16.089555-332.103048a103.338826 103.338826 0 0 0-108.238826-108.238827z m-156.141821 435.880679a121.256739 121.256739 0 0 1-207.043323-85.859717 121.403008 121.403008 0 0 1 207.043323-85.859718c47.391054 47.464188 47.391054 124.328382 0 171.719435z"  /></svg>
