<?xml version="1.0" standalone="no"?><!DOCTYPE svg PUBLIC "-//W3C//DTD SVG 1.1//EN" "http://www.w3.org/Graphics/SVG/1.1/DTD/svg11.dtd"><svg t="1616554314939" class="icon" viewBox="0 0 1024 1024" version="1.1" xmlns="http://www.w3.org/2000/svg" p-id="14004" xmlns:xlink="http://www.w3.org/1999/xlink" width="200" height="200"><defs><style type="text/css"></style></defs><path d="M512 512m-512 0a512 512 0 1 0 1024 0 512 512 0 1 0-1024 0Z" fill="#8C8C8C" p-id="14005"></path><path d="M356.352 566.912c9.088 0.128 19.2 0.128 30.336 0.128l1.92 1.6a84.288 84.288 0 0 0 108.224-1.408h31.04a84.352 84.352 0 0 0 109.44 0.192c10.304 0 20.864 0 31.616 0.128a84.032 84.032 0 0 0 76.672 17.088l-0.128 176.896a24.96 24.96 0 0 1-25.088 24.96l-417.472-0.128a25.088 25.088 0 0 1-25.152-25.024l0.128-177.088a84.288 84.288 0 0 0 78.464-17.344z m347.072 107.904H527.36v32.96h176v-32.96z m26.88-440a12.48 12.48 0 0 1 11.392 7.68l70.848 174.72 1.536 3.84a96.64 96.64 0 0 1-160.96 99.776l-0.32-0.32-4.224 4.224a96.704 96.704 0 0 1-60.416 25.984l-5.76 0.128a96.64 96.64 0 0 1-70.08-30.08L512 520.576l-4.224 4.224a96.704 96.704 0 0 1-60.416 25.984l-5.76 0.128a96.64 96.64 0 0 1-70.144-30.08L371.2 520.576l-4.224 4.224a96.704 96.704 0 0 1-60.416 25.984l-5.76 0.128a96.64 96.64 0 0 1-90.88-129.856L281.6 242.56c1.92-4.672 6.4-7.744 11.328-7.744h437.376z" fill="#FFFFFF" p-id="14006"></path></svg>