<?xml version="1.0" standalone="no"?><!DOCTYPE svg PUBLIC "-//W3C//DTD SVG 1.1//EN" "http://www.w3.org/Graphics/SVG/1.1/DTD/svg11.dtd"><svg t="1619578146878" class="icon" viewBox="0 0 1024 1024" version="1.1" xmlns="http://www.w3.org/2000/svg" p-id="14117" xmlns:xlink="http://www.w3.org/1999/xlink" width="200" height="200"><defs><style type="text/css"></style></defs><path d="M512 492c109.9 0 199.1-89.1 199.1-199.1s-89.2-199-199.1-199S312.9 183 312.9 293 402.1 492 512 492zM410.8 191.8c27-27 63-41.9 101.2-41.9s74.1 14.9 101.2 41.9 41.9 62.9 41.9 101.2-14.9 74.1-41.9 101.2c-27 27-63 41.9-101.2 41.9s-74.1-14.9-101.2-41.9c-27-27-41.9-63-41.9-101.2s14.9-74.2 41.9-101.2z m478.9 697.4l-48.1-314.8c-2.2-18.3-17.8-32.1-36.2-32.1H218.6c-18.5 0-34 13.8-36.2 32.1l-48.1 314.8c-2.6 21.8 14.3 40.9 36.2 40.9h683c21.9 0 38.9-19.2 36.2-40.9z m-696.5-15.1l42.2-275.9h553.2l42.2 275.9H193.2z" p-id="14118"></path></svg>