<?xml version="1.0" standalone="no"?><!DOCTYPE svg PUBLIC "-//W3C//DTD SVG 1.1//EN" "http://www.w3.org/Graphics/SVG/1.1/DTD/svg11.dtd"><svg t="1622445324049" class="icon" viewBox="0 0 1024 1024" version="1.1" xmlns="http://www.w3.org/2000/svg" p-id="15107" xmlns:xlink="http://www.w3.org/1999/xlink" width="200" height="200"><defs><style type="text/css"></style></defs><path d="M512 118.153846c217.481846 0 393.846154 176.364308 393.846154 393.846154s-176.364308 393.846154-393.846154 393.846154S118.153846 729.481846 118.153846 512 294.518154 118.153846 512 118.153846z m-91.372308 412.317539H378.407385a7.010462 7.010462 0 0 0-7.010462 7.364923A140.996923 140.996923 0 0 0 512 671.113846a140.996923 140.996923 0 0 0 140.642462-133.277538 7.010462 7.010462 0 0 0-7.010462-7.364923h-42.299077a7.089231 7.089231 0 0 0-7.089231 6.498461 84.48 84.48 0 0 1-168.448 0 7.089231 7.089231 0 0 0-7.128615-6.498461zM357.297231 389.789538a42.180923 42.180923 0 1 0 0 84.401231 42.180923 42.180923 0 0 0 0-84.401231z m309.484307 0a42.180923 42.180923 0 1 0 0 84.401231 42.180923 42.180923 0 0 0 0-84.401231z" p-id="15108"></path></svg>