<?xml version="1.0" standalone="no"?><!DOCTYPE svg PUBLIC "-//W3C//DTD SVG 1.1//EN" "http://www.w3.org/Graphics/SVG/1.1/DTD/svg11.dtd"><svg t="1616554321001" class="icon" viewBox="0 0 1024 1024" version="1.1" xmlns="http://www.w3.org/2000/svg" p-id="14130" xmlns:xlink="http://www.w3.org/1999/xlink" width="200" height="200"><defs><style type="text/css"></style></defs><path d="M512 512m-512 0a512 512 0 1 0 1024 0 512 512 0 1 0-1024 0Z" fill="#8C8C8C" p-id="14131"></path><path d="M765.44 660.032c-40.896-18.304-101.504-65.28-191.168-81.408 22.912-24.704 40.32-63.36 58.112-109.12 10.368-26.496 8.64-49.088 8.64-81.28 0-23.808 4.48-62.016-1.408-82.944-19.776-70.848-69.824-90.368-128.384-90.368-58.624 0-108.736 19.584-128.448 90.624-5.76 20.864-1.344 58.944-1.344 82.624 0 32.256-1.728 55.04 8.576 81.472 17.984 46.016 35.2 84.544 58.048 109.184-89.088 16.512-149.248 63.168-189.76 81.344-83.968 37.696-84.416 78.912-84.416 78.912v70.016l676.224-0.064v-69.952s-0.384-41.408-84.672-79.04z" fill="#FFFFFF" p-id="14132"></path></svg>