<?xml version="1.0" standalone="no"?><!DOCTYPE svg PUBLIC "-//W3C//DTD SVG 1.1//EN" "http://www.w3.org/Graphics/SVG/1.1/DTD/svg11.dtd"><svg t="1622428457601" class="icon" viewBox="0 0 1024 1024" version="1.1" xmlns="http://www.w3.org/2000/svg" p-id="14415" xmlns:xlink="http://www.w3.org/1999/xlink" width="200" height="200"><defs><style type="text/css"></style></defs><path d="M279.272727 417.466182a49.850182 49.850182 0 1 0 99.746909 0 49.850182 49.850182 0 0 0-99.746909 0z m365.707637 0a49.850182 49.850182 0 1 0 99.746909 0 49.850182 49.850182 0 0 0-99.746909 0zM512 46.545455C254.976 46.545455 46.545455 254.976 46.545455 512s208.430545 465.454545 465.454545 465.454545 465.454545-208.430545 465.454545-465.454545S769.024 46.545455 512 46.545455z m273.221818 738.676363a386.56 386.56 0 0 1-122.88 82.944 382.603636 382.603636 0 0 1-150.341818 30.347637 384.837818 384.837818 0 0 1-273.361455-113.245091A384.372364 384.372364 0 0 1 125.533091 512 384.837818 384.837818 0 0 1 238.778182 238.638545 384.372364 384.372364 0 0 1 512 125.533091a384.837818 384.837818 0 0 1 273.361455 113.245091 384.372364 384.372364 0 0 1 113.105454 273.221818c0 52.224-10.146909 102.818909-30.301091 150.388364a383.255273 383.255273 0 0 1-82.897454 122.833454z m-115.293091-251.392h-49.989818a8.378182 8.378182 0 0 0-8.378182 7.68 99.84 99.84 0 0 1-199.074909 0 8.378182 8.378182 0 0 0-8.424727-7.68H354.071273a8.285091 8.285091 0 0 0-8.285091 8.704A166.632727 166.632727 0 0 0 512 700.043636a166.632727 166.632727 0 0 0 166.213818-157.509818 8.285091 8.285091 0 0 0-8.285091-8.704z" p-id="14416"></path></svg>