<?xml version="1.0" standalone="no"?><!DOCTYPE svg PUBLIC "-//W3C//DTD SVG 1.1//EN" "http://www.w3.org/Graphics/SVG/1.1/DTD/svg11.dtd"><svg class="icon" width="200px" height="200.00px" viewBox="0 0 1024 1024" version="1.1" xmlns="http://www.w3.org/2000/svg"><path fill="#333333" d="M517.76 715.2c0-33.088 6.912-64.512 19.456-93.12a66.24 66.24 0 0 1-12.416-34.432 94.72 94.72 0 0 1 1.664-25.28c2.304-13.888 6.784-23.68 13.632-29.44 6.784-5.824 15.552-12.8 26.368-21.184a55.04 55.04 0 0 0 12.352-16.192c3.648-6.912 6.976-14.016 9.792-21.184 2.752-8.256 5.632-17.152 8.448-26.496a44.16 44.16 0 0 0 16.192-9.088 55.04 55.04 0 0 0 12.352-16.192c3.584-6.912 6.08-16.192 7.168-27.776a64 64 0 0 0-0.448-22.4 50.624 50.624 0 0 0-5.568-14.976 28.736 28.736 0 0 0-9.344-10.752c0-22.656-1.408-45.12-4.288-67.2a371.072 371.072 0 0 0-14.464-60.992A172.288 172.288 0 0 0 566.4 160a128.64 128.64 0 0 0-25.984-23.296 216.896 216.896 0 0 0-37.824-20.736 255.744 255.744 0 0 0-45.44-14.528 227.84 227.84 0 0 0-48.896-5.44c-13.12 0-26.496 0.96-40.448 2.944a181.824 181.824 0 0 0-82.56 33.984 155.392 155.392 0 0 0-36.16 37.824 173.12 173.12 0 0 0-26.816 54.784 382.656 382.656 0 0 0-15.744 120.384 52.48 52.48 0 0 0-11.008 17.472c-2.304 5.504-3.84 12.16-4.736 19.904a56.832 56.832 0 0 0 3.84 25.728c2.816 9.408 6.208 16.64 10.24 21.568 3.904 5.056 7.552 8.896 11.008 11.584a41.92 41.92 0 0 0 11.904 5.888c2.752 9.408 5.696 18.24 8.448 26.496 2.816 7.232 6.016 14.208 9.344 21.184A50.88 50.88 0 0 0 257.472 512c9.6 7.68 18.432 15.36 26.368 22.848a45.696 45.696 0 0 1 13.632 30.336c0.512 8.832 0.832 16.896 0.832 24.064 0 7.232-1.344 14.08-4.288 20.8a68.864 68.864 0 0 1-13.568 19.968c-6.272 6.656-15.36 13.568-27.264 20.736a188.8 188.8 0 0 1-52.736 21.632c-19.84 4.992-38.912 10.624-57.408 17.024-18.432 6.4-34.56 14.912-48.448 25.664-13.952 10.752-22.272 26.432-25.088 46.912-5.696 35.84-6.976 65.28-3.84 88 3.072 22.656 7.488 36.224 13.184 40.704 3.392 2.816 11.52 5.504 24.64 8.256 13.12 2.688 28.992 5.504 47.616 8.256 18.688 2.688 39.552 5.44 62.528 7.936 22.912 2.496 46.08 4.672 69.248 6.656 23.296 1.984 45.76 3.456 67.584 4.608 21.824 1.152 40.96 1.664 57.344 1.664s35.84-0.512 58.24-1.664a2326.528 2326.528 0 0 0 142.784-11.712l16.32-1.92c-64.64-43.072-107.456-115.392-107.456-197.504z m243.328-193.664c-109.76 0-198.912 86.656-198.912 193.664 0 107.008 89.152 193.664 198.912 193.664 109.888 0 198.912-86.656 198.912-193.664 0-107.008-89.088-193.664-198.912-193.664z m109.568 223.104h-78.272v77.312h-60.032v-77.312h-79.36v-58.432h79.36V609.92h60.032v76.16h78.272v58.496z" /></svg>