<?xml version="1.0" standalone="no"?><!DOCTYPE svg PUBLIC "-//W3C//DTD SVG 1.1//EN" "http://www.w3.org/Graphics/SVG/1.1/DTD/svg11.dtd"><svg t="1622428446675" class="icon" viewBox="0 0 1024 1024" version="1.1" xmlns="http://www.w3.org/2000/svg" p-id="14288" xmlns:xlink="http://www.w3.org/1999/xlink" width="200" height="200"><defs><style type="text/css"></style></defs><path d="M512 46.545455c257.024 0 465.454545 208.430545 465.454545 465.454545s-208.430545 465.454545-465.454545 465.454545S46.545455 769.024 46.545455 512 254.976 46.545455 512 46.545455zM404.014545 533.829818H354.117818a8.285091 8.285091 0 0 0-8.285091 8.704A166.632727 166.632727 0 0 0 512 700.043636a166.632727 166.632727 0 0 0 166.213818-157.509818 8.285091 8.285091 0 0 0-8.285091-8.704h-49.989818a8.378182 8.378182 0 0 0-8.378182 7.68 99.84 99.84 0 0 1-199.074909 0 8.378182 8.378182 0 0 0-8.424727-7.68zM329.169455 367.569455a49.850182 49.850182 0 1 0 0 99.746909 49.850182 49.850182 0 0 0 0-99.746909z m365.754181 0a49.850182 49.850182 0 1 0 0 99.746909 49.850182 49.850182 0 0 0 0-99.746909z" p-id="14289"></path></svg>