<?xml version="1.0" standalone="no"?><!DOCTYPE svg PUBLIC "-//W3C//DTD SVG 1.1//EN" "http://www.w3.org/Graphics/SVG/1.1/DTD/svg11.dtd"><svg t="1616391353295" class="icon" viewBox="0 0 1024 1024" version="1.1" xmlns="http://www.w3.org/2000/svg" p-id="13229" xmlns:xlink="http://www.w3.org/1999/xlink" width="200" height="200"><defs><style type="text/css"></style></defs><path d="M592 708.032h-320v55.936h320v-55.936z m160-224h-480v56h480v-56.064z m0-224h-480v56h480v-56zM856 64H168a32 32 0 0 0-32 32v832a32 32 0 0 0 32 32h688a32 32 0 0 0 32-32v-832a32 32 0 0 0-32-32zM832 904H192V120h640v784z" p-id="13230"></path></svg>