<?xml version="1.0" standalone="no"?><!DOCTYPE svg PUBLIC "-//W3C//DTD SVG 1.1//EN" "http://www.w3.org/Graphics/SVG/1.1/DTD/svg11.dtd"><svg t="1622445329156" class="icon" viewBox="0 0 1024 1024" version="1.1" xmlns="http://www.w3.org/2000/svg" p-id="15234" xmlns:xlink="http://www.w3.org/1999/xlink" width="200" height="200"><defs><style type="text/css"></style></defs><path d="M315.076923 432.009846a42.180923 42.180923 0 1 0 84.401231 0 42.180923 42.180923 0 0 0-84.401231 0z m309.444923 0a42.180923 42.180923 0 1 0 84.401231 0 42.180923 42.180923 0 0 0-84.401231 0zM512 118.153846C294.518154 118.153846 118.153846 294.518154 118.153846 512s176.364308 393.846154 393.846154 393.846154 393.846154-176.364308 393.846154-393.846154S729.481846 118.153846 512 118.153846z m231.187692 625.033846a327.089231 327.089231 0 0 1-103.975384 70.183385 323.741538 323.741538 0 0 1-127.212308 25.678769 325.632 325.632 0 0 1-231.305846-95.822769A325.238154 325.238154 0 0 1 184.989538 512 325.632 325.632 0 0 1 280.812308 280.694154 325.238154 325.238154 0 0 1 512 184.989538a325.632 325.632 0 0 1 231.305846 95.82277 325.238154 325.238154 0 0 1 95.704616 231.187692c0 44.189538-8.585846 87.000615-25.639385 127.251692a324.292923 324.292923 0 0 1-70.144 103.936z m-97.555692-212.716307h-42.299077a7.089231 7.089231 0 0 0-7.089231 6.498461 84.48 84.48 0 0 1-168.448 0 7.089231 7.089231 0 0 0-7.128615-6.498461H378.368a7.010462 7.010462 0 0 0-7.010462 7.364923A140.996923 140.996923 0 0 0 512 671.113846a140.996923 140.996923 0 0 0 140.642462-133.277538 7.010462 7.010462 0 0 0-7.010462-7.364923z" p-id="15235"></path></svg>