<?xml version="1.0" standalone="no"?><!DOCTYPE svg PUBLIC "-//W3C//DTD SVG 1.1//EN" "http://www.w3.org/Graphics/SVG/1.1/DTD/svg11.dtd"><svg t="1625552156919" class="icon" viewBox="0 0 1024 1024" version="1.1" xmlns="http://www.w3.org/2000/svg" p-id="31848" xmlns:xlink="http://www.w3.org/1999/xlink" width="16" height="16"><defs><style type="text/css"></style></defs><path d="M879.243636 144.756364c33.978182 0 61.44 27.461818 61.44 61.44v612.538181c0 33.978182-27.461818 61.44-61.44 61.44H144.756364c-33.978182 0-61.44-27.461818-61.44-61.44V205.730909c0-33.978182 27.461818-61.44 61.44-61.44h734.487272v0.465455z m-581.818181 269.032727L144.290909 566.923636v251.345455h734.952727v-79.592727l-195.956363-195.956364-128.465455 128.465455-257.396363-257.396364z m581.818181-208.058182H144.756364v275.549091L297.890909 328.145455l257.396364 257.396363 128.465454-128.465454 195.956364 195.956363V205.730909h-0.465455z m-116.363636 157.789091c23.738182 0 42.821818-19.083636 42.821818-42.821818s-19.083636-42.821818-42.821818-42.821818-42.821818 19.083636-42.821818 42.821818 19.083636 42.821818 42.821818 42.821818z" p-id="31849"></path></svg>