<?xml version="1.0" standalone="no"?><!DOCTYPE svg PUBLIC "-//W3C//DTD SVG 1.1//EN" "http://www.w3.org/Graphics/SVG/1.1/DTD/svg11.dtd"><svg class="icon" width="200px" height="200.00px" viewBox="0 0 1024 1024" version="1.1" xmlns="http://www.w3.org/2000/svg"><path d="M584.861538 529.329231a291.446154 291.446154 0 0 0 57.107693-180.775385c0-155.175385-114.215385-282.387692-256.787693-282.387692S128.393846 193.378462 128.393846 348.553846a324.135385 324.135385 0 0 0 57.107692 180.775385 168.566154 168.566154 0 0 0-114.215384 157.538461v113.033846a170.929231 170.929231 0 0 0 171.323077 169.353847h285.144615a170.929231 170.929231 0 0 0 171.323077-169.353847v-112.246153a168.566154 168.566154 0 0 0-114.215385-157.538462zM185.501538 348.553846C185.501538 224.492308 275.692308 122.88 385.181538 122.88s199.68 101.612308 199.68 225.673846-88.221538 226.067692-199.68 226.067692S185.501538 472.615385 185.501538 348.553846zM641.969231 787.692308a133.907692 133.907692 0 0 1-139.815385 127.212307H268.209231A133.907692 133.907692 0 0 1 128.393846 787.692308v-85.858462A132.332308 132.332308 0 0 1 236.307692 577.378462 239.458462 239.458462 0 0 0 385.181538 630.153846a233.550769 233.550769 0 0 0 148.48-53.956923 129.969231 129.969231 0 0 1 108.307693 124.455385z m0 0"  /><path d="M682.929231 280.418462l272.147692 0 0 48.04923-272.147692 0 0-48.04923Z"  /><path d="M682.929231 438.350769l272.147692 0 0 48.049231-272.147692 0 0-48.049231Z"  /><path d="M761.698462 595.889231l193.378461 0 0 48.049231-193.378461 0 0-48.049231Z"  /><path d="M761.698462 753.427692l193.378461 0 0 48.049231-193.378461 0 0-48.049231Z"  /></svg>
