<?xml version="1.0" standalone="no"?><!DOCTYPE svg PUBLIC "-//W3C//DTD SVG 1.1//EN" "http://www.w3.org/Graphics/SVG/1.1/DTD/svg11.dtd"><svg class="icon" width="200px" height="200.00px" viewBox="0 0 1024 1024" version="1.1" xmlns="http://www.w3.org/2000/svg"><path d="M692.736 199.168c9.216 0 19.456 5.12 26.112 12.288l143.872 222.72c1.024 1.536 2.048 2.56 3.072 4.096 11.264 14.848 10.24 37.376-3.072 53.248l-318.976 320-1.536 1.536c-2.048 2.56-9.216 9.728-25.6 11.264h-0.512c-7.68 0-17.408-3.584-24.064-9.728l-4.096-4.096-0.512-0.512-326.656-321.024c-11.776-14.336-12.8-35.84-2.048-49.664 1.536-1.536 2.56-3.584 3.584-5.12l143.872-222.72c7.168-8.192 15.872-12.8 26.112-12.8h360.448m0-60.928H332.288c-29.184 0-56.32 12.8-75.776 37.888l-145.92 225.28c-30.72 37.888-27.136 94.208 5.12 130.048L444.416 855.04l5.12 5.12c17.408 16.384 41.984 26.624 66.048 26.624h3.072c26.112-2.048 50.176-11.776 68.096-31.232l320.512-321.536c33.792-38.4 35.84-94.208 6.656-132.608l-145.408-225.28c-17.408-23.552-46.592-38.4-75.776-38.4z"  /><path d="M512 619.008c-18.944 0-37.376-8.192-49.664-23.04L314.88 435.2c-11.264-12.288-10.752-31.744 2.048-43.52 12.288-11.264 31.744-10.752 43.52 2.048l147.968 161.28c0.512 0.512 1.024 1.024 1.024 1.536 0 0.512 1.024 1.024 2.56 1.024s2.56-1.024 2.56-1.024c0.512-0.512 0.512-1.024 1.024-1.536l147.968-161.28c11.264-12.288 30.72-13.312 43.52-2.048 12.288 11.264 13.312 30.72 2.048 43.52l-147.456 160.768c-12.288 14.848-30.72 23.04-49.664 23.04z"  /></svg>
