<?xml version="1.0" standalone="no"?><!DOCTYPE svg PUBLIC "-//W3C//DTD SVG 1.1//EN" "http://www.w3.org/Graphics/SVG/1.1/DTD/svg11.dtd"><svg t="1570522546585" class="icon" viewBox="0 0 1024 1024" version="1.1" xmlns="http://www.w3.org/2000/svg" p-id="6275" xmlns:xlink="http://www.w3.org/1999/xlink" width="20" height="20"><defs><style type="text/css"></style></defs><path d="M96.84285752 275.36428584c0 76.24285752 79.07142832 146.63571416 207.57857081 184.75714248 128.44285752 38.12142832 286.71428584 38.12142832 415.15714335 0 128.44285752-38.12142832 207.64285752-108.51428584 207.64285664-184.75714248C927.15714248 157.52857168 741.24285752 62 512 62 282.69285752 62 96.84285752 157.52857168 96.84285752 275.36428584zM512 552.95c-169.58571416 0-315.45-52.26428584-379.92857168-127.15714248C109.50714248 452.15 96.90714248 481.33571416 96.90714248 512c0 117.83571416 185.85 213.36428584 415.15714336 213.36428584S927.15714248 629.83571416 927.15714248 512c0-30.66428584-12.6-59.85-35.29285664-86.20714248C827.45 500.68571416 681.58571416 552.95 512 552.95z m0 242.48571416c-171.77142832 0-319.24285752-53.61428584-382.37142833-130.05-21.15 25.58571416-32.78571416 53.67857168-32.78571415 83.25C96.84285752 866.47142832 282.69285752 962 512 962s415.15714248-95.52857167 415.15714248-213.36428584c0-29.57142832-11.63571416-57.66428584-32.78571416-83.25-63.12857167 76.43571416-210.6 130.05-382.37142832 130.05z" p-id="6276"></path></svg>
