<?xml version="1.0" standalone="no"?><!DOCTYPE svg PUBLIC "-//W3C//DTD SVG 1.1//EN" "http://www.w3.org/Graphics/SVG/1.1/DTD/svg11.dtd"><svg class="icon" width="200px" height="200.00px" viewBox="0 0 1024 1024" version="1.1" xmlns="http://www.w3.org/2000/svg"><path d="M860.672 135.68H163.328c-33.792 0-60.928 27.648-60.928 60.928V650.24c0 33.792 27.648 60.928 60.928 60.928h59.904c8.192 0 15.872-3.072 21.504-8.704l97.792-97.28c1.024-1.024 1.024-2.048 2.048-3.072l91.648-91.648 77.312 75.264c11.776 11.776 31.232 11.264 43.008-0.512l159.744-159.744c10.752 4.096 22.016 6.656 33.792 6.656 50.688 0 91.648-40.96 91.648-91.648s-40.96-91.648-91.648-91.648c-50.688 0-91.648 40.96-91.648 91.648 0 16.384 4.608 31.232 11.776 44.544l-136.192 136.192-77.312-74.752c-11.776-11.776-31.232-11.264-43.008 0.512l-194.048 194.048c-0.512 0.512-0.512 1.024-1.024 1.536l-8.192 8.192h-47.104V197.12h697.344v453.632H481.28v176.128H359.424c-16.896 0-30.72 13.824-30.72 30.72s13.824 30.72 30.72 30.72h305.152c16.896 0 30.72-13.824 30.72-30.72s-13.824-30.72-30.72-30.72H542.72V711.68h317.952c33.792 0 60.928-27.648 60.928-60.928V197.12c0-33.792-27.648-61.44-60.928-61.44z m-110.592 175.104c16.896 0 30.72 13.824 30.72 30.72s-13.824 30.72-30.72 30.72-30.72-13.824-30.72-30.72c0-17.408 13.824-30.72 30.72-30.72z"  /></svg>
