<?xml version="1.0" standalone="no"?><!DOCTYPE svg PUBLIC "-//W3C//DTD SVG 1.1//EN" "http://www.w3.org/Graphics/SVG/1.1/DTD/svg11.dtd"><svg class="icon" width="200px" height="193.57px" viewBox="0 0 1058 1024" version="1.1" xmlns="http://www.w3.org/2000/svg"><path d="M885.76 263.68h-111.616c0.512-4.608 0.512-8.704 0.512-13.312 0-80.896-66.048-146.432-146.432-146.432-47.104 0-89.088 22.528-115.712 56.832-26.624-34.816-68.608-56.832-115.712-56.832-80.896 0-146.432 66.048-146.432 146.432 0 4.608 0 9.216 0.512 13.312H138.24c-19.968 0-35.84 15.872-35.84 35.84v206.336c0 19.968 15.872 35.84 35.84 35.84h45.568v343.04c0 19.968 15.872 35.84 35.84 35.84h585.216c19.968 0 35.84-15.872 35.84-35.84v-343.04h45.568c19.968 0 35.84-15.872 35.84-35.84V299.52c-0.512-19.968-16.384-35.84-36.352-35.84z m-258.048-98.816c47.104 0 84.992 38.4 84.992 84.992 0 4.608-0.512 9.216-1.024 13.312h-168.448c-0.512-4.608-1.024-8.704-1.024-13.312 0.512-46.592 38.912-84.992 85.504-84.992z m-231.424 0c47.104 0 84.992 38.4 84.992 84.992 0 4.608-0.512 9.216-1.024 13.312H311.808c-0.512-4.608-1.024-8.704-1.024-13.312 0-46.592 38.4-84.992 85.504-84.992zM163.84 325.12h317.44v155.136H163.84V325.12z m81.408 216.576H481.28v317.44H245.248v-317.44z m533.504 317.44H542.72v-317.44h236.032v317.44z m81.408-378.88h-317.44V325.12h317.44v155.136z"  /></svg>
