<?xml version="1.0" standalone="no"?><!DOCTYPE svg PUBLIC "-//W3C//DTD SVG 1.1//EN" "http://www.w3.org/Graphics/SVG/1.1/DTD/svg11.dtd"><svg class="icon" width="200px" height="193.57px" viewBox="0 0 1058 1024" version="1.1" xmlns="http://www.w3.org/2000/svg"><path d="M741.2992 348.38016l75.9552 76.04736a35.85536 35.85536 0 0 1-15.80544 60.49792 35.7888 35.7888 0 0 1-34.8416-9.78432L690.6112 399.104l-154.112 154.23488c64.768 91.17184 48.93184 216.80128-36.45952 289.01376-85.38624 72.22784-211.82976 66.92864-290.85696-12.17536-79.05792-79.10912-84.36736-205.63456-12.20608-291.07712 72.18688-85.44256 197.7344-101.31456 288.83456-36.49536l279.84384-280.12032c0.62464-0.64512 1.25952-1.29536 1.96096-1.91488l100.39296-100.43904c14.12608-13.01504 36.03968-12.5952 49.60256 0.98816 13.59872 13.61408 14.08512 35.52256 1.08544 49.664L842.7008 246.90688l76.00128 76.08832a35.87584 35.87584 0 0 1-0.384 50.28352 35.81952 35.81952 0 0 1-50.21184 0.51712l-76.1344-76.24704-50.66752 50.75968v0.07168z m-278.12864 228.82816c-0.45568-0.39936-0.86016-0.85504-1.29024-1.28512-57.73824-54.016-148.22912-51.1232-202.39872 6.4768-54.19008 57.58976-51.60448 148.18304 5.80096 202.56768 57.35936 54.38976 147.88608 52.10112 202.4192-5.13536 54.55872-57.23648 52.56192-147.8656-4.45952-202.624h-0.07168z m0 0"  /></svg>
