<?xml version="1.0" standalone="no"?><!DOCTYPE svg PUBLIC "-//W3C//DTD SVG 1.1//EN" "http://www.w3.org/Graphics/SVG/1.1/DTD/svg11.dtd"><svg class="icon" width="200px" height="200.00px" viewBox="0 0 1024 1024" version="1.1" xmlns="http://www.w3.org/2000/svg"><path d="M541.696 482.048V306.56c-8.832-0.896-17.28-1.792-24.576-3.072V303.104h-1.536 1.536v0.384h-1.28s-0.256 0.256-0.64 0.256c-9.344 1.28-20.864 2.816-33.92 3.968v174.336H127.872V342.144c0-22.016 17.28-39.68 38.784-39.68h161.152c-43.264-9.216-75.776-28.16-76.928-63.104-1.28-41.216 44.16-107.776 110.592-92.544C429.952 162.56 477.824 216.832 514.432 263.168c36.992-47.36 89.344-108.416 160.896-118.016 59.776-7.68 109.056 53.248 102.77888 93.568-5.376 35.328-38.52288 54.528-80.64 63.744H856.576c21.504 0 38.784 17.664 38.784 39.68V482.048H541.696zM368.768 183.296c-33.024-13.312-52.352 1.024-66.304 24.448-7.552 13.312-15.744 30.976-3.584 43.904 31.744 33.408 119.04 30.976 177.536 24.704C448.64 241.28 414.72 201.856 368.768 183.296zM730.112 251.392c22.66112-29.696-21.76-91.648-69.632-68.736-45.824 22.016-78.72 57.856-107.264 93.184 24.448 2.176 49.408 2.816 73.856 1.536 30.08-1.152 85.504-3.328 103.04-25.984zM483.84 900.736H195.712c-19.456 0-35.2-16.12288-35.2-36.224V510.336H483.84v390.4z m378.752-36.224c0 20.10112-15.73888 36.224-35.2 36.224h-288.12288v-390.4h323.2v354.176h0.12288z"  /></svg>
