<?xml version="1.0" standalone="no"?><!DOCTYPE svg PUBLIC "-//W3C//DTD SVG 1.1//EN" "http://www.w3.org/Graphics/SVG/1.1/DTD/svg11.dtd"><svg class="icon" width="200px" height="198.45px" viewBox="0 0 1032 1024" version="1.1" xmlns="http://www.w3.org/2000/svg"><path d="M507.623635 1015.72325A503.723168 503.723168 0 0 1 516.376857 8.276915h8.918378a503.723168 503.723168 0 0 1-8.588067 1007.446335z" fill="#FFFFFF" /><path d="M516.376857 0.019158v16.515514h8.753223A495.465411 495.465411 0 0 1 516.376857 1007.465493h-8.753222A495.465411 495.465411 0 0 1 516.376857 16.534672V0.019158m0 0a511.980925 511.980925 0 0 0-8.753222 1023.961849H516.376857a511.980925 511.980925 0 0 0 8.753223-1023.961849z" fill="#DCDFE6" /><path d="M343.789739 398.868814H526.286166a24.773271 24.773271 0 0 0 24.608115-24.773271V355.102702A24.608115 24.608115 0 0 0 526.286166 330.329432h-181.670651a24.773271 24.773271 0 0 0-24.608115 24.77327v18.992841a24.608115 24.608115 0 0 0 24.608115 24.773271z m151.282106 89.183774A135.427212 135.427212 0 0 1 523.643684 462.453541v-18.33222A24.608115 24.608115 0 0 0 499.861344 419.513206h-157.062535A24.608115 24.608115 0 0 0 318.190693 444.121321v19.157996a24.773271 24.773271 0 0 0 24.608116 24.773271zM318.190693 533.305095v18.992841a24.44296 24.44296 0 0 0 24.44296 24.773271h119.076854a137.574229 137.574229 0 0 1 18.33222-68.539382h-136.913608a24.11265 24.11265 0 0 0-23.947495 24.77327z m24.277805 64.410504a24.773271 24.773271 0 0 0-24.277805 24.77327v18.992841a24.773271 24.773271 0 0 0 24.608116 24.77327h152.107881a136.252988 136.252988 0 0 1-31.214321-68.539381zM598.954426 460.636835a116.599527 116.599527 0 1 0 115.608596 115.608596 115.608596 115.608596 0 0 0-115.608596-115.608596z m46.243438 135.592367a8.753222 8.753222 0 0 1 9.083533 8.588068 8.918377 8.918377 0 0 1-9.083533 8.753222h-33.031027v18.66253a12.22148 12.22148 0 0 1-24.277805 0v-18.66253h-33.031028a8.918377 8.918377 0 0 1-9.083532-8.753222 8.918377 8.918377 0 0 1 9.083532-8.588068h33.031028v-12.386635h-33.031028a8.918377 8.918377 0 0 1-9.083532-8.753222 8.918377 8.918377 0 0 1 9.083532-8.588067h33.031028v-9.744153l-33.031028-31.709787a9.744153 9.744153 0 0 1 0-14.203341 11.230549 11.230549 0 0 1 15.029118 0l29.89308 28.902149 30.058235-28.902149a11.230549 11.230549 0 0 1 15.029117 0 9.744153 9.744153 0 0 1 0 14.203341l-33.031027 31.709787v9.744153h33.031027a8.753222 8.753222 0 0 1 9.083533 8.588067 8.918377 8.918377 0 0 1-9.083533 8.753222h-33.031027v12.386635z m0 0" fill="#0091FA" /></svg>