<?xml version="1.0" standalone="no"?><!DOCTYPE svg PUBLIC "-//W3C//DTD SVG 1.1//EN" "http://www.w3.org/Graphics/SVG/1.1/DTD/svg11.dtd"><svg t="1582790084734" class="icon" viewBox="0 0 1024 1024" version="1.1" xmlns="http://www.w3.org/2000/svg" p-id="12571" xmlns:xlink="http://www.w3.org/1999/xlink" width="200" height="200"><defs><style type="text/css"></style></defs><path d="M451.584 754.688v-151.552c0-11.264-9.216-19.968-19.968-19.968H280.064c-11.264 0-19.968 9.216-19.968 19.968v151.552c0 11.264 9.216 19.968 19.968 19.968h151.552c11.264 0 19.968-9.216 19.968-19.968z" p-id="12572"></path><path d="M502.272 451.584H219.136C174.592 451.584 138.24 487.936 138.24 532.48v117.76h60.416v-117.76c0-11.264 9.216-19.968 19.968-19.968H501.76c11.264 0 19.968 9.216 19.968 19.968v283.136c0 11.264-9.216 19.968-19.968 19.968H360.96V896h141.312c44.544 0 80.896-36.352 80.896-80.896v-283.136c0-44.544-36.352-80.384-80.896-80.384z" p-id="12573"></path><path d="M664.064 289.792H219.136c-44.544 0-80.896 36.352-80.896 80.896v30.208h60.416v-30.208c0-11.264 9.216-19.968 19.968-19.968h444.416c11.264 0 19.968 9.216 19.968 19.968v444.416c0 11.264-9.216 19.968-19.968 19.968h-30.208V896h30.208c44.544 0 80.896-36.352 80.896-80.896V370.688c1.024-44.544-35.328-80.896-79.872-80.896z" p-id="12574"></path><path d="M825.856 128H219.136C174.592 128 138.24 164.352 138.24 208.896v30.208h60.416v-30.208c0-11.264 9.216-19.968 19.968-19.968h606.208c11.264 0 19.968 9.216 19.968 19.968v606.208c0 11.264-9.216 19.968-19.968 19.968h-30.208V896h30.208c44.544 0 80.896-36.352 80.896-80.896V208.896c1.024-44.544-35.328-80.896-79.872-80.896z" p-id="12575"></path></svg>
