<?xml version="1.0" standalone="no"?><!DOCTYPE svg PUBLIC "-//W3C//DTD SVG 1.1//EN" "http://www.w3.org/Graphics/SVG/1.1/DTD/svg11.dtd"><svg class="icon" width="200px" height="200.00px" viewBox="0 0 1024 1024" version="1.1" xmlns="http://www.w3.org/2000/svg"><path d="M668.16 713.216c-23.552 17.408-56.32 7.168-82.944 22.528-8.192 4.608-14.848 10.752-19.456 17.408-23.04 35.328-44.544 71.68-67.584 107.008-13.824 20.992-8.192 38.912 8.704 51.712 18.432 13.824 40.448 13.312 55.296-6.656 41.472-55.808 81.408-112.64 121.856-169.472 11.264-14.848 1.536-20.48-15.872-22.528zM912.896 412.672c-14.848-34.304-39.424-19.968-66.56-15.36-22.528 4.096-47.104 20.48-66.048 3.072-16.384-14.848-26.112-38.912-33.792-60.928-9.728-28.16-32.256-48.128-50.688-77.824 64 24.576 102.4 1.536 121.344-28.672 21.504-34.816 15.36-80.896-13.824-107.52-29.696-27.136-73.728-31.232-106.496-9.728-41.984 27.648-47.616 62.464-19.456 132.096-45.568-14.336-82.944-35.84-122.88-51.712-15.872-6.144-31.232-22.016-49.664-14.336-49.152 19.968-97.792 40.96-145.92 64-29.184 14.336-35.84 34.304-23.552 57.344 10.24 18.432 35.84 24.576 60.928 13.312 21.504-9.216 43.52-18.432 64-29.696 34.816-18.432 66.048-18.944 99.84 4.608 22.016 15.36 18.944 24.576 2.56 39.936C525.824 366.592 486.4 399.36 455.68 440.32c-22.528 30.208-21.504 60.928 5.632 87.04 33.28 31.744 68.096 61.952 101.888 93.696 10.752 9.728 19.456 19.456-5.12 24.064-32.768 6.144-65.536 14.848-98.304 21.504-24.064 5.12-43.52 27.136-39.424 47.104 5.12 23.04 33.28 37.888 57.856 32.256 65.024-15.36 130.048-30.72 195.584-44.032 33.792-7.168 49.152-40.448 29.184-67.584-18.944-25.088-38.912-49.152-57.344-74.752-42.496-59.904-41.984-59.904 11.264-112.64 30.208-29.184 29.696-29.184 52.736 9.216 9.728 16.384 18.432 36.864 43.008 34.816 48.64-3.584 95.744-16.384 142.336-28.672 18.432-5.632 25.6-32.256 17.92-49.664z"  /><path d="M136.704 453.12h250.368c4.096-15.872 11.776-31.744 23.04-47.104 1.024-1.536 2.56-3.072 3.584-4.608-4.608-3.584-10.24-5.632-16.896-5.632H136.704c-15.872 0-28.16 12.8-28.16 28.16-0.512 16.384 12.288 29.184 28.16 29.184zM136.704 559.616h260.608c5.12 0 9.728-1.536 13.824-3.584-13.312-16.384-22.016-34.304-25.6-53.248H136.704c-15.872 0-28.16 12.8-28.16 28.16s12.288 28.672 28.16 28.672zM396.8 609.28H136.704c-15.872 0-28.16 12.8-28.16 28.16s12.8 28.16 28.16 28.16H373.76c1.536-2.56 3.072-5.632 4.608-8.192 10.24-15.36 24.576-28.16 41.472-36.864-5.12-6.656-13.312-11.264-23.04-11.264z"  /></svg>
