<?xml version="1.0" standalone="no"?><!DOCTYPE svg PUBLIC "-//W3C//DTD SVG 1.1//EN" "http://www.w3.org/Graphics/SVG/1.1/DTD/svg11.dtd"><svg class="icon" width="200px" height="193.57px" viewBox="0 0 1058 1024" version="1.1" xmlns="http://www.w3.org/2000/svg"><path d="M432.64 710.656c-7.68-5.12-15.36-10.24-24.064-14.848-4.608-2.048-9.728-3.584-15.36-3.584-4.096 0-10.24 0.512-15.872 4.096-8.704 5.632-11.776 20.992-10.752 29.696 0.512 7.168 5.632 14.848 14.848 22.528 38.912 32.768 84.48 50.176 136.192 51.712 49.664-1.024 94.72-17.408 133.632-48.64 7.168-5.632 29.696-23.552 14.848-48.128-5.632-8.704-12.288-13.312-20.992-13.312-7.68 0-16.384 3.584-27.136 12.288-31.744 24.576-64.512 36.864-98.304 36.864-18.944 0-38.4-4.096-58.368-11.776-9.216-3.584-18.944-10.24-28.672-16.896z"  /><path d="M790.016 400.896c-16.896-16.384-34.816-32.256-52.224-47.616l-17.92-15.872c-27.136-23.552-54.272-47.104-82.432-71.68-2.048-2.048-5.12-5.632-11.264-5.632-3.072 0-6.144 1.024-8.704 3.072-2.56 2.048-7.168 5.632-10.24 5.632-4.608 0-10.24 2.56-9.728 12.8 0 2.56 0 7.168-0.512 15.36v2.048l0.512 2.048c9.728 24.064 19.968 32.256 36.352 45.568 7.168 5.632 15.36 12.288 26.112 22.016 24.064 22.016 51.712 49.152 96.768 95.232 74.24 75.264 69.632 149.504 40.448 237.056-34.304 101.888-153.088 173.568-288.768 173.568-24.064 0-48.128-2.048-71.68-6.656-64.512-12.288-118.784-39.424-161.28-80.384-51.712-50.176-73.216-108.032-64-171.52 7.68-52.736 16.896-117.76 69.12-158.208 73.216-62.464 113.152-96.768 196.608-182.272l5.632-6.144-0.512-0.512c12.8-17.92 26.112-60.416 21.504-96.256v-1.536s-6.656-12.8-9.216-17.408c-11.776-23.552-18.944-37.888-40.96-45.568-1.024-1.024-22.016-17.408-22.016-17.408l2.048 24.576c3.072 35.328 4.608 53.248-5.632 92.16-6.656 25.6-18.944 48.128-35.84 66.56C360.96 307.2 323.072 334.848 286.72 359.936l-5.632 4.096c-13.312 9.216-27.136 18.432-39.936 28.672l-0.512 1.024-0.512-0.512c-20.48-21.504-42.496-35.84-67.072-44.032-2.048-0.512-4.608-1.024-7.168-1.536l-20.48-3.584 7.168 15.36s3.072 6.144 3.584 7.68c1.536 4.096 3.072 8.704 5.12 12.8 3.584 9.216 7.168 17.408 8.704 26.112 5.632 34.816 0 69.12-10.24 110.08-41.984 172.032 10.24 290.304 164.864 373.248 55.296 29.696 116.736 44.544 182.272 44.544 29.696 0 59.904-3.072 90.624-9.216 131.072-26.112 233.984-115.2 269.312-232.448 30.72-103.936 2.048-212.992-76.8-291.328z"  /></svg>
