<?xml version="1.0" standalone="no"?><!DOCTYPE svg PUBLIC "-//W3C//DTD SVG 1.1//EN" "http://www.w3.org/Graphics/SVG/1.1/DTD/svg11.dtd"><svg class="icon" width="200px" height="193.57px" viewBox="0 0 1058 1024" version="1.1" xmlns="http://www.w3.org/2000/svg"><path d="M535.90528 775.6544c-47.36512-1.29024-90.09664-16.5376-127.80544-48.53248-4.91008-4.15232-10.91584-10.37824-11.55072-16.31744-0.74752-6.8096 2.2272-17.89952 6.69696-20.72064 5.6832-3.58912 15.5392-3.37408 21.73952-0.16384 18.02752 9.40544 34.23744 23.92576 52.70528 31.45728 57.28768 23.29088 111.488 13.25056 161.65888-25.53856 16.72192-12.9024 26.63936-13.568 34.2016-1.20832 7.22944 11.93472 3.67616 22.53824-12.48256 35.49184-37.71904 30.27456-79.90784 44.55936-125.16352 45.53216z"  /><path d="M193.4592 508.80512c8.96-36.736 15.86688-73.78432 9.89696-111.36512-2.16064-13.53216-8.8832-26.4448-13.60384-39.66464-0.83456-2.31936-1.98144-4.57728-3.64544-8.25344 4.28544 0.7424 7.07072 0.88576 9.6 1.73056 25.1904 8.13056 44.90752 22.69696 61.85984 40.59648 6.25152 6.5792 5.65248 5.89824 13.056 0.27136 14.2336-10.88 29.21472-21.0688 44.04224-31.33952 37.69856-26.06592 74.20416-53.248 104.64768-86.07232 18.78528-20.28032 30.65856-43.61728 37.1712-68.9408 10.55232-41.1904 8.48896-59.15136 5.25824-97.50016 3.03104 2.36544 4.98176 3.78368 6.76352 5.33504 23.46496 7.3728 27.05408 22.656 44.97408 56.448 4.84864 36.4288-11.37664 82.18624-22.6816 91.96544-3.08224 2.46272 3.13856-2.45248-1.00864 1.75104C409.82528 345.66656 370.6368 379.40736 297.91744 441.6c-52.4544 40.73472-62.34624 103.98208-70.42048 160.33792-9.36448 65.47456 12.81024 124.27776 65.26464 175.44704 42.496 41.41568 97.00864 68.8384 162.13504 81.06496 161.86368 30.37184 321.05472-45.45536 362.48576-168.86784 28.78464-85.76 34.88256-163.05664-41.57952-240.78848-46.73024-47.39072-72.2176-72.68864-95.02208-93.3888-34.68288-31.53408-46.37184-31.81568-58.75712-62.62272 2.10432-32.43008-5.2736-9.40544 16.50688-26.30144 4.46976-3.42016 6.6304 0.62976 8.97024 2.68288 26.63936 23.03488 53.28896 46.07488 79.70816 69.31456 23.04 20.28032 46.82752 40.01792 68.46976 61.43488 170.112 168.5248 70.00064 446.71488-184.192 497.73056-90.42432 18.10432-180.79744 9.2672-261.11488-33.67936-166.64576-89.1136-192.06144-211.3536-156.91264-355.15904z"  /></svg>
