<?xml version="1.0" standalone="no"?><!DOCTYPE svg PUBLIC "-//W3C//DTD SVG 1.1//EN" "http://www.w3.org/Graphics/SVG/1.1/DTD/svg11.dtd"><svg t="1607501866390" class="icon" viewBox="0 0 1024 1024" version="1.1" xmlns="http://www.w3.org/2000/svg" p-id="10993" xmlns:xlink="http://www.w3.org/1999/xlink" width="200" height="200"><defs><style type="text/css"></style></defs><path d="M764.928 430.592c0-141.312-119.296-268.8-255.488-268.8S256.512 289.28 256.512 430.592v85.504h28.16c28.672 0 43.008 8.192 43.008 35.328v177.664c0 27.136-14.336 35.328-43.008 35.328H153.088c-28.672 0-43.008-8.192-43.008-35.328v-1.024-178.688c0-1.536 0-3.584 0.512-5.12 2.56-21.504 16.384-28.16 42.496-28.16h28.672V430.592c0-188.416 146.944-340.992 328.192-340.992s328.192 152.576 328.192 340.992v85.504h33.28c28.672 0 43.008 8.192 43.008 35.328v177.664c0 27.136-14.336 35.328-43.008 35.328h-35.328v135.168c0 27.136-14.336 35.328-43.008 35.328H429.056c-28.672 0-43.008-8.192-43.008-35.328 0-27.136 14.336-35.328 43.008-35.328h335.872v-93.184-6.144h-25.6c-28.672 0-43.008-8.192-43.008-35.328v-1.024-178.688c0-1.536 0-3.584 0.512-5.12 2.56-21.504 16.384-28.16 42.496-28.16h25.6V430.592z m-507.392 156.16H179.712v106.496h78.336v-106.496z m586.752 0h-78.336v106.496h78.336v-106.496z" p-id="10994"></path></svg>