<?xml version="1.0" standalone="no"?><!DOCTYPE svg PUBLIC "-//W3C//DTD SVG 1.1//EN" "http://www.w3.org/Graphics/SVG/1.1/DTD/svg11.dtd"><svg t="1607393896717" class="icon" viewBox="0 0 1024 1024" version="1.1" xmlns="http://www.w3.org/2000/svg" p-id="12666" xmlns:xlink="http://www.w3.org/1999/xlink" width="200" height="200"><defs><style type="text/css"></style></defs><path d="M818.0736 413.4912c0-171.264-144.4864-325.7856-308.8896-325.7856-164.4032 0-306.6368 154.5216-306.6368 325.7856v103.424h34.0992c34.7136 0 52.0704 10.0864 52.0704 42.8544l-0.256 6.2976v202.3936c0.1536 1.9968 0.256 4.096 0.256 6.2464 0 32.768-17.408 42.9056-52.0704 42.9056H77.6704c-34.6624 0-52.0192-10.0864-52.0192-42.9056L25.6 557.2096c0-2.2016 0.2048-4.3008 0.512-6.2976 3.072-25.8048 20.2752-34.048 51.5584-34.048h34.56V413.4912C112.2304 185.1392 289.9456 0 509.184 0c219.1872 0 396.9024 185.1392 396.9024 413.4912v103.424h40.2944c34.6624 0 52.0192 10.0864 52.0192 42.8544l-0.256 6.2976v202.3936c0.1536 1.9968 0.256 4.096 0.256 6.2464 0 32.768-17.3568 42.9056-52.0192 42.9056h-42.752c0.1536 2.4064 0.2048 4.864 0.2048 7.4752v154.3168l-0.0512 0.6144v1.0752c0 32.768-17.3568 42.9056-52.0192 42.9056h-440.32c-34.7136 0-52.0704-10.1376-52.0704-42.9056 0-32.768 17.3568-42.9056 52.0192-42.9056h406.7328v-113.152c0-2.56 0.1024-5.0176 0.2048-7.424h-30.9248c-34.7136 0-52.0704-10.0864-52.0704-42.9056V557.2096c0-2.2016 0.1536-4.3008 0.512-6.2976 3.072-25.8048 20.224-34.048 51.5584-34.048h30.6688V413.4912zM204.288 602.624H109.7216v129.1776h94.6176V602.624z m709.6832 0h-94.6176v129.1776h94.6176V602.624z" p-id="12667"></path></svg>