<?xml version="1.0" standalone="no"?><!DOCTYPE svg PUBLIC "-//W3C//DTD SVG 1.1//EN" "http://www.w3.org/Graphics/SVG/1.1/DTD/svg11.dtd"><svg class="icon" width="200px" height="200.00px" viewBox="0 0 1024 1024" version="1.1" xmlns="http://www.w3.org/2000/svg"><path d="M772.1 447.2c-18.45-127.8-127.35-226.35-260.1-226.35-132.75 0-241.65 98.55-260.1 226.35H174.5c18.9-169.65 162.45-301.95 337.5-301.95s318.6 131.85 337.5 301.95h-77.4z"  /><path d="M813.05 731.15c-52.2 0-94.5-42.3-94.5-94.5v-112.95c0-52.2 42.3-94.5 94.5-94.5s94.5 42.3 94.5 94.5v112.95c-0.45 52.2-42.75 94.5-94.5 94.5z m18.45-226.35h-37.8v150.75h37.8V504.8zM228.05 655.55V467h-37.8v188.55H116.9c-1.35-6.3-1.8-12.6-1.8-18.9v-112.95c0-52.2 42.3-94.5 94.5-94.5s94.5 42.3 94.5 94.5v112.95c0 6.3-0.45 12.6-1.8 18.9H228.05z m-18.9 75.6z"  /><path d="M478.7 757.7c13.5 12.6 31.5 20.25 51.3 20.25h24.75c-21.15 44.55-66.15 75.6-118.8 75.6h-189c-72.9 0-131.85-58.95-131.85-131.85 0-25.2 7.2-48.6 19.8-68.4 14.4 21.15 23.85 32.4 49.05 40.05-3.6 7.2 6.75 19.8 6.75 28.35 0 31.05 25.2 56.7 56.7 56.7H435.5c17.55-0.45 32.85-8.55 43.2-20.7z"  /><path d="M530 726.65c41.85 0 75.6 33.75 75.6 75.6s-33.75 75.6-75.6 75.6-75.6-33.75-75.6-75.6 33.75-75.6 75.6-75.6zM115.1 580.4h75.6v150.75H115.1v-150.75z"  /></svg>
