<?xml version="1.0" standalone="no"?><!DOCTYPE svg PUBLIC "-//W3C//DTD SVG 1.1//EN" "http://www.w3.org/Graphics/SVG/1.1/DTD/svg11.dtd"><svg class="icon" width="200px" height="200.00px" viewBox="0 0 1024 1024" version="1.1" xmlns="http://www.w3.org/2000/svg"><path fill="#333333" d="M584.8 566.6c-0.2-2.3-0.8-4.5-1.6-6.6 32.7 4.8 64.3 14.2 94.4 28.1 14.8 6.8 32.3 0.4 39.1-14.4 6.8-14.8 0.3-32.3-14.4-39.1-17.7-8.2-35.9-15-54.4-20.5 9.8-7 19.1-14.9 27.7-23.6 42.4-42.4 65.7-98.7 65.7-158.7 0-59.9-23.3-116.3-65.7-158.7s-98.7-65.7-158.7-65.7c-59.9 0-116.3 23.3-158.7 65.7s-65.7 98.7-65.7 158.7c0 59.9 23.3 116.3 65.7 158.7 11.5 11.5 23.9 21.5 37.2 30.1-6.4 2.3-12.8 4.7-19.1 7.3-47.6 19.6-90.3 47.6-127 83.3-36.8 35.8-65.6 77.4-85.8 123.9C142.6 783.2 132 834.4 132 887c0 16.3 13.2 29.5 29.5 29.5S191 903.3 191 887c0-88.2 35.3-171.1 99.5-233.5 44.4-43.2 99-73.1 158.5-87.4 0 0.2 0 0.4-0.1 0.6l-20 205c-0.8 8.2 2.7 16.3 9.2 21.3l64 49.5c4.3 3.4 9.5 5 14.7 5 5.2 0 10.4-1.7 14.7-5l64-49.5c6.5-5 10-13.1 9.2-21.3l-19.9-205.1zM351.6 331.8c0-91.2 74.2-165.4 165.4-165.4s165.4 74.2 165.4 165.4S608.2 497.2 517 497.2c-91.2-0.1-165.4-74.2-165.4-165.4z m165.3 461.3l-38.8-30L494.7 593h44.4l16.6 170.1-38.8 30z m140.8-149.6c-4.9 4.9-8 11.7-8 19.2 0 15 12.2 27.2 27.2 27.2h187.8c7.5 0 14.3-3 19.2-8 4.9-4.9 8-11.7 8-19.2 0-15-12.2-27.2-27.2-27.2H676.9c-7.5 0-14.3 3-19.2 8z m207 90.6H676.9c-7.5 0-14.3 3-19.2 8s-8 11.7-8 19.2c0 15 12.2 27.2 27.2 27.2h187.8c7.5 0 14.3-3 19.2-8 4.9-4.9 8-11.7 8-19.2 0-15-12.1-27.2-27.2-27.2z m0 98.6H676.9c-15 0-27.2 12.2-27.2 27.2s12.2 27.2 27.2 27.2h187.8c15 0 27.2-12.2 27.2-27.2s-12.1-27.2-27.2-27.2z" /></svg>