<?xml version="1.0" standalone="no"?><!DOCTYPE svg PUBLIC "-//W3C//DTD SVG 1.1//EN" "http://www.w3.org/Graphics/SVG/1.1/DTD/svg11.dtd"><svg t="1610016663953" class="icon" viewBox="0 0 1024 1024" version="1.1" xmlns="http://www.w3.org/2000/svg" p-id="13123" xmlns:xlink="http://www.w3.org/1999/xlink" width="200" height="200"><defs><style type="text/css"></style></defs><path d="M706.048 224c55.808 0 103.552 18.944 122.368 87.68 5.568 20.224 1.344 57.28 1.344 80.32 0 31.232 1.6 53.12-8.192 78.784-17.024 44.416-33.6 81.792-55.424 105.792v19.968L960 732.096v67.84l-506.432 0.064-0.064-0.128L64 800v-67.84l192.256-135.68v-19.712c-21.76-23.872-38.144-61.248-55.296-105.792-9.856-25.728-8.192-47.744-8.192-78.976 0-23.04-4.288-59.904 1.28-80.192C212.864 243.008 260.608 224 316.48 224c55.808 0 103.552 18.944 122.368 87.68 5.568 20.224 1.344 57.28 1.344 80.32 0 31.232 1.6 53.12-8.192 78.784-17.024 44.416-33.6 81.792-55.424 105.792v19.968l135.232 94.528 134.016-94.528v-19.776c-21.76-23.872-38.144-61.248-55.296-105.792-9.856-25.728-8.192-47.744-8.192-78.976 0-23.04-4.288-59.904 1.28-80.192 18.816-68.8 66.56-87.808 122.432-87.808z" p-id="13124"></path></svg>