<?xml version="1.0" standalone="no"?><!DOCTYPE svg PUBLIC "-//W3C//DTD SVG 1.1//EN" "http://www.w3.org/Graphics/SVG/1.1/DTD/svg11.dtd"><svg class="icon" width="200px" height="200.00px" viewBox="0 0 1024 1024" version="1.1" xmlns="http://www.w3.org/2000/svg"><path d="M461.184 928.469333l-344.32-344.32a34.773333 34.773333 0 0 1 0-49.194666L534.954667 116.842667a34.709333 34.709333 0 0 1 27.989333-10.026667h340.778667c19.2 0 34.773333 15.573333 34.773333 34.794667v340.778666c0.981333 9.984-2.346667 20.330667-10.026667 27.968l-418.090666 418.133334a34.773333 34.773333 0 0 1-49.194667 0z m441.941333-441.92l0.597334-50.133333V158.997333a17.386667 17.386667 0 0 0-17.386667-17.386666H608.917333l-50.133333 0.597333L153.749333 547.264a17.386667 17.386667 0 0 0 0 24.597333l319.722667 319.722667a17.386667 17.386667 0 0 0 24.597333 0l405.056-405.034667z m-429.653333 282.069334a17.386667 17.386667 0 1 1 24.597333-24.597334 17.386667 17.386667 0 0 1-24.597333 24.597334z m-60.714667-60.714667l-123.733333-123.733333a17.386667 17.386667 0 0 1 24.597333-24.618667l123.733334 123.733333a17.386667 17.386667 0 0 1-24.597334 24.618667z m294.378667-369.706667a69.546667 69.546667 0 1 1 98.368-98.368 69.546667 69.546667 0 0 1-98.368 98.368z m73.770667-73.770666A34.773333 34.773333 0 1 0 731.733333 313.6a34.773333 34.773333 0 0 0 49.194667-49.173333z"  /></svg>
