<?xml version="1.0" standalone="no"?><!DOCTYPE svg PUBLIC "-//W3C//DTD SVG 1.1//EN" "http://www.w3.org/Graphics/SVG/1.1/DTD/svg11.dtd"><svg t="1619680149287" class="icon" viewBox="0 0 1024 1024" version="1.1" xmlns="http://www.w3.org/2000/svg" p-id="15905" xmlns:xlink="http://www.w3.org/1999/xlink" width="128" height="128"><defs><style type="text/css"></style></defs><path d="M966.332632 237.487158l-179.065264-179.092211a57.263158 57.263158 0 0 0-81.111579 0.215579l-256.943157 256.862316a57.397895 57.397895 0 0 0-0.215579 81.192421l20.830315 37.106526 69.335579-69.308631c-11.048421-11.102316-11.129263-23.578947 0-34.681263l208.033685-207.97979 155.944421 155.944421-207.97979 207.97979c-11.102316 11.129263-23.578947 11.129263-34.681263 0L591.225263 555.115789l36.837053 20.614737a57.451789 57.451789 0 0 0 81.192421-0.188631l256.862316-256.889263c22.447158-22.366316 22.554947-58.691368 0.215579-81.165474zM556.544 589.716211l-52.008421 52.008421-17.327158 17.381052c11.668211 11.641263 11.722105 22.905263 0 34.627369l-207.952842 208.033684-156.106105-156.025263 208.033684-207.97979c11.722105-11.695158 22.986105-11.641263 34.627368 0l69.335579-69.308631-37.672421-20.345264a57.344 57.344 0 0 0-81.111579 0.215579L59.418947 705.212632a57.397895 57.397895 0 0 0-0.215579 81.111579l179.065264 179.065263a57.344 57.344 0 0 0 81.111579-0.215579l256.943157-256.862316a57.397895 57.397895 0 0 0 0.215579-81.111579l-19.994947-37.456842z m-208.033684 138.64421l398.659368-398.632421-52.008421-52.008421L296.474947 676.378947l52.008421 52.008421z" p-id="15906"></path></svg>