<?xml version="1.0" standalone="no"?><!DOCTYPE svg PUBLIC "-//W3C//DTD SVG 1.1//EN" "http://www.w3.org/Graphics/SVG/1.1/DTD/svg11.dtd"><svg t="1607414499022" class="icon" viewBox="0 0 1024 1024" version="1.1" xmlns="http://www.w3.org/2000/svg" p-id="10963" xmlns:xlink="http://www.w3.org/1999/xlink" width="200" height="200"><defs><style type="text/css"></style></defs><path d="M512 0a512 512 0 1 1 0 1024A512 512 0 0 1 512 0z m57.344 443.84c-54.72-52.864-135.552-43.136-205.952 24.96l-113.28 109.568-4.288 4.416a136.32 136.32 0 0 0 4.352 192.64l9.408 8.32c25.92 20.928 58.368 32.384 91.968 32.256l12.544-0.512a145.536 145.536 0 0 0 88.896-40.064l30.784-29.824 0.896-0.896a36.096 36.096 0 0 0-0.704-51.072l-5.248-4.224a38.4 38.4 0 0 0-48 4.096l-30.784 29.76a70.144 70.144 0 0 1-96.704 0l-2.24-2.176a64 64 0 0 1 2.24-90.56l113.28-109.568c23.424-22.656 67.584-56.064 99.712-24.96a38.336 38.336 0 0 0 53.312-0.192l4.352-5.12a36.096 36.096 0 0 0-4.48-46.848z m195.968-183.68c-57.92-49.28-134.912-49.664-186.752 0.448l-38.272 37.12a36.096 36.096 0 0 0-0.256 51.968l5.248 4.224a38.4 38.4 0 0 0 48-4.032l38.4-37.12c28.16-27.264 65.024-16 89.088 7.296l2.24 2.176a64 64 0 0 1-2.176 90.56L600 529.728c-55.232 53.44-81.216 28.288-92.224 17.664a38.4 38.4 0 0 0-53.312 0.128l-0.448 0.512-0.512 0.512a36.032 36.032 0 0 0 1.216 50.944l8.576 7.68c23.168 19.392 49.088 29.056 76.032 29.056 37.12 0 76.416-18.304 113.728-54.4l120.832-116.864a136.192 136.192 0 0 0 0-197.056z" p-id="10964"></path></svg>