<?xml version="1.0" standalone="no"?><!DOCTYPE svg PUBLIC "-//W3C//DTD SVG 1.1//EN" "http://www.w3.org/Graphics/SVG/1.1/DTD/svg11.dtd"><svg t="1625552067293" class="icon" viewBox="0 0 1024 1024" version="1.1" xmlns="http://www.w3.org/2000/svg" p-id="31451" width="16" height="16" xmlns:xlink="http://www.w3.org/1999/xlink"><defs><style type="text/css"></style></defs><path d="M924.858182 262.516364l-162.909091-162.909091c-20.48-20.48-53.527273-20.48-73.541818 0L454.749091 333.265455c-20.48 20.48-20.48 53.527273 0 74.007272l19.083636 33.512728 62.836364-62.836364c-10.24-10.24-10.24-21.410909 0-31.650909l188.974545-188.974546 141.963637 141.963637-188.974546 188.974545c-10.24 10.24-21.410909 10.24-31.650909 0l-62.836363 63.301818 33.512727 18.618182c20.48 20.48 53.527273 20.014545 74.007273 0l233.658181-233.658182c20.014545-20.48 20.014545-53.527273-0.465454-74.007272z m-372.363637 320.232727l-47.476363 47.476364-15.825455 15.825454c10.705455 10.705455 10.705455 20.945455 0 31.650909l-188.974545 188.974546L158.254545 724.712727 347.694545 535.272727c10.705455-10.705455 20.945455-10.705455 31.65091 0L442.181818 472.436364l-34.443636-18.618182c-20.48-20.48-53.527273-20.014545-73.541818 0l-233.658182 233.658182c-20.48 20.48-20.48 53.527273 0 73.541818l162.909091 162.909091c20.48 20.48 53.527273 20.014545 73.541818 0l233.658182-233.658182c20.48-20.48 20.48-53.527273 0-73.541818l-18.152728-33.978182z m-188.974545 126.138182L726.109091 346.298182l-47.476364-47.476364-362.589091 362.589091 47.476364 47.476364z" p-id="31452" fill="#383838"></path></svg>