<?xml version="1.0" standalone="no"?><!DOCTYPE svg PUBLIC "-//W3C//DTD SVG 1.1//EN" "http://www.w3.org/Graphics/SVG/1.1/DTD/svg11.dtd"><svg class="icon" width="200px" height="200.00px" viewBox="0 0 1024 1024" version="1.1" xmlns="http://www.w3.org/2000/svg"><path d="M787.692308 838.498462H185.107692A53.956923 53.956923 0 0 1 127.606154 787.692308c-3.150769-20.086154-17.329231-114.215385-33.476923-217.796923-20.48-131.150769-42.929231-275.692308-47.261539-307.2a70.892308 70.892308 0 0 1 0-28.75077 52.775385 52.775385 0 0 1 81.526154-29.932307l42.929231 29.144615 113.033846 78.769231L472.615385 98.067692A56.713846 56.713846 0 0 1 512 78.769231a57.501538 57.501538 0 0 1 42.535385 19.298461l185.895384 212.676923 155.569231-105.944615A53.956923 53.956923 0 0 1 945.230769 196.923077a55.138462 55.138462 0 0 1 37.021539 61.046154l-83.889231 532.086154a53.169231 53.169231 0 0 1-55.532308 48.443077zM180.381538 787.692308h665.993847a15.753846 15.753846 0 0 0 0-4.726154L929.476923 249.304615a3.544615 3.544615 0 0 0 0-3.938461h-2.756923L769.575385 354.461538l-36.627693 24.418462-14.572307-16.935385-200.861539-229.218461A4.726154 4.726154 0 0 0 512 129.969231a4.726154 4.726154 0 0 0-3.938462 1.969231L307.987692 361.550769l-14.966154 16.935385L142.178462 275.692308l-42.535385-29.538462v9.846154c4.726154 29.932308 27.175385 175.655385 47.261538 306.412308 16.147692 103.975385 30.72 196.923077 33.476923 218.584615a22.449231 22.449231 0 0 0 2.363077 6.695385z m0 0M877.489231 870.006154v2.363077c0 9.058462-2.756923 17.723077-3.938462 26.781538a27.963077 27.963077 0 0 1-30.326154 26.781539H185.107692a28.750769 28.750769 0 0 1-31.901538-28.75077l-4.332308-27.175384z m0 0"  /><path d="M512 576.590769a51.593846 51.593846 0 1 1 0 102.793846 51.593846 51.593846 0 0 1 0-102.793846z m0 0"  /></svg>
