<?xml version="1.0" standalone="no"?><!DOCTYPE svg PUBLIC "-//W3C//DTD SVG 1.1//EN" "http://www.w3.org/Graphics/SVG/1.1/DTD/svg11.dtd"><svg t="1603425527053" class="icon" viewBox="0 0 1024 1024" version="1.1" xmlns="http://www.w3.org/2000/svg" p-id="31643" xmlns:xlink="http://www.w3.org/1999/xlink" width="200" height="200"><defs><style type="text/css"></style></defs><path d="M583.68 163.84c0-37.12-32-67.84-71.68-67.84-39.68 0-71.68 30.72-71.68 67.84 0 3.84 0 7.68 1.28 11.52-98.56 33.28-179.2 133.12-179.2 253.44v93.44s0 135.68-34.56 136.96c-20.48 0-35.84 15.36-35.84 34.56 0 19.2 15.36 34.56 35.84 34.56h568.32c19.2 0 35.84-15.36 35.84-34.56 0-19.2-15.36-34.56-35.84-34.56-35.84 0-35.84-135.68-35.84-135.68V428.8c0-119.04-75.52-220.16-179.2-253.44 1.28-3.84 2.56-7.68 2.56-11.52z m34.56 597.76c0 56.32-47.36 102.4-106.24 102.4-58.88 0-106.24-46.08-106.24-102.4h212.48z" p-id="31644"></path></svg>