<?xml version="1.0" standalone="no"?><!DOCTYPE svg PUBLIC "-//W3C//DTD SVG 1.1//EN" "http://www.w3.org/Graphics/SVG/1.1/DTD/svg11.dtd"><svg class="icon" width="200px" height="200.00px" viewBox="0 0 1024 1024" version="1.1" xmlns="http://www.w3.org/2000/svg"><path d="M848.384 500.224c-19.456-2.048-38.4 0-55.808 6.144l-74.24-94.72c12.8-19.968 20.48-43.52 20.48-68.608 0-69.632-56.32-125.952-125.952-125.952S486.4 273.408 486.4 343.04c0 41.472 19.968 78.336 51.2 101.376l-58.88 119.296c-14.336-5.632-29.696-8.704-46.08-8.704-19.456 0-38.4 4.608-54.784 12.8L298.496 486.4c11.264-18.944 17.92-40.96 17.92-64.512 0-69.632-56.32-125.952-125.952-125.952s-125.952 56.32-125.952 125.952 56.32 125.952 125.952 125.952c23.04 0 45.056-6.144 63.488-17.408l76.288 77.312c-14.336 20.48-23.04 45.568-23.04 72.192 0 69.632 56.32 125.952 125.952 125.952s125.952-56.32 125.952-125.952c0-30.208-10.752-57.856-28.16-79.36l65.536-133.632c5.12 0.512 10.752 1.024 15.872 1.024 20.992 0 40.96-5.12 58.88-14.336l68.608 87.04c-16.896 18.944-28.16 42.496-31.232 69.12-7.68 69.12 41.984 131.584 111.104 139.264 4.608 0.512 9.728 1.024 14.336 1.024 62.976 0 117.76-47.616 124.928-111.616 8.192-68.096-41.984-130.56-110.592-138.24zM127.488 422.4c0-34.816 28.16-62.976 62.976-62.976 34.816 0 62.976 28.16 62.976 62.976 0 34.816-28.16 62.976-62.976 62.976-34.816 0-62.976-28.672-62.976-62.976z m305.664 321.536c-34.816 0-62.976-28.16-62.976-62.976 0-34.816 28.16-62.976 62.976-62.976 34.816 0 62.976 28.16 62.976 62.976 0 34.816-28.16 62.976-62.976 62.976zM549.888 343.04c0-34.816 28.16-62.976 62.976-62.976 34.816 0 62.976 28.16 62.976 62.976 0 34.816-28.16 62.976-62.976 62.976-34.816-0.512-62.976-28.672-62.976-62.976z m346.624 289.28c-4.096 34.304-35.328 59.392-69.632 55.296-34.304-4.096-59.392-35.328-55.296-69.632 3.584-32.256 30.72-55.808 62.464-55.808 2.56 0 4.608 0 7.168 0.512 34.304 4.096 58.88 35.328 55.296 69.632z"  /></svg>
