<?xml version="1.0" standalone="no"?><!DOCTYPE svg PUBLIC "-//W3C//DTD SVG 1.1//EN" "http://www.w3.org/Graphics/SVG/1.1/DTD/svg11.dtd"><svg class="icon" width="200px" height="200.00px" viewBox="0 0 1024 1024" version="1.1" xmlns="http://www.w3.org/2000/svg"><path d="M241.033846 331.618462V945.230769H177.230769V331.618462h63.803077m24.418462-59.076924H153.206154A34.658462 34.658462 0 0 0 118.153846 307.2v662.055385a35.052308 35.052308 0 0 0 35.052308 35.052307h112.246154a34.658462 34.658462 0 0 0 34.658461-35.052307V307.2a34.264615 34.264615 0 0 0-34.658461-34.658462zM543.901538 95.310769V945.230769h-63.803076V95.310769h63.803076m24.418462-59.076923h-112.64a34.264615 34.264615 0 0 0-34.658462 34.658462v898.363077a34.658462 34.658462 0 0 0 34.658462 35.052307h112.64a34.658462 34.658462 0 0 0 34.658462-35.052307V70.892308a34.264615 34.264615 0 0 0-34.658462-34.658462zM846.769231 567.926154V945.230769h-64.196923v-377.304615h64.196923m24.024615-59.076923h-112.246154a34.658462 34.658462 0 0 0-35.052307 34.658461v425.747693a35.052308 35.052308 0 0 0 35.052307 35.052307h112.246154a35.052308 35.052308 0 0 0 35.052308-35.052307V543.507692a34.658462 34.658462 0 0 0-35.052308-34.658461z"  /></svg>
