<?xml version="1.0" encoding="UTF-8"?>
<svg width="16px" height="16px" viewBox="0 0 16 16" version="1.1" xmlns="http://www.w3.org/2000/svg" xmlns:xlink="http://www.w3.org/1999/xlink">
    <!-- Generator: Sketch 63.1 (92452) - https://sketch.com -->
    <title>营销</title>
    <desc>Created with Sketch.</desc>
    <g id="营销" stroke="none" stroke-width="1" fill="none" fill-rule="evenodd">
        <g id="编组">
            <rect id="矩形" fill="#ffffff" opacity="0" x="0" y="0" width="16" height="16"></rect>
            <path d="M9.12008743,2.55987228 C9.12008743,1.98000686 8.61993743,1.5 8.00021429,1.5 C7.38006257,1.5 6.87991257,1.98000686 6.87991257,2.55987228 C6.87991257,2.61987314 6.87991257,2.679874 6.90005572,2.73987486 C5.36017657,3.260168 4.10015857,4.82019029 4.10015857,6.69993143 L4.10015857,8.16009514 C4.10015857,8.16009514 4.10015857,10.2802683 3.56015086,10.2999829 C3.24000343,10.2999829 3,10.5399863 3,10.8399906 C3,11.1399949 3.24000343,11.3799983 3.56015086,11.3799983 L12.4402777,11.3799983 C12.740282,11.3799983 13,11.1399949 13,10.8399906 C13,10.5399863 12.7599966,10.2999829 12.4402777,10.2999829 C11.8801269,10.2999829 11.8801269,8.18023829 11.8801269,8.18023829 L11.8801269,6.69993143 C11.8801269,4.83990486 10.7002529,3.260168 9.08022972,2.73987486 C9.09994428,2.679874 9.12008743,2.61987314 9.12008743,2.55987228 Z M9.66009514,11.9002914 C9.66009514,12.7801611 8.91994171,13.5001714 8.00021429,13.5001714 C7.08005829,13.5001714 6.33990486,12.7801611 6.33990486,11.9002914 L9.66009514,11.9002914 L9.66009514,11.9002914 Z" id="形状" fill="#FFFFFF"></path>
        </g>
    </g>
</svg>
