<?xml version="1.0" standalone="no"?><!DOCTYPE svg PUBLIC "-//W3C//DTD SVG 1.1//EN" "http://www.w3.org/Graphics/SVG/1.1/DTD/svg11.dtd"><svg class="icon" width="200px" height="200.00px" viewBox="0 0 1024 1024" version="1.1" xmlns="http://www.w3.org/2000/svg"><path d="M900.608 147.968c-0.512-2.048-1.024-4.096-1.536-5.632v-0.512c-0.512-1.536-1.536-3.584-2.56-5.12v-0.512c-2.048-3.584-5.12-6.144-8.704-8.704h-0.512c-1.536-1.024-3.072-2.048-5.12-2.56h-0.512c-1.536-0.512-3.584-1.024-5.12-1.536h-0.512c-2.048-0.512-3.584-0.512-5.632-0.512h-184.32c-16.896 0-30.72 13.824-30.72 30.72s13.824 30.72 30.72 30.72h110.08l-152.576 152.576c-54.272-45.056-123.904-72.192-199.68-72.704-84.992-0.512-165.376 31.744-225.792 91.648S123.392 495.104 122.88 580.096c-1.536 175.616 140.288 319.488 315.904 321.024h2.56c83.968 0 163.328-32.256 223.232-91.648 60.416-59.904 94.208-139.264 95.232-224.256 0.512-77.824-26.624-148.992-72.704-204.8L839.68 227.84V337.92c0 16.896 13.824 30.72 30.72 30.72s30.72-13.824 30.72-30.72V153.6c0-2.048 0-3.584-0.512-5.632z m-279.04 617.984c-49.152 48.128-113.664 74.24-182.272 73.728-141.824-1.024-256-117.248-254.976-259.072 0.512-68.608 27.648-133.12 76.8-181.248 48.64-47.616 112.64-73.728 180.224-73.728h2.048c141.824 1.024 256 117.248 254.976 259.072-0.512 68.608-27.648 133.12-76.8 181.248z"  /></svg>
