<?xml version="1.0" standalone="no"?><!DOCTYPE svg PUBLIC "-//W3C//DTD SVG 1.1//EN" "http://www.w3.org/Graphics/SVG/1.1/DTD/svg11.dtd"><svg class="icon" width="200px" height="200.00px" viewBox="0 0 1024 1024" version="1.1" xmlns="http://www.w3.org/2000/svg"><path d="M723.39729067 242.171904h-347.88693334c-18.83613867 0-31.408128 12.582912-31.408128 31.50097067 0 18.90167467 12.57198933 31.506432 31.408128 31.506432h347.88693334c18.84706133 0 31.41905067-12.60475733 31.41905066-31.506432 0-18.92352-12.57198933-31.50097067-31.41905066-31.50097067z m0 0"  /><path d="M924.71842133 349.30688l-113.082368-219.74766933c-6.28599467-25.22043733-31.42997333-37.82519467-56.53572266-37.82519467h-498.67434667c-25.116672 0-43.98011733 12.60475733-56.51387733 37.82519467L86.818816 349.30688C80.55466667 355.598336 80.55466667 368.20309333 80.55466667 374.51093333c6.26414933 100.83805867 87.95477333 182.779904 188.448768 182.779904 62.816256 0 86.99357867-31.51189333 118.37986133-88.244224 31.41358933 56.737792 55.57998933 88.244224 118.39624533 88.244224 62.82717867 0 86.97173333-31.51189333 118.37986134-88.244224 31.408128 56.737792 55.55268267 88.244224 118.37986133 88.244224 100.48853333 0 182.18461867-81.94184533 188.448768-176.472064-0.00546133-12.61568-0.00546133-25.22043733-6.26961067-31.51189333z m-182.18461866 144.94378667c-56.53026133 0-68.13559467-37.80881067-80.70212267-94.53021867-6.26414933-18.907136-18.83613867-25.20951467-37.67227733-25.20951467s-31.408128 6.30237867-37.67227734 25.20951467c-12.57198933 56.721408-24.17732267 94.53021867-80.70212266 94.53021867-56.55210667 0-68.15197867-37.80881067-80.71850667-94.53021867-6.258688-18.907136-18.825216-25.20951467-37.67227733-25.20951467-18.825216 0-31.38628267 6.30237867-37.67773867 25.20951467-12.56106667 56.721408-24.14455467 94.53021867-80.69666133 94.53021867-69.08040533 0-119.35197867-50.40810667-125.632512-119.73973334l113.06052266-219.758592h498.67434667l113.06052267 219.758592C861.90762667 443.84256 811.63605333 494.25066667 742.53380267 494.25066667z m-218.86839467 384.87108266H237.60622933v-227.30615466c0-18.89621333-12.582912-31.50097067-31.41905066-31.50097067-18.84706133 0-31.408128 12.60475733-31.408128 31.50097067v227.30615466c0 37.84157867 25.14397867 63.04017067 62.82717866 63.04017067h286.05917867c18.83613867 0 31.39720533-12.60475733 31.39720533-31.51189333 0-18.91805867-12.56106667-31.52827733-31.39720533-31.52827734z m0 0M892.13610667 719.323136h-4.784128c0-14.22677333-9.633792-28.46993067-14.41792-37.97265067l4.784128-4.718592c14.41792-14.270464 14.41792-37.97265067 0-52.20488533-14.42338133-14.23223467-38.46417067-14.23223467-52.89847467 0l-4.784128 4.74589867c-14.42884267-4.74589867-24.00802133-9.49725867-38.436864-14.24861867v-4.72951467c0-23.74587733-19.218432-37.97265067-38.46417067-37.97265066-24.00802133 0-38.436864 18.98359467-38.436864 42.70216533-9.62833067 0-24.00802133 9.50272-33.62542933 9.50272l-4.80597333-4.75136c-14.41245867-14.237696-38.46417067-14.237696-52.871168 0-14.41245867 14.22677333-14.41245867 37.97265067 0 52.199424l4.79505066 4.75682133c-4.79505067 14.221312-9.59010133 23.71310933-14.42338133 37.93988267h-4.784128c-24.06263467 0-38.436864 18.989056-38.436864 37.96718933 0 18.99997867 14.37422933 37.93988267 38.436864 37.93988267 0 14.270464 9.617408 28.49723733 14.41245867 37.97265067l-4.79505067 4.75136c-14.41245867 14.25954133-14.41245867 37.994496 0 52.22126933 14.40699733 14.221312 38.41501867 14.221312 52.8384 0l4.82781867-4.75136c14.42338133 4.75136 24.018944 9.46449067 38.43140266 14.221312v9.52456533c0 23.71310933 19.22389333 37.93988267 38.436864 37.93988267 24.051712 0 38.46417067-18.98359467 38.46417067-37.93988267v-4.77320533c14.42884267 0 28.84676267-9.50272 38.436864-14.221312l4.784128 4.71313067c14.434304 14.27592533 38.47509333 14.27592533 52.89847467 0 14.41792-14.22677333 14.41792-37.91803733 0-52.18304l-4.784128-4.75136c4.784128-14.22677333 9.57917867-23.70218667 14.41792-37.961728h4.784128c24.051712 0 38.43140267-18.939904 38.43140266-37.978112 0.00546133-23.707648-19.21297067-37.93988267-38.43140266-37.93988267z m-139.33499734 132.25710933c-53.02954667 0-96.03208533-42.22702933-96.03208533-94.257152 0-52.002816 43.00253867-94.20253867 96.03208533-94.20253866 53.04593067 0 96.04846933 42.19972267 96.04846934 94.20253866 0 52.02466133-43.00253867 94.257152-96.04846934 94.257152z"  /></svg>
