<?xml version="1.0" standalone="no"?><!DOCTYPE svg PUBLIC "-//W3C//DTD SVG 1.1//EN" "http://www.w3.org/Graphics/SVG/1.1/DTD/svg11.dtd"><svg class="icon" width="200px" height="200.00px" viewBox="0 0 1024 1024" version="1.1" xmlns="http://www.w3.org/2000/svg"><path d="M312.22442667 65.70530133h-35.77719467c-98.53883733 0-178.41083733 79.888384-178.41083733 178.405376v35.78811734c0 98.53883733 79.872 178.41083733 178.41083733 178.41083733h214.188032V244.11067733c0-98.516992-79.872-178.405376-178.41083733-178.405376z m112.525312 328.01860267l-143.163392-0.70997333c-65.683456-0.32221867-118.69661867-53.82144-118.390784-119.51035734l0.15291733-24.25924266c0.30037333-65.683456 53.81597867-118.685696 119.51035733-118.358016l24.23739734 0.10376533c65.69437867 0.33314133 118.669312 53.83236267 118.37986133 119.53220267l-0.72635733 143.20162133zM770.05892267 65.70530133h-34.58116267c-98.533376 0-178.39445333 79.888384-178.39445333 178.405376v214.19895467h212.975616c98.52245333 0 178.39991467-79.872 178.39991466-178.41083733v-35.78811734c0-98.516992-79.87746133-178.405376-178.39991466-178.405376z m114.44770133 210.34871467c-0.966656 65.683456-54.99562667 118.15594667-120.67362133 117.18382933l-143.19616-2.08622933 2.12992-143.18523733c0.950272-65.683456 54.95739733-118.15594667 120.64631466-117.178368l24.27562667 0.33860266c65.63976533 0.966656 118.12317867 54.99562667 117.16744533 120.65723734l-0.34952533 24.27016533zM770.05892267 524.746752h-212.975616v212.975616c0 98.54429867 79.86107733 178.41629867 178.39445333 178.41629867h34.58116267c98.52245333 0 178.39991467-79.872 178.39991466-178.41629867v-34.55931733c0-98.533376-79.87746133-178.41629867-178.39991466-178.41629867z m113.18613333 207.21390933c0 65.716224-53.26984533 118.94237867-118.94237867 118.94237867h-24.24832c-65.72714667 0-118.94237867-53.22615467-118.94237866-118.94237867V588.78634667h143.19616c65.67253333 0 118.94237867 53.20430933 118.94237866 118.931456v24.24285866zM276.447232 524.746752c-98.53883733 0-178.41083733 79.88292267-178.41083733 178.41629867v34.55931733c0 98.54429867 79.872 178.41629867 178.41083733 178.41629867h35.77719467c98.53883733 0 178.41083733-79.872 178.41083733-178.41629867v-212.975616H276.447232z m148.963328 207.21390933c0 65.716224-53.23707733 118.94237867-118.964224 118.94237867h-24.215552c-65.69437867 0-118.94784-53.22615467-118.94784-118.94237867v-24.23739733c0-65.72714667 53.25346133-118.931456 118.94784-118.931456h143.179776v143.16885333z"  /></svg>
