<?xml version="1.0" standalone="no"?><!DOCTYPE svg PUBLIC "-//W3C//DTD SVG 1.1//EN" "http://www.w3.org/Graphics/SVG/1.1/DTD/svg11.dtd"><svg t="1613995385988" class="icon" viewBox="0 0 1024 1024" version="1.1" xmlns="http://www.w3.org/2000/svg" p-id="40568" xmlns:xlink="http://www.w3.org/1999/xlink" width="200" height="200"><defs><style type="text/css"></style></defs><path d="M927.9 432.5l-0.7-1.6c-0.7-3.5-2-6.8-3.9-9.8L807.8 131.4c-4.9-12.2-16.6-20.1-29.7-20.1H245.5c-13.1 0-24.9 8-29.7 20.1L100.2 421.1c-1.9 3-3.2 6.3-3.9 9.8l-0.7 1.6 0.4 0.1c-0.4 3.1-0.3 6.4 0.4 9.7 7.8 35.5 27.3 66.6 54.3 89.1v319.8c0 33.1 27.4 60 61 60h600.1c33.7 0 61-26.9 61-60V531.5c27-22.5 46.5-53.6 54.3-89.1 0.7-3.3 0.8-6.5 0.4-9.7l0.4-0.2z m-666-265.3h499.9l107.9 270.2c-12.8 42.8-52.5 74.2-99.4 74.2-48.1 0-88.6-32.8-100.3-77.3-1-14.4-13.1-26.5-28.4-26.5h-0.4c-15.4 0-27.5 12-28.4 26.5-11.7 44.4-52.3 77.3-100.3 77.3-49.5 0-91-34.9-101.3-81.3-2.9-13.1-14.4-22.4-27.8-22.4h-0.6c-13.4 0-24.9 9.3-27.8 22.4-10.3 46.5-51.8 81.3-101.3 81.3-46.9 0-86.7-31.3-99.4-74.2l107.6-270.2z m554.9 684c0 2.2-2.3 4-5 4h-600c-2.7 0-5-1.8-5-4V561.7c14.8 4.5 30.4 6.9 46.6 6.9 53 0 100.2-25.8 129.4-65.6 29.3 39.7 76.4 65.6 129.4 65.6 52.7 0 99.6-25.5 128.9-64.9 29.3 39.4 76.2 64.9 128.9 64.9 16.2 0 31.9-2.4 46.6-6.9v289.6h0.2z" p-id="40569"></path><path d="M682.7 606.7l-107 109-106-102c-12-11.5-30.5-11-42 0.5l-129 129c-11.5 11.5-11.5 30.5 0 42.5 6 6 13.5 9 21 9s15.5-3 21-9l108-108 106 102c12 11.5 30.5 11 42-0.5l128-130c11.5-12 11.5-31-0.5-42.5-11-12-30-11.5-41.5 0z" p-id="40570"></path></svg>