<?xml version="1.0" standalone="no"?><!DOCTYPE svg PUBLIC "-//W3C//DTD SVG 1.1//EN" "http://www.w3.org/Graphics/SVG/1.1/DTD/svg11.dtd"><svg class="icon" width="200px" height="200.00px" viewBox="0 0 1024 1024" version="1.1" xmlns="http://www.w3.org/2000/svg"><path fill="#333333" d="M938 322.1l-0.3-1.1-49.8-128.8c-6.5-16.9-17.9-31.3-32.9-41.5S822.5 135 804.4 135H219.6c-18.1 0-35.6 5.4-50.6 15.7-15 10.3-26.3 24.6-32.9 41.5L86.4 321l-0.3 1.1c-7.5 25.2-2.8 52.5 12.4 73 6.5 8.7 14.6 15.6 23.5 20.5v383.9c0 49.3 40.1 89.5 89.5 89.5h601c49.4 0 89.5-40.2 89.5-89.5V415.6c9-4.8 17-11.7 23.5-20.5 15.3-20.5 20-47.8 12.5-73z m-95 477.4c0 16.8-13.7 30.5-30.5 30.5h-601c-16.8 0-30.5-13.7-30.5-30.5v-376h662v376z m35.2-439.6c-1.6 2.1-4.2 4.6-7.6 4.6H153.3c-3.4 0-6-2.5-7.6-4.6-3.1-4.2-5.6-11.6-3.4-20l48.9-126.4c4.5-11.7 15.9-19.5 28.4-19.5h584.7c12.5 0 23.9 7.8 28.4 19.5l48.9 126.4c2.3 8.4-0.2 15.8-3.4 20zM340.7 701.3c15.7 10.1 36.5 6.2 46.6-9l59-87.6 83.7 96c6.2 7.3 15.7 11.8 25.3 11.8h1.7c10.7-0.6 20.2-6.2 25.8-14.6l109.5-159.5c10.7-15.2 6.7-36.5-8.4-46.6-15.2-10.7-36.5-6.7-46.6 8.4l-84.8 123.5-83.7-96.6c-6.7-7.9-16.8-12.4-27.5-11.8s-20.2 6.2-25.8 14.6L331.8 654c-10.7 16.4-6.8 37.2 8.9 47.3z" /></svg>