<?xml version="1.0" standalone="no"?><!DOCTYPE svg PUBLIC "-//W3C//DTD SVG 1.1//EN" "http://www.w3.org/Graphics/SVG/1.1/DTD/svg11.dtd"><svg class="icon" width="200px" height="200.00px" viewBox="0 0 1024 1024" version="1.1" xmlns="http://www.w3.org/2000/svg"><path fill="#333333" d="M913.3 412l-49.7-229-0.8-2.1c-6.5-16.9-17.9-31.3-32.9-41.5-15-10.3-32.5-15.7-50.6-15.7H194.6c-18.1 0-35.6 5.4-50.6 15.7-15 10.3-26.3 24.6-32.9 41.5l-0.8 2.1-49.7 229c-7 24.9-2.3 51.6 12.8 71.8 6.5 8.7 14.5 15.6 23.5 20.5v283.9c0 49.4 40.2 89.5 89.5 89.5h328c16.3 0 29.5-13.2 29.5-29.5s-13.2-29.5-29.5-29.5h-328c-16.8 0-30.5-13.7-30.5-30.5v-276h689.7c21.4 0 41.4-10.4 54.9-28.4 15-20.2 19.8-46.9 12.8-71.8z m-60.1 36.5c-1.6 2.1-4.2 4.7-7.6 4.7H128.3c-3.4 0-6-2.5-7.6-4.7-3.2-4.4-5.8-12.1-3.2-20.9l0.3-1.1 49.1-226.2c4.9-10.7 15.8-17.7 27.7-17.7h584.7c11.9 0 22.8 7.1 27.7 17.7l49 226.2 0.3 1.1c2.7 8.8 0.1 16.6-3.1 20.9zM840.9 896.8H699c-18.2 0-35.2-9.8-44.3-25.6l-71-122.9c-9.1-15.8-9.1-35.4 0-51.2l71-122.9c9.1-15.8 26.1-25.6 44.3-25.6h141.9c18.2 0 35.2 9.8 44.3 25.6l71 122.9c9.1 15.8 9.1 35.4 0 51.2l-71 122.9c-9.1 15.8-26.1 25.6-44.3 25.6z m-141.4-52h141L911 722.7l-70.5-122.1h-141L629 722.7l70.5 122.1zM273.4 386.3c-16.2 0-29.4-13.1-29.5-29.4-0.1-16.3 13.1-29.6 29.4-29.6l427.2-2.1h0.1c16.2 0 29.4 13.1 29.5 29.4 0.1 16.3-13.1 29.6-29.4 29.6l-427.2 2.1h-0.1z" /></svg>