<?xml version="1.0" standalone="no"?><!DOCTYPE svg PUBLIC "-//W3C//DTD SVG 1.1//EN" "http://www.w3.org/Graphics/SVG/1.1/DTD/svg11.dtd"><svg t="1571797276839" class="icon" viewBox="0 0 1024 1024" version="1.1" xmlns="http://www.w3.org/2000/svg" p-id="8136" xmlns:xlink="http://www.w3.org/1999/xlink" width="20" height="20"><defs><style type="text/css"></style></defs><path d="M697.7984 274.8464h-305.76c-16.5552 0-27.6048 11.0592-27.6048 27.6864 0 16.6128 11.0496 27.6912 27.6048 27.6912h305.76c16.5648 0 27.6144-11.0784 27.6144-27.6912 0-16.632-11.0496-27.6864-27.6144-27.6864z m0 0" p-id="8137"></path><path d="M874.7408 369.008l-99.3888-193.1376c-5.5248-22.1664-27.624-33.2448-49.6896-33.2448h-438.288c-22.0752 0-38.6544 11.0784-49.6704 33.2448L138.3056 369.008C132.8 374.5376 132.8 385.616 132.8 391.16c5.5056 88.6272 77.304 160.6464 165.6288 160.6464 55.2096 0 76.4592-27.696 104.0448-77.5584 27.6096 49.8672 48.8496 77.5584 104.0592 77.5584 55.2192 0 76.44-27.696 104.0448-77.5584 27.6048 49.8672 48.8256 77.5584 104.0448 77.5584 88.32 0 160.1232-72.0192 165.6288-155.1024-0.0048-11.088-0.0048-22.1664-5.5104-27.696z m-160.1232 127.392c-49.6848 0-59.8848-33.2304-70.9296-83.0832-5.5056-16.6176-16.5552-22.1568-33.1104-22.1568s-27.6048 5.5392-33.1104 22.1568c-11.0496 49.8528-21.2496 83.0832-70.9296 83.0832-49.704 0-59.8992-33.2304-70.944-83.0832-5.5008-16.6176-16.5456-22.1568-33.1104-22.1568-16.5456 0-27.5856 5.5392-33.1152 22.1568-11.04 49.8528-21.2208 83.0832-70.9248 83.0832-60.7152 0-104.8992-44.304-110.4192-105.24l99.3696-193.1472h438.288l99.3696 193.1472C819.536 452.096 775.352 496.4 714.6176 496.4z m-192.3648 338.2656H270.8336v-199.7808c0-16.608-11.0592-27.6864-27.6144-27.6864-16.5648 0-27.6048 11.0784-27.6048 27.6864v199.7808c0 33.2592 22.0992 55.4064 55.2192 55.4064h251.4192c16.5552 0 27.5952-11.0784 27.5952-27.696 0-16.6272-11.04-27.7104-27.5952-27.7104z m0 0M846.104 694.2176h-4.2048c0-12.504-8.4672-25.0224-12.672-33.3744l4.2048-4.1472c12.672-12.5424 12.672-33.3744 0-45.8832-12.6768-12.5088-33.8064-12.5088-46.4928 0l-4.2048 4.1712c-12.6816-4.1712-21.1008-8.3472-33.7824-12.5232v-4.1568c0-20.8704-16.8912-33.3744-33.8064-33.3744-21.1008 0-33.7824 16.6848-33.7824 37.5312-8.4624 0-21.1008 8.352-29.5536 8.352l-4.224-4.176c-12.6672-12.5136-33.8064-12.5136-46.4688 0-12.6672 12.504-12.6672 33.3744 0 45.8784l4.2144 4.1808c-4.2144 12.4992-8.4288 20.8416-12.6768 33.3456h-4.2048c-21.1488 0-33.7824 16.6896-33.7824 33.3696 0 16.6992 12.6336 33.3456 33.7824 33.3456 0 12.5424 8.4528 25.0464 12.6672 33.3744l-4.2144 4.176c-12.6672 12.5328-12.6672 33.3936 0 45.8976 12.6624 12.4992 33.7632 12.4992 46.44 0l4.2432-4.176c12.6768 4.176 21.1104 8.3184 33.7776 12.4992v8.3712c0 20.8416 16.896 33.3456 33.7824 33.3456 21.1392 0 33.8064-16.6848 33.8064-33.3456v-4.1952c12.6816 0 25.3536-8.352 33.7824-12.4992l4.2048 4.1424c12.6864 12.5472 33.816 12.5472 46.4928 0 12.672-12.504 12.672-33.3264 0-45.864l-4.2048-4.176c4.2048-12.504 8.4192-20.832 12.672-33.3648h4.2048c21.1392 0 33.7776-16.6464 33.7776-33.3792 0.0048-20.8368-16.8864-33.3456-33.7776-33.3456z m-122.4624 116.2416c-46.608 0-84.4032-37.1136-84.4032-82.8432 0-45.7056 37.7952-82.7952 84.4032-82.7952 46.6224 0 84.4176 37.0896 84.4176 82.7952 0 45.7248-37.7952 82.8432-84.4176 82.8432z" p-id="8138"></path></svg>
