<?xml version="1.0" standalone="no"?><!DOCTYPE svg PUBLIC "-//W3C//DTD SVG 1.1//EN" "http://www.w3.org/Graphics/SVG/1.1/DTD/svg11.dtd"><svg class="icon" width="200px" height="200.00px" viewBox="0 0 1024 1024" version="1.1" xmlns="http://www.w3.org/2000/svg"><path fill="#333333" d="M938 322.1l-0.3-1.1-49.8-128.8c-6.5-16.9-17.9-31.3-32.9-41.5S822.5 135 804.4 135H219.6c-18.1 0-35.6 5.4-50.6 15.7-15 10.3-26.3 24.6-32.9 41.5L86.3 321l-0.3 1.1c-7.5 25.2-2.8 52.5 12.5 73 6.5 8.7 14.6 15.6 23.5 20.5v383.9c0 49.4 40.1 89.5 89.5 89.5h601c49.4 0 89.5-40.1 89.5-89.5V415.6c9-4.8 17-11.7 23.5-20.5 15.3-20.5 20-47.8 12.5-73z m-95 477.4c0 16.8-13.7 30.5-30.5 30.5h-601c-16.8 0-30.5-13.7-30.5-30.5v-376h662v376z m35.2-439.6c-1.6 2.1-4.2 4.6-7.6 4.6H153.3c-3.4 0-6-2.5-7.6-4.6-3.1-4.2-5.6-11.6-3.4-20l48.9-126.4c4.5-11.7 15.9-19.5 28.4-19.5h584.7c12.5 0 23.9 7.8 28.4 19.5l48.9 126.4c2.3 8.4-0.2 15.8-3.4 20zM472.8 605.7h-44.1c-8.5 0-15.4 6.9-15.4 15.4s6.9 15.4 15.4 15.4H490l0.5 0.5v38.6h-61.7c-8.6 0-15.5 6.9-15.5 15.5s6.9 15.5 15.5 15.5h61.7v62.9c0 16.3 13.2 29.5 29.5 29.5s29.5-13.2 29.5-29.5v-62.9h62.1c8.5 0 15.4-6.9 15.4-15.4s-6.9-15.4-15.4-15.4h-62.1V637l0.5-0.5h61.5c8.5 0 15.4-6.9 15.4-15.4s-6.9-15.4-15.4-15.4h-44.3l66.3-90.2c10.5-19.1-3.3-42.5-25.1-42.5-10.8 0-20.8 6.1-25.6 15.8L520 583.5l-62.7-94.7c-4.9-9.7-14.8-15.8-25.6-15.8-21.8 0-35.6 23.4-25.1 42.5l66.2 90.2z" /></svg>