<?xml version="1.0" standalone="no"?><!DOCTYPE svg PUBLIC "-//W3C//DTD SVG 1.1//EN" "http://www.w3.org/Graphics/SVG/1.1/DTD/svg11.dtd"><svg class="icon" width="200px" height="200.00px" viewBox="0 0 1024 1024" version="1.1" xmlns="http://www.w3.org/2000/svg"><path d="M814.08 179.2H209.92c-59.392 0-107.52 48.128-107.52 107.52v450.56c0 59.392 48.128 107.52 107.52 107.52h604.16c59.392 0 107.52-48.128 107.52-107.52V286.72c0-59.392-48.128-107.52-107.52-107.52z m46.08 558.08c0 25.6-20.48 46.08-46.08 46.08H209.92c-25.6 0-46.08-20.48-46.08-46.08V286.72c0-25.6 20.48-46.08 46.08-46.08h604.16c25.6 0 46.08 20.48 46.08 46.08v450.56z"  /><path d="M278.016 366.592m-35.84 0a35.84 35.84 0 1 0 71.68 0 35.84 35.84 0 1 0-71.68 0Z"  /><path d="M278.016 512m-35.84 0a35.84 35.84 0 1 0 71.68 0 35.84 35.84 0 1 0-71.68 0Z"  /><path d="M278.016 657.408m-35.84 0a35.84 35.84 0 1 0 71.68 0 35.84 35.84 0 1 0-71.68 0Z"  /><path d="M756.736 335.872H390.144c-16.896 0-30.72 13.824-30.72 30.72s13.824 30.72 30.72 30.72h366.592c16.896 0 30.72-13.824 30.72-30.72s-13.824-30.72-30.72-30.72zM756.736 481.28H390.144c-16.896 0-30.72 13.824-30.72 30.72s13.824 30.72 30.72 30.72h366.592c16.896 0 30.72-13.824 30.72-30.72s-13.824-30.72-30.72-30.72zM756.736 626.688H390.144c-16.896 0-30.72 13.824-30.72 30.72s13.824 30.72 30.72 30.72h366.592c16.896 0 30.72-13.824 30.72-30.72s-13.824-30.72-30.72-30.72z"  /></svg>
