<?xml version="1.0" standalone="no"?><!DOCTYPE svg PUBLIC "-//W3C//DTD SVG 1.1//EN" "http://www.w3.org/Graphics/SVG/1.1/DTD/svg11.dtd"><svg class="icon" width="200px" height="200.00px" viewBox="0 0 1024 1024" version="1.1" xmlns="http://www.w3.org/2000/svg"><path fill="#333333" d="M507.7 88.7L153.5 259.5v311.8l0.1 1.2c0.2 2.8 6 70.5 52.7 148.5 27.2 45.5 62.8 85.5 105.9 118.7 53.3 41.1 118 71.9 192.3 91.5l7.5 2 7.5-2c74.3-19.6 139.1-50.4 192.3-91.5 43-33.2 78.7-73.2 105.9-118.7 46.6-78 52.4-145.7 52.7-148.5l0.1-1.2v-312L507.7 88.7z m303.8 480c-0.9 7.9-8.2 62.7-45.9 124.5-23.5 38.7-54.3 72.7-91.4 101-44.9 34.3-99.5 60.5-162.3 77.9-62.8-17.4-117.3-43.6-162.3-77.9-37.1-28.3-67.8-62.3-91.4-101-37.6-61.8-45-116.6-45.9-124.5V296.6L508 154.1l303.5 142.7v271.9zM688 631.4l-68.5-67.3c18.9-25.6 30.1-57.1 30.1-91.3 0-84.9-69-153.9-153.9-153.9s-153.9 69-153.9 153.9c0 84.8 69 153.9 153.9 153.9 31.2 0 60.3-9.4 84.6-25.4l69.8 68.6c5.2 5.2 12.1 7.7 18.9 7.7 7 0 14-2.7 19.3-8.1 10.5-10.6 10.3-27.7-0.3-38.1zM395.8 472.8c0-55.1 44.8-99.9 99.9-99.9 55.1 0 99.9 44.8 99.9 99.9 0 55.1-44.8 99.9-99.9 99.9-55.1 0-99.9-44.8-99.9-99.9z" /></svg>