<?xml version="1.0" standalone="no"?><!DOCTYPE svg PUBLIC "-//W3C//DTD SVG 1.1//EN" "http://www.w3.org/Graphics/SVG/1.1/DTD/svg11.dtd"><svg class="icon" width="200px" height="200.00px" viewBox="0 0 1024 1024" version="1.1" xmlns="http://www.w3.org/2000/svg"><path fill="#333333" d="M861.9 244.3H526.6l-88.1-70.7c-4.1-3.6-9.7-5.6-14.8-5.6H162.1c-44.2 0-80 35.8-80 80v528c0 44.2 35.8 80 80 80h699.7c44.2 0 80-35.8 80-80V324.3c0.1-44.2-35.8-80-79.9-80z m18 518.2c0 17.7-14.3 32-32 32H165.6c-17.7 0-22-14.3-22-32V450.2h736.3v312.3z m0-373.8H143.6V261.5c0-17.7 4.3-32 22-32h244.8l94.7 76.3h342.8c17.7 0 32 14.3 32 32v50.9zM258.5 682h196c16.3 0 29.5-13.2 29.5-29.5S470.8 623 454.5 623h-196c-16.3 0-29.5 13.2-29.5 29.5s13.2 29.5 29.5 29.5z" /></svg>