<?xml version="1.0" standalone="no"?><!DOCTYPE svg PUBLIC "-//W3C//DTD SVG 1.1//EN" "http://www.w3.org/Graphics/SVG/1.1/DTD/svg11.dtd"><svg t="1621577579412" class="icon" viewBox="0 0 1024 1024" version="1.1" xmlns="http://www.w3.org/2000/svg" p-id="25826" xmlns:xlink="http://www.w3.org/1999/xlink" width="128" height="128"><defs><style type="text/css"></style></defs><path d="M861.9 146.8h-229v56h144.4L665.6 314.6c-54.9-45.3-125.2-72.5-201.9-72.5h-0.1c-175.3 0-317.5 142.1-317.5 317.4-0.1 175.4 142 317.6 317.4 317.6h0.1c175.3 0 317.5-142.1 317.5-317.4 0-78.5-28.4-150.4-75.6-205.8L822 237.4v149.4h56v-224c-0.1-8.8-7.2-16-16.1-16zM725.1 559.7c0 35.3-6.9 69.6-20.6 101.8-13.2 31.1-32 59.1-56.1 83.1-24 24-52 42.9-83.1 56.1-32.2 13.6-66.4 20.5-101.8 20.5h-0.1c-35.3 0-69.6-6.9-101.8-20.6-31.1-13.2-59.1-32.1-83.1-56.1-24-24-42.9-52-56-83.2-13.6-32.2-20.5-66.5-20.5-101.8s6.9-69.6 20.5-101.8c13.2-31.1 32.1-59.1 56.1-83.1 24-24 52-42.9 83.1-56 32.2-13.6 66.4-20.5 101.8-20.5h0.1c35.3 0 69.6 6.9 101.8 20.6 31.1 13.2 59.1 32 83.1 56.1 24 24 42.9 52 56 83.2 13.7 32.1 20.6 66.4 20.6 101.7z" p-id="25827"></path></svg>