<?xml version="1.0" standalone="no"?><!DOCTYPE svg PUBLIC "-//W3C//DTD SVG 1.1//EN" "http://www.w3.org/Graphics/SVG/1.1/DTD/svg11.dtd"><svg t="1609381322427" class="icon" viewBox="0 0 1024 1024" version="1.1" xmlns="http://www.w3.org/2000/svg" p-id="11228" xmlns:xlink="http://www.w3.org/1999/xlink" width="200" height="200"><defs><style type="text/css"></style></defs><path d="M931.6 434l28.9 1.7v-211c0-33.1-26.9-60-60-60h-777c-33.1 0-60 26.9-60 60v209.2l27.9 0.1c42.8 0.2 77.6 35.2 77.6 78s-34.8 77.8-77.6 78l-27.9 0.1v209.2c0 33.1 26.9 60 60 60h777c33.1 0 60-26.9 60-60v-211l-28.9 1.7c-42.8-0.2-77.6-35.1-77.6-78s34.7-77.7 77.6-78z m-27.1 209.2v156.1c0 2.2-1.8 4-4 4h-777c-2.2 0-4-1.8-4-4V643c25-5.4 48-17.9 66.5-36.4 25.2-25.3 39-58.9 39-94.5s-13.9-69.3-39-94.5c-18.5-18.6-41.4-31-66.5-36.4V224.7c0-2.2 1.8-4 4-4h777c2.2 0 4 1.8 4 4v156.1C843.8 393.6 798 447.5 798 512s45.8 118.4 106.5 131.2zM290 650h56V374h-56v276z" p-id="11229"></path></svg>