<?xml version="1.0" standalone="no"?><!DOCTYPE svg PUBLIC "-//W3C//DTD SVG 1.1//EN" "http://www.w3.org/Graphics/SVG/1.1/DTD/svg11.dtd"><svg t="1604903285825" class="icon" viewBox="0 0 1024 1024" version="1.1" xmlns="http://www.w3.org/2000/svg" p-id="12608" xmlns:xlink="http://www.w3.org/1999/xlink" width="200" height="200"><defs><style type="text/css"></style></defs><path d="M696.064 107.136A448.064 448.064 0 1 1 56 512a448.064 448.064 0 0 1 256-404.864v62.976a391.296 391.296 0 0 0-85.184 64.64A390.336 390.336 0 0 0 112 512a390.336 390.336 0 0 0 114.816 277.248 390.336 390.336 0 0 0 277.184 114.816 390.336 390.336 0 0 0 277.184-114.816A390.336 390.336 0 0 0 896 512a390.336 390.336 0 0 0-114.816-277.184 391.296 391.296 0 0 0-85.12-64.64zM536 64v448h-64V64h64z" p-id="12609"></path></svg>