<?xml version="1.0" standalone="no"?><!DOCTYPE svg PUBLIC "-//W3C//DTD SVG 1.1//EN" "http://www.w3.org/Graphics/SVG/1.1/DTD/svg11.dtd"><svg t="1604979417207" class="icon" viewBox="0 0 1024 1024" version="1.1" xmlns="http://www.w3.org/2000/svg" p-id="10921" xmlns:xlink="http://www.w3.org/1999/xlink" width="200" height="200"><defs><style type="text/css"></style></defs><path d="M512 64C264.6 64 64 264.6 64 512s200.6 448 448 448 448-200.6 448-448S759.4 64 512 64z m277.2 725.2c-36 36-77.9 64.3-124.6 84C616.3 893.6 564.9 904 512 904s-104.3-10.4-152.6-30.8c-46.7-19.7-88.6-48-124.6-84s-64.3-77.9-84-124.6C130.4 616.3 120 564.9 120 512s10.4-104.3 30.8-152.6c19.7-46.7 48-88.6 84-124.6s77.9-64.3 124.6-84C407.7 130.4 459.1 120 512 120s104.3 10.4 152.6 30.8c46.7 19.7 88.6 48 124.6 84s64.3 77.9 84 124.6C893.6 407.7 904 459.1 904 512s-10.4 104.3-30.8 152.6c-19.7 46.6-48 88.6-84 124.6zM280.5 615.4l373.3 0.6-59.8 60.1 44.7 44.8 104.6-105.1 0.1-35.1 0.1-27.7-462.9-0.7-0.1 63.1zM430 347.9l-44.7-44.8-104.7 105.2-0.1 35.1-0.1 27.7 462.9 0.7 0.1-63.3-373.2-0.5 59.8-60.1z" p-id="10922"></path></svg>