<?xml version="1.0" standalone="no"?><!DOCTYPE svg PUBLIC "-//W3C//DTD SVG 1.1//EN" "http://www.w3.org/Graphics/SVG/1.1/DTD/svg11.dtd"><svg t="1618457507968" class="icon" viewBox="0 0 1024 1024" version="1.1" xmlns="http://www.w3.org/2000/svg" p-id="16271" xmlns:xlink="http://www.w3.org/1999/xlink" width="128" height="128"><defs><style type="text/css"></style></defs><path d="M512 92.16c-230.4 0-419.84 189.44-419.84 419.84s189.44 419.84 419.84 419.84c230.4 0 424.96-189.44 424.96-419.84S742.4 92.16 512 92.16z m0 788.48c-204.8 0-368.64-168.96-368.64-368.64C143.36 307.2 307.2 143.36 512 143.36S880.64 307.2 880.64 512 716.8 880.64 512 880.64z" p-id="16272"></path><path d="M512 701.44c-97.28 0-179.2-66.56-179.2-143.36h-51.2c0 107.52 102.4 194.56 230.4 194.56s230.4-87.04 230.4-194.56h-51.2c0 76.8-81.92 143.36-179.2 143.36zM691.2 430.08c25.6 0 46.08-20.48 46.08-46.08s-20.48-46.08-46.08-46.08-46.08 20.48-46.08 46.08 20.48 46.08 46.08 46.08zM327.68 430.08c25.6 0 46.08-20.48 46.08-46.08s-20.48-46.08-46.08-46.08-46.08 20.48-46.08 46.08 20.48 46.08 46.08 46.08z" p-id="16273"></path></svg>