<?xml version="1.0" standalone="no"?><!DOCTYPE svg PUBLIC "-//W3C//DTD SVG 1.1//EN" "http://www.w3.org/Graphics/SVG/1.1/DTD/svg11.dtd"><svg t="1604903264608" class="icon" viewBox="0 0 1024 1024" version="1.1" xmlns="http://www.w3.org/2000/svg" p-id="12358" xmlns:xlink="http://www.w3.org/1999/xlink" width="200" height="200"><defs><style type="text/css"></style></defs><path d="M620.5 165.3L778.2 323 441.6 659.6l-198.9 40.5 40-196.9 337.8-337.9m0-65.9c-8.2 0-16.4 3.1-22.6 9.4L231.8 474.9l-0.4-0.4-50.8 249.9c-4.1 20.3 11.6 38.4 31.2 38.4 2.1 0 4.3-0.2 6.5-0.7l249.9-50.8 0.4 0.4 366.2-366.2c12.5-12.5 12.5-32.8 0-45.3L643.2 108.8c-6.3-6.3-14.5-9.4-22.7-9.4zM912 868.6H112v56h800v-56z" p-id="12359"></path></svg>