<?xml version="1.0" standalone="no"?><!DOCTYPE svg PUBLIC "-//W3C//DTD SVG 1.1//EN" "http://www.w3.org/Graphics/SVG/1.1/DTD/svg11.dtd"><svg t="1611734134144" class="icon" viewBox="0 0 1024 1024" version="1.1" xmlns="http://www.w3.org/2000/svg" p-id="7790" xmlns:xlink="http://www.w3.org/1999/xlink" width="200" height="200"><defs><style type="text/css"></style></defs><path d="M823.4 467l71 102.5-52.6 36.4-71.4-103.2c-12 7.1-24.3 13.7-36.9 19.8-25.3 12.3-51.2 22.5-77.6 30.4l25.7 116.3L619 683l-25.6-115.8c-26.5 4.3-53.4 6.5-80.6 6.5-27.2 0-54.1-2.2-80.6-6.5L406.6 683l-62.5-13.8 25.7-116.3c-26.8-8-53-18.3-78.7-30.9-12.2-6-24.1-12.4-35.8-19.3l-71.4 103.2-52.6-36.4 71-102.5c-32-24.4-61.7-52.7-88.7-84.5l48.8-41.4c44.9 52.9 97.7 94.4 157 123.5 61.1 30 126.2 45.1 193.5 45.1 66.9 0 131.7-15 192.6-44.7 59.1-28.8 111.8-69.9 156.6-122.3l48.6 41.6c-26.8 31.1-55.9 58.7-87.3 82.7z" p-id="7791"></path></svg>