<?xml version="1.0" standalone="no"?><!DOCTYPE svg PUBLIC "-//W3C//DTD SVG 1.1//EN" "http://www.w3.org/Graphics/SVG/1.1/DTD/svg11.dtd"><svg t="1610691089386" class="icon" viewBox="0 0 1024 1024" version="1.1" xmlns="http://www.w3.org/2000/svg" p-id="13775" xmlns:xlink="http://www.w3.org/1999/xlink" width="200" height="200"><defs><style type="text/css"></style></defs><path d="M927.8 160h-832c-17.7 0-32 14.3-32 32v640c0 8.8 3.5 16.8 9.3 22.5 5.8 5.8 13.8 9.5 22.7 9.5h832c17.7 0 32-14.3 32-32V192c0-17.7-14.3-32-32-32z m-24 648H202.6l151.1-138 76.7 70.1 3.3 3.1 27.8 25.3c6.4 5.8 16.2 5.5 22.2-0.6l26-26.6 3.1-3.2 225.3-230.6L903.7 677v131z m0-207.2L751.2 443.9c-6.6-6.8-17.5-6.8-24.2-0.1L470.6 705.4l-105.1-96.8c-5.9-5.5-15.7-5.5-21.6-0.1L124.5 808h-4.7V216h784v384.8z m-586-90.8c63 0 114-51 114-114s-51-114-114-114-114 51-114 114 51.1 114 114 114z m0-172c32 0 58 26 58 58s-26 58-58 58-58-26-58-58 26-58 58-58zM960.2 658.7l-0.4 0.2v-0.5z" p-id="13776"></path></svg>