<?xml version="1.0" standalone="no"?><!DOCTYPE svg PUBLIC "-//W3C//DTD SVG 1.1//EN" "http://www.w3.org/Graphics/SVG/1.1/DTD/svg11.dtd"><svg t="1612233116878" class="icon" viewBox="0 0 1024 1024" version="1.1" xmlns="http://www.w3.org/2000/svg" p-id="15218" xmlns:xlink="http://www.w3.org/1999/xlink" width="200" height="200"><defs><style type="text/css"></style></defs><path d="M364.928 172.8c63.296 0 117.44 23.232 138.816 107.392 6.4 24.832 1.536 70.208 1.536 98.432 0 38.272 1.856 31.36-9.344 62.848-19.264 54.336-38.08 100.224-62.912 129.6 97.088 19.136 162.624 74.944 206.784 96.64 91.2 44.8 91.648 93.888 91.648 93.888V844.8L0 844.8l0.064-84.16c0.64-7.168 8-51.712 91.2-92.736 43.84-21.632 108.928-76.992 205.248-96.64-24.704-29.248-43.264-75.008-62.72-129.664-11.136-31.488-9.344-24.704-9.344-62.976 0-28.16-4.8-73.408 1.472-98.176C247.296 196.096 301.44 172.8 364.928 172.8z m329.216 78.4c56.96 0 105.728 20.672 124.928 95.488 5.76 22.08 1.408 62.4 1.408 87.488 0 34.048 1.664 24.064-8.384 52.096-17.408 48.32-34.304 89.088-56.64 115.2 87.36 17.024 146.368 66.624 186.112 85.952 78.336 37.952 82.24 79.488 82.432 83.2v74.112L365.696 844.8l438.848-0.064V761.6s-0.384-49.152-91.52-93.888c-26.368-12.928-60.352-38.016-104.064-60.16l5.504-1.664 18.112-4.16c-22.272-26.048-38.976-66.752-56.448-115.328-10.048-27.968-8.384-18.176-8.384-52.224 0-24.96-4.352-65.28 1.28-87.296 19.2-74.944 67.968-95.68 125.12-95.68z" p-id="15219"></path></svg>