<?xml version="1.0" standalone="no"?><!DOCTYPE svg PUBLIC "-//W3C//DTD SVG 1.1//EN" "http://www.w3.org/Graphics/SVG/1.1/DTD/svg11.dtd"><svg t="1621577229115" class="icon" viewBox="0 0 1024 1024" version="1.1" xmlns="http://www.w3.org/2000/svg" p-id="25694" xmlns:xlink="http://www.w3.org/1999/xlink" width="128" height="128"><defs><style type="text/css"></style></defs><path d="M558.9 136.8h-0.1c-175.3 0-317.5 142.1-317.5 317.4 0 83.2 31.9 158.9 84.2 215.5l-49.6 49.6-88.7-88.6-39.6 39.6 88.7 88.6-83.4 83.4 39.6 39.6 83.4-83.4 88.7 88.6 39.6-39.6-88.7-88.6 51.5-51.5c53.3 40.4 119.7 64.4 191.7 64.4h0.1c175.3 0 317.5-142.1 317.5-317.4 0.1-175.3-142-317.5-317.4-317.6z m184.8 502.5c-24 24-52 42.9-83.1 56-32.2 13.6-66.4 20.5-101.8 20.5h-0.1c-35.3 0-69.6-6.9-101.8-20.6-31.1-13.2-59.1-32.1-83.1-56.1-24-24-42.9-52-56-83.2-13.6-32.2-20.5-66.5-20.5-101.8s6.9-69.6 20.5-101.8c13.2-31.1 32-59.1 56.1-83.1 24-24 52-42.9 83.1-56 32.2-13.6 66.4-20.5 101.7-20.5h0.1c35.3 0 69.6 6.9 101.8 20.6 31.1 13.2 59.1 32.1 83.1 56.1 24 24 42.9 52 56 83.2 13.6 32.2 20.5 66.5 20.5 101.8s-6.9 69.6-20.6 101.8c-13 31.1-31.9 59.1-55.9 83.1z" p-id="25695"></path></svg>