<?xml version="1.0" standalone="no"?><!DOCTYPE svg PUBLIC "-//W3C//DTD SVG 1.1//EN" "http://www.w3.org/Graphics/SVG/1.1/DTD/svg11.dtd"><svg t="1612403406034" class="icon" viewBox="0 0 1024 1024" version="1.1" xmlns="http://www.w3.org/2000/svg" p-id="14473" xmlns:xlink="http://www.w3.org/1999/xlink" width="200" height="200"><defs><style type="text/css"></style></defs><path d="M512 64C264.6 64 64 264.6 64 512s200.6 448 448 448 448-200.6 448-448S759.4 64 512 64z m277.2 725.2c-36 36-77.9 64.3-124.6 84C616.3 893.6 564.9 904 512 904s-104.3-10.4-152.6-30.8c-46.7-19.7-88.6-48-124.6-84s-64.3-77.9-84-124.6C130.4 616.3 120 564.9 120 512s10.4-104.3 30.8-152.6c19.7-46.7 48-88.6 84-124.6s77.9-64.3 124.6-84C407.7 130.4 459.1 120 512 120s104.3 10.4 152.6 30.8c46.7 19.7 88.6 48 124.6 84s64.3 78 84 124.6C893.6 407.7 904 459.1 904 512s-10.4 104.3-30.8 152.6c-19.7 46.6-48 88.6-84 124.6z" p-id="14474"></path><path d="M626.4 310.8C595.5 287.7 554.9 275 512 275s-83.5 12.7-114.4 35.8c-33.3 24.9-51.6 58.8-51.6 95.4h56c0-18.5 10.4-36.5 29.2-50.6 21.3-15.9 50-24.7 80.8-24.7s59.6 8.8 80.8 24.7c18.8 14.1 29.2 32.1 29.2 50.6s-10.4 36.5-29.2 50.6c-19.3 14.4-44.6 23-72.2 24.4H480V619h64v-84c30.8-4.7 59.3-16.2 82.3-33.4 33.3-24.9 51.6-58.8 51.6-95.4s-18.2-70.4-51.5-95.4zM480 657.1h64.1V721H480z" p-id="14475"></path></svg>