<?xml version="1.0" standalone="no"?><!DOCTYPE svg PUBLIC "-//W3C//DTD SVG 1.1//EN" "http://www.w3.org/Graphics/SVG/1.1/DTD/svg11.dtd"><svg t="1611734141504" class="icon" viewBox="0 0 1024 1024" version="1.1" xmlns="http://www.w3.org/2000/svg" p-id="7915" xmlns:xlink="http://www.w3.org/1999/xlink" width="200" height="200"><defs><style type="text/css"></style></defs><path d="M970.3 509.2c0-0.3-0.1-0.6-0.1-1 0-0.3-0.1-0.6-0.1-0.9v-0.1c0-0.3-0.1-0.6-0.1-0.9-0.1-0.3-0.1-0.6-0.2-1s-0.1-0.7-0.2-1c-0.1-0.3-0.2-0.7-0.3-1-0.1-0.2-0.1-0.4-0.2-0.5-14.2-48.7-36.2-94.6-65.1-136.5-28.7-41.4-63.5-77.9-103.6-108.4-40.6-30.9-85.5-54.9-133.5-71.4-49.6-17.1-101.7-25.7-154.6-25.7-53.1 0-105.3 8.7-155.1 25.9-48.1 16.6-93.1 40.7-133.7 71.8-40.2 30.7-75 67.4-103.7 109-29 42.1-50.8 88.3-64.9 137.3-0.1 0.2-0.1 0.5-0.2 0.7 0 0.1 0 0.2-0.1 0.2-0.1 0.3-0.2 0.6-0.3 1l-0.3 1.5c0 0.2-0.1 0.4-0.1 0.7 0 0.2-0.1 0.4-0.1 0.6 0 0.3-0.1 0.6-0.1 0.9 0 0.2 0 0.5-0.1 0.8v3.9c0 0.3 0.1 0.6 0.1 1 0 0.3 0.1 0.6 0.1 0.9v0.1c0 0.3 0.1 0.6 0.2 0.9 0.1 0.3 0.1 0.6 0.2 1s0.2 0.7 0.2 1c0.1 0.3 0.2 0.6 0.3 1 0 0.2 0.1 0.4 0.2 0.5 14.2 48.7 36.2 94.6 65.2 136.5 28.7 41.4 63.5 77.9 103.6 108.4 40.6 30.9 85.5 54.9 133.5 71.4 49.6 17.1 101.7 25.7 154.6 25.7 53.1 0 105.3-8.7 155.1-25.9C715 821 760 796.9 800.6 765.8c40.2-30.7 75-67.4 103.7-109 29-42.1 50.8-88.3 64.9-137.3 0.1-0.2 0.1-0.3 0.1-0.5 0-0.1 0-0.2 0.1-0.2 0-0.1 0-0.2 0.1-0.2 0.1-0.3 0.2-0.6 0.3-1l0.3-1.5c0-0.2 0.1-0.4 0.1-0.7 0-0.2 0.1-0.4 0.1-0.6 0-0.3 0.1-0.6 0.1-0.9 0-0.2 0-0.5 0.1-0.8v-1-1.9c-0.1-0.3-0.1-0.7-0.2-1zM858.1 624.9c-25.3 36.8-56.1 69.1-91.5 96.3-35.8 27.4-75.5 48.7-118 63.3-43.9 15.1-89.9 22.8-136.9 22.8-46.8 0-92.7-7.6-136.5-22.7-42.3-14.5-81.9-35.7-117.7-63-35.4-26.9-66.2-59.2-91.5-95.7-24-34.9-42.6-72.9-55.2-113.1 12.5-40.4 31-78.6 55-113.7 25.3-36.8 56.1-69.1 91.5-96.3 35.8-27.4 75.5-48.7 118-63.3 43.9-15.1 89.9-22.8 136.9-22.8 46.8 0 92.7 7.6 136.5 22.7 42.3 14.5 81.9 35.7 117.7 63 35.4 26.9 66.2 59.2 91.5 95.7C882 433 900.6 471 913.2 511.2c-12.5 40.4-31 78.6-55.1 113.7zM512 333.8c-98.9 0-179 80.1-179 179s80.1 179 179 179 179-80.1 179-179-80.1-179-179-179z m87 265.9c-23.2 23.2-54.1 36-87 36s-63.7-12.8-87-36-36-54.1-36-87 12.8-63.7 36-87 54.1-36 87-36 63.7 12.8 87 36 36 54.1 36 87-12.8 63.8-36 87z" p-id="7916"></path></svg>