<?xml version="1.0" standalone="no"?><!DOCTYPE svg PUBLIC "-//W3C//DTD SVG 1.1//EN" "http://www.w3.org/Graphics/SVG/1.1/DTD/svg11.dtd"><svg t="1639035480242" class="icon" viewBox="0 0 1024 1024" version="1.1" xmlns="http://www.w3.org/2000/svg" p-id="16062" xmlns:xlink="http://www.w3.org/1999/xlink" width="200" height="200"><defs><style type="text/css"></style></defs><path d="M789 960.5H235c-49.4 0-89.5-40.1-89.5-89.5V401c0-16.3 13.2-29.5 29.5-29.5s29.5 13.2 29.5 29.5v470c0 16.8 13.7 30.5 30.5 30.5h554c16.8 0 30.5-13.7 30.5-30.5V401c0-16.3 13.2-29.5 29.5-29.5s29.5 13.2 29.5 29.5v470c0 49.4-40.1 89.5-89.5 89.5zM511.5 832c-16.3 0-29.5-13.2-29.5-29.5V754h-65.5c-16.3 0-29.5-13.2-29.5-29.5s13.2-29.5 29.5-29.5H482v-52h-65.5c-16.3 0-29.5-13.2-29.5-29.5s13.2-29.5 29.5-29.5h43.3l-66.4-66.4c-11.5-11.5-11.5-30.2 0-41.7 11.5-11.5 30.2-11.5 41.7 0l76.9 76.9 76.9-76.9c11.5-11.5 30.2-11.5 41.7 0 11.5 11.5 11.5 30.2 0 41.7L564.2 584h42.3c16.3 0 29.5 13.2 29.5 29.5S622.8 643 606.5 643H541v52h65.5c16.3 0 29.5 13.2 29.5 29.5S622.8 754 606.5 754H541v48.5c0 16.3-13.2 29.5-29.5 29.5zM516.9 371c-3.6 0-7.2-0.3-10.8-1l-312.9-57c-13.8-2.5-26.3-9.8-35.3-20.6-9-10.8-13.9-24.4-13.9-38.5V152c0-16 6.2-31.1 17.6-42.4C172.9 98.2 188 92 204 92h616c16 0 31.1 6.2 42.4 17.6C873.8 120.9 880 136 880 152v102.2c0 14-4.9 27.6-13.8 38.3-8.9 10.7-21.4 18.1-35.1 20.7L527.9 370c-3.7 0.6-7.4 1-11 1zM204 151c-0.1 0-0.4 0-0.7 0.3-0.3 0.3-0.3 0.6-0.3 0.7v101.9c0 0.1 0 0.4 0.2 0.6 0.2 0.3 0.5 0.3 0.6 0.3l312.9 57h0.4L820.3 255c0.1 0 0.4-0.1 0.6-0.3 0.2-0.3 0.2-0.5 0.2-0.6V152c0-0.1 0-0.4-0.3-0.7s-0.7-0.3-0.8-0.3H204z" p-id="16063"></path></svg>