<?xml version="1.0" standalone="no"?><!DOCTYPE svg PUBLIC "-//W3C//DTD SVG 1.1//EN" "http://www.w3.org/Graphics/SVG/1.1/DTD/svg11.dtd"><svg class="icon" width="200px" height="200.00px" viewBox="0 0 1024 1024" version="1.1" xmlns="http://www.w3.org/2000/svg"><path fill="#333333" d="M853.2 711.3c-55-24.6-136.6-87.9-257.4-109.6 30.9-33.3 54.3-85.3 78.3-146.9 13.9-35.7 11.6-66.1 11.6-109.5 0-32 6-83.4-1.9-111.6C657.2 138.3 589.8 112 511 112c-79 0-146.4 26.4-173 122-7.8 28.1-1.8 79.4-1.8 111.3 0 43.4-2.3 74 11.6 109.7 24.2 61.9 47.3 113.8 78.1 147C306 624.2 225 687 170.4 711.5 57.4 762.2 56.8 817.7 56.8 817.7V912l910.4-0.1v-94.2s-0.5-55.7-114-106.4z" /></svg>