<?xml version="1.0" standalone="no"?><!DOCTYPE svg PUBLIC "-//W3C//DTD SVG 1.1//EN" "http://www.w3.org/Graphics/SVG/1.1/DTD/svg11.dtd"><svg t="1616060469917" class="icon" viewBox="0 0 1024 1024" version="1.1" xmlns="http://www.w3.org/2000/svg" p-id="13259" xmlns:xlink="http://www.w3.org/1999/xlink" width="200" height="200"><defs><style type="text/css"></style></defs><path d="M858.6 328.6c17.4 32.9 30 68.2 37.5 105.2 10.2 49.9 10.6 100.5 1.3 150.3-9.6 51.5-29.3 100.1-58.5 144.2-14.6 22.1-31.4 42.7-50 61.2-31.8 31.8-68.5 57.6-109.2 76.8-40 18.9-82.5 30.8-126.5 35.5-44.3 4.7-88.7 1.9-131.9-8.4-44.7-10.6-86.9-29-125.6-54.6-5-3.3-9.9-6.7-14.7-10.2l113.3-113.3-39.6-39.6-153.5 153.6 39.7 39.5c7.7 5.8 15.6 11.5 23.8 16.9 180.7 119.6 416.3 91 563.7-56.4 21-21 40.1-44.3 57.1-70 97-146.6 96.5-329.3 14.2-471.8l-41.1 41.1z m-189.1 19.7l153.4-153.4-39.7-39.5c-7.7-5.9-15.7-11.6-23.9-17-180.7-119.6-416.3-91-563.8 56.4-21 21-40.1 44.3-57.1 70-97 146.5-96.5 329.2-14.2 471.6l41.2-41.2c-17.4-32.9-29.9-68.1-37.5-105-10.2-49.9-10.6-100.5-1.3-150.3 9.6-51.5 29.3-100.1 58.5-144.2 14.6-22.1 31.5-42.7 50-61.3 31.7-31.7 68.5-57.6 109.2-76.8 40-18.9 82.5-30.8 126.6-35.5 44.3-4.7 88.7-1.9 131.9 8.4 44.7 10.6 86.9 29 125.6 54.6 5 3.3 10 6.8 14.8 10.3L629.9 308.7l39.6 39.6z" p-id="13260"></path></svg>