<?xml version="1.0" standalone="no"?><!DOCTYPE svg PUBLIC "-//W3C//DTD SVG 1.1//EN" "http://www.w3.org/Graphics/SVG/1.1/DTD/svg11.dtd"><svg t="1621588299562" class="icon" viewBox="0 0 1024 1024" version="1.1" xmlns="http://www.w3.org/2000/svg" p-id="14213" xmlns:xlink="http://www.w3.org/1999/xlink" width="32" height="32"><defs><style type="text/css"></style></defs><path d="M815.27466666 170.66666667L583.50933333 402.432c-15.47377778 15.47377778-24.00711111 36.06755555-24.00711111 57.91288889v362.95111111l-103.53777778 71.45244445V447.82933333c0-21.84533333-8.53333333-42.43911111-24.00711111-57.91288888L212.70755555 170.66666667h602.56711111m65.87733334-63.71555556H146.83022222c-32.42666667 0-48.69688889 39.25333333-25.71377778 62.12266667l265.89866667 265.89866667c3.41333333 3.41333333 5.34755555 8.07822222 5.34755555 12.85688888V946.63111111c0 21.504 17.63555555 36.52266667 36.52266667 36.52266667 6.94044445 0 14.10844445-2.048 20.59377778-6.48533333l158.15111111-109.1128889c9.89866667-6.82666667 15.70133333-17.97688889 15.70133333-29.92355555V460.34488889c0-4.77866667 1.93422222-9.44355555 5.34755556-12.85688889l278.41422222-278.41422222c22.75555555-22.86933333 6.59911111-62.12266667-25.94133333-62.12266667z" p-id="14214"></path></svg>