<?xml version="1.0" standalone="no"?><!DOCTYPE svg PUBLIC "-//W3C//DTD SVG 1.1//EN" "http://www.w3.org/Graphics/SVG/1.1/DTD/svg11.dtd"><svg class="icon" width="200px" height="200.00px" viewBox="0 0 1024 1024" version="1.1" xmlns="http://www.w3.org/2000/svg"><path fill="#333333" d="M703.26802963 648.29060741c53.15697778-65.17191111 84.95407408-148.4269037 85.07543704-239.08503704 0-209.22974815-169.54405925-378.89517037-378.89517037-379.01653334h-0.12136297C199.97582222 30.18903703 30.3104 199.7330963 30.18903703 408.96284445c-0.12136297 209.22974815 169.54405925 379.01653333 378.89517038 379.01653333h0.12136296c90.65813333 0 173.79176297-31.7970963 239.08503704-84.83271111L938.83354075 993.81096297l54.97742222-54.85605927-290.54293334-290.66429629z m-74.15277038-19.29671111c-28.64165925 28.5202963-61.89511111 50.97244445-98.9108148 66.62826667-38.3506963 16.14127408-79.00728889 24.39395555-120.99887408 24.39395555h-0.12136296c-41.99158518 0-82.76954075-8.25268148-121.12023704-24.39395555-37.0157037-15.65582222-70.26915555-38.10797037-98.91081482-66.74962964s-50.97244445-61.89511111-66.62826666-98.91081481c-16.14127408-38.22933333-24.39395555-79.00728889-24.39395556-120.99887407 0-41.99158518 8.25268148-82.64817778 24.39395556-120.99887408 15.65582222-37.0157037 38.10797037-70.26915555 66.74962963-98.78945185 28.64165925-28.64165925 61.89511111-50.97244445 98.91081481-66.62826667 38.3506963-16.14127408 79.00728889-24.39395555 120.99887408-24.39395555h0.12136296c41.99158518 0 82.76954075 8.25268148 121.12023704 24.51531852 37.0157037 15.65582222 70.26915555 38.10797037 98.91081481 66.74962963 28.64165925 28.5202963 50.97244445 61.89511111 66.62826667 98.9108148 16.14127408 38.22933333 24.39395555 79.00728889 24.39395556 120.99887408 0 41.99158518-8.25268148 82.64817778-24.51531853 120.99887408-15.53445925 36.89434075-37.98660741 70.02642963-66.62826667 98.66808889z" /></svg>