<?xml version="1.0" standalone="no"?><!DOCTYPE svg PUBLIC "-//W3C//DTD SVG 1.1//EN" "http://www.w3.org/Graphics/SVG/1.1/DTD/svg11.dtd"><svg t="1614135251970" class="icon" viewBox="0 0 1024 1024" version="1.1" xmlns="http://www.w3.org/2000/svg" p-id="13684" xmlns:xlink="http://www.w3.org/1999/xlink" width="200" height="200"><defs><style type="text/css"></style></defs><path d="M669.6 624.3c43.8-53.7 70-122.3 70.1-197 0-172.4-139.7-312.2-312.2-312.3h-0.1C254.9 115 115.1 254.7 115 427.1c-0.1 172.4 139.7 312.3 312.2 312.3h0.1c74.7 0 143.2-26.2 197-69.9L863.7 909l45.3-45.2-239.4-239.5z m-61.1-15.9c-23.6 23.5-51 42-81.5 54.9-31.6 13.3-65.1 20.1-99.7 20.1h-0.1c-34.6 0-68.2-6.8-99.8-20.1-30.5-12.9-57.9-31.4-81.5-55s-42-51-54.9-81.5c-13.3-31.5-20.1-65.1-20.1-99.7 0-34.6 6.8-68.1 20.1-99.7 12.9-30.5 31.4-57.9 55-81.4 23.6-23.6 51-42 81.5-54.9 31.6-13.3 65.1-20.1 99.7-20.1h0.1c34.6 0 68.2 6.8 99.8 20.2 30.5 12.9 57.9 31.4 81.5 55 23.6 23.5 42 51 54.9 81.5 13.3 31.5 20.1 65.1 20.1 99.7 0 34.6-6.8 68.1-20.2 99.7-12.8 30.4-31.3 57.7-54.9 81.3z" p-id="13685"></path></svg>