<?xml version="1.0" standalone="no"?><!DOCTYPE svg PUBLIC "-//W3C//DTD SVG 1.1//EN" "http://www.w3.org/Graphics/SVG/1.1/DTD/svg11.dtd"><svg t="1612233108181" class="icon" viewBox="0 0 1024 1024" version="1.1" xmlns="http://www.w3.org/2000/svg" p-id="15093" xmlns:xlink="http://www.w3.org/1999/xlink" width="200" height="200"><defs><style type="text/css"></style></defs><path d="M825.216 144.512l96.64 238.208 2.048 5.184a131.776 131.776 0 0 1-123.84 177.088 131.712 131.712 0 0 1-95.616-40.96L704 523.648l-5.76 5.76a131.84 131.84 0 0 1-82.368 35.392l-7.872 0.192a131.712 131.712 0 0 1-95.616-40.96L512 523.648l-5.76 5.76a131.84 131.84 0 0 1-82.368 35.392l-7.872 0.192a131.712 131.712 0 0 1-95.616-40.96L320 523.648l-5.76 5.76a131.84 131.84 0 0 1-82.432 35.392l-7.872 0.192A131.84 131.84 0 0 1 100.096 387.84L197.76 144.512c2.56-6.336 8.768-10.496 15.552-10.496h596.352a17.088 17.088 0 0 1 15.552 10.496zM341.12 587.072l2.56 2.176c19.84 16.128 45.12 25.728 72.704 25.728 28.608 0 54.784-10.432 74.88-27.648h42.368c20.096 17.28 46.208 27.52 74.752 27.52 28.416 0 54.4-10.24 74.496-27.2 14.08 0 28.416 0 43.136 0.128a114.56 114.56 0 0 0 104.512 23.232l-0.128 241.28c0 18.88-15.36 34.176-34.24 34.112l-569.28-0.256a34.24 34.24 0 0 1-34.304-34.176l0.192-241.472a114.368 114.368 0 0 0 106.944-23.68c12.416 0.256 26.24 0.256 41.408 0.256z" p-id="15094"></path></svg>