<?xml version="1.0" standalone="no"?><!DOCTYPE svg PUBLIC "-//W3C//DTD SVG 1.1//EN" "http://www.w3.org/Graphics/SVG/1.1/DTD/svg11.dtd"><svg t="1619340967851" class="icon" viewBox="0 0 1024 1024" version="1.1" xmlns="http://www.w3.org/2000/svg" p-id="14083" xmlns:xlink="http://www.w3.org/1999/xlink" width="128" height="128"><defs><style type="text/css"></style></defs><path d="M848 98H301c-44.2 0-80 35.8-80 80v40h-45c-44.2 0-80 35.8-80 80v548c0 44.2 35.8 80 80 80h547c44.2 0 80-35.8 80-80v-23h93.6c17.3 0 31.4-14.1 31.4-31.4V178c0-44-36-80-80-80zM709 855H191c-13.3 0-24-10.7-24-24V313c0-13.3 10.7-24 24-24h518c13.3 0 24 10.7 24 24v518c0 13.3-10.7 24-24 24z m124-103h-30V298c0-44-36-80-80-80H291v-25c0-13.3 10.7-24 24-24h518c13.3 0 24 10.7 24 24v535c0 13.3-10.7 24-24 24z" p-id="14084"></path></svg>