<?xml version="1.0" standalone="no"?><!DOCTYPE svg PUBLIC "-//W3C//DTD SVG 1.1//EN" "http://www.w3.org/Graphics/SVG/1.1/DTD/svg11.dtd"><svg class="icon" width="200px" height="200.00px" viewBox="0 0 1024 1024" version="1.1" xmlns="http://www.w3.org/2000/svg"><path d="M909.517 114.483A385.382 385.382 0 0 0 635.238 0.82 385.331 385.331 0 0 0 360.96 114.483a385.331 385.331 0 0 0-113.664 274.279c0 84.48 26.88 164.761 76.442 231.27l-66.714 66.714L97.741 527.462a56.73 56.73 0 1 0-80.23 80.23l159.231 159.284-61.747 61.798a56.73 56.73 0 0 0 80.23 80.23l61.799-61.798 159.232 159.284a56.73 56.73 0 1 0 80.282-80.23L337.306 767.026l66.662-66.765a385.024 385.024 0 0 0 231.27 76.39A385.331 385.331 0 0 0 909.517 663.04a385.331 385.331 0 0 0 113.664-274.278 385.382 385.382 0 0 0-113.664-274.279z m-80.23 468.327a272.64 272.64 0 0 1-194.049 80.384A272.64 272.64 0 0 1 441.19 582.81a272.64 272.64 0 0 1-80.384-194.048c0-73.319 28.57-142.234 80.384-194.048a272.589 272.589 0 0 1 194.048-80.384c73.319 0 142.234 28.57 194.048 80.384a272.64 272.64 0 0 1 80.384 194.048 272.589 272.589 0 0 1-80.384 194.048z" /></svg>
