<?xml version="1.0" standalone="no"?><!DOCTYPE svg PUBLIC "-//W3C//DTD SVG 1.1//EN" "http://www.w3.org/Graphics/SVG/1.1/DTD/svg11.dtd"><svg class="icon" width="200px" height="200.00px" viewBox="0 0 1024 1024" version="1.1" xmlns="http://www.w3.org/2000/svg"><path d="M814.08 139.264H209.92c-59.392 0-107.52 48.128-107.52 107.52v387.584c0 59.392 48.128 107.52 107.52 107.52h262.144v81.92h-148.48c-16.896 0-30.72 13.824-30.72 30.72s13.824 30.72 30.72 30.72h358.4c16.896 0 30.72-13.824 30.72-30.72s-13.824-30.72-30.72-30.72h-148.48v-112.64c0-16.896-13.824-30.72-30.72-30.72H209.92c-25.6 0-46.08-20.48-46.08-46.08V246.784c0-25.6 20.48-46.08 46.08-46.08h604.16c25.6 0 46.08 20.48 46.08 46.08v387.584c0 25.6-20.48 46.08-46.08 46.08h-192c-16.896 0-30.72 13.824-30.72 30.72s13.824 30.72 30.72 30.72H814.08c59.392 0 107.52-48.128 107.52-107.52V246.784c0-59.392-48.128-107.52-107.52-107.52z"  /><path d="M270.336 377.856v187.904c0 16.896 13.824 30.72 30.72 30.72s30.72-13.824 30.72-30.72V377.856c0-16.896-13.824-30.72-30.72-30.72s-30.72 13.824-30.72 30.72zM481.28 431.616v134.144c0 16.896 13.824 30.72 30.72 30.72s30.72-13.824 30.72-30.72V431.616c0-16.896-13.824-30.72-30.72-30.72s-30.72 13.312-30.72 30.72zM753.664 565.76V315.392c0-16.896-13.824-30.72-30.72-30.72s-30.72 13.824-30.72 30.72v250.368c0 16.896 13.824 30.72 30.72 30.72s30.72-13.824 30.72-30.72z"  /></svg>
