<?xml version="1.0" standalone="no"?><!DOCTYPE svg PUBLIC "-//W3C//DTD SVG 1.1//EN" "http://www.w3.org/Graphics/SVG/1.1/DTD/svg11.dtd"><svg class="icon" width="200px" height="200.00px" viewBox="0 0 1024 1024" version="1.1" xmlns="http://www.w3.org/2000/svg"><path d="M512 512m-510.272 0a510.272 510.272 0 1 0 1020.544 0 510.272 510.272 0 1 0-1020.544 0Z" fill="#FFED9E" /><path d="M599.36 413.888H506.304c-43.072 0-78.336 33.216-81.472 75.456l-0.192 1.984v0.064l-0.064 2.048v116.608H517.76c39.104 0 71.744-27.52 79.808-64.128l0.256-1.344a43.392 43.392 0 0 0 0.768-4.16l0.256-1.92 0.448-3.968 0.128-6.208s0.064-107.84-0.064-114.432z" fill="#fbc94f" /><path d="M499.008 382.336h100.416v-48.448c0-45.056-36.544-81.6-81.664-81.6H323.2c-45.056 0-81.6 36.608-81.664 81.6v194.56c0 44.992 36.608 81.6 81.6 81.6h70.592V487.488c0-58.048 47.168-105.152 105.28-105.152z m26.048 259.328h-100.48v48.384c0 45.12 36.608 81.664 81.728 81.664h194.496a81.728 81.728 0 0 0 81.6-81.664V495.552c0-44.992-36.544-81.6-81.536-81.6H630.272v122.496c0 58.112-47.104 105.216-105.216 105.216z" fill="#F7A500" /></svg>