<?xml version="1.0" standalone="no"?><!DOCTYPE svg PUBLIC "-//W3C//DTD SVG 1.1//EN" "http://www.w3.org/Graphics/SVG/1.1/DTD/svg11.dtd"><svg class="icon" width="200px" height="200.00px" viewBox="0 0 1024 1024" version="1.1" xmlns="http://www.w3.org/2000/svg"><path fill="#333333" d="M619.2 483l-40.9 126h0.1l40.8-126zM512 338.4L387.3 429l124.8-90.5-0.1-0.1z m-170.6 124L389 609l-47.6-146.6zM884.7 346.4c-20.4-48.2-49.5-91.4-86.7-128.6-37.1-37.1-80.4-66.3-128.6-86.7-49.8-21-102.8-31.7-157.4-31.7s-107.6 10.7-157.5 31.8c-48.2 20.4-91.4 49.5-128.6 86.7-37.1 37.1-66.3 80.4-86.7 128.6-21.1 49.9-31.8 102.9-31.8 157.5 0 54.6 10.7 107.6 31.8 157.5 20.4 48.2 49.5 91.4 86.7 128.6 37.1 37.1 80.4 66.3 128.6 86.7 49.9 21.1 102.9 31.8 157.5 31.8s107.6-10.7 157.5-31.8c48.2-20.4 91.4-49.5 128.6-86.7 37.1-37.1 66.3-80.4 86.7-128.6 21.1-49.9 31.8-102.9 31.8-157.5-0.1-54.7-10.8-107.7-31.9-157.6zM512 158.4c64.3 0 125.9 17.4 179.4 50.1l-179.3 130L387.3 429l-68.7-211.5C375.2 179 442 158.4 512 158.4zM619.2 483l-40.8 126H445.8l-40.9-126L512 405.1l0.1 0.1L619.2 483z m-452.7 20.9c0-92.3 35.9-179 101.2-244.3 2-1.9 3.9-3.9 5.9-5.8l67.8 208.6L389 609H182.7c-10.7-33.6-16.2-68.9-16.2-105.1z m334 345.3c-88-2.8-170.2-38.5-232.8-101a349.25 349.25 0 0 1-62.6-85.2h355.7l-60.3 186.2z m255.8-101c-54.2 54.2-123.4 88.2-198.2 98.2l107-330L831 636.9c-17.1 41.1-42.2 78.8-74.7 111.3z m92.2-165.4L558.1 371.9l179.2-130c6.5 5.6 12.9 11.5 19 17.7 65.2 65.3 101.2 152 101.2 244.3 0 26.9-3.1 53.3-9 78.9zM445.8 609l-41-126zM512.1 405.2L404.8 483 512 405.1z" /></svg>