<?xml version="1.0" standalone="no"?><!DOCTYPE svg PUBLIC "-//W3C//DTD SVG 1.1//EN" "http://www.w3.org/Graphics/SVG/1.1/DTD/svg11.dtd"><svg t="1617884011607" class="icon" viewBox="0 0 1024 1024" version="1.1" xmlns="http://www.w3.org/2000/svg" p-id="14497" xmlns:xlink="http://www.w3.org/1999/xlink" width="200" height="200"><defs><style type="text/css"></style></defs><path d="M512 967.111111c-250.936889 0-455.111111-204.174222-455.111111-455.111111s204.174222-455.111111 455.111111-455.111111 455.111111 204.174222 455.111111 455.111111-204.174222 455.111111-455.111111 455.111111zM512 115.029333c-221.184 0-401.123556 178.062222-401.123556 396.970667S290.816 908.970667 512 908.970667c221.184 0 401.123556-178.062222 401.123556-396.970667S733.184 115.029333 512 115.029333z" p-id="14498"></path><path d="M512 683.121778c-93.582222 0-169.642667-76.743111-169.642667-171.121778 0-94.321778 76.060444-171.008 169.642667-171.008 93.582222 0 169.642667 76.686222 169.642667 171.008 0 94.321778-76.060444 171.121778-169.642667 171.121778z m0-284.103111c-63.829333 0-115.768889 50.744889-115.768889 112.981333 0 62.236444 51.882667 112.981333 115.768889 112.981333 63.829333 0 115.768889-50.744889 115.768889-112.981333 0-62.236444-51.939556-112.981333-115.768889-112.981333z" p-id="14499"></path><path d="M911.587556 399.018667H512c-14.904889 0-26.965333-12.970667-26.965333-29.013334 0-16.042667 12.117333-29.013333 26.965333-29.013333h399.587556c14.904889 0 26.965333 12.970667 26.965333 29.013333 0 16.042667-12.060444 29.013333-26.965333 29.013334z m-256.853334 539.704889c-14.961778 0-26.965333-13.027556-26.965333-29.013334V512c0-16.042667 12.117333-29.013333 26.965333-29.013333 14.904889 0 26.908444 12.970667 26.908445 29.013333v397.653333c0 16.042667-11.946667 29.013333-26.908445 29.013334zM512 683.121778H126.691556c-14.904889 0-26.908444-13.027556-26.908445-29.013334 0-16.042667 12.060444-29.013333 26.908445-29.013333H512c14.904889 0 26.965333 12.970667 26.965333 29.013333 0 15.985778-12.060444 29.013333-26.965333 29.013334zM369.265778 541.013333c-14.904889 0-26.908444-12.970667-26.908445-29.013333V128.568889c0-16.042667 12.060444-29.070222 26.908445-29.070222 14.961778 0 26.965333 13.027556 26.965333 29.013333V512c0 16.042667-12.003556 29.013333-26.965333 29.013333z" p-id="14500"></path><path d="M399.132444 452.551111a26.168889 26.168889 0 0 1-19.854222-9.386667 30.549333 30.549333 0 0 1 1.536-41.016888l282.567111-281.201778a25.713778 25.713778 0 0 1 38.115556 1.706666 30.549333 30.549333 0 0 1-1.536 40.96L417.450667 444.871111a25.770667 25.770667 0 0 1-18.318223 7.736889z m498.176 267.434667a25.770667 25.770667 0 0 1-18.318222-7.736889l-282.510222-281.144889a30.72 30.72 0 0 1-1.536-41.073778 25.6 25.6 0 0 1 38.115556-1.649778l282.510222 281.201778a30.72 30.72 0 0 1 1.592889 41.016889 26.055111 26.055111 0 0 1-19.911111 9.386667z m-568.832 204.515555a25.884444 25.884444 0 0 1-19.797333-9.386666 30.549333 30.549333 0 0 1 1.536-41.016889l272.440889-271.189334a25.656889 25.656889 0 0 1 38.115556 1.706667 30.549333 30.549333 0 0 1-1.536 40.96l-272.440889 271.189333a25.770667 25.770667 0 0 1-18.318223 7.736889z m70.656-271.132444a25.770667 25.770667 0 0 1-18.318222-7.736889L108.430222 374.556444a30.72 30.72 0 0 1-1.592889-41.073777 25.6 25.6 0 0 1 38.115556-1.592889l272.497778 271.132444a30.72 30.72 0 0 1 1.536 41.073778 26.168889 26.168889 0 0 1-19.854223 9.272889z" p-id="14501"></path></svg>