<?xml version="1.0" standalone="no"?><!DOCTYPE svg PUBLIC "-//W3C//DTD SVG 1.1//EN" "http://www.w3.org/Graphics/SVG/1.1/DTD/svg11.dtd"><svg class="icon" width="200px" height="193.57px" viewBox="0 0 1058 1024" version="1.1" xmlns="http://www.w3.org/2000/svg"><path d="M183.808 747.52h-2.048c-16.896 0-30.72 14.336-30.72 31.232s13.824 31.232 31.232 31.232c1.024 0 128.512 1.024 205.824 88.576 5.632 6.656 14.336 10.24 23.04 10.24 7.68 0 14.848-3.072 20.48-8.192 12.8-11.264 13.824-31.232 2.56-44.032-95.744-107.52-244.224-109.056-250.368-109.056z"  /><path d="M812.032 586.24c64.512-110.592 79.36-253.952 36.864-356.864-4.608-11.264-15.872-18.944-28.16-18.944h-9.216c-58.368 0-112.64 11.264-162.304 33.792-35.328-65.536-73.728-113.664-118.272-146.432-5.632-5.632-13.312-8.192-21.504-8.192-4.096 0-8.704 1.024-12.288 2.56-3.072 1.536-5.632 3.072-8.192 5.12-43.52 31.232-83.456 80.384-118.272 144.384-48.64-21.504-101.888-32.256-158.72-32.256h-9.216c-12.288 0.512-23.552 7.68-28.16 18.944-42.496 102.912-27.648 246.272 36.864 356.864 55.808 95.232 142.336 154.624 243.712 167.936 3.072 1.024 6.144 1.536 9.216 1.536h16.384v148.992c0 17.408 13.824 31.232 31.232 31.232 16.896 0 30.72-13.824 31.232-31.232v-148.992h16.896c3.072 0 6.144-0.512 8.704-1.024 101.376-12.8 187.904-72.192 243.2-167.424z m-256 106.496H468.48c-108.032-12.288-169.984-81.92-202.752-138.24-50.176-85.504-66.56-198.656-40.448-282.112 52.736 2.048 100.864 14.848 143.872 38.4 4.608 2.56 9.728 3.584 14.848 3.584 3.072 0 6.144-0.512 9.216-1.536 8.192-2.56 14.848-8.192 18.432-15.872 29.184-59.904 62.464-106.496 98.304-137.728 35.84 31.232 68.096 76.8 98.304 139.264 3.584 7.68 10.24 13.312 18.432 15.872 3.072 1.024 6.144 1.536 9.216 1.536 5.12 0 10.752-1.536 15.36-4.096 44.032-24.576 93.184-37.888 147.456-39.936 25.6 83.456 9.728 196.608-39.936 282.112-32.768 56.832-94.72 126.464-202.752 138.752z"  /><path d="M842.24 747.52h-1.536c-15.36 0-153.6 3.072-250.88 109.056-11.776 12.8-10.752 32.256 1.536 44.032 5.632 5.12 13.312 8.192 20.992 8.192 8.704 0 16.896-3.584 22.528-10.24 80.896-88.064 205.312-89.088 206.848-89.088 16.896 0 30.72-13.824 31.232-30.72 0-16.896-13.824-31.232-30.72-31.232z"  /></svg>
