<?xml version="1.0" standalone="no"?><!DOCTYPE svg PUBLIC "-//W3C//DTD SVG 1.1//EN" "http://www.w3.org/Graphics/SVG/1.1/DTD/svg11.dtd"><svg class="icon" width="200px" height="193.57px" viewBox="0 0 1058 1024" version="1.1" xmlns="http://www.w3.org/2000/svg"><path d="M422.80448 919.97184a30.06976 30.06976 0 0 1-22.53312-10.15808c-78.49472-88.63232-205.50144-89.48224-208.10752-89.48224h-0.18944c-16.5632 0-30.08-13.48096-30.21312-30.17216-0.14336-16.79872 13.2096-30.4896 29.86496-30.65856 6.26688-0.34816 156.2624-0.20992 253.67552 109.77792a30.57664 30.57664 0 0 1-2.40128 42.95168 29.8496 29.8496 0 0 1-20.096 7.74144z m202.43456-0.08192c-7.3216 0-14.71488-2.6624-20.54144-8.0896-12.22144-11.42272-12.95872-30.69952-1.60768-42.99776 100.89984-109.83936 247.8336-109.70112 253.63968-109.47072 16.70144 0.18944 30.04928 13.94688 29.88032 30.72512-0.17408 16.70656-13.6448 30.14144-30.19264 30.14144h-0.21504c-2.52928 0-126.94016 0.80384-208.82944 89.93792a29.82912 29.82912 0 0 1-22.13376 9.7536z m-53.20192-154.74176H476.37504a29.57312 29.57312 0 0 1-8.81664-1.31584c-102.11328-13.2096-188.89728-72.91392-244.84864-168.68352-64.91648-111.232-79.79008-255.33952-36.9664-358.65088a30.24896 30.24896 0 0 1 27.27424-18.67264l9.06752-0.09216c57.53344 0 111.2064 10.96192 160.06144 32.6144 35.34336-65.0752 75.68384-114.45248 120.13056-147.06176a30.1312 30.1312 0 0 1 8.02304-5.08416 30.27456 30.27456 0 0 1 32.83968 5.69344c44.56448 32.9728 83.80416 81.63328 119.29088 148.0704 49.8176-22.69184 104.7552-34.19136 163.76832-34.19136l9.25184 0.08704a30.17728 30.17728 0 0 1 27.2384 18.67264c42.84928 103.31136 28.00128 247.42912-36.992 358.67648-55.93088 95.70816-142.68928 155.44832-244.79744 168.6784a32.7168 32.7168 0 0 1-8.86272 1.25952z m-90.30144-60.81536h84.9152c0.64512-0.128 1.30048-0.2048 1.96608-0.3072 109.13792-12.24192 171.73504-82.7904 205.04576-139.77088 50.98496-87.36256 66.42688-201.48736 40.1152-285.52192-54.93248 1.792-105.27744 15.36-149.79584 40.42752a30.336 30.336 0 0 1-23.77216 2.50368 30.3872 30.3872 0 0 1-18.10944-15.70816c-30.60736-63.0784-63.40096-109.51168-99.8144-141.16352-36.43904 31.59552-69.96992 78.35648-99.90144 139.38176a30.18752 30.18752 0 0 1-17.9712 15.50336 29.73696 29.73696 0 0 1-23.54176-2.27328c-43.60192-23.86944-92.7744-36.87936-146.21184-38.64576-26.32704 84.04992-10.86976 198.20032 40.11008 285.50144 33.29536 56.98048 95.86176 127.50848 204.97408 139.77088 0.67072 0.09728 1.33632 0.17408 1.99168 0.30208z m42.22976 242.12992c-16.64 0-30.18752-13.59872-30.18752-30.43328v-181.29408c0-16.82432 13.54752-30.40256 30.18752-30.40256 16.67584 0 30.19264 13.57312 30.19264 30.40256v181.29408c-0.0256 16.83456-13.5168 30.43328-30.19264 30.43328z m0 0"  /></svg>
