<?xml version="1.0" standalone="no"?><!DOCTYPE svg PUBLIC "-//W3C//DTD SVG 1.1//EN" "http://www.w3.org/Graphics/SVG/1.1/DTD/svg11.dtd"><svg t="1571472489296" class="icon" viewBox="0 0 1024 1024" version="1.1" xmlns="http://www.w3.org/2000/svg" p-id="8384" xmlns:xlink="http://www.w3.org/1999/xlink" width="20" height="20"><defs><style type="text/css"></style></defs><path d="M788.70097351 260.32725525l-0.69522858 366.38545991-132.78865814-0.3476143c-9.38558579 0-18.07594299 1.73807144-26.76630019 5.21421432-8.34274292 3.47614289-15.99025727 8.6903572-22.94254304 15.29502869l-94.20347213 93.85585785-94.55108644-94.20347214c-3.1285286-3.47614289-6.60467148-6.60467148-10.42842864-9.38558578-3.82375718-2.43330002-7.99512863-4.51898574-11.81888581-6.25705719-4.17137146-1.39045716-8.34274292-2.7809143-13.20934296-3.82375717-4.51898574-1.04284287-9.38558579-1.39045716-13.90457152-1.73807145l-132.78865815-0.34761428 0.69522858-366.3854599 553.40194702 1.73807144z m15.29502868-69.52285767L220.35161209 189.76155472c-14.9474144 0-27.80914307 5.21421433-38.23757171 15.29502868-10.42842865 10.42842865-15.99025727 22.94254303-15.99025727 37.88995743L165.77616882 641.66012954c0 14.9474144 5.21421433 27.46152878 15.64264298 37.88995744s23.29015732 15.29502869 38.23757171 15.64264298l148.08368683 0.34761428L501.57157135 830.41468811c2.43330002 2.43330002 5.9094429 3.82375718 10.08081437 3.82375717 1.04284287 0 2.08568573-0.34761428 3.12852858-0.69522858l6.2570572-3.12852859 134.52672958-134.52672959 148.08368683 0.3476143c14.9474144 0 27.80914307-5.21421433 38.23757171-15.29502868 10.42842865-10.42842865 15.99025727-22.94254303 15.99025727-37.88995744l0.69522857-398.71358872c0-14.9474144-5.21421433-27.46152878-15.64264297-37.88995742-11.12365723-10.42842865-23.98538589-15.64264297-38.9328003-15.64264298z" p-id="8385"></path></svg>
