<?xml version="1.0" standalone="no"?><!DOCTYPE svg PUBLIC "-//W3C//DTD SVG 1.1//EN" "http://www.w3.org/Graphics/SVG/1.1/DTD/svg11.dtd"><svg class="icon" width="200px" height="193.57px" viewBox="0 0 1058 1024" version="1.1" xmlns="http://www.w3.org/2000/svg"><path d="M555.81184 435.38944h-44.86144v134.58432H376.36096v44.86656h134.58944v134.55872h44.86144v-134.55872h134.56384v-44.86656h-134.56384V435.38944zM735.232 300.80512s0.35328-40.53504 0-89.71776c-2.14016-44.93312-44.85632-44.86144-44.85632-44.86144s-219.20768 1.54624-314.01472 0c-39.33184-0.61952-42.78784 2.10944-44.85632 44.86144 0.29696 42.05568 0 89.71776 0 89.71776H152.05888v583.17312h762.61376V300.80512H735.232z m-358.87104-44.86656c0-38.12352 44.86656-44.8512 44.86656-44.8512s177.62816-2.01216 219.50464-0.26112c38.57408 1.61792 49.6384 45.11232 49.6384 45.11232v44.86656h-314.0096v-44.86656zM195.30752 841.18016l1.60768-495.50336h672.89088v493.44l-674.49856 2.06336z m1.6128-2.06336"  /></svg>
