<?xml version="1.0" standalone="no"?><!DOCTYPE svg PUBLIC "-//W3C//DTD SVG 1.1//EN" "http://www.w3.org/Graphics/SVG/1.1/DTD/svg11.dtd"><svg class="icon" width="200px" height="193.57px" viewBox="0 0 1058 1024" version="1.1" xmlns="http://www.w3.org/2000/svg"><path d="M814.08 264.704h-91.648V212.992c0-31.232-25.088-56.32-56.32-56.32H357.888c-31.232 0-56.32 25.088-56.32 56.32v51.712H209.92c-59.392 0-107.52 48.128-107.52 107.52v387.584c0 59.392 48.128 107.52 107.52 107.52h604.16c59.392 0 107.52-48.128 107.52-107.52V372.224c0-59.392-48.128-107.52-107.52-107.52z m-451.072-46.592h297.984v46.592H363.008v-46.592zM860.16 759.808c0 25.6-20.48 46.08-46.08 46.08H209.92c-25.6 0-46.08-20.48-46.08-46.08V372.224c0-25.6 20.48-46.08 46.08-46.08h604.16c25.6 0 46.08 20.48 46.08 46.08v387.584z"  /><path d="M620.032 535.552H542.72V457.728c0-16.896-13.824-30.72-30.72-30.72s-30.72 13.824-30.72 30.72v77.312H403.968c-16.896 0-30.72 13.824-30.72 30.72s13.824 30.72 30.72 30.72H481.28v77.312c0 16.896 13.824 30.72 30.72 30.72s30.72-13.824 30.72-30.72v-77.312h77.312c16.896 0 30.72-13.824 30.72-30.72s-13.312-30.208-30.72-30.208z"  /></svg>
