<?xml version="1.0" standalone="no"?><!DOCTYPE svg PUBLIC "-//W3C//DTD SVG 1.1//EN" "http://www.w3.org/Graphics/SVG/1.1/DTD/svg11.dtd"><svg t="1617952816459" class="icon" viewBox="0 0 1024 1024" version="1.1" xmlns="http://www.w3.org/2000/svg" p-id="16783" xmlns:xlink="http://www.w3.org/1999/xlink" width="16" height="16"><defs><style type="text/css"></style></defs><path d="M818.849684 116.224H204.638316a94.261895 94.261895 0 0 0-94.208 94.208v603.028211a94.261895 94.261895 0 0 0 94.208 94.234947h614.211368a94.261895 94.261895 0 0 0 94.208-94.208V210.405053a94.396632 94.396632 0 0 0-94.208-94.181053z m32.094316 697.344c0 17.704421-14.416842 32.121263-32.094316 32.121263H204.638316a32.175158 32.175158 0 0 1-32.121263-32.121263V660.749474c6.440421 4.203789 13.473684 8.407579 21.072842 12.395789a285.426526 285.426526 0 0 0 134.925473 33.792c21.369263 0 44.220632-2.317474 68.634948-7.895579 100.109474-22.824421 146.539789-87.363368 187.472842-144.195368 25.680842-35.678316 50.014316-69.470316 85.800421-93.049263 57.667368-37.995789 141.797053-21.153684 180.547368-10.24v362.010947z m0-422.938947c-52.412632-12.638316-143.036632-24.090947-212.938105 21.989052-44.948211 29.588211-73.566316 69.389474-101.268211 107.789474-39.882105 55.511579-74.320842 103.370105-152.737684 121.182316-57.047579 12.934737-111.050105 6.521263-160.525474-19.402106a231.208421 231.208421 0 0 1-50.930526-35.974736V210.432c0-17.704421 14.416842-32.121263 32.067368-32.121263h614.238316c17.677474 0 32.094316 14.416842 32.094316 32.121263v180.197053zM325.254737 250.88a112.047158 112.047158 0 0 0-111.885474 111.885474 112.047158 112.047158 0 0 0 111.885474 111.885473 112.047158 112.047158 0 0 0 111.912421-111.885473 112.047158 112.047158 0 0 0-111.912421-111.885474z m0 169.148632a57.209263 57.209263 0 0 1-57.128421-57.155369c0-31.582316 25.653895-57.155368 57.128421-57.155368 31.582316 0 57.155368 25.680842 57.155368 57.128421 0 31.501474-25.573053 57.182316-57.128421 57.182316z m305.690947 168.421052c-26.731789 0-48.424421 21.692632-48.424421 48.424421v118.730106c0 26.731789 21.692632 48.424421 48.424421 48.424421h121.155369c26.731789 0 48.424421-21.692632 48.424421-48.424421v-118.730106c0-26.731789-21.692632-48.424421-48.424421-48.424421h-121.155369z m114.849684 160.848842h-108.544v-106.118737h108.544v106.118737z" p-id="16784"></path></svg>