<?xml version="1.0" standalone="no"?><!DOCTYPE svg PUBLIC "-//W3C//DTD SVG 1.1//EN" "http://www.w3.org/Graphics/SVG/1.1/DTD/svg11.dtd"><svg class="icon" width="200px" height="200.00px" viewBox="0 0 1024 1024" version="1.1" xmlns="http://www.w3.org/2000/svg"><path d="M136.805806 420.361907v375.235126c0 46.023196 37.268812 83.375919 83.126232 83.375919h584.134901c45.815465 0 83.126232-37.352723 83.126232-83.334987v-375.277082c0-45.982264-37.268812-83.334987-83.126232-83.334987h-584.134901c-45.815465 0.002047-83.126232 37.354769-83.126232 83.336011z m-41.687448 0c0-69.035306 55.987129-125.022435 124.814703-125.022435h584.134901c68.910463 0 124.814704 56.029084 124.814704 125.022435v375.235126c0 69.077262-55.987129 125.06439-124.814704 125.064391h-584.134901c-68.910463 0-124.814704-56.029084-124.814703-125.023459v-375.276058z"  /><path d="M537.471115 170.108283l85.58626-77.790714c8.212032-7.503904 20.88568-7.170307 28.765137 0.667195l166.752862 166.752862c8.129144 8.129144 8.129144 21.344121 0 29.473265l-41.688471 41.688471c-8.129144 8.129144-21.344121 8.129144-29.473265 0-8.129144-8.129144-8.129144-21.344121 0-29.473265l41.688471-41.688471v29.473265l-166.752862-166.752862 28.765137 0.667196-229.285056 208.441333c-8.54563 7.795547-21.719674 7.170307-29.473265-1.375324-7.753591-8.504698-7.128351-21.677719 1.417279-29.432333l110.640889-100.552113-105.929588-52.943816 27.55559-8.504698-104.220667 187.596585c-5.586229 10.04682-18.300808 13.673417-28.347628 8.087189-10.04682-5.586229-13.673417-18.300808-8.087189-28.347628l104.220667-187.596586c5.41943-9.755178 17.550725-13.506619 27.555589-8.504697l120.31011 60.115146zM741.285057 649.688919c23.01211 0 41.688471-18.676361 41.688471-41.688471s-18.676361-41.688471-41.688471-41.688472-41.688471 18.676361-41.688471 41.688472 18.676361 41.688471 41.688471 41.688471z"  /><path d="M637.06439 608.001471c0 45.940308 37.393655 83.375919 83.459831 83.375919h208.357421l-41.688471 41.688471v-250.12878l41.688471 41.688471h-208.357421c-46.231951-0.001023-83.45983 37.267788-83.459831 83.375919z m-41.688471 0c0-69.077262 55.82033-125.06439 125.148302-125.06439h208.357421v250.12878h-208.357421c-69.119217 0-125.148301-56.153928-125.148302-125.06439z"  /></svg>
