<?xml version="1.0" standalone="no"?><!DOCTYPE svg PUBLIC "-//W3C//DTD SVG 1.1//EN" "http://www.w3.org/Graphics/SVG/1.1/DTD/svg11.dtd"><svg t="1637137132202" class="icon" viewBox="0 0 1024 1024" version="1.1" xmlns="http://www.w3.org/2000/svg" p-id="2283" xmlns:xlink="http://www.w3.org/1999/xlink" width="200" height="200"><defs><style type="text/css"></style></defs><path d="M805.205333 572.871111l-11.605333 35.669333a304.128 304.128 0 0 1-59.278222 105.130667l-24.348445 28.16 44.373334 78.677333-102.912 60.871112-44.202667-78.506667-35.84 7.452444a293.603556 293.603556 0 0 1-118.727111 0l-35.84-7.395555-44.259556 78.506666-102.855111-60.871111 44.316445-78.734222-24.348445-28.16a304.128 304.128 0 0 1-59.278222-105.130667l-11.605333-35.669333H130.218667V451.128889h88.576l11.605333-35.669333a304.128 304.128 0 0 1 59.278222-105.130667l24.348445-28.16-44.373334-78.677333 102.912-60.871112 44.202667 78.506667 35.84-7.452444a293.603556 293.603556 0 0 1 118.727111 0l35.896889 7.395555 44.202667-78.506666 102.855111 60.871111-44.316445 78.734222 24.348445 28.16a304.128 304.128 0 0 1 59.278222 105.130667l11.605333 35.669333h88.576v121.742222h-88.576z m190.350223 104.391111v-330.524444h-118.897778a407.438222 407.438222 0 0 0-42.723556-75.889778l59.448889-105.585778L614.172444 0 554.780444 105.528889a393.728 393.728 0 0 0-85.560888 0L409.827556 0 130.616889 165.262222l59.448889 105.585778a407.438222 407.438222 0 0 0-42.780445 75.889778H28.444444v330.524444h118.897778c11.491556 26.851556 25.827556 52.224 42.723556 75.889778l-59.448889 105.585778L409.827556 1024l59.392-105.528889a393.728 393.728 0 0 0 85.560888 0L614.172444 1024l279.210667-165.262222-59.448889-105.585778c16.896-23.665778 31.232-49.038222 42.780445-75.889778H995.555556zM401.692444 512c0 62.464 49.379556 113.095111 110.364445 113.095111 60.871111 0 110.250667-50.631111 110.250667-113.095111 0-62.464-49.379556-113.095111-110.307556-113.095111-60.871111 0-110.307556 50.631111-110.307556 113.095111z" fill="#888889" p-id="2284"></path></svg>