<?xml version="1.0" standalone="no"?><!DOCTYPE svg PUBLIC "-//W3C//DTD SVG 1.1//EN" "http://www.w3.org/Graphics/SVG/1.1/DTD/svg11.dtd"><svg class="icon" width="200px" height="198.45px" viewBox="0 0 1032 1024" version="1.1" xmlns="http://www.w3.org/2000/svg"><path d="M507.623635 1015.72325A503.723168 503.723168 0 0 1 516.376857 8.276915h8.918378a503.723168 503.723168 0 0 1-8.588067 1007.446335z" fill="#FFFFFF" /><path d="M516.376857 0.019158v16.515514h8.753223A495.465411 495.465411 0 0 1 516.376857 1007.465493h-8.753222A495.465411 495.465411 0 0 1 516.376857 16.534672V0.019158m0 0a511.980925 511.980925 0 0 0-8.753222 1023.961849H516.376857a511.980925 511.980925 0 0 0 8.753223-1023.961849z" fill="#DCDFE6" /><path d="M660.392137 579.218223a73.824346 73.824346 0 1 0 76.136518 73.659191 74.815277 74.815277 0 0 0-76.136518-73.659191z m49.546541 54.33604l-54.996661 52.519334c-6.275895 5.945585-9.578998 4.954654-12.386635 2.312172l-33.031027-31.709786a6.936516 6.936516 0 0 1 0-10.074464 7.266826 7.266826 0 0 1 10.404773 0L648.500967 672.200565l51.858713-49.546541a7.762291 7.762291 0 0 1 10.735084 0 6.936516 6.936516 0 0 1 0 10.239619zM450.314803 340.734206h101.570409a21.800478 21.800478 0 0 0 0-43.435801H450.314803a21.800478 21.800478 0 0 0 0 43.435801zM662.704309 561.546624a87.532223 87.532223 0 0 1 33.031027 6.606205V370.46213a45.747973 45.747973 0 0 0-50.702627-49.546541H598.954426A36.168975 36.168975 0 0 1 570.382587 363.360459h-140.547021a34.682579 34.682579 0 0 1-30.718856-36.168975 51.693558 51.693558 0 0 1 0-7.101671h-46.243438c-37.159906 0-46.408593 20.314082-46.408594 49.546542v292.324592c0 31.709786 13.212411 49.546541 49.546541 49.546541h225.106452A92.982342 92.982342 0 0 1 662.704309 561.546624z m-257.807169-130.307403h198.186164a15.194273 15.194273 0 0 1 14.038187 14.203341 16.515514 16.515514 0 0 1-15.029117 14.698808h-198.186165a13.707876 13.707876 0 0 1-12.056325-14.698808 14.368497 14.368497 0 0 1 13.542721-14.203341z m89.183774 192.405734h-90.835325a13.707876 13.707876 0 0 1-11.89117-14.698807 14.368497 14.368497 0 0 1 13.377566-14.203342h90.174705a15.194273 15.194273 0 0 1 14.203341 14.203342 16.515514 16.515514 0 0 1-15.029117 14.698807z m-91.661101-80.430552a16.515514 16.515514 0 0 1-14.533652-16.515513 13.542721 13.542721 0 0 1 13.377566-13.047256H598.954426a14.038187 14.038187 0 0 1 14.038187 13.047256c0 7.266826-4.954654 16.515514-12.386636 16.515513z m0 0" fill="#FFAC00" /></svg>