<?xml version="1.0" standalone="no"?><!DOCTYPE svg PUBLIC "-//W3C//DTD SVG 1.1//EN" "http://www.w3.org/Graphics/SVG/1.1/DTD/svg11.dtd"><svg class="icon" width="200px" height="200.00px" viewBox="0 0 1024 1024" version="1.1" xmlns="http://www.w3.org/2000/svg"><path d="M796.85 154.25h-188.55c-41.85 0-75.6 33.75-75.6 75.6V494h264.15c41.85 0 75.6-33.75 75.6-75.6V229.85c-0.45-41.85-34.2-75.6-75.6-75.6z m0 264.15h-188.55V229.85h188.55v188.55zM796.85 531.35h-264.15V795.5c0 41.85 33.75 75.6 75.6 75.6h188.55c41.85 0 75.6-33.75 75.6-75.6v-188.55c-0.45-41.85-34.2-75.6-75.6-75.6z m0 264.15h-188.55v-188.55h188.55V795.5zM419.75 154.25h-189c-41.85 0-75.6 33.75-75.6 75.6v188.55c0 41.85 33.75 75.6 75.6 75.6h264.15V229.85c0-41.85-33.75-75.6-75.15-75.6z m0 264.15h-189V229.85h188.55v188.55zM230.75 531.35c-41.85 0-75.6 33.75-75.6 75.6V795.5c0 41.85 33.75 75.6 75.6 75.6h188.55c41.85 0 75.6-33.75 75.6-75.6v-264.15H230.75z m189 264.15h-189v-188.55h188.55V795.5z" /></svg>
