<?xml version="1.0" standalone="no"?><!DOCTYPE svg PUBLIC "-//W3C//DTD SVG 1.1//EN" "http://www.w3.org/Graphics/SVG/1.1/DTD/svg11.dtd"><svg t="1625648037697" class="icon" viewBox="0 0 1024 1024" version="1.1" xmlns="http://www.w3.org/2000/svg" p-id="14493" width="12" height="12" xmlns:xlink="http://www.w3.org/1999/xlink"><defs><style type="text/css"></style></defs><path d="M507.00178773 119.43194738c156.38928498 0 297.40528071 94.22620445 357.27314489 238.74327892 59.88534045 144.47629653 26.7911168 310.80375182-83.8336512 421.42851983a386.7672576 386.7672576 0 0 1-374.27172693 101.56041102 386.61579662 386.61579662 0 0 1-274.17349689-274.23757654 386.68570169 386.68570169 0 0 1 101.56041102-374.22512355 384.11086507 384.11086507 0 0 1 273.44531911-113.26950968m0-66.85254543c-250.45820302 0-453.5615488 203.08004409-453.5615488 453.54989796 0 250.52228267 203.10334578 453.5615488 453.5615488 453.5615488 250.49315555 0 453.55572338-203.03926613 453.55572338-453.5615488 0-250.46985387-203.06256782-453.54989795-453.55572338-453.54989796z m0 0" fill="#353535" p-id="14494"></path><path d="M507.00178773 448.86539947c-31.65534435 0-57.31050382 25.63185778-57.31050382 57.26972586 0 31.66116978 25.65515947 57.31632925 57.31050382 57.31632925s57.29302755-25.65515947 57.29302756-57.31632925c0-31.63786809-25.64350862-57.26972587-57.29302756-57.26972586z m-200.54016 0c-31.63786809 0-57.29302755 25.63185778-57.29302755 57.26972586 0 31.66116978 25.65515947 57.31632925 57.29302755 57.31632925 31.64951893 0 57.3046784-25.65515947 57.3046784-57.31632925 0-31.63786809-25.66098489-57.26972587-57.3046784-57.26972586z m401.06866916 0c-31.66116978 0-57.3046784 25.63185778-57.3046784 57.26972586 0 31.66116978 25.64350862 57.31632925 57.3046784 57.31632925s57.29885298-25.65515947 57.29885298-57.31632925c0-31.63786809-25.6376832-57.26972587-57.29885298-57.26972586z m0 0" fill="#353535" p-id="14495"></path></svg>