<?xml version="1.0" standalone="no"?><!DOCTYPE svg PUBLIC "-//W3C//DTD SVG 1.1//EN" "http://www.w3.org/Graphics/SVG/1.1/DTD/svg11.dtd"><svg class="icon" width="200px" height="200.00px" viewBox="0 0 1024 1024" version="1.1" xmlns="http://www.w3.org/2000/svg"><path d="M513.8 926C284.3 926 98 740.15 98 510.2c0-229.5 186.3-415.8 415.8-415.8 229.5 0 415.8 186.3 415.8 415.8 0 229.5-185.85 415.8-415.8 415.8z m0-752.4c-185.85 0-336.6 150.75-336.6 336.6s150.75 336.6 336.6 336.6 336.6-150.75 336.6-336.6-150.75-336.6-336.6-336.6z m198 396c-32.85 0-59.4-26.55-59.4-59.4 0-32.85 26.55-59.4 59.4-59.4 32.85 0 59.4 26.55 59.4 59.4 0 32.85-26.55 59.4-59.4 59.4z m-198 0c-32.85 0-59.4-26.55-59.4-59.4 0-32.85 26.55-59.4 59.4-59.4 32.85 0 59.4 26.55 59.4 59.4 0 32.85-26.55 59.4-59.4 59.4z m-197.55 0c-32.85 0-59.4-26.55-59.4-59.4 0-32.85 26.55-59.4 59.4-59.4 32.85 0 59.4 26.55 59.4 59.4 0 32.85-26.55 59.4-59.4 59.4z" /></svg>
