<?xml version="1.0" standalone="no"?><!DOCTYPE svg PUBLIC "-//W3C//DTD SVG 1.1//EN" "http://www.w3.org/Graphics/SVG/1.1/DTD/svg11.dtd"><svg class="icon" width="200px" height="200.00px" viewBox="0 0 1024 1024" version="1.1" xmlns="http://www.w3.org/2000/svg"><path d="M512 102.4c-226.304 0-409.6 183.296-409.6 409.6s183.296 409.6 409.6 409.6 409.6-183.296 409.6-409.6-183.296-409.6-409.6-409.6z m0 757.76c-192 0-348.16-156.16-348.16-348.16s156.16-348.16 348.16-348.16 348.16 156.16 348.16 348.16-156.16 348.16-348.16 348.16z"  /><path d="M326.144 512m-51.2 0a51.2 51.2 0 1 0 102.4 0 51.2 51.2 0 1 0-102.4 0Z"  /><path d="M512 512m-51.2 0a51.2 51.2 0 1 0 102.4 0 51.2 51.2 0 1 0-102.4 0Z"  /><path d="M697.856 512m-51.2 0a51.2 51.2 0 1 0 102.4 0 51.2 51.2 0 1 0-102.4 0Z"  /></svg>
