<?xml version="1.0" encoding="UTF-8"?>
<svg width="20px" height="20px" viewBox="0 0 20 20" version="1.1" xmlns="http://www.w3.org/2000/svg" xmlns:xlink="http://www.w3.org/1999/xlink">
    <!-- Generator: Sketch 55.1 (78136) - https://sketchapp.com -->
    <title>群运营</title>
    <desc>Created with Sketch.</desc>
    <g id="页面1" stroke="none" stroke-width="1" fill="none" fill-rule="evenodd">
        <g id="2-1导购行为统计" transform="translate(-23.000000, -436.000000)" fill="#979797" fill-rule="nonzero">
            <g id="1" transform="translate(-1.000000, 0.000000)">
                <g id="left-忠诚度管理" transform="translate(0.000000, 19.000000)">
                    <g id="群运营" transform="translate(24.000000, 417.000000)">
                        <g transform="translate(0.260898, 0.252637)">
                            <path d="M13.5525,13.02 C10.2926214,13.02 7.65,10.3773786 7.65,7.1175 C7.65,3.85762144 10.2926214,1.215 13.5525,1.215 C16.8123786,1.215 19.455,3.85762144 19.455,7.1175 C19.455,10.3773786 16.8123786,13.02 13.5525,13.02 Z M13.5525,11.52 C15.9839514,11.52 17.955,9.54895144 17.955,7.1175 C17.955,4.68604856 15.9839514,2.715 13.5525,2.715 C11.1210486,2.715 9.15,4.68604856 9.15,7.1175 C9.15,9.54895144 11.1210486,11.52 13.5525,11.52 Z M3.765,7.53 C1.68565144,7.53 8.73967565e-13,5.84434856 8.73967565e-13,3.765 C8.73967565e-13,1.68565144 1.68565144,2.18491891e-13 3.765,2.18491891e-13 C5.84434856,2.18491891e-13 7.53,1.68565144 7.53,3.765 C7.53,5.84434856 5.84434856,7.53 3.765,7.53 Z M3.765,6.03 C5.01592144,6.03 6.03,5.01592144 6.03,3.765 C6.03,2.51407856 5.01592144,1.5 3.765,1.5 C2.51407856,1.5 1.5,2.51407856 1.5,3.765 C1.5,5.01592144 2.51407856,6.03 3.765,6.03 Z" id="形状"></path>
                            <path d="M8.5575,19.455 C4.92488644,19.455 1.98,16.5101136 1.98,12.8775 C1.98,9.24488644 4.92488644,6.3 8.5575,6.3 C12.1901136,6.3 15.135,9.24488644 15.135,12.8775 C15.135,16.5101136 12.1901136,19.455 8.5575,19.455 Z M8.5575,17.955 C11.3616864,17.955 13.635,15.6816864 13.635,12.8775 C13.635,10.0733136 11.3616864,7.8 8.5575,7.8 C5.75331356,7.8 3.48,10.0733136 3.48,12.8775 C3.48,15.6816864 5.75331356,17.955 8.5575,17.955 Z" id="路径"></path>
                        </g>
                    </g>
                </g>
            </g>
        </g>
    </g>
</svg>