<?xml version="1.0" standalone="no"?><!DOCTYPE svg PUBLIC "-//W3C//DTD SVG 1.1//EN" "http://www.w3.org/Graphics/SVG/1.1/DTD/svg11.dtd"><svg t="1588080843115" class="icon" viewBox="0 0 1024 1024" version="1.1" xmlns="http://www.w3.org/2000/svg" p-id="1293" xmlns:xlink="http://www.w3.org/1999/xlink" width="200" height="200"><defs><style type="text/css"></style></defs><path d="M707.2256 679.5776a302.1824 302.1824 0 1 1 0-604.416 302.1824 302.1824 0 0 1 0 604.416z m0-76.8a225.3824 225.3824 0 1 0 0-450.816 225.3824 225.3824 0 0 0 0 450.816z m-501.0944-204.288a192.768 192.768 0 1 1 0-385.536 192.768 192.768 0 0 1 0 385.536z m0-76.8a115.968 115.968 0 1 0 0-231.936 115.968 115.968 0 0 0 0 231.936z" p-id="1294"></path><path d="M451.4816 1009.0496a336.7936 336.7936 0 1 1 0-673.536 336.7936 336.7936 0 0 1 0 673.536z m0-76.8a259.9936 259.9936 0 1 0 0-519.936 259.9936 259.9936 0 0 0 0 519.936z" p-id="1295"></path></svg>