<?xml version="1.0" standalone="no"?><!DOCTYPE svg PUBLIC "-//W3C//DTD SVG 1.1//EN" "http://www.w3.org/Graphics/SVG/1.1/DTD/svg11.dtd"><svg class="icon" width="200px" height="200.00px" viewBox="0 0 1024 1024" version="1.1" xmlns="http://www.w3.org/2000/svg"><path fill="#333333" d="M707.5 421.7L461.7 680.9c-7.1 7.5-17.4 11.1-27.7 9.7-10.3-1.5-19.2-7.8-23.9-17l-52.5-101.2-149.1 127.1c-6 5.1-13.4 7.7-20.7 7.7-9.1 0-18-3.8-24.4-11.2-11.5-13.5-9.9-33.6 3.6-45.1l179.8-153.2c7.4-6.3 17.3-8.9 26.9-7.1 9.6 1.9 17.8 8 22.3 16.7l50.3 97.1 153.2-161.7-40.7 5.1c-1.3 0.2-2.7 0.2-4 0.2-15.9 0-29.7-11.8-31.7-28-2.2-17.5 10.2-33.5 27.8-35.7l127-15.9c9.9-2 20.6 0.6 28.5 8.1 12.7 12.1 13.2 32.4 1.1 45.2zM746.9 740.7v-0.2 0.2s0 0.1 0 0l0.1 0.7c0-0.2-0.1-0.5-0.1-0.7zM757 714c0.2-0.2 0.4-0.4 0.6-0.5 0.1-0.1 0.1-0.1 0.2-0.1-0.3 0.2-0.5 0.4-0.8 0.6zM893.2 354.9c-21.2-42.9-51.4-81.3-89.8-114.2-78-66.9-181.5-103.8-291.4-103.8s-213.4 36.8-291.4 103.8c-38.4 32.9-68.6 71.4-89.8 114.2-22.1 44.8-33.3 92.4-33.3 141.5 0 24.7 2.9 49.4 8.6 73.4 3.8 15.9 19.7 25.6 35.5 21.9 15.9-3.8 25.6-19.7 21.8-35.6-4.7-19.5-7-39.6-7-59.7 0-165.7 159.5-300.5 355.5-300.5s355.5 134.8 355.5 300.5c0 79.4-36.4 154.3-102.5 211-2.3 2-4.7 3.9-7 5.8l-0.2 0.2c-0.1 0-0.1 0.1-0.2 0.1-0.2 0.2-0.4 0.3-0.6 0.5-0.9 0.8-1.8 1.6-2.5 2.4-0.3 0.3-0.5 0.6-0.8 0.8-0.3 0.3-0.6 0.6-0.8 1l-0.9 1.2-1.2 1.8c-0.3 0.4-0.5 0.9-0.7 1.3-0.2 0.4-0.4 0.8-0.6 1.1-0.2 0.3-0.3 0.6-0.4 0.9-0.1 0.2-0.2 0.4-0.2 0.5-0.2 0.6-0.5 1.2-0.7 1.7-0.1 0.2-0.1 0.4-0.2 0.6 0 0.1-0.1 0.3-0.1 0.4-0.1 0.4-0.2 0.9-0.4 1.3-0.1 0.3-0.1 0.5-0.2 0.8-0.4 1.6-0.6 3.2-0.7 4.8v2.9c0 0.4 0 0.8 0.1 1.1v0.1c0 0.4 0.1 0.7 0.1 1.1v0.7c0 0.2 0.1 0.4 0.1 0.7l10.9 74.5-80.3-42.1s-0.1 0-0.2-0.1c-0.5-0.3-1.1-0.5-1.7-0.8-0.1 0-0.2-0.1-0.3-0.1-0.3-0.1-0.6-0.3-0.9-0.4l-0.9-0.3c-1.2-0.4-2.3-0.8-3.5-1-0.2-0.1-0.5-0.1-0.8-0.2-1.3-0.2-2.6-0.4-3.9-0.5h-1.8c-0.8 0-1.6 0-2.4 0.1-0.8 0.1-1.7 0.2-2.5 0.3-0.3 0.1-0.7 0.1-1 0.2-0.3 0.1-0.6 0.1-0.9 0.2-1.1 0.3-2.3 0.6-3.4 1-44.7 16.5-92.4 24.8-141.6 24.8-42.5 0-84.1-6.3-123.6-18.7-38-11.9-73.1-29.2-104.3-51.3-13.3-9.4-31.7-6.3-41.1 7-9.4 13.3-6.3 31.7 7 41.1 36.3 25.7 76.9 45.6 120.7 59.4 45.2 14.2 92.7 21.4 141.2 21.4 51.6 0 101.8-8.1 149.4-24.1l95.6 50.2c6.4 3.4 13.4 5 20.3 5 8.9 0 17.7-2.7 25.3-8.1 13.5-9.6 20.4-25.7 18-42l-13-88.5c36.4-32.1 65.2-69.2 85.5-110.5 22.1-44.8 33.3-92.4 33.3-141.5 0.6-48.9-10.6-96.5-32.7-141.3z m-88 376.8l0.1 0.6c0-0.3-0.1-0.4-0.1-0.6zM663.8 770.3c-0.8 0-1.6 0-2.4 0.1 0.8-0.1 1.6-0.1 2.4-0.1zM805.3 732.2c0-0.2-0.1-0.4-0.1-0.6l0.1 0.6zM746.8 740.2v-0.1 0.1zM746.9 740.7v-0.2 0.2zM805.3 732.2c0-0.2-0.1-0.4-0.1-0.6l0.1 0.6z" /></svg>