<?xml version="1.0" standalone="no"?><!DOCTYPE svg PUBLIC "-//W3C//DTD SVG 1.1//EN" "http://www.w3.org/Graphics/SVG/1.1/DTD/svg11.dtd"><svg t="1588127953914" class="icon" viewBox="0 0 1024 1024" version="1.1" xmlns="http://www.w3.org/2000/svg" p-id="8943" xmlns:xlink="http://www.w3.org/1999/xlink" width="32" height="32"><defs><style type="text/css"></style></defs><path d="M653.38168335 633.35910034a218.83941651 218.83941651 0 1 1 0-437.71591187 218.83941651 218.83941651 0 0 1 0 437.71591187z m0-55.61828613a163.22113037 163.22113037 0 1 0 0-326.4793396 163.22113037 163.22113037 0 0 0 0 326.4793396z m-362.89077759-147.94464111a139.6018982 139.6018982 0 1 1 0-279.20379639 139.6018982 139.6018982 0 0 1 0 279.20379639z m0-55.61828613a83.98361206 83.98361206 0 1 0 0-167.96722413 83.98361206 83.98361206 0 0 0 0 167.96722411z" p-id="8944"></path><path d="M468.17279052 871.96154786a243.90472412 243.90472412 0 1 1 0-487.77236939 243.90472412 243.90472412 0 0 1 0 487.77236939z m0-55.61828614a188.28643799 188.28643799 0 1 0 0-376.53579712 188.28643799 188.28643799 0 0 0 0 376.53579712z" p-id="8945"></path></svg>