<?xml version="1.0" standalone="no"?><!DOCTYPE svg PUBLIC "-//W3C//DTD SVG 1.1//EN" "http://www.w3.org/Graphics/SVG/1.1/DTD/svg11.dtd"><svg t="1614220106973" class="icon" viewBox="0 0 1024 1024" version="1.1" xmlns="http://www.w3.org/2000/svg" p-id="25819" xmlns:xlink="http://www.w3.org/1999/xlink" width="200" height="200"><defs><style type="text/css"></style></defs><path d="M613.9 362.1l-107 109-106-102c-12-11.5-30.5-11-42 0.5l-129 129c-11.5 11.5-11.5 30.5 0 42.5 6 6 13.5 9 21 9s15.5-3 21-9l108-108 106 102c12 11.5 30.5 11 42-0.5l128-130c11.5-12 11.5-31-0.5-42.5-11-12-30-11.5-41.5 0zM662.3 748.1l-0.4-0.5c-3.4-4.2-2.9-10.3 1-13.9l0.1-0.1 0.1-0.1c1.8-2 4.1-3.1 6.7-3.1 2.6 0 5.2 1.1 7.3 3.2l5.1 5.1c22.4 23.2 51 38.6 82.7 44.7h0.4c0.3 0 0.5 0.1 0.9 0.2 0.5 0.2 1.2 0.4 2.2 0.4 0.3 0 0.5 0.1 0.9 0.2 0.5 0.2 1.1 0.4 2 0.4 8.8 2.4 16.9 7.1 23.4 13.5 19.3 19.1 19.3 50.5 0 70.2-9.1 9.5-21.2 14.8-34.1 14.8-13 0-25.3-5.2-34.6-14.8-6-6.1-9.9-12.9-12.7-22.2-0.6-1.8-1.1-3.5-1.1-5.2v-0.3l-0.1-0.3c-0.6-1.6-0.6-2.6-0.6-4.5v-0.4c-6-31.2-21-59.7-43.2-82.4l-0.2-0.2M820 786.4l-0.7 0.6c-2 1.5-4.3 2.3-6.6 2.3-1.9 0-4.7-0.6-7-3.3l-0.1-0.1-0.1-0.1c-1.9-1.7-3-4.1-3.1-6.6-0.1-2.8 1-5.6 3.2-7.8l5-5.1c22.9-23.1 38-52.3 43.9-84.3v-0.4c0-0.3 0.1-0.5 0.2-0.9 0.2-0.5 0.4-1.3 0.4-2.3 0-0.3 0.1-0.6 0.2-1 0.2-0.5 0.3-1.1 0.4-1.9 2.4-8.9 7-17.2 13.3-23.9 9-9.5 21.1-14.7 34.1-14.7s25.3 5.2 34.6 14.8c19.3 19.1 19.3 50.6 0 70.2-6 6.1-12.7 10.1-21.8 13-1.7 0.6-3.5 1.2-5 1.2h-0.3l-0.3 0.1c-1.6 0.5-2.5 0.5-4.4 0.5h-0.4c-30.9 6.3-58.8 21.6-80.8 44.1l-0.2 0.2M850 643.8c-2.6 0-5.2-1.1-7.3-3.2l-5-5.1c-22.9-23.3-51.5-38.8-82.7-44.7h-0.4c-0.3 0-0.5-0.1-0.9-0.2-0.5-0.2-1.3-0.4-2.2-0.4-0.3 0-0.5-0.1-0.9-0.2-0.5-0.2-1.1-0.4-1.9-0.4-9.4-2.8-17.4-7.5-23.4-13.5-19.3-19.4-19.3-50.9 0-70.2 9.1-9.5 21.2-14.8 34.2-14.8 13 0 25.3 5.2 34.6 14.7 6 6.2 10.4 13.9 12.7 22.2v0.2c0.6 1.7 1 3.4 1.1 5.2v0.3l0.1 0.2c0.5 1.6 0.5 2.6 0.5 4.5v0.4c6.1 31.2 21 59.6 43.3 82.3l0.2 0.2 3.4 2.8s-1.1-1.1 0 0l0.8 0.8 1.7 1.8c2.9 3.9 3.5 10-1 14l-0.1 0.1-0.1 0.1c-1.8 1.7-4.2 2.9-6.7 2.9zM616.6 737.2c-13 0-25.3-5.2-34.6-14.8-19.3-19.1-19.3-50.6 0-70.2 6-6.1 13.5-10.5 21.7-12.9l0.2-0.1c1.7-0.6 3.4-1.1 4.9-1.1h0.3l0.3-0.1c1.6-0.5 2.6-0.5 4.4-0.5h0.4c30.9-6.3 58.8-21.6 80.8-44.1l0.2-0.2 0.3-0.3c0.7-0.8 1.2-1.7 2.3-3l0.9-0.9c0.1-0.1 0.6-0.6 0.6-0.7 0.4-0.4 0.4-0.5 0.6-0.7l0.6-0.5 0.7-0.5c1.6-1.1 3.5-1.7 5.5-1.7 2.8 0 5.5 1.2 7.3 3.3l0.1 0.1 0.1 0.1c1.9 1.7 3 4 3.1 6.5 0.1 2.8-1 5.6-3.2 7.8l-5 5.1c-22.9 23.1-38 52.3-43.9 84.3v0.4c0 0.3-0.1 0.5-0.2 1-0.2 0.5-0.4 1.3-0.4 2.3 0 0.3-0.1 0.5-0.2 0.9-0.2 0.5-0.4 1.1-0.4 2-2.4 8.9-7 17.2-13.3 23.9-9 9.4-21.1 14.6-34.1 14.6z" p-id="25820"></path><path d="M204.2 820.4c-4.6 0-9.2-1.2-13.1-3.6-8-4.9-13-13.7-13-23.1v-2.6c0-0.1 0.1-0.3 0.2-0.5 0.2-0.6 0.4-1.4 0.5-2.3 0.3-0.8 0.5-1.5 0.8-2.2 0.3-0.8 0.6-1.7 1-2.7v-0.1L185 766l14.7-62.7-0.9-0.8c-24.5-20.7-55.1-55.6-74.4-84.8-31.4-49.3-48-104.5-48-159.6 0.1-42.7 10-85.6 28.7-124 14.3-29.9 33.2-57 56.2-80.8 58.7-61.7 141-101.3 231.8-111.5 14.4-1.7 28.8-2.6 45.6-2.6 17 0 33 0.9 47.5 2.6 90 10.2 171.9 49.8 230.6 111.5 23 23.8 41.9 51 56.2 80.8 18.6 39.3 28.1 81 28.1 124 0 5.4 0 11.5-0.3 17.2-9.7-9.7-23-15.2-36.7-15.2-8.3 0-16.5 2-23.9 5.8 0.2-2.4 0.2-4.7 0.2-7.2 0-34.5-7.7-68-22.8-99.5-11.6-24.3-27-46.4-45.6-65.9-48.6-50.9-117.1-83.8-192.8-92.8-12.7-1.8-25.6-2.6-40.5-2.6-12 0-25.3 0.7-38.5 1.9-76.6 8.4-145.5 41.4-194.1 92.8-18.6 19.4-33.9 41.6-45.6 65.8-15.1 31.5-22.8 65.2-22.8 100.1 0.2 45.6 13.5 89.8 38.6 127.9 11 16.5 23.8 31.9 38 45.8 2 1.8 3.8 3.5 5.6 5.2 3.6 3.4 7.1 6.6 10.9 9.7 3.3 2.9 7 5.7 10.7 8.3 6.2 5.2 9.8 12.8 9.9 20.9 0 2.9-0.5 5.3-1.2 7.8-1.5 5.5-3.2 12-4.8 18.4-1.8 6.9-3.6 14.1-5.2 20.1-0.5 1.8-1 3.6-1.5 5.2-0.7 2.3-1.3 4.2-1.6 5.8l-2.6 10.4v0.2c0 1.7 0.6 3.4 1.8 4.6 1.2 1.2 2.8 1.9 4.5 1.9h0.1c1.4 0 2.4-0.5 3.2-1 0.2-0.1 0.5-0.3 0.8-0.4h0.1l65.9-39.7c0.4-0.2 0.7-0.3 1-0.4 0.6-0.2 1.2-0.5 1.8-1 4.8-2.7 10.1-4.1 15.6-4.1h0.5c3.3 0 6.5 0.6 9.6 1.8h0.2c16.9 4.9 34.2 8.6 51.7 10.9l1.5 0.3c2.5 0.5 4.7 1 6.9 1 12.6 1.3 25.8 1.9 38.4 1.9 13.4 0 27.1-1.3 40.4-2.6 21.3-2.3 42.5-6.7 62.9-13.3-1 22 11.3 42.2 31.1 51.5-28.7 9.8-57.7 16.5-86.3 19.9-14.7 1.7-29.8 2.5-47.5 2.5h-2.8c-14.2 0-28.7-0.9-42.9-2.5-22.3-2.5-44.4-6.9-67.5-13.4l-0.8-0.2-105.3 53.6-0.2 0.3c-0.1 0.1-0.2 0.1-0.4 0.3-0.2 0.1-0.5 0.2-0.7 0.4h-0.5l-0.5 0.3c-3.9 2.4-8.4 3.6-12.9 3.6z" p-id="25821"></path></svg>