<?xml version="1.0" standalone="no"?><!DOCTYPE svg PUBLIC "-//W3C//DTD SVG 1.1//EN" "http://www.w3.org/Graphics/SVG/1.1/DTD/svg11.dtd"><svg class="icon" width="200px" height="200.00px" viewBox="0 0 1024 1024" version="1.1" xmlns="http://www.w3.org/2000/svg"><path d="M897.5872 1.3312a11.4176 11.4176 0 0 0-11.776 0.6656c-1.1264 0.8192-119.3472 81.2032-197.4784 81.2544-4.608 0-8.96-0.3072-13.0048-0.8704-31.5392-4.4032-56.4224-15.1552-82.7392-26.5216-37.6832-16.2816-76.6464-33.1264-137.728-33.1264-4.608 0-9.3184 0.1024-14.0288 0.3072a798.208 798.208 0 0 0-203.5712 36.9664L223.5904 45.2608A11.4176 11.4176 0 0 0 210.944 42.496l-50.2784 20.8384a11.4176 11.4176 0 0 0-6.656 13.3632l241.664 938.752a11.3664 11.3664 0 0 0 18.9952 5.2736l58.112-56.8832a11.3664 11.3664 0 0 0 3.1744-10.5472c-0.512-2.4064-51.3536-241.7664-54.4768-295.6288-1.6384-28.5696 9.728-57.9584 31.0784-80.64 23.0912-24.4224 69.4784-53.6064 159.232-53.6576 50.688 0 97.3824-6.5536 138.752-19.5584a319.1296 319.1296 0 0 0 89.4976-43.52c44.7488-31.744 61.696-63.6928 62.4128-65.024a11.2128 11.2128 0 0 0 1.28-5.2736V11.4176a11.3664 11.3664 0 0 0-6.0928-10.0864"  /></svg>
