<?xml version="1.0" standalone="no"?><!DOCTYPE svg PUBLIC "-//W3C//DTD SVG 1.1//EN" "http://www.w3.org/Graphics/SVG/1.1/DTD/svg11.dtd"><svg class="icon" width="200px" height="198.45px" viewBox="0 0 1032 1024" version="1.1" xmlns="http://www.w3.org/2000/svg"><path d="M507.623635 1015.72325A503.723168 503.723168 0 0 1 516.376857 8.276915h8.918378a503.723168 503.723168 0 0 1-8.588067 1007.446335z" fill="#FFFFFF" /><path d="M516.376857 0.019158v16.515514h8.753223A495.465411 495.465411 0 0 1 516.376857 1007.465493h-8.753222A495.465411 495.465411 0 0 1 516.376857 16.534672V0.019158m0 0a511.980925 511.980925 0 0 0-8.753222 1023.961849H516.376857a511.980925 511.980925 0 0 0 8.753223-1023.961849z" fill="#DCDFE6" /><path d="M516.376857 289.040648a224.280676 224.280676 0 0 0-206.774231 309.335571 208.756093 208.756093 0 0 0 120.56325 120.398095A223.4549 223.4549 0 1 0 516.376857 289.040648z m2.312172 320.070655l-38.811457 38.976612h-0.990931l-38.976612-38.976612-87.532223-87.532222 38.481147-39.306923h0.990931l87.532223 87.367067 161.521724-161.521724a0.990931 0.990931 0 0 1 0.990931 0L680.375908 445.938028a0.990931 0.990931 0 0 1 0 0.990931z m0 0" fill="#F75D5A" /></svg>