<?xml version="1.0" standalone="no"?><!DOCTYPE svg PUBLIC "-//W3C//DTD SVG 1.1//EN" "http://www.w3.org/Graphics/SVG/1.1/DTD/svg11.dtd"><svg t="1571471176618" class="icon" viewBox="0 0 1024 1024" version="1.1" xmlns="http://www.w3.org/2000/svg" p-id="8017" xmlns:xlink="http://www.w3.org/1999/xlink" width="20" height="20"><defs><style type="text/css"></style></defs><path d="M801.72512818 812.6378479a74.62490844 74.62490844 0 0 0 10.27496338-37.95062256v-56.4373169c0-82.49963378-74.92483521-153.74954224-183.14978028-186.71264648 43.31222534-41.2498169 70.65005493-101.88693237 70.65005493-169.53689575 0-40.83782959-9.97503662-79.12545776-27.37573243-112.12564087 78.11279297 5.85021973 139.87545776 79.01257325 139.87545778 168.37509156 0 58.3126831-26.2501831 109.72540283-66.26239015 140.02542114 103.91226196 22.49945068 178.76211548 85.61260987 178.76211549 159.9746704v56.88720703a37.49990844 37.49990844 0 0 1-37.49908448 37.50073243H801.7243042zM399.50027466 549.49908448c-103.53817749 0-187.50036622-92.32470703-187.50036622-206.24990846s83.9630127-206.24990844 187.50036622-206.24990844S586.9998169 229.32479859 586.9998169 343.25s-83.9630127 206.24990844-187.49954224 206.24990844z m300.00009155 262.68722534a74.9998169 74.9998169 0 0 1-75.00064087 75.00064086H174.5a74.9998169 74.9998169 0 0 1-74.9998169-75.00064086v-56.4373169c0-113.92520141 134.32434083-206.24908447 300.00009156-206.24908448s300.00009156 92.32388305 300.00009155 206.24908448v56.4373169z" p-id="8018"></path></svg>