<?xml version="1.0" standalone="no"?><!DOCTYPE svg PUBLIC "-//W3C//DTD SVG 1.1//EN" "http://www.w3.org/Graphics/SVG/1.1/DTD/svg11.dtd"><svg class="icon" width="200px" height="200.00px" viewBox="0 0 1024 1024" version="1.1" xmlns="http://www.w3.org/2000/svg"><path fill="#333333" d="M800.6 506.9c-23.4-13.7-48.1-24.9-73.7-33.4 51-35.6 84.4-94.6 84.4-161.3 0-108.4-88.2-196.6-196.5-196.6-108.4 0-196.6 88.2-196.6 196.6 0 63.9 30.6 120.8 78 156.7-17.5 5.4-34.6 12.2-51.5 20.4-46.8 22.7-89.2 54.9-125.9 95.6C245.6 666 203.6 773.3 203.6 879c0 16.3 13.2 29.5 29.5 29.5s29.5-13.2 29.5-29.5c0-91.3 36.5-184.1 100-254.7 31.6-35 67.8-62.6 107.8-82 41.7-20.2 85.5-30.5 130.2-30.5 59.9 0 118.8 15.9 170.2 45.9 14.1 8.2 32.1 3.5 40.4-10.6 8.2-13.9 3.5-32-10.6-40.2zM477.2 312.1c0-75.8 61.7-137.6 137.6-137.6 75.8 0 137.5 61.7 137.5 137.6 0 75.8-61.7 137.6-137.5 137.6-75.9 0-137.6-61.8-137.6-137.6zM422.1 448.4c-35.4 17.8-68 41.4-96.8 70.2-4.3 4.3-8.6 8.8-12.7 13.3-31.6 13.1-60.6 32.5-85.5 57.4-50.3 50.3-77.9 150.4-77.9 221.5 0 17.6-14.3 31.9-31.9 31.9-17.6 0-31.9-14.3-31.9-31.9 0-88.1 34.3-204.2 96.6-266.5 33.9-33.9 73.8-59.5 117.4-75.8-38.3-32.8-62.7-81.5-62.7-135.7 0-98.4 80.1-178.5 178.5-178.5h1.5c-12.1 20.1-20.9 42.4-25.5 66.2-51.8 11-90.8 57.2-90.8 112.3 0 63.3 51.5 114.8 114.8 114.8 2.4 0 4.7 0.3 6.9 0.8zM952 723l-62-107.4c-8.8-15.2-25.1-24.6-42.6-24.6h-124c-17.5 0-33.8 9.4-42.6 24.6l-62 107.4c-8.8 15.2-8.8 34 0 49.2l62 107.4c8.8 15.2 25.1 24.6 42.6 24.6h124c17.5 0 33.8-9.4 42.6-24.6l62-107.4c8.8-15.2 8.8-34 0-49.2z m-41.6 25.2l-62 107.4c-0.2 0.4-0.6 0.6-1 0.6h-124c-0.4 0-0.8-0.2-1-0.6l-62-107.4c-0.2-0.4-0.2-0.8 0-1.2l62-107.4c0.2-0.4 0.6-0.6 1-0.6h124c0.4 0 0.8 0.2 1 0.6l62 107.4c0.2 0.3 0.2 0.8 0 1.2z" /></svg>