<?xml version="1.0" standalone="no"?><!DOCTYPE svg PUBLIC "-//W3C//DTD SVG 1.1//EN" "http://www.w3.org/Graphics/SVG/1.1/DTD/svg11.dtd"><svg class="icon" width="200px" height="200.00px" viewBox="0 0 1024 1024" version="1.1" xmlns="http://www.w3.org/2000/svg"><path fill="#333333" d="M315.5 533.7c4.1-4.5 8.3-8.9 12.6-13.2 28.7-28.7 61.3-52.2 96.6-70-2.2-0.5-4.5-0.7-6.8-0.7-63.1 0-114.5-51.4-114.5-114.5 0-54.9 38.9-100.9 90.6-111.9 4.6-23.7 13.3-46 25.4-66h-1.5c-98.2 0-178 79.8-178 178 0 54.1 24.3 102.6 62.5 135.3-43.4 16.2-83.3 41.8-117 75.6C123.2 608.3 89 724 89 811.9c0 17.5 14.2 31.8 31.8 31.8 17.5 0 31.8-14.2 31.8-31.8 0-70.9 27.6-170.7 77.7-220.8 24.8-24.9 53.7-44.2 85.2-57.4z m632.8 114.2c-4.7-7.4-12.9-12.2-22.2-12.3l-129.4-0.5h-0.1c-14.6 0-26.4 11.8-26.5 26.4-0.1 14.6 11.8 26.6 26.4 26.6l71.6 0.3-99.4 116.2-117.8-110.4c-11.4-10.7-29.2-10.6-40.6 0.2L472.6 825.9c-11.8 11.3-12.2 29.9-1 41.7 5.8 6.1 13.6 9.1 21.3 9.1 7.3 0 14.7-2.7 20.4-8.2l117.5-112.2 120 112.4c5.9 5.5 13.8 8.4 21.8 7.9 8-0.4 15.6-4.2 20.8-10.3l154.5-180.6c9.5-10.9 9.3-26.9 0.4-37.8z m-246.2-98.7c33.4 12.8 64.5 31.5 92.4 55.4 12.4 10.6 31 9.2 41.6-3.2 10.6-12.4 9.2-31-3.2-41.6-33-28.4-70-50.5-109.7-65.7-5.2-2-10.5-3.9-15.9-5.7 62.6-32.8 105.4-98.4 105.4-173.8 0-108.1-87.9-196.1-196.1-196.1-108.1 0-196.1 87.9-196.1 196.1 0 69.4 36.2 130.5 90.8 165.3-22.5 5.3-44.4 12.8-65.8 22.5-45.4 20.6-86.1 50-121 87.4-34.8 37.3-62.1 80.6-81.1 128.9-19.7 49.8-29.7 102.8-29.7 157.2 0 16.3 13.2 29.5 29.5 29.5s29.5-13.2 29.5-29.5c0-93 33.7-180.3 94.9-245.9 60.7-65 141.1-100.8 226.6-100.8 37.2 0.1 73.4 6.8 107.9 20zM479.7 314.6c0-75.6 61.5-137.1 137.1-137.1S753.9 239 753.9 314.6s-61.5 137.1-137.1 137.1-137.1-61.5-137.1-137.1z" /></svg>