<?xml version="1.0" standalone="no"?><!DOCTYPE svg PUBLIC "-//W3C//DTD SVG 1.1//EN" "http://www.w3.org/Graphics/SVG/1.1/DTD/svg11.dtd"><svg t="1616059737116" class="icon" viewBox="0 0 1024 1024" version="1.1" xmlns="http://www.w3.org/2000/svg" p-id="13229" xmlns:xlink="http://www.w3.org/1999/xlink" width="200" height="200"><defs><style type="text/css"></style></defs><path d="M906.748373 303.786491c19.789937 37.462132 34.17598 77.772263 42.793001 119.981059a444.871948 444.871948 0 0 1-65.284885 336.063807A442.754206 442.754206 0 0 1 702.568799 917.201522a448.231126 448.231126 0 0 1-294.877369 30.889828 445.237076 445.237076 0 0 1-160.072113-73.901906l129.25531-129.182284-45.202845-45.202846-175.115386 175.042361 45.275871 45.056794a511.325243 511.325243 0 0 0 735.513832-124.873774 511.398269 511.398269 0 0 0 16.211683-538.344715l-46.882435 46.95546z m-215.790645 22.418859l175.042361-175.04236-45.275871-45.056795a511.325243 511.325243 0 0 0-735.732909 124.873774A510.960115 510.960115 0 0 0 68.7066 768.959556l46.95546-47.028485a449.399536 449.399536 0 0 1-44.253513-291.299114c10.95384-58.712582 33.445724-114.212037 66.745398-164.526675A443.411436 443.411436 0 0 1 319.91466 108.589066a448.085075 448.085075 0 0 1 294.950394-30.889829 445.237076 445.237076 0 0 1 160.218164 74.047958l-129.25531 129.25531 45.12982 45.275871z" fill="#262626" p-id="13230"></path></svg>