<?xml version="1.0" standalone="no"?><!DOCTYPE svg PUBLIC "-//W3C//DTD SVG 1.1//EN" "http://www.w3.org/Graphics/SVG/1.1/DTD/svg11.dtd"><svg class="icon" width="200px" height="200.00px" viewBox="0 0 1024 1024" version="1.1" xmlns="http://www.w3.org/2000/svg"><path d="M548.864 500.224c44.032-34.304 72.704-88.064 72.704-148.48 0-103.936-84.48-188.416-188.416-188.416S244.736 247.808 244.736 351.744c0 60.416 28.672 114.176 72.704 148.48-47.616 18.432-90.624 48.64-125.952 89.088C134.656 654.848 102.4 742.4 102.4 829.952c0 16.896 13.824 30.72 30.72 30.72s30.72-13.824 30.72-30.72c0-73.216 27.136-145.92 74.24-200.192 50.176-57.856 119.296-89.6 195.584-89.6s145.408 31.744 195.584 89.6c47.104 54.272 74.24 126.976 74.24 200.192 0 16.896 13.824 30.72 30.72 30.72s30.72-13.824 30.72-30.72c0-87.552-32.256-175.104-89.088-240.64-36.352-40.448-78.848-70.144-126.976-89.088z m-115.712-21.504c-70.144 0-126.976-56.832-126.976-126.976 0-70.144 56.832-126.976 126.976-126.976 70.144 0 126.976 56.832 126.976 126.976 0 70.144-56.832 126.976-126.976 126.976z"  /><path d="M844.288 575.488c-29.184-33.28-64-58.368-102.912-74.752 35.84-30.72 58.368-75.776 58.368-125.952 0-90.112-72.192-163.84-161.792-165.888 14.336 20.992 26.112 44.032 33.792 68.608 38.912 15.36 66.56 53.248 66.56 97.28 0 52.224-38.912 95.744-89.088 103.424-1.024 1.536-1.536 3.072-2.56 4.608 27.136 18.432 52.224 40.96 74.752 67.072 4.608 5.12 8.704 10.24 12.8 15.36 27.648 14.848 48.64 33.792 63.488 51.2 39.424 45.568 62.464 107.008 62.464 168.96 0 16.896 13.824 30.72 30.72 30.72s30.72-13.824 30.72-30.72c0-76.8-28.16-153.088-77.312-209.92z"  /></svg>
