<?xml version="1.0" standalone="no"?><!DOCTYPE svg PUBLIC "-//W3C//DTD SVG 1.1//EN" "http://www.w3.org/Graphics/SVG/1.1/DTD/svg11.dtd"><svg t="1571796427051" class="icon" viewBox="0 0 1024 1024" version="1.1" xmlns="http://www.w3.org/2000/svg" p-id="8018" xmlns:xlink="http://www.w3.org/1999/xlink" width="20" height="20"><defs><style type="text/css"></style></defs><path d="M855.343104 697.13018433l0.770048 1.35441068c7.34549333 14.188544 7.34549333 32.13994667-0.770048 47.66105599l-78.299136 131.27406933a47.218688 47.218688 0 0 1-41.69728 24.76714667h-159.25794133c-16.318464 0-30.71453867-8.45960533-40.976384-23.412736l-78.12437334-131.18668799c-10.77521067-15.54295467-10.77521067-36.36701867-0.91204266-50.45725868l78.22813866-131.27406933a47.25691733 47.25691733 0 0 1 41.7792-24.756224h159.25794134c16.29661867 0 30.69269333 8.44322133 40.95453866 23.41273601l79.04733867 132.61755732zM734.27626667 592.840563l-156.94779734-0.15837866-76.939264 128.91477334 76.72081067 128.85469865c0.04369067 0.03822933 0.07099733 0.09284267 0.114688 0.14199468h156.87133867l76.88465066-128.94754133-76.70442666-128.80554668z m0 0" p-id="8019"></path><path d="M207.54705067 201.410419c0-15.97986133 13.28196267-29.02698667 29.46935466-29.02698666h498.57058134c16.203776 0 29.46389333 13.04712533 29.46389333 29.02698666v204.65254401c0 16.01809067 13.28196267 29.00514133 29.507584 29.00514132a29.33828267 29.33828267 0 0 0 29.458432-29.00514132V201.410419c0-47.857664-39.763968-87.064576-88.424448-87.064576H237.01640533c-48.62225067 0-88.41352533 39.206912-88.41352533 87.064576v480.772096c0 79.81192533 66.3552 145.10216533 147.41777067 145.10216533h12.75221333a29.360128 29.360128 0 0 0 29.458432-28.983296 29.38197333 29.38197333 0 0 0-29.458432-29.03790932h-12.75221333c-48.67140267 0-88.4736-39.206912-88.4736-87.08096001V201.410419z m0 0" p-id="8020"></path><path d="M655.15793067 641.943411a77.08672 77.08672 0 0 1 77.39255466 77.381632c0 42.958848-34.4064 77.37070933-77.39255466 77.37070933a77.11402667 77.11402667 0 0 1-77.398016-77.37070933 77.11402667 77.11402667 0 0 1 77.398016-77.381632z m0 51.60413868c-14.516224 0-25.79387733 11.272192-25.79387734 25.77749332 0 14.450688 11.272192 25.79387733 25.79387734 25.79387733 14.51076267 0 25.81026133-11.337728 25.81026133-25.79387733-0.00546133-14.50530133-11.29949867-25.77749333-25.81026133-25.77749332z m-65.54146134-343.81824001a29.09252267 29.09252267 0 0 0-28.99968-29.03790934H332.43682133a29.08706133 29.08706133 0 0 0-29.048832 29.03790934c0 16.00170667 13.041664 29.00514133 29.048832 29.00514133h228.179968c15.93617067-0.00546133 28.99968-13.06897067 28.99968-29.00514133zM332.43682133 466.05024834a29.07613867 29.07613867 0 0 0-29.048832 29.02152533 29.05429333 29.05429333 0 0 0 29.048832 29.01060266h105.529344c15.98532267 0 29.065216-13.06897067 29.065216-29.01060266a29.10890667 29.10890667 0 0 0-29.016064-29.02152533H332.43682133z m0 0" p-id="8021"></path></svg>
