<?xml version="1.0" standalone="no"?><!DOCTYPE svg PUBLIC "-//W3C//DTD SVG 1.1//EN" "http://www.w3.org/Graphics/SVG/1.1/DTD/svg11.dtd"><svg class="icon" width="200px" height="200.00px" viewBox="0 0 1024 1024" version="1.1" xmlns="http://www.w3.org/2000/svg"><path fill="#333333" d="M770.5 189.2h-71.1v-15.1c0-38.3-31.2-69.5-69.5-69.5H394.2c-38.3 0-69.5 31.2-69.5 69.5v15.1h-71.1c-51.3 0-93 41.7-93 93.1v544c0 51.3 41.7 93.1 93 93.1h516.9c51.3 0 93-41.7 93-93.1v-544c0-51.3-41.7-93.1-93-93.1z m-386.8-15c0-5.8 4.7-10.5 10.5-10.5h235.6c5.8 0 10.5 4.7 10.5 10.5v88.7c0 5.8-4.7 10.5-10.5 10.5H394.2c-5.8 0-10.5-4.7-10.5-10.5v-88.7z m420.8 652.1c0 18.8-15.3 34.1-34 34.1h-517c-18.8 0-34-15.3-34-34.1v-544c0-18.8 15.3-34.1 34-34.1h71.1v14.6c0 38.3 31.2 69.5 69.5 69.5h235.6c38.3 0 69.5-31.2 69.5-69.5v-14.6h71.1c18.8 0 34 15.3 34 34.1v544zM634.1 441L470.8 604.4l-80.9-80.9c-11.5-11.5-30.2-11.5-41.7 0-11.5 11.5-11.5 30.2 0 41.7L449.9 667c5.8 5.8 13.3 8.6 20.9 8.6 7.5 0 15.1-2.9 20.9-8.6l184.2-184.2c11.5-11.5 11.5-30.2 0-41.7a29.544 29.544 0 0 0-41.8-0.1z" /></svg>