<?xml version="1.0" standalone="no"?><!DOCTYPE svg PUBLIC "-//W3C//DTD SVG 1.1//EN" "http://www.w3.org/Graphics/SVG/1.1/DTD/svg11.dtd"><svg class="icon" width="200px" height="200.00px" viewBox="0 0 1024 1024" version="1.1" xmlns="http://www.w3.org/2000/svg"><path d="M902.64815389 722.63700973l0.8761435 1.54101837c8.35753908 16.14341006 8.35753908 36.5681171-0.8761435 54.22769037l-89.08701696 149.36071888a53.7243739 53.7243739 0 0 1-47.44223858 28.1795091h-181.20014658c-18.56678571 0-34.94631955-9.62515095-46.62201913-26.63849074l-88.88817589-149.26129833c-12.25979525-17.68442843-12.25979525-41.37758569-1.03770187-57.40914765l89.00623776-149.36071888a53.76787039 53.76787039 0 0 1 47.53544533-28.16708154h181.2001466c18.54193057 0 34.92146442 9.6065096 46.59716398 26.63849075l89.93830534 150.88930967zM764.90099675 603.97859613l-178.57171609-0.18019973-87.53978482 146.67636434 87.29123347 146.60801269c0.04971027 0.04349648 0.08077919 0.10563433 0.13048946 0.16155839h178.48472311l87.47764697-146.71364703-87.2725921-146.55208866z m0 0"  /><path d="M165.60019987 158.61807673c0-18.18153111 15.11192197-33.02626038 33.52957687-33.02626038h567.26252809c18.43629625 0 33.52336308 14.84472927 33.52336308 33.02626038v232.84911674c0 18.22502761 15.11192197 33.00140525 33.57307335 33.00140524a33.38044606 33.38044606 0 0 0 33.5171493-33.00140524V158.61807673c0-54.45138659-45.24255915-99.06013981-100.60737195-99.0601398H199.12977674c-55.32131632 0-100.59494437 44.60875321-100.59494439 99.0601398v547.011807c0 90.80823504 75.497472 165.09401922 167.72866352 165.09401923h14.50918495a33.40530119 33.40530119 0 0 0 33.51714929-32.97655012 33.43015632 33.43015632 0 0 0-33.51714929-33.03868794h-14.50918495c-55.37724037 0-100.663296-44.60875321-100.663296-99.07878117V158.61807673z m0 0"  /><path d="M674.88191222 659.84672541a87.70755698 87.70755698 0 0 1 88.05552887 88.04310129c0 48.87762261-39.14683733 88.03067373-88.05552887 88.03067373a87.7386259 87.7386259 0 0 1-88.06174264-88.03067373 87.7386259 87.7386259 0 0 1 88.06174264-88.04310129z m0 58.71404223c-16.51623709 0-29.34770043 12.82524957-29.34770043 29.32905906 0 16.44167168 12.82524957 29.34770043 29.34770043 29.34770044 16.51002331 0 29.36634178-12.89981497 29.36634179-29.34770044-0.00621378-16.50380951-12.85631849-29.32905908-29.36634179-29.32905906z m-74.57161823-391.18875308a33.10082579 33.10082579 0 0 0-32.99519146-33.03868796H307.6970056a33.094612 33.094612 0 0 0-33.05111552 33.03868796c0 18.20638625 14.83851549 33.00140525 33.05111552 33.00140525h259.61809693c18.13182085-0.00621378 32.99519147-14.86958441 32.99519146-33.00140525zM307.6970056 459.71939366a33.08218444 33.08218444 0 0 0-33.05111552 33.02004661 33.0573293 33.0573293 0 0 0 33.05111552 33.00761903h120.06894251c18.18774491 0 33.06975687-14.86958441 33.06975687-33.00761903a33.11946715 33.11946715 0 0 0-33.01383282-33.02004661H307.6970056z m0 0"  /></svg>
