<?xml version="1.0" standalone="no"?><!DOCTYPE svg PUBLIC "-//W3C//DTD SVG 1.1//EN" "http://www.w3.org/Graphics/SVG/1.1/DTD/svg11.dtd"><svg class="icon" width="200px" height="200.00px" viewBox="0 0 1024 1024" version="1.1" xmlns="http://www.w3.org/2000/svg"><path d="M911.872 838.144l-203.264-190.976c34.816-52.224 55.296-115.2 55.296-183.296 0-182.272-148.48-330.752-330.752-330.752S102.4 281.6 102.4 463.872c0 182.272 148.48 330.752 330.752 330.752 92.672 0 176.64-38.4 236.544-99.84l199.68 187.904c6.144 5.632 13.312 8.192 20.992 8.192 8.192 0 16.384-3.072 22.528-9.728 11.776-12.288 11.264-31.744-1.024-43.008z m-478.72-104.96c-148.48 0-269.312-120.832-269.312-269.312S284.672 194.56 433.152 194.56s269.312 120.832 269.312 269.312-120.32 269.312-269.312 269.312z"  /></svg>
