<?xml version="1.0" standalone="no"?><!DOCTYPE svg PUBLIC "-//W3C//DTD SVG 1.1//EN" "http://www.w3.org/Graphics/SVG/1.1/DTD/svg11.dtd"><svg class="icon" width="200px" height="200.00px" viewBox="0 0 1024 1024" version="1.1" xmlns="http://www.w3.org/2000/svg"><path d="M921.6 481.28H176.64l285.696-285.696c6.144-6.144 9.216-13.824 9.216-21.504s-3.072-15.872-9.216-21.504c-11.776-11.776-31.232-11.776-43.52 0l-337.92 337.92c-1.536 1.536-2.56 3.072-3.584 4.608v0.512c-1.024 1.536-2.048 3.072-2.56 5.12-0.512 1.536-1.024 3.584-1.536 5.12-0.512 1.536-0.512 3.584-0.512 5.12v2.048c0 2.048 0 3.584 0.512 5.12 0.512 2.048 1.024 3.584 1.536 5.12 0.512 1.536 1.536 3.584 2.56 5.12v0.512c1.024 1.536 2.56 3.072 3.584 4.608l337.92 337.92c6.144 6.144 13.824 9.216 21.504 9.216s15.872-3.072 21.504-9.216c11.776-11.776 11.776-31.232 0-43.52L176.64 542.72H921.6c16.896 0 30.72-13.824 30.72-30.72s-13.824-30.72-30.72-30.72z"  /></svg>
