<?xml version="1.0" standalone="no"?><!DOCTYPE svg PUBLIC "-//W3C//DTD SVG 1.1//EN" "http://www.w3.org/Graphics/SVG/1.1/DTD/svg11.dtd"><svg t="1603425536569" class="icon" viewBox="0 0 1024 1024" version="1.1" xmlns="http://www.w3.org/2000/svg" p-id="31771" xmlns:xlink="http://www.w3.org/1999/xlink" width="200" height="200"><defs><style type="text/css"></style></defs><path d="M656.64 181.568a234.816 234.816 0 0 1 226.56 236.032c0 75.52-37.76 132.16-61.376 169.92-61.312 89.664-179.328 179.392-250.176 231.296l-18.88 9.408a79.744 79.744 0 0 1-47.168 14.144c-14.144 0-28.352-4.672-42.496-9.408l-9.408-4.736-23.616-14.144-20.416-14.272c-73.6-52.48-168.576-129.984-220.288-207.552l-9.472-18.88-7.552-12.288C150.656 525.44 128 480.96 128 417.6a233.728 233.728 0 0 1 236.032-236.032c51.84 0 103.808 18.88 141.568 56.64a237.184 237.184 0 0 1 132.16-56.64h18.88z" p-id="31772"></path></svg>