<?xml version="1.0" encoding="UTF-8"?>
<svg width="16px" height="16px" viewBox="0 0 16 16" version="1.1" xmlns="http://www.w3.org/2000/svg" xmlns:xlink="http://www.w3.org/1999/xlink">
    <!-- Generator: Sketch 63.1 (92452) - https://sketch.com -->
    <title>回访</title>
    <desc>Created with Sketch.</desc>
    <g id="回访" stroke="none" stroke-width="1" fill="none" fill-rule="evenodd">
        <g id="编组">
            <rect id="矩形" fill="#ffffff" opacity="0" x="0" y="0" width="16" height="16"></rect>
            <path d="M10.26,2.8375 C12.25125,2.91125 13.8,4.53375 13.8,6.525 C13.8,7.705 13.21,8.59 12.84125,9.18 C11.8825,10.58125 10.03875,11.9825 8.9325,12.79375 L8.6375,12.94125 C8.41625,13.08875 8.195,13.1625 7.9,13.1625 C7.67875,13.1625 7.4575,13.08875 7.23625,13.015 L7.08875,12.94125 L6.72,12.72 L6.40133599,12.4969982 C5.25113422,11.6778804 3.76679348,10.4658152 2.95875,9.25375 L2.81125,8.95875 L2.69295324,8.76727311 C2.35424515,8.20940097 2,7.51480263 2,6.525 C2,4.46 3.6225,2.8375 5.6875,2.8375 C6.49875,2.8375 7.31,3.1325 7.9,3.7225 C8.49,3.20625 9.2275,2.91125 9.965,2.8375 L10.26,2.8375 Z" id="路径" fill="#FFFFFF" fill-rule="nonzero"></path>
        </g>
    </g>
</svg>
