<?xml version="1.0" standalone="no"?><!DOCTYPE svg PUBLIC "-//W3C//DTD SVG 1.1//EN" "http://www.w3.org/Graphics/SVG/1.1/DTD/svg11.dtd"><svg class="icon" width="200px" height="200.00px" viewBox="0 0 1024 1024" version="1.1" xmlns="http://www.w3.org/2000/svg"><path d="M645.12 277.504H204.8l123.904-122.368c6.144-6.144 9.216-13.824 9.216-22.016 0-7.68-3.072-15.36-8.704-21.504-11.776-12.288-31.232-12.288-43.52-0.512l-174.08 171.52c-11.776 11.776-12.288 31.232-0.512 43.52l173.568 171.52c6.144 6.144 13.824 8.704 21.504 8.704s15.872-3.072 22.016-9.216c11.776-12.288 11.776-31.744-0.512-43.52L211.456 338.944H645.12c118.784 0 215.04 95.232 215.04 211.968v97.28c0 116.736-96.256 211.968-215.04 211.968H205.312c-16.896 0-30.72 13.824-30.72 30.72s13.824 30.72 30.72 30.72H645.12c152.576 0 276.48-122.88 276.48-273.408v-97.28c0-151.04-123.904-273.408-276.48-273.408z"  /></svg>
