<?xml version="1.0" standalone="no"?><!DOCTYPE svg PUBLIC "-//W3C//DTD SVG 1.1//EN" "http://www.w3.org/Graphics/SVG/1.1/DTD/svg11.dtd"><svg class="icon" width="200px" height="200.00px" viewBox="0 0 1024 1024" version="1.1" xmlns="http://www.w3.org/2000/svg"><path d="M808.618667 625.777778h-121.912889c-16.782222 0-30.435556 12.743111-30.435556 28.444444v113.777778c0 15.701333 13.653333 28.444444 30.435556 28.444444h121.912889c16.839111 0 30.492444-12.743111 30.492444-28.444444v-113.777778c0-15.701333-13.653333-28.444444-30.492444-28.444444z m-487.594667 0H199.111111c-16.839111 0-30.492444 12.743111-30.492444 28.444444v113.777778c0 15.701333 13.653333 28.444444 30.492444 28.444444h121.912889c16.839111 0 30.492444-12.743111 30.492444-28.444444v-113.777778c0-15.701333-13.653333-28.444444-30.492444-28.444444z m243.768889 0H442.936889c-16.839111 0-30.492444 12.743111-30.492445 28.444444v113.777778c0 15.701333 13.653333 28.444444 30.492445 28.444444h121.856c16.839111 0 30.492444-12.743111 30.492444-28.444444v-113.777778c0-15.701333-13.653333-28.444444-30.492444-28.444444z m213.333333 113.777778h-60.871111v-56.888889h60.871111v56.888889z m-487.537778 0H229.546667v-56.888889h60.928v56.888889z m243.768889 0H473.315556v-56.888889h60.984888v56.888889z m30.435556-341.333334H442.936889c-16.839111 0-30.492444 12.743111-30.492445 28.444445v113.777777c0 15.701333 13.653333 28.444444 30.492445 28.444445h121.856c16.839111 0 30.492444-12.743111 30.492444-28.444445v-113.777777c0-15.701333-13.653333-28.444444-30.492444-28.444445zM321.024 398.222222H199.111111c-16.839111 0-30.492444 12.743111-30.492444 28.444445v113.777777c0 15.701333 13.653333 28.444444 30.492444 28.444445h121.912889c16.839111 0 30.492444-12.743111 30.492444-28.444445v-113.777777c0-15.701333-13.653333-28.444444-30.492444-28.444445z m487.594667 0h-121.912889c-16.782222 0-30.435556 12.743111-30.435556 28.444445v113.777777c0 15.701333 13.653333 28.444444 30.435556 28.444445h121.912889c16.839111 0 30.492444-12.743111 30.492444-28.444445v-113.777777c0-15.701333-13.653333-28.444444-30.492444-28.444445zM534.357333 512H473.315556V455.111111h60.984888v56.888889zM290.531556 512H229.603556V455.111111h60.928v56.888889z m487.651555 0h-60.984889V455.111111h60.984889v56.888889z m152.348445 341.333333h-853.333334V227.555556h91.420445v28.444444c0 15.701333 13.653333 28.444444 30.492444 28.444444h91.420445c16.839111 0 30.492444-12.743111 30.492444-28.444444V227.555556h365.681778v28.444444c0 15.701333 13.653333 28.444444 30.492444 28.444444h91.420445c16.839111 0 30.492444-12.743111 30.492444-28.444444V227.555556h91.420445v625.777777zM747.690667 170.666667h30.492444v56.888889h-30.492444V170.666667zM229.603556 170.666667h30.435555v56.888889h-30.435555V170.666667z m731.420444 0H839.111111v-28.444445c0-15.701333-13.653333-28.444444-30.492444-28.444444h-91.420445c-16.839111 0-30.492444 12.743111-30.492444 28.444444V170.666667H321.024v-28.444445c0-15.701333-13.653333-28.444444-30.492444-28.444444H199.111111c-16.839111 0-30.492444 12.743111-30.492444 28.444444V170.666667H46.705778c-16.839111 0-30.435556 12.743111-30.435556 28.444444v682.666667c0 15.701333 13.653333 28.444444 30.435556 28.444444h914.318222c16.839111 0 30.492444-12.743111 30.492444-28.444444v-682.666667c0-15.701333-13.653333-28.444444-30.492444-28.444444z"  /></svg>
