<?xml version="1.0" standalone="no"?><!DOCTYPE svg PUBLIC "-//W3C//DTD SVG 1.1//EN" "http://www.w3.org/Graphics/SVG/1.1/DTD/svg11.dtd"><svg class="icon" width="200px" height="200.00px" viewBox="0 0 1024 1024" version="1.1" xmlns="http://www.w3.org/2000/svg"><path d="M63.90272 343.10656l2.8672-8.08448c7.36768-22.00064 26.60352-36.736 50.03776-38.3744 21.38624-1.536 42.77248 10.95168 52.80256 30.59712 10.23488 20.05504 7.36768 43.69408-7.47008 61.29664-1.7408 1.9456-3.4816 3.8912-5.4272 6.13888 41.4464 25.37984 82.68288 50.44736 123.71456 75.7248a3881.2416 3881.2416 0 0 0 46.76608 28.54912c8.90368 5.21728 15.75936 3.68128 20.56704-5.01248a333853.51168 333853.51168 0 0 0 141.93152-258.8928c-20.56704-10.43968-33.8688-26.40384-35.0976-50.03776-0.8192-16.57856 5.01248-30.80192 16.78336-42.36288 23.33184-22.71744 61.60384-20.56704 82.06336 4.60288 23.54176 28.85632 15.04256 62.62272-22.30272 88.00256 12.17536 22.30784 24.45312 44.71808 36.8384 67.02592 34.2784 62.41792 68.35712 124.63616 102.63552 187.0592 7.87968 14.42816 12.89216 15.75936 27.01312 7.36768 53.00736-32.33792 105.91232-64.87552 158.91456-97.31584 2.45248-1.536 4.80768-3.072 7.67488-4.80768-10.95168-10.94656-17.90464-23.33184-18.72384-38.5792-1.54112-28.54912 18.10944-53.51936 45.63968-58.22464 28.65152-5.01248 55.25504 11.36128 63.74912 39.0912 0.60928 2.1504 1.53088 4.39808 2.35008 6.54848v19.23584c-9.00608 28.85632-27.52512 45.63968-59.35104 45.84448-1.1264 3.2768-2.35008 6.54848-3.2768 9.82016-31.00672 106.32192-62.00832 212.84352-93.01504 319.16032-3.98848 13.92128-8.89856 17.50016-22.92224 17.50016H243.18464c-15.04256 0-19.64544-3.4816-23.74144-17.50016-25.27744-86.26176-50.24256-172.83072-75.52-259.09248-6.75328-23.33184-13.71136-46.66368-20.56704-70.0928-23.74144 0-41.64608-9.41568-52.80256-29.88032-2.6624-5.01248-4.39808-10.64448-6.54848-15.96416-0.1024-6.656-0.1024-12.99968-0.1024-19.34336z m446.45888 467.53792h250.19392c22.30272 0 40.1152 15.75936 42.56768 36.9408 2.45248 21.38624-11.56608 40.832-33.15712 45.63968-3.072 0.81408-6.34368 0.9216-9.41568 0.9216H259.96288c-19.03104 0-35.0976-11.35616-40.6272-28.54912-5.72928-17.18784-0.4096-36.6336 14.83776-46.45376 7.87968-5.01248 18.31936-8.49408 27.52512-8.49408 82.9952-0.41472 165.88288-0.00512 248.66304-0.00512z"  /></svg>
