<?xml version="1.0" standalone="no"?><!DOCTYPE svg PUBLIC "-//W3C//DTD SVG 1.1//EN" "http://www.w3.org/Graphics/SVG/1.1/DTD/svg11.dtd"><svg class="icon" width="200px" height="200.00px" viewBox="0 0 1024 1024" version="1.1" xmlns="http://www.w3.org/2000/svg"><path d="M814.08 97.28H209.92c-59.392 0-107.52 48.128-107.52 107.52v614.4c0 59.392 48.128 107.52 107.52 107.52h604.16c59.392 0 107.52-48.128 107.52-107.52V204.8c0-59.392-48.128-107.52-107.52-107.52z m-102.4 61.44v294.912H312.32V158.72h399.36z m148.48 660.48c0 25.6-20.48 46.08-46.08 46.08H209.92c-25.6 0-46.08-20.48-46.08-46.08V204.8c0-25.6 20.48-46.08 46.08-46.08h40.96v300.032c0 31.232 25.088 56.32 56.32 56.32h409.6c31.232 0 56.32-25.088 56.32-56.32V158.72h40.96c25.6 0 46.08 20.48 46.08 46.08v614.4z"  /><path d="M409.6 288.256h204.8c16.896 0 30.72-13.824 30.72-30.72s-13.824-30.72-30.72-30.72H409.6c-16.896 0-30.72 13.824-30.72 30.72s13.824 30.72 30.72 30.72zM409.6 385.536h204.8c16.896 0 30.72-13.824 30.72-30.72s-13.824-30.72-30.72-30.72H409.6c-16.896 0-30.72 13.824-30.72 30.72s13.824 30.72 30.72 30.72z"  /></svg>
