<?xml version="1.0" standalone="no"?><!DOCTYPE svg PUBLIC "-//W3C//DTD SVG 1.1//EN" "http://www.w3.org/Graphics/SVG/1.1/DTD/svg11.dtd"><svg class="icon" width="200px" height="200.00px" viewBox="0 0 1024 1024" version="1.1" xmlns="http://www.w3.org/2000/svg"><path d="M511.488 878.08c-25.088 0-49.152-10.24-66.56-28.16l-14.848-14.848-1.024-0.512-78.336-81.408-194.048-201.216 0.512-0.512c-44.032-45.568-68.096-103.424-68.096-163.328 0-65.536 27.136-126.976 76.8-173.056 48.128-44.544 112.64-69.12 180.736-69.12 59.904 0 118.784 19.456 164.864 54.784 47.104-35.328 105.472-54.784 165.376-54.784 68.096 0 132.096 24.576 179.712 69.12 49.664 46.08 76.8 107.52 76.8 173.056 0 58.368-22.528 113.664-64.512 158.72-4.608 11.264-11.264 21.504-19.968 30.208-16.896 16.896-38.912 26.624-62.976 27.648-1.024 24.064-10.752 46.08-27.136 63.488-16.896 16.896-38.912 26.624-62.976 27.648-1.024 24.064-10.752 46.08-27.136 63.488-16.896 16.896-38.912 26.624-62.976 27.648-1.024 24.064-10.752 46.08-27.136 63.488-16.896 17.408-41.472 27.648-67.072 27.648z m-103.424-155.648l80.896 83.456c4.608 3.584 14.848 5.632 23.04 5.632 15.872 0 29.184-13.312 29.184-29.184v-61.44h61.44c15.872 0 29.184-13.312 29.184-29.184v-61.44h61.44c15.872 0 29.184-13.312 29.184-29.184v-61.44h62.464c15.36-0.512 27.648-13.312 27.648-29.184 0-9.728-2.56-18.944-5.632-23.552L701.44 380.928c-10.24-8.192-20.48-11.776-31.232-11.776-28.672 0-59.904 28.16-98.304 70.656-10.752 11.776-20.48 22.016-28.16 29.184-31.232 27.648-71.68 42.496-114.688 42.496-44.032 0-86.016-16.384-117.76-45.568l-22.528-20.992 178.688-199.68c-34.304-23.552-75.264-36.352-118.272-36.352-52.736 0-102.4 18.944-139.264 53.76-36.864 33.792-56.832 78.848-56.832 126.976 0 47.616 19.968 93.184 56.832 126.976l0.512 0.512v0.512l197.632 204.8z m336.896-386.56L849.92 441.856c3.072 3.584 6.144 7.168 8.704 10.752 8.704-20.48 12.8-41.984 12.8-64.512 0-47.616-19.968-92.672-56.832-126.976-37.376-34.816-87.552-54.272-140.288-54.272-52.736 0-102.912 18.944-140.288 53.76l-15.36 17.92-140.288 158.208c15.36 7.168 32.256 11.264 49.664 11.264 27.648 0 53.76-9.728 73.216-26.624 6.144-5.12 12.8-12.8 20.48-21.504l3.072-3.584c31.232-33.792 82.944-90.624 143.872-90.624 24.576 0 49.152 9.216 72.704 28.16l2.048 2.048h1.536z"  /></svg>
