<?xml version="1.0" standalone="no"?><!DOCTYPE svg PUBLIC "-//W3C//DTD SVG 1.1//EN" "http://www.w3.org/Graphics/SVG/1.1/DTD/svg11.dtd"><svg class="icon" width="200px" height="199.61px" viewBox="0 0 1026 1024" version="1.1" xmlns="http://www.w3.org/2000/svg"><path d="M512.96256 328.00768c-106.3168 0-192.80896 86.10304-192.80896 191.9232 0 105.82528 86.5024 191.91808 192.80896 191.91808 106.3168 0 192.80384-86.10304 192.80384-191.91808 0.00512-105.81504-86.49216-191.9232-192.80384-191.9232z m0 332.6464c-78.08512 0-141.60896-63.12448-141.60896-140.71808 0-77.5936 63.52384-140.7232 141.60896-140.7232 78.08 0 141.60384 63.1296 141.60384 140.7232s-63.52384 140.71808-141.60384 140.71808z"  /><path d="M981.23776 410.35264a31.67232 31.67232 0 0 0-1.42336-4.53632l-0.03072-0.06144-0.04608-0.12288-0.53248-1.21856-0.02048-0.04096-0.06144-0.09728-0.05632-0.128c-0.14848-0.32768-0.31232-0.64-0.47104-0.95232l-0.26624-0.53248-0.27136-0.47616-0.54272-0.96256-0.41984-0.67584a15.9232 15.9232 0 0 0-0.44544-0.6912l-0.05632-0.08192-0.05632-0.06144a31.92832 31.92832 0 0 0-6.0928-6.71744l-0.24064-0.2048c-0.31744-0.256-0.61952-0.50688-0.97792-0.768l-0.4608-0.3328c-0.24064-0.16896-0.47104-0.34304-0.72704-0.512l-0.8704-0.56832c-0.50176-0.3072-0.99328-0.60928-1.50528-0.90112l-0.256-0.14336c-0.32256-0.18432-0.67072-0.3584-1.00352-0.53248l-0.11264-0.09216-0.31232-0.11776c-0.37376-0.18944-0.77312-0.36864-1.17248-0.54784l-0.19968-0.09216-0.04608-0.01536a27.54048 27.54048 0 0 0-1.13152-0.45568l-0.22016-0.09216a30.05952 30.05952 0 0 0-1.07008-0.37376l-0.43008-0.14848-0.68096-0.20992-0.84992-0.24576-0.47104-0.11264-0.512-0.11776c-0.20992-0.04608-0.41984-0.10752-0.60416-0.13824l-0.46592-0.09728a72.704 72.704 0 0 0-1.12128-0.2048l-0.32256-0.04608a28.01664 28.01664 0 0 0-1.31584-0.1792l-0.11776-0.01536a32.3072 32.3072 0 0 0-4.72064-0.14848h-0.11264c-1.38752 0.0512-2.89792 0.08192-4.68992 0.08192-61.01504 0-110.65856-49.38752-110.65856-110.09536a109.41952 109.41952 0 0 1 17.90464-60.1088l0.10752-0.17408 0.26624-0.44032c0.47616-0.73728 0.90624-1.49504 1.30048-2.27328l0.22528-0.44032a40.8576 40.8576 0 0 0 1.13152-2.56l0.0512-0.10752 0.0256-0.10752c0.33792-0.87552 0.63488-1.7664 0.896-2.66752l0.14848-0.39936v-0.1792a31.5648 31.5648 0 0 0 0.33792-14.7456 32.23552 32.23552 0 0 0-0.79872-3.09248l-0.11776-0.3328a30.1824 30.1824 0 0 0-0.95232-2.5344l-0.16896-0.36352a28.2624 28.2624 0 0 0-1.19296-2.43712l-0.16896-0.3072a29.62432 29.62432 0 0 0-1.51552-2.44736l-0.10752-0.14848a30.80192 30.80192 0 0 0-1.60256-2.10944l-0.01536-0.0256-0.31744-0.36352a24.1664 24.1664 0 0 0-1.29024-1.408l-0.01024-1.80224h-1.82272c-54.65088-52.01408-121.5488-90.90048-193.59232-112.50176l-0.19456-0.08704-0.20992-0.03584a32.22016 32.22016 0 0 0-19.69152 0.512c-0.04096 0.02048-0.25088 0.08192-0.25088 0.08192l-0.10752 0.04096c-0.30208 0.10752-0.59904 0.2304-0.80384 0.31232l-0.53248 0.19968-0.67072 0.29696-0.8704 0.38912-0.69632 0.33792h-0.0768l-0.65536 0.36864a32.256 32.256 0 0 0-13.94176 14.6944c-18.18624 38.39488-57.48736 63.20128-100.11648 63.20128-42.4704 0-81.60256-24.58112-99.90144-62.68416l-0.00512-0.26112-0.4096-0.5888a32.0256 32.0256 0 0 0-15.1296-15.04256l-0.2816-0.12288a14.24384 14.24384 0 0 0-0.80384-0.36352l-0.39936-0.17408-0.51712-0.20992s-0.78848-0.3072-0.9472-0.3584L394.24 61.88032l-0.19968-0.06656a31.95392 31.95392 0 0 0-10.42432-1.74592 32.00512 32.00512 0 0 0-8.8576 1.23392h-0.01536l-0.42496 0.12288c-71.6544 21.44256-138.33728 60.0576-192.8192 111.60576l-0.59904 0.57856a31.65184 31.65184 0 0 0-2.17088 2.28864l-0.09728 0.1024a31.0272 31.0272 0 0 0-3.72224 5.39136c-0.39424 0.7168-0.77824 1.47968-1.18272 2.3808l-0.21504 0.49152a31.54944 31.54944 0 0 0-0.90112 2.38592l-0.1792 0.55296c-0.27648 0.8704-0.49664 1.67936-0.6656 2.4576l-0.10752 0.49152c-0.18944 0.85504-0.3328 1.7408-0.4352 2.56-0.0256 0.16896-0.0512 0.32768-0.05632 0.44032-0.10752 0.9216-0.17408 1.86368-0.2048 2.85184l-0.00512 0.16896c-0.01536 0.96256 0.00512 1.92512 0.07168 2.88768l0.00512 0.13312c0.0768 0.98304 0.18944 1.96096 0.35328 2.93376l0.03584 0.28672 0.0256 0.07168c0.15872 0.87552 0.35328 1.74592 0.58368 2.60608l0.06144 0.24576c0.27136 0.9472 0.56832 1.87904 0.9216 2.79552l0.09728 0.24064c0.33792 0.88064 0.72704 1.74592 1.13664 2.59072l0.16384 0.32768c0.41984 0.82432 0.8704 1.62304 1.36704 2.41152l0.32256 0.50688 0.25088 0.40448a109.312 109.312 0 0 1 18.45248 60.94848c0 60.70784-49.64864 110.09536-110.65856 110.09536-2.30912 0-4.34688-0.0512-6.25152-0.1536l-0.31232-0.00512c-0.39936-0.01536-0.78848-0.03072-1.21344-0.03584h-0.32256c-0.43008 0-0.84992 0.01024-1.26976 0.0256l-0.39936 0.02048a25.15456 25.15456 0 0 0-1.26976 0.09216l-0.36352 0.03584a21.3504 21.3504 0 0 0-1.11616 0.13312l-0.5376 0.0768-0.90112 0.1536-0.73216 0.14336-0.7168 0.16384a22.27712 22.27712 0 0 0-1.42336 0.36352c-0.34304 0.1024-0.70656 0.2048-1.01376 0.30208l-0.4608 0.14848a41.8816 41.8816 0 0 0-1.07008 0.37888l-0.34816 0.13312c-0.37376 0.14848-0.75776 0.29696-1.14176 0.46592l-0.31744 0.13824c-0.35328 0.16384-0.72192 0.32256-1.11616 0.52224l-0.256 0.12288c-0.34816 0.1792-0.69632 0.35328-1.04448 0.54784l-0.36352 0.2048-0.91648 0.5376-0.45056 0.2816a15.69792 15.69792 0 0 0-0.80896 0.53248l-0.44544 0.3072-0.82432 0.59904c-0.20992 0.1536-0.40448 0.3072-0.53248 0.41472-0.1792 0.128-0.34304 0.26624-0.52224 0.40448l-0.16896 0.13312-0.65536 0.55808-0.41472 0.36864-0.512 0.46592-0.22528 0.21504c-0.32256 0.32256-0.65536 0.64512-0.96768 0.9728l-0.48128 0.50688-0.70656 0.80384a24.61696 24.61696 0 0 0-1.30048 1.61792l-0.56832 0.78848-0.36352 0.52224-0.512 0.7936-0.33792 0.55808-0.39936 0.68608-0.37376 0.67072-0.29696 0.56832a23.97184 23.97184 0 0 0-0.47616 0.96256l-0.20992 0.45056-0.46592 1.08032-0.10752 0.2816c-0.17408 0.42496-0.32256 0.86016-0.49152 1.31072l-0.08192 0.2304c-0.13824 0.41984-0.2816 0.8448-0.40448 1.26464-0.1536 0.52224-0.30208 1.0496-0.42496 1.58208l-0.19456 0.85504c-8.32512 35.6096-12.544 72.2688-12.544 108.96896s4.21376 73.34912 12.544 108.94848l0.13312 0.62976 0.09728 0.34816c0.1024 0.41984 0.20992 0.83968 0.32256 1.24928l0.06144 0.20992c0.31232 1.07008 0.68096 2.11456 1.10592 3.14368l0.04608 0.10752c0.12288 0.32256 0.26624 0.64 0.41472 0.95744 0.07168 0.15872 0.13824 0.32256 0.22016 0.4864 0.13824 0.29184 0.2816 0.58368 0.4352 0.88064l0.32256 0.62976 0.36864 0.67072 0.384 0.64c0.1024 0.1792 0.2048 0.3328 0.31232 0.512l0.0768 0.10752c0.17408 0.2816 0.34816 0.54272 0.512 0.77312 0.10752 0.16896 0.22528 0.3328 0.34304 0.50688l0.59904 0.83968 0.27648 0.34304c0.20992 0.26624 0.41984 0.53248 0.64 0.78336 0.07168 0.09728 0.13824 0.18944 0.22528 0.27648l2.30912-2.00704-2.23232 2.0992c0.25088 0.3072 0.51712 0.58368 0.73216 0.82432l0.32256 0.35328c0.23552 0.256 0.48128 0.50176 0.73728 0.7424l0.43008 0.43008c0.22528 0.22016 0.4608 0.44032 0.70144 0.65024l0.42496 0.37888 0.69632 0.57856c0.18944 0.16896 0.38912 0.32256 0.55296 0.45056l0.70144 0.5376 0.5888 0.41984 0.59392 0.41984 0.80896 0.52736 0.50688 0.3072 0.76288 0.4608c0.17408 0.10752 0.35328 0.19968 0.52224 0.29696l0.73728 0.384 0.59904 0.3072c0.25088 0.11776 0.50176 0.24576 0.75264 0.34816l0.76288 0.34304c0.3072 0.10752 0.59904 0.24064 0.94208 0.36864l0.44032 0.16384c0.31232 0.11264 0.62464 0.2304 0.9472 0.32256l0.13824 0.05632c0.3328 0.12288 0.68096 0.2304 1.03424 0.32256l0.93184 0.26624 0.70144 0.1792 0.97792 0.22016 0.46592 0.09216c0.38912 0.08192 0.77824 0.128 1.13664 0.19968l0.27648 0.04096 0.41472-3.03104-0.3072 3.0464c0.46592 0.05632 0.9216 0.12288 1.34144 0.1536l0.18944 0.02048c0.49664 0.04608 0.98304 0.08192 1.47968 0.10752h0.11264c1.03936 0.0512 2.08384 0.04096 3.11808-0.01536l0.09728-0.00512a111.4624 111.4624 0 0 1 6.26176-0.14848c61.01504 0 110.65856 49.40288 110.65856 110.1312a109.25056 109.25056 0 0 1-18.44736 60.9024c-0.08704 0.12288-0.1536 0.25088-0.24064 0.37888l-0.08192 0.128a31.3856 31.3856 0 0 0-1.60768 2.79552l-0.22528 0.45568a33.8944 33.8944 0 0 0-1.14688 2.6624l-0.07168 0.16896c-0.32256 0.8704-0.6144 1.78176-0.8704 2.688l-0.06144 0.22016a31.8976 31.8976 0 0 0-1.00864 5.92896l-0.00512 0.128a31.24736 31.24736 0 0 0-0.07168 2.9952v0.11776c0.0256 0.9216 0.1024 1.83296 0.2048 2.75456l0.0512 0.39936c0.10752 0.896 0.26624 1.79712 0.45568 2.66752l0.1024 0.4608c0.18944 0.8192 0.40448 1.62816 0.65536 2.44224l0.19968 0.5888c0.27136 0.78848 0.5632 1.57696 0.88576 2.35008l0.24064 0.5376c0.36352 0.80896 0.76288 1.60768 1.18784 2.39104l0.19968 0.34816c0.45568 0.79872 0.9472 1.58208 1.46944 2.33984l0.19968 0.2816c0.58368 0.82944 1.2032 1.62816 1.86368 2.40128l0.09216 0.10752c0.65024 0.74752 1.34144 1.46944 2.05312 2.16064l0.10752 0.10752 0.50688 0.4864c54.30272 51.42528 120.71424 89.95328 192.09728 111.4624l0.01024 0.01536 0.78848 0.2304a31.86176 31.86176 0 0 0 9.25696 1.36704 33.5872 33.5872 0 0 0 9.04192-1.26976l1.23392-0.36864 0.0256-0.03072c0.22528-0.0768 0.45568-0.14848 0.68096-0.2304 0.26624-0.09728 0.52224-0.19968 0.768-0.3072l-1.0496-2.87744 1.19808 2.82624c0.18944-0.08704 0.37376-0.14848 0.54272-0.2304 0.19456-0.08192 0.39424-0.15872 0.58368-0.25088 0.29696-0.13824 0.5888-0.26112 0.96256-0.44544l0.11776-0.06656a32.18944 32.18944 0 0 0 14.97088-14.94016l0.42496-0.59392v-0.28672c18.304-38.10304 57.42592-62.68928 99.87072-62.68928 42.6752 0 82.01216 24.84736 100.16768 63.27296 1.15712 2.45248 2.62144 4.76672 4.36224 6.85568a32.55296 32.55296 0 0 0 12.00128 8.94464c0.14336 0.0768 0.30208 0.13312 0.43008 0.18944 0.25088 0.10752 0.50688 0.19968 0.67072 0.26624l0.73216 0.29184c0.19968 0.07168 0.39936 0.128 0.51712 0.16896 0.32256 0.10752 0.66048 0.2304 0.98304 0.32256l0.3072 0.09728c0.4096 0.11264 0.80384 0.2304 1.21344 0.32768l0.45056 0.10752h0.0256c1.32096 0.31744 2.6624 0.54784 3.99872 0.70656h0.03584l0.23552 0.02048c0.47616 0.04096 0.95232 0.09728 1.39264 0.10752 0.2304 0.02048 0.4608 0.02048 0.6912 0.03072l0.83968 0.03072 0.41472 0.00512a32.7424 32.7424 0 0 0 9.35936-1.408c72.36608-21.66272 139.5712-60.81536 194.3552-113.21344l0.28672-0.20992 0.14336-0.22016c0.66048-0.62976 1.30048-1.32608 1.87392-2.00704l0.13312-0.13312c0.67072-0.79872 1.30048-1.62304 1.8944-2.47808l0.09728-0.11264c0.53248-0.77312 1.01888-1.57696 1.47968-2.39104l0.22016-0.384c0.42496-0.77824 0.8192-1.59232 1.17248-2.41152l0.2048-0.4608a30.848 30.848 0 0 0 1.75104-5.43744l0.1024-0.44544a39.8848 39.8848 0 0 0 0.44544-2.69312l0.04608-0.3328c0.10752-0.91136 0.16384-1.81248 0.18944-2.72896l0.01024-0.24576a31.21152 31.21152 0 0 0-0.43008-5.85216l-0.0512-0.27136a27.79136 27.79136 0 0 0-0.65536-2.93888l-0.04608-0.13824a37.05856 37.05856 0 0 0-0.88576-2.70336 29.06624 29.06624 0 0 0-1.19808-2.74432l-0.25088-0.51712a31.28832 31.28832 0 0 0-1.27488-2.2528l-0.09728-0.128c-0.09728-0.1536-0.17408-0.30208-0.2304-0.36864l-0.12288-0.2048a109.312 109.312 0 0 1-17.86368-60.01664c0-60.71808 49.65376-110.12096 110.6688-110.12096 1.56672-0.01024 3.11808 0.02048 4.6848 0.08192h0.06144c0.512 0.02048 1.02912 0.03072 1.57184 0.03072h0.03072c0.51712 0 1.00864-0.02048 1.52576-0.0512h0.10752c0.50176-0.0256 0.99328-0.08192 1.4592-0.11776l0.17408-0.0256c0.40448-0.03584 0.80896-0.08704 1.21856-0.1536l-0.44032-3.0208 0.55808 3.01056 0.2816-0.04096 1.01376-0.18944c0.2048-0.03072 0.41472-0.08192 0.62464-0.11776l0.74752-0.17408 0.1792-0.04608c0.21504-0.06144 0.44032-0.10752 0.73216-0.17408l0.73728-0.22016 0.7424-0.22016 0.27136-0.09728c2.3808-0.79872 4.6592-1.85344 6.77376-3.16928l0.23552-0.13312 0.02048-0.02048c0.32256-0.2048 0.65024-0.41984 0.96256-0.64 0.10752-0.0768 0.22528-0.14336 0.32256-0.2304l0.10752-0.0768 0.83456-0.59904c0.23552-0.17408 0.47616-0.3584 0.70144-0.54784l0.09216-0.07168c0.47616-0.36352 0.94208-0.75776 1.38752-1.17248l0.0512-0.05632 0.11264-0.10752c1.46432-1.33632 2.79552-2.80064 3.97824-4.3776l0.27136-0.30208 0.08704-0.15872 0.55296-0.79872 0.15872-0.24064c0.18432-0.2816 0.3584-0.54784 0.53248-0.83968l0.32768-0.53248c0.128-0.22016 0.26112-0.44032 0.3584-0.62976l0.09216-0.14848 0.32256-0.57856a42.42432 42.42432 0 0 0 0.75264-1.4848l0.1024-0.18432 0.0256-0.08192c0.15872-0.33792 0.31232-0.6912 0.45568-1.03936l0.0768-0.128 0.09728-0.26112c0.58368-1.48992 1.09056-3.0464 1.4336-4.608a477.73184 477.73184 0 0 0 12.68224-109.5168 480.0512 480.0512 0 0 0-12.7232-109.58848z m-46.68416 192.896c-84.9152 4.68992-152.66304 75.14112-152.66304 161.07008a159.93344 159.93344 0 0 0 17.96096 73.92256 432.08704 432.08704 0 0 1-148.352 86.50752c-29.12256-47.84128-81.80736-77.89056-138.53696-77.89056-56.64768 0-109.44 30.11584-138.51648 77.88544a432.8192 432.8192 0 0 1-147.03616-85.3248 159.7696 159.7696 0 0 0 18.5856-75.1616c0-86.4768-68.72064-157.32224-154.63936-161.09056a428.53376 428.53376 0 0 1 0-166.4768c85.90336-3.78368 154.624-74.61376 154.624-161.13664 0-26.39872-6.38464-52.0704-18.58048-75.14112a432.9472 432.9472 0 0 1 147.03104-85.29408c29.07136 47.77472 81.87392 77.89568 138.55232 77.89568 56.73472 0 109.44-30.09024 138.51136-77.8752a432.7936 432.7936 0 0 1 148.32128 86.48704 160.19968 160.19968 0 0 0-17.93536 74.01472c0 85.80608 67.67616 156.21632 152.66304 160.97792a427.47904 427.47904 0 0 1 8.18176 83.29728c0 28.06272-2.74432 56.02816-8.17152 83.33312z"  /></svg>
