<?xml version="1.0" standalone="no"?><!DOCTYPE svg PUBLIC "-//W3C//DTD SVG 1.1//EN" "http://www.w3.org/Graphics/SVG/1.1/DTD/svg11.dtd"><svg class="icon" width="200px" height="200.00px" viewBox="0 0 1024 1024" version="1.1" xmlns="http://www.w3.org/2000/svg"><path d="M1.728 512a510.272 510.272 0 1 0 1020.608 0A510.272 510.272 0 0 0 1.728 512z" fill="#ACFFE5" /><path d="M450.944 351.104c19.008-6.784 39.232-11.136 60.544-11.136 30.656 0 59.136 8.32 84.352 21.76 0-3.52 0.704-6.976 0.384-10.496 0-46.272-27.008-126.976-107.712-126.976H483.2a115.712 115.712 0 0 0-107.648 126.976c-1.088 16 0.448 31.744 3.456 47.168 19.648-21.184 44.16-37.376 71.936-47.296zM349.248 751.68c46.976 7.296 94.528 10.944 142.08 10.752 284.736 0 225.472-60.16 215.296-95.232-2.688-21.952-18.688-39.744-39.488-55.168a180.288 180.288 0 0 1-155.648 90.048 179.968 179.968 0 0 1-140.544-68.16 181.632 181.632 0 0 1-27.136-45.184c-37.056 19.584-71.232 43.648-75.328 76.224-5.376 25.856-43.008 68.928 80.768 86.72z" fill="#56dba6" /><path d="M675.456 445.248c-12.352 23.68-28.672 45.376-50.432 62.336a65.152 65.152 0 0 0 0 25.856 45.888 45.888 0 0 0 5.824 19.264c11.264 8.64 29.888 17.6 50.944 27.456a179.2 179.2 0 0 0 10.688-59.072 179.84 179.84 0 0 0-17.024-75.84zM450.944 351.104a180.608 180.608 0 0 0-71.936 47.296 179.84 179.84 0 0 0-48.576 122.624c0 24 4.928 46.784 13.376 67.712 6.72 16.576 16.128 31.424 27.136 45.12 46.4-35.648 119.232-59.328 145.664-81.216a28.48 28.48 0 0 0 12.032-16.256 43.84 43.84 0 0 0-9.024-28.8 202.56 202.56 0 0 1-68.672-156.48z" fill="#C3FFEC" /><path d="M531.712 523.968a43.2 43.2 0 0 0 5.312 17.28c24.832 19.072 88.064 39.616 130.112 70.72 5.952-10.048 10.816-20.672 14.656-31.872-21.056-9.792-39.68-18.816-50.944-27.456a45.312 45.312 0 0 1-5.824-19.2 65.152 65.152 0 0 1 0-25.856c21.76-16.96 38.08-38.656 50.432-62.336a180.928 180.928 0 0 0-79.552-83.52 168.768 168.768 0 0 1-64.128 139.072 60.032 60.032 0 0 0-0.064 23.168z" fill="#C3FFEC" /><path d="M450.944 351.104a202.56 202.56 0 0 0 68.672 156.48 43.904 43.904 0 0 1 9.024 28.864 28.48 28.48 0 0 1-12.032 16.256c-26.432 21.888-99.264 45.568-145.664 81.152a179.84 179.84 0 0 0 140.544 68.224 180.288 180.288 0 0 0 155.648-90.048c-41.984-31.168-105.28-51.712-130.112-70.784a43.2 43.2 0 0 1-5.312-17.28 61.312 61.312 0 0 1 0-23.168A168.576 168.576 0 0 0 595.84 361.728a178.816 178.816 0 0 0-84.352-21.76c-21.312 0-41.536 4.352-60.544 11.136z" fill="#C3FFEC" /><path d="M630.848 552.704a45.888 45.888 0 0 1-5.824-19.264 65.152 65.152 0 0 1 0-25.856c21.76-16.96 38.08-38.656 50.432-62.336a180.928 180.928 0 0 0-79.552-83.52 178.816 178.816 0 0 0-84.352-21.76c-21.312 0-41.536 4.352-60.544 11.136a202.24 202.24 0 0 0 68.608 156.48 43.904 43.904 0 0 1 9.024 28.864 28.48 28.48 0 0 1-12.032 16.256c-26.432 21.888-99.264 45.568-145.664 81.152a179.84 179.84 0 0 0 140.544 68.224 180.288 180.288 0 0 0 170.304-121.92c-21.056-9.856-39.68-18.816-50.944-27.456z" fill="#56dba6" /><path d="M749.568 702.08c61.376 61.44 51.712 73.792 38.08 87.488-13.76 13.632-26.112 23.296-87.488-38.08s-73.728-77.312-50.368-100.736 38.336-10.112 99.776 51.328z" fill="#00B767" /><path d="M356.736 366.272a218.88 218.88 0 1 0 309.504 309.44 218.88 218.88 0 0 0-309.504-309.44z m273.792 273.664a168.32 168.32 0 1 1-238.016-237.888 168.32 168.32 0 0 1 238.016 237.888z" fill="#00B767" /></svg>