<?xml version="1.0" standalone="no"?><!DOCTYPE svg PUBLIC "-//W3C//DTD SVG 1.1//EN" "http://www.w3.org/Graphics/SVG/1.1/DTD/svg11.dtd"><svg class="icon" width="200px" height="200.00px" viewBox="0 0 1024 1024" version="1.1" xmlns="http://www.w3.org/2000/svg"><path d="M512 512m-510.272 0a510.272 510.272 0 1 0 1020.544 0 510.272 510.272 0 1 0-1020.544 0Z" fill="#C3E9FF" /><path d="M751.808 346.688v-33.472a55.168 55.168 0 0 0-54.976-54.976H327.168a55.104 55.104 0 0 0-54.976 54.976V710.4c0 30.208 24.768 54.912 54.976 54.912h369.664a55.104 55.104 0 0 0 54.976-54.912V346.688z m-90.688 146.56c-11.008 77.312-73.92 136.32-149.824 136.32s-139.072-59.712-149.824-136.896a21.824 21.824 0 0 1-10.432-18.688 22.016 22.016 0 1 1 35.2 17.6c10.176 64.32 62.4 113.472 125.056 113.472 62.912 0 115.456-49.408 125.056-114.048a22.016 22.016 0 1 1 36.032-17.024 21.248 21.248 0 0 1-11.264 19.264z" fill="#006FD3" /><path d="M731.776 331.072l-439.552 0.832v-23.04a30.72 30.72 0 0 1 30.848-30.848h377.664a30.72 30.72 0 0 1 30.912 30.848v22.208z" fill="#C3E9FF" /><path d="M731.776 351.488l-439.552 0.832v-23.04a30.72 30.72 0 0 1 30.848-30.848h377.664c17.152 0 30.912 13.76 30.912 30.848v22.208z" fill="#59A3E9" /><path d="M731.776 378.432l-439.552 0.832v-23.04c0-17.152 13.76-30.912 30.848-30.912h377.664c17.152 0 30.912 13.76 30.912 30.912v22.208z" fill="#59A3E9" /></svg>