<?xml version="1.0" standalone="no"?><!DOCTYPE svg PUBLIC "-//W3C//DTD SVG 1.1//EN" "http://www.w3.org/Graphics/SVG/1.1/DTD/svg11.dtd"><svg class="icon" width="200px" height="199.80px" viewBox="0 0 1025 1024" version="1.1" xmlns="http://www.w3.org/2000/svg"><path d="M158.72 666.624c-16.896 0-30.72 13.824-30.72 30.72v200.704c0 16.896 13.824 30.72 30.72 30.72s30.72-13.824 30.72-30.72v-200.704c0-16.896-13.824-30.72-30.72-30.72zM394.24 560.64c-16.896 0-30.72 13.824-30.72 30.72v306.688c0 16.896 13.824 30.72 30.72 30.72s30.72-13.824 30.72-30.72v-306.688c0-16.896-13.824-30.72-30.72-30.72zM629.76 465.92c-16.896 0-30.72 13.824-30.72 30.72v401.92c0 16.896 13.824 30.72 30.72 30.72s30.72-13.824 30.72-30.72V496.64c0-16.896-13.824-30.72-30.72-30.72zM865.28 325.632c-16.896 0-30.72 13.824-30.72 30.72v541.696c0 16.896 13.824 30.72 30.72 30.72s30.72-13.824 30.72-30.72V356.352c0-16.896-13.824-30.72-30.72-30.72z"  /><path d="M911.872 95.232h-153.6c-16.896 0-30.72 13.824-30.72 30.72s13.824 30.72 30.72 30.72H839.68l-224.768 182.784-229.376 68.608c-2.048 0.512-3.584 1.536-5.632 2.048L97.792 558.08c-14.848 7.68-20.992 26.624-12.8 41.472 5.632 10.24 16.384 16.384 27.136 16.384 4.608 0 9.728-1.024 14.336-3.584L406.016 465.92l232.96-70.144c4.096-1.024 7.168-3.072 10.752-5.632l231.936-188.416v77.312c0 16.896 13.824 30.72 30.72 30.72s30.72-13.824 30.72-30.72v-153.6c-0.512-16.384-14.336-30.208-31.232-30.208z"  /></svg>
