<?xml version="1.0" standalone="no"?><!DOCTYPE svg PUBLIC "-//W3C//DTD SVG 1.1//EN" "http://www.w3.org/Graphics/SVG/1.1/DTD/svg11.dtd"><svg class="icon" width="200px" height="193.57px" viewBox="0 0 1058 1024" version="1.1" xmlns="http://www.w3.org/2000/svg"><path d="M918.07232 882.75456H177.66912c-18.43712 0-33.52576-14.7712-33.52576-32.8192V197.84704c0-18.04288 15.08864-32.83968 33.52576-32.83968H918.0672c18.4576 0 33.55136 14.79168 33.55136 32.83968v652.08832c0 18.048-15.08864 32.8192-33.54624 32.8192z m-729.07264-44.85632h717.75744V209.85856H188.99968v628.03968z m0 0"  /><path d="M556.32384 568.76032h-17.05472c-57.6512 0-111.7952-20.60288-152.51456-57.94304-40.73984-37.3504-63.16544-87.1168-63.16544-139.9296 0-14.63296 12.8768-26.4448 28.8256-26.4448 15.93856 0 28.84096 11.81184 28.84096 26.4448 0 80.01024 70.90176 145.03424 158.09024 145.03424h17.0496c87.21408 0 158.14144-65.01888 158.14144-145.03424 0-14.63296 12.8768-26.4448 28.82048-26.4448s28.8256 11.81184 28.8256 26.4448c0 52.89472-22.42048 102.5792-63.16032 139.9296-40.91392 37.34016-95.05792 57.94304-152.69888 57.94304z m0 0"  /></svg>
