<?xml version="1.0" standalone="no"?><!DOCTYPE svg PUBLIC "-//W3C//DTD SVG 1.1//EN" "http://www.w3.org/Graphics/SVG/1.1/DTD/svg11.dtd"><svg class="icon" width="200px" height="200.00px" viewBox="0 0 1024 1024" version="1.1" xmlns="http://www.w3.org/2000/svg"><path d="M921.088 431.616c-4.608-23.04-18.944-38.4-36.352-37.888h-3.584c-60.416 0-108.544-48.128-108.544-107.008 0-19.456 9.728-40.96 9.728-40.96 9.728-20.48 2.048-45.568-17.408-59.392l-105.472-57.344c-6.144-2.56-12.8-4.096-19.968-4.096-14.848 0-29.696 6.144-38.912 15.872-12.8 12.8-53.248 46.592-85.504 46.592-32.768 0-73.216-34.304-86.016-47.616-9.728-10.24-24.064-15.872-38.912-15.872-7.68 0-14.848 1.536-20.992 4.096L258.56 186.88c-12.8 8.704-20.48 22.528-20.48 38.912 0 6.656 1.536 13.312 4.096 18.944 0 0.512 9.728 21.504 9.728 40.96 0 59.392-49.152 107.008-108.544 107.008h-3.584c-17.408-0.512-31.744 14.336-36.352 37.888-0.512 2.048-0.512 159.744 0 161.792 4.608 23.04 18.432 37.888 36.352 37.888h3.584c60.416 0 108.544 48.128 108.544 107.008 0 19.456-9.728 40.96-9.728 40.96-9.728 20.48-2.048 45.568 17.408 59.392l103.424 56.832c6.144 2.56 12.8 4.096 19.968 4.096 14.848 0 29.696-6.144 38.912-16.384 11.776-12.8 53.76-49.664 87.04-49.664s74.24 36.352 87.552 50.688c9.728 10.24 24.064 16.384 39.424 16.384 7.168 0 14.848-1.536 21.504-3.584l107.008-58.368c18.432-13.312 26.112-37.888 16.384-58.368 0-0.512-9.728-21.504-9.728-40.96 0-59.392 49.152-107.008 108.544-107.008h3.584c17.408 0.512 31.744-14.336 36.352-37.888 2.048-2.048 2.048-159.744 1.536-161.792z m-57.344 134.656c-83.456 8.704-148.992 78.848-148.992 164.352 0 15.872 3.072 32.768 9.728 51.2v2.56l1.024 2.048-88.064 48.128c-12.8-13.312-68.608-67.072-128-67.072-57.856 0-112.128 50.176-125.952 64.512l-84.48-46.592c4.608-11.776 10.752-33.28 10.752-55.808 0-84.992-65.536-155.648-148.992-164.352V441.344c83.456-8.704 148.992-78.848 148.992-164.352 0-15.872-3.072-32.768-9.728-51.2v-2.048l-1.024-2.048L389.12 174.08c13.824 13.824 67.584 62.464 124.928 62.464 10.24 0 64.512-3.072 124.416-61.44l87.04 47.616c-4.608 11.776-10.752 33.28-10.752 55.808 0 84.992 65.536 155.648 148.992 164.352v123.392z"  /><path d="M512 350.72c-89.088 0-161.28 72.192-161.28 161.28s72.192 161.28 161.28 161.28 161.28-72.192 161.28-161.28-72.192-161.28-161.28-161.28z m0 264.704c-57.344 0-103.424-46.592-103.424-103.424 0-57.344 46.592-103.424 103.424-103.424 57.344 0 103.424 46.592 103.424 103.424 0 57.344-46.08 103.424-103.424 103.424z"  /></svg>
