<?xml version="1.0" encoding="UTF-8"?>
<svg width="16px" height="16px" viewBox="0 0 16 16" version="1.1" xmlns="http://www.w3.org/2000/svg" xmlns:xlink="http://www.w3.org/1999/xlink">
    <!-- Generator: Sketch 63.1 (92452) - https://sketch.com -->
    <title>分享</title>
    <desc>Created with Sketch.</desc>
    <g id="分享" stroke="none" stroke-width="1" fill="none" fill-rule="evenodd">
        <g>
            <rect id="矩形" fill="#ffffff" opacity="0" x="0" y="0" width="16" height="16"></rect>
            <g id="分-享" transform="translate(2.500000, 2.500000)" fill="#FFFFFF" fill-rule="nonzero">
                <path d="M9.25334462,7.23815886 C8.53374303,7.23815886 7.94538546,7.62335608 7.67138247,8.22132221 L4.19307072,6.74178934 C4.39595717,6.4274238 4.5074253,6.04223755 4.5074253,5.62684512 C4.5074253,5.45471265 4.48711255,5.28229532 4.4464761,5.12003436 L6.6673257,3.39696763 C6.96165239,3.61990388 7.33696713,3.75168476 7.75263347,3.75168476 C8.75666833,3.75168476 9.5070239,3.001625 9.5070239,2.00859014 C9.5070239,1.01527042 8.75639442,0.265199701 7.75263347,0.265199701 C6.74859861,0.265199701 6.00841036,1.01525946 6.00841036,2.00859014 C6.00841036,2.26199552 6.05920319,2.49508815 6.14019124,2.6977007 L4.0914741,4.26865189 C3.68596414,3.66052938 3.01660757,3.23469572 2.25609562,3.23469572 C1.65874608,3.23320236 1.08541646,3.46976325 0.662923468,3.89205269 C0.240430474,4.31434213 0.00359331743,4.88755768 0.00479422534,5.48490787 C0.00367206909,6.08221256 0.240548511,6.65535694 0.663040053,7.07758325 C1.08553159,7.49980956 1.65882462,7.73632603 2.25612849,7.7348242 C2.72258765,7.7348242 3.15857769,7.61347361 3.51356873,7.39054831 L7.50940637,9.09300647 C7.5601992,10.0355334 8.29023108,10.7348003 9.25335558,10.7348003 C10.2576753,10.7348003 10.9978635,9.98501444 10.9978635,8.99170568 C10.9978635,7.99838596 10.2472341,7.23816982 9.25364044,7.23816982 L9.25334462,7.23815886 Z" id="路径"></path>
            </g>
        </g>
    </g>
</svg>
