<?xml version="1.0" standalone="no"?><!DOCTYPE svg PUBLIC "-//W3C//DTD SVG 1.1//EN" "http://www.w3.org/Graphics/SVG/1.1/DTD/svg11.dtd"><svg t="1603425547478" class="icon" viewBox="0 0 1024 1024" version="1.1" xmlns="http://www.w3.org/2000/svg" p-id="31899" xmlns:xlink="http://www.w3.org/1999/xlink" width="200" height="200"><defs><style type="text/css"></style></defs><path d="M752.192 623.232c-46.08 0-83.712 24.64-101.248 62.912l-222.592-94.72c12.992-20.096 20.096-44.736 20.096-71.296a134.4 134.4 0 0 0-3.84-32.448l142.08-110.272c18.88 14.272 42.88 22.72 69.504 22.72 64.256 0 112.256-48 112.256-111.552 0-63.616-48-111.616-112.256-111.616s-111.68 48-111.68 111.616c0 16.192 3.264 31.104 8.448 44.096l-131.136 100.48c-25.92-38.848-68.736-66.112-117.44-66.112a143.744 143.744 0 0 0-144.064 144 143.744 143.744 0 0 0 144.064 144c29.888 0 57.792-7.808 80.512-22.016l255.68 108.928c3.264 60.352 49.984 105.088 111.616 105.088 64.32 0 111.68-48 111.68-111.552 0-63.616-48-112.256-111.616-112.256z" p-id="31900"></path></svg>