<?xml version="1.0" standalone="no"?><!DOCTYPE svg PUBLIC "-//W3C//DTD SVG 1.1//EN" "http://www.w3.org/Graphics/SVG/1.1/DTD/svg11.dtd"><svg t="1582808713672" class="icon" viewBox="0 0 1024 1024" version="1.1" xmlns="http://www.w3.org/2000/svg" p-id="22829" xmlns:xlink="http://www.w3.org/1999/xlink" width="32" height="32"><defs><style type="text/css"></style></defs><path d="M659.456 444.416v-6.144h-51.712v6.144c0 23.552-8.192 43.52-25.088 60.416-16.896 16.896-36.352 25.088-60.416 25.088-7.68 0-15.36-1.024-22.528-3.072-7.168-2.048-13.824-5.12-20.48-8.704-6.144-3.584-11.776-8.192-16.896-13.312s-9.728-10.752-13.312-16.896c-3.584-6.144-6.656-13.312-8.704-20.48-2.048-7.68-3.072-14.848-3.072-22.528v-6.144H385.536v6.144c0 37.888 13.312 70.656 39.936 97.28 26.624 26.624 58.88 39.936 96.768 39.936 37.376 0 70.144-13.312 96.768-39.936 26.624-27.648 40.448-59.904 40.448-97.792z" fill="#8a8a8a" p-id="22830"></path><path d="M813.056 433.664c0-160.256-130.048-290.304-290.304-290.304S231.936 272.896 231.936 433.664c0 123.392 76.8 228.352 185.344 270.848L356.864 880.64h53.248l73.216-212.992c-112.128-18.944-197.632-116.736-197.632-233.984 0-131.072 106.496-237.056 237.056-237.056 131.072 0 237.056 106.496 237.056 237.056 0 117.248-85.504 215.04-197.632 233.984l73.216 212.992h53.248l-60.416-176.128c108.032-42.496 184.832-147.456 184.832-270.848z" fill="#8a8a8a" p-id="22831"></path><path d="M899.584 530.944c-4.608-15.872-10.752-30.72-19.456-44.032-8.192-13.312-18.432-26.112-29.696-36.864-1.536-1.536-3.584-3.072-5.12-4.608-1.024 23.552-4.096 46.592-9.728 68.608 2.048 3.072 3.584 6.144 5.12 9.216 9.216 17.92 14.336 37.888 14.336 58.88 0 36.352-12.288 66.56-37.888 92.16-25.088 25.088-53.76 37.888-88.576 38.4h-14.336l37.376 125.44 14.336 43.52h52.224l-39.936-128 3.072-1.024c34.816-11.264 64.512-31.744 87.552-61.44 24.576-31.744 37.376-68.096 37.888-109.056v-1.536c0-17.408-2.56-33.792-7.168-49.664zM316.928 712.192c-34.816-0.512-64-13.312-88.576-38.4-25.6-26.112-37.888-56.32-37.888-92.16 0-20.992 4.608-40.448 14.336-58.88 1.536-3.072 3.072-6.144 5.12-9.216-5.632-22.016-9.216-45.056-9.728-68.608-1.536 1.536-3.584 3.072-5.12 4.608-11.776 11.264-21.504 23.552-29.696 36.864-8.192 13.312-14.848 28.672-19.456 44.032-4.608 15.872-6.656 32.256-6.656 49.152v1.536c0.512 40.96 13.312 77.312 37.888 109.056 23.04 29.696 52.224 50.176 87.552 61.44l3.072 1.024-39.936 128h52.224l14.336-43.52 37.376-125.44h-12.8l-2.048 0.512z" fill="#8a8a8a" p-id="22832"></path></svg>