<?xml version="1.0" standalone="no"?><!DOCTYPE svg PUBLIC "-//W3C//DTD SVG 1.1//EN" "http://www.w3.org/Graphics/SVG/1.1/DTD/svg11.dtd"><svg class="icon" width="200px" height="200.00px" viewBox="0 0 1024 1024" version="1.1" xmlns="http://www.w3.org/2000/svg"><path d="M278.58535156 640.43984375c35.84179688 0 68.71904297-11.94785156 92.69824219-32.87636719 8.98242188-8.98242188 20.92939453-8.98242188 29.9109375 0 29.9109375 20.92851562 68.71904297 35.84179688 113.54326172 35.84179688s83.71669922-14.91328125 113.54326172-35.84179688a27.0421875 27.0421875 0 0 1 29.9109375 0c23.89570313 20.92851562 56.77207031 32.87636719 92.69824218 32.87636719 71.76972656 0 131.50722656-50.84033203 131.50722657-116.59394531 0-56.77119141-47.78964844-104.64609375-107.61152344-113.54326172-8.98242188 0-14.91328125-2.96542969-23.89482422-2.96542969H592.43925781c-14.91328125 0-23.89570313-11.94785156-23.89570312-23.89482422v-50.8359375c0-14.91328125-11.94697266-23.89570313-23.89482422-23.89570312H487.87402344c-14.91328125 0-23.89482422 11.94785156-23.89482422 23.89570312v53.80136719c0 14.91328125-11.94785156 23.89482422-23.89570313 23.89482422H278.58535156c-8.98242188 0-14.91328125 0-23.89570312 2.96630859C191.90234375 422.25488281 147.078125 470.04453125 147.078125 526.81660156c0 62.78730469 59.821875 113.62324219 131.50722656 113.62324219zM514.73339844 281.76611328c29.9109375 0 53.80664063-23.89482422 53.80664062-50.84033203 0-17.96308594-20.92939453-62.78730469-35.84267578-95.66455078-6.01611328-14.91328125-26.86113281-14.91328125-32.87724609 0-14.91328125 32.87724609-35.84179688 77.70146484-35.84179688 95.66455078-0.08085937 29.9109375 23.81484375 50.84033203 50.75507813 50.84033203zM655.22216797 652.38769531c-6.01611328-6.01611328-17.96308594-6.01611328-26.86025391 0-29.9109375 23.89482422-68.71992187 38.89160156-113.54414062 38.89160157s-86.76210937-14.99677734-113.70761719-38.89160157c-8.98242188-6.01611328-17.96308594-6.01611328-26.86113281 0-26.86025391 23.89482422-65.75273438 38.89160156-107.61152344 38.89160157-32.87636719 0-62.78730469-8.98066406-86.68300781-23.89394532-11.94697266-8.98242188-29.9109375 0-29.9109375 17.96308594v77.70058594c0 71.76972656 59.821875 128.54179688 131.50722656 128.54179687h472.30136719c71.76972656 0 131.50722656-56.77207031 131.50722656-128.54179687v-77.70058594c0-14.91328125-17.96308594-23.89482422-29.9109375-17.96308594-23.89482422 14.91328125-53.80664063 23.89482422-86.68300781 23.89482422-47.78964844-0.07998047-86.68212891-14.99765625-113.54326172-38.89248047z"  /></svg>
