<?xml version="1.0" standalone="no"?><!DOCTYPE svg PUBLIC "-//W3C//DTD SVG 1.1//EN" "http://www.w3.org/Graphics/SVG/1.1/DTD/svg11.dtd"><svg t="1617953604533" class="icon" viewBox="0 0 1024 1024" version="1.1" xmlns="http://www.w3.org/2000/svg" p-id="18128" xmlns:xlink="http://www.w3.org/1999/xlink" width="128" height="128"><defs><style type="text/css"></style></defs><path d="M17.066667 34.133333l972.8 802.133334V364.561067L589.175467 34.133333z" fill="#5BC228" p-id="18129"></path><path d="M367.854933 77.550933l15.138134-18.039466 108.885333 91.357866-14.4896 17.2544 10.990933 9.216 23.04-27.4432-59.460266-49.902933c2.645333-6.331733 4.9152-11.912533 6.638933-17.152l-13.653333-7.970133a167.714133 167.714133 0 0 1-4.608 15.377066L380.586667 40.106667l-23.688534 28.228266 10.973867 9.216zM341.333333 232.8064l26.7264-31.8464 35.293867 29.610667-7.3728 8.789333 10.990933 9.216 63.453867-75.605333-46.2848-38.843734 13.1584-15.701333-11.298133-9.472-13.1584 15.701333-45.806934-38.4512-63.8464 76.0832 10.973867 9.216 7.765333-9.250133 34.833067 29.218133-26.7264 31.8464 11.298133 9.489067z m94.276267-40.669867l-35.293867-29.610666 15.138134-18.056534 35.293866 29.627734-15.138133 18.039466z m-46.592-39.082666l-34.816-29.2352 15.121067-18.039467 34.816 29.218133-15.121067 18.039467z m-23.552 28.074666L330.581333 151.893333l15.138134-18.039466L380.586667 163.089067l-15.138134 18.039466z m46.592 39.082667l-35.310933-29.610667 15.138133-18.039466 35.293867 29.610666-15.138134 18.056534z m94.72 90.7264c39.901867 14.2336 80.725333 12.117333 122.4704-5.7856l-5.0176-12.4928c-8.413867 3.6352-16.896 6.417067-25.7024 8.635733-10.3936-7.3728-20.804267-15.035733-31.368533-22.8352 11.9808-0.904533 28.603733-5.410133 50.005333-13.380266l42.990933 36.061866 8.533334-10.1888-34.816-29.2352c3.328-8.430933 5.853867-16.213333 7.714133-23.210666l-13.192533-7.850667a133.085867 133.085867 0 0 1-5.495467 21.845333l-39.2192-32.904533-8.567467 10.205867 30.446934 25.531733c-24.405333 8.669867-41.216 12.458667-50.909867 11.281067a19.968 19.968 0 0 1-2.986667-0.904534l-5.4272 11.229867c12.8 9.9328 25.088 19.182933 36.590934 27.767467-24.968533 3.6352-49.629867 0.853333-74.274134-8.328534l-1.792 14.557867z m-51.780267 16.4352l67.003734-79.854933c-0.955733 10.7008-2.952533 24.251733-5.7344 40.618666l14.301866-4.283733c1.365333-17.578667 1.9968-33.621333 1.706667-48.571733l8.5504-10.1888 18.517333 15.530666 9.079467-10.820266-18.500267-15.530667 25.668267-30.600533-10.837333-9.079467-25.668267 30.583467-21.640533-18.158934-9.079467 10.820267 21.162667 17.7664c-22.0672 16.759467-45.602133 28.5696-70.434134 35.5328l-4.9152 15.4112a246.016 246.016 0 0 0 55.944534-26.845867l-65.9456 78.592 10.820266 9.079467z m101.0688 83.473067l15.018667-1.314134c0.426667-16.469333-1.006933-34.5088-3.874133-54.033066a205.943467 205.943467 0 0 0 57.480533-14.336l-5.358933-13.038934c-47.189333 18.944-94.276267 18.9952-141.277867 0.1536l-2.048 14.848c25.873067 9.949867 51.968 14.216533 78.353067 13.3632 2.389333 20.718933 2.9696 38.843733 1.706666 54.357334z m30.549334 26.9824c25.838933-7.202133 51.080533-24.5248 75.264-52.087467l3.9424-4.7104 27.136 22.784c-14.779733 16.9984-24.746667 27.886933-30.1568 32.426667-4.608 3.618133-8.789333 4.130133-12.373334 1.3824a406.101333 406.101333 0 0 1-15.138133-13.499734l-5.12 13.090134c4.778667 4.522667 9.045333 8.6528 12.817067 11.810133 8.123733 6.280533 15.872 6.912 23.569066 1.877333 8.4992-5.973333 24.098133-22.016 46.660267-48.2816l-38.434133-32.256 21.845333-26.043733 53.8112 45.1584c-15.189333 20.650667-26.811733 38.980267-34.423467 55.057067-3.925333 8.192-7.168 16.1792-9.8304 23.825066a137.693867 137.693867 0 0 1-65.928533-2.372266l-1.621333 14.677333a141.175467 141.175467 0 0 0 62.958933 3.362133c-1.7408 6.826667-2.747733 13.482667-3.089067 19.6096-0.375467 15.7184 2.730667 26.350933 9.335467 31.880534 7.048533 5.922133 21.213867-0.1024 42.496-17.8176l-5.461333-14.199467c-15.9232 14.1824-25.429333 20.104533-28.381867 17.885867-3.140267-2.628267-4.215467-9.949867-3.072-21.828267 0.512-5.700267 1.8432-12.0832 3.857067-18.944 21.896533-5.6832 44.8-16.418133 68.437333-31.863467l-6.5024-12.936533c-18.944 12.6976-37.597867 22.186667-55.978667 28.16 1.792-4.386133 3.7376-8.9088 6.075734-13.6192 6.656-13.6704 17.527467-30.754133 32.750933-51.131733l48.298667 40.5504 9.096533-10.837334-19.131733-16.042666 13.2608-1.1776a184.4736 184.4736 0 0 0-4.8128-33.450667l-13.0048 0.853333c2.8672 12.834133 4.266667 23.893333 4.232533 33.501867l-29.3376-24.6272c6.007467-7.7824 12.561067-15.9232 19.933867-24.712533l-11.605334-9.728c-7.099733 8.465067-13.653333 16.605867-19.933866 24.712533l-64.785067-54.3744-43.861333 52.241067c-21.9136 25.173333-43.810133 40.7552-65.962667 46.762666l2.184533 14.933334z m208.452266 175.9744c42.205867-1.211733 83.063467-24.405333 122.538667-69.888l28.7232 24.098133c-35.464533 41.6256-57.173333 66.2016-64.955733 73.557333-9.0624 7.6288-18.8416 7.168-29.047467-1.365333a371.848533 371.848533 0 0 1-14.813867-13.243733l-6.144 12.7488c6.485333 5.973333 10.922667 10.24 13.738667 12.5952 15.837867 13.312 30.3104 14.216533 43.008 2.935466 11.298133-10.2912 37.495467-39.918933 78.557867-88.866133l-39.850667-33.450667 26.589867-31.675733-11.605334-9.745067-26.589866 31.6928-24.951467-20.9408-9.216 10.990934 24.951467 20.923733c-36.437333 42.154667-74.24 63.624533-113.476267 63.863467l2.56 15.7696z m-37.8368-73.728a554.376533 554.376533 0 0 0 71.099734 31.863466l9.489066-11.298133a343.586133 343.586133 0 0 1-31.3344-12.373333l60.416-72.021334 22.613334 18.961067 9.079466-10.820267-56.644266-47.530666-9.079467 10.820266 22.596267 18.961067-63.061334 75.144533a544.6656 544.6656 0 0 1-28.535466-15.377066l-6.656 13.653333z" fill="#FFFFFF" p-id="18130"></path></svg>