<?xml version="1.0" standalone="no"?><!DOCTYPE svg PUBLIC "-//W3C//DTD SVG 1.1//EN" "http://www.w3.org/Graphics/SVG/1.1/DTD/svg11.dtd"><svg class="icon" width="200px" height="200.00px" viewBox="0 0 1024 1024" version="1.1" xmlns="http://www.w3.org/2000/svg"><path d="M786.71234375 573.38703125v-13.6771875c0-188.93671875-102.9965625-367.4109375-267.87375-466.948125-3.37921875-3.459375-10.29796875-3.459375-17.14078125 0-165.69984375 97.14515625-267.62484375 274.71234375-267.86953125 466.86375v13.6771875c-68.6390625 30.898125-109.83515625 99.61734375-109.83515625 171.635625 0 89.319375 61.79625 168.25640625 151.03546875 185.39296875 3.459375 0 10.29796875 0 13.6771875-3.37921875 3.459375-3.54375 6.92296875-10.29796875 6.92296875-13.7615625 0-23.979375 6.92296875-48.1190625 17.14078125-68.6390625a368.6175 368.6175 0 0 0 61.79625 82.39640625 25.70484375 25.70484375 0 0 0 13.7615625 6.83859375h236.89125V933.875c3.459375 0 10.29796875-3.37921875 17.14078125-6.92296875 20.60015625-20.51578125 48.03890625-61.71609375 65.25984375-85.775625 13.6771875 20.60015625 20.60015625 48.1190625 20.60015625 72.0984375 0 6.92296875 3.37921875 10.29796875 6.83859375 13.7615625 3.459375 3.37921875 10.29796875 3.37921875 13.7615625 3.37921875 85.775625-17.14078125 151.03546875-96.15796875 151.03546875-185.39296875 0.15609375-75.47765625-44.50359375-140.7375-113.14265625-171.635625zM512 571.7375c-59.32828125 0-107.36296875-48.1190625-107.36296875-107.36296875S452.75609375 356.9271875 512 356.9271875c59.32828125 0 107.36296875 48.1190625 107.36296875 107.36296875S571.32828125 571.7375 512 571.7375z"  /><path d="M512 399.8571875a37.6903125 37.6903125 0 0 0-4.36640625 0c-35.5978125 1.23609375-63.44578125 30.9825-62.2096875 66.57609375s30.9825 63.44578125 66.57609375 62.2096875c33.86390625-1.15171875 61.138125-28.34578125 62.2096875-62.2096875 1.23609375-35.5134375-26.611875-65.34-62.2096875-66.57609375z"  /></svg>
