<?xml version="1.0" standalone="no"?><!DOCTYPE svg PUBLIC "-//W3C//DTD SVG 1.1//EN" "http://www.w3.org/Graphics/SVG/1.1/DTD/svg11.dtd"><svg t="1617953626068" class="icon" viewBox="0 0 1024 1024" version="1.1" xmlns="http://www.w3.org/2000/svg" p-id="18254" xmlns:xlink="http://www.w3.org/1999/xlink" width="128" height="128"><defs><style type="text/css"></style></defs><path d="M17.066667 34.133333l972.8 802.133334V364.561067L589.175467 34.133333z" fill="#F75961" p-id="18255"></path><path d="M368.64 75.1616l15.1552-18.039467 108.885333 91.357867-14.4896 17.2544 10.973867 9.216 23.04-27.460267-59.460267-49.885866c2.645333-6.331733 4.9152-11.912533 6.656-17.152l-13.653333-7.970134a167.714133 167.714133 0 0 1-4.608 15.377067L381.371733 37.717333l-23.7056 28.245334 10.990934 9.216zM342.135467 230.4l26.7264-31.8464 35.293866 29.610667-7.3728 8.789333 10.973867 9.216 63.453867-75.6224-46.267734-38.843733 13.141334-15.684267-11.281067-9.472-13.1584 15.701333L367.786667 83.797333l-63.829334 76.0832 10.973867 9.216 7.765333-9.250133 34.816 29.218133-26.709333 31.8464 11.298133 9.489067z m94.276266-40.669867L401.066667 160.119467l15.138133-18.039467 35.310933 29.627733-15.138133 18.039467z m-46.592-39.099733l-34.833066-29.218133 15.138133-18.056534 34.816 29.2352-15.121067 18.039467z m-23.569066 28.074667l-34.816-29.218134 15.121066-18.039466 34.816 29.218133-15.121066 18.039467z m46.592 39.099733l-35.293867-29.610667 15.138133-18.039466 35.293867 29.610666-15.138133 18.039467z m94.72 90.709333c39.918933 14.250667 80.725333 12.117333 122.4704-5.768533l-5.0176-12.4928c-8.3968 3.6352-16.878933 6.417067-25.7024 8.635733-10.376533-7.3728-20.7872-15.035733-31.351467-22.8352 11.9808-0.904533 28.603733-5.410133 50.005333-13.397333l42.973867 36.078933 8.567467-10.205866-34.833067-29.218134c3.328-8.430933 5.853867-16.213333 7.714133-23.210666l-13.192533-7.850667a133.085867 133.085867 0 0 1-5.512533 21.845333l-39.2192-32.904533-8.5504 10.1888 30.429866 25.5488c-24.388267 8.669867-41.216 12.458667-50.909866 11.281067a19.968 19.968 0 0 1-2.986667-0.904534l-5.410133 11.229867c12.8 9.9328 25.088 19.182933 36.590933 27.767467-24.968533 3.6352-49.646933 0.853333-74.2912-8.328534l-1.774933 14.5408z m-51.7632 16.452267l67.003733-79.854933c-0.955733 10.7008-2.9696 24.234667-5.751467 40.618666l14.301867-4.3008c1.365333-17.5616 2.013867-33.621333 1.706667-48.554666l8.567466-10.1888 18.517334 15.530666 9.079466-10.820266-18.517333-15.530667 25.668267-30.600533-10.820267-9.079467-25.668267 30.583467-21.6576-18.158934-9.079466 10.820267 21.179733 17.7664c-22.084267 16.759467-45.6192 28.5696-70.4512 35.5328l-4.898133 15.394133a246.016 246.016 0 0 0 55.944533-26.845866l-65.9456 78.609066 10.820267 9.079467z m101.0688 83.456l15.0016-1.297067c0.443733-16.469333-0.989867-34.5088-3.857067-54.033066a205.943467 205.943467 0 0 0 57.480533-14.336l-5.358933-13.038934c-47.189333 18.944-94.293333 18.9952-141.294933 0.136534l-2.048 14.865066c25.890133 9.949867 51.985067 14.199467 78.370133 13.346134 2.389333 20.736 2.952533 38.843733 1.706667 54.3744z m28.3136 24.576c31.505067 12.8 58.5728 16.5376 81.373866 11.332267 11.810133-2.901333 23.552-8.311467 35.2256-16.162134-12.8512 32.529067-8.2432 70.365867 13.585067 113.800534l14.574933-4.608c-22.254933-40.072533-27.7504-74.632533-16.4864-103.662934l58.368 48.981334 9.079467-10.837334-64.802133-54.3744c6.638933-5.666133 13.192533-12.202667 19.8144-19.456l8.567466-10.205866 52.548267 44.100266 9.216-10.973866-52.565333-44.100267 23.04-27.477333-11.605334-9.728-23.04 27.460266-31.6928-26.589866c8.260267-3.7888 16.725333-8.157867 25.309867-13.2608l-7.099733-12.9024c-24.695467 15.086933-49.288533 23.057067-73.949867 23.7568l2.594133 16.349866c12.014933-0.6144 24.712533-3.328 38.126934-7.850666l37.495466 31.470933-8.5504 10.205867c-6.638933 7.2704-13.192533 13.789867-19.968 19.336533l-60.7232-50.944-9.079466 10.820267 58.368 48.981333a106.530133 106.530133 0 0 1-27.767467 13.312c-20.650667 4.864-46.728533 0.904533-78.045867-11.485867l-1.911466 14.711467zM873.130667 675.447467l15.069866-5.5296a152.7808 152.7808 0 0 1-6.280533-53.384534c26.7264-10.1888 51.8656-28.672 75.810133-55.637333l10.052267 8.430933 9.079467-10.820266-45.960534-38.570667c7.765333-5.768533 15.9232-12.288 24.285867-19.712l-9.949867-10.752c-26.3168 24.968533-51.712 40.277333-75.946666 45.8752l-0.512 13.994667a98.696533 98.696533 0 0 0 22.971733-6.656c-11.946667 21.265067-19.5584 42.427733-22.9376 63.658666a126.600533 126.600533 0 0 1-52.992 3.908267l-2.184533 15.018667a142.08 142.08 0 0 0 53.4528-3.805867 155.921067 155.921067 0 0 0 6.0416 53.981867z m-88.2688-141.431467l73.591466-87.7056 37.188267 31.214933-73.591467 87.688534 10.359467 8.704 82.397867-98.218667-57.890134-48.5888-82.397866 98.218667 10.3424 8.704z m-42.666667 30.7712c16.349867 4.096 31.402667 3.362133 45.294933-2.3552 14.267733-6.485333 29.047467-18.688 44.629334-36.625067l40.157866-47.837866-9.898666-8.2944-40.1408 47.837866c-12.680533 14.506667-25.019733 24.7296-36.864 30.549334-11.776 5.12-25.668267 5.751467-41.130667 1.877333l-2.048 14.848z m141.6704 35.720533c4.113067-22.749867 13.738667-45.687467 29.013333-68.676266 1.962667-1.041067 3.874133-2.389333 5.956267-3.584L947.2 552.106667c-19.968 22.528-41.233067 38.638933-63.351467 48.418133z m-87.739733 8.994134l15.1552-1.194667c1.1264-13.755733 0.836267-28.706133-0.733867-44.987733l-13.431467 1.024c1.2288 17.339733 0.938667 32.341333-0.989866 45.1584z" fill="#FFFFFF" p-id="18256"></path></svg>