<?xml version="1.0" standalone="no"?><!DOCTYPE svg PUBLIC "-//W3C//DTD SVG 1.1//EN" "http://www.w3.org/Graphics/SVG/1.1/DTD/svg11.dtd"><svg t="1588127975831" class="icon" viewBox="0 0 1445 1024" version="1.1" xmlns="http://www.w3.org/2000/svg" p-id="9348" xmlns:xlink="http://www.w3.org/1999/xlink" width="45.15625" height="32"><defs><style type="text/css"></style></defs><path d="M787.67713129 559.98440406c17.79785156-7.54663812 34.33065941-17.40525164 49.29306901-29.18324206a118.47785513 118.47785513 0 1 0 81.13726444-202.71229481 216.58414931 216.58414931 0 0 0-15.57312011-55.13844228 174.48874047 174.48874047 0 0 1 114.55185881 318.79092989c119.35029893 36.46814692 205.89671397 138.45681617 208.25231207 259.37751263L1225.64387075 882.78857422H178.71142577v-26.87126596c0-122.84007335 87.24437023-227.27158464 208.51404536-264.21957614A174.48874047 174.48874047 0 0 1 501.82095191 272.95042492a216.58414931 216.58414931 0 0 0-15.57312013 55.13844227H484.06672231a118.47785513 118.47785513 0 1 0 83.31837391 202.71229481c14.96240962 11.77798971 31.49521747 21.63660394 49.29306903 29.22686403a175.44842893 175.44842893 0 0 1-35.81381443 31.75695075 310.63358053 310.63358053 0 0 1 121.18243116 69.35927472 310.67720322 310.67720322 0 0 1 121.35691907-69.44651938 175.44842893 175.44842893 0 0 1-35.68294779-31.66970609z m-123.23267329 143.8659668c-44.88722882-44.71273949-109.22995141-72.71818252-180.50860232-72.71818325-125.32653809 0-228.88560558 86.37192645-243.4117933 197.95747667h375.80512564c4.79844011-45.89053853 21.81109255-88.55303591 48.11526998-125.23929342z m123.27629526 125.19567145h375.80512564l-0.6107105-4.49308559c-16.6636745-109.49168468-119.26305426-193.42076911-242.75746082-193.42076911-71.36589487 0-135.66499619 28.00544302-180.50860234 72.71818325 26.21693348 36.64263552 43.22958519 79.30513291 48.07164802 125.19567144z m-110.93121702-1e-8h50.51449076l-0.6107105-4.49308558a210.1280663 210.1280663 0 0 0-24.64653452-71.27865019 209.95357767 209.95357767 0 0 0-25.3008677 75.81535775z" p-id="9349"></path><path d="M702.17764791 577.43327768a218.11092631 218.11092631 0 1 0 0-436.2218519 218.11092631 218.11092631 0 0 0 0 436.2218519zM549.49999999 359.32235209a152.67764791 152.67764791 0 1 1 305.35529654 0 152.67764791 152.67764791 0 0 1-305.35529654 0z" p-id="9350"></path></svg>