<?xml version="1.0" standalone="no"?><!DOCTYPE svg PUBLIC "-//W3C//DTD SVG 1.1//EN" "http://www.w3.org/Graphics/SVG/1.1/DTD/svg11.dtd"><svg class="icon" width="200px" height="200.00px" viewBox="0 0 1024 1024" version="1.1" xmlns="http://www.w3.org/2000/svg"><path fill="#333333" d="M409.6 468.5c-1.1 1-2.2 2-3.4 3 1.6-0.5 3.2-1 4.8-1.4l-1.4-1.6zM409.6 468.5c-1.1 1-2.2 2-3.4 3 1.6-0.5 3.2-1 4.8-1.4l-1.4-1.6zM251.6 733.5c-0.5 1.2-0.9 2.4-1.3 3.6 0.4-1.2 0.8-2.4 1.3-3.6z m-5.1 14.4l2.4-7.2c-0.8 2.3-1.6 4.7-2.4 7.2zM236.3 792c0.3-2.4 0.7-4.8 1.1-7.1-0.3 2.4-0.7 4.7-1.1 7.1z m526.1-58.5c0.4 1.2 0.9 2.4 1.3 3.6-0.4-1.2-0.8-2.4-1.3-3.6z m2.7 7.1l2.4 7.2-2.4-7.2z m-15.9-36.3c1.1 2.1 2.2 4.2 3.2 6.4-1-2.2-2.1-4.3-3.2-6.4z m-3.4-6.3c1.2 2.1 2.3 4.2 3.4 6.3-1.1-2.1-2.3-4.2-3.4-6.3z m-13.3-21.3c1.4 2 2.7 4 4 6-1.3-2-2.6-4-4-6z m-6.3-8.7c1.4 1.9 2.9 3.9 4.2 5.8-1.4-2-2.8-3.9-4.2-5.8z m-13.5-16.6c1.5 1.7 3 3.5 4.5 5.3-1.5-1.8-3-3.6-4.5-5.3z m-415.9 5.2c1.5-1.8 3-3.5 4.5-5.3-1.5 1.8-3 3.6-4.5 5.3z m-13.2 17.2c1.4-2 2.8-3.9 4.2-5.8-1.4 1.9-2.8 3.8-4.2 5.8z m-6.1 8.9c1.3-2 2.6-4 4-6-1.4 2-2.7 4-4 6z m-12.7 21.6c1.1-2.1 2.2-4.2 3.4-6.3-1.1 2.1-2.3 4.2-3.4 6.3z m-3.2 6.3c1.1-2.1 2.1-4.3 3.2-6.4-1.1 2.2-2.2 4.3-3.2 6.4zM596.3 256.6l35.6 47.4c-8.3-18.3-20.6-34.5-35.6-47.4z m54.2-29.5c2 2.1 3.9 4.3 5.8 6.5-1.8-2.2-3.8-4.4-5.8-6.5z m7.8 8.9c2 2.4 3.9 4.9 5.8 7.4-1.8-2.5-3.8-5-5.8-7.4z m0 249.9c2-2.4 4-4.9 5.8-7.4-1.9 2.5-3.8 4.9-5.8 7.4z m-248.7-17.4c-1.1 1-2.2 2-3.4 3 1.6-0.5 3.2-1 4.8-1.4l-1.4-1.6zM411 470c-1.6 0.5-3.2 0.9-4.8 1.4 1.2-1 2.3-1.9 3.4-3l1.4 1.6zM839.3 820.6c0-1.4-0.1-2.8-0.2-4.3 0-0.5 0-1-0.1-1.5 0-0.9-0.1-1.7-0.1-2.6 0-0.6-0.1-1.1-0.1-1.6-0.1-1.3-0.2-2.5-0.3-3.8v-0.5c-0.1-1.5-0.2-3-0.4-4.5-0.1-1.1-0.2-2.2-0.3-3.2-0.2-2-0.4-4-0.6-6.1h114.4l-0.1-29.6c-0.3-71.5-28.4-138.6-79.1-189-25.1-25-54.3-44.4-86-57.6 35.2-29.6 57.6-74 57.6-123.4 0-88.9-72.4-161.3-161.3-161.3-8.9 0-17.7 0.7-26.3 2.1-1.9-2.2-3.8-4.4-5.8-6.5-1.6-1.7-3.2-3.4-4.9-5.1-35.6-35.6-84.7-57.6-138.9-57.6h-3.4c-0.7 0-1.4 0-2.1 0.1-0.8 0-1.7 0-2.5 0.1-1.2 0.1-2.3 0.1-3.5 0.2-0.7 0-1.5 0.1-2.2 0.1h-0.1c-0.9 0.1-1.8 0.1-2.7 0.2-0.6 0-1.1 0.1-1.7 0.1-0.6 0.1-1.2 0.1-1.8 0.2-0.6 0.1-1.3 0.1-1.9 0.2l-2.7 0.3-2.4 0.3c-2.6 0.4-5.2 0.8-7.7 1.2l-1.8 0.3c-2.2 0.4-4.5 0.9-6.7 1.4-0.7 0.2-1.4 0.3-2.1 0.5-2.7 0.6-5.4 1.3-8.1 2.1-0.4 0.1-0.9 0.2-1.3 0.4-0.8 0.2-1.6 0.5-2.4 0.7-0.4 0.1-0.9 0.3-1.3 0.4-0.7 0.2-1.4 0.5-2.1 0.7-0.8 0.2-1.5 0.5-2.3 0.8-0.4 0.1-0.9 0.3-1.3 0.4-0.5 0.2-1 0.3-1.5 0.5-1.5 0.5-3 1.1-4.5 1.7-0.5 0.2-1.1 0.4-1.6 0.6-1.3 0.5-2.7 1.1-4 1.6-0.8 0.3-1.6 0.7-2.4 1-0.8 0.4-1.6 0.7-2.4 1.1-0.8 0.4-1.6 0.7-2.3 1.1-2.4 1.1-4.7 2.3-7.1 3.5-0.8 0.4-1.5 0.8-2.3 1.2-3.3 1.7-6.5 3.6-9.6 5.5-1.2 0.8-2.5 1.5-3.7 2.3-1.4 0.9-2.8 1.8-4.1 2.7-0.7 0.4-1.3 0.9-2 1.3-0.6 0.4-1.3 0.9-1.9 1.4-2 1.4-3.9 2.9-5.9 4.3l-1.5 1.2c-0.9 0.7-1.7 1.4-2.6 2-0.4 0.4-0.9 0.7-1.3 1.1-1.8 1.5-3.6 3-5.4 4.6-0.6 0.5-1.2 1.1-1.8 1.6-0.6 0.5-1.2 1.1-1.7 1.6s-1.1 1-1.6 1.5c-0.6 0.6-1.2 1.2-1.9 1.8-0.5 0.5-1.1 1-1.6 1.6l-1.7 1.7c-0.5 0.6-1.1 1.1-1.6 1.7-0.5 0.6-1.1 1.1-1.6 1.7-1.6 1.8-3.2 3.5-4.8 5.3-5.7-0.6-11.5-0.9-17.2-0.9-88.9 0-161.3 72.3-161.3 161.3 0 49.6 22.5 94 57.8 123.6-31.6 13.2-60.7 32.6-85.7 57.5-50.7 50.4-78.8 117.6-79.1 189l-0.1 29.6h104.4c-0.2 2-0.4 4-0.6 6.1-0.1 1.1-0.2 2.2-0.3 3.2-0.1 1.5-0.3 3-0.4 4.5v0.5c-0.1 1.3-0.2 2.5-0.3 3.8 0 0.5-0.1 1.1-0.1 1.6-0.1 0.9-0.1 1.7-0.1 2.6 0 0.5 0 1-0.1 1.5-0.1 1.4-0.1 2.8-0.2 4.3-0.1 3.1-0.2 6.3-0.2 9.4l-0.1 29.6H840l-0.1-29.6c-0.4-3.2-0.5-6.3-0.6-9.4zM664.1 243.4c-1.9-2.5-3.8-5-5.8-7.4 2 2.4 4 4.9 5.8 7.4zM369.2 356.8c0-0.7 0.1-1.4 0.1-2 0-0.6 0.1-1.1 0.1-1.7 0.2-4.5 0.7-8.9 1.4-13.3 0.1-0.5 0.2-1 0.2-1.5l0.3-1.5c0.1-0.6 0.2-1.3 0.3-1.9 0.1-0.7 0.3-1.4 0.4-2 0.1-0.6 0.3-1.3 0.4-1.9 0.2-0.7 0.3-1.4 0.5-2.1 0.1-0.5 0.2-1 0.4-1.4 0.2-0.7 0.4-1.5 0.6-2.2 0.1-0.4 0.2-0.9 0.3-1.3 0.5-1.9 1.1-3.7 1.7-5.5 0.2-0.5 0.3-1.1 0.5-1.6s0.4-1.1 0.6-1.6c0.4-1.1 0.8-2.1 1.2-3.2 0.1-0.2 0.2-0.5 0.3-0.7 0.3-0.7 0.6-1.4 0.8-2.1 0.5-1.1 1-2.3 1.5-3.4 0.2-0.5 0.4-1 0.7-1.5 0.7-1.5 1.4-3.1 2.2-4.6 0.6-1.1 1.1-2.3 1.8-3.4 0.3-0.6 0.6-1.1 0.9-1.7 0.6-1.1 1.2-2.2 1.9-3.3 0.2-0.4 0.4-0.8 0.7-1.1 1.3-2.1 2.6-4.2 4-6.2 0.3-0.5 0.6-0.9 0.9-1.3 0.3-0.5 0.6-0.9 0.9-1.4 0.6-0.9 1.2-1.7 1.9-2.6l0.1-0.1c0.4-0.5 0.7-0.9 1.1-1.4l1.2-1.5c0.8-1 1.6-2 2.4-2.9 0.3-0.4 0.7-0.9 1.1-1.3 0.5-0.5 0.9-1.1 1.4-1.6l2.4-2.7 0.1-0.1c0.4-0.5 0.9-0.9 1.3-1.4 0.4-0.5 0.9-0.9 1.3-1.4l1.3-1.3c0.4-0.5 0.9-0.9 1.4-1.3 0.5-0.4 0.9-0.9 1.4-1.3 0.9-0.9 1.9-1.7 2.8-2.5 0.5-0.4 1-0.8 1.4-1.2 0.3-0.3 0.6-0.5 0.9-0.8 0.3-0.3 0.6-0.5 1-0.8 0.3-0.3 0.6-0.5 1-0.8l1.5-1.2c0.7-0.6 1.5-1.2 2.2-1.7 0.7-0.5 1.4-1 2.1-1.6 0.6-0.4 1.2-0.9 1.9-1.3l0.9-0.6c0.7-0.5 1.4-0.9 2-1.4 0.7-0.5 1.4-0.9 2.1-1.4 0.1-0.1 0.2-0.1 0.3-0.2 0.8-0.5 1.5-1 2.3-1.4 2.4-1.5 4.9-2.9 7.4-4.2 0.8-0.4 1.6-0.8 2.3-1.2 0.9-0.5 1.8-0.9 2.7-1.3 0.8-0.4 1.6-0.8 2.4-1.1h0.1c0.8-0.4 1.5-0.7 2.3-1 0.2-0.1 0.4-0.2 0.7-0.3 0.8-0.3 1.5-0.6 2.2-0.9l3-1.2c0.8-0.3 1.6-0.6 2.3-0.9 0.8-0.3 1.7-0.6 2.6-0.9 0.1 0 0.2-0.1 0.3-0.1 0.7-0.2 1.5-0.5 2.2-0.7 0.1 0 0.3-0.1 0.4-0.1 0.9-0.3 1.8-0.6 2.8-0.8h0.1c0.9-0.3 1.8-0.5 2.7-0.7 0.9-0.2 1.8-0.5 2.8-0.7h0.1c1.8-0.4 3.7-0.8 5.5-1.2 0.2 0 0.3-0.1 0.5-0.1 0.8-0.2 1.6-0.3 2.4-0.4 0.9-0.2 1.8-0.3 2.7-0.4h0.3c0.8-0.1 1.7-0.2 2.5-0.4 1.1-0.2 2.3-0.3 3.4-0.4 0.6-0.1 1.2-0.1 1.8-0.2 0.2 0 0.4 0 0.6-0.1 0.4 0 0.7-0.1 1.1-0.1 0.7-0.1 1.4-0.1 2.1-0.2h0.3c0.9-0.1 1.8-0.1 2.6-0.1h0.3c0.6 0 1.3-0.1 1.9-0.1h7.6c0.9 0 1.9 0.1 2.8 0.1 1.1 0 2.1 0.1 3.2 0.2 0.9 0.1 1.9 0.1 2.8 0.2 0.2 0 0.5 0 0.7 0.1 0.8 0.1 1.7 0.2 2.5 0.3 0.8 0.1 1.7 0.2 2.5 0.3 0.4 0 0.8 0.1 1.2 0.2l2.1 0.3c0.4 0.1 0.8 0.1 1.2 0.2h0.2c0.7 0.1 1.4 0.2 2.1 0.4 0.4 0.1 0.9 0.2 1.3 0.2 0.7 0.1 1.4 0.3 2.1 0.4 1 0.2 1.9 0.4 2.9 0.6 0.1 0 0.2 0.1 0.3 0.1 0.9 0.2 1.9 0.4 2.8 0.7 0.1 0 0.2 0 0.3 0.1 0.9 0.2 1.8 0.5 2.6 0.7 0.2 0.1 0.4 0.1 0.6 0.2 0.7 0.2 1.3 0.4 2 0.6 1.2 0.4 2.5 0.8 3.7 1.2 1.8 0.6 3.5 1.2 5.3 1.9 0.6 0.2 1.2 0.5 1.8 0.7 0.4 0.1 0.7 0.3 1.1 0.4 0.9 0.4 1.8 0.7 2.7 1.1 0.9 0.4 1.8 0.8 2.8 1.2 0.9 0.4 1.8 0.8 2.6 1.2h0.1l2.4 1.2c0.2 0.1 0.3 0.2 0.5 0.2 0.8 0.4 1.6 0.8 2.3 1.2l0.6 0.3 2.1 1.2c0.7 0.4 1.5 0.8 2.2 1.3 0.2 0.1 0.5 0.3 0.7 0.4 0.7 0.4 1.4 0.8 2.1 1.3 0 0 0.1 0 0.1 0.1 0.9 0.5 1.7 1.1 2.5 1.6s1.6 1.1 2.4 1.6c0.2 0.1 0.3 0.2 0.5 0.4 0.6 0.4 1.2 0.9 1.8 1.3 0.9 0.6 1.7 1.3 2.6 1.9 1.6 1.2 3.1 2.4 4.7 3.7 0.1 0 0.1 0.1 0.1 0.1l2.1 1.8c15.1 12.9 27.3 29.1 35.6 47.4 0.2 0.5 0.5 1.1 0.7 1.6 0.2 0.6 0.5 1.1 0.7 1.6 0.7 1.6 1.3 3.2 1.9 4.8 0.2 0.6 0.5 1.2 0.7 1.9 0.2 0.6 0.4 1.1 0.6 1.7 0.6 1.8 1.2 3.5 1.7 5.3 0.1 0.5 0.3 0.9 0.4 1.4 0.1 0.3 0.2 0.6 0.3 1 0.2 0.8 0.5 1.7 0.7 2.5l0.6 2.1c0.1 0.5 0.3 1.1 0.4 1.7 0.2 0.6 0.3 1.2 0.4 1.8 0.1 0.6 0.3 1.2 0.4 1.8 0.4 1.7 0.7 3.4 1 5.2 0.1 0.6 0.2 1.1 0.3 1.7 0.1 0.6 0.2 1.1 0.2 1.7 0.1 0.6 0.2 1.1 0.2 1.7 0.1 0.6 0.2 1.2 0.2 1.8 0.1 0.5 0.1 1.1 0.2 1.6v0.1c0.1 0.6 0.1 1.1 0.2 1.7l0.3 3.6c0 0.5 0.1 1.1 0.1 1.6s0 0.9 0.1 1.4v1.1c0 0.9 0 1.8 0.1 2.7v1.9c0 75.9-61.7 137.6-137.6 137.6-75.8 0-137.5-61.7-137.5-137.6-0.4-1.9-0.3-3.2-0.3-4.6zM411 470c-1.6 0.5-3.2 0.9-4.8 1.4 1.2-1 2.3-1.9 3.4-3l1.4 1.6zM230.7 646.5c-0.6 0.8-1.1 1.6-1.6 2.5-0.4 0.6-0.7 1.1-1.1 1.7-0.5 0.7-0.9 1.4-1.4 2.1-0.3 0.4-0.6 0.9-0.8 1.3-0.5 0.8-1 1.5-1.5 2.3-0.8 1.2-1.6 2.5-2.3 3.8-0.8 1.4-1.7 2.8-2.5 4.2-0.1 0.2-0.2 0.4-0.3 0.5-0.7 1.2-1.3 2.3-2 3.5-0.2 0.4-0.4 0.8-0.6 1.1l-1.5 2.7c-1.7 3.1-3.4 6.2-5 9.4-0.3 0.6-0.6 1.1-0.9 1.7-0.6 1.1-1.1 2.3-1.7 3.4-0.7 1.5-1.5 3-2.2 4.6-0.7 1.5-1.4 3-2.1 4.6-0.6 1.5-1.3 2.9-1.9 4.4l-0.3 0.6c-0.5 1.2-1.1 2.4-1.6 3.7-0.2 0.4-0.3 0.8-0.5 1.2-0.5 1.1-0.9 2.3-1.4 3.4-0.1 0.3-0.2 0.5-0.3 0.8-0.6 1.5-1.2 3-1.7 4.5-0.6 1.6-1.2 3.1-1.7 4.7-0.5 1.4-1 2.8-1.4 4.1-0.1 0.4-0.3 0.8-0.4 1.1-0.4 1.2-0.9 2.5-1.3 3.8-0.1 0.3-0.2 0.5-0.2 0.8-0.5 1.5-1 3-1.4 4.5h-55.4c6.5-44.5 27.1-85.5 59.5-117.8 6.7-6.6 13.7-12.8 21.1-18.4 7-8.2 14.4-16.1 22.1-23.8 26.6-26.5 56.3-49 88.6-67.1v-12.5c-48.9-7.6-86.5-50-86.5-101.1 0-50.2 36.3-92 84.1-100.7-0.1 0.1-0.1 0.2-0.1 0.4-0.2 0.5-0.4 1.1-0.6 1.6-0.2 0.7-0.5 1.4-0.7 2-0.2 0.7-0.5 1.3-0.7 2-1 3-1.9 6-2.8 9-0.2 0.8-0.4 1.5-0.6 2.3s-0.4 1.6-0.6 2.3l-0.6 2.4c-0.6 2.4-1.2 4.9-1.7 7.4-0.2 1.1-0.5 2.3-0.7 3.5-0.4 2-0.7 4.1-1 6.1l-0.3 2.1c-0.1 0.5-0.2 1-0.2 1.5-0.1 0.5-0.1 1-0.2 1.6-0.4 3-0.7 6-0.9 9-0.1 0.6-0.1 1.3-0.1 1.9-0.1 1.2-0.1 2.4-0.2 3.5 0 0.6-0.1 1.2-0.1 1.8-0.1 1.2-0.1 2.5-0.1 3.7v8.3c0 0.9 0 1.8 0.1 2.7v0.5c0 0.6 0.1 1.3 0.1 1.9 0 0.9 0.1 1.9 0.1 2.8 0 0.7 0.1 1.3 0.1 2 0.1 1 0.1 1.9 0.2 2.9 0 0.7 0.1 1.3 0.2 2 0.1 1 0.2 2.1 0.3 3.1 0.1 0.7 0.2 1.5 0.2 2.2l0.3 2.7 0.3 2.4c0.2 1.2 0.4 2.3 0.6 3.5 0.1 0.8 0.3 1.5 0.4 2.3 0.1 0.7 0.2 1.4 0.4 2 0.1 0.5 0.2 1.1 0.3 1.6 0.3 1.6 0.7 3.2 1 4.8 0.1 0.6 0.3 1.3 0.4 1.9l0.3 1.5c0.5 2.1 1.1 4.2 1.6 6.2 0.2 0.6 0.3 1.2 0.5 1.8 1.2 4.2 2.6 8.4 4.1 12.6 0.3 0.9 0.7 1.8 1 2.6 0.1 0.2 0.2 0.4 0.2 0.6 0.3 0.9 0.7 1.7 1 2.6 0.4 1 0.8 2 1.3 3.1l0.9 2.1c0.1 0.2 0.1 0.3 0.2 0.5 0.2 0.4 0.3 0.8 0.5 1.2 0.3 0.6 0.5 1.2 0.8 1.8 0.5 1 1 2.1 1.5 3.1 0.4 1 0.9 1.9 1.4 2.8 0.5 0.9 0.9 1.9 1.4 2.8l1.5 2.7c0.1 0.2 0.2 0.4 0.3 0.5 0.4 0.8 0.8 1.5 1.3 2.3 0.5 0.9 1 1.8 1.6 2.7s1.1 1.8 1.6 2.7c0.5 0.9 1 1.7 1.6 2.5 0.6 1 1.2 2 1.9 3 0.5 0.8 1.1 1.6 1.6 2.5 0.6 0.9 1.2 1.7 1.8 2.6 0.6 0.9 1.2 1.7 1.8 2.5v0.1c0.6 0.8 1.2 1.7 1.8 2.5 0.1 0.2 0.3 0.4 0.4 0.6 0.9 1.2 1.7 2.3 2.6 3.4 0.9 1.1 1.8 2.3 2.7 3.4 0.7 0.8 1.3 1.6 2 2.4 0.7 0.8 1.3 1.5 2 2.3 3.5 4 7.1 7.8 10.9 11.5 0.7 0.7 1.4 1.4 2.2 2.1 0.7 0.6 1.3 1.2 2 1.8 1 1 2.1 1.9 3.2 2.9 0.6 0.5 1.2 1.1 1.8 1.6 0.8 0.7 1.6 1.4 2.4 2 0.8 0.7 1.6 1.3 2.4 2 0.8 0.7 1.6 1.3 2.5 1.9 1.7 1.3 3.4 2.6 5.2 3.9l0.1 0.1c-44 16.3-84.4 42.1-118.7 76.2-1.2 1.2-2.4 2.4-3.5 3.6l-0.4 0.4c-1 1.1-2.1 2.1-3.1 3.2-0.2 0.2-0.4 0.4-0.6 0.7-0.8 0.8-1.6 1.7-2.3 2.5-1.4 1.6-2.9 3.1-4.3 4.7-1.1 1.3-2.3 2.6-3.4 3.9-1.1 1.2-2.1 2.4-3.1 3.6-0.1 0.2-0.3 0.3-0.4 0.5-0.9 1-1.7 2.1-2.5 3.1-0.4 0.5-0.8 1-1.2 1.4-1.9 2.3-3.7 4.6-5.5 7-0.2 0.2-0.4 0.5-0.6 0.7l-2.7 3.6c-0.9 1.2-1.8 2.5-2.7 3.8-0.1 0.2-0.3 0.4-0.4 0.5-0.9 1.3-1.9 2.6-2.8 4-0.9 1.2-1.6 2.3-2.4 3.5z m4.5 154.1c0.1-1.2 0.3-2.4 0.4-3.6 0-0.4 0.1-0.7 0.1-1.1 0.1-0.9 0.2-1.9 0.4-2.8 0-0.2 0.1-0.4 0.1-0.7 0-0.2 0.1-0.3 0.1-0.5 0.3-2.4 0.7-4.8 1.1-7.1 0.2-1 0.3-1.9 0.5-2.9 0.1-0.5 0.2-1 0.3-1.4 0.2-1.1 0.4-2.2 0.6-3.2 0.2-1.2 0.5-2.5 0.8-3.8 0.2-1.1 0.4-2.1 0.7-3.1 0.1-0.4 0.2-0.8 0.3-1.1 0.4-1.9 0.9-3.7 1.4-5.6 1.1-4.2 2.2-8.4 3.5-12.5 0.3-1.1 0.7-2.3 1.1-3.4l2.4-7.2c0.4-1.2 0.8-2.4 1.3-3.6 0.4-1.2 0.9-2.4 1.3-3.6 2.1-5.5 4.4-11 6.9-16.4 0.5-1.1 1-2.1 1.5-3.2s1-2.1 1.6-3.2c1.1-2.1 2.1-4.2 3.2-6.4 1.1-2.1 2.2-4.2 3.4-6.3 0.6-1 1.1-2 1.7-3l0.1-0.1c0.6-1 1.2-2.1 1.8-3.1 0.6-1 1.2-2 1.8-3.1 0.6-1 1.3-2 1.9-3 0.6-1 1.3-2 1.9-3 1.3-2 2.6-4 4-6l2.1-3c1.4-2 2.8-3.9 4.2-5.8 0.7-0.9 1.3-1.8 2-2.6 0.8-1 1.6-2.1 2.4-3.1 0.7-0.9 1.5-1.9 2.2-2.8l0.1-0.1c0.8-0.9 1.5-1.9 2.3-2.8 1.5-1.8 3-3.5 4.5-5.3 0.2-0.2 0.4-0.5 0.7-0.8 1.5-1.6 2.9-3.3 4.4-4.9 0.8-0.9 1.7-1.8 2.5-2.7 0.6-0.6 1.1-1.2 1.7-1.8 0.4-0.5 0.9-0.9 1.3-1.4l2.1-2.1c51.6-51.4 120.1-79.7 192.9-79.7s141.3 28.3 192.9 79.7l2.1 2.1c0.5 0.5 0.9 0.9 1.3 1.4 0.6 0.6 1.2 1.2 1.7 1.8 0.8 0.9 1.7 1.8 2.5 2.7 1.5 1.6 3 3.2 4.4 4.9 0.2 0.3 0.4 0.5 0.7 0.8 1.5 1.7 3 3.5 4.5 5.3 0.8 0.9 1.5 1.9 2.3 2.8l0.1 0.1c0.8 0.9 1.5 1.8 2.2 2.8 0.8 1 1.6 2 2.4 3.1 0.7 0.9 1.4 1.8 2 2.6 1.4 1.9 2.9 3.9 4.2 5.8l2.1 3c1.4 2 2.7 4 4 6 0.7 1 1.3 2 1.9 3 0.6 1 1.3 2 1.9 3 0.6 1 1.2 2 1.8 3.1 0.6 1 1.2 2.1 1.8 3.1 0 0.1 0.1 0.1 0.1 0.1 0.6 1 1.1 2 1.7 3 1.2 2.1 2.3 4.2 3.4 6.3 1.1 2.1 2.2 4.2 3.2 6.4 0.5 1.1 1.1 2.1 1.6 3.2s1 2.1 1.5 3.2c2.5 5.4 4.8 10.9 6.9 16.4 0.5 1.2 0.9 2.4 1.3 3.6 0.4 1.2 0.9 2.4 1.3 3.6 0.8 2.4 1.7 4.8 2.4 7.2 1.5 4.6 2.8 9.2 4 13.9 0.1 0.5 0.3 1 0.4 1.5 0.1 0.2 0.1 0.4 0.2 0.6 0.5 1.8 0.9 3.7 1.4 5.6 0.1 0.3 0.1 0.7 0.2 1 0.2 1.1 0.5 2.2 0.7 3.3 0.3 1.2 0.5 2.5 0.8 3.8 0.5 2.5 1 5 1.4 7.5 0.2 1.3 0.4 2.5 0.6 3.8 0.2 1.3 0.4 2.5 0.6 3.8 0 0.2 0.1 0.4 0.1 0.7 0.1 0.9 0.3 1.9 0.4 2.8 0.1 0.4 0.1 0.7 0.1 1.1 0.1 1.2 0.3 2.4 0.4 3.6H235.2zM823.4 729c-0.1-0.3-0.2-0.5-0.2-0.8-0.4-1.3-0.8-2.5-1.3-3.8-0.1-0.4-0.2-0.8-0.4-1.1-0.5-1.4-0.9-2.8-1.4-4.1-0.6-1.6-1.1-3.1-1.7-4.7-0.6-1.5-1.2-3-1.7-4.5-0.1-0.3-0.2-0.5-0.3-0.8-0.4-1.1-0.9-2.3-1.4-3.4-0.2-0.4-0.3-0.8-0.5-1.2-0.5-1.2-1-2.5-1.6-3.7l-0.3-0.6c-0.6-1.5-1.3-2.9-1.9-4.4-0.7-1.5-1.4-3.1-2.1-4.6-0.7-1.5-1.4-3-2.2-4.6-0.6-1.1-1.1-2.3-1.7-3.4-0.3-0.6-0.6-1.1-0.9-1.7-1.6-3.1-3.2-6.3-5-9.4l-1.5-2.7c-0.2-0.4-0.4-0.8-0.7-1.1-0.6-1.2-1.3-2.3-2-3.5-0.1-0.2-0.2-0.4-0.3-0.5-0.8-1.4-1.6-2.8-2.5-4.2-0.8-1.2-1.5-2.5-2.3-3.8-0.5-0.8-1-1.5-1.5-2.3-0.3-0.5-0.6-0.9-0.8-1.3-0.5-0.7-0.9-1.4-1.4-2.1-0.4-0.6-0.7-1.1-1.1-1.7-0.5-0.8-1.1-1.7-1.6-2.5-0.8-1.1-1.5-2.2-2.3-3.4-0.9-1.3-1.8-2.6-2.8-4-0.1-0.2-0.3-0.4-0.4-0.5-0.9-1.3-1.8-2.5-2.7-3.8l-2.7-3.6c-0.2-0.2-0.4-0.5-0.6-0.7-1.8-2.3-3.6-4.7-5.5-7-0.4-0.5-0.8-1-1.2-1.4-0.8-1-1.7-2.1-2.5-3.1-0.1-0.2-0.3-0.3-0.4-0.5-1-1.2-2.1-2.4-3.1-3.6-1.1-1.3-2.2-2.6-3.4-3.9-1.4-1.6-2.8-3.1-4.3-4.7-0.8-0.8-1.6-1.7-2.3-2.5-0.2-0.2-0.4-0.5-0.6-0.7-1-1.1-2-2.1-3.1-3.2-0.1-0.1-0.2-0.2-0.3-0.4-1.2-1.2-2.3-2.4-3.5-3.6-34.4-34.2-74.9-60-119.1-76.3 8.2-6 16-12.6 23.1-19.8 1.7-1.7 3.3-3.4 4.9-5.1 0.7-0.7 1.3-1.4 2-2.2 2-2.2 3.9-4.4 5.8-6.7 2-2.4 3.9-4.9 5.8-7.4 0.9-1.3 1.9-2.5 2.8-3.8 0.5-0.6 0.9-1.3 1.4-1.9 0.9-1.3 1.8-2.6 2.6-3.9 0.9-1.3 1.7-2.6 2.6-4 1.3-2 2.5-4 3.7-6.1 0.8-1.4 1.6-2.8 2.3-4.2 4.2-7.7 7.8-15.6 11-23.8 0.6-1.5 1.1-3 1.7-4.5 7.2-20.4 11.1-42.4 11.1-65.2s-3.9-44.8-11.1-65.2c-0.5-1.5-1.1-3-1.7-4.5 0-0.1-0.1-0.2-0.1-0.4 52.9 3.9 94.7 48.2 94.7 102 0 56.3-45.7 102.1-102 102.3v7.9c21.1 11.4 41 24.6 59.8 39.5 12.1 9.6 23.7 20 34.8 31 2.5 2.5 5 5.1 7.5 7.6 16.6 9.3 31.9 20.9 45.8 34.6 32.4 32.3 53 73.3 59.5 117.8h-65.4c-0.5-1.6-1-3.1-1.5-4.6zM237.5 784.9c-0.4 2.4-0.8 4.7-1.1 7.1 0.3-2.4 0.7-4.7 1.1-7.1zM248.9 740.6l-2.4 7.2 2.4-7.2zM251.6 733.5c-0.4 1.2-0.9 2.4-1.3 3.6 0.4-1.2 0.8-2.4 1.3-3.6zM631.9 304l-35.6-47.4c15 12.9 27.3 29.1 35.6 47.4zM664.1 243.4c-1.9-2.5-3.8-5-5.8-7.4 2 2.4 4 4.9 5.8 7.4zM763.8 737.1c-0.4-1.2-0.9-2.4-1.3-3.6 0.4 1.2 0.8 2.4 1.3 3.6zM767.5 747.9l-2.4-7.2c0.8 2.3 1.6 4.7 2.4 7.2z" /></svg>