<?xml version="1.0" encoding="UTF-8"?>
<svg width="24px" height="17px" viewBox="0 0 24 17" version="1.1" xmlns="http://www.w3.org/2000/svg" xmlns:xlink="http://www.w3.org/1999/xlink">
    <!-- Generator: Sketch 55.1 (78136) - https://sketchapp.com -->
    <title>社群运营</title>
    <desc>Created with Sketch.</desc>
    <g id="页面1" stroke="none" stroke-width="1" fill="none" fill-rule="evenodd">
        <g id="2-1导购行为统计" transform="translate(-640.000000, -20.000000)" fill="#FFFFFF" fill-rule="nonzero">
            <g id="1" transform="translate(-1.000000, 0.000000)">
                <g id="header" transform="translate(1.000000, 0.000000)">
                    <g id="组-1" transform="translate(223.000000, 0.000000)">
                        <g id="社群运营" transform="translate(399.000000, 20.000000)">
                            <g transform="translate(18.000000, 0.000000)">
                                <path d="M13.9608916,9.60084428 C14.3678373,9.42718033 14.7470611,9.20110336 15.0900813,8.93109505 C15.5807253,9.41639949 16.2553671,9.71605841 17,9.71605841 C18.5000335,9.71605841 19.7160635,8.50002741 19.7160635,7 C19.7160635,5.49997259 18.5000335,4.28396596 17,4.28396596 C16.9830237,4.28396596 16.9660837,4.28412171 16.9491815,4.28443185 C16.8857431,3.84174621 16.7643163,3.41777697 16.5928441,3.02046713 C16.7267232,3.00693257 16.862552,3 17,3 C19.2091407,3 21,4.79087093 21,7 C21,8.38829613 20.2927328,9.61140885 19.2188576,10.3286703 C21.9553427,11.164387 23.938927,13.5018878 23.9929385,16.2741658 L24,17 L10,17 L0,17 L0,16.3843496 C0,13.5677816 2.00021873,11.173908 4.77907322,10.3272873 C3.70635876,9.60983726 3,8.38740425 3,7 C3,4.79087093 4.79085931,3 7,3 C7.13744801,3 7.27327683,3.00693257 7.40715587,3.02046713 C7.23568367,3.41777697 7.11425689,3.84174621 7.05081851,4.28443185 C7.03391628,4.28412171 7.01697633,4.28396596 7,4.28396596 C5.4999665,4.28396596 4.28393648,5.49997259 4.28393648,7 C4.28393648,8.50002741 5.4999665,9.71605841 7,9.71605841 C7.74463023,9.71605841 8.41927576,9.41640167 8.90992544,8.93110033 C9.25294386,9.20110631 9.63216534,9.42718146 10.0391084,9.60084428 C9.80065357,9.879219 9.52461561,10.1244488 9.21885757,10.3286703 C10.2811948,10.6531058 11.2300633,11.2038735 11.9966194,11.9185458 C12.7640005,11.2031627 13.7143869,10.6516604 14.7790732,10.3272873 C14.4741389,10.123342 14.1988084,9.8785909 13.9608916,9.60084428 Z M11.1345372,12.8979391 C10.1063551,11.8726482 8.63144042,11.2313709 6.99699231,11.2313709 C4.1241486,11.2313709 1.74979731,13.2105894 1.41785262,15.7686525 L10.0321353,15.7686525 C10.1425144,14.7166199 10.5328263,13.7386853 11.1345372,12.8979391 Z M13.9614362,15.7686525 L22.576132,15.7686525 L22.5615643,15.6651755 C22.1797442,13.154738 19.8276237,11.2313709 16.9969923,11.2313709 C15.3609239,11.2313709 13.8865285,11.8732787 12.858968,12.8984444 C13.4599752,13.7384905 13.8503307,14.7159616 13.9614362,15.7686525 Z M11.4178526,15.7686525 L12.576132,15.7686525 L12.5615643,15.6651755 C12.4730577,15.0832916 12.2786988,14.5329478 11.9970642,14.0307846 C11.6986924,14.5627907 11.4982971,15.1487238 11.4178526,15.7686525 Z" id="形状结合"></path>
                                <path d="M12,10 C14.7614237,10 17,7.76142375 17,5 C17,2.23857625 14.7614237,0 12,0 C9.23857625,0 7,2.23857625 7,5 C7,7.76142375 9.23857625,10 12,10 Z M8.5,5 C8.5,3.06700338 10.0670034,1.5 12,1.5 C13.9329966,1.5 15.5,3.06700338 15.5,5 C15.5,6.93299662 13.9329966,8.5 12,8.5 C10.0670034,8.5 8.5,6.93299662 8.5,5 Z" id="路径"></path>
                            </g>
                        </g>
                    </g>
                </g>
            </g>
        </g>
    </g>
</svg>