<?xml version="1.0" standalone="no"?><!DOCTYPE svg PUBLIC "-//W3C//DTD SVG 1.1//EN" "http://www.w3.org/Graphics/SVG/1.1/DTD/svg11.dtd"><svg t="1588080852960" class="icon" viewBox="0 0 1445 1024" version="1.1" xmlns="http://www.w3.org/2000/svg" p-id="1540" xmlns:xlink="http://www.w3.org/1999/xlink" width="282.2265625" height="200"><defs><style type="text/css"></style></defs><path d="M840.884706 578.258824c24.576-10.420706 47.405176-24.033882 68.065882-40.297412a163.599059 163.599059 0 1 0 112.037647-279.913412 299.068235 299.068235 0 0 0-21.504-76.137412 240.941176 240.941176 0 0 1 158.177883 440.19953c164.803765 50.356706 284.310588 191.186824 287.563294 358.159058L1445.647059 1024H0v-37.104941c0-169.622588 120.470588-313.825882 287.924706-364.845177A240.941176 240.941176 0 0 1 446.162824 181.910588a299.068235 299.068235 0 0 0-21.504 76.137412H421.647059a163.599059 163.599059 0 1 0 115.049412 279.913412c20.660706 16.263529 43.489882 29.876706 68.065882 40.357647a242.266353 242.266353 0 0 1-49.453177 43.851294 428.935529 428.935529 0 0 1 167.333648 95.774118 428.995765 428.995765 0 0 1 167.574588-95.894589 242.266353 242.266353 0 0 1-49.272471-43.730823z m-170.164706 198.656c-61.982118-61.741176-150.829176-100.412235-249.253647-100.412236-173.056 0-316.054588 119.265882-336.112941 273.347765h518.927059c6.625882-63.367529 30.117647-122.277647 66.439529-172.935529z m170.224941 172.875294h518.927059l-0.843294-6.204236c-23.009882-151.190588-164.683294-267.083294-335.209412-267.083294-98.544941 0-187.331765 38.671059-249.253647 100.412236 36.201412 50.597647 59.693176 109.507765 66.379294 172.875294z m-153.178353 0h69.752471l-0.843294-6.204236a290.153412 290.153412 0 0 0-34.032941-98.42447 289.912471 289.912471 0 0 0-34.936471 104.688941z" p-id="1541"></path><path d="M722.823529 602.352941a301.176471 301.176471 0 1 0 0-602.352941 301.176471 301.176471 0 0 0 0 602.352941zM512 301.176471a210.823529 210.823529 0 1 1 421.647059 0 210.823529 210.823529 0 0 1-421.647059 0z" p-id="1542"></path></svg>