<?xml version="1.0" standalone="no"?><!DOCTYPE svg PUBLIC "-//W3C//DTD SVG 1.1//EN" "http://www.w3.org/Graphics/SVG/1.1/DTD/svg11.dtd"><svg t="1617953392705" class="icon" viewBox="0 0 1024 1024" version="1.1" xmlns="http://www.w3.org/2000/svg" p-id="17625" xmlns:xlink="http://www.w3.org/1999/xlink" width="128" height="128"><defs><style type="text/css"></style></defs><path d="M917.288421 88.198737H106.711579a67.449263 67.449263 0 0 0-67.368421 67.368421v658.970947c0 37.133474 30.234947 67.368421 67.368421 67.368421h810.576842c37.133474 0 67.368421-30.234947 67.368421-67.368421V155.567158c0-37.133474-30.234947-67.368421-67.368421-67.368421z m0 726.339368H106.711579V155.567158h810.576842v658.970947z" p-id="17626"></path><path d="M687.157895 441.290105l-236.624842-136.623158a50.661053 50.661053 0 0 0-50.526316 0 50.661053 50.661053 0 0 0-25.276632 43.762527v273.246315a50.526316 50.526316 0 0 0 75.776 43.762527l236.65179-136.623158A50.661053 50.661053 0 0 0 712.407579 485.052632c0-18.000842-9.674105-34.762105-25.249684-43.762527z m-245.059369 151.201684v-214.878315L628.197053 485.052632l-186.098527 107.439157z" p-id="17627"></path></svg>