<?xml version="1.0" standalone="no"?><!DOCTYPE svg PUBLIC "-//W3C//DTD SVG 1.1//EN" "http://www.w3.org/Graphics/SVG/1.1/DTD/svg11.dtd"><svg class="icon" width="200px" height="193.57px" viewBox="0 0 1058 1024" version="1.1" xmlns="http://www.w3.org/2000/svg"><path d="M670.72 817.152H353.28c-16.896 0-30.72 13.824-30.72 30.72s13.824 30.72 30.72 30.72h317.44c16.896 0 30.72-13.824 30.72-30.72s-13.824-30.72-30.72-30.72zM593.92 901.632H430.08c-16.896 0-30.72 13.824-30.72 30.72s13.824 30.72 30.72 30.72h163.84c16.896 0 30.72-13.824 30.72-30.72s-13.824-30.72-30.72-30.72zM290.304 232.448c6.144 6.656 14.336 10.24 23.04 10.24 7.168 0 14.336-2.56 20.48-7.68 12.8-11.264 13.824-30.72 2.56-43.52l-40.96-46.08c-11.264-12.8-30.72-13.824-43.52-2.56s-13.824 30.72-2.56 43.52l40.96 46.08zM191.488 359.936l-53.248-30.72c-14.848-8.704-33.28-3.584-41.984 11.264-8.704 14.848-3.584 33.28 11.264 41.984l53.248 30.72c4.608 2.56 10.24 4.096 15.36 4.096 10.752 0 20.992-5.632 26.624-15.36 8.704-14.848 3.584-33.792-11.264-41.984zM512 219.136c-158.208 0-286.72 128.512-286.72 286.72s128.512 286.72 286.72 286.72 286.72-128.512 286.72-286.72-128.512-286.72-286.72-286.72z m0 512c-124.416 0-225.28-100.864-225.28-225.28s100.864-225.28 225.28-225.28 225.28 100.864 225.28 225.28-100.864 225.28-225.28 225.28zM512 183.808c16.896 0 30.72-13.824 30.72-30.72v-61.44c0-16.896-13.824-30.72-30.72-30.72s-30.72 13.824-30.72 30.72v61.44c0 16.896 13.824 30.72 30.72 30.72zM690.176 235.008c5.632 5.12 13.312 7.68 20.48 7.68 8.704 0 16.896-3.584 23.04-10.24l40.96-46.08c11.264-12.8 10.24-32.256-2.56-43.52s-32.256-10.24-43.52 2.56l-40.96 46.08c-11.264 12.8-10.24 32.256 2.56 43.52zM927.744 339.968c-8.704-14.848-27.136-19.968-41.984-11.264l-53.248 30.72c-14.848 8.704-19.968 27.136-11.264 41.984 5.632 9.728 15.872 15.36 26.624 15.36 5.12 0 10.24-1.536 15.36-4.096l53.248-30.72c14.848-8.192 19.456-27.136 11.264-41.984z"  /></svg>
