<?xml version="1.0" standalone="no"?><!DOCTYPE svg PUBLIC "-//W3C//DTD SVG 1.1//EN" "http://www.w3.org/Graphics/SVG/1.1/DTD/svg11.dtd"><svg class="icon" width="200px" height="193.57px" viewBox="0 0 1058 1024" version="1.1" xmlns="http://www.w3.org/2000/svg"><path d="M540.92868267 811.04622933c-167.510016 0-303.81943467-140.689408-303.81943467-313.622528 0-172.93858133 136.30941867-313.63345067 303.81943467-313.63345066 167.53732267 0 303.84128 140.69486933 303.84128 313.63345066 0 172.93312-136.30395733 313.622528-303.84128 313.622528z m0-578.781184c-141.65060267 0-256.87927467 118.931456-256.87927467 265.158656 0 146.20535467 115.23413333 265.14773333 256.87927467 265.14773334 141.656064 0 256.90658133-118.94237867 256.90658133-265.14773334 0-146.22173867-115.25597867-265.158656-256.90658133-265.158656z m27.38858666-105.01597866c0 15.630336-12.271616 28.28424533-27.38858666 28.28424533-15.106048 0-27.38312533-19.37134933-27.38312534-35.012608v-45.744128c0-15.597568 12.27707733-28.2624 27.38312534-28.2624 15.11697067 0 27.38858667 12.664832 27.38858666 28.2624v52.47249067z m-218.03281066 52.81109333c7.88616533 9.19688533 7.07242667 23.216128-1.79131734 31.36443733a21.069824 21.069824 0 0 1-30.39232-1.82408533l-36.37794133-42.237952c-7.89162667-9.18596267-7.10519467-23.199744 1.785856-31.358976a21.02613333 21.02613333 0 0 1 30.36501333 1.82408533l36.41070934 42.23249067zM213.49444267 345.74609067c10.24 6.01838933 13.88270933 19.46965333 8.13192533 30.10833066-5.7344 10.66052267-18.75421867 14.52714667-29.0816 8.699904l-47.86312533-27.54696533c-6.70651733-3.85570133-10.91720533-11.11927467-11.026432-19.07643733-0.12561067-7.91893333 3.866624-15.32996267 10.45845333-19.38773334a20.97152 20.97152 0 0 1 21.528576-0.32768l47.85220267 27.53058134zM750.55104 178.09408c-7.95170133 9.08765867-7.28541867 23.13966933 1.51278933 31.37536a21.05344 21.05344 0 0 0 30.38685867-1.56740267l36.76023467-41.893888c7.98993067-9.06581333 7.29088-23.12874667-1.49640534-31.38082133a21.29373867 21.29373867 0 0 0-15.50472533-5.71255467 21.266432 21.266432 0 0 0-14.876672 7.27995734l-36.78208 41.89934933z m115.80757333 166.93111467a22.102016 22.102016 0 0 0-10.354688 13.26557866 23.03044267 23.03044267 0 0 0 1.75854934 16.88098134 21.84533333 21.84533333 0 0 0 12.845056 10.68782933 21.037056 21.037056 0 0 0 16.35669333-1.82408533l48.08704-27.07182934a22.12386133 22.12386133 0 0 0 10.32738133-13.24373333 22.872064 22.872064 0 0 0-1.753088-16.908288 21.78525867 21.78525867 0 0 0-12.83413333-10.67690667 21.05344 21.05344 0 0 0-16.367616 1.82408534l-48.06519467 27.066368z m-158.629888 562.80132266H420.63735467c-13.52226133-0.38229333-20.58922667-40.583168 0-47.86312533h287.08590933c15.66856533 0 15.20981333 47.86312533 0.00546133 47.86312533zM612.040704 1003.52H468.47863467c-19.99940267 0-15.106048-47.857664 0-47.857664h143.56206933c63.488 0 53.26984533 47.857664 0 47.857664z"  /></svg>
