<?xml version="1.0" standalone="no"?><!DOCTYPE svg PUBLIC "-//W3C//DTD SVG 1.1//EN" "http://www.w3.org/Graphics/SVG/1.1/DTD/svg11.dtd"><svg t="1571797180355" class="icon" viewBox="0 0 1024 1024" version="1.1" xmlns="http://www.w3.org/2000/svg" p-id="8018" xmlns:xlink="http://www.w3.org/1999/xlink" width="20" height="20"><defs><style type="text/css"></style></defs><path d="M668.5606199 355.63136232L464.87900387 558.12614564 376.53142719 470.26945786c-15.39154224-15.27969413-38.44467978-15.27969413-53.82379444 0-15.34183197 15.27348034-15.34183197 38.208556 0 53.46339498l115.32161175 114.62566799c7.68023666 7.64916773 19.16952272 11.47685851 26.85597316 11.4768585 7.69887801 0 19.21301921-3.82147698 26.92432479-11.4768585l230.52516163-229.23890839c15.38532845-15.27969413 15.38532845-38.21476978-1e-8-53.49446392-15.39154224-15.27969413-38.41982464-15.27969413-53.77408417 0.0062138z m0 0" fill="#707070" p-id="8019"></path><path d="M845.27441466 225.93105507l-307.35859712-126.08388514c-19.21301921-9.96690907-46.11248886-9.96690907-65.33793564 0l-307.39587984 126.08388514c-30.72094663 9.94205392-46.1000613 33.15674985-46.10006129 59.7144614v192.44709507c0 209.01925622 153.67308478 408.10267231 361.17617778 464.51140077a108.24411212 108.24411212 0 0 0 46.11248887 0c207.49687922-56.40872846 361.18239156-255.49214454 361.18239155-464.51140077V285.64551647c0.00621378-26.55771155-15.37911467-49.77240747-42.27858431-59.7144614z m-34.55485118 252.16155647c0 179.16202553-122.95213814 345.07005042-292.01055136 398.16683217-7.71751936 3.28709157-19.23166057 3.28709157-26.89946967 0-172.94202804-53.09678175-295.89416619-218.99859285-295.89416617-398.16683216V305.56690701c0-13.28506956 7.71751936-23.22712349 23.07177888-29.88208582l268.95120004-109.48686887a61.45432083 61.45432083 0 0 1 34.59213388 0l268.97605519 109.48686887c11.48928607 6.64874857 19.21301921 16.59701627 19.21301921 29.88208582v172.52570454z m0 1e-8" fill="#707070" p-id="8020"></path></svg>