<?xml version="1.0" standalone="no"?><!DOCTYPE svg PUBLIC "-//W3C//DTD SVG 1.1//EN" "http://www.w3.org/Graphics/SVG/1.1/DTD/svg11.dtd"><svg class="icon" width="200px" height="200.00px" viewBox="0 0 1024 1024" version="1.1" xmlns="http://www.w3.org/2000/svg"><path d="M1.728 512a510.272 510.272 0 1 0 1020.608 0A510.272 510.272 0 0 0 1.728 512z" fill="#C3E9FF" /><path d="M511.424 280.192c-154.624 0-280.064 102.208-280.064 227.072 0 69.696 37.824 134.08 104.896 177.344a168.064 168.064 0 0 1-75.136 82.176l-28.096 15.104 32.448 2.176a380.544 380.544 0 0 0 116.224-11.84 353.344 353.344 0 0 0 94.656-40.064c11.904 1.152 24.32 2.176 36.224 2.176 154.624 0 280.064-102.208 280.064-227.072-1.088-124.864-127.104-227.072-281.216-227.072z" fill="#006FD3" /><path d="M639.552 461.696c0 11.264-9.728 20.416-21.824 20.416H406.272c-12.032 0-21.824-9.152-21.824-20.416 0-11.264 9.792-20.416 21.824-20.416h211.52c12.032 0 21.76 9.152 21.76 20.416z m0 89.728c0-11.264-9.728-20.416-21.824-20.416H406.272c-12.032 0-21.824 9.152-21.824 20.416 0 11.264 9.792 20.352 21.824 20.352h211.52c12.032 0.064 21.76-9.088 21.76-20.352z" fill="#ffffff" /></svg>