<?xml version="1.0" standalone="no"?><!DOCTYPE svg PUBLIC "-//W3C//DTD SVG 1.1//EN" "http://www.w3.org/Graphics/SVG/1.1/DTD/svg11.dtd"><svg class="icon" width="200px" height="200.00px" viewBox="0 0 1024 1024" version="1.1" xmlns="http://www.w3.org/2000/svg"><path d="M733.22070313 546.54101563c-1.31835938 0-2.63671875 0.17578125-3.95507813 0.17578125l0-57.04101563 77.6953125 0c22.23632812 0 40.34179688-17.66601563 40.34179688-39.46289063 0-8.96484375-3.25195313-17.75390625-8.87695313-24.78515625-1.23046875-1.66992188-2.63671874-3.25195313-4.21875-4.65820312L525.27148438 154.19726562c-10.10742187-9.40429688-23.37890625-14.58984375-37.44140626-14.58984375-13.97460938 0-27.24609375 5.09765625-36.29882813 13.62304688L131.69726562 420.59375c-1.93359374 1.66992188-3.60351563 3.60351563-5.00976562 5.53710938-5.44921875 6.85546875-8.4375 15.29296875-8.4375 24.08203124 0 21.70898438 18.10546875 39.46289063 40.4296875 39.46289063l77.6953125 0 0 312.5390625c0 28.74023437 23.37890625 52.03125001 52.03125 52.03125l337.32421875 0c29.53125 23.5546875 66.796875 37.70507813 107.40234375 37.70507813 95.2734375 0 172.70507813-77.51953125 172.70507813-172.70507814S828.40625 546.54101563 733.22070313 546.54101563zM508.8359375 712.21484375c0 14.4140625-11.6015625 26.015625-26.015625 26.015625-14.4140625 0-26.015625-11.6015625-26.015625-26.015625l0-52.03125-78.046875 0c-14.4140625 0-26.015625-11.6015625-26.01562501-26.015625 0-14.4140625 11.6015625-26.015625 26.01562501-26.015625l78.046875 0 0-39.11132813-78.046875 0c-14.4140625 0-26.015625-11.6015625-26.01562501-26.015625s11.6015625-26.015625 26.01562501-26.015625l78.13476563 0-1e-8-2.19726562-76.9921875-76.9921875c-10.1953125-10.10742188-10.1953125-26.63085938 0-36.82617188 10.10742188-10.1953125 26.63085938-10.1953125 36.82617188 1e-8l66.26953125 66.26953124 66.26953125-66.18164062c10.10742188-10.1953125 26.63085938-10.1953125 36.82617188 0 10.1953125 10.10742188 10.1953125 26.63085938 0 36.82617187l-76.99218751 76.9921875 0 2.19726563 78.046875 0c14.4140625 0 26.015625 11.6015625 26.015625 26.015625 0 14.4140625-11.6015625 26.015625-26.015625 26.015625l0-0.08789063-78.046875 0 0 39.11132813 78.046875 0c4.30664063 0 8.26171875 1.14257813 11.86523438 2.98828125-11.77734375 14.58984375-21.09375 31.20117188-27.68554688 49.13085938l-62.31445312-1e-8 0 51.94335938z m224.38476562 134.73632813c-70.40039063 0-127.70507813-57.3046875-127.70507812-127.70507813s57.3046875-127.70507813 127.70507813-127.70507813S860.92578125 648.84570313 860.92578125 719.24609374s-57.3046875 127.70507813-127.70507813 127.70507814z"  /><path d="M798.08398438 711.77539063l-58.18359376-1e-8 0-65.65429687c0-8.26171875-6.6796875-15.02929688-15.02929687-15.02929688s-15.02929688 6.6796875-15.02929688 15.02929687l0 80.68359376c0 8.26171875 6.6796875 15.02929688 15.02929688 15.02929687l73.21289063 0c8.26171875 0 15.02929688-6.6796875 15.02929687-15.02929687 0-8.34960938-6.76757813-15.02929688-15.02929688-15.02929688z"  /></svg>
