<?xml version="1.0" standalone="no"?><!DOCTYPE svg PUBLIC "-//W3C//DTD SVG 1.1//EN" "http://www.w3.org/Graphics/SVG/1.1/DTD/svg11.dtd"><svg class="icon" width="200px" height="200.00px" viewBox="0 0 1024 1024" version="1.1" xmlns="http://www.w3.org/2000/svg"><path d="M802.176 962.80576h-185.79968c-14.592 0-26.368-11.84768-26.368-26.51136v-288.80896a24.0128 24.0128 0 0 0-23.97696-24.05376H464.13312c-13.21984 0-23.94112 10.77248-23.94112 24.05376v288.80896c0 14.65856-11.79648 26.51136-26.37312 26.51136H222.29504c-42.88 0-77.62432-34.93376-77.62432-78.01856v-259.77856a17.92 17.92 0 0 0-17.87904-17.95072h-48.89088c-45.63968 0-68.87424-55.11168-37.12512-88.03328l435.97824-452.26496a51.51744 51.51744 0 0 1 73.86112-0.39424l441.82016 448.50176c33.664 34.18112 9.5488 92.19584-38.29248 92.19584h-52.46976a19.25632 19.25632 0 0 0-19.22048 19.30752v255.79008c0 44.544-35.92192 80.64512-80.27648 80.64512z m-113.71008-66.54464h95.52384c17.81248 0 32.2304-14.4896 32.2304-32.36864v-290.31424c0-18.26816 14.72512-33.06496 32.91648-33.06496h61.75232c5.03296 0 7.59808-6.11328 4.03968-9.72288l-385.3056-391.14752a21.6576 21.6576 0 0 0-31.06304 0.16896l-386.26304 400.70144h65.70496c18.16576 0 32.896 14.7968 32.896 33.06496v290.31424c0 17.87904 14.45376 32.36864 32.24576 32.36864h98.5856c17.81248 0 32.2304-14.4896 32.2304-32.36864v-213.21728c0-51.80416 41.78432-93.79328 93.3632-93.79328h95.55456c51.57888 0 93.3632 41.98912 93.3632 93.79328v213.21728c0 17.87904 14.41792 32.36864 32.22528 32.36864z m0 0" /></svg>
