<?xml version="1.0" standalone="no"?><!DOCTYPE svg PUBLIC "-//W3C//DTD SVG 1.1//EN" "http://www.w3.org/Graphics/SVG/1.1/DTD/svg11.dtd"><svg t="1584518669180" class="icon" viewBox="0 0 1024 1024" version="1.1" xmlns="http://www.w3.org/2000/svg" p-id="8660" xmlns:xlink="http://www.w3.org/1999/xlink" width="32" height="32"><defs><style type="text/css"></style></defs><path d="M742.46826667 85.46986667H281.53173333c-30.03733333 0-54.61333333 24.576-54.61333333 54.61333333v771.14026667c0 30.03733333 24.576 54.61333333 54.61333333 54.61333333h461.48266667c30.03733333 0 54.61333333-24.576 54.61333333-54.61333333V140.0832c-0.54613333-30.03733333-24.576-54.61333333-55.15946666-54.61333333z m8.73813333 825.7536c0 4.9152-3.82293333 8.73813333-8.73813333 8.73813333H281.53173333c-4.9152 0-8.73813333-3.82293333-8.73813333-8.73813333v-68.26666667h478.95893333v68.26666667z m0-114.14186667H272.7936V140.0832c0-4.9152 3.82293333-8.73813333 8.73813333-8.73813333h461.48266667c4.9152 0 8.73813333 3.82293333 8.73813333 8.73813333v656.9984z" fill="#838384" p-id="8661"></path><path d="M652.35626667 426.25706667l-102.67306667 102.67306666-64.44373333-64.44373333c-8.73813333-8.73813333-23.48373333-8.73813333-32.22186667 0l-114.14186667 114.14186667c-8.73813333 8.73813333-8.73813333 23.48373333 0 32.22186666 4.36906667 4.36906667 10.37653333 6.5536 16.384 6.5536s11.4688-2.18453333 16.384-6.5536l97.75786667-97.75786666L533.84533333 577.536c8.73813333 8.73813333 23.48373333 8.73813333 32.22186667 0l119.05706667-119.05706667c8.73813333-8.73813333 8.73813333-23.48373333 0-32.22186666-9.28426667-9.28426667-23.48373333-9.28426667-32.768 0zM397.312 246.03306667h229.376c12.56106667 0 22.9376-10.37653333 22.9376-22.9376s-10.37653333-22.9376-22.9376-22.9376H397.312c-12.56106667 0-22.9376 10.37653333-22.9376 22.9376s10.37653333 22.9376 22.9376 22.9376z" fill="#838384" p-id="8662"></path></svg>