<?xml version="1.0" standalone="no"?><!DOCTYPE svg PUBLIC "-//W3C//DTD SVG 1.1//EN" "http://www.w3.org/Graphics/SVG/1.1/DTD/svg11.dtd"><svg t="1621480258107" class="icon" viewBox="0 0 1024 1024" version="1.1" xmlns="http://www.w3.org/2000/svg" p-id="14187" xmlns:xlink="http://www.w3.org/1999/xlink" width="200" height="200"><defs><style type="text/css"></style></defs><path d="M480.7 656.1c-7.5 0-15.1-2.9-20.9-8.6L333.3 520.9c-11.5-11.5-11.5-30.2 0-41.7 11.5-11.5 30.2-11.5 41.7 0l105.7 105.7L689 376.6c11.5-11.5 30.2-11.5 41.7 0 11.5 11.5 11.5 30.2 0 41.7L501.6 647.4c-5.8 5.8-13.3 8.7-20.9 8.7z" p-id="14188"></path><path d="M512 933.1l-7.5-2c-74.4-19.6-139.1-50.4-192.3-91.5-43-33.2-78.7-73.2-105.9-118.7-46.6-78-52.4-145.7-52.7-148.5l-0.1-1.2V259.5L507.7 88.7l362.8 170.6v312l-0.1 1.2c-0.2 2.8-6 70.5-52.7 148.5-27.2 45.5-62.9 85.5-105.9 118.7-53.3 41.1-118 71.9-192.3 91.5l-7.5 1.9zM212.5 568.7c0.9 7.8 8.2 62.7 45.9 124.5 23.5 38.7 54.3 72.7 91.4 101 44.9 34.3 99.5 60.5 162.3 77.9 62.8-17.4 117.4-43.6 162.3-77.9 37.1-28.3 67.8-62.3 91.4-101 37.6-61.8 45-116.6 45.9-124.5V296.8L508 154.1 212.5 296.6v272.1z" p-id="14189"></path></svg>