<?xml version="1.0" standalone="no"?><!DOCTYPE svg PUBLIC "-//W3C//DTD SVG 1.1//EN" "http://www.w3.org/Graphics/SVG/1.1/DTD/svg11.dtd"><svg class="icon" width="200px" height="200.00px" viewBox="0 0 1024 1024" version="1.1" xmlns="http://www.w3.org/2000/svg"><path d="M814.08 173.568H209.92c-59.392 0-107.52 48.128-107.52 107.52v461.824c0 59.392 48.128 107.52 107.52 107.52h604.16c59.392 0 107.52-48.128 107.52-107.52V281.088c0-59.392-48.128-107.52-107.52-107.52z m46.08 569.344c0 25.6-20.48 46.08-46.08 46.08H209.92c-25.6 0-46.08-20.48-46.08-46.08V281.088c0-25.6 20.48-46.08 46.08-46.08h604.16c25.6 0 46.08 20.48 46.08 46.08v461.824z"  /><path d="M337.408 562.688c69.12 0 125.44-56.32 125.44-125.44s-56.32-125.44-125.44-125.44-125.44 56.32-125.44 125.44 56.32 125.44 125.44 125.44z m0-189.44c35.328 0 64 28.672 64 64s-28.672 64-64 64-64-28.672-64-64 29.184-64 64-64zM647.168 564.224c-66.56 0-114.688 42.496-157.696 80.384-33.792 29.696-65.536 57.856-98.816 57.856-82.432 0-146.432-83.456-146.944-84.48-10.24-13.312-29.184-16.384-43.008-6.144s-16.384 29.184-6.144 43.008c3.584 4.608 82.944 109.056 196.096 109.056 56.832 0 98.816-37.376 139.776-73.216 37.888-33.28 73.216-65.024 116.736-65.024 60.416 0 115.2 70.144 131.584 97.28 8.704 14.848 27.648 19.456 41.984 10.752 14.848-8.704 19.456-27.648 10.752-41.984-3.072-5.12-76.288-127.488-184.32-127.488z"  /></svg>
