<?xml version="1.0" standalone="no"?><!DOCTYPE svg PUBLIC "-//W3C//DTD SVG 1.1//EN" "http://www.w3.org/Graphics/SVG/1.1/DTD/svg11.dtd"><svg class="icon" width="200px" height="193.57px" viewBox="0 0 1058 1024" version="1.1" xmlns="http://www.w3.org/2000/svg"><path d="M466.432 863.744c-168.96 0-306.688-137.728-306.688-306.688 0-154.624 115.2-282.624 264.192-303.616V195.584C243.2 216.576 102.4 370.688 102.4 557.568c0 200.704 163.328 364.032 364.032 364.032 186.368 0 340.992-140.8 361.984-322.048h-58.368c-20.48 148.992-148.48 264.192-303.616 264.192z"  /><path d="M511.488 102.4c-15.872 0-28.672 12.8-28.672 28.672v381.44c0 15.872 12.8 28.672 28.672 28.672h381.44c15.872 0 28.672-12.8 28.672-28.672C921.6 286.72 737.28 102.4 511.488 102.4z m28.672 381.44v-322.56c171.52 13.824 308.224 151.04 322.56 322.56h-322.56z"  /></svg>
