<?xml version="1.0" standalone="no"?><!DOCTYPE svg PUBLIC "-//W3C//DTD SVG 1.1//EN" "http://www.w3.org/Graphics/SVG/1.1/DTD/svg11.dtd"><svg class="icon" width="200px" height="200.00px" viewBox="0 0 1024 1024" version="1.1" xmlns="http://www.w3.org/2000/svg"><path fill="#333333" d="M878.2 376c-21.7-51.6-52.9-97.9-92.6-137.6s-86-70.9-137.6-92.6c-53.1-22.4-109.4-33.7-167.4-33.7h-12.1l-9.9 8.7-8.5 9.9v45.6c-38.9 3.2-76.8 12.5-112.9 27.7-43.9 18.6-83.3 45.1-117.1 78.9-33.8 33.8-60.4 73.2-78.9 117.1-19.2 45.4-29 93.7-29 143.4s9.8 98 29 143.4c18.6 43.9 45.1 83.3 78.9 117.1 33.8 33.8 73.2 60.4 117.1 78.9 45.4 19.2 93.7 29 143.4 29s98-9.7 143.4-29c43.9-18.6 83.3-45.1 117.1-78.9 33.8-33.8 60.4-73.2 78.9-117.1 15.3-36.1 24.6-73.9 27.7-112.9H894l17.8-16.7v-12.7c0.2-58.4-11.1-115.1-33.6-168.5zM699.3 762.3c-58.4 58.4-136.1 90.6-218.8 90.6-82.7 0-160.4-32.2-218.8-90.6-58.4-58.4-90.6-136.1-90.6-218.8 0-82.6 32.2-160.3 90.6-218.8 51.2-51.2 117.1-82.2 188.2-89.1V516c0 32 26.1 58.1 58.1 58.1h280.4c-6.9 71-37.9 137-89.1 188.2zM509 515V172.2c40.1 3 79 12.4 116.1 28 44.5 18.8 84.5 45.7 118.8 80s61.2 74.3 80 118.8c15.6 37.1 25 76 28 116.1H509z" /></svg>