<?xml version="1.0" standalone="no"?><!DOCTYPE svg PUBLIC "-//W3C//DTD SVG 1.1//EN" "http://www.w3.org/Graphics/SVG/1.1/DTD/svg11.dtd"><svg class="icon" width="200px" height="200.00px" viewBox="0 0 1024 1024" version="1.1" xmlns="http://www.w3.org/2000/svg"><path fill="#333333" d="M824.1 131H199.9c-59.4 0-107.5 48.1-107.5 107.5v395.6c0 59.4 48.1 107.5 107.5 107.5H472v81.9H323.6c-16.9 0-30.7 13.8-30.7 30.7s13.8 30.7 30.7 30.7H682c16.9 0 30.7-13.8 30.7-30.7s-13.8-30.7-30.7-30.7H533.5V710.9c0-16.9-13.8-30.7-30.7-30.7H199.9c-25.6 0-46.1-20.5-46.1-46.1V238.5c0-25.6 20.5-46.1 46.1-46.1h624.2c25.6 0 46.1 20.5 46.1 46.1v395.6c0 25.6-20.5 46.1-46.1 46.1h-202c-16.9 0-30.7 13.8-30.7 30.7s13.8 30.7 30.7 30.7h202c59.4 0 107.5-48.1 107.5-107.5V238.5c0-59.4-48.1-107.5-107.5-107.5zM270.3 377.6v187.9c0 16.9 13.8 30.7 30.7 30.7s30.7-13.8 30.7-30.7V377.6c0-16.9-13.8-30.7-30.7-30.7s-30.7 13.8-30.7 30.7z m211 53.8v134.1c0 16.9 13.8 30.7 30.7 30.7s30.7-13.8 30.7-30.7V431.4c0-16.9-13.8-30.7-30.7-30.7-16.9-0.1-30.7 13.3-30.7 30.7z m272.4 134.1V315.1c0-16.9-13.8-30.7-30.7-30.7s-30.7 13.8-30.7 30.7v250.4c0 16.9 13.8 30.7 30.7 30.7s30.7-13.8 30.7-30.7z" /></svg>