<?xml version="1.0" standalone="no"?><!DOCTYPE svg PUBLIC "-//W3C//DTD SVG 1.1//EN" "http://www.w3.org/Graphics/SVG/1.1/DTD/svg11.dtd"><svg class="icon" width="200px" height="200.00px" viewBox="0 0 1024 1024" version="1.1" xmlns="http://www.w3.org/2000/svg"><path d="M253.297 671.375c-8.397 0.901-16.22-2.252-23.757-7.475a41.042 41.042 0 0 1-10.568-57.323l129.352-184.484a41.042 41.042 0 0 1 57.323-10.568c18.842 13.005 23.552 38.482 10.548 57.344L286.863 653.353c-8.09 13.332-19.067 18.002-33.566 18.022z m351.805-45.69c-8.397 0.9-16.22-2.253-23.757-7.476a41.042 41.042 0 0 1-10.567-57.323l129.33-184.484a41.042 41.042 0 0 1 57.345-10.568c18.841 12.985 23.552 38.462 10.547 57.344L638.669 607.662c-8.09 13.333-19.088 18.002-33.567 18.022z"  /><path d="M603.075 625.418c-8.397 0.88-14.193-2.007-21.73-7.209L362.926 479.97c-18.842-12.984-25.866-36.72-12.861-55.562 12.984-18.862 36.72-25.866 55.582-12.882l220.427 138.527c18.841 12.984 25.866 36.72 12.861 55.583-8.07 13.332-21.381 19.742-35.84 19.783z"  /><path d="M812.093 962.929l-626.77 0.84c-68.341 0.737-122.634-54.457-123.371-122.799l1.413-657.47c-0.737-68.361 54.456-122.633 122.798-123.37l626.77-0.84c68.342-0.738 122.634 54.456 123.372 122.798l0.9 655.728c-1.576 70.103-56.77 124.375-125.132 125.133z m-627.18-820.265c-20.848 1.228-39.935 19.21-41.041 41.8l0.922 655.728c0.921 22.876 18.923 41.964 41.779 41.042l626.77-0.84c22.876-0.921 41.963-18.923 41.042-41.8l-0.922-655.728c0.82-20.562-17.162-39.65-39.772-40.755l-628.757 0.553z"  /></svg>
