<?xml version="1.0" standalone="no"?><!DOCTYPE svg PUBLIC "-//W3C//DTD SVG 1.1//EN" "http://www.w3.org/Graphics/SVG/1.1/DTD/svg11.dtd"><svg class="icon" width="200px" height="200.00px" viewBox="0 0 1024 1024" version="1.1" xmlns="http://www.w3.org/2000/svg"><path fill="#333333" d="M354.3 467.4c-7.8 0-15.3-3.1-20.8-8.6-5.6-5.5-8.7-13.1-8.7-20.9V290.2c0-16.3 13.2-29.5 29.5-29.5h347.6c16.3 0 29.5 13.2 29.5 29.5v146.3c0 16.2-13.1 29.4-29.4 29.5l-347.6 1.4h-0.1z m29.5-147.7v88.6l288.6-1.2v-87.4H383.8zM760.3 95.2H309c-55.2 0-100.2 43.7-100.2 97.4V683H193c-16.3 0-29.5 13.2-29.5 29.5v93.4c0 30.6 11.3 60 31.9 82.6 19.1 21 44.6 34.6 72.3 38.9 2.9 0.9 5.9 1.4 9.1 1.4h424.6c2.1 0 4.2-0.2 6.2-0.7h52.8c55.2 0 100.2-43.7 100.2-97.4V192.6c-0.1-53.7-45-97.4-100.3-97.4zM282.1 869.8c-0.8-0.1-1.6-0.3-2.4-0.3-32.7-3.3-57.3-30.7-57.3-63.6V742h389.4v63.9c0 23 6.5 45 18 63.9H282.1z m519.4-39.1c0 21.2-18.5 38.4-41.2 38.4h-43.8c-2.5-2-5.2-3.7-8.2-5.1-22.7-10.4-37.4-33.2-37.4-58.2v-93.4c0-16.3-13.2-29.5-29.5-29.5H267.8V192.6c0-21.2 18.5-38.4 41.2-38.4h451.3c22.7 0 41.2 17.2 41.2 38.4v638.1zM354.9 611.8c-16.2 0-29.4-13.1-29.5-29.4-0.1-16.3 13.1-29.6 29.4-29.6l347.6-1.7h0.1c16.2 0 29.4 13.1 29.5 29.4 0.1 16.3-13.1 29.6-29.4 29.6L355 611.8h-0.1z" /></svg>