<?xml version="1.0" standalone="no"?><!DOCTYPE svg PUBLIC "-//W3C//DTD SVG 1.1//EN" "http://www.w3.org/Graphics/SVG/1.1/DTD/svg11.dtd"><svg class="icon" width="200px" height="200.00px" viewBox="0 0 1024 1024" version="1.1" xmlns="http://www.w3.org/2000/svg"><path d="M598.88 402.56c0.48 1.92 0.96 3.36 1.44 4.8v0.48c0.48 1.44 1.44 3.36 2.4 4.8v0.48c0.96 1.44 2.4 2.88 3.84 4.32 1.44 1.44 2.88 2.4 4.32 3.84h0.48c1.44 0.96 2.88 1.92 4.8 2.4h0.48c1.44 0.48 3.36 0.96 4.8 1.44h0.48c1.92 0.48 3.36 0.48 5.28 0.48h240c15.84 0 28.8-12.96 28.8-28.8s-12.96-28.8-28.8-28.8h-170.4l191.04-191.04c11.04-11.04 11.04-29.28 0-40.8-11.04-11.04-29.28-11.04-40.8 0L656 327.2V156.8c0-15.84-12.96-28.8-28.8-28.8s-28.8 12.96-28.8 28.8v240c0 1.92 0 3.36 0.48 5.76 0-0.48 0-0.48 0 0zM696.8 656H867.2c15.84 0 28.8-12.96 28.8-28.8s-12.96-28.8-28.8-28.8h-240c-1.92 0-3.36 0-5.28 0.48h-0.48c-1.92 0.48-3.36 0.96-4.8 1.44h-0.48c-1.44 0.48-3.36 1.44-4.8 2.4h-0.48c-1.44 0.96-2.88 2.4-4.32 3.84-1.44 1.44-2.4 2.88-3.84 4.32v0.48c-0.96 1.44-1.92 2.88-2.4 4.8v0.48c-0.48 1.44-0.96 3.36-1.44 4.8v0.48c-0.48 1.92-0.48 3.36-0.48 5.28v240c0 15.84 12.96 28.8 28.8 28.8s28.8-12.96 28.8-28.8v-170.4l191.04 191.04c5.76 5.76 12.96 8.64 20.16 8.64s14.88-2.88 20.16-8.64c11.04-11.04 11.04-29.28 0-40.8L696.8 656zM425.6 156.8c0-15.84-12.96-28.8-28.8-28.8s-28.8 12.96-28.8 28.8v170.4L176.96 136.64c-11.04-11.04-29.28-11.04-40.8 0-11.04 11.04-11.04 29.28 0 40.8L327.2 368H156.8c-15.84 0-28.8 12.96-28.8 28.8s12.96 28.8 28.8 28.8h240c1.92 0 3.36 0 5.28-0.48h0.48c1.92-0.48 3.36-0.96 4.8-1.44h0.48c1.44-0.48 3.36-1.44 4.8-2.4h0.48c1.44-0.96 2.88-2.4 4.32-3.84 1.44-1.44 2.4-2.88 3.84-4.32v-0.48c0.96-1.44 1.92-2.88 2.4-4.8v-0.48c0.48-1.44 0.96-3.36 1.44-4.8v-0.48c0.48-1.92 0.48-3.36 0.48-5.28V156.8zM425.6 627.2c0-1.92 0-3.36-0.48-5.28v-0.48c-0.48-1.92-0.96-3.36-1.44-4.8v-0.48c-0.48-1.44-1.44-3.36-2.4-4.8v-0.48c-0.96-1.44-2.4-2.88-3.84-4.32-1.44-1.44-2.88-2.4-4.32-3.84h-0.48c-1.44-0.96-2.88-1.92-4.8-2.4h-0.48c-1.44-0.48-3.36-0.96-4.8-1.44h-0.48c-1.92-0.48-3.36-0.48-5.28-0.48H156.8c-15.84 0-28.8 12.96-28.8 28.8s12.96 28.8 28.8 28.8h170.4l-191.04 191.04c-11.04 11.04-11.04 29.28 0 40.8 5.76 5.76 12.96 8.64 20.16 8.64s14.88-2.88 20.16-8.64L368 696.8V867.2c0 15.84 12.96 28.8 28.8 28.8s28.8-12.96 28.8-28.8v-240z"  /></svg>
