<?xml version="1.0" standalone="no"?><!DOCTYPE svg PUBLIC "-//W3C//DTD SVG 1.1//EN" "http://www.w3.org/Graphics/SVG/1.1/DTD/svg11.dtd"><svg class="icon" width="200px" height="200.00px" viewBox="0 0 1024 1024" version="1.1" xmlns="http://www.w3.org/2000/svg"><path d="M94.1264 382.88c0.0096 17.8224 14.3856 32.28 32.088 32.2704l250.8912-0.1584c23.4096-0.0144 37.704-12.1632 37.6896-37.9968l-0.1584-252.6144c-0.0096-17.8224-14.3856-32.28-32.088-32.2704-17.7024 0.0096-32.0592 14.4864-32.0448 32.3088l0.1104 182.2944-204.0096-205.2192a30.624 30.624 0 0 0-43.4832 0.024c-11.9856 12.1488-11.976 31.7136 0.0288 43.7808l204.072 205.1568-181.0464 0.1152c-17.7024 0.0144-32.0592 14.4864-32.0496 32.3088zM647.0768 415.2656l250.8912-0.4032c17.7024-0.0288 32.0448-14.5152 32.016-32.3376-0.0288-17.8224-14.4144-32.2656-32.112-32.2368l-181.0512 0.2928 203.616-205.6128c11.9712-12.096 11.9424-31.6608-0.072-43.7808a30.624 30.624 0 0 0-43.488 0.072l-203.5488 205.68-0.2976-182.2944c-0.0288-17.8224-14.4192-32.2656-32.112-32.232-17.7024 0.0288-32.0448 14.5152-32.016 32.3376l0.4032 252.6144c0.0336 25.8192 14.2896 37.9344 37.7712 37.9008zM377.2496 608.984l-250.8912-0.3936c-17.7024-0.0288-32.088 14.4192-32.1168 32.2416-0.024 17.8224 14.3136 32.304 32.016 32.3328l181.0464 0.2832-204.2592 204.9648c-12.0096 12.0576-12.0384 31.6224-0.0672 43.7808a30.6192 30.6192 0 0 0 43.4832 0.0672l204.1968-205.032-0.2832 182.2992c-0.024 17.8272 14.3184 32.3136 32.016 32.3328 17.7024 0.0288 32.088-14.4096 32.1168-32.232l0.3888-252.6192c0.048-25.8288-14.2368-37.9872-37.6464-38.0256zM716.4896 673.4576l181.0512-0.3168c17.7024-0.0288 32.0448-14.5152 32.0112-32.3376s-14.424-32.2656-32.1216-32.232l-250.896 0.4416c-23.4672 0.048-37.6944 12.216-37.6416 38.0448l0.4416 252.624c0.0384 17.8224 14.4288 32.2608 32.1264 32.2224 17.7024-0.0288 32.0448-14.5104 32.0064-32.3424l-0.3168-182.2896 204.2448 204.9792a30.6048 30.6048 0 0 0 43.4832-0.0864c11.9712-12.1584 11.9328-31.7232-0.0768-43.7808l-204.312-204.9264z"  /></svg>
