<?xml version="1.0" standalone="no"?><!DOCTYPE svg PUBLIC "-//W3C//DTD SVG 1.1//EN" "http://www.w3.org/Graphics/SVG/1.1/DTD/svg11.dtd"><svg t="1637640033002" class="icon" viewBox="0 0 1024 1024" version="1.1" xmlns="http://www.w3.org/2000/svg" p-id="36569" xmlns:xlink="http://www.w3.org/1999/xlink" width="32" height="32"><defs><style type="text/css"></style></defs><path d="M786.61425807 129.87353541c13.38134791 0 24.52148438 9.68994141 26.76269505 22.41210912l0.46142553 4.87792994v736.56738231L529.60009766 691.95605469a27.22412135 27.22412135 0 0 0-27.42187526-2.50488307l-4.21874974 2.50488307L213.72119166 893.66503906V157.16357447c0-13.38134791 9.68994141-24.52148438 22.41210912-26.82861353L241.01123072 129.87353541h545.60302735z m-23.59863332 50.75683543H264.47802709V795.44726537l203.95019582-144.8876948c24.85107447-17.73193385 57.54638672-19.18212891 83.58398387-4.48242213l6.92138672 4.41650365L763.01562475 795.44726537V180.63037084z m-76.20117163 328.27148438v50.42724609h-346.06933593v-50.49316381h346.06933594z m0-159.52148387v50.42724609h-346.06933593v-50.49316457h346.06933594z" p-id="36570"></path></svg>