<?xml version="1.0" encoding="UTF-8"?>
<svg width="16px" height="16px" viewBox="0 0 16 16" version="1.1" xmlns="http://www.w3.org/2000/svg" xmlns:xlink="http://www.w3.org/1999/xlink">
    <!-- Generator: Sketch 63.1 (92452) - https://sketch.com -->
    <title>拓客</title>
    <desc>Created with Sketch.</desc>
    <g id="拓客" stroke="none" stroke-width="1" fill="none" fill-rule="evenodd">
        <g id="编组">
            <rect id="矩形" fill="#ffffff" opacity="0" x="0" y="0" width="16" height="16"></rect>
            <path d="M13.0012694,3.45349181 C14.4026621,4.85488452 14.6127598,6.85692503 13.0710561,8.39862875 L9.50699027,4.83456294 C9.39808549,4.73285903 9.23248644,4.73285903 9.12358152,4.83456295 L6.62809892,7.33004555 C6.30156566,7.65872112 5.82820666,7.70370567 5.46760903,7.34310803 C5.10701139,6.98251039 5.12789033,6.46707071 5.44205029,6.14004662 L7.991949,3.59014791 C9.37089713,2.20904001 11.5998767,2.0520991 13.0012694,3.45349181 Z M7.08023988,12.9752314 L2.92641814,8.82140964 L2.92641814,8.82140964 C1.57662996,7.35724405 1.51266997,5.00367571 2.92641832,3.58992736 C4.34016668,2.176179 6.47166804,2.46220597 7.25018327,3.2407212 L4.84573525,5.64516922 C4.31158633,6.21856009 4.33711877,7.19124876 4.99680727,7.85093726 C5.65649577,8.51062575 6.55959259,8.47963162 7.09133166,7.95015237 C7.09519718,7.94630334 7.83941141,7.2020891 9.32397437,5.71750966 L12.5380748,8.93161005 L8.49445344,12.9752314 C8.10392915,13.3657557 7.47076417,13.3657557 7.08023988,12.9752314 Z" id="形状" fill="#FFFFFF" fill-rule="nonzero"></path>
        </g>
    </g>
</svg>
