<?xml version="1.0" standalone="no"?><!DOCTYPE svg PUBLIC "-//W3C//DTD SVG 1.1//EN" "http://www.w3.org/Graphics/SVG/1.1/DTD/svg11.dtd"><svg class="icon" width="200px" height="200.00px" viewBox="0 0 1024 1024" version="1.1" xmlns="http://www.w3.org/2000/svg"><path d="M831.488 233.472h-158.208c-15.872-74.752-81.408-130.56-160.768-130.56S366.592 158.208 351.232 233.472h-158.72c-56.832 0-102.912 46.08-102.912 102.912v481.28c0 56.832 46.08 102.912 102.912 102.912h638.464c56.832 0 102.912-46.08 102.912-102.912v-481.28c0.512-56.832-45.568-102.912-102.4-102.912z m-319.488-71.68c46.592 0 86.016 29.696 99.84 71.168h-199.68c13.824-41.472 53.248-71.168 99.84-71.168zM192.512 292.352h638.464c24.576 0 44.032 19.968 44.032 44.032v93.184H148.48V336.384c0-24.064 19.968-44.032 44.032-44.032z m638.976 569.856H192.512c-24.576 0-44.032-19.968-44.032-44.032V488.448h727.04v329.216c0 24.576-19.968 44.544-44.032 44.544z"  /></svg>
