<?xml version="1.0" standalone="no"?><!DOCTYPE svg PUBLIC "-//W3C//DTD SVG 1.1//EN" "http://www.w3.org/Graphics/SVG/1.1/DTD/svg11.dtd"><svg class="icon" width="200px" height="200.00px" viewBox="0 0 1024 1024" version="1.1" xmlns="http://www.w3.org/2000/svg"><path d="M845.587692 928.689231H178.412308a111.064615 111.064615 0 0 1-111.064616-111.064616V317.44a111.064615 111.064615 0 0 1 111.064616-111.064615h166.990769V150.843077a55.532308 55.532308 0 0 1 55.532308-55.532308h222.12923a55.532308 55.532308 0 0 1 55.532308 55.532308v55.532308h166.990769a111.064615 111.064615 0 0 1 111.064616 111.064615v500.184615a110.670769 110.670769 0 0 1-111.064616 111.064616zM623.064615 205.981538v-27.963076a27.569231 27.569231 0 0 0-27.963077-27.963077h-166.596923a27.569231 27.569231 0 0 0-27.963077 27.963077v27.963076z m278.055385 111.458462a55.532308 55.532308 0 0 0-55.532308-55.532308H178.412308a55.532308 55.532308 0 0 0-55.532308 55.532308v139.027692h778.24z m-444.652308 222.523077a55.532308 55.532308 0 0 0 111.064616 0 57.501538 57.501538 0 0 0-7.483077-28.356923h-95.704616a51.2 51.2 0 0 0-7.876923 27.569231zM901.12 512h-281.993846a111.064615 111.064615 0 1 1-214.252308 58.683077 106.338462 106.338462 0 0 1 0-58.683077H122.88v306.018462a55.532308 55.532308 0 0 0 55.532308 55.532307h667.175384a55.532308 55.532308 0 0 0 55.532308-55.532307z m0 0"  /></svg>
