<?xml version="1.0" standalone="no"?><!DOCTYPE svg PUBLIC "-//W3C//DTD SVG 1.1//EN" "http://www.w3.org/Graphics/SVG/1.1/DTD/svg11.dtd"><svg class="icon" width="200px" height="200.00px" viewBox="0 0 1024 1024" version="1.1" xmlns="http://www.w3.org/2000/svg"><path d="M748.032 102.4H275.968C220.16 102.4 174.592 147.968 174.592 203.776v616.96c0 55.808 45.568 101.376 101.376 101.376h472.064c55.808 0 101.376-45.568 101.376-101.376V203.776c0-55.808-45.568-101.376-101.376-101.376z m43.52 717.824c0 24.064-19.456 43.52-43.52 43.52H275.968c-24.064 0-43.52-19.456-43.52-43.52V203.776c0-24.064 19.456-43.52 43.52-43.52h472.064c24.064 0 43.52 19.456 43.52 43.52v616.448z"  /><path d="M680.448 561.664h-155.136C578.56 486.912 629.76 395.776 629.76 360.448c0-64.512-52.736-117.248-117.76-117.248S394.24 295.936 394.24 360.448c0 34.816 52.736 127.488 104.448 201.216H343.552c-15.872 0-28.672 12.8-28.672 28.672 0 15.872 12.8 28.672 28.672 28.672H680.96c15.872 0 28.672-12.8 28.672-28.672 0-15.36-12.8-28.672-29.184-28.672zM453.12 358.912c0-32.768 26.624-58.88 58.88-58.88 32.768 0 58.88 26.624 58.88 58.88 0 32.768-26.624 58.88-58.88 58.88-32.768 0-58.88-26.624-58.88-58.88zM680.448 684.032H343.552c-15.872 0-28.672 12.8-28.672 28.672s12.8 28.672 28.672 28.672H680.96c15.872 0 28.672-12.8 28.672-28.672s-12.8-28.672-29.184-28.672z"  /></svg>
