<?xml version="1.0" standalone="no"?><!DOCTYPE svg PUBLIC "-//W3C//DTD SVG 1.1//EN" "http://www.w3.org/Graphics/SVG/1.1/DTD/svg11.dtd"><svg t="1618220161987" class="icon" viewBox="0 0 1024 1024" version="1.1" xmlns="http://www.w3.org/2000/svg" p-id="38631" xmlns:xlink="http://www.w3.org/1999/xlink" width="128" height="128"><defs><style type="text/css"></style></defs><path d="M916.210526 107.789474a67.368421 67.368421 0 0 1 67.368421 67.368421v673.68421A67.368421 67.368421 0 0 1 916.210526 916.210526H107.789474a67.368421 67.368421 0 0 1-67.368421-67.368421v-673.68421A67.368421 67.368421 0 0 1 107.789474 107.789474h808.421052zM276.210526 404.210526L107.789474 572.550737V848.842105h808.421052v-87.578947l-215.578947-215.578947-141.473684 141.473684L276.210526 404.210526zM916.210526 175.157895H107.789474v303.157894l168.421052-168.421052L559.157895 592.842105 700.631579 451.368421l215.578947 215.578947V175.157895z m-128.323368 173.406316a47.157895 47.157895 0 1 0 0-94.31579 47.157895 47.157895 0 0 0 0 94.31579z" p-id="38632"></path></svg>