<?xml version="1.0" standalone="no"?><!DOCTYPE svg PUBLIC "-//W3C//DTD SVG 1.1//EN" "http://www.w3.org/Graphics/SVG/1.1/DTD/svg11.dtd"><svg t="1612403240221" class="icon" viewBox="0 0 1152 1024" version="1.1" xmlns="http://www.w3.org/2000/svg" p-id="14348" xmlns:xlink="http://www.w3.org/1999/xlink" width="225" height="200"><defs><style type="text/css"></style></defs><path d="M789.41551399 451.55373763a92.58127212 92.58127212 0 1 0 0-185.1316452 92.58127212 92.58127212 0 0 0 0 185.13164522z m161.92800522-308.46364973H195.49487305c-30.09181024 0-54.01926039 24.4882679-54.01926041 54.58007812v631.16480828c0 30.09103775 23.92745018 54.58007813 54.01926041 54.58007812h755.84864616c30.09103775 0 54.01926039-24.48904038 54.01926041-54.58007812V197.67016602c0-30.09181024-23.92822266-54.58007813-54.01926041-54.58007812z m-198.74267578 381.17065429a33.09056281 33.09056281 0 0 0-24.68679428-11.96411133c-9.82126236 0-16.74264907 4.61400032-24.68602182 10.9753418l-36.0568714 30.48731804c-7.51464844 5.40501594-13.51369858 9.06346321-22.1484375 9.06346321a31.90403938 31.90403938 0 0 1-21.22610092-7.91015625 261.16647719 261.16647719 0 0 1-8.30566407-7.91015625L511.76902962 434.81031609a42.51708983 42.51708983 0 0 0-32.20067025-14.50246812c-12.91966437 0-24.88377572 6.39455796-32.39842414 15.06251336L203.17405891 729.56251335V227.36569595c1.91187859-13.11819077 12.12942124-22.57716179 25.24683953-22.5771618h689.76562499c13.31517219 0 24.09353257 9.85447883 24.88377572 23.13720704l0.56081771 502.03150749L752.53363801 524.26074219z" p-id="14349"></path></svg>