<?xml version="1.0" standalone="no"?><!DOCTYPE svg PUBLIC "-//W3C//DTD SVG 1.1//EN" "http://www.w3.org/Graphics/SVG/1.1/DTD/svg11.dtd"><svg class="icon" width="200px" height="193.57px" viewBox="0 0 1058 1024" version="1.1" xmlns="http://www.w3.org/2000/svg"><path d="M893.44 848.384H547.84c-15.36 0-28.16 12.8-28.16 28.16s12.8 28.16 28.16 28.16h345.6c15.36 0 28.16-12.8 28.16-28.16 0-15.872-12.8-28.16-28.16-28.16zM893.44 738.304H547.84c-15.36 0-28.16 12.8-28.16 28.16s12.8 28.16 28.16 28.16h345.6c15.36 0 28.16-12.8 28.16-28.16 0-15.872-12.8-28.16-28.16-28.16zM712.192 571.392c-35.328-31.744-76.288-55.296-119.808-70.656 54.784-37.888 91.136-100.864 91.136-172.544 0-115.2-93.696-208.896-208.896-208.896-115.2 0-208.896 93.696-208.896 208.896 0 71.68 36.352 134.656 91.136 172.544-58.368 20.48-111.104 55.808-153.6 104.96C138.752 678.912 102.4 777.728 102.4 876.544c0 15.36 12.8 28.16 28.16 28.16s28.16-12.8 28.16-28.16c0-85.504 31.744-170.496 86.528-233.984C304.128 574.976 385.536 537.6 474.624 537.6c50.176 0 97.28 11.776 140.288 34.304h97.28zM474.624 481.28c-83.968 0-152.576-68.608-152.576-152.576s68.608-152.576 152.576-152.576 152.576 68.608 152.576 152.576S558.592 481.28 474.624 481.28z"  /><path d="M519.68 655.872c0 15.36 12.8 28.16 28.16 28.16h345.6c15.36 0 28.16-12.8 28.16-28.16s-12.8-28.16-28.16-28.16H547.84c-15.872 0-28.16 12.8-28.16 28.16z"  /></svg>
