<?xml version="1.0" standalone="no"?><!DOCTYPE svg PUBLIC "-//W3C//DTD SVG 1.1//EN" "http://www.w3.org/Graphics/SVG/1.1/DTD/svg11.dtd"><svg class="icon" width="200px" height="193.57px" viewBox="0 0 1058 1024" version="1.1" xmlns="http://www.w3.org/2000/svg"><path d="M417.17248 448.73216c-12.70272 0-24.17152 7.20896-28.77952 18.048l-48.72192 115.79904-49.57696-115.9424c-4.608-10.7008-16.18944-17.90976-28.76928-17.90976-10.23488 0-19.84 4.63872-25.54368 12.30336-5.72928 7.68512-6.84544 17.57184-2.9952 26.2144l73.27232 164.94592c4.72576 10.59328 15.9488 17.5616 28.51328 17.5616h9.45664c12.61056 0 23.82336-6.81472 28.54912-17.44384l74.13248-164.92544c3.84512-8.6528 2.72896-18.42176-2.87744-26.2144-5.85728-7.93088-15.5904-12.43648-26.65984-12.43648z m150.86592 1.4592c-14.45888 0-26.16832 10.73152-26.16832 23.9104v168.2176c0 13.1584 11.70944 23.90016 26.16832 23.90016 14.45376 0 26.14784-10.74176 26.14784-23.90016V474.10176c0.00512-13.184-11.68896-23.9104-26.14784-23.9104z m214.29248-3.51232h-61.29664c-17.56672 0-31.90784 15.34464-31.90784 34.11968v165.28384c0 13.67552 10.36288 24.88832 23.18848 24.88832 12.72832 0 23.16288-11.0848 23.16288-24.88832v-54.85056h44.7232c65.77664-0.95232 76.37504-45.81376 76.75392-74.22976-4.352-43.14624-30.7712-68.13696-74.624-70.3232z m-5.98016 97.26976h-40.86784v-50.08896h40.62208c27.64288 0.60928 32.14848 11.92448 32.76288 23.52128-0.37888 13.5168-4.47488 26.0864-32.51712 26.56768z m0 0"  /><path d="M901.82656 177.51552H184.05888c-57.29792 0-89.71776 32.60928-89.71776 89.70752v538.31168c0 57.10848 32.41984 89.72288 89.71776 89.72288h717.76256c57.28768 0 89.71776-32.6144 89.71776-89.72288V267.22816c0.00512-57.10336-32.42496-89.71264-89.71264-89.71264z m44.84608 628.02432c0 30.26944-14.51008 44.86144-44.8512 44.86144H184.05888c-30.3872 0-44.85632-14.592-44.85632-44.86144V267.22816c0-30.26944 14.46912-44.86144 44.85632-44.86144h717.76256c30.34112 0 44.8512 14.592 44.8512 44.86144v538.31168z m0 0"  /></svg>
