<?xml version="1.0" standalone="no"?><!DOCTYPE svg PUBLIC "-//W3C//DTD SVG 1.1//EN" "http://www.w3.org/Graphics/SVG/1.1/DTD/svg11.dtd"><svg t="1625552149596" class="icon" viewBox="0 0 1024 1024" version="1.1" xmlns="http://www.w3.org/2000/svg" p-id="31709" xmlns:xlink="http://www.w3.org/1999/xlink" width="16" height="16"><defs><style type="text/css"></style></defs><path d="M880.64 126.603636H143.36c-33.978182 0-60.974545 27.461818-61.44 61.44v599.04c0 33.978182 27.461818 61.44 61.44 61.44h736.814545c33.978182 0 61.44-27.461818 61.44-61.44V188.043636c0-33.978182-27.461818-61.44-60.974545-61.44z m0 660.48H143.36V188.043636h736.814545l0.465455 599.04z" p-id="31710"></path><path d="M671.185455 447.767273L456.145455 323.490909c-14.429091-8.378182-31.650909-8.378182-46.08 0-14.429091 8.378182-22.807273 23.272727-22.807273 39.563636v248.552728c0 25.6 20.48 46.08 46.08 46.08 7.912727 0 15.825455-2.327273 22.807273-6.050909l215.04-124.276364c13.963636-8.378182 22.807273-23.272727 22.807272-39.563636 0-16.756364-8.378182-32.116364-22.807272-40.029091z m-222.952728 137.309091v-195.490909l168.96 97.745454-168.96 97.745455z" p-id="31711"></path></svg>