<?xml version="1.0" standalone="no"?><!DOCTYPE svg PUBLIC "-//W3C//DTD SVG 1.1//EN" "http://www.w3.org/Graphics/SVG/1.1/DTD/svg11.dtd"><svg class="icon" width="200px" height="200.00px" viewBox="0 0 1024 1024" version="1.1" xmlns="http://www.w3.org/2000/svg"><path d="M844.288 218.112H179.712c-42.496 0-77.312 34.816-77.312 77.312v433.664c0 42.496 34.816 77.312 77.312 77.312H844.8c42.496 0 77.312-34.816 77.312-77.312V294.912c-0.512-42.496-35.328-76.8-77.824-76.8z m19.456 510.976c0 10.752-8.704 19.456-19.456 19.456H179.712c-10.752 0-19.456-8.704-19.456-19.456V294.912c0-10.752 8.704-19.456 19.456-19.456H844.8c10.752 0 19.456 8.704 19.456 19.456v434.176z"  /><path d="M418.304 386.56L324.096 568.32l-30.72-181.76h-71.68l53.248 250.88h71.168l145.408-250.88zM510.976 386.56l-46.592 250.88H532.48l46.592-250.88zM715.776 386.56h-109.568l-46.592 250.88h67.072l15.872-84.992h38.4c70.656 0 111.104-28.16 120.32-83.968 3.072-23.552-1.024-42.496-12.288-56.32-13.824-16.384-38.4-25.088-73.216-25.6z m15.872 82.944c-4.608 20.992-20.48 31.232-47.616 31.744h-32.256l11.776-62.464h33.792c14.848 0.512 25.088 3.584 30.72 10.24 3.584 4.608 5.12 11.264 3.584 20.48z"  /></svg>
