<?xml version="1.0" standalone="no"?><!DOCTYPE svg PUBLIC "-//W3C//DTD SVG 1.1//EN" "http://www.w3.org/Graphics/SVG/1.1/DTD/svg11.dtd"><svg class="icon" width="200px" height="200.00px" viewBox="0 0 1024 1024" version="1.1" xmlns="http://www.w3.org/2000/svg"><path fill="#333333" d="M947.7 432.3L843.4 182.9l-0.4-0.9c-15.2-30.6-45.9-49.6-80.1-49.6H261.1c-34.2 0-64.9 19-80.1 49.6l-0.4 0.9L76.3 432.3c-10.3 21.7-6.3 48 10 65.8l0.5 0.5 382 374.5c11.2 11.8 26.9 18.5 43.2 18.5s32-6.7 43.2-18.5l381.5-373.9 1-1.1c16.3-17.8 20.3-44.1 10-65.8z m-53.3 25.6l-381 373.4-1 1.1c-0.1 0.1-0.1 0.2-0.4 0.2s-0.3-0.1-0.4-0.2l-0.5-0.6-381.5-374c-0.1-0.1-0.1-0.3 0-0.4l0.4-0.9 104.2-249.1c5.3-10 15.6-16.2 26.9-16.2h501.7c11.4 0 21.6 6.2 26.9 16.2l104.2 249.1 0.4 0.9c0.1 0.3 0.1 0.4 0.1 0.5zM616.9 268.4c-11.5-11.5-30.2-11.5-41.7 0L400.5 443.1l4.4-77.9c0.9-16.3-11.5-30.2-27.8-31.1-16.3-0.9-30.2 11.5-31.1 27.8l-8.6 151.2c-0.9 16.3 11.5 30.2 27.8 31.1 0.6 0 1.1 0.1 1.7 0.1 1.8 0 3.6-0.2 5.3-0.5 7.2-0.3 14.2-3.1 19.7-8.6l225-225c11.6-11.6 11.6-30.3 0-41.8z m75.9 87.4c-2.4-0.1-4.7 0-7 0.4-7.2 0.3-14.2 3.1-19.7 8.6l-225 225c-11.5 11.5-11.5 30.2 0 41.7 5.8 5.8 13.3 8.6 20.9 8.6 7.6 0 15.1-2.9 20.9-8.6l174.7-174.7-4.4 77.9c-0.9 16.3 11.5 30.2 27.8 31.1 0.6 0 1.1 0.1 1.7 0.1 15.5 0 28.5-12.1 29.4-27.8l8.6-151.2c0.8-16.2-11.7-30.2-27.9-31.1z" /></svg>