<?xml version="1.0" standalone="no"?><!DOCTYPE svg PUBLIC "-//W3C//DTD SVG 1.1//EN" "http://www.w3.org/Graphics/SVG/1.1/DTD/svg11.dtd"><svg class="icon" width="200px" height="200.00px" viewBox="0 0 1024 1024" version="1.1" xmlns="http://www.w3.org/2000/svg"><path d="M1.728 512a510.272 510.272 0 1 0 1020.544 0A510.272 510.272 0 1 0 1.728 512z" fill="#ACFFE5" /><path d="M548.16 537.344a43.328 43.328 0 0 1-5.312-17.152 63.744 63.744 0 0 1 0-23.104 169.024 169.024 0 0 0 64.384-149.184c0-46.144-26.816-126.656-107.328-126.656h-5.376a115.392 115.392 0 0 0-107.328 126.72 181.376 181.376 0 0 0 61.76 149.184 39.616 39.616 0 0 1 8 25.728 24.96 24.96 0 0 1-10.688 14.464c-34.368 28.416-157.824 59.584-165.888 123.456-5.312 25.728-42.88 68.672 80.512 86.464 46.848 7.296 94.272 10.88 141.696 10.752 24.128 0 40.576-1.408 60.032-0.96 34.56 0.96-38.08-50.816-65.28-91.072-15.616-25.92 107.264-104.192 86.848-111.488-11.52-4.16-29.376-11.968-36.032-17.152z" fill="#56dba6" /><path d="M797.696 655.68l-34.304 34.624-5.44 5.504-76.864 77.568-11.008 11.072a12.8 12.8 0 0 1-18.176 0.128l-0.128-0.128-116.224-117.248a13.12 13.12 0 0 1 0-18.432L623.36 560.128a12.8 12.8 0 0 1 18.176-0.128l0.128 0.128 32.064 32.32 30.656-30.912a12.8 12.8 0 0 1 18.176-0.128l0.128 0.128 75.008 75.712a13.12 13.12 0 0 1 0 18.432z m-100.992-13.312l-48-1.088a13.12 13.12 0 0 1-12.608-13.376l0.064-3.904a13.12 13.12 0 0 1 13.248-12.8l16.896 0.384-25.92-26.112a12.928 12.928 0 0 0-18.24-0.064l-0.064 0.064-62.272 62.848a13.12 13.12 0 0 0 0 18.432l90.112 90.944a12.8 12.8 0 0 0 18.176 0.128l0.128-0.128 1.792-1.856-49.664-50.048a8.832 8.832 0 0 1 0-12.416l0.512-0.512a8.704 8.704 0 0 1 12.352 0l49.6 50.048 11.008-11.072-44.608-44.992a8.704 8.704 0 0 1 0-12.416l0.448-0.512a8.704 8.704 0 0 1 12.352 0l44.608 44.992 10.048-10.112-38.656-38.976a8.96 8.96 0 0 1 0-12.48l0.448-0.448a8.704 8.704 0 0 1 12.288-0.064l0.064 0.064 38.656 38.976 0.896-0.896a13.184 13.184 0 0 0 0-18.496l-33.664-34.112z" fill="#00B767" /></svg>