<?xml version="1.0" standalone="no"?><!DOCTYPE svg PUBLIC "-//W3C//DTD SVG 1.1//EN" "http://www.w3.org/Graphics/SVG/1.1/DTD/svg11.dtd"><svg class="icon" width="200px" height="200.00px" viewBox="0 0 1024 1024" version="1.1" xmlns="http://www.w3.org/2000/svg"><path d="M484.267 328.533c-19.2 12.8-44.8 12.8-64-6.4-19.2-12.8-19.2-44.8-6.4-64l102.4-102.4c96-96 249.6-89.6 345.6 0s96 249.6 0 345.6l-108.8 102.4c-12.8 12.8-32 19.2-51.2 12.8s-19.2-12.8-25.6-25.6c-6.4-19.2 0-38.4 12.8-51.2l102.4-102.4c57.6-57.6 51.2-147.2-6.4-204.8-57.6-57.6-147.2-57.6-204.8-6.4l-96 102.4z m70.4 352c12.8-12.8 32-25.6 51.2-19.2 19.2 6.4 32 19.2 38.4 38.4 6.4 19.2 0 38.4-19.2 51.2l-102.4 102.4c-96 89.6-249.6 83.2-339.2-6.4s-102.4-243.2-12.8-339.2l102.4-102.4c12.8-19.2 32-25.6 51.2-19.2s32 12.8 38.4 32c6.4 19.2 0 38.4-19.2 51.2l-102.4 108.8c-57.6 57.6-57.6 147.2 0 204.8 57.6 57.6 147.2 57.6 204.8 6.4l108.8-108.8z m-121.6-19.2c-12.8 12.8-32 19.2-51.2 12.8s-32-12.8-38.4-32c0-19.2 6.4-38.4 19.2-44.8l243.2-243.2c19.2-19.2 51.2-12.8 70.4 0 19.2 19.2 19.2 44.8 0 70.4l-243.2 236.8z" /></svg>
