<?xml version="1.0" standalone="no"?><!DOCTYPE svg PUBLIC "-//W3C//DTD SVG 1.1//EN" "http://www.w3.org/Graphics/SVG/1.1/DTD/svg11.dtd"><svg class="icon" width="200px" height="200.00px" viewBox="0 0 1024 1024" version="1.1" xmlns="http://www.w3.org/2000/svg"><path d="M357.5 552h290.6v-80H357.5v80z m-148.9-40c0-68.3 50.5-123.9 112.6-123.9h145.3v-75.9H321.2c-100.2 0-181.6 89.5-181.6 199.8 0 110.3 81.4 199.8 181.6 199.8h145.3v-75.9H321.2c-62.1 0-112.6-55.6-112.6-123.9z m475.8-199.8H539.1v75.9h145.3c62.1 0 112.6 55.5 112.6 123.9 0 68.3-50.5 123.9-112.6 123.9H539.1v75.9h145.3C784.6 711.8 866 622.3 866 512c0-110.3-81.3-199.8-181.6-199.8z" /></svg>
