<?xml version="1.0" standalone="no"?><!DOCTYPE svg PUBLIC "-//W3C//DTD SVG 1.1//EN" "http://www.w3.org/Graphics/SVG/1.1/DTD/svg11.dtd"><svg t="1589005470395" class="icon" viewBox="0 0 1024 1024" version="1.1" xmlns="http://www.w3.org/2000/svg" p-id="9192" xmlns:xlink="http://www.w3.org/1999/xlink" width="200" height="200"><defs><style type="text/css"></style></defs><path d="M387.413333 318.72a49.493333 49.493333 0 1 0-99.072 0.085333A49.493333 49.493333 0 0 0 387.413333 318.72zM608 367.786667a49.493333 49.493333 0 1 0-0.085333-99.072 49.493333 49.493333 0 0 0 0.085333 99.072z" p-id="9193"></path><path d="M910.933333 808.96c31.573333-42.666667 48.213333-91.306667 48.213334-142.506667 0-69.546667-31.573333-133.12-82.773334-180.48 2.986667-16.64 4.693333-33.28 4.693334-50.773333 0-193.706667-183.04-350.72-407.893334-350.72-224.853333 0-407.893333 157.44-407.893333 350.72 0 69.12 23.04 135.253333 67.413333 192.853333l-38.826666 123.733334c-3.84 12.373333-0.426667 26.026667 8.96 34.986666 6.4 5.973333 14.933333 9.386667 23.466666 9.386667 3.84 0 8.106667-0.853333 11.946667-2.133333l138.666667-51.626667c29.44 14.08 61.013333 24.32 93.44 31.573333 48.213333 92.586667 155.733333 157.44 281.173333 157.44 50.346667 0 99.84-10.666667 144.213333-31.146666l98.133334 36.266666c3.84 1.28 7.68 2.133333 11.946666 2.133334 8.533333 0 17.066667-3.413333 23.466667-9.386667 9.386667-8.96 12.8-22.613333 8.96-34.986667l-27.306667-85.333333zM294.4 675.413333a33.237333 33.237333 0 0 0-15.786667-3.84c-3.84 0-8.106667 0.853333-11.946666 2.133334l-87.04 32.426666 23.466666-74.666666a34.56 34.56 0 0 0-6.826666-32.426667c-41.386667-48.213333-63.146667-104.96-63.146667-163.413333 0-155.733333 152.32-282.453333 339.626667-282.453334s339.626667 126.72 339.626666 282.453334c0 1.706667-0.426667 3.84-0.426666 5.546666a340.48 340.48 0 0 0-161.28-39.68c-169.813333 0-308.053333 119.04-308.053334 264.96 0 10.24 0.853333 20.053333 2.133334 29.866667-17.066667-5.546667-34.133333-12.373333-50.346667-20.906667z m545.706667 136.96l11.52 36.693334-46.506667-17.066667a33.792 33.792 0 0 0-27.306667 1.706667c-38.4 19.626667-81.92 30.293333-126.72 30.293333-132.266667 0-239.786667-88.32-239.786666-196.693333s107.52-196.693333 239.786666-196.693334 239.786667 88.32 239.786667 196.693334c0 40.533333-15.36 79.786667-43.946667 113.066666a33.28 33.28 0 0 0-6.826666 32z" p-id="9194"></path><path d="M740.266667 577.706667c-21.76 0-39.68 17.493333-39.68 39.68 0 21.76 17.493333 39.68 39.68 39.68 21.76 0 39.68-17.493333 39.68-39.68 0-21.76-17.92-39.68-39.68-39.68zM561.92 577.706667c-21.76 0-39.68 17.493333-39.68 39.68 0 21.76 17.493333 39.68 39.68 39.68 21.76 0 39.68-17.493333 39.68-39.68a40.149333 40.149333 0 0 0-39.68-39.68z" p-id="9195"></path></svg>