<?xml version="1.0" standalone="no"?><!DOCTYPE svg PUBLIC "-//W3C//DTD SVG 1.1//EN" "http://www.w3.org/Graphics/SVG/1.1/DTD/svg11.dtd"><svg t="1609726849719" class="icon" viewBox="0 0 1024 1024" version="1.1" xmlns="http://www.w3.org/2000/svg" p-id="21532" xmlns:xlink="http://www.w3.org/1999/xlink" width="200" height="200"><defs><style type="text/css"></style></defs><path d="M819.712 179.2c16.896 0 33.28 6.656 45.056 18.944s18.944 28.672 18.944 45.568v156.16c0 17.92-14.336 32.256-31.744 32.256-17.408 0-31.744-14.336-31.744-32.256V278.528l-312.32 266.752a31.232 31.232 0 0 1-45.056 0l-0.512-1.024-302.592-256v492.544h469.504c17.408 0 31.744 14.336 31.744 32.256s-14.336 32.256-31.744 32.256H159.744c-35.328 0-64-28.672-64-64.512v-537.6c0-35.328 28.672-64.512 64-64.512h659.968zM762.88 676.864c17.408 0 31.744 14.336 31.744 32.256s-14.336 32.256-31.744 32.256h-129.024c-17.408 0-31.744-14.336-31.744-32.256s14.336-32.256 31.744-32.256H762.88z m72.704-98.816c17.408 0 31.744 14.336 31.744 32.256s-14.336 32.256-31.744 32.256h-164.352c-17.408 0-31.744-14.336-31.744-32.256s14.336-32.256 31.744-32.256h164.352zM896 479.232c17.408 0 31.744 14.336 31.744 32.256 0 16.384-11.776 29.696-27.648 31.744l-4.096 0.512h-163.84c-17.408 0-31.744-14.336-31.744-32.256 0-16.384 11.776-29.696 27.648-31.744l4.096-0.512h163.84z m-133.12-236.032H205.312l279.04 237.056L762.88 243.2z" p-id="21533"></path></svg>