<?xml version="1.0" standalone="no"?><!DOCTYPE svg PUBLIC "-//W3C//DTD SVG 1.1//EN" "http://www.w3.org/Graphics/SVG/1.1/DTD/svg11.dtd"><svg t="1614220078216" class="icon" viewBox="0 0 1024 1024" version="1.1" xmlns="http://www.w3.org/2000/svg" p-id="25691" xmlns:xlink="http://www.w3.org/1999/xlink" width="200" height="200"><defs><style type="text/css"></style></defs><path d="M196.7 745.6c-6.9 0-13.5-2.5-18.7-6.9-9.2-7.9-12.7-20.5-8.9-32.1l22.3-66.7-0.4-0.3c-29.6-22.8-54.2-50.7-73.3-83-22.8-38.9-34.9-83.3-35.1-128.4 0-38.7 8.8-76.2 26.1-111.5 17.1-34.5 40.6-64.7 69.9-89.6 60.6-52.2 140.8-81 225.7-81 154.5 0 287.4 96.5 316 229.4l0.9 4.4-56.8 12.7-1-4.4c-10.9-50.1-42.1-96.1-88-129.4-47.6-34.5-108.4-53.5-171-53.5-145.3 0-263.5 100.1-263.5 223.2 0 34.7 9.1 67.8 27.1 98.4 18.3 30.9 43.9 57.6 73.9 77.2 11.1 7.4 15.9 21.5 11.7 34.1l-5.3 15.8 31.2-17.5c4.3-2.4 9.2-3.7 14.1-3.7 3.3 0 6.5 0.5 9.6 1.6a301 301 0 0 0 100.4 17.2c7.1 0 14.3-0.3 21.4-0.8l4.5-0.3 3.8 58.9-4.5 0.4c-8.3 0.6-16.8 0.9-25.1 0.9-36.3 0-72.2-5.5-106.8-16.2l-0.3-0.1-85.7 47.6c-2.8 1.6-5.8 2.7-9 3.3l-0.6 0.1v0.3l-4.6-0.1z" p-id="25692"></path><path d="M826.9 877.4l-0.5-0.1c-3.2-0.6-6.2-1.6-8.9-3.2l-74.1-41.3-0.3 0.1c-25.3 6.5-51.4 9.7-77.5 9.7h-0.3c-72.8 0-141.5-24.6-193.5-69.3-25.2-21.4-45.5-47.3-60.1-76.9-14.7-29.6-22.5-62.8-22.5-95.9 0-33.1 7.8-66.3 22.5-95.9 14.7-29.6 35-55.5 60.1-76.9 51.9-44.7 120.6-69.3 193.5-69.3 72.8 0 141.5 24.6 193.5 69.4 25.2 21.5 45.5 47.3 60.1 76.9 14.9 30.3 22.5 62.6 22.5 95.9 0 36-9.4 72.2-27.1 104.6-17 31.2-42 59.3-72.3 81.4l-0.4 0.3 17.4 52c3.9 11.5 0.4 24.1-8.8 32-5.3 4.4-11.9 6.9-18.7 6.9h-4.6v-0.4zM747 771.7c5 0 9.8 1.3 14 3.7l18.8 10.5-0.6-1.7c-4.4-13.2 0.8-27.5 12.7-34.7 27-16 50.1-38.5 66.9-64.9 16.2-26.2 24.4-54.5 24.4-84.1 0-101-97.7-183.1-217.8-183.1-120.1 0-217.8 82.2-217.8 183.2 0 101 97.7 183.1 217.7 183.1 25 0 49.7-3.6 73.5-10.7 1.1-0.3 2.1-0.6 3.2-0.8l0.5-0.1v-0.3l4.5-0.1zM492.9 386.8c-23 0-41.7-19-41.7-42.3v-5.2h0.3c2.4-20.7 20-36.8 41.3-37 23.2 0.2 41.8 19.2 41.7 42.2 0 23.3-18.6 42.3-41.6 42.3zM300.6 386.8c-23 0-41.7-19-41.7-42.3-0.1-23.1 18.6-42.1 41.7-42.2 23.2 0.2 41.8 19.2 41.7 42.2 0.1 23.1-18.6 42.1-41.7 42.3z" p-id="25693"></path><path d="M749 575.2c-10.6-0.1-20.9-4.4-28.3-11.9-7.5-7.6-11.6-17.7-11.5-28.5v-5.1h0.3c1.1-8.7 5-16.8 11.2-23.2 7.5-7.6 17.5-11.9 28.2-11.9 22.1 0.2 40 18.3 39.8 40.3 0.1 10.6-4 20.7-11.5 28.4-7.4 7.6-17.5 11.8-28.2 11.9z m-160.9 0c-10.7-0.1-20.7-4.3-28.3-12-7.5-7.6-11.6-17.7-11.5-28.5-0.1-10.6 4-20.7 11.5-28.3 7.5-7.6 17.5-11.9 28.3-11.9 22.1 0.2 40 18.3 39.8 40.3 0.1 10.6-4 20.7-11.5 28.4-7.5 7.7-17.5 11.9-28.3 12z" p-id="25694"></path></svg>