<?xml version="1.0" standalone="no"?><!DOCTYPE svg PUBLIC "-//W3C//DTD SVG 1.1//EN" "http://www.w3.org/Graphics/SVG/1.1/DTD/svg11.dtd"><svg class="icon" width="200px" height="193.57px" viewBox="0 0 1058 1024" version="1.1" xmlns="http://www.w3.org/2000/svg"><path d="M921.6 598.528c0-109.568-97.792-204.8-223.232-217.6-30.72-117.248-159.232-204.8-300.544-204.8C235.008 176.128 102.4 290.304 102.4 431.104c0 73.728 36.352 139.776 104.448 192l-21.504 67.072c-1.536 3.584-2.048 8.704-0.512 13.312 1.536 4.096 4.096 8.192 7.68 9.728 4.096 3.584 8.192 5.632 12.8 5.632 3.072 0 6.144-1.024 9.216-2.56l90.112-45.056h9.728l6.656 1.536c25.6 5.12 49.664 10.24 76.288 10.24h25.6c1.536 0 2.56 0 3.584-0.512 40.448 83.456 132.096 136.704 235.52 136.704 25.088 0 52.736-5.12 78.848-11.264l66.56 35.84 1.024 0.512h1.024c0.512 0 1.536 0.512 2.048 1.024 1.536 1.024 4.096 2.048 6.656 2.048 3.584 0 10.752 0 14.848-4.096 7.68-7.68 10.24-15.36 6.656-22.528l-15.872-53.248c63.488-50.688 97.792-111.104 97.792-168.96z m-511.488-2.56c0 12.8 2.048 25.088 4.608 37.376h-16.384c-25.6 0-46.592-4.608-69.632-9.728l-6.656-1.536-14.848-3.072h-0.512c-3.072 0-9.728 0-14.336 3.584l-47.616 22.528 9.728-24.576c3.584-7.168 1.024-18.432-6.656-25.6l-0.512-0.512-0.512-0.512c-65.536-43.52-100.352-101.376-100.352-166.4 0-116.224 112.64-210.944 251.392-210.944 118.272 0 224.256 68.608 249.856 160.768-131.584 6.144-237.568 102.912-237.568 218.624z m380.928 140.8c-7.168 7.168-10.24 17.408-10.24 24.064v0.512l5.12 16.896-28.672-16.384-1.024-0.512h-1.536c-0.512 0-1.536-0.512-2.048-1.024-1.536-1.024-4.096-2.048-6.656-2.048H741.888c-6.656 1.536-12.8 3.072-19.456 4.608-18.432 4.608-37.888 9.216-56.32 9.216-116.736 0-211.456-79.36-211.456-176.64s94.72-176.64 211.456-176.64c114.688 0 211.456 80.896 211.456 176.64-0.512 46.592-30.72 96.768-86.528 141.312z"  /><path d="M305.152 347.136m-40.448 0a40.448 40.448 0 1 0 80.896 0 40.448 40.448 0 1 0-80.896 0Z"  /><path d="M497.664 347.136m-40.448 0a40.448 40.448 0 1 0 80.896 0 40.448 40.448 0 1 0-80.896 0Z"  /><path d="M592.896 539.136m-32.768 0a32.768 32.768 0 1 0 65.536 0 32.768 32.768 0 1 0-65.536 0Z"  /><path d="M744.448 539.136m-32.768 0a32.768 32.768 0 1 0 65.536 0 32.768 32.768 0 1 0-65.536 0Z"  /></svg>
