<?xml version="1.0" standalone="no"?><!DOCTYPE svg PUBLIC "-//W3C//DTD SVG 1.1//EN" "http://www.w3.org/Graphics/SVG/1.1/DTD/svg11.dtd"><svg class="icon" width="200px" height="193.57px" viewBox="0 0 1058 1024" version="1.1" xmlns="http://www.w3.org/2000/svg"><path d="M289.02912 283.58144m-44.87168 0a44.87168 44.87168 0 1 0 89.74336 0 44.87168 44.87168 0 1 0-89.74336 0Z"  /><path d="M514.944 283.58656m-44.87168 0a44.87168 44.87168 0 1 0 89.74336 0 44.87168 44.87168 0 1 0-89.74336 0Z"  /><path d="M924.3904 824.4992c105.24672-75.20768 129.59744-221.50144 54.38976-326.74816a234.31168 234.31168 0 0 0-47.2064-49.03936 322.62656 322.62656 0 0 0-162.88256-71.12192 269.22496 269.22496 0 0 0-28.71808-103.42912 313.87136 313.87136 0 0 0-79.64672-98.7136c-151.30624-119.33696-364.69248-119.33696-516.00896 0a310.528 310.528 0 0 0-79.42144 98.7136 268.10368 268.10368 0 0 0 9.19552 260.47488 323.4816 323.4816 0 0 0 87.95136 95.80032l-35.2256 102.30272a22.41024 22.41024 0 0 0 6.50752 24.22272 22.4256 22.4256 0 0 0 24.89344 3.36384l137.97376-67.30752a429.12768 429.12768 0 0 0 106.12736 13.00992h22.43584a254.6432 254.6432 0 0 0 78.7456 112.1792 332.32896 332.32896 0 0 0 214.25664 74.71104 349.51168 349.51168 0 0 0 91.99104-12.11392l112.17408 54.9632c3.08224 1.48992 6.46144 2.2528 9.87648 2.24256a22.43072 22.43072 0 0 0 22.44096-29.83936l-29.8496-83.67104z m-509.05088-162.87744l-13.91616 0.2304c-34.56 0-68.9664-4.60288-102.2976-13.696a22.43584 22.43584 0 0 0-15.92832 1.3568l-96.69632 47.10912 22.43584-67.30752a22.43584 22.43584 0 0 0-8.75008-26.25024A250.35776 250.35776 0 0 1 80.15872 396.4416c0-146.2784 144.71168-265.63584 322.176-265.63584 168.25856 0 306.90816 107.01824 320.82432 242.97472h-5.61664A332.4928 332.4928 0 0 0 503.28576 448.7168a240.51712 240.51712 0 0 0-89.74336 184.86272c0.03072 9.3696 0.63488 18.73408 1.79712 28.04224z m469.79584 135.94624a22.43584 22.43584 0 0 0-8.52992 26.03008l16.59904 48.24064-71.3472-34.77504a22.272 22.272 0 0 0-9.87648-2.46784c-2.28864 0-4.56704 0.37888-6.72768 1.1264a309.57056 309.57056 0 0 1-87.72096 12.55936c-143.36 0-259.79904-96.24576-259.79904-214.7072 0-118.45632 116.43904-214.48704 259.79904-214.48704s260.02432 96.25088 260.02432 214.48704a201.87648 201.87648 0 0 1-92.42112 163.9936z"  /><path d="M627.1232 543.1552m-33.87904 0a33.87904 33.87904 0 1 0 67.75808 0 33.87904 33.87904 0 1 0-67.75808 0Z"  /><path d="M808.17664 509.28128h-0.44544a33.87904 33.87904 0 0 0-33.87392 33.87904 34.0992 34.0992 0 1 0 68.1984 0.45056 34.10432 34.10432 0 0 0-33.87904-34.3296z"  /></svg>
