<?xml version="1.0" standalone="no"?><!DOCTYPE svg PUBLIC "-//W3C//DTD SVG 1.1//EN" "http://www.w3.org/Graphics/SVG/1.1/DTD/svg11.dtd"><svg t="1619680163982" class="icon" viewBox="0 0 1024 1024" version="1.1" xmlns="http://www.w3.org/2000/svg" p-id="16160" xmlns:xlink="http://www.w3.org/1999/xlink" width="128" height="128"><defs><style type="text/css"></style></defs><path d="M916.210526 949.894737H107.789474c-18.593684 0-33.684211-15.090526-33.684211-33.684211V107.789474c0-18.593684 15.090526-33.684211 33.684211-33.684211h808.421052c18.593684 0 33.684211 15.090526 33.684211 33.684211v808.421052c0 18.593684-15.090526 33.684211-33.684211 33.684211z m-774.736842-67.368421h741.052632V141.473684H141.473684v741.052632z" p-id="16161"></path><path d="M714.105263 343.578947h-404.210526a33.684211 33.684211 0 0 1 0-67.368421h404.210526a33.684211 33.684211 0 0 1 0 67.368421z" p-id="16162"></path><path d="M512 747.789474c-18.593684 0-33.684211-15.090526-33.684211-33.684211v-404.210526a33.684211 33.684211 0 0 1 67.368422 0v404.210526c0 18.593684-15.090526 33.684211-33.684211 33.684211z" p-id="16163"></path></svg>