<?xml version="1.0" standalone="no"?><!DOCTYPE svg PUBLIC "-//W3C//DTD SVG 1.1//EN" "http://www.w3.org/Graphics/SVG/1.1/DTD/svg11.dtd"><svg class="icon" width="200px" height="200.00px" viewBox="0 0 1024 1024" version="1.1" xmlns="http://www.w3.org/2000/svg"><path d="M900.06528 237.59872l-371.85024 0.10752-95.38048-76.5952a25.7536 25.7536 0 0 0-16.22016-5.89824H123.93472c-30.96064 0-56.16128 25.19552-56.16128 56.15616V812.62592c0 30.96064 25.20064 56.15104 56.16128 56.15104H725.72416c14.14144 0 25.6-11.45856 25.6-25.6s-11.45856-25.6-25.6-25.6H123.93472a5.0176 5.0176 0 0 1-4.96128-4.95104V424.75008h786.048v213.5296c0 14.14144 11.45856 25.6 25.6 25.6s25.6-11.45856 25.6-25.6V293.76c0.01024-30.96576-25.18528-56.16128-56.15616-56.16128zM118.97344 373.55008V211.37408c0-2.68288 2.27328-4.95616 4.96128-4.95616h283.54048L510.208 288.9216l389.86752-0.11776c2.67264 0 4.94592 2.26816 4.94592 4.96128V373.5552l-786.048-0.00512z"  /><path d="M828.17024 843.18208m-25.6 0a25.6 25.6 0 1 0 51.2 0 25.6 25.6 0 1 0-51.2 0Z"  /><path d="M930.63168 843.18208m-25.6 0a25.6 25.6 0 1 0 51.2 0 25.6 25.6 0 1 0-51.2 0Z"  /><path d="M930.63168 740.73088m-25.6 0a25.6 25.6 0 1 0 51.2 0 25.6 25.6 0 1 0-51.2 0Z"  /></svg>
