<?xml version="1.0" standalone="no"?><!DOCTYPE svg PUBLIC "-//W3C//DTD SVG 1.1//EN" "http://www.w3.org/Graphics/SVG/1.1/DTD/svg11.dtd"><svg class="icon" width="200px" height="183.02px" viewBox="0 0 1119 1024" version="1.1" xmlns="http://www.w3.org/2000/svg"><path d="M397.85813333 600.4736c18.56853333 0 33.86026667-15.29173333 33.86026667-33.86026667V482.5088c0-18.56853333-15.29173333-33.86026667-33.86026667-33.86026667s-33.86026667 15.29173333-33.86026666 33.86026667v50.7904H267.8784c-18.56853333 0-33.86026667 15.29173333-33.86026667 33.86026667s15.29173333 33.86026667 33.86026667 33.86026666h129.97973333zM697.68533333 656.1792c-47.5136 0-87.38133333 30.03733333-102.67306666 71.54346667H428.98773333c-15.29173333-41.50613333-55.7056-71.54346667-102.67306666-71.54346667-60.07466667 0-109.22666667 48.60586667-109.22666667 108.1344S266.24 872.448 326.31466667 872.448c49.152 0 91.20426667-32.22186667 104.8576-77.0048h161.65546666c13.65333333 44.2368 55.15946667 77.0048 104.8576 77.0048 60.07466667 0 109.22666667-48.60586667 109.22666667-108.1344s-49.152-108.1344-109.22666667-108.1344z m-371.37066666 148.00213333c-22.9376 0-42.05226667-18.0224-42.05226667-40.41386666 0-22.39146667 18.56853333-40.41386667 42.05226667-40.41386667s42.05226667 18.0224 42.05226666 40.41386667c0 22.39146667-19.11466667 40.41386667-42.05226666 40.41386666z m371.37066666 0c-22.9376 0-42.05226667-18.0224-42.05226666-40.41386666 0-22.39146667 18.56853333-40.41386667 42.05226666-40.41386667s42.05226667 18.0224 42.05226667 40.41386667c-0.54613333 22.39146667-19.11466667 40.41386667-42.05226667 40.41386666z"  /><path d="M889.92426667 152.09813333H436.08746667c-39.86773333 0-72.63573333 32.22186667-72.63573334 72.63573334v117.41866666H259.14026667c-109.22666667 0-197.70026667 88.4736-197.70026667 198.2464v181.8624c0 39.86773333 32.22186667 72.63573333 72.63573333 72.63573334h52.97493334c-2.18453333-9.8304-3.2768-20.20693333-3.2768-31.1296 0-12.56106667 1.6384-25.12213333 4.9152-36.59093334h-54.0672c-2.73066667 0-4.9152-2.18453333-4.9152-4.9152v-181.8624C129.70666667 468.30933333 188.14293333 409.87306667 259.6864 409.87306667h172.032V224.73386667c0-2.73066667 2.18453333-4.9152 4.9152-4.9152h453.8368c2.73066667 0 4.9152 2.18453333 4.9152 4.9152v497.52746666c0 2.73066667-2.18453333 4.9152-4.9152 4.9152h-54.0672c3.2768 11.4688 4.9152 24.02986667 4.9152 36.59093334 0 10.92266667-1.09226667 21.2992-3.2768 31.1296H891.01653333c39.86773333 0 72.63573333-32.22186667 72.63573334-72.63573334V224.73386667c-1.09226667-39.86773333-33.31413333-72.63573333-73.728-72.63573334z"  /></svg>
