<?xml version="1.0" standalone="no"?><!DOCTYPE svg PUBLIC "-//W3C//DTD SVG 1.1//EN" "http://www.w3.org/Graphics/SVG/1.1/DTD/svg11.dtd"><svg class="icon" width="200px" height="200.00px" viewBox="0 0 1024 1024" version="1.1" xmlns="http://www.w3.org/2000/svg"><path d="M512 42.43478261C252.66382609 42.43478261 42.43478261 252.66382609 42.43478261 512s210.22904348 469.56521739 469.56521739 469.56521739 469.56521739-210.22904348 469.56521739-469.56521739S771.33617391 42.43478261 512 42.43478261z m0 892.17391304c-233.02643478 0-422.60869565-189.58226087-422.60869565-422.60869565s189.58226087-422.60869565 422.60869565-422.60869565 422.60869565 189.58226087 422.60869565 422.60869565-189.58226087 422.60869565-422.60869565 422.60869565z"  /><path d="M619.98591304 346.46886957c-26.676-23.61913043-63.29269565-35.59304348-108.83582608-35.59304348-43.16243478 0-78.45026087 11.81895652-104.87739131 35.12347826-24.47843478 21.63756522-38.58886957 47.91443478-42.00730435 78.192l63.0626087 7.83704348c5.89304348-22.91947826 15.97930435-40.55165217 30.04278261-52.488 15.44869565-13.02573913 34.73843478-19.63721739 57.33860869-19.6372174 23.4266087 0 42.50034783 6.40017391 56.48869566 18.87182609a60.49408696 60.49408696 0 0 1 21.85356521 46.86730435c0 13.03043478-4.40452174 25.86365217-12.40121739 36.09547826-3.19304348 4.14156522-11.26017391 12.77686957-44.47252174 39.80973913-23.24817391 18.91878261-38.8893913 36.02034783-46.47286956 50.80695652-7.49895652 14.61756522-11.29773913 33.75704348-11.29773913 56.7986087l0.17373913 12.83791304h61.15147826c0.07982609-20.32278261 2.19756522-34.59286957 6.45182609-43.50991304 4.70504348-9.77634783 15.96521739-22.0226087 34.44260869-37.44782609 33.08556522-27.49773913 54.87808696-49.3653913 64.75304348-64.95026087 9.51808696-15.11530435 14.34521739-31.29652174 14.34521739-48.09756522 0.0093913-30.79408696-13.36852174-58.2213913-39.73930435-81.51652173zM478.59043478 651.82243478h61.29234783v61.30173913H478.59043478z"  /></svg>
