<?xml version="1.0" standalone="no"?><!DOCTYPE svg PUBLIC "-//W3C//DTD SVG 1.1//EN" "http://www.w3.org/Graphics/SVG/1.1/DTD/svg11.dtd"><svg t="1619680177683" class="icon" viewBox="0 0 1024 1024" version="1.1" xmlns="http://www.w3.org/2000/svg" p-id="16416" xmlns:xlink="http://www.w3.org/1999/xlink" width="128" height="128"><defs><style type="text/css"></style></defs><path d="M512 961.68421062c248.3368425 0 449.68421062-201.34736813 449.68421062-449.68421062 0-248.3368425-201.34736813-449.68421062-449.68421062-449.68421062C263.6631575 62.31578938 62.31578938 263.6631575 62.31578938 512c0 248.3368425 201.34736813 449.68421062 449.68421062 449.68421062z m0-70.73684249c-209.28 0-378.94736813-169.66736812-378.94736813-378.94736813 0-209.28 169.66736812-378.94736813 378.94736813-378.94736813 209.28 0 378.94736813 169.66736812 378.94736813 378.94736813 0 209.28-169.66736812 378.94736813-378.94736813 378.94736812z m31.88210531-484.26947344a76.57263187 76.57263187 0 1 1 76.54736813 76.54736812 30.31578937 30.31578937 0 1 0 0 60.63157969 137.20421063 137.20421063 0 1 0-137.17894688-137.17894781 30.31578937 30.31578937 0 0 0 60.63157875 0z m-60.63157875 210.4168425a76.54736813 76.54736813 0 1 1-76.57263187-76.57263188 30.31578937 30.31578937 0 0 0 0-60.63157875 137.20421063 137.20421063 0 1 0 137.17894781 137.20421063 30.31578937 30.31578937 0 1 0-60.63157969 0z m0-213.473685v214.88842125h60.63157875v-214.91368407h-60.63157875z" p-id="16417"></path></svg>