<?xml version="1.0" standalone="no"?><!DOCTYPE svg PUBLIC "-//W3C//DTD SVG 1.1//EN" "http://www.w3.org/Graphics/SVG/1.1/DTD/svg11.dtd"><svg t="1571471837750" class="icon" viewBox="0 0 1024 1024" version="1.1" xmlns="http://www.w3.org/2000/svg" p-id="8135" xmlns:xlink="http://www.w3.org/1999/xlink" width="20" height="20"><defs><style type="text/css"></style></defs><path d="M569.85751953 159.77832031a275.85 275.85 0 0 1 217.92832031 269.74335938v212.91416015h9.64248047a79.90751953 79.90751953 0 1 1 0 159.81416016H226.57167969a79.90751953 79.90751953 0 1 1 0-159.81416016h9.64248047v-212.91503906a275.85 275.85 0 0 1 218.18583984-269.80664062V119.85839844a57.79248047 57.79248047 0 0 1 115.52167969 0v39.98496094zM383.17167969 839.85839844h257.78583984c0 71.16416016-57.72919922 115.13496094-128.89335937 115.13496094-71.16416016 0-128.89248047-43.97167969-128.89248047-115.07080079z" p-id="8136"></path></svg>