<?xml version="1.0" standalone="no"?><!DOCTYPE svg PUBLIC "-//W3C//DTD SVG 1.1//EN" "http://www.w3.org/Graphics/SVG/1.1/DTD/svg11.dtd"><svg t="1574327945745" class="icon" viewBox="0 0 1024 1024" version="1.1" xmlns="http://www.w3.org/2000/svg" p-id="3307" xmlns:xlink="http://www.w3.org/1999/xlink" width="200" height="200"><defs><style type="text/css"></style></defs><path d="M663.42299097 172.99330347C766.8200337 172.99330347 851.00669653 254.46791284 851.00669653 355.4919087c0 31.47112132-8.5316682 62.20772902-24.18247778 89.94977635A187.52720436 187.52720436 0 0 1 719.92410692 530.08035692c-12.14773973 3.67257276-21.47042433 5.25460402-29.9455913 5.25460402-20.05789598 0-35.82170726-16.38532399-35.82170726-37.51674097 0-21.07491651 15.65080883-37.51674097 35.76520603-37.51674095 1.41252757 0 4.40708717 0 7.91015625-1.46902958 30.62360524-8.98367723 54.86258348-27.79854933 68.4793528-52.43303538 9.15318092-15.70731005 13.56026808-32.94015088 13.56026807-50.96400659 0-59.15666819-52.0940288-107.80412914-115.77078738-107.8041299-22.03543506 0-43.50585938 6.04561963-62.71623851 17.17633962-33.56166284 20.4534038-53.67606005 54.07156786-53.67606005 90.85379442v313.58119409c0 63.56375536-33.56166284 122.04241038-89.27176394 154.98256204a189.84375 189.84375 0 0 1-97.74693014 26.83803003C257.1799663 851.119699 172.99330347 769.64508962 172.99330347 668.62109375c0-31.47112132 8.5316682-62.15122779 24.18247778-89.94977711A187.52720436 187.52720436 0 0 1 304.07589308 494.08914599c12.93875536-3.67257276 21.47042433-5.25460402 29.9455913-5.25460325 20.05789598 0 35.82170726 16.38532399 35.82170726 37.51674095 0 20.96191406-15.65080883 37.51674097-35.76520603 37.51674097-1.41252757 0-4.40708717 0-7.91015625 1.4690288-30.62360524 9.60518995-54.86258348 28.4765625-68.4793528 52.43303615-9.15318092 15.70731005-13.56026808 32.94015088-13.56026807 50.96400658 0 59.15666819 52.0940288 107.80412914 116.39229932 107.80412914 22.1484375 0 43.5623606-6.04561963 62.71623851-17.17633884 33.56166284-20.34040211 53.50655714-53.95856618 53.50655714-90.6277903v-313.01618336c0-63.50725413 33.44866039-122.04241038 89.27176317-154.98256127A181.59458717 181.59458717 0 0 1 663.42299097 172.99330347z" p-id="3308"></path></svg>
