<?xml version="1.0" standalone="no"?><!DOCTYPE svg PUBLIC "-//W3C//DTD SVG 1.1//EN" "http://www.w3.org/Graphics/SVG/1.1/DTD/svg11.dtd"><svg class="icon" width="200px" height="200.00px" viewBox="0 0 1024 1024" version="1.1" xmlns="http://www.w3.org/2000/svg"><path fill="#333333" d="M861.7 307.4l-41.7-0.1v-48.8c0-48.8-39.7-88.5-88.5-88.5h-549c-48.8 0-88.5 39.7-88.5 88.5V421c0 48.8 39.7 88.5 88.5 88.5h549c48.8 0 88.5-39.7 88.5-88.5v-56.7l41.5 0.1c6.3 0 11.5 5.2 11.5 11.5V541c0 6.3-5.2 11.5-11.5 11.5h-389c-37.8 0-68.5 30.7-68.5 68.5v53.5h-41c-24.3 0-44 19.7-44 44v157c0 24.3 19.7 44 44 44h140c24.3 0 44-19.7 44-44v-157c0-24.3-19.7-44-44-44h-42V621c0-6.3 5.2-11.5 11.5-11.5h389c37.8 0 68.5-30.7 68.5-68.5V375.9c0-37.7-30.7-68.4-68.3-68.5zM763 421c0 17.4-14.1 31.5-31.5 31.5h-549c-17.4 0-31.5-14.1-31.5-31.5V258.5c0-17.4 14.1-31.5 31.5-31.5h549c17.4 0 31.5 14.1 31.5 31.5V421zM499 722.5v149H367v-149h132z" /></svg>