<?xml version="1.0" standalone="no"?><!DOCTYPE svg PUBLIC "-//W3C//DTD SVG 1.1//EN" "http://www.w3.org/Graphics/SVG/1.1/DTD/svg11.dtd"><svg class="icon" width="200px" height="200.00px" viewBox="0 0 1024 1024" version="1.1" xmlns="http://www.w3.org/2000/svg"><path d="M515.072 36.352c-261.14616889 0-473.6 212.45496889-473.6 473.6 0 261.14048 212.45383111 473.6 473.6 473.6S988.672 771.09816889 988.672 509.952 776.21248 36.352 515.072 36.352z m0 870.4c-218.79239111 0-396.8-178.00760889-396.8-396.8S296.27392 113.152 515.072 113.152 911.872 291.15960889 911.872 509.952 733.86439111 906.752 515.072 906.752z"  /><path d="M626.176 266.752c-27.58656 0-53.9648 7.19872-75.91936 20.59264C506.10631111 312.25400889 479.744 356.0448 479.744 404.48v214.016c0 20.34119111-11.95576889 39.35232-31.81568 50.76423111-12.14464 6.74360889-25.21088 10.16376889-38.84032 10.16376889-38.95751111 0-70.656-27.33624889-70.656-60.928 0-10.26048 2.62599111-19.70631111 7.936-28.27832889 8.15104-13.73184 23.01383111-24.42695111 41.84519111-30.12039111l1.05472-0.36864c0.27192889-0.11264 0.36408889-0.11264 0.87608889-0.11264 21.53472 0 38.4-16.86528 38.4-38.4s-16.86528-38.4-38.4-38.4c-7.34663111 0-14.57152 1.17191111-25.14944 4.11648-35.6864 10.59271111-65.54624 33.13208889-84.16256 63.58471111-12.56448 21.13080889-19.20568889 44.63616-19.20568889 67.97880889 0 75.94439111 66.14584889 137.728 147.456 137.728 27.00856889 0 53.46417778-6.95864889 76.43136-20.08632889 44.15032889-24.89799111 70.50808889-68.68992 70.50808889-117.12967111V404.48c0-20.33664 11.95463111-39.35232 31.81568-50.76423111 12.14008889-6.74360889 25.21088-10.16376889 38.84487111-10.16376889 38.67648 0 70.13944889 27.33056 70.13944889 60.928 0 10.26048-2.62712889 19.70631111-8.01336889 28.42624-8.10439111 14.07431111-22.84544 24.69319111-41.50272 29.89624889l-1.31982222 0.44487111c-0.26168889 0.11264-0.35384889 0.11264-0.86584889 0.11264-21.53472 0-38.4 16.86528-38.4 38.4s16.86528 38.4 38.4 38.4c7.60832 0 15.59552-1.30503111 25.14944-4.11648 35.69208889-10.59271111 65.55079111-33.13208889 84.15687111-63.58016 12.56448-21.12967111 19.20568889-44.63616 19.20568889-67.98336 0-75.94552889-66.1504-137.728-147.456-137.728z"  /></svg>
