<?xml version="1.0" standalone="no"?><!DOCTYPE svg PUBLIC "-//W3C//DTD SVG 1.1//EN" "http://www.w3.org/Graphics/SVG/1.1/DTD/svg11.dtd"><svg class="icon" width="200px" height="200.00px" viewBox="0 0 1024 1024" version="1.1" xmlns="http://www.w3.org/2000/svg"><path fill="#333333" d="M512 919.6c-55 0-108.4-10.8-158.7-32-48.5-20.5-92.1-49.9-129.6-87.3-37.4-37.4-66.8-81-87.3-129.6-21.3-50.3-32-103.7-32-158.7s10.8-108.4 32-158.7c20.5-48.5 49.9-92.1 87.3-129.6 37.4-37.4 81-66.8 129.6-87.3 50.3-21.3 103.7-32 158.7-32s108.4 10.8 158.7 32c48.5 20.5 92.1 49.9 129.6 87.3 37.4 37.4 66.8 81 87.3 129.6 21.3 50.3 32 103.7 32 158.7s-10.8 108.4-32 158.7c-20.5 48.5-49.9 92.1-87.3 129.6-37.4 37.4-81 66.8-129.6 87.3-50.3 21.2-103.7 32-158.7 32z m0-756.2c-93.1 0-180.7 36.3-246.5 102.1-65.9 65.8-102.1 153.4-102.1 246.5s36.3 180.7 102.1 246.5c65.8 65.8 153.4 102.1 246.5 102.1s180.7-36.3 246.5-102.1c65.8-65.8 102.1-153.4 102.1-246.5s-36.3-180.7-102.1-246.5C692.7 199.6 605.1 163.4 512 163.4zM482.2 515.5c0.1-0.8 0.2-1.5 0.4-2.3l2.1-12.5c0-0.2 0.1-0.4 0.1-0.7L502 394.9c11.3-68 75.5-114 143.5-102.8 68 11.2 114 75.5 102.8 143.5-11.2 68-75.4 114.1-143.4 102.9-15.8-2.6-26.4-17.5-23.8-33.2 2.6-15.8 17.5-26.4 33.2-23.8 36.5 6 71-18.7 77-55.2s-18.7-71-55.2-77-71 18.7-77.1 55.2l-17.2 104.2c-0.1 0.8-0.2 1.5-0.4 2.3h0.1L522 629.1c-11.3 68-75.5 114-143.5 102.8-68-11.2-114-75.5-102.8-143.5 11.2-68 75.4-114.1 143.4-102.9 15.8 2.6 26.4 17.5 23.8 33.2-2.6 15.8-17.5 26.4-33.2 23.8-36.5-6-71 18.7-77 55.2s18.7 71 55.2 77 71-18.7 77.1-55.2l17.2-104z" /></svg>