<?xml version="1.0" standalone="no"?><!DOCTYPE svg PUBLIC "-//W3C//DTD SVG 1.1//EN" "http://www.w3.org/Graphics/SVG/1.1/DTD/svg11.dtd"><svg t="1651124385795" class="icon" viewBox="0 0 1024 1024" version="1.1" xmlns="http://www.w3.org/2000/svg" p-id="15562" xmlns:xlink="http://www.w3.org/1999/xlink" width="200" height="200"><defs><style type="text/css"></style></defs><path d="M813.75999969 836.28000031c22.96000031 0 35.20000031 10.8 36.88000031 32.4l0.19999969 5.19999938c0 25.03999969-12.40000031 37.60000031-37.08 37.60000031H199.64c-22.92 0-35.20000031-10.8-36.88000031-32.4l-0.15999938-5.20000031c0-25.03999969 12.36-37.60000031 37.03999969-37.59999938h614.11999969z m-307.03999969-359.72000062c20.44000031 0 37.03999969 16.8 37.03999969 37.60000031v214.75999969c0 20.76-16.60000031 37.60000031-37.03999969 37.60000031a37.32 37.32 0 0 1-37.08-37.60000031v-214.8c0-20.71999969 16.60000031-37.56 37.08-37.56zM189.03999969 422.88000031c20.47999969 0 37.08 16.8 37.08 37.59999938v268.40000062c0 20.80000031-16.60000031 37.60000031-37.08 37.59999938a37.32 37.32 0 0 1-37.03999969-37.59999938v-268.40000062c0-20.80000031 16.60000031-37.60000031 37.03999969-37.59999938zM824.40000031 369.2c20.44000031 0 37.03999969 16.8 37.03999969 37.60000031v322.11999938c0 20.76-16.60000031 37.60000031-37.03999969 37.60000031a37.32 37.32 0 0 1-37.08-37.60000031V406.76c0-20.76 16.60000031-37.60000031 37.08-37.60000031z m6.79999969-257.20000031c20.4 0 37.03999969 16.8 37.03999969 37.60000031a37.99999969 37.99999969 0 0 1-2.16 12.64000031 37.68 37.68 0 0 1-16.39999969 21.07999969L505.59999969 392.36a36.67999969 36.67999969 0 0 1-45.72-6.12L336.27999969 256.95999969 209.76000031 311.40000031a36.88000031 36.88000031 0 0 1-48.12-20.12000062 37.8 37.8 0 0 1 19.2-49.08L330.8 177.72000031a36.67999969 36.67999969 0 0 1 41.08000031 8.4l120.75999938 126.39999938 206.32000031-125.35999969h-33.84a37.24000031 37.24000031 0 0 1-36.79999969-33.19999969l-0.28000031-4.40000062c0-20.71999969 16.60000031-37.56 37.08-37.56z" p-id="15563"></path></svg>