<?xml version="1.0" standalone="no"?><!DOCTYPE svg PUBLIC "-//W3C//DTD SVG 1.1//EN" "http://www.w3.org/Graphics/SVG/1.1/DTD/svg11.dtd"><svg class="icon" width="200px" height="193.57px" viewBox="0 0 1058 1024" version="1.1" xmlns="http://www.w3.org/2000/svg"><path d="M789.4016 307.84c123.93984 0 224.45056 95.7696 224.45056 213.94432 0 118.144-100.51072 213.92384-224.45056 213.92384h-32.06144c-17.70496 0-32.06144-8.52992-32.06144-25.43104 0-16.88064 14.35648-25.46176 32.06144-25.46176h32.06144c88.5504 0 175.68256-78.63808 175.68256-163.0464 0-84.40832-76.89216-157.94176-165.44256-157.94176a153.45664 153.45664 0 0 0-27.88864 2.432 33.21344 33.21344 0 0 1-25.10336-5.19168c-7.22944-4.97664-11.96544-12.63104-13.056-21.08416-13.51168-90.36288-104.90368-162.62656-200.66816-162.62656S350.85312 244.51072 337.35168 334.8736c-1.08032 8.448-5.79072 16.10752-13.04576 21.08416a33.21856 33.21856 0 0 1-25.12384 5.19168 153.35936 153.35936 0 0 0-27.88352-2.432c-88.52992 0-165.42208 78.65344-165.42208 163.06176 0 84.38784 82.01216 163.0464 170.54208 163.0464h32.0768c17.72544 0 32.0512 8.576 32.0512 25.45664 0 16.90112-14.32576 25.43104-32.0512 25.43104h-32.0768c-123.93984 0-224.41984-95.77984-224.41984-213.91872 0-118.17472 100.48-213.94432 224.41984-213.94432h8.33536c29.50144-107.6224 131.48672-182.69184 248.1664-182.69184 116.6592 0 218.64448 75.07456 248.15104 182.69184l8.33024-0.01024z"  /><path d="M672.31232 705.37216c-9.99936-9.99936-26.80832-9.39008-37.56544 1.36192l-76.22144 76.22656v-247.3472c0-13.29152-11.45856-24.05888-25.6-24.05888-14.13632 0-25.6 10.77248-25.6 24.05888v247.3472L431.104 706.72384c-10.75712-10.74688-27.5712-11.35616-37.56544-1.3568-9.99424 9.98912-9.39008 26.8032 1.36192 37.56032l118.56384 118.55872c0.14336 0.14848 0.31744 0.27136 0.48128 0.39424 0.61952 0.65024 1.26976 1.25952 1.96096 1.8432a23.94112 23.94112 0 0 0 11.75552 5.68832c0.60928 0.11264 1.26464 0.11264 1.8944 0.19968 0.768 0.08192 1.53088 0.2304 2.304 0.24064 0.2304 0.02048 0.45568 0.03072 0.68096 0.04096 0.128 0 0.256 0.04096 0.384 0.04096s0.26112-0.04096 0.39936-0.04096l0.66048-0.04096c0.75264-0.01024 1.50528-0.15872 2.2528-0.24064 0.65024-0.08192 1.32608-0.08192 1.95584-0.19968a23.94624 23.94624 0 0 0 11.648-5.62176c0.7424-0.6144 1.42336-1.2544 2.08384-1.9456 0.14848-0.11264 0.3072-0.2304 0.44544-0.36864l118.56896-118.56384c10.76224-10.73152 11.3664-27.5456 1.37216-37.53984z"  /></svg>
