<?xml version="1.0" standalone="no"?><!DOCTYPE svg PUBLIC "-//W3C//DTD SVG 1.1//EN" "http://www.w3.org/Graphics/SVG/1.1/DTD/svg11.dtd"><svg class="icon" width="200px" height="193.57px" viewBox="0 0 1058 1024" version="1.1" xmlns="http://www.w3.org/2000/svg"><path d="M812.37333333 395.6736c-43.14453333-123.42613333-161.10933333-212.44586667-300.37333333-212.44586667-140.9024 0-258.8672 86.28906667-300.37333333 212.44586667 0-0.54613333 0-0.54613333 0 0-85.74293333 19.11466667-150.18666667 95.57333333-150.18666667 186.7776 0 105.94986667 86.28906667 191.6928 193.3312 191.6928H293.54666667v-61.16693333h-38.77546667c-72.63573333 0-131.61813333-58.43626667-131.61813333-129.97973334 0-60.07466667 43.14453333-113.59573333 102.12693333-126.70293333l33.31413333-7.64586667 11.4688-32.768C303.9232 311.56906667 398.9504 244.39466667 512 244.39466667c109.22666667 0 206.98453333 68.8128 242.4832 170.93973333l10.92266667 32.22186667 33.31413333 7.64586666c59.52853333 13.1072 102.12693333 66.62826667 102.12693333 126.70293334 0 71.54346667-58.9824 129.97973333-131.61813333 129.97973333H730.45333333v61.16693333h39.3216c106.496 0 193.3312-85.74293333 193.3312-191.6928-0.54613333-90.112-64.44373333-166.57066667-150.7328-185.68533333z"  /><path d="M615.2192 644.16426667L544.768 722.26133333v-218.45333333c0-18.0224-14.7456-32.768-32.768-32.768s-32.768 14.7456-32.768 32.768v218.45333333l-70.4512-78.09706666c-12.01493333-13.65333333-32.768-14.7456-46.42133333-2.18453334-13.65333333 12.01493333-14.7456 32.768-2.18453334 46.42133334l127.24906667 141.44853333c6.00746667 7.09973333 15.29173333 10.92266667 24.576 10.92266667s18.0224-3.82293333 24.576-10.92266667l127.24906667-141.44853333c12.01493333-13.65333333 10.92266667-34.4064-2.18453334-46.42133334s-34.4064-10.92266667-46.42133333 2.18453334z"  /></svg>
