<?xml version="1.0" standalone="no"?><!DOCTYPE svg PUBLIC "-//W3C//DTD SVG 1.1//EN" "http://www.w3.org/Graphics/SVG/1.1/DTD/svg11.dtd"><svg t="1618460196790" class="icon" viewBox="0 0 1024 1024" version="1.1" xmlns="http://www.w3.org/2000/svg" p-id="16649" xmlns:xlink="http://www.w3.org/1999/xlink" width="128" height="128"><defs><style type="text/css"></style></defs><path d="M512 512m-512 0a512 512 0 1 0 1024 0 512 512 0 1 0-1024 0Z" fill="#8C8C8C" p-id="16650"></path><path d="M529.088 657.344c0-23.744 4.864-46.336 13.632-66.88a48.576 48.576 0 0 1-8.704-24.768 69.76 69.76 0 0 1 1.28-18.176c1.536-9.92 4.672-17.024 9.472-21.12 4.736-4.224 10.88-9.216 18.432-15.232a39.424 39.424 0 0 0 8.64-11.648c2.56-4.928 4.864-10.048 6.848-15.168 1.92-5.952 3.968-12.352 5.888-19.072a30.656 30.656 0 0 0 11.328-6.528 39.424 39.424 0 0 0 8.64-11.648 54.784 54.784 0 0 0 5.056-19.904 47.168 47.168 0 0 0-0.32-16.128 36.992 36.992 0 0 0-3.904-10.752 20.48 20.48 0 0 0-6.528-7.68c0-16.32-0.96-32.448-3.008-48.32a272.64 272.64 0 0 0-10.112-43.84 124.8 124.8 0 0 0-22.592-41.984 90.88 90.88 0 0 0-18.112-16.704 150.528 150.528 0 0 0-26.496-14.912 175.552 175.552 0 0 0-31.808-10.432 155.328 155.328 0 0 0-34.176-3.904c-9.152 0-18.56 0.64-28.288 2.112a124.544 124.544 0 0 0-57.728 24.448c-9.344 6.976-17.792 16-25.28 27.136-8.32 11.52-14.592 24.64-18.752 39.36a281.344 281.344 0 0 0-11.072 86.464 37.888 37.888 0 0 0-7.68 12.544 55.232 55.232 0 0 0-3.328 14.336 41.792 41.792 0 0 0 2.688 18.432 46.976 46.976 0 0 0 14.848 23.872c2.816 1.92 5.568 3.328 8.32 4.16 1.92 6.784 4.032 13.12 5.952 19.072 1.92 5.12 4.224 10.24 6.528 15.232a36.48 36.48 0 0 0 8.32 11.584c6.784 5.568 12.928 11.072 18.432 16.448a33.28 33.28 0 0 1 9.6 21.76c0.32 6.4 0.576 12.16 0.576 17.28 0 5.248-1.024 10.176-3.008 14.976a49.6 49.6 0 0 1-9.6 14.336 89.984 89.984 0 0 1-19.008 14.912c-10.688 6.72-23.04 11.904-36.864 15.488-13.888 3.648-27.264 7.68-40.128 12.224a116.928 116.928 0 0 0-33.92 18.496c-9.728 7.68-15.616 18.944-17.536 33.664-3.968 25.792-4.864 46.848-2.688 63.232 2.176 16.256 5.248 25.984 9.216 29.248 2.368 1.984 8.064 3.968 17.28 5.888 9.088 1.92 20.224 4.032 33.28 5.952 12.992 1.92 27.648 3.84 43.712 5.76 16 1.728 32.256 3.328 48.448 4.736 16.256 1.408 32 2.496 47.232 3.328 15.36 0.832 28.672 1.152 40.128 1.152 11.52 0 25.024-0.32 40.704-1.152a1585.152 1585.152 0 0 0 111.36-9.856 171.648 171.648 0 0 1-75.2-141.824z m170.24-139.136a139.136 139.136 0 1 0 0 278.272 139.136 139.136 0 0 0 0-278.272z m76.672 160.32h-54.72v55.488h-42.048v-55.488h-55.488v-42.048h55.488V581.76h42.048v54.72h54.72v42.048z" fill="#FFFFFF" p-id="16651"></path></svg>