<?xml version="1.0" standalone="no"?><!DOCTYPE svg PUBLIC "-//W3C//DTD SVG 1.1//EN" "http://www.w3.org/Graphics/SVG/1.1/DTD/svg11.dtd"><svg class="icon" width="200px" height="200.00px" viewBox="0 0 1024 1024" version="1.1" xmlns="http://www.w3.org/2000/svg"><path fill="#333333" d="M826.9 263.5H661.2c-12.6-71-74.7-125-149.2-125s-136.6 54-149.2 125H197.1c-51.1 0-92.6 38.5-92.6 85.8v450.4c0 47.3 41.5 85.8 92.6 85.8h629.8c51.1 0 92.6-38.5 92.6-85.8V349.3c0-47.3-41.5-85.8-92.6-85.8z m-314.9-66c41.8 0 77.2 27.9 88.6 66H423.4c11.4-38.1 46.8-66 88.6-66z m348.5 602.2c0 14.5-15.4 26.8-33.6 26.8H197.1c-18.2 0-33.6-12.3-33.6-26.8V490.5h697v309.2z m0-368.2h-697v-82.2c0-14.5 15.4-26.8 33.6-26.8h629.8c18.2 0 33.6 12.3 33.6 26.8v82.2z" /></svg>