<?xml version="1.0" standalone="no"?><!DOCTYPE svg PUBLIC "-//W3C//DTD SVG 1.1//EN" "http://www.w3.org/Graphics/SVG/1.1/DTD/svg11.dtd"><svg t="1613995469640" class="icon" viewBox="0 0 1024 1024" version="1.1" xmlns="http://www.w3.org/2000/svg" p-id="40951" xmlns:xlink="http://www.w3.org/1999/xlink" width="200" height="200"><defs><style type="text/css"></style></defs><path d="M757 922.6H629.9c-17.5 0-33.8-9.4-42.6-24.6l-63.6-110.1c-8.8-15.2-8.8-34 0-49.2l63.6-110.1c8.8-15.2 25.1-24.6 42.6-24.6H757c17.5 0 33.8 9.4 42.6 24.6l63.6 110.1c8.8 15.2 8.8 34 0 49.2L799.6 898c-8.8 15.2-25.1 24.6-42.6 24.6zM629.9 652.1c-0.4 0-0.8 0.2-1 0.6l-63.6 110.1c-0.2 0.4-0.2 0.8 0 1.2l63.5 110c0.2 0.4 0.6 0.6 1 0.6H757c0.4 0 0.8-0.2 1-0.6l63.6-110.1c0.2-0.4 0.2-0.8 0-1.2L758 652.6c-0.2-0.4-0.6-0.6-1-0.6H629.9z" p-id="40952"></path><path d="M480 928.1H249c-55.3 0-100.2-43.7-100.2-97.4V192.6c0-53.7 45-97.4 100.2-97.4h451.3c55.3 0 100.2 43.7 100.2 97.4v345.1h-59V192.6c0-21.2-18.5-38.4-41.2-38.4H249c-22.7 0-41.2 17.2-41.2 38.4v638.1c0 21.2 18.5 38.4 41.2 38.4h231v59z" p-id="40953"></path><path d="M349.3 361.5c-16.2 0-29.4-13.1-29.5-29.3-0.1-16.3 13-29.6 29.3-29.7l251.4-1.7h0.2c16.2 0 29.4 13.1 29.5 29.3 0.1 16.3-13 29.6-29.3 29.7l-251.4 1.7h-0.2zM349.3 528c-16.2 0-29.4-13.1-29.5-29.3-0.1-16.3 13-29.6 29.3-29.7l251.4-1.7h0.2c16.2 0 29.4 13.1 29.5 29.3 0.1 16.3-13 29.6-29.3 29.7L349.5 528h-0.2zM349.3 693.3c-16.3 0-29.5-13.2-29.5-29.4 0-16.3 13.1-29.5 29.4-29.6l106.1-0.3h0.1c16.3 0 29.5 13.2 29.5 29.4 0 16.3-13.1 29.5-29.4 29.6l-106.2 0.3z" p-id="40954"></path></svg>