<?xml version="1.0" standalone="no"?><!DOCTYPE svg PUBLIC "-//W3C//DTD SVG 1.1//EN" "http://www.w3.org/Graphics/SVG/1.1/DTD/svg11.dtd"><svg t="1571797227786" class="icon" viewBox="0 0 1024 1024" version="1.1" xmlns="http://www.w3.org/2000/svg" p-id="8018" xmlns:xlink="http://www.w3.org/1999/xlink" width="20" height="20"><defs><style type="text/css"></style></defs><path d="M691.961856 631.05706667H333.529088c-16.61883733 0-30.22848 13.13450667-30.22848 29.261824 0 16.089088 13.50587733 29.229056 30.22848 29.229056h358.432768c16.53691733 0 30.04279467-13.03074133 30.212096-29.05975467v-0.098304c0-16.30208-13.57141333-29.33282133-30.212096-29.33282133z" p-id="8019"></path><path d="M860.32930133 295.98242133a30.39778133 30.39778133 0 0 0-19.77002666-11.75825066 30.84014933 30.84014933 0 0 0-22.41877334 5.193728L593.14449067 447.44704 455.67726933 336.920576c-10.75336533-8.71082667-26.74414933-8.90743467-37.961728-0.57890133L229.22308267 480.78848V203.01960533c0-11.19573333 9.47541333-20.348928 21.04797866-20.348928h524.85597867c11.60533333 0 21.05890133 9.15319467 21.05890133 20.348928v34.18794667c0 16.105472 13.51133867 29.23997867 30.25578667 29.23997867 16.60245333 0 30.212096-13.12904533 30.212096-29.23997867v-34.18794667c0-43.4176-36.47624533-78.774272-81.32471467-78.774272H250.2656c-43.01346133 0-78.675968 32.59869867-81.24279467 74.14306134v618.28846933c2.48490667 41.549824 38.22933333 74.14306133 81.24279467 74.14306133h524.85597867c44.85393067 0 81.330176-35.35121067 81.330176-78.774272 0-0.851968 0-1.66570667-0.07099734-2.51221333 0.07099733-0.81373867 0.07099733-1.671168 0.07099734-2.48490667V413.11163733c0-16.11093333-13.47310933-29.261824-30.212096-29.261824-16.646144 0-30.21755733 13.15089067-30.21755734 29.261824v393.94235734c0 0.81373867 0 1.671168 0.065536 2.48490666-0.065536 0.84650667-0.065536 1.66024533-0.065536 2.51221334 0 11.20119467-9.49725867 20.381696-21.06436266 20.381696H250.18368c-11.58894933 0-21.04797867-9.18596267-21.04797867-20.381696v-256.73728l206.60224-158.31313067 136.75178667 109.89294933 0.10376533 0.098304c10.55675733 8.339456 25.72834133 8.781824 36.82030934 1.114112l243.83761066-171.180032c6.53175467-4.54929067 10.85166933-11.21757867 12.11323734-18.890752 1.56740267-7.880704-0.33314133-15.65764267-5.03534934-22.052864z m0 0" p-id="8020"></path></svg>
