<?xml version="1.0" standalone="no"?><!DOCTYPE svg PUBLIC "-//W3C//DTD SVG 1.1//EN" "http://www.w3.org/Graphics/SVG/1.1/DTD/svg11.dtd"><svg class="icon" width="200px" height="193.57px" viewBox="0 0 1058 1024" version="1.1" xmlns="http://www.w3.org/2000/svg"><path d="M662.481991 895.236183H474.85067l63.649332 63.656983c14.502331 14.499781 14.502331 37.991951 0 52.491731-14.498506 14.501056-37.9843 14.501056-52.48408 0l-127.024507-127.024506c-23.342977-23.342977-6.811875-63.366248 26.246503-63.366249h277.09488c170.814585 0 309.288703-138.472843 309.288703-309.279777 0-90.626499-39.145965-174.874676-106.287946-233.312452-15.512253-13.479657-17.104921-36.971827-3.623989-52.345089 13.487308-15.510978 36.978203-17.111297 52.348914-3.623989 83.086511 72.352261 131.663519 176.904722 131.663519 289.28153 0.28691 211.696035-171.396055 383.521817-383.240008 383.521818zM486.448199 670.925045V411.806017h-36.830285c-20.43945 0-37.119745-16.676469-37.119745-37.122295 0-20.447101 16.68157-37.12102 37.119745-37.12102h73.952581c20.447101 0 37.12102 16.673919 37.12102 37.12102v296.241323c0 20.440725-16.673919 37.112094-37.12102 37.112094a37.001156 37.001156 0 0 1-37.122296-37.112094z m-101.209005-542.891891h187.62877L509.218632 64.382546c-14.499781-14.501056-14.499781-37.991951 0-52.493006s37.985575-14.499781 52.48663 0l127.024507 127.016856c23.342977 23.351903 6.8106 63.367523-26.247778 63.367523H385.239194c-170.809484 0-309.289978 138.480494-309.289979 309.289978 0 90.626499 39.152341 174.869576 106.289221 233.303527 15.510978 13.486033 17.110022 36.979478 3.623989 52.350189-13.488583 15.514804-36.971827 17.106196-52.342538 3.625264-83.085236-72.358637-131.662243-176.902172-131.662244-289.27898-0.144092-211.702411 171.536322-383.530743 383.381551-383.530743z m0 0"  /></svg>
