<?xml version="1.0" standalone="no"?><!DOCTYPE svg PUBLIC "-//W3C//DTD SVG 1.1//EN" "http://www.w3.org/Graphics/SVG/1.1/DTD/svg11.dtd"><svg class="icon" width="200px" height="193.57px" viewBox="0 0 1058 1024" version="1.1" xmlns="http://www.w3.org/2000/svg"><path d="M502.784 914.432c-8.192 0-15.872-3.072-21.504-9.216l-99.84-99.84c-8.704-8.704-11.264-21.504-6.656-33.28 4.608-11.776 15.872-18.944 28.16-18.944h217.6c133.12 0 241.152-108.032 241.152-241.152 0-69.632-30.208-136.192-82.944-181.76-6.144-5.632-9.728-12.8-10.24-20.992-0.512-8.192 2.048-15.872 7.68-22.016 5.632-6.656 14.336-10.752 23.04-10.752 7.168 0 14.336 2.56 19.968 7.68 66.048 57.344 103.936 140.8 103.936 228.352 0 80.896-31.232 156.672-88.576 214.016-57.344 57.344-133.12 88.576-214.016 88.576h-143.36l47.104 47.104c5.632 5.632 9.216 13.312 9.216 21.504s-3.072 15.872-9.216 21.504c-5.632 5.632-13.312 9.216-21.504 9.216zM224.768 747.52c-7.168 0-14.336-2.56-19.968-7.68-66.048-57.344-103.936-140.8-103.936-228.352 0-80.896 31.232-156.672 88.576-214.016 57.344-57.344 133.12-88.576 214.016-88.576h143.36l-47.104-47.104c-5.632-5.632-9.216-13.312-9.216-21.504s3.072-15.872 9.216-21.504c5.632-5.632 13.312-9.216 21.504-9.216s15.872 3.072 21.504 9.216l99.84 99.84c8.704 8.704 11.264 21.504 6.656 33.28-4.608 11.776-15.872 18.944-28.16 18.944H403.456c-133.12 0-241.152 108.032-241.152 241.152 0 69.632 30.208 136.192 82.944 181.76 6.144 5.632 9.728 12.8 10.24 20.992 0.512 8.192-2.048 15.872-7.68 22.016-5.632 7.168-14.336 10.752-23.04 10.752z m286.72-79.872c-8.192 0-15.872-3.072-21.504-8.704s-9.216-13.824-8.704-21.504V435.2h-27.136c-16.896 0-30.72-13.824-30.72-30.72s13.824-30.72 30.72-30.72H512c16.896 0 30.72 13.824 30.72 30.72v232.448c0 16.896-13.824 30.72-31.232 30.72z"  /></svg>
