<?xml version="1.0" standalone="no"?><!DOCTYPE svg PUBLIC "-//W3C//DTD SVG 1.1//EN" "http://www.w3.org/Graphics/SVG/1.1/DTD/svg11.dtd"><svg t="1595842133121" class="icon" viewBox="0 0 1024 1024" version="1.1" xmlns="http://www.w3.org/2000/svg" p-id="11258" xmlns:xlink="http://www.w3.org/1999/xlink" width="200" height="200"><defs><style type="text/css"></style></defs><path d="M213.76 306.432V181.504h596.096c0.064 0.064 0.832 0.576 0.832 1.792v657.408c0 1.28-0.64 1.792-0.768 1.792H213.76v-124.928H160v113.792c0 35.712 28.928 64.64 64.64 64.64h585.28a54.784 54.784 0 0 0 54.08-55.296V183.296A54.784 54.784 0 0 0 809.92 128H224.64A64.64 64.64 0 0 0 160 192.64v113.792h53.76z m356.416 173.376H160.768v63.232h410.56L397.44 717.568l37.696 37.824 220.864-221.824a30.72 30.72 0 0 0 0-43.264L435.136 268.608l-37.696 37.824 172.736 173.376z" p-id="11259" fill="#2c2c2c"></path></svg>