<?xml version="1.0" standalone="no"?><!DOCTYPE svg PUBLIC "-//W3C//DTD SVG 1.1//EN" "http://www.w3.org/Graphics/SVG/1.1/DTD/svg11.dtd"><svg class="icon" width="200px" height="200.00px" viewBox="0 0 1024 1024" version="1.1" xmlns="http://www.w3.org/2000/svg"><path d="M783.872 138.24H244.224c-49.664 0-90.112 40.448-90.112 90.112V768c0 49.664 40.448 90.112 90.112 90.112h539.648c49.664 0 90.112-40.448 90.112-90.112V228.352c0-49.664-40.448-90.112-90.112-90.112z m-58.368 258.56l-219.648 268.288c-8.192 8.704-19.456 13.312-31.744 13.312h-0.512c-11.776 0-23.552-5.12-31.744-13.824l-140.8-149.504c-17.408-17.92-16.896-47.104 0.512-65.024s46.08-17.408 63.488 0.512l109.568 116.736 187.392-236.032c17.92-17.92 46.08-17.408 63.488 0.512 17.92 17.92 17.92 47.104 0 65.024z" /></svg>
