<?xml version="1.0" standalone="no"?><!DOCTYPE svg PUBLIC "-//W3C//DTD SVG 1.1//EN" "http://www.w3.org/Graphics/SVG/1.1/DTD/svg11.dtd"><svg class="icon" width="200px" height="200.00px" viewBox="0 0 1024 1024" version="1.1" xmlns="http://www.w3.org/2000/svg"><path d="M742.4 820.736H281.6c-16.896 0-30.72 13.824-30.72 30.72s13.824 30.72 30.72 30.72h460.8c16.896 0 30.72-13.824 30.72-30.72s-13.824-30.72-30.72-30.72zM261.632 598.016c4.608 2.56 9.728 3.584 14.848 3.584 10.752 0 21.504-5.632 27.136-15.872L346.624 506.88 399.36 587.776c5.632 9.216 15.872 14.336 26.624 13.824 10.752-0.512 20.48-6.144 25.6-15.36l78.336-138.24 75.776 137.728c5.632 10.24 16.384 16.384 27.648 15.872 11.264-0.512 22.016-7.168 26.624-17.408L774.656 348.16c7.68-15.36 1.024-33.792-14.336-40.96-15.36-7.68-33.792-1.024-40.96 14.336l-89.088 182.272-73.728-134.144c-5.12-9.728-15.36-15.872-26.624-15.872-10.752 0-21.504 5.632-27.136 15.36L423.424 512 370.176 430.08c-5.632-9.216-15.872-14.336-27.136-13.824-10.752 0.512-20.48 6.656-25.6 15.872l-68.096 123.904c-8.192 15.36-3.072 33.792 12.288 41.984z"  /><path d="M870.4 141.824H153.6c-28.16 0-51.2 23.04-51.2 51.2v521.216c0 28.16 23.04 51.2 51.2 51.2h716.8c28.16 0 51.2-23.04 51.2-51.2V193.024c0-28.672-23.04-51.2-51.2-51.2z m-10.24 561.664H163.84V203.264h696.32v500.224z"  /></svg>
