<?xml version="1.0" standalone="no"?><!DOCTYPE svg PUBLIC "-//W3C//DTD SVG 1.1//EN" "http://www.w3.org/Graphics/SVG/1.1/DTD/svg11.dtd"><svg class="icon" width="200px" height="193.57px" viewBox="0 0 1058 1024" version="1.1" xmlns="http://www.w3.org/2000/svg"><path d="M559.52 486.08h12c24.48 0 72.48-0.96 121.92-8.16 67.2-9.6 112.32-26.88 136.8-52.32 31.68-33.12 49.44-76.8 49.44-123.36s-17.76-90.24-49.44-123.36c-31.68-33.12-74.4-50.88-119.04-50.88-45.12 0-87.36 18.24-119.04 50.88-27.84 28.8-45.6 84-53.76 168-5.76 58.56-4.8 109.44-4.8 111.84 0 15.36 11.52 27.36 25.92 27.36z m35.52-133.44c9.12-91.68 27.84-123.36 37.92-133.92 21.12-21.6 48.48-33.6 77.76-33.6s57.12 12 77.76 33.6c21.6 22.08 33.12 51.84 33.12 83.04 0 31.68-12 60.96-33.12 83.52-8.64 9.12-33.6 25.44-103.68 35.52-35.04 5.28-69.6 6.72-94.08 7.2 0.48-18.72 1.44-46.08 4.32-75.36zM693.44 545.6c-49.44-7.2-97.44-8.16-121.92-8.16h-12c-14.4 0.48-25.92 12.48-26.4 27.36 0 2.4-0.96 52.8 4.8 111.84 8.16 84.48 25.92 139.2 53.76 168 31.68 33.12 74.4 50.88 119.04 50.88s87.36-18.24 119.04-50.88c65.76-68.16 65.76-178.56 0-246.72-24.48-25.44-69.12-42.24-136.32-52.32z m95.52 259.2c-21.12 21.6-48.48 33.6-77.76 33.6s-57.12-12-77.76-33.6c-10.08-10.56-28.8-42.24-37.92-133.92-2.88-29.28-3.84-56.16-4.32-75.84 24.48 0.48 59.04 2.4 94.08 7.2 70.08 10.08 95.04 26.4 103.68 35.52 44.16 46.56 44.16 121.44 0 167.04zM464.48 537.92h-12c-24.48 0-72.48 0.96-121.92 8.16-67.2 9.6-112.32 26.88-136.8 52.32-65.76 68.16-65.76 178.56 0 246.72 31.68 33.12 74.4 50.88 119.04 50.88 45.12 0 87.36-18.24 119.04-50.88 27.84-28.8 45.6-84 53.76-168 5.76-58.56 4.8-109.44 4.8-111.84 0-15.36-11.52-27.36-25.92-27.36z m-35.52 133.44c-9.12 91.68-27.84 123.36-37.92 133.92-21.12 21.6-48.48 33.6-77.76 33.6s-57.12-12-77.76-33.6c-44.64-46.08-44.64-120.48 0-166.56 8.64-9.12 33.6-25.44 103.68-35.52 35.04-4.8 69.6-6.72 94.08-7.2-0.48 19.2-1.44 46.08-4.32 75.36zM330.56 478.4c49.44 7.2 97.44 8.16 121.92 8.16h12c14.4-0.48 25.92-12.48 26.4-27.36 0-1.92 0.96-52.8-4.8-111.84-8.16-84.48-25.92-139.2-53.76-168C400.16 146.24 357.92 128 312.8 128c-45.12 0-87.36 18.24-119.04 50.88C128 247.04 128 357.92 193.76 425.6c24.96 25.92 69.6 42.72 136.8 52.8zM235.04 219.2c21.12-21.6 48.48-33.6 77.76-33.6s57.12 12 77.76 33.6c10.08 10.56 28.8 42.24 37.92 133.92 2.88 29.28 3.84 56.16 4.32 75.84-24.48-0.48-59.04-2.4-94.08-7.2-70.08-10.08-95.04-26.4-103.68-35.52-44.16-46.56-44.16-120.96 0-167.04z"  /></svg>
