<?xml version="1.0" standalone="no"?><!DOCTYPE svg PUBLIC "-//W3C//DTD SVG 1.1//EN" "http://www.w3.org/Graphics/SVG/1.1/DTD/svg11.dtd"><svg class="icon" width="200px" height="193.57px" viewBox="0 0 1058 1024" version="1.1" xmlns="http://www.w3.org/2000/svg"><path d="M445.85233067 150.55803733c-33.74011733-34.914304-78.60497067-54.12181333-126.30971734-54.12181333-47.726592 0-92.602368 19.20750933-126.33156266 54.12181333-69.65384533 72.01314133-69.65384533 189.202432 0 261.210112 26.247168 27.12644267 73.662464 45.30722133 145.02570666 55.59637334 52.24311467 7.471104 103.19735467 8.60706133 128.909312 8.60706133 7.913472 0 12.566528-0.114688 12.75767467-0.114688 15.26442667-0.38775467 27.55242667-13.090816 27.92925867-28.884992 0.03822933-2.260992 1.212416-56.147968-4.98619734-118.41262933-8.87466667-89.28187733-27.51965867-147.53792-56.99447466-178.00123734zM346.10107733 408.731648c-75.70500267-10.89536-102.91336533-28.99968-112.410624-38.80277333-47.35522133-48.96085333-47.35522133-128.59255467 0-177.52064 22.9376-23.72949333 53.42276267-36.78754133 85.85762134-36.78754134s62.898176 13.06350933 85.835776 36.78754134c18.644992 19.26212267 33.38513067 70.88264533 40.47394133 141.62875733 3.19488 31.768576 4.325376 61.76221867 4.68036267 82.59720533-24.756224-0.475136-64.66218667-2.21184-104.43707734-7.90254933z m133.80266667 121.74404267c-0.19114667 0-4.84420267-0.10922667-12.75767467-0.10922667-25.71741867 0-76.66619733 1.11957333-128.909312 8.61252267-71.36324267 10.28369067-118.77853867 28.442624-145.02570666 55.57998933-69.65384533 72.024064-69.65384533 189.21335467 0 261.226496 33.72919467 34.914304 78.60497067 54.10542933 126.33156266 54.10542933 47.70474667 0 92.5696-19.19658667 126.30971734-54.10542933 29.474816-30.46331733 48.12526933-88.72482133 56.999936-178.00669867 6.19861333-62.28104533 5.02442667-116.15163733 4.98619733-118.439936-0.38229333-15.76686933-12.67029333-28.48631467-27.93472-28.86314666z m-34.05141333 141.84174933c-7.08881067 70.73518933-21.82894933 122.33386667-40.47394134 141.61237333-22.94306133 23.71310933-53.40637867 36.765696-85.835776 36.765696s-62.92002133-13.058048-85.85762133-36.765696c-47.35522133-48.94446933-47.35522133-128.565248 0-177.51517866 9.49725867-9.82493867 36.71108267-27.901952 112.410624-38.79185067 39.780352-5.72893867 79.68085333-7.45472 104.43707733-7.913472-0.35498667 20.840448-1.48548267 50.81224533-4.68036266 82.608128z m276.49092266-133.33845333c-52.23765333-7.49294933-103.20827733-8.61252267-128.93115733-8.61252267-7.913472 0-12.56106667 0.10922667-12.75767467 0.10922667-15.24258133 0.376832-27.54696533 13.09627733-27.90741333 28.868608-0.06007467 2.28829867-1.22333867 56.15342933 4.964352 118.439936 8.896512 89.28187733 27.52512 147.54338133 57.00539733 178.00669866 33.767424 34.914304 78.62135467 54.10542933 126.32610134 54.10542934s92.5696-19.19658667 126.33156266-54.10542934c69.63746133-72.01314133 69.63746133-189.20789333 0-261.226496-26.247168-27.14282667-73.68977067-45.30176-145.031168-55.58545066z m104.52445867 274.95082666c-22.921216 23.71310933-53.40091733 36.765696-85.835776 36.765696s-62.89271467-13.058048-85.835776-36.765696c-18.66683733-19.27304533-33.406976-70.877184-40.49032533-141.61237333-3.19488-31.79588267-4.30353067-61.77314133-4.68036267-82.608128 24.772608 0.458752 64.684032 2.18453333 104.43707733 7.913472 75.69954133 10.87351467 102.924288 28.966912 112.427008 38.79185067 47.316992 48.94993067 47.316992 128.57070933-0.02184533 177.51517866zM580.64896 475.86235733c0.196608 0 4.82781867 0.114688 12.75767467 0.114688 25.72288 0 76.693504-1.13595733 128.93115733-8.64529066 71.34139733-10.25092267 118.784-28.43170133 145.02570667-55.558144 33.74011733-34.89792 52.31957333-81.25917867 52.31957333-130.61870934 0-49.33768533-18.579456-95.72078933-52.31957333-130.59140266-33.76196267-34.914304-78.62135467-54.12181333-126.33156267-54.12181334-47.69928533 0-92.55867733 19.20750933-126.32610133 54.12181334-29.474816 30.46331733-48.10888533 88.71936-57.00539734 178.00669866-6.18769067 62.2592-5.02442667 116.15163733-4.964352 118.41262934 0.36590933 15.78325333 12.67029333 28.491776 27.91287467 28.87953066z m34.00772267-141.24100266c7.05604267-71.06286933 21.84533333-122.896384 40.54493866-142.21858134 22.94306133-23.72949333 53.40091733-36.78754133 85.835776-36.78754133s62.91456 13.06350933 85.835776 36.78754133c22.953984 23.71310933 35.57512533 55.21408 35.57512534 88.74666667 0 33.538048-12.62114133 65.060864-35.57512534 88.77397333-9.48087467 9.80855467-36.70562133 27.88010667-112.40516266 38.79185067-39.796736 5.70709333-79.66446933 7.44379733-104.43707734 7.913472 0.376832-20.69845333 1.46909867-50.36987733 4.62574934-82.00738133z m0 0"  /></svg>
