<?xml version="1.0" standalone="no"?><!DOCTYPE svg PUBLIC "-//W3C//DTD SVG 1.1//EN" "http://www.w3.org/Graphics/SVG/1.1/DTD/svg11.dtd"><svg class="icon" width="200px" height="200.00px" viewBox="0 0 1024 1024" version="1.1" xmlns="http://www.w3.org/2000/svg"><path fill="#333333" d="M807.5 781.5c65-71 104.5-166 104.5-269.5 0-220.5-179.5-400-400-400S112 291.5 112 512s179.5 400 400 400c95.5 0 183-33.5 251.5-89.5L844 903c6 6 13.5 9 21 9s15.5-3 21-9c11.5-11.5 11.5-30.5 0-42.5l-78.5-79zM512 852c-187.5 0-340-152.5-340-340s152.5-340 340-340 340 152.5 340 340-152.5 340-340 340z m171-429.6l-107 109-106-102c-12-11.5-30.5-11-42 0.5l-129 129c-11.5 11.5-11.5 30.5 0 42.5 6 6 13.5 9 21 9s15.5-3 21-9l108-108 106 102c12 11.5 30.5 11 42-0.5l128-130c11.5-12 11.5-31-0.5-42.5-11-12-30-11.5-41.5 0z" /></svg>