<?xml version="1.0" standalone="no"?><!DOCTYPE svg PUBLIC "-//W3C//DTD SVG 1.1//EN" "http://www.w3.org/Graphics/SVG/1.1/DTD/svg11.dtd"><svg class="icon" width="200px" height="152.95px" viewBox="0 0 1339 1024" version="1.1" xmlns="http://www.w3.org/2000/svg"><path d="M482.002 669.252l13.38-13.466c-8.385-5.312-15.338-10.062-22.683-14.127-1.984-1.1-6.048-1.114-7.456 0.196s-2.056 5.89-0.893 7.345c1.505 1.861 5.03 2.45 7.798 2.89 5.509 0.832 11.09 1.224 16.453 3.072-11.606 9.316-15.474 9.01-25.23 1.383-7.346-5.704-14.275-10.625-24.68-12.364s-19.587-10.76-29.38-16.367q-45.797-26.148-91.667-52.126c-31.829-18.142-63.657-36.345-96.122-54.855l11.433-14.862-29.478-16.82c-1.346 10.48-1.848 16.576 10.063 13.38 4.101-1.1 9.438 2.45 17.138 4.64-11.666 5.986-18.68 8.165-27.556 0.992-7.859-6.342-18.362-9.292-27.36-14.31-19.77-11.018-39.37-22.292-58.98-33.567q-49.934-28.744-99.807-57.66a42.087 42.087 0 0 1-12.242-10.514c-5.227-6.978-8.043-14.495 2.13-16.71 2.448-22.978 19.06-37.448 25.708-56.998l10.54 3.342c0.453-0.673 0.88-1.347 1.334-2.02l-9.683-8.57 10.944-3.048c1.506-5.974 1.922-11.874 4.407-16.685 8.46-16.343 17.53-32.367 26.59-48.392q39.87-70.586 79.95-141.061c2.816-4.897 4.493-12.756 10.455-8.875 0.869-4.37 0.88-9.696 3.01-13.944 6.293-12.633 13.344-24.863 20.322-37.08 3.134-5.472 4.725-12.548 13.662-12.585 1.69 0 4.076-5.704 4.798-9.07 0.625-2.902-2.166-7.346-0.82-9.133 3.44-4.444 7.823-9.12 12.842-11.018 3.232-1.224 8.398 2.13 12.425 4.016 1.898 0.893 2.853 3.844 4.762 4.737 19.16 9.07 38.427 17.922 58.981 27.422a2138.72 2138.72 0 0 1-7.614 7.822c1.224 0.894 2.032 1.763 2.362 1.616 14.348-6.035 25.5 2.632 35.073 10.063 14.874 11.544 32.514 17.396 48.05 27.287 2.227 1.42 4.333 3.073 6.952 4.897-2.203 5.557-14.53 8.08-5.753 15.645 3.17-4.212 6.047-11.532 9.573-11.863 4.7-0.428 9.99 4.432 14.91 7.21 24.117 13.65 48.282 27.226 72.227 41.096 46.653 27.005 93.11 54.341 139.837 81.187 9.94 5.705 20.737 9.88 32.563 15.437-5.374 5.594-16.196 7.504-8.398 15.535 3.16-3.783 5.411-8.313 9.035-10.21 2.448-1.31 7.345 0.16 10.344 1.86 38.329 22.036 76.462 44.487 114.767 66.584 37.655 21.704 75.617 42.846 113.101 64.88 9.156 5.35 16.514 13.773 25.61 19.27 6.622 4.003 16.122 3.82 21.961 8.47 15.584 12.439 34.877 17.568 51.244 28.427 17.273 11.47 35.954 20.81 53.938 31.216 7.48 4.346 15.192 8.9 13.747 19.514-0.637 4.7-1.97 9.328-3.452 16.158-29.307-19.586-60.169-30.751-83.856-52.725l1.8-2.215c-2.816 0.453-6.526 2.277-8.3 1.126-13.002-8.46-25.34-17.934-38.452-26.173-5.044-3.16-12.156-2.901-17.36-5.876-68.723-39.247-137.461-78.605-205.758-118.733-6.035-3.526-12.352-12.034-12.634-18.473-0.306-7.529-3.415-8.912-8.336-11.458a79.057 79.057 0 0 1-13.6-9.17c-5.963-4.896-8.84-2.668-11.018 3.673 5.582 6.806 19.758 4.958 19.33 20.811-5.473-3.134-9.035-5.142-12.585-7.186-73.377-42.295-146.84-84.468-219.972-127.168-6.243-3.672-13.637-10.612-14.592-16.93-2.448-16.085-17.653-15.67-26.136-23.564-0.808-0.76-4.762 1.86-7.64 3.072 5.89 8.288 18.89 6.12 19.588 19.783L227.69 24.675c-2.999 4.542-5.263 7.603-7.16 10.896-21.828 38.096-43.435 76.327-65.555 114.263-3.293 5.632-8.924 9.904-14.812 16.258 2.118 8.887-1.47 18.105-17.25 38.5-3.586-1.224-7.442-2.595-11.31-3.917l-1.788 1.456c2.68 3.76 5.35 7.517 8.3 11.63-18.093 31.706-36.407 63.657-54.561 95.657-11.96 21.093-23.91 42.198-35.232 63.658-1.03 1.958 1.64 7.945 4.137 9.377 54.28 31.46 108.952 62.323 163.22 93.723q104.887 60.645 209.334 122.001c3.966 2.326 6.525 7.112 10.528 9.23 6.88 3.611 14.86 5.203 21.57 9.047Q597.907 708.512 758.47 800.95c41.414 23.785 82.962 47.374 124.01 70.805-2.327 10.026 6.046 19.587 13.158 15.792s10.944-0.343 15.706 2.375q71.517 40.802 142.948 81.775l10.528 6.01 51.097-89.536c16.734-29.282 33.053-58.76 50.3-87.772s36.225-57.01 52.8-86.378c16.257-28.769 30.444-58.761 44.363-85.852-2.925-8.129-5.166-15.24-8.043-22.035-2.595-6.182-2.558-15.168-13.466-13.784-1.456 0.183-3.366-3.122-5.08-4.812l-2.3 2.057c4.332 4.69 8.666 9.353 13.391 14.445-6.268 5.521-11.348 5.362-17.223-1.677-2.448-2.962-8.3-2.815-11.997-5.068-20.554-12.523-40.863-25.463-61.417-37.95-3.807-2.325-8.74-2.84-12.45-5.263-14.03-9.157-27.79-18.767-41.806-28.316q-1.505 1.225-3.011 2.534c-0.98-1.469-2.816-2.95-2.78-4.382 0.209-7.113 0.907-14.2 1.617-23.712 21.362 12.241 42.002 23.663 62.323 35.66 24.483 14.408 48.49 29.38 72.887 43.862 5.606 3.342 12.241 4.897 17.8 8.374 7.112 4.492 18.815 6.806 12.633 20.052-0.135 0.27 2.24 1.701 4.42 3.305l3.427-12.352 16.587 14.09-8.57 6.195 1.8 5.41c2.657-2.289 5.326-4.553 8.986-7.687 0.796 4.725 1.224 7.492 1.714 10.148-1.677 0.54-2.57 1.14-3.012 0.894-1.726-0.918-3.305-2.08-4.896-3.17a33.053 33.053 0 0 0-1.298 5.838c-0.184 4.016 1.47 8.876-0.22 11.96-14.69 26.773-30.066 53.228-45.295 79.842l-11.96-3.073c8.864 15.56-1.787 25.708-7.516 36.174-32.085 58.663-64.881 116.933-97.677 175.204-11.507 20.444-23.627 40.557-35.6 60.756-8.14 13.723-11.164 14.63-25.229 7.21-36.273-19.085-72.937-37.472-108.573-57.683-63.229-35.88-125.795-72.912-188.694-109.38-33.052-19.158-66.313-37.95-99.28-57.23-24.35-14.25-48.22-29.38-72.607-43.532-23.149-13.466-46.69-26.283-70.046-39.443-12.731-7.173-25.39-14.482-39.04-22.267z m59.323 20.297c13.32 9.794 25.071 18.473 37.031 26.932 2.02 1.42 4.897 1.726 7.346 2.534l0.991-3.33c-14.225-11.09-28.45-22.157-43.115-33.579-0.6 2.02-1.518 5.117-2.216 7.43z m-260.7-149.815c13.392 10.1 25.28 19.232 37.435 28.034 1.53 1.102 4.346 0.416 9.194 0.735-12.51-10.063-22.133-17.96-31.95-25.61-3.674-2.865-7.787-5.179-12.78-8.46-0.11 0.331-1.152 3.232-1.899 5.301z"  /><path d="M229.552 273.574L184.1 352.29q-9.425 16.318 6.893 25.708l142.85 82.473a24.545 24.545 0 0 0 16.991 2.95c7.063-1.653 19.844-17.138 38.916-46.237l21.656 23.957c-24.251 34.08-41.512 52.738-51.33 55.86-10.503 2.324-21.643 0.476-33.714-5.73l-158.003-91.201c-24.337-14.054-29.087-33.592-14.544-58.76l85.961-148.873 27.483 15.914-22.647 39.174 149.717 86.44 39.333-68.139-188.992-109.073 15.034-26.05 216.68 125.11L406.97 376.04zM501.467 443.16l7.98-34.277q70.844-25.5 128.93-80.514l18.817 26.932a407.65 407.65 0 0 1-62.642 47.033L483.386 594.896l-27.483-15.915 86.916-150.572c-13.392 5.325-27.311 10.258-41.352 14.75z m219.665-28.156l15.535-26.932 27.19 15.78-15.536 26.93 77.013 44.464-15.094 25.988-77-44.461-13.014 22.61 66.106 38.181-49.09 85.02-67.268-38.844c-15.84 22.158-30.874 38.28-45.22 47.94 19.378 29.881 46.114 55.626 80.048 77.514l-21.62 22.244c-37.447-25.06-66.105-54.17-85.96-87.786-23.885 5.668-53.375 1.224-88.655-13.026l2.448-31.4c28.23 13.246 52.076 18.24 71.063 15.082a276.002 276.002 0 0 1-18.73-65.395l29.16-2.253a214.083 214.083 0 0 0 16.76 56.251c10.87-8.239 22.034-19.71 33.211-35.036l-62.433-36.027 49.09-85.02 63.828 36.86 13.062-22.61-71.86-41.487 15.046-26.05z m-41.977 72.704l-38.353-22.146-21.154 36.64 38.353 22.144zM747 526.88l-40.655-23.467-21.153 36.64 40.654 23.467z m24.337 230.868l-10.148-30.714q47.08-22.036 80.66-78.238l81.016-140.217 219.52 126.751-124.45 215.553c-12.39 21.46-29.834 25.903-51.587 13.343l-32.919-19.01 8.215-30.752c10.662 7.346 20.64 13.82 30.372 19.44 9.156 5.289 17.334 2.375 23.773-8.79l24.63-42.65-71.002-40.985-47.106 81.58-27.482-15.915 47.105-81.58-67.33-38.83q-36.32 51.17-83.267 71.014z m163.77-206.996l-24.79 42.932 65.836 38.01 24.79-42.93z m-64.452 111.633l65.835 37.95 25.291-43.79-65.848-37.95z m228.76-16.77l-71.002-40.987-24.752 42.956 71.002 40.998z m-39.173 67.842l-71.002-40.985-25.28 43.789 71.003 40.998z"  /></svg>
