<?xml version="1.0" standalone="no"?><!DOCTYPE svg PUBLIC "-//W3C//DTD SVG 1.1//EN" "http://www.w3.org/Graphics/SVG/1.1/DTD/svg11.dtd"><svg class="icon" width="200px" height="200.00px" viewBox="0 0 1024 1024" version="1.1" xmlns="http://www.w3.org/2000/svg"><path d="M633.5488 558.38208c85.76-44.23168 144.57856-133.65248 144.57856-236.6208 0-146.77504-119.37792-266.17856-266.11712-266.17856-146.75456 0-266.14784 119.40864-266.14784 266.17856 0 102.9632 58.82368 192.384 144.59392 236.6208-160.91136 52.10112-277.75488 204.70784-277.75488 384.44032a25.6 25.6 0 0 0 25.6 25.6 25.6 25.6 0 0 0 25.6-25.6c0-194.3296 156.15488-352.41984 348.09344-352.41984s348.08832 158.09024 348.08832 352.41984c0 14.14656 11.45856 25.6 25.6 25.6s25.6-11.45344 25.6-25.6c0.00512-179.72736-116.82304-332.33408-277.7344-384.44032zM297.06752 321.76128c0-118.72256 96.22016-214.97856 214.94784-214.97856 118.69696 0 214.91712 96.256 214.91712 214.97856 0 118.69184-96.22016 214.92224-214.91712 214.92224-118.72256-0.01536-214.94784-96.2304-214.94784-214.92224z"  /></svg>
