<?xml version="1.0" standalone="no"?><!DOCTYPE svg PUBLIC "-//W3C//DTD SVG 1.1//EN" "http://www.w3.org/Graphics/SVG/1.1/DTD/svg11.dtd"><svg class="icon" width="200px" height="200.00px" viewBox="0 0 1024 1024" version="1.1" xmlns="http://www.w3.org/2000/svg"><path d="M808.448 613.888c-46.592-53.248-103.936-92.16-167.424-114.176 59.904-40.96 99.328-110.08 99.328-187.904 0-125.952-102.4-227.84-227.84-227.84-125.952 0-227.84 102.4-227.84 227.84 0 77.824 39.424 146.944 99.328 187.904-64 22.016-121.344 60.928-167.424 114.176-69.632 79.872-109.568 187.904-109.568 295.424 0 16.896 13.824 30.72 30.72 30.72s30.72-13.824 30.72-30.72c0-93.184 34.304-185.856 94.208-254.976 64-73.728 153.088-114.688 249.856-114.688s185.856 40.448 249.856 114.688c59.904 69.12 94.208 161.792 94.208 254.976 0 16.896 13.824 30.72 30.72 30.72s30.72-13.824 30.72-30.72c-0.512-107.52-40.448-215.04-109.568-295.424z m-462.848-302.08c0-91.648 74.752-166.4 166.4-166.4s166.4 74.752 166.4 166.4-74.752 166.4-166.4 166.4-166.4-74.752-166.4-166.4z"  /></svg>
