<?xml version="1.0" standalone="no"?><!DOCTYPE svg PUBLIC "-//W3C//DTD SVG 1.1//EN" "http://www.w3.org/Graphics/SVG/1.1/DTD/svg11.dtd"><svg class="icon" width="200px" height="200.00px" viewBox="0 0 1024 1024" version="1.1" xmlns="http://www.w3.org/2000/svg"><path fill="#333333" d="M730.3 106.1h-473c-58.3 0-105.8 48.6-105.8 108.4v574.1c0 59.8 47.5 108.4 105.8 108.4h509.4c58.3 0 105.8-48.6 105.8-108.4V283.1l-142.2-177z m83.2 682.6c0 27.3-21 49.4-46.8 49.4H257.3c-25.8 0-46.8-22.2-46.8-49.4V214.5c0-27.3 21-49.4 46.8-49.4H702l111.5 138.8v484.8zM678.7 534.9c-23.5-23.5-51-41.4-81-53.1C624.8 458 642 423 642 384.1c0-71.7-58.3-130-130-130s-130 58.3-130 130c0 38.9 17.2 73.9 44.3 97.7-30 11.7-57.6 29.6-81 53.1-44.5 44.5-69.1 103.7-69.1 166.7 0 15.2 12.3 27.5 27.5 27.5s27.5-12.3 27.5-27.5c0-99.7 81.1-180.8 180.8-180.8s180.8 81.1 180.8 180.8c0 15.2 12.3 27.5 27.5 27.5s27.5-12.3 27.5-27.5c0-63-24.6-122.2-69.1-166.7zM512 309.1c41.4 0 75 33.6 75 75s-33.6 75-75 75-75-33.6-75-75 33.6-75 75-75z" /></svg>