<?xml version="1.0" standalone="no"?><!DOCTYPE svg PUBLIC "-//W3C//DTD SVG 1.1//EN" "http://www.w3.org/Graphics/SVG/1.1/DTD/svg11.dtd"><svg class="icon" width="20px" height="15.63px" viewBox="0 0 1310 1024" version="1.1" xmlns="http://www.w3.org/2000/svg"><path fill="#ffffff" d="M652.38294405 568.44387007h-98.78329038c-91.78972543 0-166.4474979 75.08142739-166.44749791 167.37953871v9.94937271c0 48.273848 73.46176207 48.273848 166.44749791 48.273848h98.78654926c89.35208023 0 166.49638117 0 166.49638117-48.273848v-9.94937271c0.00325889-92.29811132-74.68384355-167.37953872-166.49964005-167.37953871M598.0671252 290.36330234c-72.69266546 0-131.8218559 59.51373876-131.8218559 132.64635356s59.13570821 132.64961242 131.8218559 132.64961242c72.69918322 0 131.86748028-59.49744433 131.86748027-132.64961242 0-73.16520363-59.16829705-132.64635354-131.86748027-132.64635356"  /><path fill="#ffffff" d="M812.69070459 544.10000694H726.79304135c-5.14577777 0-10.22963673 0.28678179-15.23854136 0.81472099 80.96697182 25.37041157 139.92018252 101.35129094 139.92018251 190.91845751v4.23329025c59.95694696-1.02328956 105.99845946-6.99356497 105.99845947-41.75933897v-8.64907802c0.00325889-80.26957065-64.93978054-145.55805176-144.78243738-145.55805176zM762.52344501 423.00639701a164.91908133 164.91908133 0 0 1-36.03022099 103.09479386 113.49389256 113.49389256 0 0 0 38.96321654 6.86972736c63.21257204 0 114.67360853-51.73478275 114.67360855-115.35145639 0-63.61993253-51.45451874-115.34493863-114.67360855-115.34493864-16.26183092 0-31.73501194 3.44789922-45.76776623 9.62348431 26.6022697 29.37232106 42.83477068 68.37138533 42.83477068 111.1083895z"  /><path fill="#ffffff" d="M431.965069 532.97417712c13.3223176 0 26.11669599-2.32358425 38.01814019-6.54709786-22.69486785-28.33273708-36.32677942-64.2977804-36.32677943-103.41742336 0-42.94231385 16.39218628-82.09454566 43.20628346-111.50923223a113.45478594 113.45478594 0 0 0-44.89438533-9.21612382c-63.20931315 0-114.63124305 51.75107718-114.63124306 115.34493864s51.42192989 115.34493863 114.62798417 115.34493863zM354.56657511 735.83318544c0-87.58902401 56.34284466-162.20768988 134.52998847-189.19776678-0.8538276-0.75931996-1.6652897-1.56752318-2.50282287-2.34965534a146.71495557 146.71495557 0 0 0-7.40092546-0.18901527H393.29841089c-79.81658578 0-144.73681301 65.28522223-144.73681301 145.54827512v8.64907801c0 34.98737812 44.40229386 40.80448597 106.00171834 41.77889228v-4.23980802z"  /></svg>