<?xml version="1.0" standalone="no"?><!DOCTYPE svg PUBLIC "-//W3C//DTD SVG 1.1//EN" "http://www.w3.org/Graphics/SVG/1.1/DTD/svg11.dtd"><svg class="icon" width="200px" height="200.00px" viewBox="0 0 1024 1024" version="1.1" xmlns="http://www.w3.org/2000/svg"><path fill="#333333" d="M654.7 586.3L369 588c-16.3 0.1-29.4 13.4-29.3 29.7 0.1 16.2 13.3 29.3 29.5 29.3h0.2l285.7-1.7c16.3-0.1 29.4-13.4 29.3-29.7-0.1-16.2-13.5-29.4-29.7-29.3z m0.2-187.5h-0.2L369 400.5c-16.3 0.1-29.4 13.4-29.3 29.7 0.1 16.2 13.3 29.3 29.5 29.3h0.2l285.7-1.7c16.3-0.1 29.4-13.4 29.3-29.7-0.1-16.2-13.3-29.3-29.5-29.3zM912 439h29.5V267.2c0-53.3-43.4-96.7-96.7-96.7H179.2c-53.3 0-96.7 43.4-96.7 96.7V439H112c43.4 0 78.6 35.3 78.6 78.6s-35.3 78.6-78.6 78.6H82.5v160.6c0 53.3 43.4 96.7 96.7 96.7h665.5c53.3 0 96.7-43.4 96.7-96.7V596.2H912c-43.4 0-78.6-35.3-78.6-78.6S868.6 439 912 439z m-29.5 213v104.8c0 20.8-16.9 37.7-37.7 37.7H179.2c-20.8 0-37.7-16.9-37.7-37.7V652c61.8-13.5 108.1-68.7 108.1-134.4 0-65.8-46.4-120.9-108.1-134.4v-116c0-20.8 16.9-37.7 37.7-37.7h665.5c20.8 0 37.7 16.9 37.7 37.7v116c-61.8 13.5-108.1 68.7-108.1 134.4 0.1 65.8 46.4 120.9 108.2 134.4z" /></svg>