<?xml version="1.0" standalone="no"?><!DOCTYPE svg PUBLIC "-//W3C//DTD SVG 1.1//EN" "http://www.w3.org/Graphics/SVG/1.1/DTD/svg11.dtd"><svg class="icon" width="200px" height="200.00px" viewBox="0 0 1024 1024" version="1.1" xmlns="http://www.w3.org/2000/svg"><path d="M1.728 512a510.272 510.272 0 1 0 1020.608 0A510.272 510.272 0 0 0 1.728 512z" fill="#C3E9FF" /><path d="M585.664 529.216s3.136 0 0 0l112.896 109.76a19.072 19.072 0 0 0 25.088 0 19.008 19.008 0 0 0 0-25.152L610.752 504.128a53482.88 53482.88 0 0 0 166.208-175.552c9.408 15.68 15.68 31.36 15.68 50.176v266.56c0 53.312-40.768 94.08-94.08 94.08h-373.12c-53.312 0-94.08-40.768-94.08-94.08V378.688c0-18.752 6.272-34.496 12.544-47.04 0 0 163.008 163.072 175.616 172.48l-3.136 3.136-103.488 106.624a19.2 19.2 0 0 0 0 25.152 19.072 19.072 0 0 0 25.088 0L444.608 529.28c34.496 31.36 53.312 47.04 72.128 47.04s37.568-18.88 68.928-47.104z" fill="#006FD3" /><path d="M268.992 303.488c15.68-12.544 34.496-18.816 56.448-18.816h373.12c21.952 0 40.768 6.272 56.448 18.816 0 0-216.384 228.864-235.2 228.864-25.088 0-250.816-228.864-250.816-228.864z" fill="#59A3E9" /></svg>