<?xml version="1.0" standalone="no"?><!DOCTYPE svg PUBLIC "-//W3C//DTD SVG 1.1//EN" "http://www.w3.org/Graphics/SVG/1.1/DTD/svg11.dtd"><svg class="icon" width="200px" height="193.57px" viewBox="0 0 1058 1024" version="1.1" xmlns="http://www.w3.org/2000/svg"><path d="M814.08 174.592H209.92c-59.392 0-107.52 48.128-107.52 107.52V742.4c0 59.392 48.128 107.52 107.52 107.52h604.16c59.392 0 107.52-48.128 107.52-107.52V282.112c0-59.392-48.128-107.52-107.52-107.52z m46.08 567.296c0 25.6-20.48 46.08-46.08 46.08H209.92c-25.6 0-46.08-20.48-46.08-46.08V282.112c0-25.6 20.48-46.08 46.08-46.08h604.16c25.6 0 46.08 20.48 46.08 46.08v459.776z"  /><path d="M714.752 374.272l-202.752 87.04-202.752-87.04c-15.36-6.656-33.792 0.512-40.448 16.384-6.656 15.36 0.512 33.792 16.384 40.448l215.04 92.16c4.096 1.536 8.192 2.56 12.288 2.56s8.192-1.024 12.288-2.56l215.04-92.16c15.36-6.656 23.04-24.576 16.384-40.448-7.68-15.872-25.6-23.04-41.472-16.384z"  /></svg>
