<?xml version="1.0" standalone="no"?><!DOCTYPE svg PUBLIC "-//W3C//DTD SVG 1.1//EN" "http://www.w3.org/Graphics/SVG/1.1/DTD/svg11.dtd"><svg class="icon" width="200px" height="193.57px" viewBox="0 0 1058 1024" version="1.1" xmlns="http://www.w3.org/2000/svg"><path d="M889.012224 177.05642667H171.25102933c-63.029248 0-95.68802133 32.83899733-95.68802133 95.68802133v478.50018133c0 62.85994667 33.15029333 95.698944 95.68802133 95.698944h717.766656c62.54865067 0 95.68802133-32.85538133 95.68802134-95.698944V272.74990933c0.00546133-63.33508267-33.13937067-95.69348267-95.69348267-95.69348266z m41.08561067 574.18820266c0 32.64785067-8.44868267 41.08561067-41.074688 41.08561067H171.25102933c-32.636928 0-41.074688-8.44868267-41.074688-41.08561067V272.744448c0-32.63146667 8.44322133-41.074688 41.074688-41.074688h717.766656c32.636928 0 41.074688 8.44322133 41.074688 41.08014933l0.00546134 478.49472z"  /><path d="M810.27072 352.50176L530.13162667 501.88561067 249.99253333 352.50176a27.30666667 27.30666667 0 1 0-25.70103466 48.19080533l292.75477333 156.11221334a27.049984 27.049984 0 0 0 13.08535467 3.08565333 27.02267733 27.02267733 0 0 0 13.08535466-3.08565333l292.749312-156.11221334a27.30666667 27.30666667 0 1 0-25.69557333-48.19080533z"  /></svg>
