<?xml version="1.0" standalone="no"?><!DOCTYPE svg PUBLIC "-//W3C//DTD SVG 1.1//EN" "http://www.w3.org/Graphics/SVG/1.1/DTD/svg11.dtd"><svg t="1571796223191" class="icon" viewBox="0 0 1024 1024" version="1.1" xmlns="http://www.w3.org/2000/svg" p-id="8017" xmlns:xlink="http://www.w3.org/1999/xlink" width="20" height="20"><defs><style type="text/css"></style></defs><path d="M644.88953173 564.46578667a483.48091733 483.48091733 0 0 0-65.40201528-18.39668338c39.64199822-17.28402773 67.11468942-55.26578062 67.19624533-99.29432178V393.22750045c0-60.42710471-51.91616285-109.44220729-115.82687005-109.44220729-63.93400889 0-115.80939378 49.01510258-115.80939378 109.44220729v53.63466241c0 42.59548729 25.83574755 79.429632 63.39807005 97.59329847-22.78322631 4.58460729-47.72768427 11.76735289-69.53223965 20.40062862-22.32884338 8.88376889-40.53911325 18.96757475-54.01914026 29.56401778-19.46856107 15.19852658-29.20866702 31.99904427-29.20866702 49.9122176v53.81525049c0 24.11142258 17.39471075 39.19926613 32.05147306 47.80341476 13.72469475 7.8118912 32.44760178 14.37714205 55.50462294 19.3462272 37.1720192 7.85849458 81.49765689 10.81780907 110.50243413 10.81780907 28.64942649 0 76.52857173-2.81367893 117.06768498-10.6954752 24.86290205-4.84675129 44.95478329-11.26054115 59.60572017-18.92679679 29.20866702-15.204352 35.29040782-34.74864355 35.29040783-48.35100446v-53.81525049c0.12233387-31.18931058-30.51938702-57.92217315-90.90571378-79.78498275l0.08738133-0.07573049zM466.09567289 393.14594453c0-33.76997262 28.93487218-61.12615538 64.76121884-61.20188586 35.84964835 0 64.8544256 27.35035733 64.8544256 61.20188586v53.62301156c0 33.77579805-29.00477725 61.25431467-64.8544256 61.25431467-35.82634667 0-64.83694933-27.47851662-64.83694933-61.25431467v-53.62301156h0.07573049z m241.63851378-276.96969955c101.04777387 0 183.70468978 78.13638827 183.70468978 173.54515343v453.41591324c0 95.40876515-82.65691591 173.539328-183.70468978 173.539328H354.69612373c-101.11767893 0-183.69886435-78.13056285-183.69886435-173.539328V289.72139841c0-95.40876515 82.65691591-173.54515342 183.69886435-173.54515343H707.73418667z m-22.98129067 581.30723271c-1.2582912 1.71849955-11.4294784 13.2120576-62.85048035 21.96766721-35.02826382 6.01766115-74.74016711 8.13228942-98.26322205 8.13228941-26.19109831 0-66.09524053-2.55153493-99.32344889-9.58281955-42.60131271-9.03522987-47.72185885-19.94042027-47.72185884-20.01615075v-53.83272676c0-2.99426702 8.90707058-17.825792 52.0617984-35.01078756 26.738688-10.5906176 69.05455502-21.89193671 94.98933475-21.8919367 19.37535431 0 60.89313849 7.46819129 99.78948267 21.14628266 48.73548231 17.15586845 60.68924871 32.5582848 61.24848924 35.83799751v53.23853369h0.06990507z m145.35593529 45.65383396V289.72139841c-0.18641351-63.78837333-54.83469938-115.41909049-122.38047004-115.69288534h-75.82952107v1.1010048c0 15.96748231-13.67809138 28.84749085-30.64754631 28.84749084h-138.76155734c-16.92285155 0-30.59511751-12.88000853-30.59511751-28.84749084v-1.1010048H354.62039325c-67.45838933 0.27379485-122.11832605 51.82295609-122.38047005 115.69288534v453.41591324c0.34369991 63.78254791 54.92208071 115.41909049 122.45620053 115.6870599h353.18952392c67.54577067-0.26796942 122.15327858-51.904512 122.50862933-115.6870599h-0.28544569z m0 0" p-id="8018"></path></svg>
