<?xml version="1.0" standalone="no"?><!DOCTYPE svg PUBLIC "-//W3C//DTD SVG 1.1//EN" "http://www.w3.org/Graphics/SVG/1.1/DTD/svg11.dtd"><svg class="icon" width="200px" height="200.00px" viewBox="0 0 1024 1024" version="1.1" xmlns="http://www.w3.org/2000/svg"><path d="M634.33386667 540.94506667c-13.65333333-14.19946667-30.03733333-25.66826667-48.60586667-34.4064-18.56853333-8.73813333-38.77546667-14.19946667-60.07466667-16.384-1.09226667 0-2.73066667-0.54613333-4.36906666-0.54613334-1.6384-0.54613333-2.73066667-0.54613333-4.36906667-0.54613333H452.47146667v-32.22186667c-0.54613333-5.46133333-2.18453333-9.28426667-6.5536-12.01493333-3.82293333-2.73066667-9.28426667-1.6384-15.83786667 2.73066667-3.82293333 2.73066667-7.64586667 6.00746667-11.4688 8.73813333-6.00746667 4.9152-12.01493333 9.28426667-18.0224 14.19946667-6.5536 5.46133333-13.65333333 10.37653333-20.20693333 15.83786666-6.5536 5.46133333-12.56106667 10.37653333-17.47626667 14.19946667-4.36906667 3.2768-8.192 6.5536-11.4688 10.37653333-3.2768 3.2768-4.9152 7.09973333-4.9152 10.37653334 0 3.82293333 1.6384 7.09973333 4.36906667 9.28426666 3.2768 2.73066667 7.09973333 6.00746667 10.37653333 8.73813334l20.75306667 15.29173333c7.09973333 4.9152 13.65333333 9.8304 20.20693333 14.7456 6.5536 4.36906667 12.01493333 8.73813333 16.93013333 12.01493333 4.9152 3.2768 8.192 5.46133333 10.37653334 7.09973334 8.192 4.9152 14.19946667 6.00746667 18.0224 3.82293333 3.82293333-2.18453333 5.46133333-5.46133333 5.46133333-10.37653333v-32.22186667h66.62826667c13.65333333 1.09226667 25.66826667 4.9152 37.13706666 10.37653333 11.4688 5.46133333 21.2992 12.56106667 30.03733334 21.84533334 8.73813333 8.73813333 15.29173333 19.11466667 20.20693333 30.03733333 4.9152 11.4688 7.09973333 23.48373333 7.09973333 36.59093333 0 13.65333333-2.73066667 26.76053333-8.192 38.77546667-5.46133333 12.01493333-13.1072 22.39146667-22.39146666 31.1296-9.28426667 8.73813333-20.75306667 15.83786667-33.31413334 21.2992s-26.2144 7.64586667-40.96 7.64586667l-63.35146666-0.54613334c-4.36906667 0-9.28426667 0.54613333-13.65333334 2.18453334-4.36906667 1.6384-8.192 3.82293333-12.01493333 6.5536-3.2768 2.73066667-6.5536 6.00746667-8.73813333 9.8304-2.18453333 3.82293333-3.2768 7.64586667-3.2768 12.01493333 0 3.82293333 1.09226667 8.192 3.2768 11.4688 2.18453333 3.82293333 5.46133333 7.09973333 8.73813333 9.8304 3.82293333 2.73066667 7.64586667 4.9152 12.01493333 6.5536 4.36906667 1.6384 9.28426667 2.18453333 13.65333334 2.18453333h74.82026666c1.09226667 0 2.73066667-0.54613333 3.82293334-0.54613333 21.2992-1.6384 41.50613333-7.09973333 60.6208-16.384 18.56853333-9.28426667 34.95253333-20.75306667 48.60586666-34.95253333 13.65333333-14.19946667 24.576-30.58346667 32.768-48.60586667 8.192-18.56853333 12.01493333-37.6832 12.01493334-58.43626667 0-20.20693333-3.82293333-39.86773333-11.4688-58.43626666-8.192-18.56853333-19.11466667-34.95253333-32.768-49.152z"  /><path d="M812.37333333 428.98773333c-43.14453333-123.42613333-161.10933333-212.44586667-300.37333333-212.44586666-140.9024 0-258.8672 86.28906667-300.37333333 212.44586666 0-0.54613333 0-0.54613333 0 0-85.74293333 19.11466667-150.18666667 95.57333333-150.18666667 186.7776 0 105.94986667 86.28906667 191.6928 193.3312 191.6928H293.54666667v-61.16693333h-38.77546667c-72.63573333 0-131.61813333-58.43626667-131.61813333-129.97973333 0-60.07466667 43.14453333-113.59573333 102.12693333-126.70293334l33.31413333-7.64586666 11.4688-32.768c34.4064-103.2192 129.4336-170.3936 242.4832-170.3936 109.22666667 0 206.98453333 68.8128 242.4832 170.93973333l10.92266667 32.22186667 33.31413333 7.64586666c59.52853333 13.1072 102.12693333 66.62826667 102.12693334 126.70293334 0 71.54346667-58.9824 129.97973333-131.61813334 129.97973333H730.45333333v61.16693333h39.3216c106.496 0 193.3312-85.74293333 193.3312-191.6928-0.54613333-91.20426667-64.44373333-167.1168-150.7328-186.7776z"  /></svg>
