<?xml version="1.0" standalone="no"?><!DOCTYPE svg PUBLIC "-//W3C//DTD SVG 1.1//EN" "http://www.w3.org/Graphics/SVG/1.1/DTD/svg11.dtd"><svg class="icon" width="200px" height="200.00px" viewBox="0 0 1024 1024" version="1.1" xmlns="http://www.w3.org/2000/svg"><path d="M793.216 383.19616c-16.86016-147.21024-138.496-258.67776-286.85312-258.67776-149.03808 0-270.67392 112.17408-286.83264 260.11136C104.94976 402.49344 18.46272 502.528 18.46272 623.27808c0 132.91008 106.15808 241.54624 236.91264 241.54624h54.07232c-21.26848-16.80896-35.51744-36.28032-41.216-57.17504h-12.85632c-99.82464 0-180.67456-82.9184-180.67456-184.3712 0-98.62144 75.93472-179.3536 172.2368-184.34048l26.0096-1.44384 0.7168-26.43456c3.51232-128.62976 106.1632-229.36576 232.704-229.36576 126.5408 0 229.19168 100.736 232.69376 229.37088l0.73728 27.87328h28.83072c99.8144 0 180.67456 82.89792 180.67456 184.34048 0 95.02208-71.18336 172.8256-162.16064 182.46144-5.30432 21.6576-19.8144 41.73824-41.74336 59.07968h23.22944c130.75968 0 236.90752-108.63104 236.90752-241.53088-0.01536-124.34432-92.81536-227.24096-212.32128-240.09216z"  /><path d="M505.78432 510.65856h-40.55552v-3.10784h0.01024v-29.98784c-0.256-4.99712-2.26816-8.74496-6.07232-11.25376-3.7888-2.49856-8.7296-1.62304-14.81216 2.62144a497.54624 497.54624 0 0 0-10.43968 8.07936c-4.96128 3.86048-10.51136 8.192-16.73216 12.94848a1310.32064 1310.32064 0 0 0-18.80064 14.61248c-6.3232 5.00224-11.776 9.3696-16.32256 13.12768a118.30272 118.30272 0 0 0-10.83904 9.728c-3.16928 3.24096-4.74112 6.37952-4.74112 9.39008 0 3.49184 1.3824 6.44096 4.16768 8.79104a339.98848 339.98848 0 0 0 9.89184 8.07936l19.00032 14.23872c6.56896 4.77184 12.83584 9.26208 18.78016 13.5424 5.96992 4.20864 11.14624 7.9104 15.59552 11.04896A232.6016 232.6016 0 0 0 443.58144 599.04c7.59808 4.52096 13.12256 5.77536 16.5376 3.75296 3.39456-2.00192 5.08416-5.0688 5.10976-9.28256v-31.67232h40.56064c55.5264 0 100.70016 44.84608 100.70016 99.95264 0 55.12704-45.17376 99.95776-100.70016 99.95776h-41.99936v0.10752c-0.3328-0.01536-0.64-0.1024-0.97792-0.1024a25.6 25.6 0 1 0 0 51.2c0.3328 0 0.64512-0.09216 0.97792-0.1024v0.09728h41.99936c83.89632 0 151.90016-67.6864 151.90016-151.15776-0.00512-83.45088-68.00896-151.13216-151.90528-151.13216z"  /></svg>
