<?xml version="1.0" standalone="no"?><!DOCTYPE svg PUBLIC "-//W3C//DTD SVG 1.1//EN" "http://www.w3.org/Graphics/SVG/1.1/DTD/svg11.dtd"><svg t="1588080848074" class="icon" viewBox="0 0 1024 1024" version="1.1" xmlns="http://www.w3.org/2000/svg" p-id="1416" xmlns:xlink="http://www.w3.org/1999/xlink" width="200" height="200"><defs><style type="text/css"></style></defs><path d="M965.1712 66.2016a47.8208 47.8208 0 0 1-20.48 25.7536L504.2176 359.5776a46.9504 46.9504 0 0 1-58.4704-7.8336l-158.208-165.4784-161.9456 69.632A47.2064 47.2064 0 0 1 64 230.1952a48.384 48.384 0 0 1 24.576-62.8224L280.576 84.7872a46.9504 46.9504 0 0 1 52.5824 10.8032l154.5728 161.792 264.192-160.4608h-43.4176a47.7696 47.7696 0 0 1-47.4624-48.128c0-26.5728 21.248-48.128 47.4624-48.128h212.48c26.2144 0 47.4624 21.5552 47.4624 48.128 0 6.144-1.1264 12.032-3.2256 17.408zM112.6912 927.7952h786.0224c31.6416 0 47.4624 16.0256 47.4624 48.128 0 32.0512-15.8208 48.0768-47.4624 48.0768H112.64c-31.5904 0-47.4112-16.0256-47.4112-48.128 0-32.0512 15.8208-48.128 47.4112-48.128z m440.4224-137.472c0 26.624-21.1968 48.128-47.4112 48.128a47.7696 47.7696 0 0 1-47.4624-48.128v-274.8928c0-26.5728 21.248-48.128 47.4624-48.128s47.4112 21.5552 47.4112 48.128v274.944z m-406.528 0c0 26.624-21.2992 48.128-47.4624 48.128a47.7696 47.7696 0 0 1-47.4624-48.128V446.72c0-26.624 21.248-48.128 47.4624-48.128 26.1632 0 47.4112 21.504 47.4112 48.128v343.6032z m813.1584 0c0 26.624-21.248 48.128-47.4624 48.128a47.7696 47.7696 0 0 1-47.4112-48.128V378.0096c0-26.624 21.1968-48.128 47.4112-48.128s47.4624 21.504 47.4624 48.128v412.3136z" p-id="1417"></path></svg>