<?xml version="1.0" standalone="no"?><!DOCTYPE svg PUBLIC "-//W3C//DTD SVG 1.1//EN" "http://www.w3.org/Graphics/SVG/1.1/DTD/svg11.dtd"><svg t="1588080833344" class="icon" viewBox="0 0 1024 1024" version="1.1" xmlns="http://www.w3.org/2000/svg" p-id="1167" xmlns:xlink="http://www.w3.org/1999/xlink" width="200" height="200"><defs><style type="text/css"></style></defs><path d="M775.736742 298.666501c0-23.551987-19.285323-42.666643-43.064865-42.666643H215.495276a42.894198 42.894198 0 0 0-43.121754 42.666643c0 23.551987 19.342211 42.666643 43.121754 42.666643h517.119713a42.894198 42.894198 0 0 0 43.121753-42.666643z m-430.933094 255.999858c0-23.551987-19.342211-42.666643-43.121753-42.666643H215.495276a42.894198 42.894198 0 0 0-43.121754 42.666643c0 23.551987 19.342211 42.666643 43.121754 42.666642h86.186619a42.894198 42.894198 0 0 0 43.121753-42.666642zM172.373522 810.666216c0 15.246214 8.248884 29.35465 21.617766 36.977758a43.463087 43.463087 0 0 0 43.064865 0 42.609754 42.609754 0 0 0 0-73.955515 43.463087 43.463087 0 0 0-43.121754 0 42.609754 42.609754 0 0 0-21.560877 36.977757z" p-id="1168"></path><path d="M387.868513 938.666145H86.186903v-853.332859h775.793347v213.333215c0 23.551987 19.285323 42.666643 43.064865 42.666643a42.894198 42.894198 0 0 0 43.121754-42.666643V85.333286c0-22.641765-9.102217-44.373309-25.258653-60.302189A86.64173 86.64173 0 0 0 861.98025 0H86.186903C38.57093 0 0.000284 38.229312 0.000284 85.333286v853.332859c0 47.103974 38.570645 85.333286 86.186619 85.333286h301.68161a42.894198 42.894198 0 0 0 43.121754-42.666643c0-23.551987-19.342211-42.666643-43.121754-42.666643z" p-id="1169"></path><path d="M1007.615725 695.46628L886.954458 496.639724a86.357285 86.357285 0 0 0-74.126181-41.81331H566.328859c-30.435539 0-58.595523 15.92888-74.126181 41.81331L371.484523 695.46628a84.593731 84.593731 0 0 0 0 85.333286l120.718155 198.826556c15.473769 25.941319 43.690642 41.81331 74.126181 41.813311h246.499418c30.435539 0 58.595523-15.92888 74.126181-41.813311l120.661267-198.826556c15.359991-26.39643 15.359991-58.936856 0-85.333286zM812.828277 938.666145H566.328859l-120.718155-198.826556 120.718155-199.679889h246.499418l120.661267 199.679889-120.661267 198.826556z" p-id="1170"></path></svg>