<?xml version="1.0" standalone="no"?><!DOCTYPE svg PUBLIC "-//W3C//DTD SVG 1.1//EN" "http://www.w3.org/Graphics/SVG/1.1/DTD/svg11.dtd"><svg t="1588127968420" class="icon" viewBox="0 0 1024 1024" version="1.1" xmlns="http://www.w3.org/2000/svg" p-id="9214" xmlns:xlink="http://www.w3.org/1999/xlink" width="32" height="32"><defs><style type="text/css"></style></defs><path d="M840.18496704 189.15438843a34.63165283 34.63165283 0 0 1-14.83154297 18.65066528L506.36401367 401.61624146a34.00131226 34.00131226 0 0 1-42.34405518-5.67306519l-114.57366943-119.83886719-117.28042602 50.4272461A34.18670654 34.18670654 0 0 1 187.55999756 307.91796875a35.03952026 35.03952026 0 0 1 17.79785156-45.49575805L344.40356445 202.61401367a34.00131226 34.00131226 0 0 1 38.07998657 7.82363891l111.94107056 117.16918946 191.3269043-116.20513916h-31.44287109a34.59457398 34.59457398 0 0 1-34.37210083-34.85412598c0-19.243927 15.38772583-34.85412598 34.37210083-34.85412597h153.87725829c18.984375 0 34.37210083 15.61019898 34.37210083 34.85412597 0 4.44946289-0.81573486 8.71353149-2.33596801 12.60681153zM222.82199097 813.11740112h569.23461914c22.91473388 0 34.37210083 11.60568237 34.37210083 34.85412598 0 23.21136474-11.45736694 34.81704711-34.37210083 34.81704712H222.78491211c-22.87765503 0-34.33502198-11.60568237-34.33502198-34.85412599 0-23.21136474 11.45736694-34.85412598 34.33502198-34.85412596z m318.95233154-99.55673218c0 19.28100586-15.35064697 34.85412598-34.33502197 34.85412598a34.59457398 34.59457398 0 0 1-34.37210083-34.85412598v-199.07638549c0-19.243927 15.38772583-34.85412598 34.37210083-34.85412598s34.33502198 15.61019898 34.33502197 34.85412596v199.11346438z m-294.40612793 0c0 19.28100586-15.42480469 34.85412598-34.37210083 34.85412598a34.59457398 34.59457398 0 0 1-34.37210082-34.85412598V464.72445679c0-19.28100586 15.38772583-34.85412598 34.37210082-34.85412598 18.94729614 0 34.33502198 15.57312012 34.33502198 34.85412598v248.83621215z m588.88641357 0c0 19.28100586-15.38772583 34.85412598-34.37210083 34.85412598a34.59457398 34.59457398 0 0 1-34.33502197-34.85412598V414.96463013c0-19.28100586 15.35064697-34.85412598 34.33502197-34.85412598s34.37210083 15.57312012 34.37210083 34.85412598v298.59603882z" p-id="9215"></path></svg>