<?xml version="1.0" encoding="UTF-8"?>
<svg width="18px" height="18px" viewBox="0 0 18 18" version="1.1" xmlns="http://www.w3.org/2000/svg" xmlns:xlink="http://www.w3.org/1999/xlink">
    <!-- Generator: Sketch 55.1 (78136) - https://sketchapp.com -->
    <title>运营设置</title>
    <desc>Created with Sketch.</desc>
    <g id="页面1" stroke="none" stroke-width="1" fill="none" fill-rule="evenodd">
        <g id="2-1导购行为统计" transform="translate(-25.000000, -96.000000)" fill="#979797" fill-rule="nonzero">
            <g id="1" transform="translate(-1.000000, 0.000000)">
                <g id="left-忠诚度管理" transform="translate(0.000000, 19.000000)">
                    <g id="营销活动" transform="translate(26.000000, 77.000000)">
                        <g id="运营设置">
                            <path d="M13.6363636,5.25000001 C13.6363636,4.83578644 13.2971854,4.5 12.8787879,4.5 L3.78787878,4.5 C3.36952654,4.50006341 3.030419,4.83583127 3.030419,5.25 C3.030419,5.66416872 3.36952654,5.99993659 3.78787878,6 L12.8787879,6 C13.2971854,6 13.6363636,5.66421356 13.6363636,5.25000001 L13.6363636,5.25000001 Z M6.06060605,9.75000001 C6.06060605,9.33578645 5.72142784,9 5.30303031,9 L3.78787878,9 C3.36952654,9.00006341 3.030419,9.33583127 3.030419,9.75 C3.030419,10.1641687 3.36952654,10.4999366 3.78787878,10.5 L5.30303031,10.5 C5.72142784,10.5 6.06060605,10.1642136 6.06060605,9.75000001 Z" id="形状"></path>
                            <path d="M3.03030303,14.25 C3.0302616,14.5179765 3.17464566,14.7656146 3.40905743,14.8996147 C3.6434692,15.0336149 3.93228838,15.0336149 4.16670015,14.8996147 C4.40111193,14.7656146 4.54549599,14.5179765 4.54545455,14.25 C4.54549599,13.9820235 4.40111193,13.7343854 4.16670015,13.6003853 C3.93228838,13.4663852 3.6434692,13.4663852 3.40905743,13.6003853 C3.17464566,13.7343854 3.0302616,13.9820235 3.03030303,14.25 L3.03030303,14.25 Z" id="路径"></path>
                            <path d="M6.81818182,16.5 L1.51515151,16.5 L1.51515151,1.5 L15.1515151,1.5 L15.1515151,5.25000001 C15.1515152,5.66421355 15.4906934,6 15.9090909,6 C16.3274884,6 16.6666667,5.66421355 16.6666667,5.25000001 L16.6666667,1.5 C16.6666667,1.10217526 16.5070351,0.720644387 16.2228891,0.43933982 C15.938743,0.158035253 15.5533583,0 15.1515151,0 L1.51515151,0 C0.678356437,0 0,0.671572873 0,1.5 L0,16.5 C0,17.3284271 0.678356437,18 1.51515151,18 L6.81818182,18 C7.23653406,18 7.5756416,17.6641687 7.5756416,17.25 C7.5756416,16.8358313 7.23653406,16.5000634 6.81818182,16.5 Z" id="路径"></path>
                            <path d="M17.7121212,12.225 L15.5909091,8.73 C15.3180844,8.27445082 14.8228292,7.99500001 14.2878788,7.99500001 L9.95454545,7.99500001 C9.41959501,7.99500001 8.92433987,8.27445082 8.65151515,8.73 L6.53030304,12.225 C6.25964729,12.6891016 6.25964729,13.2608984 6.53030304,13.725 L8.65151515,17.22 C8.92433987,17.6755492 9.41959501,17.955 9.95454545,17.955 L14.2878788,17.955 C14.8228292,17.955 15.3180844,17.6755492 15.5909091,17.22 L17.7121212,13.725 C17.982777,13.2608984 17.982777,12.6891016 17.7121212,12.225 L17.7121212,12.225 Z M14.2878788,16.5 L9.95454545,16.5 L7.83333333,13.005 L9.95454545,9.495 L14.2878788,9.495 L16.4090909,13.005 L14.2878788,16.5 Z" id="形状"></path>
                        </g>
                    </g>
                </g>
            </g>
        </g>
    </g>
</svg>