<?xml version="1.0" encoding="UTF-8"?>
<svg width="18px" height="20px" viewBox="0 0 18 20" version="1.1" xmlns="http://www.w3.org/2000/svg" xmlns:xlink="http://www.w3.org/1999/xlink">
    <!-- Generator: Sketch 55.1 (78136) - https://sketchapp.com -->
    <title>运营数据</title>
    <desc>Created with Sketch.</desc>
    <g id="页面1" stroke="none" stroke-width="1" fill="none" fill-rule="evenodd">
        <g id="2-1导购行为统计" transform="translate(-23.000000, -585.000000)" fill="#333333" fill-rule="nonzero">
            <g id="1" transform="translate(-1.000000, 0.000000)">
                <g id="left-忠诚度管理" transform="translate(0.000000, 19.000000)">
                    <g id="运营数据" transform="translate(0.000000, 566.000000)">
                        <path d="M41.8513128,1.29349682 C41.7831015,1.4965152 41.6463682,1.67705458 41.4507767,1.79597315 L32.8478355,7.02281879 C32.478318,7.2472944 32.0049985,7.18388428 31.7056296,6.86979866 L28.6165119,3.63758389 L25.4532767,4.99865772 C24.984007,5.1926535 24.4481233,4.96828091 24.2504691,4.49504656 C24.052815,4.02181221 24.2667397,3.47533263 24.7306296,3.26845638 L28.4788649,1.65637584 C28.831268,1.50466662 29.2393857,1.58840673 29.5059237,1.86711409 L32.5248943,5.02684564 L37.6847662,1.89261745 L36.8369531,1.89261745 C36.3252775,1.89261745 35.9104825,1.4719454 35.9104825,0.953020134 C35.9104825,0.434094866 36.3252775,0.0134228188 36.8369531,0.0134228188 L40.9875414,0.0134228188 C41.4992169,0.0134228188 41.9140119,0.434094866 41.9140119,0.953020134 C41.9140119,1.07310585 41.891799,1.18792994 41.8513128,1.29349682 Z M25.2004825,18.1208054 L40.5534237,18.1208054 C41.1710708,18.1208054 41.4798943,18.4340045 41.4798943,19.0604027 C41.4798943,19.6868009 41.1710708,20 40.5534237,20 L25.2004825,20 C24.5828355,20 24.2740119,19.6868009 24.2740119,19.0604027 C24.2740119,18.4340045 24.5828355,18.1208054 25.2004825,18.1208054 Z M33.8034237,15.4362416 C33.8034237,15.9551669 33.3886287,16.3758389 32.8769531,16.3758389 C32.3652776,16.3758389 31.9504825,15.9551669 31.9504825,15.4362416 L31.9504825,10.0671141 C31.9504825,9.54818883 32.3652775,9.12751678 32.8769531,9.12751678 C33.3886287,9.12751678 33.8034237,9.54818883 33.8034237,10.0671141 L33.8034237,15.4362416 Z M25.8622472,15.4362416 C25.8622472,15.9551669 25.4474522,16.3758389 24.9357767,16.3758389 C24.4241011,16.3758389 24.0093061,15.9551669 24.0093061,15.4362416 L24.0093061,8.72483221 C24.0093061,8.20590695 24.4241011,7.7852349 24.9357767,7.7852349 C25.4474522,7.7852349 25.8622472,8.20590695 25.8622472,8.72483221 L25.8622472,15.4362416 Z M41.7446002,15.4362416 C41.7446002,15.9551669 41.3298052,16.3758389 40.8181296,16.3758389 C40.306454,16.3758389 39.891659,15.9551669 39.891659,15.4362416 L39.891659,7.38255034 C39.891659,6.86362507 40.306454,6.44295302 40.8181296,6.44295302 C41.3298052,6.44295302 41.7446002,6.86362507 41.7446002,7.38255034 L41.7446002,15.4362416 Z"></path>
                    </g>
                </g>
            </g>
        </g>
    </g>
</svg>