<?xml version="1.0" standalone="no"?><!DOCTYPE svg PUBLIC "-//W3C//DTD SVG 1.1//EN" "http://www.w3.org/Graphics/SVG/1.1/DTD/svg11.dtd"><svg t="1588127963103" class="icon" viewBox="0 0 1024 1024" version="1.1" xmlns="http://www.w3.org/2000/svg" p-id="9078" xmlns:xlink="http://www.w3.org/1999/xlink" width="32" height="32"><defs><style type="text/css"></style></defs><path d="M691.05988257 367.16060073c0-15.99024843-13.09346452-28.96784129-29.2382078-28.96784131H310.6928152a29.12233616 29.12233616 0 0 0-29.27683169 28.96784131c0 15.99024843 13.13208772 28.96784129 29.27683169 28.96784128h351.09023636a29.12233616 29.12233616 0 0 0 29.27683101-28.96784128z m-292.57519685 173.80704774c0-15.99024843-13.13208772-28.96784129-29.27683102-28.96784129H310.6928152a29.12233616 29.12233616 0 0 0-29.27683169 28.96784129c0 15.99024843 13.13208772 28.96784129 29.27683169 28.96784062h58.5150395a29.12233616 29.12233616 0 0 0 29.27683102-28.96784062zM281.41598351 714.77469555c0 10.35117544 5.6004491 19.92987456 14.67703972 25.10546296a29.50857432 29.50857432 0 0 0 29.23820782 0 28.92921742 28.92921742 0 0 0 0-50.21092523 29.50857432 29.50857432 0 0 0-29.2768317 0 28.92921742 28.92921742 0 0 0-14.63841584 25.10546227z" p-id="9079"></path><path d="M427.72289353 801.67821943H222.90094399v-579.35682517h526.71260197v144.83920647c0 15.99024843 13.09346452 28.96784129 29.23820781 28.96784128a29.12233616 29.12233616 0 0 0 29.27683171-28.96784128V222.32139425c0-15.37226763-6.17980603-30.12655514-17.14896229-40.94121583A58.8240299 58.8240299 0 0 0 749.61354597 164.38571167H222.90094399C190.57283351 164.38571167 164.38590448 190.34089738 164.38590448 222.32139425v579.35682518c0 31.98049688 26.18692835 57.93568258 58.51503951 57.93568259h204.82194954a29.12233616 29.12233616 0 0 0 29.27683169-28.96784129c0-15.99024843-13.13208772-28.96784129-29.27683169-28.9678413z" p-id="9080"></path><path d="M848.4904444 636.56152413L766.56938881 501.57138396a58.63091048 58.63091048 0 0 0-50.3267962-28.38848437H548.88571808c-20.66372701 0-39.782502 10.81466072-50.32679619 28.38848437L416.59924309 636.56152413a57.43357343 57.43357343 0 0 0-1e-8 57.93568258l81.9596788 134.99014017c10.50567031 17.61244755 29.66306919 28.38848438 50.3267962 28.38848505h167.35687453c20.66372701 0 39.782502-10.81466072 50.3267962-28.38848505l81.92105559-134.99014016c10.42842254-17.92143794 10.42842254-40.01424463 0-57.93568259zM716.24259261 801.67821943H548.88571808l-81.95967879-134.99014016 81.95967879-135.56949709h167.35687453l81.92105558 135.56949709-81.92105558 134.99014016z" p-id="9081"></path></svg>