<?xml version="1.0" standalone="no"?><!DOCTYPE svg PUBLIC "-//W3C//DTD SVG 1.1//EN" "http://www.w3.org/Graphics/SVG/1.1/DTD/svg11.dtd"><svg class="icon" width="200px" height="200.00px" viewBox="0 0 1024 1024" version="1.1" xmlns="http://www.w3.org/2000/svg"><path d="M345.6 461.824h142.848c11.264 0 20.48-9.216 20.48-20.48s-9.216-20.48-20.48-20.48H345.6c-11.264 0-20.48 9.216-20.48 20.48s9.216 20.48 20.48 20.48zM574.464 504.32H345.6c-11.264 0-20.48 9.216-20.48 20.48s9.216 20.48 20.48 20.48h228.864c11.264 0 20.48-9.216 20.48-20.48s-9.216-20.48-20.48-20.48zM488.448 587.776H345.6c-11.264 0-20.48 9.216-20.48 20.48s9.216 20.48 20.48 20.48h142.848c11.264 0 20.48-9.216 20.48-20.48s-9.216-20.48-20.48-20.48z"  /><path d="M748.032 228.352H400.896c-32.768 0-58.88 26.624-58.88 58.88v37.888H276.992c-16.896 0-30.72 13.824-30.72 30.72v519.168c0 16.896 13.824 30.72 30.72 30.72h291.84l18.944 18.944c4.096 4.096 9.216 6.144 14.336 6.144s10.24-2.048 14.336-6.144c5.12-5.12 7.168-12.288 5.632-18.944h58.368c16.896 0 30.72-13.824 30.72-30.72V808.96h36.352c32.768 0 58.88-26.624 58.88-58.88V287.232c0.512-32.768-26.112-58.88-58.368-58.88z m-162.304 636.416l-65.024-65.024c10.24-15.36 15.872-33.792 15.872-53.248 0-53.76-43.52-97.792-97.792-97.792s-97.792 43.52-97.792 97.792c0 53.76 43.52 97.792 97.792 97.792 19.456 0 37.376-5.632 52.224-15.36l36.352 36.352H286.72V366.08h365.056c9.728 0 17.92 8.192 17.92 17.92v480.768h-83.968z m-146.432-61.952c-31.232 0-56.832-25.6-56.832-56.832s25.6-56.832 56.832-56.832 56.832 25.6 56.832 56.832-25.6 56.832-56.832 56.832z m326.656-53.248c0 9.728-8.192 17.92-17.92 17.92H711.68V355.84c0-16.896-13.824-30.72-30.72-30.72H382.976v-37.888c0-9.728 8.192-17.92 17.92-17.92h347.136c9.728 0 17.92 8.192 17.92 17.92v462.336zM267.264 198.656v-21.504h21.504c11.264 0 20.48-9.216 20.48-20.48s-9.216-20.48-20.48-20.48h-21.504v-21.504c0-11.264-9.216-20.48-20.48-20.48s-20.48 9.216-20.48 20.48v21.504H204.8c-11.264 0-20.48 9.216-20.48 20.48s9.216 20.48 20.48 20.48h21.504v21.504c0 11.264 9.216 20.48 20.48 20.48s20.48-9.216 20.48-20.48zM998.4 542.208h-21.504v-21.504c0-11.264-9.216-20.48-20.48-20.48s-20.48 9.216-20.48 20.48v21.504h-21.504c-11.264 0-20.48 9.216-20.48 20.48s9.216 20.48 20.48 20.48h21.504v21.504c0 11.264 9.216 20.48 20.48 20.48s20.48-9.216 20.48-20.48v-21.504h21.504c11.264 0 20.48-9.216 20.48-20.48s-9.216-20.48-20.48-20.48zM133.632 388.608c-29.184 0-53.248 23.552-53.248 53.248s23.552 53.248 53.248 53.248c29.184 0 53.248-23.552 53.248-53.248s-23.552-53.248-53.248-53.248z m0 65.024c-6.656 0-12.288-5.632-12.288-12.288s5.632-12.288 12.288-12.288 12.288 5.632 12.288 12.288-5.632 12.288-12.288 12.288zM163.328 692.736H25.6c-11.264 0-20.48 9.216-20.48 20.48s9.216 20.48 20.48 20.48h137.728c11.264 0 20.48-9.216 20.48-20.48s-9.216-20.48-20.48-20.48z"  /></svg>
