<?xml version="1.0" standalone="no"?><!DOCTYPE svg PUBLIC "-//W3C//DTD SVG 1.1//EN" "http://www.w3.org/Graphics/SVG/1.1/DTD/svg11.dtd"><svg t="1575372119099" class="icon" viewBox="0 0 1024 1024" version="1.1" xmlns="http://www.w3.org/2000/svg" p-id="3311" xmlns:xlink="http://www.w3.org/1999/xlink" width="200" height="200"><defs><style type="text/css"></style></defs><path d="M365.75 467.9h125.55c9.9 0 18-8.1 18-18s-8.1-18-18-18H365.75c-9.9 0-18 8.1-18 18s8.1 18 18 18zM566.9 505.25H365.75c-9.9 0-18 8.1-18 18s8.1 18 18 18h201.15c9.9 0 18-8.1 18-18s-8.1-18-18-18zM491.3 578.6H365.75c-9.9 0-18 8.1-18 18s8.1 18 18 18h125.55c9.9 0 18-8.1 18-18s-8.1-18-18-18z" p-id="3312"></path><path d="M719.45 262.7H414.35c-28.8 0-51.75 23.4-51.75 51.75v33.3H305.45c-14.85 0-27 12.15-27 27v456.3c0 14.85 12.15 27 27 27h256.5l16.65 16.65c3.6 3.6 8.1 5.4 12.6 5.4s9-1.8 12.6-5.4c4.5-4.5 6.3-10.8 4.95-16.65h51.3c14.85 0 27-12.15 27-27V773h31.95c28.8 0 51.75-23.4 51.75-51.75V314.45c0.45-28.8-22.95-51.75-51.3-51.75z m-142.65 559.35l-57.15-57.15c9-13.5 13.95-29.7 13.95-46.8 0-47.25-38.25-85.95-85.95-85.95s-85.95 38.25-85.95 85.95c0 47.25 38.25 85.95 85.95 85.95 17.1 0 32.85-4.95 45.9-13.5l31.95 31.95H314V383.75h320.85c8.55 0 15.75 7.2 15.75 15.75v422.55h-73.8z m-128.7-54.45c-27.45 0-49.95-22.5-49.95-49.95s22.5-49.95 49.95-49.95 49.95 22.5 49.95 49.95-22.5 49.95-49.95 49.95z m287.1-46.8c0 8.55-7.2 15.75-15.75 15.75H687.5V374.75c0-14.85-12.15-27-27-27H398.6v-33.3c0-8.55 7.2-15.75 15.75-15.75h305.1c8.55 0 15.75 7.2 15.75 15.75v406.35zM296.9 236.6v-18.9h18.9c9.9 0 18-8.1 18-18s-8.1-18-18-18h-18.9v-18.9c0-9.9-8.1-18-18-18s-18 8.1-18 18v18.9H242c-9.9 0-18 8.1-18 18s8.1 18 18 18h18.9v18.9c0 9.9 8.1 18 18 18s18-8.1 18-18zM939.5 538.55h-18.9v-18.9c0-9.9-8.1-18-18-18s-18 8.1-18 18v18.9h-18.9c-9.9 0-18 8.1-18 18s8.1 18 18 18h18.9v18.9c0 9.9 8.1 18 18 18s18-8.1 18-18v-18.9h18.9c9.9 0 18-8.1 18-18s-8.1-18-18-18zM179.45 403.55c-25.65 0-46.8 20.7-46.8 46.8s20.7 46.8 46.8 46.8c25.65 0 46.8-20.7 46.8-46.8s-20.7-46.8-46.8-46.8z m0 57.15c-5.85 0-10.8-4.95-10.8-10.8s4.95-10.8 10.8-10.8 10.8 4.95 10.8 10.8-4.95 10.8-10.8 10.8zM205.55 670.85H84.5c-9.9 0-18 8.1-18 18s8.1 18 18 18h121.05c9.9 0 18-8.1 18-18s-8.1-18-18-18z" p-id="3313"></path></svg>
