<?xml version="1.0" standalone="no"?><!DOCTYPE svg PUBLIC "-//W3C//DTD SVG 1.1//EN" "http://www.w3.org/Graphics/SVG/1.1/DTD/svg11.dtd"><svg t="1582808788824" class="icon" viewBox="0 0 1024 1024" version="1.1" xmlns="http://www.w3.org/2000/svg" p-id="23102" xmlns:xlink="http://www.w3.org/1999/xlink" width="32" height="32"><defs><style type="text/css"></style></defs><path d="M764.8 912.96H259.2c-65.6 0-119.04-51.84-119.04-115.84V220.48c0-63.68 53.44-115.84 119.04-115.84h314.24c30.4 0 60.16 10.56 83.84 29.44l191.68 154.56c22.08 17.92 34.88 44.16 34.88 72.32v436.16c0 63.68-53.44 115.84-119.04 115.84z m-505.6-736c-25.92 0-47.04 19.52-47.04 43.84v576.64c0 24 21.12 43.84 47.04 43.84h505.6c25.92 0 47.04-19.52 47.04-43.84V360.96c0-6.08-2.88-12.16-8-16.32l-191.68-154.56c-10.56-8.64-24.32-13.44-38.72-13.44H259.2z" p-id="23103"></path><path d="M512 274.88c-80 0-144.96 64.96-144.96 144.96 0 40 16 76.16 42.24 102.08a213.376 213.376 0 0 0-110.4 177.28c-0.32 3.52-0.64 6.72-0.64 10.24v0.32c1.92 17.92 16.32 32 34.56 32.96h2.88c18.24-0.64 32.32-14.72 34.56-32.32v-0.96c0-1.92 0.32-3.52 0.64-5.44 2.56-68.8 54.08-124.8 120.96-134.4l-27.84 129.6c-0.32 1.6 0.32 3.2 1.28 4.16l44.16 38.4c0.64 0.64 1.6 0.96 2.56 0.96s1.92-0.32 2.56-0.96l44.16-38.4c1.28-0.96 1.6-2.56 1.28-4.16l-27.84-129.6c66.88 9.92 118.4 65.92 120.96 134.72 0 1.6 0.32 3.2 0.32 5.12v1.28c1.92 17.28 15.36 30.4 32.64 32h7.04c17.28-1.6 30.72-15.04 32.64-32v-0.96c0-3.2-0.64-6.4-0.64-9.6a213.984 213.984 0 0 0-110.4-177.92A145.12 145.12 0 0 0 512 274.88z m0 217.92a72.928 72.928 0 1 1 0-145.92 72.928 72.928 0 1 1 0 145.92z" p-id="23104"></path></svg>