<?xml version="1.0" standalone="no"?><!DOCTYPE svg PUBLIC "-//W3C//DTD SVG 1.1//EN" "http://www.w3.org/Graphics/SVG/1.1/DTD/svg11.dtd"><svg class="icon" width="200px" height="200.00px" viewBox="0 0 1024 1024" version="1.1" xmlns="http://www.w3.org/2000/svg"><path d="M493.88544 226.82624c1.19296-1.18784 2.50368-2.25792 3.9168-3.2 0.04096-0.0256 0.0768-0.07168 0.10752-0.09728 1.28-0.8448 2.63168-1.55648 4.01408-2.14528 0.32256-0.13824 0.67584-0.22016 1.00864-0.33792 1.13664-0.43008 2.2784-0.80896 3.46112-1.0752 0.54272-0.12288 1.11104-0.17408 1.66912-0.26624 1.03936-0.15872 2.0736-0.2816 3.11296-0.32256 0.2816 0 0.53248-0.08192 0.81408-0.08192 0.35328 0 0.68096 0.09216 1.03424 0.10752 1.00352 0.04096 1.99168 0.13824 2.97984 0.30208 0.62976 0.1024 1.24928 0.19456 1.85856 0.32768 0.95232 0.2304 1.87904 0.5376 2.81088 0.88064 0.55808 0.19968 1.12128 0.3584 1.65888 0.59904 0.98816 0.44032 1.95072 0.99328 2.88768 1.57696 0.39936 0.24576 0.8192 0.4352 1.20832 0.69632 1.2288 0.8448 2.40128 1.81248 3.50208 2.88768 0.0512 0.0512 0.10752 0.08704 0.15872 0.128l235.31008 235.3152a25.59488 25.59488 0 1 1-36.18816 36.20864L537.6 306.71872V871.68a25.6 25.6 0 1 1-51.2 0V306.71872L294.77888 498.33984a25.6 25.6 0 1 1-36.20352-36.20352l235.31008-235.31008zM747.32032 177.92H276.67968c-14.14144 0-25.6-11.45856-25.6-25.6s11.45856-25.6 25.6-25.6h470.64064c14.14144 0 25.6 11.45856 25.6 25.6s-11.45856 25.6-25.6 25.6z"  /></svg>
