<?xml version="1.0" standalone="no"?><!DOCTYPE svg PUBLIC "-//W3C//DTD SVG 1.1//EN" "http://www.w3.org/Graphics/SVG/1.1/DTD/svg11.dtd"><svg class="icon" width="200px" height="193.57px" viewBox="0 0 1058 1024" version="1.1" xmlns="http://www.w3.org/2000/svg"><path d="M386.17088 463.64899555c-50.09863111 0-90.87658667 40.77795555-90.87658667 90.87658667s40.77795555 90.87658667 90.87658667 90.87658667S477.04746667 605.20675555 477.04746667 555.10812445c0-50.68117333-40.77795555-91.45912889-90.87658667-91.4591289z m0 124.08149334c-18.05880889 0-32.62236445-14.56355555-32.62236445-32.62236444 0-18.05880889 14.56355555-32.62236445 32.62236445-32.62236445s32.62236445 14.56355555 32.62236445 32.62236445c0 18.05880889-14.56355555 32.62236445-32.62236445 32.62236444zM652.97521778 463.64899555c-50.09863111 0-90.87658667 40.77795555-90.87658667 90.87658667s40.77795555 90.87658667 90.87658667 90.87658667 90.87658667-40.77795555 90.87658667-90.87658667-40.77795555-90.87658667-90.87658667-90.87658667z m0 124.08149334c-18.05880889 0-32.62236445-14.56355555-32.62236445-32.62236444 0-18.05880889 14.56355555-32.62236445 32.62236445-32.62236445s32.62236445 14.56355555 32.62236444 32.62236445c0 18.05880889-14.56355555 32.62236445-32.62236444 32.62236444z"  /><path d="M985.60682667 561.51608889c0-61.16693333-47.18592-112.43064889-110.10048-124.66403556V376.85020445c0-32.03982222-26.2144-58.25422222-58.25422222-58.25422223h-156.12131556V249.856c0-22.71914667-18.05880889-40.77795555-40.77795556-40.77795555H418.21070222c-22.71914667 0-40.77795555 18.05880889-40.77795555 40.77795555v68.73998222H221.31143111c-32.03982222 0-58.25422222 26.2144-58.25422222 58.25422223v60.00184888C100.72519111 449.66798222 53.53927111 500.34915555 53.53927111 561.51608889s47.18592 112.43064889 110.10048 124.66403556v83.88608c0 32.03982222 26.2144 58.25422222 58.25422222 58.25422222h595.94069334c32.03982222 0 58.25422222-26.2144 58.25422222-58.25422222v-83.88608c62.33201778-12.23338667 109.51793778-63.49710222 109.51793778-124.66403556zM435.68696889 267.33226667h167.18961778v51.26371555H435.68696889V267.33226667z m-323.89347556 294.18382222c0-29.12711111 21.55406222-54.17642667 51.84625778-64.66218667v128.74183111c-30.29219555-9.32067555-51.84625778-34.36999111-51.84625778-64.07964444z m705.45863112 207.96757333H221.31143111V376.85020445h595.94069334v392.63345777z m0 29.12711111v-29.12711111 29.12711111z m58.25422222-172.43249778V497.43644445c30.29219555 9.90321778 51.84625778 34.95253333 51.84625778 64.66218666s-21.55406222 54.17642667-51.84625778 64.07964444z"  /></svg>
