<?xml version="1.0" standalone="no"?><!DOCTYPE svg PUBLIC "-//W3C//DTD SVG 1.1//EN" "http://www.w3.org/Graphics/SVG/1.1/DTD/svg11.dtd"><svg class="icon" width="200px" height="193.57px" viewBox="0 0 1058 1024" version="1.1" xmlns="http://www.w3.org/2000/svg"><path d="M896.6912 708.1984v134.67648H178.43712V708.1984c-79.21664-7.80288-134.67136-58.31168-134.67136-134.67648s56.46336-135.39328 134.67136-134.67136V304.18432h224.45056V214.4h269.34784v89.78432h224.45056v134.67136c78.56128 8.50432 134.67648 58.72128 134.67648 134.67136 0 75.96032-56.19712 126.16704-134.67136 134.67136zM178.43712 483.74272c-41.60512 1.97632-93.39904 35.46624-89.7792 89.7792 0 36.80256 52.8896 82.50368 89.7792 89.78432V483.74272z m448.91136-224.45056H447.78496v44.89216h179.56864v-44.89216z m224.45056 89.78432H223.32928v448.91136h628.47488V349.07648z m44.89216 134.66624v179.56352c36.12672-7.80288 89.6768-53.48864 89.78432-89.78432 0-36.27008-53.66272-82.08384-89.78432-89.7792z m-493.80352 0c49.58208 0 89.78432 40.20224 89.78432 89.7792 0 49.5872-40.20224 89.78432-89.78432 89.78432-49.58208 0-89.7792-40.20224-89.7792-89.78432 0-49.57696 40.20224-89.7792 89.7792-89.7792z m0 134.67136a44.88704 44.88704 0 0 0 44.89216-44.89216 44.89216 44.89216 0 1 0-44.89216 44.89216z m269.35296-134.67136c49.58208 0 89.7792 40.20224 89.7792 89.7792 0 49.5872-40.20224 89.78432-89.7792 89.78432-49.59232 0-89.78432-40.20224-89.78432-89.78432 0-49.57696 40.192-89.7792 89.78432-89.7792z m0 134.67136a44.89216 44.89216 0 1 0-44.89216-44.89216 44.88704 44.88704 0 0 0 44.89216 44.89216z"  /></svg>
