<?xml version="1.0" standalone="no"?><!DOCTYPE svg PUBLIC "-//W3C//DTD SVG 1.1//EN" "http://www.w3.org/Graphics/SVG/1.1/DTD/svg11.dtd"><svg class="icon" width="200px" height="200.00px" viewBox="0 0 1024 1024" version="1.1" xmlns="http://www.w3.org/2000/svg"><path d="M930.26167467 506.691584c-40.92177067 47.071232-115.59458133 131.82020267-203.81149867 231.899136l-149.94090667 170.33898667c-26.640384 30.34862933-46.97838933 34.51016533-65.03901866 34.51016533-17.13220267 0-38.29486933-4.10146133-65.03355734-34.57570133l-144.98747733-164.58820267c-93.21949867-105.89525333-172.19584-195.57034667-208.50824533-237.273088l-2.05346134-2.64874667c-30.72-45.67313067-29.94449067-96.70929067 2.11899734-133.398528 18.48661333-21.66510933 57.68260267-66.36612267 96.29969066-110.444544 30.33770667-34.586624 60.36411733-68.78549333 79.61531734-91.07319466 26.361856-30.46877867 50.22788267-33.95857067 65.89098666-33.95857067-0.14199467 0 147.79460267-0.31675733 252.57028267-0.31675733 92.13269333 0 99.42357333 0.25122133 101.793792 0.31675733 32.87176533 1.261568 49.823744 19.382272 63.46615467 33.89303467 33.01922133 35.14368 104.69376 117.866496 147.570688 167.31886933 14.21038933 16.400384 25.001984 28.87953067 29.67688533 34.13333333 35.536896 42.31441067 27.77088 103.30658133 0.37137067 135.86705067z m-89.735168-118.31978667c-3.69732267-4.22161067-12.156928-14.19400533-23.36904534-27.312128-33.64727467-39.57828267-89.98638933-105.742336-115.93864533-133.873664-10.73152-11.599872-24.018944-26.09425067-49.823744-27.10459733-1.88962133-0.04369067-7.62948267-0.24576-79.99761067-0.24576-82.32413867 0-198.56861867 0.24576-198.45393066 0.24576-12.29892267 0-31.05860267 2.801664-51.76797867 27.15374933-15.122432 17.83671467-38.70446933 45.21437867-62.55957333 72.87057067-30.34862933 35.26929067-61.145088 71.041024-75.65038934 88.358912-25.20951467 29.343744-25.81572267 70.189056-1.671168 106.70353067l1.61109334 2.13538133c28.540928 33.38513067 90.58167467 105.086976 163.82907733 189.79771733l113.92341333 131.694592c21.00974933 24.37393067 37.64497067 27.656192 51.09077334 27.656192 14.17762133 0 30.15748267-3.34779733 51.11808-27.60157866l117.79549866-136.26026667c69.30432-80.10683733 127.975424-147.898368 160.14267734-185.55426133 21.53949867-26.02871467 27.63434667-74.81480533-0.278528-108.66414934z m-133.742592 70.11259734c-35.110912 46.55240533-157.08433067 200.92791467-195.37373867 251.199488-38.322176-50.27157333-157.990912-205.16590933-192.59938133-251.199488-5.95285333-7.815168-17.793024-32.33109333-32.33109334-32.33109334v-32.33109333h64.66218667c2.32106667 0 15.122432 8.68352 16.728064 11.190272l144.92740267 215.12192 141.63421866-214.60855467c2.02615467-3.08565333 17.86948267-11.70909867 20.021248-11.70909866h64.65672534v32.33109333c-14.45614933 0-26.329088 24.52138667-32.325632 32.33655467z"  /></svg>
