<?xml version="1.0" standalone="no"?><!DOCTYPE svg PUBLIC "-//W3C//DTD SVG 1.1//EN" "http://www.w3.org/Graphics/SVG/1.1/DTD/svg11.dtd"><svg class="icon" width="200px" height="200.00px" viewBox="0 0 1024 1024" version="1.1" xmlns="http://www.w3.org/2000/svg"><path d="M955.32544 398.21824c0-67.64544-28.42624-131.45088-79.71328-179.18464-97.38752-90.56768-251.35616-95.21664-358.2464-14.47424C412.41088 123.8016 256.6912 127.98976 158.41792 219.0336c-51.18464 47.72864-79.50336 111.5392-79.50336 179.18464 0 63.71328 25.66144 123.04384 71.3728 169.81504l-0.7168 0.45568 192.72192 199.66464 8.31488 8.59136 81.38752 84.4544 0.3072-0.24576 15.89248 16.19968A95.60576 95.60576 0 0 0 517.12 906.22464a97.3568 97.3568 0 0 0 69.17632-28.8256 97.8432 97.8432 0 0 0 28.14976-66.14528 96.65536 96.65536 0 0 0 65.75104-28.3648 98.03776 98.03776 0 0 0 28.14976-66.1504 96.768 96.768 0 0 0 65.75104-28.3648 97.99168 97.99168 0 0 0 28.14976-66.14528 96.77824 96.77824 0 0 0 65.75104-28.36992 96.80896 96.80896 0 0 0 20.57728-31.23712c42.5728-45.78816 66.74944-103.13216 66.74944-164.4032z m-122.01984-132.62848c38.144 35.44064 59.4176 82.69824 59.4176 132.62848a176.32256 176.32256 0 0 1-14.39744 69.15584 178.6368 178.6368 0 0 0-10.33728-12.76416l-109.57824-110.26944-0.18432 0.24576-2.688-2.7648c-95.61088-75.76064-179.2768 16.32256-224.23552 65.536-9.35424 10.3168-17.39264 19.3792-24.45312 25.61536-35.74784 31.23712-89.02656 36.35712-130.59584 15.70816l147.65056-164.66432 15.98464-18.75456c80.91648-75.0336 212.43904-75.0336 293.41696 0.32768z m-34.47808 290.1248h-62.60224v63.03232c0 17.4848-13.94176 31.5136-31.30368 31.5136h-62.60224v62.99648c0 17.4848-13.93664 31.54432-31.29856 31.54432h-62.60224v62.97088c0 17.4848-13.94176 31.5136-31.29856 31.5136-8.31488 0-19.57888-1.74592-24.71424-6.144L408.2688 746.27072l-207.59552-214.8864 0.22528-0.3072c-38.35904-35.67104-59.392-82.91328-59.392-132.85888 0-49.93024 21.02784-97.18784 59.392-132.62848 73.86624-68.66944 189.30176-73.8816 270.5152-17.4848L285.33248 456.0384l22.69696 21.18144c66.49856 61.50144 171.93984 63.03232 240.14848 2.97984 8.31488-7.3984 18.33984-18.26304 29.34272-30.30528 59.17696-65.21344 97.3568-91.74528 136.69376-61.04064l109.57824 110.26944c4.13184 5.1968 6.32832 15.73888 6.32832 25.10848 0 17.4848-13.94176 31.54432-31.29856 31.54432v-0.06144z m0 0"  /></svg>
