<?xml version="1.0" encoding="utf-8"?>
<!-- Generator: Adobe Illustrator 23.0.4, SVG Export Plug-In . SVG Version: 6.00 Build 0)  -->
<svg version="1.1" xmlns="http://www.w3.org/2000/svg" xmlns:xlink="http://www.w3.org/1999/xlink" x="0px" y="0px"
	 viewBox="0 0 1024 1024" style="enable-background:new 0 0 1024 1024;" xml:space="preserve">
<style type="text/css">
	.st0{fill:none;}
</style>
<g id="keyline">
</g>
<g id="图层_2">
	<path d="M558.9,136.8h-0.1c-175.3,0-317.5,142.1-317.5,317.4c0,83.2,31.9,158.9,84.2,215.5l-49.6,49.6l-88.7-88.6l-39.6,39.6
		l88.7,88.6l-83.4,83.4l39.6,39.6l83.4-83.4l88.7,88.6l39.6-39.6l-88.7-88.6l51.5-51.5c53.3,40.4,119.7,64.4,191.7,64.4h0.1
		c175.3,0,317.5-142.1,317.5-317.4C876.4,279.1,734.3,136.9,558.9,136.8z M743.7,639.3c-24,24-52,42.9-83.1,56
		c-32.2,13.6-66.4,20.5-101.8,20.5h-0.1c-35.3,0-69.6-6.9-101.8-20.6c-31.1-13.2-59.1-32.1-83.1-56.1c-24-24-42.9-52-56-83.2
		c-13.6-32.2-20.5-66.5-20.5-101.8c0-35.3,6.9-69.6,20.5-101.8c13.2-31.1,32-59.1,56.1-83.1c24-24,52-42.9,83.1-56
		c32.2-13.6,66.4-20.5,101.7-20.5h0.1c35.3,0,69.6,6.9,101.8,20.6c31.1,13.2,59.1,32.1,83.1,56.1c24,24,42.9,52,56,83.2
		c13.6,32.2,20.5,66.5,20.5,101.8c0,35.3-6.9,69.6-20.6,101.8C786.6,587.3,767.7,615.3,743.7,639.3z" fill="#FC0000"/>
</g>
</svg>
