<?xml version="1.0" encoding="utf-8"?>
<!-- Generator: Adobe Illustrator 23.0.4, SVG Export Plug-In . SVG Version: 6.00 Build 0)  -->
<svg version="1.1" id="图层_2" xmlns="http://www.w3.org/2000/svg" xmlns:xlink="http://www.w3.org/1999/xlink" x="0px" y="0px"
	 viewBox="0 0 1024 1024" style="enable-background:new 0 0 1024 1024;" xml:space="preserve">
<style type="text/css">
	.st0{fill:none;}
</style>
<g>
	<path class="st0" d="M873.2,359.4c-19.7-46.7-48-88.6-84-124.6c-36-36-77.9-64.3-124.6-84C616.3,130.4,564.9,120,512,120
		s-104.3,10.4-152.6,30.8c-46.7,19.7-88.6,48-124.6,84c-36,36-64.3,78-84,124.6C130.4,407.7,120,459.1,120,512
		s10.4,104.3,30.8,152.6c19.7,46.7,48,88.6,84,124.6c36,36,77.9,64.3,124.6,84C407.7,893.6,459.1,904,512,904s104.3-10.4,152.6-30.8
		c46.7-19.7,88.6-48,124.6-84c36-36,64.3-77.9,84-124.6C893.6,616.3,904,564.9,904,512S893.6,407.7,873.2,359.4z M303,521
		c-33.1,0-60-26.9-60-60s26.9-60,60-60s60,26.9,60,60S336.1,521,303,521z M598,746.5c0-24.2-9-30.1-18.1-34c-17.4-7.4-46-8-73.9-8
		s-56.5,0.6-73.9,8c-9.2,3.9-18.1,9.8-18.1,34h-56c0-52.3,28.4-75.4,52.2-85.5c27.1-11.5,60.8-12.5,95.8-12.5s68.7,1,95.8,12.5
		c23.8,10.1,52.2,33.2,52.2,85.5H598z M706,521c-33.1,0-60-26.9-60-60s26.9-60,60-60s60,26.9,60,60S739.1,521,706,521z" fill="#595959"/>
	<path d="M512,64C264.6,64,64,264.6,64,512s200.6,448,448,448s448-200.6,448-448S759.4,64,512,64z M789.2,789.2
		c-36,36-77.9,64.3-124.6,84C616.3,893.6,564.9,904,512,904s-104.3-10.4-152.6-30.8c-46.7-19.7-88.6-48-124.6-84
		c-36-36-64.3-77.9-84-124.6C130.4,616.3,120,564.9,120,512s10.4-104.3,30.8-152.6c19.7-46.7,48-88.6,84-124.6
		c36-36,77.9-64.3,124.6-84C407.7,130.4,459.1,120,512,120s104.3,10.4,152.6,30.8c46.7,19.7,88.6,48,124.6,84
		c36,36,64.3,78,84,124.6C893.6,407.7,904,459.1,904,512s-10.4,104.3-30.8,152.6C853.5,711.2,825.2,753.2,789.2,789.2z" fill="#595959"/>
	<circle cx="303" cy="461" r="60" fill="#595959"/>
	<circle cx="706" cy="461" r="60" fill="#595959"/>
	<path d="M601.8,661c-27.1-11.5-60.8-12.5-95.8-12.5s-68.7,1-95.8,12.5c-23.8,10.1-52.2,33.2-52.2,85.5h56c0-24.2,9-30.1,18.1-34
		c17.4-7.4,46-8,73.9-8s56.5,0.6,73.9,8c9.2,3.9,18.1,9.8,18.1,34h56C654,694.2,625.6,671.1,601.8,661z" fill="#595959"/>
</g>
</svg>
