<?xml version="1.0" standalone="no"?><!DOCTYPE svg PUBLIC "-//W3C//DTD SVG 1.1//EN" "http://www.w3.org/Graphics/SVG/1.1/DTD/svg11.dtd"><svg class="icon" width="200px" height="200.00px" viewBox="0 0 1024 1024" version="1.1" xmlns="http://www.w3.org/2000/svg"><path d="M866.98666667 388.57386667c-1.6384-2.18453333-3.82293333-3.82293333-6.5536-4.9152l-306.3808-152.91733334c-12.01493333-6.00746667-26.2144-1.09226667-31.67573334 10.37653334-6.00746667 12.01493333-1.09226667 26.2144 10.37653334 31.67573333L758.85226667 386.38933333H242.75626667l315.66506666-228.28373333c10.37653333-7.64586667 13.1072-22.39146667 5.46133334-33.31413333-7.64586667-10.37653333-22.39146667-13.1072-33.31413334-5.46133334L159.744 387.4816c-9.28426667 3.2768-16.384 12.01493333-16.384 22.39146667v475.68213333c0 13.1072 10.92266667 24.02986667 24.02986667 24.02986667h689.7664c13.1072 0 24.02986667-10.92266667 24.02986666-24.02986667V409.87306667c-0.54613333-9.28426667-6.00746667-17.47626667-14.19946666-21.2992z m-96.6656 381.7472H394.58133333c-13.1072 0-24.02986667-10.37653333-24.02986666-24.02986667 0-13.1072 10.37653333-24.02986667 24.02986666-24.02986667h375.73973334c13.1072 0 24.02986667 10.37653333 24.02986666 24.02986667 0 13.65333333-10.92266667 24.02986667-24.02986666 24.02986667z m0-123.42613334h-229.92213334c-13.1072 0-24.02986667-10.37653333-24.02986666-24.02986666 0-13.1072 10.37653333-24.02986667 24.02986666-24.02986667h229.92213334c13.1072 0 24.02986667 10.37653333 24.02986666 24.02986667 0 13.1072-10.92266667 24.02986667-24.02986666 24.02986666z"  /></svg>
