<?xml version="1.0" standalone="no"?><!DOCTYPE svg PUBLIC "-//W3C//DTD SVG 1.1//EN" "http://www.w3.org/Graphics/SVG/1.1/DTD/svg11.dtd"><svg class="icon" width="200px" height="200.00px" viewBox="0 0 1024 1024" version="1.1" xmlns="http://www.w3.org/2000/svg"><path d="M746.72 599.36c-75.84 0-137.28 61.44-137.28 137.28s61.44 137.28 137.28 137.28 137.28-61.44 137.28-137.28-61.44-137.28-137.28-137.28z m64.32 178.08h-80.64c-6.24 0-12-2.4-16.8-6.72-4.32-4.32-6.72-10.56-6.72-16.8l1.44-95.52c0-12.96 11.04-23.04 23.52-23.04 12.96 0 23.04 10.56 23.04 23.52l-0.96 72h57.12c12.96 0 23.04 10.56 23.04 23.04 0 12.96-10.56 23.52-23.04 23.52zM288.8 318.56l71.04-168.96H301.76c-16.8 0-40.8 12.48-50.88 26.4L161.12 302.72c-3.36 4.8-6.24 10.56-9.12 16.8h136.32s0-0.48 0.48-0.96zM704.96 319.52H852.8c-2.88-6.24-5.76-12.48-9.12-16.8L753.92 176c-10.08-13.92-33.6-25.92-50.88-26.4h-69.6l71.04 168.96c0 0.48 0 0.96 0.48 0.96zM342.56 320h312l-71.04-168.96c0-0.48 0-0.96-0.48-0.96H409.76c0 0.48 0 0.96-0.48 0.96L338.72 320h3.84zM333.92 366.08v91.68l325.92 2.4V366.08H342.56z"  /><path d="M746.72 557.12c44.64 0 85.92 15.84 118.08 42.24V382.88c0-4.8-0.48-10.56-1.92-16.8h-156.48v117.6c0 6.24-2.4 12-6.72 16.32-4.32 4.32-10.08 6.72-16.32 6.72L310.4 503.84c-12.96 0-23.04-10.56-23.04-23.04V366.08H141.92c-0.96 5.76-1.92 11.52-1.92 16.8v449.28c0 12 9.6 21.12 22.08 21.12h432c-22.08-30.72-35.04-68.16-35.04-108.96 0-103.2 84-187.2 187.68-187.2z"  /></svg>
