<?xml version="1.0" standalone="no"?><!DOCTYPE svg PUBLIC "-//W3C//DTD SVG 1.1//EN" "http://www.w3.org/Graphics/SVG/1.1/DTD/svg11.dtd"><svg t="1640591591674" class="icon" viewBox="0 0 1024 1024" version="1.1" xmlns="http://www.w3.org/2000/svg" p-id="11824" xmlns:xlink="http://www.w3.org/1999/xlink" width="32" height="32"><defs><style type="text/css"></style></defs><path d="M743.5 340c-101.3 0-185.5 74.76-200.27 172h0.09A264.61 264.61 0 0 1 112 685.4V912h800V430.28A202.53 202.53 0 0 0 743.5 340z m54.18 409.9h-140v-140h140z" p-id="11825"></path><path d="M280.5 684c101.3 0 185.5-74.76 200.27-172h-0.09A264.61 264.61 0 0 1 912 338.6V112H112v481.72A202.53 202.53 0 0 0 280.5 684z m23.18-396.1a78 78 0 1 1-78 78 78 78 0 0 1 78-78z" p-id="11826"></path></svg>