<?xml version="1.0" standalone="no"?><!DOCTYPE svg PUBLIC "-//W3C//DTD SVG 1.1//EN" "http://www.w3.org/Graphics/SVG/1.1/DTD/svg11.dtd"><svg t="1640591414066" class="icon" viewBox="0 0 1024 1024" version="1.1" xmlns="http://www.w3.org/2000/svg" p-id="11261" xmlns:xlink="http://www.w3.org/1999/xlink" width="32" height="32"><defs><style type="text/css"></style></defs><path d="M161.5 887V295.17L434 471a78.49 78.49 0 0 0 156.32-3.1L862.5 292.24V887z" p-id="11262"></path><path d="M862 293.16V886.5H162V296.09l271.49 175.23a79 79 0 0 0 157.29-3.1L862 293.16m1-1.84L589.81 467.65a78 78 0 0 1-155.37 3.09L161 294.25V887.5h702V291.32z" p-id="11263"></path><path d="M161.5 218.69V137h701v78.76L567 406.49a78.46 78.46 0 0 0-111.74 1.8z" p-id="11264"></path><path d="M862 137.5v78L567.06 405.85a79 79 0 0 0-111.88 1.8L162 218.42V137.5h700m1-1H161V219l294.33 190a78 78 0 0 1 111.6-1.81L863 216v-79.5z" p-id="11265"></path></svg>