<?xml version="1.0" standalone="no"?><!DOCTYPE svg PUBLIC "-//W3C//DTD SVG 1.1//EN" "http://www.w3.org/Graphics/SVG/1.1/DTD/svg11.dtd"><svg class="icon" width="200px" height="200.00px" viewBox="0 0 1024 1024" version="1.1" xmlns="http://www.w3.org/2000/svg"><path d="M240.64 710.144c-39.936-0.512-72.192 31.744-72.192 71.68s31.744 72.192 71.168 72.192c39.936 0 71.68-31.744 72.192-71.68 0.512-39.936-31.232-71.68-71.168-72.192zM776.192 710.144c-39.424 0-71.168 32.256-71.168 71.168 0 39.936 31.744 72.192 71.168 72.192s72.192-31.744 72.704-71.68c0-38.912-32.768-71.68-72.704-71.68z"  /><path d="M382.464 326.144H237.568c-8.704 0-15.36 3.072-20.48 10.24-45.568 65.536-91.648 130.56-137.216 196.096-3.584 5.12-5.12 11.776-5.632 17.92-0.512 28.16 0 56.32 0 84.48v137.216c0 11.264 4.608 19.456 13.312 20.48 12.8 1.024 26.112 0.512 39.424 0.512-5.12-70.144 49.152-122.88 111.616-123.904 59.392-1.024 118.272 47.104 114.688 124.416h28.16c15.872 0 22.016-6.144 22.016-21.504V349.184c1.024-15.872-5.632-22.528-20.992-23.04z m-35.84 248.32H217.6c-11.776 0-19.456-8.192-19.456-18.944 0.512-11.264 7.68-18.432 19.968-18.432h108.544V479.232c0-18.944-0.512-38.4 1.024-57.344 0.512-13.824 13.312-20.48 25.088-15.872 7.68 3.072 11.776 9.216 11.776 17.408 0.512 44.032 0.512 88.576 0.512 133.12 0 11.264-7.168 17.92-18.432 17.92zM776.704 525.824c-113.152 0-205.312-92.16-205.312-205.312 0-19.456 2.56-38.4 7.68-56.32h-107.52c-28.672 0-45.568 16.896-45.568 45.568v438.784c0 28.16 16.896 45.056 44.544 45.056 56.32 0.512 113.152 1.024 169.472 1.024h23.04c-5.632-73.216 51.2-126.976 116.224-125.44 60.416 1.536 117.248 52.736 109.568 129.024h39.936c13.312-0.512 20.48-7.68 20.48-20.992 0.512-115.712 0.512-231.424 0.512-346.624-36.352 56.832-100.352 95.232-173.056 95.232z"  /><path d="M776.704 470.528c82.944 0 150.528-67.584 150.528-150.528s-67.584-150.528-150.528-150.528-150.528 67.584-150.528 150.528 67.584 150.528 150.528 150.528z m0-38.912c-15.36 0-27.136-12.288-27.136-27.136 0-15.36 12.288-27.136 27.136-27.136 15.36 0 27.136 12.288 27.136 27.136 0.512 14.848-11.776 27.136-27.136 27.136z m-27.648-189.44c0-15.36 12.288-27.136 27.136-27.136 15.36 0 27.136 12.288 27.136 27.136V337.92c0 15.36-12.288 27.136-27.136 27.136-15.36 0-27.136-12.288-27.136-27.136V242.176z"  /></svg>
