<?xml version="1.0" standalone="no"?><!DOCTYPE svg PUBLIC "-//W3C//DTD SVG 1.1//EN" "http://www.w3.org/Graphics/SVG/1.1/DTD/svg11.dtd"><svg class="icon" width="200px" height="198.45px" viewBox="0 0 1032 1024" version="1.1" xmlns="http://www.w3.org/2000/svg"><path d="M799.81226667 544.22186667c-74.82026667 0-135.44106667 60.6208-135.44106667 135.44106666s60.6208 135.44106667 135.44106667 135.44106667c74.82026667 0 135.44106667-60.6208 135.44106666-135.44106667s-60.6208-135.44106667-135.44106666-135.44106666z m76.45866666 143.63306666c-4.9152 5.46133333-12.01493333 8.192-19.11466666 8.192-6.5536 0-13.1072-2.18453333-18.0224-7.64586666l-13.1072-12.56106667v69.35893333c0 14.7456-12.01493333 26.2144-26.2144 26.2144s-26.2144-12.01493333-26.2144-26.2144V675.84l-13.1072 12.56106667c-10.37653333 9.8304-27.30666667 9.8304-37.13706667-0.54613334-9.8304-10.37653333-9.8304-27.30666667 0.54613333-37.13706666l57.89013334-55.7056c10.37653333-9.8304 26.2144-9.8304 36.59093333 0l57.89013333 55.7056c9.8304 10.37653333 9.8304 26.76053333 0 37.13706666zM852.24106667 347.61386667v-60.07466667c0-43.69066667-35.49866667-79.18933333-79.18933334-79.18933333H167.936c-43.69066667 0-79.18933333 35.49866667-79.18933333 79.18933333V348.16h763.4944v-0.54613333z"  /><path d="M799.81226667 491.79306667c18.0224 0 36.0448 2.73066667 52.4288 7.64586666V400.5888H88.74666667V708.608c0 43.69066667 35.49866667 79.18933333 79.18933333 79.18933333h477.32053333c-21.2992-30.58346667-33.86026667-67.72053333-33.86026666-107.58826666 0-104.31146667 84.10453333-188.416 188.416-188.416z"  /></svg>
