<?xml version="1.0" standalone="no"?><!DOCTYPE svg PUBLIC "-//W3C//DTD SVG 1.1//EN" "http://www.w3.org/Graphics/SVG/1.1/DTD/svg11.dtd"><svg class="icon" width="200px" height="200.00px" viewBox="0 0 1024 1024" version="1.1" xmlns="http://www.w3.org/2000/svg"><path d="M753.152 460.8c6.656-117.76-68.096-224.768-181.248-258.048v-25.6c1.024-15.872-4.608-31.232-15.36-43.008-10.752-11.776-25.6-18.432-41.472-18.944-16.384-0.512-32.256 6.144-44.032 17.92s-18.432 27.648-17.92 44.032v25.6C337.408 233.472 261.12 342.016 270.848 460.8v202.752l-79.36 80.384v41.984h640.512v-41.984L752.64 663.552V460.8zM432.64 827.904c-0.512 21.504 7.68 41.984 22.528 57.344 14.848 15.36 35.328 23.552 56.832 23.552h16.896c25.6-6.144 46.592-24.064 56.832-48.128 4.608-10.24 6.656-20.992 5.632-32.256h-158.72zM910.336 428.032c-30.208-214.528-151.552-291.84-156.672-294.912-16.896-10.24-38.912-5.12-49.664 11.264-10.24 16.896-5.12 38.912 11.264 49.152 4.096 2.56 98.304 65.024 123.392 244.224 2.56 17.92 17.92 30.72 35.328 30.72 1.536 0 3.584 0 5.12-0.512 20.48-2.56 34.304-20.48 31.232-39.936zM308.224 193.536c16.896-10.24 21.504-32.256 11.264-49.152s-32.768-22.016-49.152-11.776c-5.12 3.072-126.464 80.896-156.672 294.912-2.56 19.456 10.752 37.888 30.72 40.448 1.536 0 3.584 0.512 5.12 0.512 17.408 0 32.768-12.8 35.328-30.72 24.576-178.688 118.784-241.152 123.392-244.224z"  /></svg>
