<?xml version="1.0" standalone="no"?><!DOCTYPE svg PUBLIC "-//W3C//DTD SVG 1.1//EN" "http://www.w3.org/Graphics/SVG/1.1/DTD/svg11.dtd"><svg t="1640591268251" class="icon" viewBox="0 0 1024 1024" version="1.1" xmlns="http://www.w3.org/2000/svg" p-id="10559" xmlns:xlink="http://www.w3.org/1999/xlink" width="32" height="32"><defs><style type="text/css"></style></defs><path d="M404.772647 512.993632a209.271842 209.271842 0 0 0 107.232346 29.419491c116.060191 0 210.460206-94.419988 210.460206-210.460207S628.055197 121.482724 511.995007 121.482724C395.76505 121.482724 301.584732 215.702987 301.584732 331.94293a210.639959 210.639959 0 0 0 103.187915 181.050702zM687.463395 560.228591H336.536605c-108.300875 0-196.139925 87.699242-196.139925 195.970159v146.328512h743.20664V756.19875c0-108.270916-87.83905-195.970158-196.139925-195.970159zM536.64107 877.791322L404.642826 753.522435 301.285144 853.75442l-50.061068-51.618923L403.903843 654.099336l131.818492 124.04919 81.727466-79.889995h-40.444311v-71.900996H793.906828z" p-id="10560"></path></svg>