<?xml version="1.0" standalone="no"?><!DOCTYPE svg PUBLIC "-//W3C//DTD SVG 1.1//EN" "http://www.w3.org/Graphics/SVG/1.1/DTD/svg11.dtd"><svg t="1640590800351" class="icon" viewBox="0 0 1024 1024" version="1.1" xmlns="http://www.w3.org/2000/svg" p-id="9574" xmlns:xlink="http://www.w3.org/1999/xlink" width="32" height="32"><defs><style type="text/css"></style></defs><path d="M358.82 511.46a218.14 218.14 0 0 0 111.58 30.61c120.77 0 219-98.25 219-219s-98.25-219-219-219a219 219 0 0 0-111.58 407.39zM573 559.23l-266.52-0.17C192.27 559 99.69 651.51 99.69 765.67V920h506.63L485.46 710.62z" p-id="9575"></path><path d="M831.64 558.89H646.3l-0.38 0.65-88.14 152.53 92.67 160.5h185.34l6-10.42 82.5-142.76zM742 762.78A47.77 47.77 0 1 1 789.72 715 47.77 47.77 0 0 1 742 762.78z" p-id="9576"></path></svg>