<?xml version="1.0" standalone="no"?><!DOCTYPE svg PUBLIC "-//W3C//DTD SVG 1.1//EN" "http://www.w3.org/Graphics/SVG/1.1/DTD/svg11.dtd"><svg t="1640591603914" class="icon" viewBox="0 0 1024 1024" version="1.1" xmlns="http://www.w3.org/2000/svg" p-id="11965" xmlns:xlink="http://www.w3.org/1999/xlink" width="32" height="32"><defs><style type="text/css"></style></defs><path d="M113.28 218.69V137h701v78.76L518.77 406.49a78.46 78.46 0 0 0-111.77 1.8z" p-id="11966"></path><path d="M813.78 137.5v78L518.83 405.86A78.94 78.94 0 0 0 407 407.65L113.78 218.42V137.5h700m1-1h-702V219l294.33 190a77.94 77.94 0 0 1 111.59-1.81L814.78 216v-79.5z" p-id="11967"></path><path d="M113.28 887V295.17L385.74 471a78.49 78.49 0 0 0 156.33-3.1l272.21-175.66v219.11H595.54L471.79 725.48 565.05 887z" p-id="11968"></path><path d="M813.78 293.16v217.69H595.25l-0.29 0.5L471.51 725l-0.29 0.5 0.29 0.5 92.67 160.5h-450.4V296.09l271.49 175.23a79 79 0 0 0 157.28-3.1l271.23-175.06m1-1.84L541.59 467.65a78 78 0 0 1-155.38 3.09L112.78 294.25V887.5h453.14l-93.55-162 123.46-213.65h218.95V291.32z" p-id="11969"></path><path d="M818.55 573.74H633.22l-88.53 153.18 92.67 160.51H822.7l88.52-153.18z m-89.68 203.89a47.77 47.77 0 1 1 47.77-47.76 47.76 47.76 0 0 1-47.77 47.76z" p-id="11970"></path></svg>