<?xml version="1.0" standalone="no"?><!DOCTYPE svg PUBLIC "-//W3C//DTD SVG 1.1//EN" "http://www.w3.org/Graphics/SVG/1.1/DTD/svg11.dtd"><svg class="icon" width="200px" height="200.00px" viewBox="0 0 1024 1024" version="1.1" xmlns="http://www.w3.org/2000/svg"><path d="M539.84 883.04h237.6c17.76 0 32.64-14.4 32.64-32.64v-278.88h-270.24v311.52zM213.92 850.4c0 17.76 14.4 32.64 32.64 32.64h237.6v-311.52H213.92v278.88zM851.36 286.4h-101.76c0.48-3.84 0.48-8.16 0.48-12 0-73.44-59.52-133.44-132.96-133.44-42.72 0-81.12 20.16-105.12 51.84-24.48-31.68-62.4-51.84-105.12-51.84-73.44 0-132.96 59.52-132.96 133.44 0 4.32 0 8.16 0.48 12H172.64c-17.76 0-32.64 14.4-32.64 32.64V483.2c0 17.76 14.4 32.64 32.64 32.64H484.16V286.4h55.68v228.96H851.36c17.76 0 32.64-14.4 32.64-32.64V319.04c0-17.76-14.4-32.64-32.64-32.64zM483.2 286.4H330.08c-0.48-3.84-0.96-8.16-0.96-12 0-42.72 34.56-77.28 77.28-77.28 42.72 0 77.28 34.56 77.28 77.28 0.48 3.84 0 8.16-0.48 12z m210.72 0H540.8c-0.48-3.84-0.96-8.16-0.96-12 0-42.72 34.56-77.28 77.28-77.28 42.72 0 77.28 34.56 77.28 77.28 0.48 3.84 0 8.16-0.48 12z"  /></svg>
