<?xml version="1.0" standalone="no"?><!DOCTYPE svg PUBLIC "-//W3C//DTD SVG 1.1//EN" "http://www.w3.org/Graphics/SVG/1.1/DTD/svg11.dtd"><svg t="1640592303822" class="icon" viewBox="0 0 1024 1024" version="1.1" xmlns="http://www.w3.org/2000/svg" p-id="12109" xmlns:xlink="http://www.w3.org/1999/xlink" width="32" height="32"><defs><style type="text/css"></style></defs><path d="M530.16 702.74c-5.92 0.51-11.91 0.79-18 0.79a203.89 203.89 0 0 1-104.5-28.67 206.23 206.23 0 0 1-48.94-40.48A204.93 204.93 0 0 1 129 688.81q-3.93-1.59-7.77-3.32v223.62h491.94L512.08 734z" p-id="12110"></path><path d="M972.33 490l-0.53-2.6a152.33 152.33 0 0 0-7.07-35.05l-24-118.94-44.06-218.5H127.31L83.18 333.74 60.09 448.25 52 488.34c0 0.54-0.07 1.09-0.1 1.64-0.15 2.79-0.24 5.61-0.24 8.44a153.61 153.61 0 0 0 69.55 128.5c1.91 1.26 3.84 2.49 5.81 3.66a153.6 153.6 0 0 0 231.37-119.12h0.61A152.72 152.72 0 0 0 388.81 590a154.74 154.74 0 0 0 45 40.58 153.58 153.58 0 0 0 131.06 12.13l55-95.25 0.23-0.41 15.41-26.65H894l8.76 15.19L938 596.66A152.89 152.89 0 0 0 972.33 500c0-3.37-0.13-6.72-0.34-10z m-263-164.75v12.82H315.1v-72h394.19z" p-id="12111"></path><path d="M902.78 659.41l-13.3-23-31.22-54.07H672.93l-20.54 35.54-31.45 54.43-36.54 63.16L677.07 896h185.34l40.37-69.87 48.15-83.31-36.32-62.92z m-134.2 126.77a47.76 47.76 0 1 1 47.77-47.76 47.76 47.76 0 0 1-47.77 47.76z" p-id="12112"></path></svg>