<?xml version="1.0" standalone="no"?><!DOCTYPE svg PUBLIC "-//W3C//DTD SVG 1.1//EN" "http://www.w3.org/Graphics/SVG/1.1/DTD/svg11.dtd"><svg t="1640591366325" class="icon" viewBox="0 0 1024 1024" version="1.1" xmlns="http://www.w3.org/2000/svg" p-id="10840" xmlns:xlink="http://www.w3.org/1999/xlink" width="32" height="32"><defs><style type="text/css"></style></defs><path d="M336.91 518L123.79 629.77a28.9 28.9 0 0 0-13.42 36 431.34 431.34 0 0 0 227.75 239.5c19.16 8.48 40.77-5.07 40.77-26V543.4a28.66 28.66 0 0 0-41.98-25.4zM264.28 210.22L545 376.36a28.67 28.67 0 0 0 43.26-24.67v-238a28.81 28.81 0 0 0-25.4-28.58A427.67 427.67 0 0 0 262.36 162c-16.95 12.13-16.01 37.62 1.92 48.22zM687.53 505.8l212.7-111.53a28.89 28.89 0 0 0 13.41-36A431.26 431.26 0 0 0 686.36 119c-19.17-8.52-40.81 5.06-40.81 26v335.41a28.68 28.68 0 0 0 41.98 25.39zM412.23 364.4L208.06 243.56a28.8 28.8 0 0 0-37.52 7.3A427.83 427.83 0 0 0 83 540.87a28.74 28.74 0 0 0 42 23.5l285.94-149.92a28.66 28.66 0 0 0 1.29-50.05zM899 459.67L613.49 609.35c-19.88 10.42-20.61 38.63-1.29 50l204 120.74a28.82 28.82 0 0 0 37.54-7.32A427.79 427.79 0 0 0 941 483.18a28.74 28.74 0 0 0-42-23.51zM760.11 813.55L479.49 647.46a28.67 28.67 0 0 0-43.27 24.67v238.28A28.81 28.81 0 0 0 461.64 939a428.57 428.57 0 0 0 300.41-77.25c16.95-12.14 15.95-37.61-1.94-48.2z" fill="#707070" p-id="10841"></path></svg>