<?xml version="1.0" standalone="no"?><!DOCTYPE svg PUBLIC "-//W3C//DTD SVG 1.1//EN" "http://www.w3.org/Graphics/SVG/1.1/DTD/svg11.dtd"><svg t="1640592847092" class="icon" viewBox="0 0 1024 1024" version="1.1" xmlns="http://www.w3.org/2000/svg" p-id="13661" xmlns:xlink="http://www.w3.org/1999/xlink" width="32" height="32"><defs><style type="text/css"></style></defs><path d="M606.51 740.15c-11.19 0-19.81-3.77-25.6-11.19-9.53-12.2-10.89-33.37-3.92-61.22 12.51-50.37 42.09-81.65 77.21-81.65 11.71 0 20.62 3.81 26.48 11.34 9.15 11.74 10.43 32 3.71 58.73-12.59 51.02-43.16 83.99-77.88 83.99z" p-id="13662"></path><path d="M654.2 586.59c11.54 0 20.32 3.75 26.09 11.15 9.05 11.61 10.3 31.77 3.62 58.3-12.54 50.79-42.91 83.61-77.4 83.61-11 0-19.51-3.7-25.21-11-9.43-12.07-10.75-33.09-3.83-60.79 12.45-50.13 41.85-81.27 76.73-81.27m0-1c-35 0-65 31-77.7 82-11.34 45.35-0.33 73 30 73 35 0 65.7-33 78.37-84.37 11.33-45-0.34-70.69-30.68-70.69z" p-id="13663"></path><path d="M112.5 911.5v-799h799v799z m545.37-377.43c-32.79 0-63 10.92-87.32 31.59-25.08 21.29-43.37 52.59-52.89 90.5-11 44.73-6.63 81.27 12.52 105.68 15.73 20.06 40.82 30.66 72.67 30.66 67.36 0 121.21-47.8 140.53-124.76 10.9-43.59 6.86-79.18-11.69-102.94-15.69-20.1-41.23-30.73-73.82-30.73z m-236.09 0c-32.42 0-64.8 11.51-91.18 32.41-28.46 22.54-48.53 54.47-58 92.35-10.2 41.58-5.75 76.09 12.85 99.81 17.38 22.15 45.85 33.86 82.34 33.86 31.2 0 64.54-10.9 87-28.45l0.14-0.11 27.86-118.83h-93.08l-12.59 49.69h39.32l-11.1 37.52a55.54 55.54 0 0 1-27.91 7.83c-19.16 0-32.85-5.11-40.69-15.17-9.24-11.85-10.65-30.89-4.18-56.57 12.15-49.24 47.33-82.32 87.55-82.32 16.77 0 28.12 5.13 38 17.15l0.33 0.41L497.16 569l-0.3-0.37c-18.42-22.94-43.68-34.56-75.08-34.56z m217.66-310.54c-32.78 0-63 10.92-87.31 31.59-25.09 21.29-43.38 52.59-52.89 90.5-11 44.73-6.64 81.27 12.51 105.68 15.74 20.06 40.87 30.7 72.67 30.7 67.37 0 121.22-47.85 140.58-124.8 10.9-43.59 6.85-79.18-11.69-102.94-15.74-20.11-41.31-30.73-73.87-30.73z m-346.1 253.76h157.09l12.58-51h-96.36L416 228.19h-60.72z" p-id="13664"></path><path d="M911 113v798H113V113h798M584.42 482.46a131.75 131.75 0 0 0 87.82-33c25.21-22 43.61-53.87 53.21-92.09 10.93-43.74 6.86-79.49-11.79-103.36-15.8-20.29-41.46-31.01-74.22-31.01s-63.21 11-87.64 31.7c-25.16 21.37-43.51 52.75-53 90.77-11 44.88-6.64 81.57 12.61 106.11 15.83 20.18 41.1 30.85 73.06 30.85m-291.77-4.64h158.12l0.18-0.79 12.34-50 0.3-1.24h-96.35l49-196.83 0.31-1.25h-61.71l-0.19 0.76L293 476.55l-0.31 1.24M602.85 793a131.72 131.72 0 0 0 87.81-33c25.22-22 43.61-53.87 53.21-92.09 10.94-43.74 6.86-79.48-11.78-103.36-15.8-20.24-41.47-30.93-74.22-30.93-32.91 0-63.21 11-87.64 31.71-25.17 21.31-43.51 52.67-53.06 90.67-11 44.89-6.63 81.58 12.61 106.11 15.84 20.18 41.1 30.85 73.07 30.85m-235.09 0c31.31 0 64.77-10.94 87.31-28.56l0.28-0.21 0.08-0.35 27.68-118 0.29-1.23h-94.08l-0.19 0.75-12.34 48.69-0.32 1.25h39.3L404.92 732a55.15 55.15 0 0 1-27.49 7.65c-19 0-32.55-5-40.3-15-9.14-11.72-10.51-30.61-4.08-56.14 6.06-24.59 17.77-45.38 33.84-60.11 15.57-14.28 34-21.83 53.22-21.83 16.6 0 27.84 5.07 37.57 17l0.66 0.81 0.78-0.7 38-34 0.71-0.63-0.6-0.74A90.38 90.38 0 0 0 469 544.48c-13.59-7.24-29.47-10.91-47.19-10.91-32.53 0-65 11.55-91.49 32.52-28.55 22.61-48.67 54.64-58.21 92.62-10.26 41.73-5.79 76.4 12.89 100.29 8.72 11.13 20.36 19.7 34.58 25.48 14 5.69 30.18 8.57 48.15 8.57M912 112H112v800h800V112zM584.42 481.46c-70 0-105.37-51.35-84.7-135.72C519.4 267.38 574.08 224 639.44 224c70 0 106 49 85 133-19.68 78.36-74.7 124.38-140.06 124.38zM294 476.79l61.69-248.1h59.69L366 426.77h96.37l-12.34 50zM602.85 792c-70 0-105.38-51.35-84.7-135.72 19.67-78.36 74.36-121.71 139.72-121.71 70 0 106 49 85 133C723.23 746 668.2 792 602.85 792z m-235.09 0c-71.37 0-116-46-94.71-133 20-79.7 84.7-124.38 148.73-124.38 38.68 0 61 17.34 74.69 34.34l-38 34c-9-11-20-17.34-38.35-17.34-39 0-75.36 31.34-88 82.7-11.67 46.35 1.67 72.36 45.36 72.36a55.93 55.93 0 0 0 28.34-8l11.34-38.34h-39.4l12.34-48.69h92l-27.67 118C433.11 780.33 400.1 792 367.76 792z" p-id="13665"></path><path d="M588.09 429.61c-11.2 0-19.81-3.77-25.61-11.19-9.53-12.2-10.88-33.37-3.92-61.22 12.51-50.37 42.1-81.65 77.21-81.65 11.71 0 20.62 3.81 26.49 11.34 9.15 11.74 10.43 32 3.71 58.73-12.59 51.02-43.16 83.99-77.88 83.99z" p-id="13666"></path><path d="M635.77 276.05c11.55 0 20.33 3.75 26.09 11.15 9 11.61 10.3 31.77 3.62 58.3-12.53 50.79-42.91 83.61-77.39 83.61-11 0-19.52-3.7-25.21-11-9.43-12.07-10.76-33.09-3.83-60.79 12.45-50.13 41.85-81.27 76.72-81.27m0-1c-35 0-65 31-77.69 82-11.34 45.35-0.34 73 30 73 35 0 65.69-33 78.36-84.37 11.34-45-0.33-70.69-30.68-70.69z" p-id="13667"></path></svg>