<?xml version="1.0" standalone="no"?><!DOCTYPE svg PUBLIC "-//W3C//DTD SVG 1.1//EN" "http://www.w3.org/Graphics/SVG/1.1/DTD/svg11.dtd"><svg class="icon" width="200px" height="198.45px" viewBox="0 0 1032 1024" version="1.1" xmlns="http://www.w3.org/2000/svg"><path d="M771.68 627.2c-70.08 0-126.72 56.64-126.72 126.72s56.64 126.72 126.72 126.72c70.08 0 126.72-56.64 126.72-126.72S841.76 627.2 771.68 627.2z m89.28 96.96l-89.28 91.2c-4.32 4.8-10.56 6.72-16.32 6.72-5.28 0-10.56-1.92-14.88-5.76l-56.64-48.48c-9.6-8.16-10.56-23.04-2.4-32.64s23.04-10.56 32.64-2.4l40.32 34.56 73.92-75.84c9.12-9.12 23.52-9.12 32.64-0.48 9.12 9.6 9.12 24 0 33.12zM400.64 218.24H574.4c19.2-1.92 34.08-17.76 34.08-37.44 0-19.2-14.88-35.52-34.08-37.44H400.64c-19.2 1.44-34.08 17.76-34.08 37.44s14.88 36 34.08 37.44z"  /><path d="M771.68 581.6c17.28 0 33.6 2.4 48.96 7.2V269.12c3.84-43.2-27.84-81.12-71.04-84.96-5.28-0.48-10.56-0.48-15.84 0h-78.72c6.72 33.6-15.36 66.24-48.96 72.96H365.6c-31.2-3.36-54.24-30.72-52.8-61.92-0.48-3.84-0.48-8.16 0-12H233.6c-63.84 0-79.2 35.04-79.2 84.96v501.12c0 54.24 22.56 84.96 84.96 84.96h392.16c-20.16-28.32-32.16-62.88-32.16-100.32 0-95.04 77.28-172.32 172.32-172.32zM286.4 367.04h403.2c12.48 0 23.04 10.08 23.04 23.04s-10.56 23.04-23.04 23.04H286.4c-12.48 0-23.04-10.08-23.04-23.04s10.08-23.04 23.04-23.04z m174.72 296.16H285.92c-12.48 0-23.04-10.08-23.04-23.04 0-12.48 10.08-23.04 23.04-23.04h174.72c12.48 0 23.04 10.08 23.04 23.04s-10.08 23.04-22.56 23.04z m-174.72-124.8c-12.48 0-23.04-10.08-23.04-23.04 0-12.48 10.08-23.04 23.04-23.04h403.2c12.48 0 23.04 10.08 23.04 23.04 0 12.48-10.56 23.04-23.04 23.04H286.4z"  /></svg>
