<?xml version="1.0" standalone="no"?><!DOCTYPE svg PUBLIC "-//W3C//DTD SVG 1.1//EN" "http://www.w3.org/Graphics/SVG/1.1/DTD/svg11.dtd"><svg class="icon" width="200px" height="198.45px" viewBox="0 0 1032 1024" version="1.1" xmlns="http://www.w3.org/2000/svg"><path d="M512 140c-205.44 0-372 166.56-372 372s166.56 372 372 372 372-166.56 372-372-166.56-372-372-372z m226.56 267.36l-249.12 254.4c-6.24 6.72-14.88 9.6-23.04 9.6-7.68 0-14.88-2.4-21.12-7.68l-157.92-135.84c-13.44-11.52-15.36-32.16-3.36-46.08 11.52-13.44 32.16-15.36 46.08-3.36l134.4 116.16 228-232.8c12.48-12.96 33.12-12.96 46.08-0.48 12.48 12.96 12.48 33.12 0 46.08z"  /></svg>
