<?xml version="1.0" standalone="no"?><!DOCTYPE svg PUBLIC "-//W3C//DTD SVG 1.1//EN" "http://www.w3.org/Graphics/SVG/1.1/DTD/svg11.dtd"><svg t="1640590878565" class="icon" viewBox="0 0 1024 1024" version="1.1" xmlns="http://www.w3.org/2000/svg" p-id="9856" xmlns:xlink="http://www.w3.org/1999/xlink" width="32" height="32"><defs><style type="text/css"></style></defs><path d="M254.74 539h-14.38c-97.61-0.07-176.77 79-176.77 176.59v131.86h69.79V758a256.69 256.69 0 0 1 75.72-182.62A260.22 260.22 0 0 1 254.74 539zM301.86 496.39a188.65 188.65 0 0 0 67.7 24.29q-8.25-8.71-15.73-18.12a272.52 272.52 0 0 1 15.5-356.78c-90.91 14-160.51 92.6-160.51 187.44a189.82 189.82 0 0 0 93.04 163.17z" p-id="9857"></path><path d="M582.63 839.56l-61.07-105.78 65.27-112.95 11.34-19.61 24.49-42.39H376.79c-108.45-0.08-196.41 87.79-196.41 196.2v146.53h438.05l-33-57.11z" p-id="9858"></path><path d="M925.8 688.44l-28.3-49-29.76-51.54H682.4L680 592l-20 34.69-66.11 114.4 60.24 104.34 2.82 4.89 29.61 51.28h185.33l52.72-91.23 15-26 20.8-36zM778.06 791.76A47.77 47.77 0 1 1 825.82 744a47.78 47.78 0 0 1-47.76 47.76zM423.6 499.83a212.33 212.33 0 0 0 21.52 14.66c1 0.61 2.05 1.21 3.08 1.8A209.61 209.61 0 0 0 552.5 544a212.49 212.49 0 0 0 33.09-2.6 211.1 211.1 0 0 0 177.66-208.2c0-81.95-47-153.12-115.5-188a210.8 210.8 0 0 0-190.67 0q-4.59 2.34-9.06 4.89a210.69 210.69 0 0 0-24.42 349.74z" p-id="9859"></path></svg>