<?xml version="1.0" standalone="no"?><!DOCTYPE svg PUBLIC "-//W3C//DTD SVG 1.1//EN" "http://www.w3.org/Graphics/SVG/1.1/DTD/svg11.dtd"><svg t="1640591279869" class="icon" viewBox="0 0 1024 1024" version="1.1" xmlns="http://www.w3.org/2000/svg" p-id="10699" xmlns:xlink="http://www.w3.org/1999/xlink" width="32" height="32"><defs><style type="text/css"></style></defs><path d="M265.48444 537.459943h-14.360226c-97.465794-0.069904-176.516944 78.89137-176.516945 176.347178v131.688671h69.684049v-89.297042a256.446885 256.446885 0 0 1 75.61588-182.398846 260.131811 260.131811 0 0 1 45.577242-36.339961zM312.569606 494.91852a188.390595 188.390595 0 0 0 67.606909 24.2566q-8.238656-8.698023-15.718357-18.095084A272.145269 272.145269 0 0 1 379.926859 144.800616c-90.784993 13.980749-160.299275 92.482656-160.299276 187.192245A189.539014 189.539014 0 0 0 312.569606 494.91852z" p-id="10700"></path><path d="M441.112609 498.313845a209.401664 209.401664 0 0 0 21.490408 14.649828l0.768942 0.449381a209.221911 209.221911 0 0 0 106.453418 28.960124 210.709862 210.709862 0 0 0 210.470193-210.420262c0-81.887245-46.935372-152.919437-115.351167-187.741488a210.490165 210.490165 0 0 0-190.397831 0q-5.782038 2.935957-11.34438 6.221433A210.37033 210.37033 0 0 0 441.112609 498.313845zM753.262792 560.228591H402.336002c-108.300875 0-196.139925 87.699242-196.139924 195.970159v146.328512h743.206639V756.19875C949.402717 647.927834 861.563667 560.228591 753.262792 560.228591z m74.427517 84.303918l-84.204055 82.276709-116.439668 113.803298-4.993124 4.883276-38.506978 37.638174-39.944998-37.638174-5.192849-4.883276-86.820453-81.717479-84.263972 81.717479-4.993125 4.883276-14.060639 13.63123-13.221794-13.63123-4.733483-4.883276-32.095805-33.094431 152.579905-148.056133 131.818492 124.04919 81.727465-79.889995h-40.44431v-71.900996H840.8422z" p-id="10701"></path></svg>