<?xml version="1.0" standalone="no"?><!DOCTYPE svg PUBLIC "-//W3C//DTD SVG 1.1//EN" "http://www.w3.org/Graphics/SVG/1.1/DTD/svg11.dtd"><svg t="1640591089292" class="icon" viewBox="0 0 1024 1024" version="1.1" xmlns="http://www.w3.org/2000/svg" p-id="10138" xmlns:xlink="http://www.w3.org/1999/xlink" width="32" height="32"><defs><style type="text/css"></style></defs><path d="M298.16 92.93a180.07 180.07 0 0 0 0 360.13c99.29 0 180.07-80.77 180.07-180.06S397.45 92.93 298.16 92.93zM298.78 492.21c-118.14-0.16-214 95.58-214 213.73v225.13h427.45V705.94c0-117.94-95.52-213.57-213.45-213.73zM725.16 92.93a180.07 180.07 0 0 0 0 360.13c99.29 0 180.07-80.77 180.07-180.06S824.45 92.93 725.16 92.93z" p-id="10139"></path><path d="M725.78 492.21c-118.14-0.16-214 95.58-214 213.73v225.13h427.45V705.94c0-117.94-95.52-213.57-213.45-213.73z" p-id="10140"></path></svg>