<?xml version="1.0" standalone="no"?><!DOCTYPE svg PUBLIC "-//W3C//DTD SVG 1.1//EN" "http://www.w3.org/Graphics/SVG/1.1/DTD/svg11.dtd"><svg t="1640592310909" class="icon" viewBox="0 0 1024 1024" version="1.1" xmlns="http://www.w3.org/2000/svg" p-id="12251" xmlns:xlink="http://www.w3.org/1999/xlink" width="32" height="32"><defs><style type="text/css"></style></defs><path d="M113.054329 910.955657v-797.901328h174.859228v189.738739h448.382598v-189.738739h174.659502v797.901328zM386.967164 686.70444l51.359281 51.409212 0.279615-0.269629 0.269629 0.259643L490.324846 686.62455l-0.269629-0.269629 265.144908-265.434509-51.359281-51.429184-265.16488 265.444495-118.436918-118.556753-51.439171 51.489102 118.446904 118.556753z" p-id="12252"></path><path d="M910.456344 113.553642v796.902702h-796.902702v-796.902702h173.860602v189.738739h449.381223v-189.738739h173.660877m-471.78038 520.683044l-117.727894-117.837743-0.709024-0.709024-0.709024 0.709024-50.730147 50.780078-0.709024 0.709024 0.709024 0.699037 117.737881 117.837743-0.279615 0.279615 0.709023 0.709024 50.660244 50.700188 0.699037 0.709024 0.279615-0.279615 0.269629 0.269629 0.699037-0.709024L490.324846 687.333574l0.709023-0.709024-0.279615-0.269629 264.445871-264.725485 0.709024-0.709024-0.709024-0.709023L704.539882 369.491228l-0.699038-0.709024-0.709024 0.709024-264.455856 264.745458m472.779005-521.681669h-175.658127v189.738739h-447.383973v-189.738739h-175.857852v798.899952h798.899952v-798.899952zM438.675964 635.644747l265.16488-265.424523 50.660243 50.700188L489.326221 686.354921l0.269628 0.269629-50.730147 50.780078-0.269628-0.269628-0.279615 0.269628-50.650257-50.700188 0.279615-0.279615-118.436918-118.556753 50.730147-50.780078 118.436918 118.556753z" p-id="12253"></path><path d="M438.587086 737.179938l50.740133-50.775085 0.267632 0.26863-50.739135 50.774086zM387.675189 686.666492l0.275621-0.27562 50.661242 50.697192-0.275621 0.275621z" p-id="12254"></path><path d="M349.878234 112.555017h324.553106v126.825367h-324.553106z" p-id="12255"></path></svg>