<?xml version="1.0" standalone="no"?><!DOCTYPE svg PUBLIC "-//W3C//DTD SVG 1.1//EN" "http://www.w3.org/Graphics/SVG/1.1/DTD/svg11.dtd"><svg class="icon" width="200px" height="200.00px" viewBox="0 0 1024 1024" version="1.1" xmlns="http://www.w3.org/2000/svg"><path d="M932.352 363.008c-8.192-26.112-33.28-41.472-60.416-36.864-26.112 4.608-44.544 28.16-43.008 55.296 1.024 14.336 7.168 26.112 17.92 36.352-2.56 1.536-5.12 3.072-7.168 4.608l-150.528 92.16c-13.312 7.68-17.92 6.656-25.6-7.168-32.256-58.88-64.512-117.76-97.28-177.152-11.776-20.992-23.552-42.496-34.816-63.488 35.328-24.064 43.52-55.808 20.992-83.456-19.456-23.552-55.296-25.6-77.824-4.608-11.264 10.752-16.896 24.576-15.872 39.936 1.024 22.528 13.824 37.376 33.28 47.104-44.544 82.432-89.088 163.84-134.144 245.76-4.608 8.192-11.264 9.728-19.456 4.608-14.848-8.704-29.696-17.92-44.032-27.136-38.912-24.064-77.824-47.616-117.248-71.68 2.048-2.048 3.584-4.096 5.12-5.632 13.824-16.896 16.896-38.912 7.168-57.856-9.728-18.432-29.696-30.208-50.176-29.184-22.016 1.536-40.448 15.36-47.104 36.352l-2.56 7.68v18.432c2.048 5.12 3.584 10.24 6.144 14.848 10.752 19.456 27.648 28.16 50.176 28.16 6.656 22.016 13.312 44.032 19.456 66.048 24.064 81.408 47.616 163.328 71.168 245.248 4.096 13.312 8.192 16.384 22.528 16.384h506.368c13.312 0 17.92-3.584 21.504-16.384 29.184-100.352 58.88-201.216 88.064-301.568l3.072-9.216c30.208 0 47.616-15.872 56.32-43.52V368.64c-1.024-1.536-1.536-3.584-2.048-5.632zM756.736 811.52H267.264c-13.312 0-24.064 10.752-24.064 24.064s10.752 24.064 24.064 24.064h488.96c13.312 0 24.064-10.752 24.064-24.064 0.512-13.312-10.24-24.064-23.552-24.064z"  /></svg>
