<?xml version="1.0" standalone="no"?><!DOCTYPE svg PUBLIC "-//W3C//DTD SVG 1.1//EN" "http://www.w3.org/Graphics/SVG/1.1/DTD/svg11.dtd"><svg t="1587086895393" class="icon" viewBox="0 0 1024 1024" version="1.1" xmlns="http://www.w3.org/2000/svg" p-id="30549" xmlns:xlink="http://www.w3.org/1999/xlink" width="128" height="128"><defs><style type="text/css"></style></defs><path d="M513.8192 574.5824c115.2384 0 208.7568-93.4704 208.7568-208.7088 0-115.2384-93.4752-208.7088-208.7568-208.7088-115.2864 0-208.7088 93.4176-208.7088 208.7088-0.0048 115.2912 93.4656 208.7088 208.7088 208.7088zM580.1024 579.8l-66.2304 66.2256-66.2784-66.2256c-156.9264 25.0704-232.5456 137.6064-257.5344 286.008C275.48 944.1632 389.3456 992 514.4 992c125.0064 0 238.8384-47.7984 324.2544-126.1008-25.2624-148.4448-101.5968-261.0192-258.552-286.0992z m-66.2832 352.608l-71.4432-71.4432 71.4432-214.584 71.448 214.6896-71.448 71.3376z" fill="#999999" p-id="30550"></path></svg>