<?xml version="1.0" standalone="no"?><!DOCTYPE svg PUBLIC "-//W3C//DTD SVG 1.1//EN" "http://www.w3.org/Graphics/SVG/1.1/DTD/svg11.dtd"><svg class="icon" width="200px" height="200.00px" viewBox="0 0 1024 1024" version="1.1" xmlns="http://www.w3.org/2000/svg"><path d="M651.264 656.896c-6.144-6.144-17.92-6.144-26.624 0-29.696 24.064-68.608 38.912-113.664 38.912-45.056 0-87.04-14.848-113.664-38.912-9.216-6.144-17.92-6.144-26.624 0-26.624 24.064-66.048 38.912-107.52 38.912-32.768 0-62.976-9.216-86.528-24.064-11.776-9.216-29.696 0-29.696 17.92v77.824c0 71.68 59.904 128.512 131.584 128.512h472.576c71.68 0 131.584-56.832 131.584-128.512v-77.824c0-14.848-17.92-24.064-29.696-17.92-24.064 14.848-53.76 24.064-86.528 24.064-49.664-0.512-88.576-15.36-115.2-38.912zM510.464 285.696c29.696 0 53.76-24.064 53.76-50.688 0-17.92-20.992-62.976-35.84-95.744-6.144-14.848-26.624-14.848-32.768 0-14.848 32.768-35.84 77.824-35.84 95.744 0 29.696 23.552 50.688 50.688 50.688z m-236.032 358.912c35.84 0 68.608-11.776 92.672-32.768 9.216-9.216 20.992-9.216 29.696 0 29.696 20.992 68.608 35.84 113.664 35.84s83.968-14.848 113.664-35.84c9.216-6.144 20.992-6.144 29.696 0 24.064 20.992 56.832 32.768 92.672 32.768 71.68 0 131.584-50.688 131.584-116.736 0-56.832-47.616-104.96-107.52-113.664-9.216 0-14.848-3.072-24.064-3.072h-158.72c-14.848 0-24.064-11.776-24.064-24.064v-50.688c0-14.848-11.776-24.064-24.064-24.064H483.84c-14.848 0-24.064 11.776-24.064 24.064v53.76c0 14.848-11.776 24.064-24.064 24.064H274.432c-9.216 0-14.848 0-24.064 3.072-62.976 9.216-107.52 56.832-107.52 113.664 0 62.976 59.392 113.664 131.584 113.664z"  /></svg>
