<?xml version="1.0" standalone="no"?><!DOCTYPE svg PUBLIC "-//W3C//DTD SVG 1.1//EN" "http://www.w3.org/Graphics/SVG/1.1/DTD/svg11.dtd"><svg class="icon" width="200px" height="200.00px" viewBox="0 0 1024 1024" version="1.1" xmlns="http://www.w3.org/2000/svg"><path d="M512 468.48m-74.24 0a74.24 74.24 0 1 0 148.48 0 74.24 74.24 0 1 0-148.48 0Z"  /><path d="M762.368 567.808v-12.288c0-172.032-93.696-334.336-243.712-424.96-3.072-3.072-9.216-3.072-15.36 0-151.04 88.576-243.712 249.856-243.712 424.96v12.288C196.608 595.968 158.72 658.432 158.72 723.968c0 81.408 56.32 153.088 137.728 168.96 3.072 0 9.216 0 12.288-3.072 3.072-3.072 6.144-9.216 6.144-12.288 0-22.016 6.144-44.032 15.36-62.464 15.36 27.648 34.304 52.736 56.32 74.752 3.584 3.072 7.68 5.632 12.288 6.144H614.4c3.072 0 9.216-3.072 15.36-6.144 18.944-18.432 43.52-56.32 59.392-77.824 12.288 18.944 18.944 44.032 18.944 65.536 0 6.144 3.072 9.216 6.144 12.288 3.072 3.072 9.216 3.072 12.288 3.072 77.824-15.36 137.728-87.552 137.728-168.96 1.024-68.608-39.424-128-101.888-156.16z m-250.368 22.016c-66.56 0-120.832-54.272-120.832-120.832C391.168 402.432 445.44 348.16 512 348.16s120.832 54.272 120.832 120.832c0 66.56-54.272 120.832-120.832 120.832z"  /></svg>
