<?xml version="1.0" standalone="no"?><!DOCTYPE svg PUBLIC "-//W3C//DTD SVG 1.1//EN" "http://www.w3.org/Graphics/SVG/1.1/DTD/svg11.dtd"><svg class="icon" width="200px" height="200.00px" viewBox="0 0 1024 1024" version="1.1" xmlns="http://www.w3.org/2000/svg"><path d="M760.32 580.096c-81.92 0-148.48 66.56-148.48 148.48s66.56 148.48 148.48 148.48 148.48-66.56 148.48-148.48c0-82.432-66.56-148.48-148.48-148.48z m69.632 192h-87.04c-6.656 0-13.312-2.56-17.92-7.68-4.608-4.608-7.168-11.264-7.168-17.92l1.536-102.912c0-13.824 11.776-25.088 25.6-24.576 13.824 0 25.088 11.776 24.576 25.6L768 721.92h61.44c13.824 0 25.088 11.264 25.088 25.088 0.512 13.824-10.752 25.088-24.576 25.088z"  /><path d="M714.24 535.04v-44.544h76.288c22.016 0 39.424-17.408 39.424-38.912 0-8.704-3.072-17.408-8.704-24.064-1.024-1.536-2.56-3.072-4.096-4.608l-302.592-261.12c-9.728-9.216-23.04-14.336-36.864-14.336s-26.624 5.12-35.328 13.312L128.512 422.912c-2.048 1.536-3.584 3.584-5.12 5.632-5.12 6.656-8.192 14.848-8.192 23.552 0 21.504 17.92 38.912 39.424 38.912h76.288v306.176c0 28.16 23.04 51.2 51.2 51.2h320c-25.088-33.28-40.448-74.752-40.448-119.808 0.512-93.696 65.536-172.544 152.576-193.536z m-216.576 190.464c0 13.824-11.264 25.088-25.088 25.088s-25.088-11.264-25.088-25.088v-88.064H379.904c-13.824 0-25.088-11.264-25.088-25.088s11.264-25.088 25.088-25.088h67.584v-31.232H379.904c-13.824 0-25.088-11.264-25.088-25.088s11.264-25.088 25.088-25.088h44.032L369.664 452.096c-9.728-9.728-9.728-25.6 0-35.328 9.728-9.728 25.6-9.728 35.328 0l67.072 67.072 67.072-67.072c9.728-9.728 25.6-9.728 35.328 0 9.728 9.728 9.728 25.6 0 35.328l-53.76 53.76h44.032c13.824 0 25.088 11.264 25.088 25.088s-11.264 25.088-25.088 25.088H497.664v31.232h67.584c13.824 0 25.088 11.264 25.088 25.088s-11.264 25.088-25.088 25.088H497.664v88.064z"  /></svg>
