<?xml version="1.0" standalone="no"?><!DOCTYPE svg PUBLIC "-//W3C//DTD SVG 1.1//EN" "http://www.w3.org/Graphics/SVG/1.1/DTD/svg11.dtd"><svg t="1640592538928" class="icon" viewBox="0 0 1024 1024" version="1.1" xmlns="http://www.w3.org/2000/svg" p-id="12817" xmlns:xlink="http://www.w3.org/1999/xlink" width="32" height="32"><defs><style type="text/css"></style></defs><path d="M64.5 135.78h895v61h-895z" p-id="12818"></path><path d="M959 136.28v60H65v-60h894m1-1H64v62h896v-62zM160.34 857.54l49.91-86.45H110v-572.8h799v572.8h-95.25l49.91 86.45L810.84 888l-67.53-116.91H280.69L213.16 888z m400.88-228.35l217.65-212.67-51-52.22-167.6 163.75-149.52-140.73-170.61 165.44L291 605.17l120.5-116.89z" p-id="12819"></path><path d="M908.46 198.79v571.8h-95.58l0.87 1.5L863 857.36l-52 30-67.11-116.27-0.29-0.5H280.4l-0.29 0.5L213 887.36l-52-30 49.23-85.27 0.86-1.5H110.46v-571.8h798M560.27 527.36L411.44 387.29l-0.69-0.66-0.69 0.67-169.91 164.76-0.72 0.69 0.7 0.72 50.12 51.69 0.7 0.72 0.72-0.7L411.51 489l149 140.25 0.7 0.66 0.68-0.67 217-212 0.71-0.69-0.7-0.72-50.32-51.5-0.7-0.71-0.71 0.7-166.9 163.04m349.19-329.57h-800v573.8h99.92l-49.73 86.13 53.7 31L281 771.59h462l67.62 117.13 53.7-31-49.73-86.13h94.84v-573.8z m-349.18 331L727.85 365l50.32 51.5-217 212L411.5 487.59 291 604.46l-50.12-51.69L410.76 388l149.52 140.74z" p-id="12820"></path></svg>