<?xml version="1.0" standalone="no"?><!DOCTYPE svg PUBLIC "-//W3C//DTD SVG 1.1//EN" "http://www.w3.org/Graphics/SVG/1.1/DTD/svg11.dtd"><svg class="icon" width="200px" height="198.45px" viewBox="0 0 1032 1024" version="1.1" xmlns="http://www.w3.org/2000/svg"><path d="M828.32 675.2c-15.84-15.36-36.48-24-58.56-24-17.28 0-34.08 5.28-48.48 15.36-13.92-10.08-30.72-15.36-48.48-15.36-22.08 0-42.72 8.64-58.56 24-15.36 15.36-24.48 36.48-24.48 58.08s8.64 42.72 24.48 58.08l83.04 82.08c6.24 6.24 14.88 10.08 24 10.08s17.76-3.84 24-10.08l83.04-82.08c15.36-15.36 24.48-36.48 24.48-58.08s-9.12-42.72-24.48-58.08z"  /><path d="M542.72 733.76c0-34.56 13.92-68.16 38.4-92.16 24.96-24.48 57.6-37.92 92.16-37.92 16.8 0 33.12 3.36 48.48 9.12 14.4-5.76 29.76-8.64 46.08-9.12V197.12c0-31.68-25.92-57.12-57.12-57.12H228.32c-31.68 0-57.12 25.92-57.12 57.12v629.76c0 31.68 25.92 57.12 57.12 57.12h411.36l-59.04-58.08c-24-24.48-37.92-58.08-37.92-92.16zM278.72 262.4h381.6c12.96 0 24 10.56 24 24s-10.56 24-24 24H278.72c-12.96 0-24-10.56-24-24s10.56-24 24-24z m0 144h320.64c12.96 0 24 10.56 24 24 0 12.96-10.56 24-24 24H278.72c-12.96 0-24-10.56-24-24 0-12.96 10.56-24 24-24z m215.04 192H278.72c-12.96 0-24-10.56-24-24 0-12.96 10.56-24 24-24h215.52c12.96 0 24 10.56 24 24-0.48 13.44-11.04 24-24.48 24z"  /></svg>
