<?xml version="1.0" standalone="no"?><!DOCTYPE svg PUBLIC "-//W3C//DTD SVG 1.1//EN" "http://www.w3.org/Graphics/SVG/1.1/DTD/svg11.dtd"><svg t="1640592583826" class="icon" viewBox="0 0 1024 1024" version="1.1" xmlns="http://www.w3.org/2000/svg" p-id="13379" xmlns:xlink="http://www.w3.org/1999/xlink" width="32" height="32"><defs><style type="text/css"></style></defs><path d="M161.5 911V113h701v798z m199-447h404v-63h-404zM293 401a31.5 31.5 0 1 0 31.5 31.5A31.53 31.53 0 0 0 293 401z m66.5-77h404v-63h-404zM292 261a31.5 31.5 0 1 0 31.5 31.5A31.53 31.53 0 0 0 292 261z" p-id="13380"></path><path d="M862 113.5v797H162v-797h700m-503 211h405v-64H359v64m-67 0a32 32 0 1 0-32-32 32 32 0 0 0 32 32m68 140h405v-64H360v64m-67 0a32 32 0 1 0-32-32 32 32 0 0 0 32 32m570-352H161v799h702v-799z m-503 211v-62h403v62z m-68 0a31 31 0 1 1 31-31 31 31 0 0 1-31 31z m69 140v-62h403v62z m-68 0a31 31 0 1 1 31-31 31 31 0 0 1-31 31z" p-id="13381"></path></svg>