<?xml version="1.0" standalone="no"?><!DOCTYPE svg PUBLIC "-//W3C//DTD SVG 1.1//EN" "http://www.w3.org/Graphics/SVG/1.1/DTD/svg11.dtd"><svg t="1640591385463" class="icon" viewBox="0 0 1024 1024" version="1.1" xmlns="http://www.w3.org/2000/svg" p-id="10980" xmlns:xlink="http://www.w3.org/1999/xlink" width="32" height="32"><defs><style type="text/css"></style></defs><path d="M929 878.05L794.12 743.19a393.58 393.58 0 0 0 91.61-252.8C885.73 272.41 708.38 95 490.38 95 371.1 95 264 148.14 191.43 231.94A393.76 393.76 0 0 0 95 490.39c0 144.48 77.9 271.12 193.92 340.1a394.71 394.71 0 0 0 454.26-36.38L878.06 929zM392.42 493.29L271.89 610.16l-50.12-51.69 169.91-164.76L541.2 534.44l167.57-163.73 50.32 51.5-217 212z" p-id="10981"></path></svg>