<?xml version="1.0" encoding="utf-8"?>
<!-- Generator: Adobe Illustrator 16.0.0, SVG Export Plug-In . SVG Version: 6.00 Build 0)  -->
<!DOCTYPE svg PUBLIC "-//W3C//DTD SVG 1.1//EN" "http://www.w3.org/Graphics/SVG/1.1/DTD/svg11.dtd">
<svg version="1.1" id="图层_1" xmlns="http://www.w3.org/2000/svg" xmlns:xlink="http://www.w3.org/1999/xlink" x="0px" y="0px"
	 width="200px" height="200px" viewBox="0 0 200 200" enable-background="new 0 0 200 200" xml:space="preserve">
<ellipse fill="#FFFFFF" cx="100.331" cy="102.334" rx="80.836" ry="82.166"/>
<path fill="#1296DB" d="M9.495,100.101c0-49.906,40.598-90.505,90.506-90.505c49.905,0,90.504,40.599,90.504,90.505
	c0,49.907-40.599,90.505-90.504,90.505C50.093,190.606,9.495,150.008,9.495,100.101L9.495,100.101z M177.576,100.101
	c0-42.776-34.799-77.576-77.575-77.576c-42.777,0-77.577,34.799-77.577,77.576c0,42.777,34.799,77.576,77.577,77.576
	C142.777,177.678,177.576,142.878,177.576,100.101L177.576,100.101z M110.835,136.963l32.375-32.02
	c1.913-1.889,2.393-4.681,1.441-7.028c-0.058-0.148-0.2-0.264-0.271-0.407c-0.298-0.601-0.621-1.203-1.119-1.707
	c-0.006-0.006-0.014-0.006-0.019-0.013c-0.007-0.006-0.007-0.013-0.013-0.02l-32.105-32.193c-2.521-2.528-6.612-2.534-9.139-0.014
	c-1.269,1.261-1.902,2.923-1.902,4.577c0,1.649,0.626,3.303,1.887,4.564l20.868,20.933H61.212c-3.575,0-6.465,2.896-6.465,6.464
	c0,3.569,2.89,6.466,6.465,6.466h61.97l-21.437,21.203c-1.281,1.262-1.92,2.93-1.92,4.596c0,1.643,0.621,3.285,1.869,4.546
	C104.201,139.451,108.295,139.477,110.835,136.963L110.835,136.963z"/>
</svg>
