<?xml version="1.0" standalone="no"?>
<!DOCTYPE svg PUBLIC "-//W3C//DTD SVG 1.1//EN" "http://www.w3.org/Graphics/SVG/1.1/DTD/svg11.dtd" >
<!--
2013-9-30: Created.
-->
<svg>
<metadata>
Created by iconfont
</metadata>
<defs>

<font id="iconfont" horiz-adv-x="1024" >
  <font-face
    font-family="iconfont"
    font-weight="500"
    font-stretch="normal"
    units-per-em="1024"
    ascent="896"
    descent="-128"
  />
    <missing-glyph />
    
    <glyph glyph-name="xiangxia" unicode="&#58972;" d="M185.884 568.45 146.3 528.867 512.021 163.221 877.7 528.867 838.117 568.45 511.997 242.324Z"  horiz-adv-x="1024" />

    
    <glyph glyph-name="confirm" unicode="&#58910;" d="M283.768 417.336l-0.356 0.378c-5.842 6.24-14.092 9.818-22.636 9.818-7.898 0-15.42-2.972-21.184-8.37-6.042-5.658-9.524-13.332-9.798-21.608-0.268-8.142 2.526-15.84 7.87-21.692l195.008-185.328 0.386-0.396c5.838-6.236 14.086-9.812 22.63-9.812 2.892 0 5.842 0.422 8.856 1.282l0.422 0.11c5.938 1.406 11.334 4.56 15.668 9.186l342.184 349.486c5.59 6.034 8.518 13.88 8.246 22.098-0.274 8.278-3.754 15.952-9.804 21.612-5.762 5.394-13.284 8.366-21.176 8.366-8.548 0-16.878-3.662-22.93-10.126l-320.384-324.64L283.768 417.336zM925.416 487.16l0-516.01L98.584-28.850000000000023 98.584 796.85l618.926 0 0 48L94.584 844.85c-24.262 0-44-19.738-44-44l0-833.7c0-24.262 19.738-44 44-44l834.834 0c24.262 0 44 19.738 44 44L973.418 487.16 925.416 487.16z"  horiz-adv-x="1024" />

    
    <glyph glyph-name="menu" unicode="&#58917;" d="M362.459 775.106h621.171c19.052 0 34.509-15.434 34.509-34.509v-23.007c0-19.053-15.457-34.51-34.509-34.51h-621.171c-19.075 0-34.51 15.457-34.51 34.51v23.007c0 19.076 15.435 34.509 34.51 34.509zM362.459 430.013h621.171c19.052 0 34.509-15.435 34.509-34.51v-23.006c0-19.053-15.457-34.51-34.509-34.51h-621.171c-19.075 0-34.51 15.457-34.51 34.51v23.006c0 19.076 15.435 34.51 34.51 34.51zM362.459 84.918h621.171c19.052 0 34.509-15.445 34.509-34.51v-23.008c0-19.052-15.457-34.508-34.509-34.508h-621.171c-19.075 0-34.51 15.456-34.51 34.508v23.008c0 19.065 15.435 34.51 34.51 34.51zM40.372 775.106h23.007c19.052 0 34.509-15.434 34.509-34.509v-23.007c0-19.053-15.457-34.51-34.509-34.51h-23.007c-19.063 0-34.51 15.457-34.51 34.51v23.007c0 19.076 15.445 34.509 34.51 34.509zM40.372 430.013h23.007c19.052 0 34.509-15.435 34.509-34.51v-23.006c0-19.053-15.457-34.51-34.509-34.51h-23.007c-19.063 0-34.51 15.457-34.51 34.51v23.006c0 19.076 15.445 34.51 34.51 34.51zM40.372 84.918h23.007c19.052 0 34.509-15.445 34.509-34.51v-23.008c0-19.052-15.457-34.508-34.509-34.508h-23.007c-19.063 0-34.51 15.456-34.51 34.508v23.008c0 19.065 15.445 34.51 34.51 34.51z"  horiz-adv-x="1024" />

    
    <glyph glyph-name="chakanwenjian" unicode="&#58968;" d="M988.032-89.28c-8.832-8.704-22.912-8.704-31.616 0l-116.16 116.16c11.392 9.664 21.952 20.224 31.616 31.616l116.16-116.16C996.544-66.368 996.544-80.576 988.032-89.28L988.032-89.28zM651.648 1.6c-135.552 0-245.44 109.888-245.44 245.44 0 135.488 109.952 245.44 245.44 245.44 135.616 0 245.504-109.952 245.504-245.44C897.152 111.488 787.264 1.6 651.648 1.6L651.648 1.6zM651.648 447.872c-110.848 0-200.832-89.92-200.832-200.832s89.984-200.896 200.832-200.896c110.912 0 200.96 89.984 200.96 200.896S762.56 447.872 651.648 447.872L651.648 447.872zM495.488 247.04c0 7.552 0.64 14.976 1.728 22.272l176.768 0 0-44.544L497.28 224.768C496.128 232 495.488 239.424 495.488 247.04L495.488 247.04zM651.648 403.2c7.616 0 14.976-0.704 22.4-1.728l0-42.88L542.4 358.592C570.624 386.176 609.152 403.2 651.648 403.2L651.648 403.2zM183.04 224.768 183.04 269.312l179.648 0c-0.512-7.36-1.088-14.72-1.088-22.272 0-7.552 0.576-14.912 1.088-22.336L183.04 224.704 183.04 224.768zM383.936 358.592 183.04 358.592 183.04 403.2l224.448 0C398.464 389.12 390.4 374.272 383.936 358.592L383.936 358.592zM183.04 670.976l223.104 0 0-44.672L183.04 626.304 183.04 670.976 183.04 670.976zM406.144 492.48 183.04 492.48 183.04 537.152l223.104 0L406.144 492.48 406.144 492.48zM785.408 537.152 607.04 537.152c-49.344 0-89.344 40-89.344 89.216L517.696 827.2 116.096 827.2c-24.576 0-44.608-20.032-44.608-44.608l0-669.376c0-24.704 20.032-44.608 44.608-44.608l307.264 0c12.8-16.32 27.072-31.36 43.072-44.608L116.096 24c-49.28 0-89.216 40-89.216 89.28L26.88 782.592c0 49.28 40 89.28 89.216 89.28 0 0 171.456 0 334.656 0 4.032 0 8 0 12.032 0 7.808 0 15.296 0 22.976 0l62.464 0 275.328-296.64-1.344-7.872 7.936-7.872 0-10.24 0-56.704 0-17.152c-14.016 10.88-28.864 20.544-44.736 28.8L785.408 537.152 785.408 537.152zM562.432 790.144l0-163.776c0-24.576 19.968-44.608 44.608-44.608l150.72 0L562.432 790.144 562.432 790.144z"  horiz-adv-x="1024" />

    
    <glyph glyph-name="yonghu" unicode="&#58937;" d="M502.496 832.864c125.888 0 227.936-100.384 227.936-224.192 0-123.84-102.048-224.224-227.936-224.224-125.888 0-227.936 100.384-227.936 224.224C274.56 732.512 376.64 832.864 502.496 832.864L502.496 832.864zM502.496 832.864c125.888 0 227.936-100.384 227.936-224.192 0-123.84-102.048-224.224-227.936-224.224-125.888 0-227.936 100.384-227.936 224.224C274.56 732.512 376.64 832.864 502.496 832.864L502.496 832.864zM417.024 309.696l189.984 0c162.624 0 294.432-129.632 294.432-289.6l0-18.656c0-63.04-131.84-65.44-294.432-65.44l-189.984 0c-162.624 0-294.432 0.096-294.432 65.44l0 18.656C122.592 180.064 254.4 309.696 417.024 309.696L417.024 309.696zM417.024 309.696"  horiz-adv-x="1024" />

    
    <glyph glyph-name="erweima" unicode="&#59208;" d="M192 512l128 0L320 640 192 640 192 512zM64-64l384 0L448 320 64 320 64-64zM128 256l256 0 0-256L128 0 128 256zM192 64l128 0 0 128L192 192 192 64zM512 768l0-384 384 0L896 768 512 768zM832 448 576 448 576 704l256 0L832 448zM832 192l-128 0L704 320 576 320 512 320l0-128 0-256 64 0 0 256 64 0 0-64 192 0 64 0L896 320l-64 0L832 192zM64 384l384 0L448 768 64 768 64 384zM128 704l256 0 0-256L128 448 128 704zM768 640l-128 0 0-128 128 0L768 640zM832-64l64 0 0 128-64 0L832-64zM704-64l64 0 0 128-64 0L704-64z"  horiz-adv-x="1024" />

    
    <glyph glyph-name="jiantoushangsheng1" unicode="&#59377;" d="M752.64 519.68 546.56 693.12c-19.2 16-50.56 16-69.76 0L270.72 519.68C240 493.44 261.76 448.64 305.28 448.64L384 448.64C384 448.64 384 448 384 448l0-320c0-35.2 28.8-64 64-64l128 0c35.2 0 64 28.8 64 64L640 448c0 0 0 0.64 0 0.64l78.08 0C761.6 448.64 783.36 493.44 752.64 519.68z"  horiz-adv-x="1024" />

    
    <glyph glyph-name="zanting" unicode="&#58965;" d="M512 888.95592902c-278.98838016 0-504.95592902-225.96754772-504.95592902-504.95592902s225.96754772-504.95592902 504.95592902-504.95592902 504.95592902 225.96754772 504.95592902 504.95592902S790.98721621 888.95592902 512 888.95592902zM461.50452339 182.01809464999997l-100.99095325 0L360.51357127 585.98190535l100.99095324 0L461.50452339 182.01809464999997zM663.48642873 182.01809464999997l-100.99095324 0L562.49547661 585.98190535l100.99095325 0L663.48642873 182.01809464999997z"  horiz-adv-x="1024" />

    
    <glyph glyph-name="nv" unicode="&#58981;" d="M598.058159 707.101829c-138.75727 0-251.727791-112.765864-251.727791-251.523134 0-138.552613 112.868192-251.420805 251.727791-251.420805 138.859598 0 251.830119 112.765864 251.830119 251.420805C849.990607 594.335965 736.917758 707.101829 598.058159 707.101829L598.058159 707.101829zM598.058159 96.917758c-88.51404 0-169.455781 32.233437-232.183072 85.444189L314.199261 130.68612l84.830219-84.830219-75.927651-75.825322-84.830219 84.830219-98.439892-98.235235-75.927651 75.825322 98.337564 98.235235-89.844309 89.741981 75.927651 75.825322 89.844309-89.741981 57.099231 56.996902c-35.507944 55.666633-56.382932 121.463775-56.382932 192.070351 0 197.800739 161.064855 358.660937 359.172579 358.660937 198.107725 0 359.274908-160.860198 359.274908-358.660937C957.333067 257.880284 796.165884 96.917758 598.058159 96.917758L598.058159 96.917758z"  horiz-adv-x="1024" />

    
    <glyph glyph-name="nan" unicode="&#58964;" d="M790.85952 312.8448c0 76.19968-24.19072 148.67712-68.93184 208.67456l108.66176 108.66176 0-84.74496c0-14.14016 5.72928-26.9376 14.99648-36.20352 9.26336-9.26464 22.06592-14.99648 36.20352-14.99648 28.27648 0 51.2 22.92224 51.2 51.2l0 204.2112c0.11008 1.36832 0.18176 2.7456 0.18176 4.1408 0 14.18752-5.7728 27.02592-15.09504 36.29952-9.27232 9.31456-22.1056 15.08096-36.28672 15.08224-1.3952 0-2.77504-0.07168-4.14208-0.18176l-204.2112 0c-28.27648 0-51.2-22.92352-51.2-51.2 0-14.13888 5.73184-26.93888 14.99648-36.2048 9.26592-9.26464 22.06464-14.9952 36.20352-14.9952l84.74624 0-108.66176-108.66304c-59.99744 44.73856-132.47744 68.93056-208.67712 68.92928-93.49376 0-181.3888-36.40576-247.49824-102.51648C127.23712 494.2336 90.8288 406.336 90.8288 312.84224c0.00128-93.49248 36.40832-181.38752 102.51776-247.49696 66.10816-66.10688 154.00448-102.5152 247.49696-102.5152 93.4912 0 181.39008 36.40704 247.49696 102.5152C754.45248 131.45472 790.85824 219.35232 790.85952 312.8448zM440.84352 65.22752c-66.14016 0.00256-128.32128 25.75744-175.08992 72.52736-46.76736 46.76736-72.52352 108.9472-72.5248 175.08736 0 66.14272 25.75616 128.32256 72.52352 175.0912 46.76864 46.76736 108.94848 72.52352 175.0912 72.5248 66.14016 0 128.32384-25.75744 175.08992-72.5248 46.76864-46.76864 72.5248-108.94848 72.5248-175.08864 0-66.14272-25.75744-128.32256-72.5248-175.09248C569.16608 90.98496 506.98368 65.22752 440.84352 65.22752z"  horiz-adv-x="1024" />

    
    <glyph glyph-name="wenhao" unicode="&#58919;" d="M512.001251 896C229.230705 896 0 666.769295 0 383.998749c0-282.769295 229.231956-512 512.001251-512S1024.002503 101.229453 1024.002503 383.998749C1024.002503 666.769295 794.771798 896 512.001251 896L512.001251 896zM512.001251-63.882069c-247.357599 0-447.880818 200.523219-447.880818 447.880818 0 247.35885 200.521968 447.880818 447.880818 447.880818S959.882069 631.357599 959.882069 383.998749C959.882069 136.64115 759.35885-63.882069 512.001251-63.882069L512.001251-63.882069zM412.335238 492.618725c0 0 16.059826 98.832679 114.893756 87.71405 98.832679-11.119881 76.594169-85.244077 66.711777-100.068917C584.057127 455.555375 492.636868 396.256018 477.812029 360.428906c-14.824839-35.827112-13.589853-102.538889-13.589853-102.538889l88.950287 0c0 0-4.942447 70.417987 44.474518 100.068917 49.416965 29.649679 133.423554 116.127491 96.361456 198.900345-59.299357 95.126469-117.363728 105.010113-192.722911 102.538889-75.360434-2.471224-154.427078-39.532071-180.370547-154.424575C382.685559 496.324935 412.335238 492.618725 412.335238 492.618725L412.335238 492.618725zM462.987189 188.247807 555.642435 188.247807 555.642435 86.957668 462.987189 86.957668 462.987189 188.247807Z"  horiz-adv-x="1025" />

    
    <glyph glyph-name="file" unicode="&#59306;" d="M958.473611 51.75908300000003c0 0 0 509.912455 0 560.039109 0 68.029396-61.916165 61.654198-61.916165 61.654198s-369.837186-0.436952-350.275665 0c-21.221324-0.436952-31.699979 11.090593-31.699979 11.090593s-14.758122 25.325805-41.218774 65.408709c-27.770484 42.004673-59.907415 35.106566-59.907415 35.106566L140.9021 785.058259c-75.53944 0-76.41232-72.65781-76.41232-72.65781s0-604.576465 0-656.886855c0-81.040734 61.217247-70.998007 61.217247-70.998007s730.330564 0 776.439718 0C967.643458-15.483389999999986 958.473611 51.75908300000003 958.473611 51.75908300000003L958.473611 51.75908300000003z"  horiz-adv-x="1024" />

    
    <glyph glyph-name="birthday" unicode="&#59071;" d="M933.327908 43.43448699999999l-62.697971 0L870.629937 408.094768c0 26.019607-21.189601 47.210231-47.177486 47.210231L211.316823 455.304999c-25.985838 0-47.176462-21.190625-47.176462-47.210231l0-364.66028-74.839499 0c-14.104229 0-25.601074-11.464099-25.601074-25.63382 0-14.105253 11.496845-25.634844 25.601074-25.634844l844.026022 0c14.169721 0 25.601074 11.529591 25.601074 25.634844C958.928982 31.970387999999957 947.496605 43.43448699999999 933.327908 43.43448699999999L933.327908 43.43448699999999zM817.656445 43.43448699999999L217.11283 43.43448699999999 217.11283 283.85823200000004c2.931772-5.409197 5.92699-11.464099 9.114588-18.032702 14.908548-30.722722 33.425274-69.042469 75.095325-69.042469 41.733497 0 60.2185 38.319747 75.096349 68.975954 12.108782 25.055652 21.574365 42.701544 33.008788 42.701544 11.399631 0 20.86726-17.645892 32.975019-42.635029 14.812357-30.722722 33.360805-69.042469 75.03188-69.042469 41.701774 0 60.249199 38.319747 75.159794 69.042469 12.076036 24.989137 21.543665 42.635029 33.008788 42.635029 11.464099 0 20.931728-17.645892 33.039487-42.701544 14.910595-30.720675 33.425274-68.975954 75.191516-68.975954 41.701774 0 60.249199 38.319747 75.16184 69.042469 2.993171 6.247284 5.861498 12.042267 8.66024 17.195637L817.656445 43.43448699999999 817.656445 43.43448699999999zM817.656445 349.871715c-25.343201-11.398608-39.157835-39.86494-50.814316-63.824631-12.108782-25.054629-21.542642-42.700521-33.008788-42.700521-11.496845 0-20.964474 17.645892-33.07121 42.700521-14.876826 30.720675-33.426297 68.975954-75.160817 68.975954-41.733497 0-60.282968-38.255279-75.096349-68.975954-12.108782-25.054629-21.51092-42.700521-33.070186-42.700521-11.432377 0-20.835538 17.645892-32.94432 42.700521-14.876826 30.720675-33.359782 68.975954-75.06258 68.975954-41.670052 0-60.219523-38.255279-75.095325-68.975954-12.108782-25.054629-21.60711-42.700521-33.007765-42.700521-11.464099 0-20.86726 17.645892-32.975019 42.700521-11.656481 24.087605-25.63382 52.813856-51.233871 64.083527L217.115899 397.145391l600.542592 0 0-47.273676L817.656445 349.871715 817.656445 349.871715zM344.216669 708.801481c12.493545 0 22.671349 10.112312 22.671349 22.670326l0 22.026666c0 12.493545-10.17678 22.671349-22.671349 22.671349-12.527314 0-22.734794-10.177803-22.734794-22.671349l0-22.026666C321.481875 718.9137920000001 331.689355 708.801481 344.216669 708.801481L344.216669 708.801481zM344.216669 671.7045840000001c-11.012821 0-19.934005-8.952906-19.934005-19.901259l0-167.839613c0-11.012821 8.92016-19.901259 19.934005-19.901259 10.948353 0 19.86749 8.888438 19.86749 19.901259L364.084159 651.803325C364.084159 662.751678 355.165022 671.7045840000001 344.216669 671.7045840000001L344.216669 671.7045840000001zM512.410346 708.801481c12.495592 0 22.671349 10.112312 22.671349 22.670326l0 22.026666c0 12.493545-10.175757 22.671349-22.671349 22.671349-12.528338 0-22.704095-10.177803-22.704095-22.671349l0-22.026666C489.707274 718.9137920000001 499.883031 708.801481 512.410346 708.801481L512.410346 708.801481zM512.410346 671.7045840000001c-11.014868 0-19.932981-8.952906-19.932981-19.901259l0-167.839613c0-11.012821 8.919137-19.901259 19.932981-19.901259 10.981099 0 19.868513 8.888438 19.868513 19.901259L532.278859 651.803325C532.278859 662.751678 523.392468 671.7045840000001 512.410346 671.7045840000001L512.410346 671.7045840000001zM680.602999 708.801481c12.495592 0 22.671349 10.112312 22.671349 22.670326l0 22.026666c0 12.493545-10.175757 22.671349-22.671349 22.671349-12.526291 0-22.732747-10.177803-22.732747-22.671349l0-22.026666C657.869229 718.9137920000001 668.077731 708.801481 680.602999 708.801481L680.602999 708.801481zM680.602999 671.7045840000001c-11.013845 0-19.930935-8.952906-19.930935-19.901259l0-167.839613c0-11.012821 8.919137-19.901259 19.930935-19.901259 10.949376 0 19.871583 8.888438 19.871583 19.901259L700.474582 651.803325C700.472536 662.751678 691.552375 671.7045840000001 680.602999 671.7045840000001L680.602999 671.7045840000001z"  horiz-adv-x="1024" />

    
    <glyph glyph-name="refund" unicode="&#58921;" d="M639.09888 308.20863999999995l0-41.37472L494.39232 266.83392000000003l0-124.01664L453.0176 142.81727999999998l0 124.01664L308.30592 266.83392000000003l0 41.37472L453.0176 308.20863999999995 453.0176 370.27840000000003 308.30592 370.27840000000003l0 41.37984L453.0176 411.65824l0 32.91136-0.12288-0.12288L308.79232 587.94496l29.28128 29.27616 135.75168-135.14752 134.54848 134.42048 28.90752-28.91264L494.39232 444.68736l0-33.02912 144.70656 0 0-41.37984L494.39232 370.27840000000003l0-62.06976L639.09888 308.20863999999995 639.09888 308.20863999999995 639.09888 308.20863999999995M907.93984 303.25248L804.736 405.248l29.28128 29.1584 52.75648-51.7888c-6.66112 222.62272-188.7488 401.20832-412.94848 401.20832-228.4288 0-413.54752-185.11872-413.54752-413.54752s185.11872-413.54752 413.54752-413.54752c144.34304 0 271.38048 74.04544 345.30816 186.0864l48.52224 0c-78.63808-136.00256-225.52576-227.46624-393.94304-227.46624-251.30496 0-454.93248 203.62752-454.93248 454.92736 0 251.30496 203.62752 454.93248 454.93248 454.93248 247.30624 0 448.14848-197.5808 454.31808-443.43296l52.6336 52.6336 29.28128-29.28128L907.93984 303.25248 907.93984 303.25248 907.93984 303.25248M907.93984 303.25248L907.93984 303.25248z"  horiz-adv-x="1024" />

    
    <glyph glyph-name="wenjianjia" unicode="&#59171;" d="M729.157375 75.065632H127.909668c-2.890614 0-5.058574 2.16796-5.058574 5.058574V480.474241h786.247001v-229.081157c0-13.730416 11.562456-25.292872 25.292872-25.292872s25.292872 11.562456 25.292872 25.292872V598.989414c0 30.351447-24.570219 55.644319-55.644319 55.644319H531.872971L436.48271 731.235004c-4.335921 3.613267-10.117149 5.781228-15.898377 5.781227H127.909668c-30.351447 0-55.644319-24.570219-55.644319-55.644319v-601.247706c0-30.351447 24.570219-55.644319 55.644319-55.644319h601.247707c13.730416 0 25.292872 11.562456 25.292872 25.292872s-11.562456 25.292872-25.292872 25.292873zM123.573747 680.649259c0 2.890614 2.16796 5.058574 5.058575 5.058574H411.912491l95.390261-76.60127c4.335921-3.613267 10.117149-5.781228 15.898377-5.781228h381.561045c2.890614 0 5.058574-2.16796 5.058574-5.058574v-67.929429H123.573747V680.649259zM821.657022 49.772759m-27.460833 0a27.460833 27.460833 0 1 1 54.921666 0 27.460833 27.460833 0 1 1-54.921666 0ZM930.777699 49.772759m-27.460832 0a27.460833 27.460833 0 1 1 54.921665 0 27.460833 27.460833 0 1 1-54.921665 0ZM932.94566 143.717713m-27.460833 0a27.460833 27.460833 0 1 1 54.921666 0 27.460833 27.460833 0 1 1-54.921666 0Z"  horiz-adv-x="1024" />

    
    <glyph glyph-name="pre-payment" unicode="&#58930;" d="M136.805806 475.638093v-375.235126c0-46.023196 37.268812-83.375919 83.126232-83.375919h584.134901c45.815465 0 83.126232 37.352723 83.126232 83.334987v375.277082c0 45.982264-37.268812 83.334987-83.126232 83.334987h-584.134901c-45.815465-0.002047-83.126232-37.354769-83.126232-83.336011z m-41.687448 0c0 69.035306 55.987129 125.022435 124.814703 125.022435h584.134901c68.910463 0 124.814704-56.029084 124.814704-125.022435v-375.235126c0-69.077262-55.987129-125.06439-124.814704-125.064391h-584.134901c-68.910463 0-124.814704 56.029084-124.814703 125.023459v375.276058zM537.471115 725.891717l85.58626 77.790714c8.212032 7.503904 20.88568 7.170307 28.765137-0.667195l166.752862-166.752862c8.129144-8.129144 8.129144-21.344121 0-29.473265l-41.688471-41.688471c-8.129144-8.129144-21.344121-8.129144-29.473265 0-8.129144 8.129144-8.129144 21.344121 0 29.473265l41.688471 41.688471v-29.473265l-166.752862 166.752862 28.765137-0.667196-229.285056-208.441333c-8.54563-7.795547-21.719674-7.170307-29.473265 1.375324-7.753591 8.504698-7.128351 21.677719 1.417279 29.432333l110.640889 100.552113-105.929588 52.943816 27.55559 8.504698-104.220667-187.596585c-5.586229-10.04682-18.300808-13.673417-28.347628-8.087189-10.04682 5.586229-13.673417 18.300808-8.087189 28.347628l104.220667 187.596586c5.41943 9.755178 17.550725 13.506619 27.555589 8.504697l120.31011-60.115146zM741.285057 246.31108099999994c23.01211 0 41.688471 18.676361 41.688471 41.688471s-18.676361 41.688471-41.688471 41.688472-41.688471-18.676361-41.688471-41.688472 18.676361-41.688471 41.688471-41.688471zM637.06439 287.99852899999996c0-45.940308 37.393655-83.375919 83.459831-83.375919h208.357421l-41.688471-41.688471v250.12878l41.688471-41.688471h-208.357421c-46.231951 0.001023-83.45983-37.267788-83.459831-83.375919z m-41.688471 0c0 69.077262 55.82033 125.06439 125.148302 125.06439h208.357421v-250.12878h-208.357421c-69.119217 0-125.148301 56.153928-125.148302 125.06439z"  horiz-adv-x="1024" />

    
    <glyph glyph-name="chat" unicode="&#59132;" d="M959.438 387.36c0-208.679-200.733-378.367-448.405-378.367-68.597 0-132.862 13-191.35 36.102l-169.687-108.31 26.717 197.85C106.67 201.78200000000004 63.347 290.6 63.347 387.36c0 208.678 200.737 378.365 448.407 378.365 246.951 0 447.684-169.687 447.684-378.365zM213.035 33.41700000000003l108.427 70.736 16.631 1.562c52.82-19.974 109.813-41.835 169.584-41.835 216.152 0 391.992 151.047 391.992 322.185S723.83 707.062 507.68 707.062c-216.152 0-384.864-149.193-384.864-320.997 0-75.248 27.62-148.494 90.173-205.1l18.276-30.834-18.23-116.714z m49.605 371.272c0-29.113 23.599-52.71 52.712-52.71 29.111 0 52.711 23.597 52.711 52.71 0 29.111-23.6 52.713-52.711 52.713-29.113 0-52.712-23.602-52.712-52.713z m208.68 0c0-29.113 23.6-52.71 52.71-52.71 29.115 0 52.713 23.597 52.713 52.71 0 29.111-23.598 52.713-52.713 52.713-29.111 0-52.71-23.602-52.71-52.713z m208.68 0c0-29.113 23.599-52.71 52.707-52.71 29.114 0 52.716 23.597 52.716 52.71 0 29.111-23.602 52.713-52.716 52.713-29.108 0-52.707-23.602-52.707-52.713z"  horiz-adv-x="1024" />

    
    <glyph glyph-name="topArr" unicode="&#59167;" d="M855.936 462.5024c-9.9584-9.9584-26.2528-9.9584-36.1984 0L537.6 744.64 537.6-38.39999999999998c0-14.08-11.52-25.6-25.6-25.6-14.08 0-25.6 11.52-25.6 25.6L486.4 744.64 204.2624 462.5024c-9.9584-9.9584-26.2528-9.9584-36.1984 0-9.9584 9.9584-9.9584 26.2528 0 36.1984L493.9008 824.5504c2.3936 2.3936 5.1712 4.1856 8.1152 5.4272 0.0128 0.0128 0.0256 0.0128 0.0512 0.0256 1.2544 0.5248 2.5472 0.8832 3.8528 1.2032 0.3456 0.0896 0.6656 0.2304 1.024 0.3072 3.3408 0.6656 6.784 0.6656 10.112 0 0.3584-0.0768 0.6784-0.2176 1.024-0.3072 1.3056-0.32 2.5984-0.6784 3.8528-1.2032 0.0128 0 0.0128-0.0128 0.0256-0.0128 2.9568-1.2416 5.7344-3.0336 8.1408-5.4272L855.936 498.7136C865.8944 488.7552 865.8944 472.4608 855.936 462.5024z"  horiz-adv-x="1024" />

    
    <glyph glyph-name="downArr" unicode="&#59168;" d="M168.064 269.28639999999996l325.8368-325.8368c2.3936-2.3936 5.184-4.1856 8.1408-5.4272 0.0128 0 0.0128-0.0128 0.0256-0.0128 1.2544-0.5248 2.5472-0.8832 3.8528-1.2032 0.3456-0.0896 0.6656-0.2304 1.024-0.3072 3.3408-0.6656 6.784-0.6656 10.112 0 0.3584 0.0768 0.6784 0.2176 1.024 0.3072 1.3056 0.32 2.5984 0.6784 3.8528 1.2032 0.0128 0.0128 0.0256 0.0128 0.0512 0.0256 2.9568 1.2416 5.7216 3.0336 8.1152 5.4272L855.936 269.28639999999996c9.9584 9.9584 9.9584 26.2528 0 36.1984-9.9584 9.9584-26.2528 9.9584-36.1984 0L537.6 23.360000000000014 537.6 806.4c0 14.08-11.52 25.6-25.6 25.6-14.08 0-25.6-11.52-25.6-25.6l0-783.04L204.2624 305.49760000000003c-9.9584 9.9584-26.2528 9.9584-36.1984 0C158.1056 295.53920000000005 158.1056 279.24480000000005 168.064 269.28639999999996z"  horiz-adv-x="1024" />

    
    <glyph glyph-name="suoxiao" unicode="&#59426;" d="M407.806963 529.603169l-0.165776 269.456988c-0.011256 19.010983-15.344476 34.43016-34.225499 34.418904-18.881023-0.01228-34.1948-15.4509-34.183544-34.46086l0.119727-194.447621L121.745808 823.471127c-12.799514 12.873192-33.528628 12.859889-46.38033-0.028653-12.785188-12.95608-12.772908-33.827433 0.028653-46.699602L293.068755 557.908842l-193.118346-0.12075c-18.879999-0.01228-34.1948-15.4509-34.183544-34.46086 0.011256-19.009959 15.3455-34.43016 34.225499-34.418904l267.615037 0.166799C392.577097 489.0915 407.824359 502.05065 407.806963 529.603169L407.806963 529.603169zM655.570883 488.782461l267.615037 0.432859c18.881023 0.030699 34.17945 15.484669 34.149774 34.495652-0.030699 19.010983-15.379269 34.414811-34.259268 34.385135l-193.118346-0.312108L947.148681 777.104099c12.772908 12.900821 12.739139 33.772174-0.074701 46.699602-12.880355 12.860912-33.608445 12.827143-46.38033-0.074701L683.57161 604.339314l-0.310062 194.447621c-0.030699 19.009959-15.379269 34.414811-34.259268 34.384112-18.881023-0.030699-34.17945-15.484669-34.149774-34.495652l0.429789-269.456988C615.32732 501.667933 630.53365 488.742553 655.570883 488.782461L655.570883 488.782461zM367.764991 282.151357l-267.615037 0.415462c-18.879999 0.029676-34.227546-15.376199-34.257222-34.387181-0.028653-19.010983 15.270798-34.463929 34.151821-34.492582l193.118346-0.299829L75.28873-5.243165c-12.812817-12.859889-12.844539-33.731242-0.071631-46.699602 12.840446-12.900821 33.568537-12.933567 46.38033-0.071631L339.40406 166.684556l-0.297782-194.447621c-0.028653-19.010983 15.270798-34.463929 34.151821-34.492582 18.881023-0.029676 34.227546 15.376199 34.257222 34.387181l0.412392 269.456988C407.969669 269.140019 392.734686 282.112472 367.764991 282.151357L367.764991 282.151357zM614.842273 241.549637l0.472767-269.456988c0.033769-19.010983 15.384385-34.412764 34.264385-34.378995 18.881023 0.033769 34.177404 15.489786 34.143635 34.500768l-0.340761 194.447621 217.85575-218.650859c12.814864-12.858866 33.542954-12.822027 46.38033 0.082888 12.770861 12.971429 12.734022 33.842783-0.081864 46.699602l-217.923288 218.582297 193.118346 0.343831c18.879999 0.033769 34.177404 15.489786 34.143635 34.500768-0.033769 19.010983-15.384385 34.412764-34.264385 34.378995l-267.615037-0.475837C629.956505 282.077679 614.793154 269.101133 614.842273 241.549637L614.842273 241.549637z"  horiz-adv-x="1024" />

    
    <glyph glyph-name="assembly" unicode="&#58909;" d="M896.777969-62.12364000000002H667.694503l16.723893 37.741579c5.013177 11.313673 7.554046 23.339568 7.554047 35.745109 0 48.722678-39.639812 88.36556-88.366584 88.36556-48.724725 0-88.364537-39.641859-88.364537-88.36556 0-12.409634 2.540869-24.435529 7.553023-35.741016l16.73208-37.745672H297.525766c-35.381835 0-64.166415 28.783557-64.166416 64.164368V168.53571699999998a141.937686 141.937686 0 0 0-26.137287-2.438539c-78.347392 0-142.086066 63.73765-142.086065 142.086066 0 78.345346 63.739696 142.082996 142.086065 142.082995 8.769734 0 17.529235-0.823761 26.137287-2.439561v153.46523c0 35.382858 28.78458 64.167438 64.166416 64.167439h165.350932a142.809543 142.809543 0 0 0-1.353835 19.696597c0 78.347392 63.73765 142.087089 142.082996 142.087089 78.347392 0 142.087089-63.739696 142.087089-142.087089 0-6.638187-0.452301-13.210883-1.354857-19.696597H896.777969c35.381835 0 64.165392-28.78458 64.165391-64.167439v-231.839229l-38.477336 18.454304c-11.951193 5.732561-24.788569 8.638751-38.154995 8.638751-48.726771 0-88.36863-39.640836-88.36863-88.366583 0-48.722678 39.641859-88.363514 88.36863-88.363514 13.368472 0 26.206872 2.90619 38.154995 8.636704l38.477336 18.454304v-244.867963c0.001023-35.378765-28.782533-64.162322-64.165391-64.162322z m-152.449088 53.719482H896.777969c5.759167 0 10.44591 4.685719 10.445909 10.444886V167.92377999999997a143.287427 143.287427 0 0 0-22.912849-1.825579c-78.347392 0-142.089136 63.73765-142.089135 142.082996 0 78.347392 63.74072 142.086066 142.089135 142.086066 7.752568 0 15.399735-0.610914 22.912849-1.825578v152.851246c0 5.761214-4.686742 10.447956-10.445909 10.447957H667.751808L684.441932 649.467117c4.996804 11.293207 7.529487 23.301705 7.529487 35.688827 0 48.725748-39.639812 88.366583-88.366583 88.366584-48.724725 0-88.364537-39.640836-88.364537-88.366584 0-12.385075 2.533706-24.39255 7.53051-35.691897l16.683985-37.724183H297.525766c-5.760191 0-10.44591-4.686742-10.44591-10.447956v-235.013525l-39.235606 20.367887c-12.655228 6.568602-26.322505 9.900487-40.621163 9.900487-48.724725 0-88.366583-39.640836-88.366584-88.363513 0-48.724725 39.640836-88.366583 88.366584-88.366584 14.297634 0 27.964912 3.330862 40.622186 9.901511l39.234583 20.364817v-248.043283c0-5.759167 4.685719-10.444886 10.44591-10.444886H462.885907a142.976342 142.976342 0 0 0-1.363044 19.766182c0 78.346369 63.73765 142.085042 142.082996 142.085043 78.347392 0 142.087089-63.738673 142.087089-142.085043 0-6.661723-0.456395-13.258978-1.364067-19.765159z"  horiz-adv-x="1024" />

    
    <glyph glyph-name="info" unicode="&#58911;" d="M761.005702 335.45947c0 20.468171 15.533788 37.007869 34.524305 37.007869 19.040658 0 34.603099-16.539698 34.603099-37.007869l0-361.774557c0-20.470217-15.562441-37.010939-34.603099-37.010939l-0.919952 0L225.556641-63.32602499999996c-19.066241 0-34.628682 16.540721-34.628682 37.010939L190.927959-25.521000999999956l0 360.981495c0 20.468171 15.562441 37.007869 34.628682 37.007869 19.22076 0 34.603099-16.539698 34.603099-37.007869l0-324.925301 111.179149 0L371.338888 375.520885c0 12.252045 9.239432 22.137183 20.704554 22.137183l0.563842 0 236.511645 0c11.440563 0 20.704554-9.885138 20.704554-22.137183l0-0.61603 0-364.371708L761.005702 10.533146999999985 761.005702 335.45947 761.005702 335.45947zM412.827815 10.534170000000017L412.827815 10.534170000000017l195.435111 0L608.262926 353.305931 412.827815 353.305931 412.827815 10.534170000000017 412.827815 10.534170000000017zM120.009769 325.28269L120.009769 325.28269l390.56016 417.4813 390.383128-417.4813c13.511735-14.174837 35.447327-14.174837 48.933479 0 13.486152 14.567787 13.486152 37.96466 0 52.318576L535.599999 820.628382l-0.563842 0.873903c-13.564947 14.175861-35.344996 14.175861-48.90892 0L71.175551 377.601266c-13.410428-14.354939-13.410428-37.750789 0-52.318576C84.66375 311.107853 106.674043 311.107853 120.009769 325.28269L120.009769 325.28269z"  horiz-adv-x="1024" />

    
    <glyph glyph-name="shop" unicode="&#58916;" d="M1091.975107 524.9733739999999a205.962074 205.962074 0 0 1-10.67734 64.845003l-0.912166 4.841977-93.921855 227.116827a116.644783 116.644783 0 0 1-110.334594 74.054131H223.474411a113.439707 113.439707 0 0 1-111.90277-71.97989l-100.169567-230.353143-0.887175-4.567077a206.805516 206.805516 0 0 1-10.508651-64.845003 209.079683 209.079683 0 0 1 68.274997-153.618743l0.249908-399.041367c0.87468-55.236022 45.908188-99.426089 100.98177-99.426089l1.405735 0.012495h0.068725l750.462672 0.43734h0.9559c55.236022 0 100.40698 44.246297 101.419109 99.582282v399.366248c42.540671 38.954484 67.918877 94.296718 68.150043 153.575009zM75.297425 567.432825l1.386992 4.173472 0.299891 1.543184 97.176912 223.493155 0.512313 1.17457 0.468578 1.193313c6.71629 17.187456 23.616351 28.739475 42.047102 28.739475l2.524076-0.068725 1.880561-0.106211h654.535302l1.249542 0.006248 0.499817 0.006247c20.04266 0 37.723685-12.058084 45.508335-31.894569l91.247834-220.656694 0.474826-2.517828 1.455717-4.385893a137.181013 137.181013 0 0 0 7.159878-42.878048c-0.21867-52.59324-29.314265-100.375741-75.191214-124.316974a154.305991 154.305991 0 0 0-69.355852-16.550189l-1.955533 0.012496h-3.055132a149.245345 149.245345 0 0 0-112.515045 51.193752l-51.662331 59.290787-51.424918-59.484466c-28.102209-32.513093-68.86853-51.268725-112.633752-51.468652a149.114143 149.114143 0 0 0-112.383844 51.231239l-51.506138 59.165833-51.481147-59.190824a150.163758 150.163758 0 0 0-101.094228-51.093789l-14.176059-0.306138-3.19258-0.031238c-23.041562 0-46.133106 5.416766-66.388188 15.469334-47.545088 23.972471-77.227968 71.948652-77.446638 124.841782a138.186894 138.186894 0 0 0 7.034923 43.415351z m880.290128-594.126175c-0.343624-17.974667-15.225674-32.600561-34.181232-32.594313l-751.905894-0.449835c-17.768493 0-32.450616 14.457206-32.725515 31.207321l-0.19368 309.817791h0.037487v47.713777a218.432508 218.432508 0 0 1 80.126906-13.48881v-0.243661h0.512313a218.420012 218.420012 0 0 1 164.802147 75.085003 217.407883 217.407883 0 0 1 163.808762-74.666406h1.162074a216.983038 216.983038 0 0 1 163.159 75.078755 217.457865 217.457865 0 0 1 165.451909-74.597681h0.718487a222.018694 222.018694 0 0 1 79.220989 13.557535v-106.467261h-0.012496l0.018743-249.952215z"  horiz-adv-x="1092" />

    
    <glyph glyph-name="shanchu1" unicode="&#59072;" d="M847.743 672.047H640.639c-3.132 68.921-60.177 124.029-129.858 124.029s-126.726-55.108-129.858-124.029H173.256c-17.673 0-32-14.327-32-32s14.327-32 32-32h674.487c17.673 0 32 14.327 32 32s-14.327 32-32 32z m-336.962 60.03c34.379 0 62.689-26.426 65.718-60.029H445.064c3.029 33.603 31.338 60.029 65.717 60.029zM767.743 544.21c-17.673 0-32-14.327-32-32v-478.173H288.256V512.21c0 17.673-14.327 32-32 32s-32-14.327-32-32v-510.173c0-17.673 14.327-32 32-32h511.487c17.673 0 32 14.327 32 32V512.21c0 17.673-14.327 32-32 32zM449.306 163.198V447.792c0 17.673-14.327 32-32 32s-32-14.327-32-32v-284.593c0-17.673 14.327-32 32-32s32 14.326 32 31.999z m191.534 0V447.792c0 17.673-14.327 32-32 32s-32-14.327-32-32v-284.593c0-17.673 14.327-32 32-32s32 14.326 32 31.999z"  horiz-adv-x="1024" />

    
    <glyph glyph-name="copy" unicode="&#59008;" d="M799.3 671.5c52.9 0 96-43.1 96-96v-512c0-52.9-43.1-96-96-96h-448c-52.9 0-96 43.1-96 96v512c0 52.9 43.1 96 96 96h448M799.3 703.5h-448c-70.7 0-128-57.3-128-128v-512c0-70.7 57.3-128 128-128h448c70.7 0 128 57.3 128 128v512c0 70.6-57.3 128-128 128zM223.3 96.5c-52.9 0-96 43.1-96 96v512c0 52.9 43.1 96 96 96h448c52.9 0 96-43.1 96-96v-1.1h32v1.1c0 70.7-57.3 128-128 128h-448c-70.7 0-128-57.3-128-128v-512c0-70.7 57.3-128 128-128v32zM410 463.5h358v-32h-358zM384 463.5h32v-32h-32zM410 335.5h358v-32h-358zM384 335.5h32v-32h-32zM410 207.5h294v-32h-294zM384 207.5h32v-32h-32z"  horiz-adv-x="1024" />

    
    <glyph glyph-name="track" unicode="&#58912;" d="M650.262994 830.529893H263.142166c-61.052494 0-110.576421-49.981345-110.576422-111.633497v-669.794839c0-61.651129 49.523927-111.63145 110.576422-111.63145h497.715668c61.052494 0 110.576421 49.981345 110.576422 111.63145V607.266993L650.262994 830.529893z m-7.877411-62.117756l165.873841-167.446664H697.664583c-30.517037 0-55.279001 24.974811-55.279 55.815214V768.412137z m173.751252-719.31058c0-30.840402-24.742521-55.815213-55.279001-55.815213h-497.715668c-30.517037 0-55.279001 24.974811-55.279001 55.815213v669.794839c0 30.81175 24.761963 55.816237 55.279001 55.816237h331.047741c-0.548492-66.838268 0.757247-111.63145 0.757247-111.63145 0-61.651129 49.523927-111.63145 110.594841-111.63145h110.59484v-502.348176zM679.686117 383.74008000000003H399.297149c21.698185 24.902156 82.69849 99.456153 82.69849 151.422712 0 63.221904-51.618635 114.471125-115.308189 114.471124-63.653739 0-115.28977-51.249221-115.28977-114.471124 0-52.859905 63.161528-129.148405 83.85892-152.739707-11.279904-3.584642-19.448958-14.086833-19.448958-26.478048 0-15.340383 12.527314-27.79402 28.005844-27.794019h335.873654c15.47853 0 28.005844 12.453636 28.005844 27.794019-0.001023 15.341407-12.528338 27.795043-28.006867 27.795043zM313.382407 538.821111c0 29.247114 23.859407 52.954049 53.305043 52.954049 29.464055 0 53.375651-23.706935 53.375651-52.954049 0-29.249161-23.911596-52.955072-53.375651-52.955072-29.445636-0.001023-53.305043 23.705911-53.305043 52.955072z m366.30371-321.844125H343.812463c-15.47853 0-28.005844-12.44852-28.005844-27.79095s12.527314-27.796066 28.005844-27.796066h335.873654c15.47853 0 28.005844 12.453636 28.005844 27.796066s-12.527314 27.79095-28.005844 27.79095z"  horiz-adv-x="1024" />

    
    <glyph glyph-name="flag-red" unicode="&#59140;" d="M1020.829037 354.95669499999997l-1.292232 4.141768-120.502264 386.34415a47.998125 47.998125 0 0 1-45.817898 33.266683 48.680688 48.680688 0 0 1-20.841379-4.658661l-0.132536 0.132536c-83.995062-35.466791-196.339699-5.83161-298.33323 55.652113C425.189736 895.328238 290.592206 919.920402 191.567495 867.886538h-0.132536l-7.760017-4.267678a70.463076 70.463076 0 0 1-33.00161-59.667971c0-5.175554 0.642802-10.357734 1.676587-15.274842l3.498966-11.133073L281.778523 373.465429l2.465181-7.634108c6.984678-17.349039 24.32709-29.641808 44.519039-29.641807 7.249751 0 14.241056 1.550678 20.324485 4.526124 2.200107 1.298859 4.267678 2.465181 6.600322 3.624876 99.269903 53.584542 224.821812 34.558915 341.692574-37.792808 86.977135-53.842988 197.771094-69.634723 281.255891-35.71861 0.642802 0.132537 1.159695 0.384356 1.683214 0.642803 25.493412 10.868 43.226808 35.983683 43.226808 65.101971a74.266876 74.266876 0 0 1-2.717 18.382825z m-922.454642 469.828945C90.230021 850.935109 62.145519 865.560521 35.744231 857.542057c-26.533825-8.02509-41.417683-35.71861-33.266684-61.868078L279.843489-93.01034100000004c8.018463-25.751859 35.334254-40.251361 61.477096-33.00161l2.451926 0.775339c25.632576 8.541983 39.873632 35.71861 31.974452 61.351186L98.381021 824.7856400000001z"  horiz-adv-x="1024" />

    
    <glyph glyph-name="edit" unicode="&#58967;" d="M470.528 492.736zM313.984 44.28800000000001l-246.976-45.888 49.792 244.16 197.184-198.272zM701.44 830.656l-88.512-88.96 197.184-198.336 88.512 88.96-197.184 198.336zM161.024 287.03999999999996l197.184-198.336 407.744 410.112-197.184 198.4-407.744-410.176zM384 64h128v-128H384zM580.032 64h128v-128h-128zM772.032 64h126.656v-128h-126.656z"  horiz-adv-x="1024" />

    
    <glyph glyph-name="bianji1" unicode="&#59073;" d="M306.744 224l590.625 590.623 45.255-45.255-590.625-590.625zM306.75 178.745c5.791-5.791 13.791-9.373 22.627-9.373 17.673 0 32 14.327 32 32 0 8.837-3.582 16.837-9.373 22.627-5.791 5.791-13.791 9.373-22.627 9.373-17.673 0-32-14.327-32-32 0-8.837 3.582-16.837 9.373-22.627zM897.37 769.381c5.791-5.791 13.791-9.373 22.627-9.373 17.673 0 32 14.327 32 32 0 8.837-3.582 16.837-9.373 22.627-5.791 5.791-13.791 9.373-22.627 9.373-17.673 0-32-14.327-32-32 0-8.837 3.582-16.837 9.373-22.627zM896 608c-17.673 0-32-14.327-32-32v-576h-704l-0.5 768.5 544.5-0.5c17.673 0 32 14.327 32 32s-14.327 32-32 32h-576c-17.673 0-32-14.327-32-32v-832c0-17.673 14.327-32 32-32h768c17.673 0 32 14.327 32 32v608c0 17.673-14.327 32-32 32zM306.744 224l590.625 590.623 45.255-45.255-590.625-590.625zM306.75 178.745c5.791-5.791 13.791-9.373 22.627-9.373 17.673 0 32 14.327 32 32 0 8.837-3.582 16.837-9.373 22.627-5.791 5.791-13.791 9.373-22.627 9.373-17.673 0-32-14.327-32-32 0-8.837 3.582-16.837 9.373-22.627zM897.37 769.381c5.791-5.791 13.791-9.373 22.627-9.373 17.673 0 32 14.327 32 32 0 8.837-3.582 16.837-9.373 22.627-5.791 5.791-13.791 9.373-22.627 9.373-17.673 0-32-14.327-32-32 0-8.837 3.582-16.837 9.373-22.627zM896 608c-17.673 0-32-14.327-32-32v-576h-704l-0.5 768.5 544.5-0.5c17.673 0 32 14.327 32 32s-14.327 32-32 32h-576c-17.673 0-32-14.327-32-32v-832c0-17.673 14.327-32 32-32h768c17.673 0 32 14.327 32 32v608c0 17.673-14.327 32-32 32z"  horiz-adv-x="1024" />

    
    <glyph glyph-name="label" unicode="&#58988;" d="M461.184-32.469333000000006l-344.32 344.32a34.773333 34.773333 0 0 0 0 49.194666L534.954667 779.157333a34.709333 34.709333 0 0 0 27.989333 10.026667h340.778667c19.2 0 34.773333-15.573333 34.773333-34.794667v-340.778666c0.981333-9.984-2.346667-20.330667-10.026667-27.968l-418.090666-418.133334a34.773333 34.773333 0 0 0-49.194667 0z m441.941333 441.92l0.597334 50.133333V737.002667a17.386667 17.386667 0 0 1-17.386667 17.386666H608.917333l-50.133333-0.597333L153.749333 348.736a17.386667 17.386667 0 0 1 0-24.597333l319.722667-319.722667a17.386667 17.386667 0 0 1 24.597333 0l405.056 405.034667z m-429.653333-282.069334a17.386667 17.386667 0 1 0 24.597333 24.597334 17.386667 17.386667 0 0 0-24.597333-24.597334z m-60.714667 60.714667l-123.733333 123.733333a17.386667 17.386667 0 0 0 24.597333 24.618667l123.733334-123.733333a17.386667 17.386667 0 0 0-24.597334-24.618667z m294.378667 369.706667a69.546667 69.546667 0 1 0 98.368 98.368 69.546667 69.546667 0 0 0-98.368-98.368z m73.770667 73.770666A34.773333 34.773333 0 1 1 731.733333 582.4a34.773333 34.773333 0 0 1 49.194667 49.173333z"  horiz-adv-x="1024" />

    
    <glyph glyph-name="update" unicode="&#58914;" d="M512 545.3579199999999c-24.684292 0-44.790047-20.47545-44.790047-45.728504 0-25.139302 20.105754-45.586314 44.790047-45.586314s44.790047 20.47545 44.790047 45.586314c0 25.253055-20.105754 45.700067-44.790047 45.700066z m0-73.370362a27.44279 27.44279 0 0 0-27.158409 27.641858c0 15.299711 12.114641 27.641857 27.158409 27.641857 14.930016 0 27.158409-12.342146 27.158409-27.641857s-12.228394-27.641857-27.158409-27.641858zM662.636747 728.840702C640.170629 768.142191 563.10331 896 511.431238 896 459.901355 896 383.004666 768.028438 360.709176 728.840702 322.971784 662.693624 258.047545 529.6885139999999 240.671851 374.72917099999995a399.640969 399.640969 0 0 1-69.474339-224.888691c0-68.877138 18.285714-137.441457 53.093979-198.014664 6.256387-11.090869 17.944457-17.802266 30.542546-17.802266 12.569651 0 24.229282 6.82515 30.514108 17.916019a217.63697 217.63697 0 0 0 64.440791 71.322817c30.087536-26.874028 64.099533-45.842257 100.358142-55.880915v-59.065986c0-19.906687 15.840036-36.002666 35.34859-36.002666h53.008664c19.508554 0 35.348589 16.124417 35.34859 36.002666v59.065986c36.258609 10.152411 70.270607 29.12064 100.358142 55.880915a218.063541 218.063541 0 0 0 64.554544-71.322817c6.256387-11.090869 17.944457-17.916019 30.514108-17.916019 12.569651 0 24.257721 6.82515 30.542546 17.802266a399.697845 399.697845 0 0 1 52.980226 198.014664c0 80.110198-24.030216 157.689402-69.588091 224.888691-17.404132 155.044657-82.754943 287.936014-120.57765 354.054655z m-124.132415-538.049322h-53.008664a8.901133 8.901133 0 0 1-8.844257-9.043324v-174.695401c-111.363697 22.067985-196.336814 145.233504-196.336814 289.642302 0 152.087092 53.975561 293.197067 110.112419 395.005554h242.577205c56.478116-101.808487 110.681182-242.80471 110.681182-395.005554 0-144.408798-84.973117-267.602755-196.336814-289.642302v174.695401a8.901133 8.901133 0 0 1-8.844257 9.043324z m-8.872695-17.944457v-255.601866h-35.377027v255.601866h35.377027z m-266.266163 154.134637c-0.45501-10.067096-0.796267-20.105754-0.796267-30.286603 0-88.072873 30.315041-168.751833 78.802044-225.997779-35.149522-21.357032-64.213286-48.913575-86.338147-82.95401a353.713397 353.713397 0 0 0-39.614308 162.12575c0 62.279493 16.607865 122.852699 47.946678 177.112642z m247.980449 524.114641c12.228394-1.82004 61.483226-55.539658 111.47745-141.337481H400.522551c49.852033 85.68407 98.680293 139.517441 110.794934 141.337481z m249.971118-554.401244c0 10.180849-0.227505 20.361697-0.796268 30.286603a352.206176 352.206176 0 0 0 48.060431-177.112642c0-55.96623-13.707176-111.761831-39.72806-162.097312-22.124861 34.011997-51.302377 61.682293-86.4519 83.039325 48.487003 57.132193 78.915796 137.811153 78.915797 225.884026z"  horiz-adv-x="1024" />

    
    <glyph glyph-name="yonghu1" unicode="&#58970;" d="M917.082-24.861c0-20.133-16.348-36.514-36.48-36.514-20.199 0-36.578 16.38-36.578 36.514l-0.317 3.408c0 1.42 0.284 2.809 0.442 4.294C821.3 143.095 683.863 260.965 516.443 262.828c-1.357-0.064-2.588-0.221-3.945-0.221-1.357 0-2.587 0.156-3.944 0.221-165.463-1.863-301.64-117.083-326.73-274.656 0.854-3.061 1.421-6.248 1.421-9.625l0.346-3.408c0-20.511-16.599-37.144-37.081-37.144-20.45 0-37.114 16.633-37.114 37.144l-0.031 0.347h-0.694c0.095 1.072 0.315 2.084 0.442 3.125 0 3.092 0.473 5.996 1.166 8.836 19.03 147.821 118.062 267.302 252.88 318.807-78.486 50.305-129.706 139.142-129.706 240.635 0 157.035 122.038 284.344 279.042 284.344 157.036 0 279.074-127.309 279.074-284.344 0-101.493-51.157-190.269-129.612-240.574C795.83 255.191 894.45 137.099 914.523-9.271c1.355-3.786 2.24-7.889 2.24-12.182l0.319-3.408M727.35 546.825c0 118.725-96.223 214.979-214.914 214.979-118.725 0-214.948-96.254-214.948-214.979 0-118.692 96.223-214.914 214.948-214.914 118.693-0.001 214.914 96.221 214.914 214.914m0 0z"  horiz-adv-x="1024" />

    
    <glyph glyph-name="box" unicode="&#58932;" d="M984.529455 147.207758L528.787394-79.90302999999994a14.677333 14.677333 0 0 0-13.048242-0.046546L70.593939 137.27806099999998A15.36 15.36 0 0 0 62.060606 151.11757599999999V642.715152c0 6.035394 3.459879 11.481212 8.843636 13.963636L487.951515 844.288c12.939636 8.890182 27.787636 4.561455 37.85697 0l458.146909-199.214545a15.313455 15.313455 0 0 0 9.014303-14.041213v-470.031515a15.36 15.36 0 0 0-8.440242-13.792969z m-15.903031 22.031515V597.0230300000001l-46.793697-19.378424-373.263515-170.620121v-445.346909L968.610909 169.22375799999998zM90.965333 160.581818l423.067152-205.094788V400.337455l-318.526061 150.807272-104.541091 48.562425V160.581818zM507.919515 817.803636L95.138909 632.568242l248.645818-117.744484 179.68097-84.557576 241.757091 107.659636 193.101576 84.324849L507.919515 817.803636zM219.306667 442.243879l5.895757-2.591031c1.210182-0.186182 2.420364-0.248242 3.584-0.744727l165.888-70.593939a14.320485 14.320485 0 0 0 7.602424-18.928485 14.196364 14.196364 0 0 0-7.400727-7.292121 14.832485 14.832485 0 0 0-10.364121-4.406303 14.491152 14.491152 0 0 0-5.895758 1.241212L207.437576 414.099394a15.453091 15.453091 0 0 0-7.866182 20.138667 14.87903 14.87903 0 0 0 19.719758 8.021333z"  horiz-adv-x="1024" />

    
    <glyph glyph-name="wenjian" unicode="&#58969;" d="M401.42 374.648H218.979v-36.486H401.42v36.486z m0 109.465H218.979v-36.488H401.42v36.488zM218.979 119.232H620.35v36.486H218.979v-36.486z m523.736 304.806L517.522 666.556H164.247c-40.303 0-72.976-32.673-72.976-72.977v-583.812c0-40.305 32.673-72.977 72.976-72.977h510.835c40.305 0 72.977 32.672 72.977 72.977V411.138l-6.45 6.45 1.106 6.45zM529.129 599.757l159.726-170.375H565.618c-20.151 0-36.488 16.336-36.488 36.488V599.757z m182.441-589.99c0-20.152-16.336-36.49-36.488-36.49H164.247c-20.151 0-36.488 16.338-36.488 36.49V593.579c0 20.151 16.338 36.486 36.488 36.486h328.394V465.87c0-40.305 32.673-72.977 72.977-72.977H711.57v-383.126zM218.979 228.695H620.35v36.49H218.979v-36.49z m705.07 298.357l1.107 6.451-225.194 242.516H346.688c-40.303 0-72.976-32.672-72.976-72.977h36.49c0 20.152 16.334 36.49 36.486 36.49h328.394v-164.199c0-40.303 32.673-72.977 72.977-72.977h145.953v-383.125c0-20.152-16.336-36.49-36.488-36.49h-72.977v-36.488h72.977c40.305 0 72.977 32.675 72.977 72.978V520.602l-6.452 6.45z m-175.99 11.795c-20.152 0-36.488 16.336-36.488 36.486V709.221l159.727-170.375H748.059z"  horiz-adv-x="1024" />

    
    <glyph glyph-name="concern" unicode="&#58913;" d="M1024 383.26343899999995c0 150.024982-106.693614 271.970807-237.981193 271.970807-31.312842 0-61.278316-7.042246-88.692772-19.671579C653.114386 746.603789 555.421193 824.140351 441.990737 824.140351 287.456561 824.140351 161.684211 680.115649 161.684211 503.089404c0-152.270596 93.11214-279.947228 217.429333-312.805053l-23.246597-68.230737h62.751439l-7.922526-30.055298a55.799018 55.799018 0 0 1 13.294035-52.673123c5.640982-6.10807 6.718877-15.018667 2.694737-22.330386l-35.893895-63.182596a18.665544 18.665544 0 0 1 7.257824-25.528141 19.042807 19.042807 0 0 1 25.815579 7.185965l35.87593 63.164632a55.996632 55.996632 0 0 1-7.796772 66.092912 18.827228 18.827228 0 0 0-4.437333 17.821193l10.491509 39.504842h70.404491l-23.246597 68.230737a259.862456 259.862456 0 0 1 84.524913 39.774316c35.354947-59.194386 90.579088-101.483789 154.55214-114.652071l-10.760982-31.510456h36.414877l-2.01207-7.724912c-3.898386-14.892912 0-30.594246 10.617263-42.01993 2.281544-2.389333 2.694737-6.126035 1.077895-8.910596l-25.258667-44.032a18.629614 18.629614 0 0 1 7.239859-25.528141 19.042807 19.042807 0 0 1 25.815579 7.185965l25.132913 44.13979a44.660772 44.660772 0 0 1-6.197895 52.673123 7.778807 7.778807 0 0 0-1.868351 7.185965l4.563088 17.282245h27.558175l-10.617263 31.133193C938.145684 136.695018 1024 248.67031599999996 1024 383.26343899999995zM408.54007 159.564351l7.383579 21.53993h52.15214l7.383579-21.53993h-66.919298z m163.678316 104.394105c-37.636491-28.061193-82.243368-44.552982-130.227649-44.552982-133.694877 0-242.544281 127.281404-242.544281 283.68393S308.29586 786.773333 441.990737 786.773333c99.184281 0 184.643368-69.955368 222.13614-169.966035a324.949333 324.949333 0 0 0 20.426105-113.717894c0-84.578807-31.851789-160.660211-82.243368-212.650667a255.209544 255.209544 0 0 0-30.091228-26.480281zM786.018807 148.65964899999994c-69.739789 0-131.161825 42.01993-167.037754 105.597755 63.020912 58.924912 103.334175 148.55186 103.334175 248.832 0 33.792-4.563088 66.236632-13.024561 96.830877a173.361404 173.361404 0 0 0 76.72814 17.946947c110.322526 0 200.093193-105.202526 200.093193-234.603789 0-129.401263-89.770667-234.603789-200.093193-234.60379z"  horiz-adv-x="1167" />

    
    <glyph glyph-name="liaotian" unicode="&#58966;" d="M149.2-27.2c-4.5 0-8.8 2-11.8 5.5-3.7 4.4-4.7 10.5-2.5 15.8L194.2 140C110.4 212.4 64.4 308 64.4 410.5c0 211.8 201 384.1 448 384.1s448-172.3 448-384.1-201-384.1-448-384.1c-8.5 0-15.4 6.9-15.4 15.4s6.9 15.4 15.4 15.4c230 0 417.1 158.5 417.1 353.2 0 194.8-187.1 353.2-417.1 353.2S95.3 605.3 95.3 410.5c0-96.6 45.2-186.7 127.2-253.9 5.2-4.3 7.1-11.5 4.5-17.8l-52.5-129.2 216.4 47.3c8.4 1.8 16.6-3.5 18.4-11.8 1.8-8.3-3.5-16.6-11.8-18.4l-245-53.5c-1.1-0.2-2.2-0.4-3.3-0.4zM431 409.6c-16.6 0-30.1 13.5-30.1 30.1s13.5 30.1 30.1 30.1 30.1-13.5 30.1-30.1-13.5-30.1-30.1-30.1z m-0.9 30.1c0-0.5 0.4-0.8 0.8-0.8l-0.8 0.8zM707.7 409.6c-16.6 0-30.1 13.5-30.1 30.1s13.5 30.1 30.1 30.1 30.1-13.5 30.1-30.1-13.6-30.1-30.1-30.1z m-0.9 30.1c0-0.5 0.4-0.8 0.8-0.8l-0.8 0.8z"  horiz-adv-x="1024" />

    
    <glyph glyph-name="miaoshu" unicode="&#59141;" d="M478.144-51.328c-120.448 0-176.96-0.128-297.408 0.064-104.384 0.128-146.432 42.56-146.432 147.264-0.064 195.008-0.128 389.952 0 584.96 0.064 92.224 44.48 137.792 137.152 137.984 247.04 0.576 430.144 0.64 677.184-0.064 95.104-0.256 140.992-47.36 141.056-141.696 0.128-196.032 0.128-392 0-588.032-0.064-95.872-44.16-140.096-140.992-140.416-123.52-0.384-247.04-0.064-370.56-0.064z m375.296 51.52c62.016 0.128 84.224 22.72 84.288 85.248v596.992c0 62.528-22.272 85.312-84.16 85.312-248.96 0.128-433.984 0.128-682.944 0-62.016-0.064-84.224-22.72-84.288-85.248v-596.992c0-62.592 22.208-85.248 84.16-85.312 123.456-0.192 182.976-0.064 306.432-0.064 125.504 0 251.008-0.128 376.512 0.064zM769.6 607.872h-313.6c-13.504 0-24.32-10.816-24.32-24.32s10.816-24.32 24.32-24.32h313.6c13.504 0 24.32 10.816 24.32 24.32a24.576 24.576 0 0 1-24.32 24.32z m-313.6-203.776c-13.504 0-24.32-10.816-24.32-24.32s10.816-24.32 24.32-24.32h313.6c13.504 0 24.32 10.816 24.32 24.32a24.576 24.576 0 0 1-24.32 24.32h-313.6zM230.08 546.24h78.912v78.912h-78.912v-78.912z m0-205.952h78.912v78.912h-78.912v-78.912z m225.92-133.632a24.256 24.256 0 0 1-24.32-24.32c0-13.504 10.816-24.32 24.32-24.32h313.6c13.504 0 24.32 10.816 24.32 24.32a24.576 24.576 0 0 1-24.32 24.32h-313.6z m-225.92-63.808h78.912v78.912h-78.912v-78.912z"  horiz-adv-x="1024" />

    
    <glyph glyph-name="sign" unicode="&#59117;" d="M252.061538 533.6615380000001H669.538462c23.630769 0 39.384615 15.753846 39.384615 39.384616s-15.753846 39.384615-39.384615 39.384615h-417.476924c-23.630769 0-39.384615-15.753846-39.384615-39.384615s15.753846-39.384615 39.384615-39.384616zM882.215385 376.12307699999997v370.215385c0 59.076923-47.261538 110.276923-110.276923 110.276923h-622.276924c-59.076923 0-110.276923-47.261538-110.276923-110.276923v-693.169231c0-59.076923 47.261538-110.276923 110.276923-110.276923h370.215385c51.2-43.323077 114.215385-70.892308 185.107692-70.892308 153.6 0 283.569231 126.030769 283.569231 283.569231-3.938462 90.584615-43.323077 169.353846-106.338461 220.553846zM118.153846 53.16923099999997V746.3384619999999c0 15.753846 11.815385 31.507692 31.507692 31.507692h622.276924c15.753846 0 31.507692-11.815385 31.507692-31.507692v-326.892308c-31.507692 11.815385-63.015385 19.692308-98.461539 19.692308-27.569231 0-55.138462-3.938462-82.707692-11.815385-7.876923 7.876923-15.753846 11.815385-27.569231 11.815385h-338.707692c-23.630769 0-39.384615-15.753846-39.384615-39.384616s15.753846-39.384615 39.384615-39.384615h256c-27.569231-27.569231-51.2-59.076923-66.953846-94.523077h-189.046154c-23.630769 0-39.384615-15.753846-39.384615-39.384616s15.753846-39.384615 39.384615-39.384615h169.353846v-31.507692c0-47.261538 11.815385-94.523077 35.446154-133.907693h-307.2c-23.630769 3.938462-35.446154 15.753846-35.446154 31.507693z m582.892308-98.461539c-110.276923 0-204.8 90.584615-204.8 204.8s90.584615 204.8 204.8 204.8c110.276923 0 204.8-90.584615 204.8-204.8s-90.584615-204.8-204.8-204.8zM858.584615 242.21538499999997c-15.753846 15.753846-39.384615 15.753846-55.138461 0l-118.153846-118.153847-55.138462 55.138462c-15.753846 15.753846-39.384615 15.753846-55.138461 0s-15.753846-39.384615 0-55.138462l82.707692-82.707692c7.876923-7.876923 19.692308-11.815385 27.569231-11.815384s19.692308 3.938462 27.56923 11.815384l145.723077 145.723077c11.815385 11.815385 11.815385 39.384615 0 55.138462z"  horiz-adv-x="1024" />

    
    <glyph glyph-name="mark" unicode="&#59086;" d="M517.022476 321.389714c-134.607238 10.215619-209.310476-13.677714-248.905143-36.473905l0-286.939429c0-11.215238-9.118476-20.309333-20.309333-20.309333-11.264 0-20.333714 9.094095-20.333714 20.309333L227.474286 753.444571C203.873524 761.831619 186.855619 784.14019 186.855619 810.666667c0 33.670095 27.257905 60.952381 60.952381 60.952381 33.645714 0 60.952381-27.282286 60.952381-60.952381 0-26.502095-17.042286-48.810667-40.643048-57.222095l0-88.624762c57.709714 7.168 167.302095 1.974857 261.827048-111.34781 135.558095-162.474667 408.81981-100.376381 408.81981-100.376381S756.49219 303.225905 517.022476 321.389714L517.022476 321.389714zM247.808 831.0003810000001C236.544 831.0003810000001 227.474286 821.881905 227.474286 810.666667c0-11.215238 9.094095-20.309333 20.333714-20.309333 11.190857 0 20.309333 9.118476 20.309333 20.309333C268.117333 821.881905 258.998857 831.0003810000001 247.808 831.0003810000001L247.808 831.0003810000001zM498.736762 527.433143c-68.193524 81.749333-144.457143 98.913524-196.388571 98.913524-13.06819 0-24.600381-1.097143-34.03581-2.486857l0-293.376c40.252952 18.505143 100.059429 33.962667 187.392 33.962667 20.48 0 42.179048-0.877714 64.438857-2.56 12.336762-0.926476 24.892952-1.414095 37.376-1.414095 79.506286 0 151.430095 19.163429 209.432381 42.422857C677.205333 410.404571 571.489524 440.173714 498.736762 527.433143L498.736762 527.433143zM186.855619 12.799999999999955c-36.400762-7.021714-60.976762-20.114286-60.976762-35.132952 0-19.017143 39.107048-34.889143 91.867429-39.375238 3.145143-0.731429 6.339048-1.29219 9.703619-1.29219l40.643048 0c3.34019 0 6.582857 0.536381 9.679238 1.29219 52.760381 4.510476 91.91619 20.358095 91.91619 39.375238 0 15.018667-24.576 28.111238-60.952381 35.132952l0 40.131048c59.538286-12.04419 101.571048-41.20381 101.571048-75.288381 0-44.909714-72.752762-81.286095-162.499048-81.286095-89.819429 0-162.57219 36.376381-162.57219 81.286095 0 34.06019 42.081524 63.24419 101.61981 75.288381L186.855619 12.799999999999955 186.855619 12.799999999999955z"  horiz-adv-x="1024" />

    
    <glyph glyph-name="riqi" unicode="&#58880;" d="M739.328 725.504v56.832h-56.832v-56.832H341.504v56.832h-56.832v-56.832H56.832v-739.328h910.336V725.504h-227.84z m171.008-688.64H113.664V440.832h796.672v-403.968z m0 460.8H113.664v176.64H284.16v-62.464h56.832v62.464h341.504v-62.464h56.832v62.464h170.496v-176.64zM682.496 213.504H796.16V99.84H682.496zM455.168 384h113.664v-113.664H455.168z m227.328 0H796.16v-113.664H682.496zM227.328 213.504h113.664V99.84H227.328z m227.84 0h113.664V99.84H455.168zM227.328 384h113.664v-113.664H227.328z"  horiz-adv-x="1024" />

    
    <glyph glyph-name="mima" unicode="&#58944;" d="M817.4-61.5H207.2c-19.1 0-34.5 15.5-34.5 34.5V410.6c0 19.1 15.5 34.5 34.5 34.5h24.2V521c-0.7 8.4-1.2 16.8-1.2 25.4 0 155.8 126.3 282.1 282.1 282.1s282.1-126.3 282.1-282.1v-101.3h23c19.1 0 34.5-15.5 34.5-34.5v-437.5c0.1-19.1-15.4-34.6-34.5-34.6zM495.1 165.1v-79.2h34.5v79.2c33 7.8 57.6 37.4 57.6 72.8 0 41.3-33.5 74.8-74.8 74.8s-74.8-33.5-74.8-74.8c-0.1-35.4 24.5-65 57.5-72.8z m224.5 379v2.3c0 114.5-92.8 207.2-207.2 207.2s-207.2-92.8-207.2-207.2v-101.3h414.5v99z"  horiz-adv-x="1024" />

    
    <glyph glyph-name="download" unicode="&#58888;" d="M265.45981 132.19352400000002c0 15.993905 12.921905 28.964571 28.964571 28.964571h472.161524a28.964571 28.964571 0 0 0 0-57.929143H294.424381a28.964571 28.964571 0 0 0-28.964571 28.964572zM530.529524 697.782857a28.769524 28.769524 0 0 0 28.720762-28.720762v-428.422095h-57.539048V669.062095a28.769524 28.769524 0 0 0 28.769524 28.769524zM681.20381 372.882286a28.769524 28.769524 0 0 0 0-40.667429l-151.454477-151.405714-149.894095 149.942857a28.964571 28.964571 0 1 0 40.96 40.96l109.275429-109.275429 110.445714 110.445715a28.769524 28.769524 0 0 0 40.667429 0z"  horiz-adv-x="1072" />

    
    <glyph glyph-name="wuliu1" unicode="&#59142;" d="M805.842473 191.417843c53.231847 0 96.538598-43.30675 96.538598-96.538597s-43.30675-96.538598-96.538598-96.538598-96.538598 43.30675-96.538597 96.538598 43.30675 96.538598 96.538597 96.538597m0 44.821058c-78.071349 0-141.359655-63.289522-141.359655-141.359655s63.289522-141.359655 141.359655-141.359656 141.359655 63.289522 141.359656 141.359656-63.288306 141.359655-141.359656 141.359655zM352.643809 191.417843c53.231847 0 96.538598-43.30675 96.538597-96.538597s-43.30675-96.538598-96.538597-96.538598-96.538598 43.30675-96.538598 96.538598 43.30675 96.538598 96.538598 96.538597m0 44.821058c-78.071349 0-141.359655-63.289522-141.359655-141.359655s63.289522-141.359655 141.359655-141.359656 141.359655 63.289522 141.359655 141.359656-63.288306 141.359655-141.359655 141.359655zM188.873625 94.879246c0 2.849816 0.074195 5.682605 0.218936 8.497148h-61.523439c-20.91325 0-37.927007 17.013757-37.927007 37.92579V348.846182c0 48.372685 18.838224 93.850551 53.042103 128.05443 34.205096 34.205096 79.681745 53.042103 128.05443 53.042103h146.34288v44.821057H270.738648c-124.771607 0-225.91759-101.1472-225.917591-225.91759v-207.543998c0-45.70045 37.047614-82.746848 82.746849-82.746848h65.371846a163.726397 163.726397 0 0 0-4.066127 36.32391zM991.5768 791.267116H473.070753c-45.70045 0-82.746848-37.047614-82.746848-82.746849v-178.576336h44.821057V708.520267c0 20.91325 17.013757 37.927007 37.927007 37.927008H991.5768c20.91325 0 37.927007-17.013757 37.927007-37.927008v-567.218083c0-20.912034-17.013757-37.925791-37.927007-37.92579h-22.102802c0.144741-2.814543 0.218936-5.647332 0.218936-8.497148a163.654634 163.654634 0 0 0-4.067344-36.32391h25.949994c45.70045 0 82.746848 37.047614 82.746848 82.746848V708.520267c0.001216 45.70045-37.046398 82.746848-82.745632 82.746849zM190.417123 303.697937h244.726623V476.648835h-44.821058v-128.129841H190.417123zM489.62961 103.376394h185.309833v-44.821058H489.62961z"  horiz-adv-x="1119" />

    
    <glyph glyph-name="expediting" unicode="&#58915;" d="M922.282667 561.493333h-64.284445v28.444445 192.170666c0 29.923556-16.839111 47.900444-46.535111 47.900445H111.388444A43.576889 43.576889 0 0 1 63.715556 782.222222v-798.151111c0-29.923556 22.755556-49.038222 56.888888-49.152h278.755556v-59.505778c-8.647111 0-17.180444-1.706667-25.713778-1.706666H63.260444c-42.552889 0-62.008889 18.887111-62.008888 60.984889V831.374222C0.682667 873.244444 20.252444 893.155556 62.350222 893.155556H863.573333c34.133333 0 57.571556-17.180444 58.026667-48.583112 1.706667-93.411556 0.682667-187.050667 0.682667-283.079111z m0 0M229.831111 649.557333h495.729778v-56.547555H229.831111zM230.855111 422.570667h232.789333v-58.140445h-204.8c-31.516444 0-31.516444 22.755556-28.216888 58.140445z m0 0M366.136889 114.46044400000005H233.130667c-8.988444 35.043556-7.168 60.416 26.055111 60.529778h79.644444c32.654222 0 32.654222-22.755556 27.648-60.529778z m0 0M769.251556 14.449778000000038V68.835556c47.672889 0 75.093333 27.192889 75.093333 74.752s-27.420444 74.638222-75.093333 74.638222v54.385778a129.137778 129.137778 0 1 0 0-258.161778z m-43.235556 367.729778h-4.437333a91.818667 91.818667 0 0 1-71.338667-26.055112l-67.015111-66.673777H509.724444a43.121778 43.121778 0 0 1-43.235555-43.008V31.28888900000004a43.008 43.008 0 0 1 12.629333-30.492445 43.463111 43.463111 0 0 1 30.606222-12.629333H591.644444l58.368-58.026667a87.04 87.04 0 0 1 71.111112-22.755555 21.959111 21.959111 0 0 1 5.461333 0 21.504 21.504 0 0 1 15.246222 6.371555 21.162667 21.162667 0 0 1 5.802667 15.132445V361.24444400000004a21.504 21.504 0 0 1-6.371556 15.246223 21.959111 21.959111 0 0 1-15.246222 6.257777z m-30.492444-415.857778a39.367111 39.367111 0 0 0-22.755556 10.808889l-63.488 63.146666h-12.515556v1.137778h-78.165333V236.99911099999997h26.510222l-1.137777-1.251555h55.637333l73.500444 73.159111a38.684444 38.684444 0 0 0 22.755556 10.581333zM959.146667 160.76800000000003h43.235555a21.504 21.504 0 1 0 0-43.008h-43.235555a21.504 21.504 0 1 0 0 43.008z m-85.219556 161.336889l31.175111 30.606222a21.617778 21.617778 0 0 0 30.492445-30.378667l-30.492445-30.492444A21.731556 21.731556 0 0 0 876.088889 292.97777799999994a21.276444 21.276444 0 0 0-1.137778 29.127111z m38.229333-326.769778l30.492445-30.378667a21.617778 21.617778 0 1 0-30.492445-30.378666l-30.492444 30.378666a21.617778 21.617778 0 1 0 30.492444 30.378667z m0 0"  horiz-adv-x="1024" />

    
    <glyph glyph-name="tool" unicode="&#58881;" d="M845.587692-32.68923099999995H178.412308a111.064615 111.064615 0 0 0-111.064616 111.064616V578.56a111.064615 111.064615 0 0 0 111.064616 111.064615h166.990769V745.156923a55.532308 55.532308 0 0 0 55.532308 55.532308h222.12923a55.532308 55.532308 0 0 0 55.532308-55.532308v-55.532308h166.990769a111.064615 111.064615 0 0 0 111.064616-111.064615v-500.184615a110.670769 110.670769 0 0 0-111.064616-111.064616zM623.064615 690.018462v27.963076a27.569231 27.569231 0 0 1-27.963077 27.963077h-166.596923a27.569231 27.569231 0 0 1-27.963077-27.963077v-27.963076z m278.055385-111.458462a55.532308 55.532308 0 0 1-55.532308 55.532308H178.412308a55.532308 55.532308 0 0 1-55.532308-55.532308v-139.027692h778.24z m-444.652308-222.523077a55.532308 55.532308 0 0 1 111.064616 0 57.501538 57.501538 0 0 1-7.483077 28.356923h-95.704616a51.2 51.2 0 0 1-7.876923-27.569231zM901.12 384h-281.993846a111.064615 111.064615 0 1 0-214.252308-58.683077 106.338462 106.338462 0 0 0 0 58.683077H122.88v-306.018462a55.532308 55.532308 0 0 1 55.532308-55.532307h667.175384a55.532308 55.532308 0 0 1 55.532308 55.532307z m0 0"  horiz-adv-x="1024" />

    
    <glyph glyph-name="setting" unicode="&#58882;" d="M659.692308-81.13230799999997a62.227692 62.227692 0 0 0-46.473846 20.086154 185.107692 185.107692 0 0 1-103.975385 60.258462 182.744615 182.744615 0 0 1-102.793846-59.47077 62.621538 62.621538 0 0 0-46.08-19.298461 60.652308 60.652308 0 0 0-24.024616 4.726154l-122.092307 68.135384a58.289231 58.289231 0 0 0-19.298462 70.104616 149.267692 149.267692 0 0 1 11.027692 49.230769A128.393846 128.393846 0 0 1 78.769231 241.42769199999998h-7.089231c-20.086154 0-36.627692 17.723077-41.747692 45.686154A630.153846 630.153846 0 0 0 19.692308 384a630.153846 630.153846 0 0 0 10.24 96.492308c5.12 28.356923 22.055385 46.473846 42.535384 45.686154H78.769231a128.393846 128.393846 0 0 1 126.030769 127.606153 149.267692 149.267692 0 0 1-11.027692 49.23077 57.895385 57.895385 0 0 0 19.692307 70.104615l128.787693 70.892308a57.107692 57.107692 0 0 0 23.236923 4.726154 64.196923 64.196923 0 0 0 46.473846-19.298462 182.350769 182.350769 0 0 1 101.612308-56.713846 179.2 179.2 0 0 1 101.612307 56.32 65.772308 65.772308 0 0 0 46.08 18.510769 57.501538 57.501538 0 0 0 23.63077-4.726154l124.455384-68.923077a57.895385 57.895385 0 0 0 19.692308-70.104615 149.267692 149.267692 0 0 1-11.027692-49.230769 128.393846 128.393846 0 0 1 129.181538-128.787693h4.332308c20.48 0 37.415385-17.329231 42.535384-45.686153A630.153846 630.153846 0 0 0 1004.307692 384a630.153846 630.153846 0 0 0-10.24-96.492308c-5.12-28.356923-22.055385-46.08-42.535384-45.686154h-4.332308a128.393846 128.393846 0 0 1-128-128 149.267692 149.267692 0 0 1 11.027692-49.230769 57.895385 57.895385 0 0 0-19.692307-70.104615l-125.243077-69.316923a57.107692 57.107692 0 0 0-23.236923-4.726154z m-3.938462 59.076923a9.452308 9.452308 0 0 1 3.938462 0l118.153846 64.59077a196.923077 196.923077 0 0 0-15.753846 71.68 186.289231 186.289231 0 0 0 176.443077 185.501538A542.72 542.72 0 0 1 945.230769 384a542.72 542.72 0 0 1-9.058461 84.676923 186.289231 186.289231 0 0 0-176.443077 185.501539 196.923077 196.923077 0 0 0 15.753846 71.68L661.661538 789.661538a8.270769 8.270769 0 0 1-4.332307 0 325.710769 325.710769 0 0 0-42.535385-35.84 178.806154 178.806154 0 0 0-99.643077-37.415384 176.836923 176.836923 0 0 0-100.824615 39.384615 302.08 302.08 0 0 0-42.535385 36.627693 11.815385 11.815385 0 0 1-4.726154 0l-118.153846-65.378462a200.073846 200.073846 0 0 0 15.753846-71.68 186.289231 186.289231 0 0 0-178.018461-187.076923A542.72 542.72 0 0 1 78.769231 384a542.72 542.72 0 0 1 9.058461-84.676923 186.289231 186.289231 0 0 0 176.443077-185.501539 202.830769 202.830769 0 0 0-15.753846-72.073846l112.64-63.015384a6.301538 6.301538 0 0 1 3.544615 0 367.458462 367.458462 0 0 0 43.323077 39.384615 177.624615 177.624615 0 0 0 102.006154 39.384615 174.867692 174.867692 0 0 0 103.187693-39.384615 310.744615 310.744615 0 0 0 43.323076-39.384615z m0 0M512 213.85846200000003A170.535385 170.535385 0 1 0 680.566154 384 170.929231 170.929231 0 0 0 512 213.85846200000003z m0 282.781538A112.64 112.64 0 1 1 622.276923 384a112.64 112.64 0 0 1-110.276923 112.64z m0 0"  horiz-adv-x="1024" />

    
    <glyph glyph-name="dataScreening" unicode="&#58883;" d="M455.68 322.953846l3.150769 512h29.538462a474.978462 474.978462 0 0 0 472.615384-474.584615v-28.750769zM517.513846 777.846154l-2.363077-393.846154 387.544616 7.876923A416.295385 416.295385 0 0 1 517.513846 777.846154zM472.615385-68.52923099999998a411.175385 411.175385 0 0 0 0 822.350769h44.898461L515.150769 384l366.276923 7.483077v-48.049231A411.569231 411.569231 0 0 0 472.615385-68.52923099999998z m-14.572308 763.273846a352.098462 352.098462 0 1 1 366.276923-364.307692l-368.64-7.483077z"  horiz-adv-x="1024" />

    
    <glyph glyph-name="marketing" unicode="&#58884;" d="M241.033846 564.381538V-49.23076900000001H177.230769V564.381538h63.803077m24.418462 59.076924H153.206154A34.658462 34.658462 0 0 1 118.153846 588.8v-662.055385a35.052308 35.052308 0 0 1 35.052308-35.052307h112.246154a34.658462 34.658462 0 0 1 34.658461 35.052307V588.8a34.264615 34.264615 0 0 1-34.658461 34.658462zM543.901538 800.6892310000001V-49.23076900000001h-63.803076V800.6892310000001h63.803076m24.418462 59.076923h-112.64a34.264615 34.264615 0 0 1-34.658462-34.658462v-898.363077a34.658462 34.658462 0 0 1 34.658462-35.052307h112.64a34.658462 34.658462 0 0 1 34.658462 35.052307V825.107692a34.264615 34.264615 0 0 1-34.658462 34.658462zM846.769231 328.073846V-49.23076900000001h-64.196923v377.304615h64.196923m24.024615 59.076923h-112.246154a34.658462 34.658462 0 0 1-35.052307-34.658461v-425.747693a35.052308 35.052308 0 0 1 35.052307-35.052307h112.246154a35.052308 35.052308 0 0 1 35.052308 35.052307V352.492308a34.658462 34.658462 0 0 1-35.052308 34.658461z"  horiz-adv-x="1024" />

    
    <glyph glyph-name="loyalty" unicode="&#58885;" d="M787.692308 57.50153799999998H185.107692A53.956923 53.956923 0 0 0 127.606154 108.30769199999997c-3.150769 20.086154-17.329231 114.215385-33.476923 217.796923-20.48 131.150769-42.929231 275.692308-47.261539 307.2a70.892308 70.892308 0 0 0 0 28.75077 52.775385 52.775385 0 0 0 81.526154 29.932307l42.929231-29.144615 113.033846-78.769231L472.615385 797.932308A56.713846 56.713846 0 0 0 512 817.230769a57.501538 57.501538 0 0 0 42.535385-19.298461l185.895384-212.676923 155.569231 105.944615A53.956923 53.956923 0 0 0 945.230769 699.076923a55.138462 55.138462 0 0 0 37.021539-61.046154l-83.889231-532.086154a53.169231 53.169231 0 0 0-55.532308-48.443077zM180.381538 108.30769199999997h665.993847a15.753846 15.753846 0 0 1 0 4.726154L929.476923 646.695385a3.544615 3.544615 0 0 1 0 3.938461h-2.756923L769.575385 541.538462l-36.627693-24.418462-14.572307 16.935385-200.861539 229.218461A4.726154 4.726154 0 0 1 512 766.030769a4.726154 4.726154 0 0 1-3.938462-1.969231L307.987692 534.449231l-14.966154-16.935385L142.178462 620.307692l-42.535385 29.538462v-9.846154c4.726154-29.932308 27.175385-175.655385 47.261538-306.412308 16.147692-103.975385 30.72-196.923077 33.476923-218.584615a22.449231 22.449231 0 0 1 2.363077-6.695385z m0 0M877.489231 25.993845999999962v-2.363077c0-9.058462-2.756923-17.723077-3.938462-26.781538a27.963077 27.963077 0 0 0-30.326154-26.781539H185.107692a28.750769 28.750769 0 0 0-31.901538 28.75077l-4.332308 27.175384z m0 0M512 319.409231a51.593846 51.593846 0 1 0 0-102.793846 51.593846 51.593846 0 0 0 0 102.793846z m0 0"  horiz-adv-x="1024" />

    
    <glyph glyph-name="insight" unicode="&#58886;" d="M584.861538 366.67076899999995a291.446154 291.446154 0 0 1 57.107693 180.775385c0 155.175385-114.215385 282.387692-256.787693 282.387692S128.393846 702.621538 128.393846 547.446154a324.135385 324.135385 0 0 1 57.107692-180.775385 168.566154 168.566154 0 0 1-114.215384-157.538461v-113.033846a170.929231 170.929231 0 0 1 171.323077-169.353847h285.144615a170.929231 170.929231 0 0 1 171.323077 169.353847v112.246153a168.566154 168.566154 0 0 1-114.215385 157.538462zM185.501538 547.446154C185.501538 671.507692 275.692308 773.12 385.181538 773.12s199.68-101.612308 199.68-225.673846-88.221538-226.067692-199.68-226.067692S185.501538 423.384615 185.501538 547.446154zM641.969231 108.30769199999997a133.907692 133.907692 0 0 0-139.815385-127.212307H268.209231A133.907692 133.907692 0 0 0 128.393846 108.30769199999997v85.858462A132.332308 132.332308 0 0 0 236.307692 318.621538 239.458462 239.458462 0 0 1 385.181538 265.84615399999996a233.550769 233.550769 0 0 1 148.48 53.956923 129.969231 129.969231 0 0 0 108.307693-124.455385z m0 0M682.929231 615.581538l272.147692 0 0-48.04923-272.147692 0 0 48.04923ZM682.929231 457.649231l272.147692 0 0-48.049231-272.147692 0 0 48.049231ZM761.698462 300.110769l193.378461 0 0-48.049231-193.378461 0 0 48.049231ZM761.698462 142.57230800000002l193.378461 0 0-48.049231-193.378461 0 0 48.049231Z"  horiz-adv-x="1024" />

    
    <glyph glyph-name="service" unicode="&#58887;" d="M508.455385 0.7876919999999927a24.812308 24.812308 0 0 0-15.36 5.12c-10.633846 7.483077-261.12 185.895385-358.006154 305.624616a263.089231 263.089231 0 0 0-43.323077 241.427692 265.846154 265.846154 0 0 0 174.08 180.381538c157.538462 50.412308 259.544615-80.738462 263.876923-86.252307a27.175385 27.175385 0 0 0-4.726154-39.384616 27.175385 27.175385 0 0 0-39.384615 5.12c-3.150769 4.332308-85.070769 106.732308-204.8 68.135385A213.070769 213.070769 0 0 1 143.36 537.6a210.313846 210.313846 0 0 1 33.083077-192.984615c92.553846-114.215385 345.009231-294.203077 347.372308-295.778462a26.781538 26.781538 0 0 0-15.36-48.836923z m0 0M508.455385 0.7876919999999927a27.175385 27.175385 0 0 0-15.36 48.836923c2.363077 0 254.818462 181.563077 347.372307 295.778462a209.526154 209.526154 0 0 1 33.083077 192.590769 212.283077 212.283077 0 0 1-139.027692 144.541539c-118.153846 39.384615-201.255385-63.803077-204.8-68.135385a26.781538 26.781538 0 0 0-42.535385 32.689231c4.332308 5.513846 107.913846 136.664615 263.876923 86.252307a265.058462 265.058462 0 0 0 174.08-180.381538 263.876923 263.876923 0 0 0-42.92923-241.427692c-97.28-118.153846-347.372308-298.141538-358.006154-305.624616a28.750769 28.750769 0 0 0-15.753846-5.12z m0 0"  horiz-adv-x="1024" />

    
    <glyph glyph-name="begin" unicode="&#58889;" d="M782.08 373.76L260.48 668.8a30.08 30.08 0 0 1-27.52 0 24.32 24.32 0 0 1-14.08-21.12v-590.08a23.68 23.68 0 0 1 14.08-21.12 29.44 29.44 0 0 1 12.8-3.2 29.44 29.44 0 0 1 14.72 3.84l521.6 295.68a23.04 23.04 0 0 1 0 40.96z m0 0"  horiz-adv-x="1024" />

    
    <glyph glyph-name="design" unicode="&#58890;" d="M846.08 222.72000000000003L686.72 384l153.6 154.24a57.6 57.6 0 0 1 0 83.2l-90.88 91.52a58.88 58.88 0 0 1-83.2 0L512 558.0799999999999 353.28 718.72a58.88 58.88 0 0 1-83.2 0L177.28 625.28a58.88 58.88 0 0 1 0-83.2L337.28 384 204.8 248.96000000000004a624.64 624.64 0 0 1-37.76-165.76 53.12 53.12 0 0 1 11.52-32 39.04 39.04 0 0 1 32-11.52A558.72 558.72 0 0 1 384 77.44000000000005l128 132.48 159.36-160.64a58.88 58.88 0 0 1 83.2 0l92.8 93.44a55.68 55.68 0 0 1 0 80zM239.36 534.4l68.48 68.48a13.44 13.44 0 0 0 23.04-5.76 15.36 15.36 0 0 0-3.84-12.8L256 512zM209.28 64a14.08 14.08 0 0 0-8.96 3.84 12.8 12.8 0 0 0-3.84 9.6 1056.64 1056.64 0 0 0 28.8 144l128-128a1095.68 1095.68 0 0 0-144-29.44z m169.6 467.2L310.4 463.36l-18.56 18.56 68.48 69.12a12.16 12.16 0 0 0 12.8 3.84 14.72 14.72 0 0 0 10.88-9.6 12.16 12.16 0 0 0-3.84-12.8zM576 196.48000000000002l68.48 69.12a13.44 13.44 0 0 0 18.56-18.56l-67.2-69.12z m146.56-8.96l-68.48-69.12-14.08 18.56 64 69.12a12.16 12.16 0 0 0 12.8 3.84 14.72 14.72 0 0 0 9.6-9.6 15.36 15.36 0 0 0-3.84-12.8z m0 0"  horiz-adv-x="1024" />

    
    <glyph glyph-name="dataAnalysis" unicode="&#58891;" d="M219.52 234.88a64 64 0 0 1 64 67.84 131.84 131.84 0 0 1 0 16.64l147.2 152.96a71.68 71.68 0 0 1 17.28 0h16.64L547.2 384a92.8 92.8 0 0 1 0-17.92 64 64 0 1 1 131.2 0 92.8 92.8 0 0 1 0 17.92l115.84 119.68a64 64 0 0 1 16.64 0 67.84 67.84 0 0 1 0 135.68 64 64 0 0 1-64-67.84 69.76 69.76 0 0 1 0-16.64L627.2 435.84h-16.64a69.76 69.76 0 0 1-16.64 0L512 520.96a92.8 92.8 0 0 1 0 17.92 67.2 67.2 0 0 1-64 67.84 64 64 0 0 1-64-67.84 92.8 92.8 0 0 1 0-17.92L234.88 366.72a69.76 69.76 0 0 1-16.64 0 64 64 0 0 1-64-67.84 68.48 68.48 0 0 1 64-64zM154.24 128h714.88v59.52H154.24z m0 0"  horiz-adv-x="1024" />

    
    <glyph glyph-name="implement" unicode="&#58892;" d="M566.4 704a97.92 97.92 0 1 1 97.92 97.92A98.56 98.56 0 0 1 566.4 704z m0 0M825.6 636.1600000000001a144.64 144.64 0 0 0-212.48-39.68L576 616.3199999999999a244.48 244.48 0 0 1-346.24-74.88c-37.12-52.48 48.64-101.76 85.12-49.92a139.52 139.52 0 0 0 165.12 64c-32-56.32-60.16-111.36-99.84-192s-128-141.44-211.2-92.8a51.2 51.2 0 1 1-54.4-87.04 248.96 248.96 0 0 1 320 64l7.68-3.2a645.12 645.12 0 0 0 151.68-90.24 784.64 784.64 0 0 0 83.84-159.36 49.28 49.28 0 0 1 89.6 41.6 754.56 754.56 0 0 1-103.04 187.52 883.2 883.2 0 0 1-128 85.12c30.72 58.88 64 117.12 95.36 174.08a241.92 241.92 0 0 1 278.4 106.24c37.12 51.84-48.64 101.12-85.12 49.92z m0 0"  horiz-adv-x="1024" />

    
    <glyph glyph-name="revoke" unicode="&#58893;" d="M494.592 574.976V701.44L114.688 448.512l379.904-252.928v126.464a467.456 467.456 0 0 0 446.976-337.408 446.976 446.976 0 0 1 16.384 126.464 460.8 460.8 0 0 1-460.8 463.872z m0 0"  horiz-adv-x="1024" />

    
    <glyph glyph-name="test" unicode="&#58894;" d="M192 217.60000000000002h614.4a51.2 51.2 0 0 1 51.2 51.2v460.8a51.2 51.2 0 0 1-51.2 51.2h-614.4a51.2 51.2 0 0 1-51.2-51.2v-460.8a51.2 51.2 0 0 1 51.2-51.2z m51.2 460.8h512v-358.4h-512zM89.6 102.39999999999998V25.600000000000023c0-20.992 23.04-38.4 51.2-38.4h716.8c28.16 0 51.2 17.408 51.2 38.4v76.8c0 20.992-23.04 38.4-51.2 38.4h-716.8c-28.16 0-51.2-17.408-51.2-38.4z"  horiz-adv-x="1024" />

    
    <glyph glyph-name="sendTest" unicode="&#58895;" d="M773.12 593.9200000000001l-95.232-350.208L614.4 384a102.4 102.4 0 0 1-51.2 51.2L422.912 498.688 773.12 593.9200000000001M921.6 739.84L122.368 522.752l398.336-181.248 181.248-398.336L921.6 739.84z"  horiz-adv-x="1024" />

    
    <glyph glyph-name="comparative" unicode="&#58896;" d="M204.8 76.79999999999995V742.4H102.4v-768h819.2v102.4H204.8zM665.6 640h153.6v-512h-153.6zM460.8 486.4h153.6v-358.4H460.8zM256 332.79999999999995h153.6v-204.8H256z"  horiz-adv-x="1024" />

    
    <glyph glyph-name="return" unicode="&#58897;" d="M547.328 758.2719999999999L173.056 384l374.272-374.272 57.856 57.856L289.28 384l315.904 316.416-57.856 57.856zM870.4 435.2H256v-102.4h614.4V435.2z"  horiz-adv-x="1024" />

    
    <glyph glyph-name="save" unicode="&#58898;" d="M256 691.2h358.4v-204.8h204.8v-102.4h102.4V559.104L683.52 793.6H153.6v-819.2h409.6v102.4H256V691.2zM730.112 133.12l-76.288 47.616-46.592-73.216 147.456-92.672 192.512 280.064-71.68 49.152-145.408-210.944z"  horiz-adv-x="1024" />

    
    <glyph glyph-name="recovery" unicode="&#58899;" d="M578.56 574.976a460.8 460.8 0 0 1-463.872-463.872 448 448 0 0 1 16.896-126.464 466.944 466.944 0 0 0 446.976 337.408v-126.464l379.392 252.928L578.56 701.44v-126.464z m0 0"  horiz-adv-x="1024" />

    
    <glyph glyph-name="enlarge" unicode="&#58900;" d="M890.88 96.25599999999997l-188.928 193.536a276.992 276.992 0 0 1 41.472 142.848 282.112 282.112 0 1 1-153.6-247.296l191.488-196.608zM231.424 438.784A230.4 230.4 0 1 0 460.8 205.82399999999996a230.912 230.912 0 0 0-229.376 232.96zM614.4 486.4v-102.4H307.2V486.4zM512 281.6H409.6V588.8h102.4z"  horiz-adv-x="1024" />

    
    <glyph glyph-name="restore" unicode="&#58901;" d="M890.88 96.25599999999997l-188.928 193.536a276.992 276.992 0 0 1 41.472 142.848 282.112 282.112 0 1 1-153.6-247.296l191.488-196.608zM231.424 438.784A230.4 230.4 0 1 0 460.8 205.82399999999996a230.912 230.912 0 0 0-229.376 232.96z"  horiz-adv-x="1024" />

    
    <glyph glyph-name="batchEditing" unicode="&#58902;" d="M870.4 559.104L632.32 793.6H102.4v-819.2h409.6v102.4H204.8V691.2h358.4v-204.8h204.8v-102.4h-153.6v-102.4h307.2v102.4h-51.2V559.104zM614.4 230.39999999999998h307.2v-102.4h-307.2zM614.4 76.79999999999995h307.2v-102.4h-307.2z"  horiz-adv-x="1024" />

    
    <glyph glyph-name="delete" unicode="&#58904;" d="M614.4 76.79999999999995H256V691.2h358.4v-204.8h204.8v-153.6h102.4V559.104L683.52 793.6H153.6v-819.2h460.8v102.4zM899.072 265.72799999999995L819.2 185.856l-79.872 79.872-57.856-57.856L761.344 128l-79.872-79.872 57.856-57.856L819.2 70.144l79.872-79.872 57.856 57.856L877.056 128l79.872 79.872-57.856 57.856z"  horiz-adv-x="1024" />

    
    <glyph glyph-name="fullScreen" unicode="&#58905;" d="M153.6 563.2V742.4h179.2L153.6 563.2zM870.4 204.79999999999995V25.600000000000023h-179.2l179.2 179.2zM173.2608 672.2048l50.688 50.688L850.944 95.74400000000003l-50.688-50.688zM691.2 742.4H870.4v-179.2L691.2 742.4zM332.8 25.600000000000023H153.6v179.2L332.8 25.600000000000023zM173.2608 95.79520000000002L800.256 722.944l50.688-50.688L223.9488 45.05600000000004z"  horiz-adv-x="1024" />

    
    <glyph glyph-name="narrow" unicode="&#58906;" d="M890.88 96.25599999999997l-188.928 193.536a276.992 276.992 0 0 1 41.472 142.848 282.112 282.112 0 1 1-153.6-247.296l191.488-196.608zM231.424 438.784A230.4 230.4 0 1 0 460.8 205.82399999999996a230.912 230.912 0 0 0-229.376 232.96zM614.4 486.4v-102.4H307.2V486.4z"  horiz-adv-x="1024" />

    
    <glyph glyph-name="show" unicode="&#58907;" d="M870.4 742.4H153.6a51.2 51.2 0 0 1-51.2-51.2v-665.6a51.2 51.2 0 0 1 51.2-51.2h716.8a51.2 51.2 0 0 1 51.2 51.2V691.2a51.2 51.2 0 0 1-51.2 51.2z m-51.2-102.4v-368.64l-186.368 148.992L409.6 230.39999999999998l-102.4 102.4-102.4-102.4V640z"  horiz-adv-x="1024" />

    
    <glyph glyph-name="arrange" unicode="&#58908;" d="M870.4-25.600000000000023H153.6a51.2 51.2 0 0 0-51.2 51.2V691.2a51.2 51.2 0 0 0 51.2 51.2h716.8a51.2 51.2 0 0 0 51.2-51.2v-665.6a51.2 51.2 0 0 0-51.2-51.2zM204.8 76.79999999999995h614.4V640H204.8zM716.8 230.39999999999998l-51.2-102.4H358.4l-51.2 102.4H153.6v-153.6h665.6v153.6h-102.4zM307.2 332.79999999999995h409.6v-51.2H307.2zM307.2 435.2h409.6v-51.2H307.2zM307.2 537.6h409.6v-51.2H307.2z"  horiz-adv-x="1024" />

    
    <glyph glyph-name="duanxin" unicode="&#58920;" d="M874.667 832c0 36.267-27.734 64-64 64H213.333c-36.266 0-64-27.733-64-64v-896c0-36.267 27.734-64 64-64h597.334c36.266 0 64 27.733 64 64V832zM571.733-21.333h-128c-12.8 0-21.333 8.533-21.333 21.333s8.533 21.333 21.333 21.333h128c12.8 0 21.334-8.533 21.334-21.333s-8.534-21.333-21.334-21.333zM832 128H192V836.267c0 12.8 6.4 17.066 17.067 17.066H806.4c12.8 0 25.6-4.266 25.6-17.066V128z"  horiz-adv-x="1024" />

    
    <glyph glyph-name="chaoxin" unicode="&#58922;" d="M553.710009 145.066995h402.091992a45.374999 45.374999 0 0 1 45.441999 45.350999V759.625983a45.510999 45.510999 0 0 1-45.441999 45.351999H136.465017a45.374999 45.374999 0 0 1-45.442999-45.351999v-569.207989a45.510999 45.510999 0 0 1 45.442999-45.350999h159.356997v-136.533998l257.888995 136.533998z m22.301-91.022999L284.400014-106.837c-43.963999-24.258-79.598998-3.209-79.598998 47.012999V54.043996h-68.129999A136.692997 136.692997 0 0 0 0.00002 190.713994V759.329983A136.601997 136.601997 0 0 0 136.670017 895.99998h818.926984a136.692997 136.692997 0 0 0 136.669998-136.669997v-568.615989a136.601997 136.601997 0 0 0-136.669998-136.669998H576.010009zM295.822014 395.37799a68.266999 68.266999 0 1 0 0 136.532997 68.266999 68.266999 0 0 0 0-136.532997z m250.310995 0a68.266999 68.266999 0 1 0 0 136.532997 68.266999 68.266999 0 0 0 0-136.532997z m250.310995 0a68.266999 68.266999 0 1 0 0 136.532997 68.266999 68.266999 0 0 0 0-136.532997z"  horiz-adv-x="1092" />

    
    <glyph glyph-name="caixin" unicode="&#58923;" d="M585.14 713.144c-219.427 0-402.284-117.394-402.284-256a18.286 18.286 0 0 1 36.572 0c0 117.029 170.787 219.428 365.712 219.428a18.286 18.286 0 0 1 0 36.572zM585.14 896C261.85 896 0 699.612 0 457.145c0-151.04 101.668-284.159 255.999-363.153v-2.56c0-65.462-49.006-136.045-70.583-173.347a32.914 32.914 0 0 1 30.72-46.08 92.891 92.891 0 0 0 9.143 0c114.102 18.651 221.987 123.61 246.856 154.33a777.14 777.14 0 0 1 113.005-8.045c323.29 0 585.14 196.387 585.14 438.855S908.43 896 585.14 896z m0-804.568a706.922 706.922 0 0 0-102.4 7.68h-10.605a73.143 73.143 0 0 1-56.685-26.697 491.518 491.518 0 0 0-112.64-90.696 285.987 285.987 0 0 1 26.331 105.69v6.583a73.143 73.143 0 0 1-39.862 65.097C153.965 228.575 73.143 339.751 73.143 457.145c0 201.508 229.667 365.712 511.997 365.712s511.998-164.204 511.998-365.712S867.47 91.432 585.14 91.432z"  horiz-adv-x="1170" />

    
    <glyph glyph-name="youjian" unicode="&#58918;" d="M784 752H240c-88 0-160-72-160-160v-416c0-88 72-160 160-160h544c88 0 160 72 160 160V592c0 88-72 160-160 160z m-544-64h544c35.2 0 65.6-19.2 81.6-46.4L552 387.2c-24-19.2-57.6-19.2-80 0L158.4 641.6c16 27.2 46.4 46.4 81.6 46.4z m544-608H240c-52.8 0-96 43.2-96 96V569.6L432 336c24-19.2 51.2-28.8 80-28.8 28.8 0 57.6 9.6 80 28.8l288 233.6V176c0-52.8-43.2-96-96-96z"  horiz-adv-x="1024" />

    
    <glyph glyph-name="zanwushuju" unicode="&#58903;" d="M294.773933-117.644944H119.428315a11.505618 11.505618 0 1 0 0 23.931686h175.230561a11.505618 11.505618 0 0 0 0-23.931686z m418.574382 0H370.826067a11.505618 11.505618 0 0 0 0 23.931686H713.348315a12.311011 12.311011 0 0 0 11.505618-11.505618 12.426067 12.426067 0 0 0-11.505618-11.505618z m199.047191 0h-103.550562a11.505618 11.505618 0 0 0 0 23.931686h103.550562a11.505618 11.505618 0 0 0 0-23.931686z m0 0M256.115056 90.606742h-80.539326A42.800899 42.800899 0 0 0 132.314607 133.40764V724.451236a42.800899 42.800899 0 0 0 43.031011 42.915955h454.356854a11.505618 11.505618 0 0 0 0-23.931685H175.000449A19.444494 19.444494 0 0 1 155.325843 724.33618v-591.043596A19.444494 19.444494 0 0 1 175.000449 113.617978h81.114607m462.065618-23.011236M835.192809-34.689438H301.677303a60.059326 60.059326 0 0 0-59.714157 59.714157v425.707865l-74.09618 48.323596 73.290787 48.553708v56.60764a60.059326 60.059326 0 0 0 59.714157 59.714157H834.157303a60.059326 60.059326 0 0 0 59.714158-59.714157v-578.272359a59.02382 59.02382 0 0 0-58.908764-60.634607zM211.588315 499.05618l54.19146-34.516854v-438.594157a35.667416 35.667416 0 0 1 35.897528-35.897529h533.515506a35.667416 35.667416 0 0 1 35.897528 35.897529V604.102472a35.667416 35.667416 0 0 1-35.897528 35.897528H301.677303a35.667416 35.667416 0 0 1-35.897528-35.897528v-69.033708z m0 0M645.695281 492.613034H374.853034a15.992809 15.992809 0 0 0 0 31.870562h270.842247a15.992809 15.992809 0 0 0 0-31.870562z m0 15.992809z m0-95.611686H374.853034a15.992809 15.992809 0 0 0 0 31.870562h270.842247a15.992809 15.992809 0 0 0 0-31.870562z m0 15.877753z m-46.022472-382.216629H373.242247a15.992809 15.992809 0 0 0 0 31.755506h225.28a15.187416 15.187416 0 0 0 14.382023-15.877753 14.382022 14.382022 0 0 0-13.461573-15.877753z m-224.819775 15.877753zM685.504719 894.849438a12.195955 12.195955 0 0 1-11.505618-11.505618v-80.079101a11.505618 11.505618 0 1 1 23.931686 0V882.883596a12.311011 12.311011 0 0 1-11.505618 11.505617zM790.666067 861.483146a12.311011 12.311011 0 0 1-16.683146-2.301124l-47.057977-64.661573a12.426067 12.426067 0 0 1 2.301123-16.683146 13.001348 13.001348 0 0 1 7.24854-2.416179 11.505618 11.505618 0 0 1 9.434606 4.832359l47.057978 64.546517a10.815281 10.815281 0 0 1-2.301124 16.683146z m105.966742-69.033708a11.505618 11.505618 0 0 1-15.877753 5.522697l-72.485393-33.481348a11.505618 11.505618 0 0 1-5.637753-15.877753 13.231461 13.231461 0 0 1 15.992809-6.443146L891.685393 775.421124A14.612135 14.612135 0 0 1 896.632809 792.449438z m-258.876405-707.595505v-38.198652h38.198652L788.134831 158.950112l-38.198651 38.198652z m179.947866 103.550561a10.124944 10.124944 0 0 1 0 14.382023l-23.931686 23.931685a9.894831 9.894831 0 0 1-14.266966 0l-18.293933-18.293932L799.640449 170.110562z m0 0"  horiz-adv-x="1024" />

    
    <glyph glyph-name="qitashezhi" unicode="&#58938;" d="M577.261 799.762v-22.318c0-41.068 26.931-83.328 64.566-101.956l63.992-35.88c18.339-11.752 41.231-18.13 64.826-18.13 21.032 0 41.099 5.065 57.96 14.502l19.748 11.128 65.658-110.833-19.75-11.188c-38.85-21.82-62.32-69.014-55.911-111.899 0-0.124 1.54-11.253 1.54-29.505 0-18.131-1.54-29.193-1.54-29.193-6.41-43.197 17.06-90.457 55.911-112.332l19.75-11.131-65.658-110.832-19.748 11.067c-16.925 9.499-36.928 14.563-57.96 14.563-23.595 0-46.487-6.375-64.89-18.07l-63.928-35.878c-37.635-18.628-64.566-60.885-64.566-101.956v-22.318H445.948V-10.08c0 41.07-26.995 83.328-64.63 101.956l-63.864 35.879c-18.4 11.694-41.291 18.07-64.887 18.07-21.03 0-41.096-5.065-57.962-14.502l-19.75-11.13L109.2 231.026l19.749 11.13c38.726 21.876 62.258 69.136 55.846 111.956 0 0.128-1.476 11.255-1.476 29.57 0 18.065 1.413 29.132 1.413 29.132 6.475 43.258-17.057 90.517-55.847 112.394l-19.686 11.066 65.657 110.833 19.622-11.062c16.926-9.503 36.928-14.568 57.962-14.568 23.66 0 46.549 6.377 64.89 18.13l63.989 35.88c37.635 18.629 64.63 60.888 64.63 101.956V799.762H577.26m-65.656-608.114c108.617 0 196.971 86.142 196.971 192.035 0 105.892-88.354 192.034-196.971 192.034s-196.972-86.143-196.972-192.034c0-105.893 88.356-192.035 196.972-192.035m98.488 672.127H413.12c-18.08 0-32.83-14.382-32.83-32.005v-54.325c0-17.567-13.463-38.072-29.877-45.444l-67.84-38.072c-8.077-5.565-19.107-8.44-30.134-8.44-8.978 0-17.952 2.001-25.072 6.002l-48.149 27.13a33.337 33.337 0 0 1-16.288 4.253c-11.413 0-22.506-5.751-28.596-16.006L35.85 540.59c-8.977-15.256-3.592-34.947 12.054-43.761l48.15-27.13c15.646-8.752 26.355-30.257 23.724-47.631 0 0-2.113-14.44-2.113-38.385 0-24.005 2.113-38.381 2.113-38.381 2.63-17.441-8.079-38.884-23.724-47.695l-48.15-27.067c-15.647-8.88-21.03-28.507-12.054-43.763l98.55-166.278c6.088-10.253 17.119-16.006 28.531-16.006 5.515 0 11.16 1.38 16.288 4.254l48.217 27.13c7.053 3.997 16.027 5.94 25.133 5.94 10.9 0 22.058-2.816 30.138-8.442l67.71-38.009c16.414-7.375 29.876-27.878 29.876-45.443v-54.321c0-17.63 14.75-32.009 32.831-32.009h196.972c18.018 0 32.827 14.38 32.827 32.009v54.321c0 17.565 13.337 38.068 29.75 45.443l67.84 38.009c8.079 5.626 19.168 8.443 30.135 8.443 9.038 0 18.015-1.943 25.134-5.941l48.152-27.13a33.398 33.398 0 0 1 16.35-4.254c11.35 0 22.443 5.753 28.468 16.006l98.487 166.278c9.107 15.255 3.655 34.884-11.989 43.763l-48.153 27.067c-15.646 8.811-26.29 30.254-23.724 47.695 0 0 2.183 14.376 2.183 38.38 0 23.945-2.183 38.386-2.183 38.386-2.566 17.374 8.078 38.818 23.724 47.63l48.217 27.131c15.646 8.814 21.032 28.505 11.99 43.76l-98.552 166.279c-6.025 10.255-17.118 16.006-28.467 16.006-5.578 0-11.22-1.378-16.35-4.316l-48.153-27.067c-7.052-4-16.028-6.001-25.134-6.001-10.902 0-22.057 2.875-30.135 8.44L672.673 732c-16.413 7.372-29.75 27.877-29.75 45.444V831.77c-0.003 17.623-14.812 32.006-32.83 32.006z m-98.488-608.113c-72.58 0-131.315 57.324-131.315 128.022s58.736 128.023 131.315 128.023c72.456 0 131.315-57.326 131.315-128.023s-58.86-128.022-131.315-128.022z"  horiz-adv-x="1025" />

    
    <glyph glyph-name="yuyinshezhi" unicode="&#58945;" d="M512.542 180.623c120.34 0 218.246 97.906 218.246 218.246V673.607c0 120.333-97.906 218.239-218.246 218.239s-218.253-97.9-218.253-218.239V398.87c0-120.34 97.913-218.246 218.253-218.246zM380.989 673.607c0 72.532 59.014 131.539 131.553 131.539s131.546-59.007 131.546-131.539V398.87c0-72.539-59.007-131.546-131.546-131.546S380.989 326.33 380.989 398.87V673.607zM843.071-38.526H555.885v64.881c185.805 21.567 330.53 179.794 330.53 371.286a43.35 43.35 0 0 1-86.7 0c0-158.35-128.83-287.18-287.188-287.18-158.35 0-287.172 128.83-287.172 287.18a43.35 43.35 0 0 1-86.7 0c0-191.492 144.731-349.727 330.53-371.286v-64.88H182.012a43.35 43.35 0 0 1 0-86.7h661.06a43.35 43.35 0 0 1 0 86.7z"  horiz-adv-x="1024" />

    
    <glyph glyph-name="fuwu" unicode="&#59143;" d="M949.8 365.29999999999995c0 61.5-29.5 111.3-69.6 122.3C861.6 585.4 819.9 669 759 730 692.4 796.7 607 831.9 512.1 831.9c-46.8 0-91.2-7.3-131.9-21.6-42-14.8-80.1-37.2-113.3-66.6-34.2-30.3-63.2-68.1-86.3-112.4-22.6-43.3-39.7-93.4-50.8-148.8-33.4-17.2-56.6-62.6-56.6-117.2 0-69.9 38-124.6 86.6-124.6s86.6 54.7 86.6 124.6c0 63.8-31.7 115-74.3 123.4 21.8 97.4 62.6 173 121.5 225.1 29.3 25.9 62.9 45.7 100.1 58.8C430.1 785.4 470 792 512.2 792c84.1 0 159.7-31.2 218.6-90.2 54.1-54.2 91.7-128.7 109.2-216.3-36.8-14.4-63.2-62-63.2-120.1 0-63 30.9-113.6 72.5-123-20.5-61.3-53.8-109.3-101.1-146-38.5-29.9-85.1-51.8-145.4-68-6.5 25-29.2 43.4-56.2 43.4H413.5c-32 0-58-26-58-58v-19c0-15.6 6.1-30.3 17.2-41.2 11-10.8 25.5-16.7 40.9-16.5h133.6c15.2 0 29.4 5.8 40.3 16.5 9.3 9.2 15.1 21 16.7 33.8 69.9 17.8 123.8 42.6 168.5 77.4 29.9 23.3 55.4 51.2 75.7 83 18.8 29.5 33.7 63.2 44.4 100.2 33.6 16.9 57 62.4 57 117.3z m-743.5 0c0-49.8-24.5-84.6-46.6-84.6-27.4 0-46.6 44.6-46.6 84.6 0 49.8 24.5 84.6 46.6 84.6 27.5 0 46.6-44.6 46.6-84.6z m358.4-370.6c0-4.8-1.9-9.4-5.3-12.7-3.3-3.3-7.8-5.1-12.4-5H413.4c-4.7-0.1-9.1 1.7-12.4 5-3.4 3.4-5.3 7.9-5.3 12.7v19c0 9.9 8.1 18 18 18h133.1c9.9 0 18-8.1 18-18v-19z m298.6 286c-27.4 0-46.6 44.6-46.6 84.6 0 49.8 24.5 84.6 46.6 84.6 27.4 0 46.6-44.6 46.6-84.6-0.1-49.9-24.6-84.6-46.6-84.6z"  horiz-adv-x="1024" />

    
    <glyph glyph-name="fenxiang" unicode="&#58948;" d="M819.227 236.567c-61.894 0-115.062-34.976-142.546-85.863L315.976 333.578c9.005 20.207 14.244 42.45 14.244 66 0 25.024-6.115 48.448-16.213 69.627l376.646 155.22c29.757-38.264 75.714-63.316 127.939-63.316 89.82 0 162.634 72.812 162.634 162.634 0 89.82-72.816 162.634-162.634 162.634-89.822 0-162.634-72.815-162.634-162.634 0-8.44 1.243-16.547 2.484-24.64l-399.81-164.764c-25.982 17.588-57.309 27.873-91.046 27.873-89.822 0-162.635-72.815-162.635-162.634 0-89.821 72.813-162.634 162.635-162.634 36.065 0 69.07 12.123 96.04 31.991L657.044 69.48c2.414-87.71 73.889-158.18 162.185-158.18 89.82 0 162.634 72.812 162.634 162.634 0 89.818-72.816 162.634-162.635 162.634z"  horiz-adv-x="1024" />

    
    <glyph glyph-name="zhihang" unicode="&#58949;" d="M512 827.809C266.795 827.809 68.191 629.205 68.191 384S266.795-59.809 512-59.809 955.809 138.795 955.809 384 757.204 827.809 512 827.809z m-88.762-643.523V583.715L689.523 384 423.238 184.286z"  horiz-adv-x="1024" />

    
    <glyph glyph-name="shangsheng" unicode="&#58950;" d="M342.272-42.65h117.504c15.667 0 28.416 13.62 28.416 30.31v270.9l-79.36 46.49-94.976-60.007v-257.382c0-16.691 12.8-30.31 28.416-30.31zM0 254.31l384.051 242.74 22.323 14.182 22.733-13.363 115.2-67.584 308.173 281.6-43.776 53.555 107.674 22.58L1024 810.65 988.518 699.7l-35.532-110.9-40.807 49.92-332.697-304.18-23.91-21.81-27.495 16.076-120.064 70.503-361.626-228.71L0 254.31z m97.229-296.96h117.504c15.616 0 28.416 13.62 28.416 30.31V200.295L68.864 90.112v-102.451c0-16.691 12.8-30.31 28.365-30.31z m490.035 0h117.504c15.616 0 28.416 13.62 28.416 30.31V368.334c0 1.536-0.102 3.174-0.358 4.608L560.998 215.859l-2.099 1.229v-229.376c-0.051-16.742 12.749-30.362 28.365-30.362z m245.043 0H949.76c15.667 0 28.467 13.62 28.467 30.31V446.926l-70.451 86.016-103.885-95.027V-12.34c0-16.691 12.8-30.31 28.416-30.31z m0 0"  horiz-adv-x="1025" />

    
    <glyph glyph-name="bianji" unicode="&#58952;" d="M792.149333 493.226667L632.064 653.397333l106.666667 106.666667c25.6 27.221333 28.16 26.965333 53.418666 0l106.666667-106.666667c26.026667-26.453333 27.733333-25.941333 0-53.418666l-106.666667-106.666667z m-400.213333-400.213334L231.850667 253.098667l346.88 346.88 160.085333-160.085334L391.936 93.013333z m-273.664-113.493333l60.245333 220.245333 160.085334-160.085333-220.330667-60.245333z m860.672 700.586667L818.858667 840.021333c-32.256 32.341333-74.154667 32.597333-106.666667 0L119.466667 247.466667 37.717333-47.786667c-8.704-40.96 12.458667-62.122667 53.418667-53.333333l295.168 81.664 592.64 592.64c32.597333 32.597333 32.256 74.496 0 106.752z"  horiz-adv-x="1024" />

    
    <glyph glyph-name="qizi-hong" unicode="&#58953;" d="M897.5872 894.6688a11.4176 11.4176 0 0 1-11.776-0.6656c-1.1264-0.8192-119.3472-81.2032-197.4784-81.2544-4.608 0-8.96 0.3072-13.0048 0.8704-31.5392 4.4032-56.4224 15.1552-82.7392 26.5216-37.6832 16.2816-76.6464 33.1264-137.728 33.1264-4.608 0-9.3184-0.1024-14.0288-0.3072a798.208 798.208 0 0 1-203.5712-36.9664L223.5904 850.7392A11.4176 11.4176 0 0 1 210.944 853.504l-50.2784-20.8384a11.4176 11.4176 0 0 1-6.656-13.3632l241.664-938.752a11.3664 11.3664 0 0 1 18.9952-5.2736l58.112 56.8832a11.3664 11.3664 0 0 1 3.1744 10.5472c-0.512 2.4064-51.3536 241.7664-54.4768 295.6288-1.6384 28.5696 9.728 57.9584 31.0784 80.64 23.0912 24.4224 69.4784 53.6064 159.232 53.6576 50.688 0 97.3824 6.5536 138.752 19.5584a319.1296 319.1296 0 0 1 89.4976 43.52c44.7488 31.744 61.696 63.6928 62.4128 65.024a11.2128 11.2128 0 0 1 1.28 5.2736V884.5824a11.3664 11.3664 0 0 1-6.0928 10.0864"  horiz-adv-x="1024" />

    
    <glyph glyph-name="qizi-lan" unicode="&#58954;" d="M897.5872 894.6688a11.4176 11.4176 0 0 1-11.776-0.6656c-1.1264-0.8192-119.3472-81.2032-197.4784-81.2544-4.608 0-8.96 0.3072-13.0048 0.8704-31.5392 4.4032-56.4224 15.1552-82.7392 26.5216-37.6832 16.2816-76.6464 33.1264-137.728 33.1264-4.608 0-9.3184-0.1024-14.0288-0.3072a798.208 798.208 0 0 1-203.5712-36.9664L223.5904 850.7392A11.4176 11.4176 0 0 1 210.944 853.504l-50.2784-20.8384a11.4176 11.4176 0 0 1-6.656-13.3632l241.664-938.752a11.3664 11.3664 0 0 1 18.9952-5.2736l58.112 56.8832a11.3664 11.3664 0 0 1 3.1744 10.5472c-0.512 2.4064-51.3536 241.7664-54.4768 295.6288-1.6384 28.5696 9.728 57.9584 31.0784 80.64 23.0912 24.4224 69.4784 53.6064 159.232 53.6576 50.688 0 97.3824 6.5536 138.752 19.5584a319.1296 319.1296 0 0 1 89.4976 43.52c44.7488 31.744 61.696 63.6928 62.4128 65.024a11.2128 11.2128 0 0 1 1.28 5.2736V884.5824a11.3664 11.3664 0 0 1-6.0928 10.0864"  horiz-adv-x="1024" />

    
    <glyph glyph-name="qizi-zi" unicode="&#58955;" d="M897.5872 894.6688a11.4176 11.4176 0 0 1-11.776-0.6656c-1.1264-0.8192-119.3472-81.2032-197.4784-81.2544-4.608 0-8.96 0.3072-13.0048 0.8704-31.5392 4.4032-56.4224 15.1552-82.7392 26.5216-37.6832 16.2816-76.6464 33.1264-137.728 33.1264-4.608 0-9.3184-0.1024-14.0288-0.3072a798.208 798.208 0 0 1-203.5712-36.9664L223.5904 850.7392A11.4176 11.4176 0 0 1 210.944 853.504l-50.2784-20.8384a11.4176 11.4176 0 0 1-6.656-13.3632l241.664-938.752a11.3664 11.3664 0 0 1 18.9952-5.2736l58.112 56.8832a11.3664 11.3664 0 0 1 3.1744 10.5472c-0.512 2.4064-51.3536 241.7664-54.4768 295.6288-1.6384 28.5696 9.728 57.9584 31.0784 80.64 23.0912 24.4224 69.4784 53.6064 159.232 53.6576 50.688 0 97.3824 6.5536 138.752 19.5584a319.1296 319.1296 0 0 1 89.4976 43.52c44.7488 31.744 61.696 63.6928 62.4128 65.024a11.2128 11.2128 0 0 1 1.28 5.2736V884.5824a11.3664 11.3664 0 0 1-6.0928 10.0864"  horiz-adv-x="1024" />

    
    <glyph glyph-name="qizi-lv" unicode="&#58956;" d="M897.5872 894.6688a11.4176 11.4176 0 0 1-11.776-0.6656c-1.1264-0.8192-119.3472-81.2032-197.4784-81.2544-4.608 0-8.96 0.3072-13.0048 0.8704-31.5392 4.4032-56.4224 15.1552-82.7392 26.5216-37.6832 16.2816-76.6464 33.1264-137.728 33.1264-4.608 0-9.3184-0.1024-14.0288-0.3072a798.208 798.208 0 0 1-203.5712-36.9664L223.5904 850.7392A11.4176 11.4176 0 0 1 210.944 853.504l-50.2784-20.8384a11.4176 11.4176 0 0 1-6.656-13.3632l241.664-938.752a11.3664 11.3664 0 0 1 18.9952-5.2736l58.112 56.8832a11.3664 11.3664 0 0 1 3.1744 10.5472c-0.512 2.4064-51.3536 241.7664-54.4768 295.6288-1.6384 28.5696 9.728 57.9584 31.0784 80.64 23.0912 24.4224 69.4784 53.6064 159.232 53.6576 50.688 0 97.3824 6.5536 138.752 19.5584a319.1296 319.1296 0 0 1 89.4976 43.52c44.7488 31.744 61.696 63.6928 62.4128 65.024a11.2128 11.2128 0 0 1 1.28 5.2736V884.5824a11.3664 11.3664 0 0 1-6.0928 10.0864"  horiz-adv-x="1024" />

    
    <glyph glyph-name="qizi-huang" unicode="&#58957;" d="M897.5872 894.6688a11.4176 11.4176 0 0 1-11.776-0.6656c-1.1264-0.8192-119.3472-81.2032-197.4784-81.2544-4.608 0-8.96 0.3072-13.0048 0.8704-31.5392 4.4032-56.4224 15.1552-82.7392 26.5216-37.6832 16.2816-76.6464 33.1264-137.728 33.1264-4.608 0-9.3184-0.1024-14.0288-0.3072a798.208 798.208 0 0 1-203.5712-36.9664L223.5904 850.7392A11.4176 11.4176 0 0 1 210.944 853.504l-50.2784-20.8384a11.4176 11.4176 0 0 1-6.656-13.3632l241.664-938.752a11.3664 11.3664 0 0 1 18.9952-5.2736l58.112 56.8832a11.3664 11.3664 0 0 1 3.1744 10.5472c-0.512 2.4064-51.3536 241.7664-54.4768 295.6288-1.6384 28.5696 9.728 57.9584 31.0784 80.64 23.0912 24.4224 69.4784 53.6064 159.232 53.6576 50.688 0 97.3824 6.5536 138.752 19.5584a319.1296 319.1296 0 0 1 89.4976 43.52c44.7488 31.744 61.696 63.6928 62.4128 65.024a11.2128 11.2128 0 0 1 1.28 5.2736V884.5824a11.3664 11.3664 0 0 1-6.0928 10.0864"  horiz-adv-x="1024" />

    
    <glyph glyph-name="shanchu" unicode="&#58958;" d="M821.333333 640h-640a32 32 0 1 0 0 64h640a32 32 0 0 0 0-64z m-32-640a64 64 0 0 0-64-64H277.333333a64 64 0 0 0-64 64V576h576v-576z m-384 800c0 17.664 14.336 32 32 32h128c17.664 0 32-14.336 32-32V768H405.333333v32zM853.333333 768H661.333333V832A64 64 0 0 1 597.333333 896H405.333333A64 64 0 0 1 341.333333 832v-64H149.333333a64 64 0 0 1-64-64V640c0-35.328 28.672-64 64-64v-576a128 128 0 0 1 128-128H725.333333a128 128 0 0 1 128 128V576a64 64 0 0 1 64 64v64A64 64 0 0 1 853.333333 768z m-352-768a32 32 0 0 1 32 32v384a32 32 0 0 1-64 0v-384c0-17.664 14.336-32 32-32zM341.333333 0a32 32 0 0 1 32 32v384a32 32 0 0 1-64 0v-384c0-17.664 14.336-32 32-32z m320 0a32 32 0 0 1 32 32v384a32 32 0 0 1-64 0v-384c0-17.664 14.336-32 32-32z"  horiz-adv-x="1024" />

    
    </font>
</defs>
</svg>
